<svg width="146" height="182" viewBox="0 0 146 182" fill="none" xmlns="http://www.w3.org/2000/svg">
<rect x="0.5" y="0.5" width="145" height="181" rx="7.5" stroke="#A24C00"/>
<path d="M83.8616 49.2586C83.7813 46.7328 83.1316 49.4995 83.4966 50.2441C83.5094 50.2667 83.5267 50.2865 83.5472 50.3024C83.5678 50.3184 83.5913 50.33 83.6164 50.3368C83.6415 50.3436 83.6677 50.3454 83.6935 50.342C83.7193 50.3386 83.7442 50.3301 83.7667 50.3171C83.7962 50.2985 83.8211 50.2736 83.8397 50.2441C83.9016 49.9185 83.9016 49.5842 83.8397 49.2586H83.8616ZM76.9558 59.537C76.4667 59.537 71.1961 59.2669 71.2253 59.6684C70.8968 59.5735 71.2253 61.9314 71.2253 62.2088C71.2253 62.4862 71.7874 62.4424 71.9553 62.457C73.4153 62.5665 77.4595 62.5373 77.7953 62.5373C78.1311 62.5373 77.934 59.7633 77.9267 59.756C77.9194 59.4494 77.131 59.5443 76.9558 59.537ZM77.5909 62.1869C76.3426 62.1869 72.7802 62.0993 71.5976 62.1869C71.51 61.3839 71.4224 60.5809 71.3421 59.7779L77.6128 59.902C77.5617 60.6612 77.5909 61.4277 77.5909 62.1869ZM67.787 63.1651C67.8149 63.162 67.841 63.1494 67.8609 63.1295C67.8808 63.1096 67.8933 63.0836 67.8965 63.0556V61.1941C67.8965 60.9167 67.4512 60.8656 67.4658 61.1503C67.4658 61.7927 67.5461 62.4278 67.5972 63.0629C67.5977 63.0848 67.604 63.1061 67.6155 63.1248C67.6269 63.1434 67.6431 63.1587 67.6624 63.1691C67.6817 63.1795 67.7033 63.1846 67.7252 63.1839C67.7471 63.1832 67.7684 63.1767 67.787 63.1651ZM83.5842 58.734C83.5558 58.7379 83.5293 58.7506 83.5084 58.7702C83.4875 58.7898 83.4731 58.8154 83.4674 58.8435C83.4674 59.1501 83.2703 60.9021 83.6353 60.9386C84.0879 60.9386 83.7813 59.2377 83.7375 58.8289C83.7288 58.7965 83.7082 58.7686 83.6797 58.751C83.6512 58.7334 83.617 58.7273 83.5842 58.734ZM83.7813 62.7928C83.7083 62.2891 83.4528 62.3256 83.4236 63.0118V63.8294C83.4236 64.355 84.0514 64.7711 83.7813 62.7928ZM83.6207 66.0705C83.2265 66.107 83.5331 67.9247 83.5842 68.2605C83.5842 68.3846 83.8105 68.4138 83.8178 68.2605C83.8178 67.6035 83.8178 66.9465 83.8616 66.2895C83.8629 66.2585 83.8575 66.2275 83.8455 66.1988C83.8336 66.1701 83.8155 66.1444 83.7925 66.1235C83.7695 66.1026 83.7422 66.087 83.7125 66.0779C83.6828 66.0687 83.6515 66.0662 83.6207 66.0705ZM83.8178 51.8793C83.8178 51.726 83.5477 51.7479 83.5185 51.8793C83.4893 52.0107 83.2703 54.3613 83.7813 53.7773C83.891 53.1469 83.891 52.5024 83.7813 51.872L83.8178 51.8793ZM83.4163 55.7921V57.2521C83.4163 57.5441 83.8762 57.5003 83.8616 57.2521C83.8616 56.7703 83.8616 56.2885 83.7886 55.7921C83.7448 55.0183 83.4309 54.9745 83.4163 55.7921ZM83.5185 70.0563C83.4088 70.6891 83.4088 71.3361 83.5185 71.9689C83.5185 72.1295 83.7886 72.1003 83.8178 71.9689C83.847 71.8375 84.0295 69.4723 83.5185 70.0563ZM103.068 49.8864C103.482 49.9541 103.864 50.1538 104.156 50.4558C104.316 50.6237 104.521 50.3317 103.922 49.8499C102.929 49.0688 102.513 49.7842 103.068 49.8864ZM102.535 52.7115C103.185 52.529 102.644 51.1785 102.447 52.2224C102.425 52.31 102.36 52.7626 102.535 52.7115ZM103.031 57.3032C105.221 57.347 104.572 53.9452 104.156 54.6752C103.192 56.3177 101.557 55.9673 101.44 56.1352C101.323 56.3031 102.002 57.2886 103.031 57.3032ZM104.265 55.0548C104.754 57.0696 102.586 57.6901 101.725 56.3177C102.221 56.3405 102.714 56.2365 103.159 56.0155C103.603 55.7945 103.984 55.4639 104.265 55.0548ZM83.7302 46.8204C83.7588 46.8071 83.7839 46.787 83.8032 46.762C83.9237 46.1252 83.9237 45.4715 83.8032 44.8348C83.8032 44.718 83.5915 44.6815 83.555 44.8348C83.4409 45.4709 83.4236 46.1207 83.5039 46.762C83.5278 46.7979 83.5641 46.8237 83.6059 46.8344C83.6476 46.8452 83.6919 46.8402 83.7302 46.8204ZM99.7756 54.427C99.9216 55.084 101.644 54.3686 100.133 54.2956C100.228 53.3521 100.427 52.4218 100.725 51.5216C100.841 51.1274 100.206 51.3026 99.834 53.9233C99.7853 54.0865 99.7655 54.257 99.7756 54.427ZM67.4877 64.9828C67.5031 65.6281 67.5592 66.2718 67.6556 66.91C67.6556 66.941 67.6679 66.9707 67.6898 66.9926C67.7117 67.0145 67.7414 67.0268 67.7724 67.0268C67.8033 67.0268 67.8331 67.0145 67.855 66.9926C67.8769 66.9707 67.8892 66.941 67.8892 66.91C68.1374 63.6615 67.4877 64.939 67.4877 64.9828ZM98.7609 51.3318C98.4981 51.6822 98.5492 52.3173 98.8412 52.0618C99.1332 51.8063 98.9434 51.0836 98.7609 51.3318ZM67.5315 72.604C67.1738 73.3924 67.9768 76.254 67.9403 73.1077C67.933 72.604 67.6994 72.2463 67.5315 72.604ZM67.5461 70.6403C67.5461 70.7936 67.8235 70.7717 67.8527 70.6403C67.8819 70.5089 68.0936 68.1583 67.5899 68.735C67.4657 69.3653 67.4508 70.0123 67.5461 70.6476V70.6403Z" fill="#A24C00"/>
<path d="M96.1039 46.0977C96.5801 46.5295 97.1192 46.8864 97.7026 47.1562C96.7828 50.2003 94.8264 59.975 100.002 60.559C100.002 61.0262 99.9583 61.4934 99.9364 61.9679C98.3376 62.4627 96.8017 63.1412 95.3593 63.99C94.768 64.9536 94.1767 65.9245 93.6219 66.91C92.891 68.2696 92.2354 69.6685 91.6582 71.1002C92.6845 71.4755 93.6416 72.0182 94.4906 72.7062C95.3666 73.3632 93.8044 74.3633 93.1766 75.159C94.9537 78.4191 97.2772 81.35 100.046 83.8241C100.214 82.8167 100.411 81.9553 100.491 81.6341C98.8122 78.7141 96.6222 67.7641 96.8777 63.6761C97.3157 63.4571 97.7537 63.26 98.1917 63.0775C98.1917 63.9097 98.9874 65.9172 99.8342 66.1216C99.9291 66.4136 100.309 65.8296 100.564 65.5741C100.703 66.0778 100.893 66.5961 100.98 66.9757C101.587 66.8458 102.218 66.894 102.798 67.1144C103.105 66.691 103.623 66.0851 103.878 65.8004C104.003 65.9683 104.207 66.326 104.426 66.2895C106.171 65.961 108.806 64.2966 109.704 62.676C110.244 62.8147 110.77 62.968 111.295 63.1432C106.528 68.37 101.805 77.2979 100.579 84.1234C103.732 81.8458 108.923 78.0498 111.383 75.7065C109.478 72.7354 107.886 72.9544 111.711 72.2025C112.441 72.0638 113.135 71.9251 113.85 71.8229C113.66 68.971 113.339 66.1338 112.887 63.3111C111.256 62.6108 109.537 62.1415 107.777 61.9168C107.733 60.7853 107.777 59.6465 107.777 58.515C107.777 58.515 112.982 52.3027 112.368 48.1928C112.127 46.5503 110.843 46.4262 109.507 46.8569C110.536 45.8714 111.77 46.0247 111.697 45.3969C111.587 44.4698 109.244 45.0246 108.485 46.3824C106.331 41.9367 101.185 40.6738 104.017 44.0172C102.156 42.7908 100.075 41.7177 97.7829 41.7177C94.3592 41.6666 93.9504 44.1413 96.1039 46.0977ZM99.9437 65.8077C99.5065 65.4582 99.1433 65.0252 98.8751 64.5339C98.6069 64.0426 98.4391 63.5029 98.3815 62.9461C98.9144 62.7271 99.4473 62.53 99.9948 62.3475C100.624 62.9162 101.282 63.4522 101.966 63.9535C101.167 64.4287 100.477 65.0682 99.9437 65.8296V65.8077ZM107.791 62.2161C108.317 62.3256 108.835 62.4351 109.353 62.5665C108.075 64.1293 106.394 65.3132 104.492 65.9902C103.946 65.2641 103.319 64.6028 102.623 64.0192C104.459 63.8289 106.227 63.2195 107.791 62.238V62.2161ZM97.9508 47.2657C99.586 47.9519 104.623 48.6819 106.441 48.6089C105.375 51.3099 106.609 53.9452 107.368 52.6969C107.58 52.3392 107.945 51.7771 108.536 52.2443C108.879 52.5217 109.01 53.1933 108.412 54.2591C107.779 55.3089 107.455 56.5157 107.477 57.7412C107.381 59.1626 107.362 60.5882 107.419 62.0117C105.854 62.8895 104.146 63.4827 102.375 63.7637L100.185 62.1431C100.258 61.216 100.513 60.1721 100.185 60.1721C99.7679 60.1473 99.3614 60.0335 98.9924 59.8383C98.6235 59.6431 98.3006 59.3711 98.0457 59.0406C96.009 56.5951 97.2135 50.1565 97.9508 47.2657Z" fill="#A24C00"/>
<path d="M98.3963 50.3025C98.5721 50.1649 98.7742 50.0648 98.9901 50.0083C99.2061 49.9518 99.4313 49.9402 99.6519 49.974C99.6834 49.9702 99.7129 49.9562 99.7357 49.9341C99.7586 49.9121 99.7736 49.8832 99.7786 49.8518C99.7835 49.8205 99.7781 49.7883 99.7632 49.7603C99.7482 49.7323 99.7245 49.7099 99.6957 49.6966C98.3817 49.39 97.9656 50.6602 98.3963 50.3025ZM101.017 67.3553C100.433 70.2364 99.8515 73.1223 99.2723 76.0131C99.6076 77.6114 100.097 79.1735 100.732 80.6778C101.308 78.941 101.973 77.2354 102.725 75.5678C102.55 73.5384 102.448 68.5817 102.528 67.6546C102.077 67.3751 101.54 67.2688 101.017 67.3553ZM48.1796 49.2513C48.7928 49.171 47.7197 45.6013 47.9095 48.7111C47.9314 48.9009 47.9095 49.2878 48.1796 49.2513ZM47.9168 79.4514C47.9168 79.6704 47.8584 80.415 48.2088 80.3712C48.822 80.2909 47.8 76.9986 47.9168 79.4514ZM48.2891 57.42C48.2822 57.3913 48.2659 57.3658 48.2427 57.3475C48.2195 57.3293 48.1909 57.3193 48.1614 57.3193C48.1319 57.3193 48.1032 57.3293 48.0801 57.3475C48.0569 57.3658 48.0405 57.3913 48.0336 57.42C47.9181 58.0537 47.9033 58.7016 47.9898 59.3399C48.0103 59.3814 48.0463 59.4132 48.0901 59.4282C48.1338 59.4433 48.1818 59.4404 48.2234 59.4202C48.2508 59.4049 48.2755 59.3851 48.2964 59.3618C48.4128 58.7195 48.4103 58.0614 48.2891 57.42ZM47.9387 83.7C47.9825 83.9993 48.3986 83.9774 48.384 83.4372C48.3183 81.729 47.9314 81.6998 47.9241 82.5466C47.8949 82.9305 47.8949 83.3161 47.9241 83.7H47.9387ZM47.9168 61.8657C47.8863 62.1839 47.911 62.5049 47.9898 62.8147C48.0185 62.8595 48.0629 62.8918 48.1143 62.9053C48.1657 62.9189 48.2203 62.9126 48.2672 62.8877L48.3402 62.8147C48.3402 62.7417 48.3402 60.4422 48.0117 60.9167C47.8438 61.143 47.9168 61.5956 47.9168 61.8657ZM48.238 71.436C48.2354 71.4186 48.2293 71.402 48.2201 71.387C48.2109 71.3721 48.1988 71.3591 48.1845 71.3489C48.1702 71.3387 48.154 71.3314 48.1369 71.3276C48.1198 71.3237 48.102 71.3234 48.0847 71.3265C48.0568 71.3296 48.0307 71.3422 48.0108 71.3621C47.9909 71.382 47.9784 71.408 47.9752 71.436C47.9752 71.7426 47.7708 73.4946 48.1358 73.5311C48.5884 73.5895 48.2818 71.8521 48.238 71.436ZM48.2161 67.9028C48.2161 67.8718 48.2038 67.8421 48.1819 67.8202C48.16 67.7983 48.1303 67.786 48.0993 67.786C48.0684 67.786 48.0387 67.7983 48.0167 67.8202C47.9948 67.8421 47.9825 67.8718 47.9825 67.9028C47.7343 71.1586 48.384 69.8738 48.384 69.83C48.3689 69.1847 48.3128 68.541 48.2161 67.9028ZM48.311 64.4791C48.311 64.3185 48.0409 64.3477 48.0117 64.4791C47.9825 64.6105 47.7708 66.9611 48.2745 66.3771C48.3965 65.7464 48.4088 65.0994 48.311 64.4645V64.4791ZM47.9314 75.6043V76.4C47.9314 76.9256 48.5592 77.3417 48.2891 75.3634C48.2161 74.8816 47.9606 74.94 47.9314 75.6043ZM89.7239 105.009C88.6096 104.766 87.5235 104.409 86.4827 103.943C86.5338 105.096 86.5922 106.213 86.6506 107.323C88.5778 107.272 89.5122 107.009 89.7239 105.023V105.009ZM116.96 109.418L117.15 106.067C115.434 106.227 113.712 106.295 111.989 106.272C112.697 109.075 114.157 109.345 116.96 109.418ZM120.128 155.014C119.61 144.75 119.34 116.988 119.661 105.768C119.004 105.87 118.289 105.958 117.544 106.031C117.041 122.821 116.814 138.224 117.873 155.211C118.63 155.248 119.389 155.181 120.128 155.014ZM67.729 86.182L35.2148 85.671C33.9008 85.671 32.5649 85.5907 31.2436 85.671C31.0903 85.671 31.1122 85.9119 31.2436 85.9265C32.8569 86.0798 36.5507 86.0871 38.3684 86.1236L67.6925 86.62C67.9772 86.62 68.021 86.182 67.729 86.182Z" fill="#A24C00"/>
<path d="M111.873 155.123C113.696 155.279 115.527 155.313 117.355 155.225C116.625 140.158 116.347 125.084 116.939 109.965C115.347 109.965 112.719 109.571 111.938 107.943C111.663 107.423 111.535 106.838 111.566 106.25C106.857 106.126 102.434 105.235 101.251 103.03C100.989 103.543 100.57 103.958 100.054 104.213C100.054 105.074 99.9225 109.177 100.273 109.827C100.543 110.345 101.142 110.272 101.631 110.36C101.679 110.373 101.72 110.405 101.745 110.449C101.769 110.493 101.776 110.545 101.762 110.593C101.753 110.624 101.736 110.652 101.713 110.675C101.69 110.698 101.662 110.715 101.631 110.725C100.273 110.944 99.667 110.148 99.594 108.885C99.4735 107.403 99.4735 105.914 99.594 104.432C97.5062 105.418 93.7978 105.812 90.104 105.089C90.104 107.337 88.5783 107.907 86.6365 107.958C87.8775 130.245 90.8559 143.969 94.6154 155.189C94.7395 155.547 102.456 155.466 102.441 155.123C101.872 142.553 101.565 131.522 102.945 120.521L102.215 114.681C100.244 113.834 100.609 113.221 100.937 113.433L102.134 114.163C102.405 114.287 102.631 114.272 102.616 114.616C104.595 128.157 107.77 141.085 111.873 155.123ZM41.3327 80.6924C39.239 80.6119 37.1424 80.6607 35.0547 80.8384C34.5875 80.8895 34.4707 80.9406 34.4707 81.4078C34.4707 82.0648 34.4707 83.4299 34.77 83.2547C34.8138 83.4299 39.7194 83.3934 41.0772 83.3204C41.4495 83.3204 41.5225 83.0795 41.3108 82.9919C41.4787 82.97 41.5371 80.78 41.3327 80.6924ZM34.8211 83.1014C34.8576 82.4474 34.8576 81.7918 34.8211 81.1377C36.8432 81.0866 39.0916 81.1377 41.0553 80.999C41.0553 81.2691 40.9458 82.824 41.1356 82.97C40.3545 82.9189 34.9452 83.043 34.8211 83.1014Z" fill="#A24C00"/>
<path d="M113.361 63.5301C113.872 65.9705 114.209 68.4441 114.369 70.9323C114.493 72.7062 114.755 72.2536 111.821 72.7792C111.251 72.8814 110.689 73.0128 110.12 73.0858C110.434 73.4654 112.587 76.0058 111.711 76.0934C110.529 77.6702 102.535 83.4883 100.455 84.649C100.345 85.379 100.265 86.0579 100.221 86.7733C100.121 86.7774 100.022 86.8022 99.9316 86.8462C99.8412 86.8901 99.7608 86.9523 99.6955 87.0288C99.7029 86.1728 99.7761 85.3186 99.9145 84.4738C96.4835 82.0429 93.2204 76.5606 92.6948 75.1882C92.4466 74.5458 93.7533 73.6625 94.1548 73.2683C93.2788 72.5383 91.0304 71.5747 91.1399 71.217C91.9249 68.8843 92.9912 66.656 94.3154 64.5813C93.4905 65.0854 92.6822 65.6161 91.8918 66.1727C91.5852 54.4197 91.5925 42.3017 90.8844 30.5998H92.7751C93.1036 30.5998 93.0817 29.753 92.7751 29.753H90.8041C86.2854 28.95 81.7667 28.1543 77.2699 27.2199C70.2692 25.7599 63.1444 23.9787 56.151 22.672V21.8033C56.151 21.6135 55.3772 21.5916 55.3772 21.8033V22.6136C45.4419 25.1978 35.3825 27.3586 25.3815 29.5705C24.1024 29.7842 22.8354 30.0644 21.5855 30.41L19.1546 30.4611C18.8845 30.4611 18.8918 31.1911 19.1546 31.1911H21.6804C21.3154 50.7405 21.2789 70.2753 21.1256 89.8101C21.1256 90.2335 20.9358 93.5477 21.3081 93.5477C25.5129 93.6353 55.0779 93.5477 55.0779 93.5477C55.0779 112.849 55.0536 132.153 55.0049 151.459C49.0554 154.605 40.8794 158.992 39.5143 159.802C39.2661 159.868 18.1764 159.802 15.4681 159.868C15.3075 159.868 15.3075 160.175 15.4681 160.175C19.0086 160.299 124.333 160.35 124.333 160.35C124.625 160.35 124.683 159.861 124.391 159.861H119.559C119.396 158.458 119.115 157.071 118.719 155.715C117.057 155.882 115.381 155.882 113.719 155.715C112.558 156.131 107.974 157.905 107.791 159.839H102.586C102.462 158.486 102.203 157.148 101.812 155.846C100.022 156.26 98.1664 156.302 96.3594 155.97C95.5783 156.247 91.1253 157.861 90.7968 159.854H72.6417C72.2037 159.416 56.5452 151.772 56.2824 151.685V93.5696H85.5262C85.2634 97.2196 85.1539 102.943 85.3218 103.016C92.8481 106.221 100.09 104.936 101.009 102.519C99.2429 100.089 99.3816 93.6426 99.3962 92.4308C99.5363 92.6547 99.7003 92.8628 99.8853 93.0513C99.7904 95.2413 99.7904 102.001 102.74 103.95C105.864 106.023 116.055 106.221 120.471 105.104C120.515 103.016 120.413 100.315 120.318 98.9059C116.434 98.5971 112.58 97.9869 108.791 97.0809C108.39 96.9933 105.623 96.4823 105.579 96.1538C105.536 95.8253 105.484 95.38 105.455 94.9858L103.995 94.6573C103.989 92.8011 104.175 90.9492 104.55 89.1312L105.674 89.0874C105.733 88.7078 105.674 88.0143 106.119 88.0143C107.195 87.6596 108.292 87.3767 109.405 87.1675C111.268 86.7733 113.128 86.3961 114.982 86.036C114.502 84.0701 114.184 82.068 114.033 80.05C114.033 79.8164 114.368 79.758 114.39 79.9916C114.63 82.0004 115.005 83.9906 115.515 85.9484C117.645 85.5035 119.8 85.1891 121.968 85.0067C122.005 85.0147 122.039 85.0354 122.063 85.0653C122.088 85.0952 122.101 85.1325 122.101 85.171C122.101 85.2094 122.088 85.2467 122.063 85.2766C122.039 85.3066 122.005 85.3272 121.968 85.3352C116.756 85.7513 111.383 87.1675 106.273 88.3793C105.827 90.8715 105.697 93.4101 105.886 95.9348C109.14 96.7893 112.44 97.4596 115.77 97.9423C121.201 98.6066 129.239 99.9279 130.37 92.4308C132.166 81.2545 123.369 68.0707 113.361 63.5301ZM55.0049 159.817H41.6094C46.0551 157.386 50.5519 155.203 55.0414 152.678L55.0049 159.817ZM88.3732 29.7384L56.2532 30.0669C56.2532 27.6944 56.2021 25.6869 56.1583 23.2998C66.5608 25.6869 77.8174 27.8769 88.3732 29.7384ZM55.3553 23.3509C55.3115 25.7161 55.2677 27.7309 55.2385 30.0815C44.4564 30.1837 34.3167 30.2129 23.5346 30.41C34.3751 28.293 55.3553 23.3509 55.3553 23.3509ZM70.5101 159.861H56.2094V152.751C60.4507 155.182 66.0133 157.795 70.5101 159.824V159.861ZM90.388 73.2099C87.468 79.2835 86.0883 86.4083 85.5554 93.1316C64.3854 93.1316 42.8066 92.6206 21.695 93.0805C21.8191 91.4964 21.5855 88.883 21.6001 87.1821C21.7461 68.5087 22.3666 49.9521 22.2936 31.2495C30.966 31.2495 90.2566 30.6217 90.2566 30.6217C90.6581 41.6885 91.4392 65.9756 91.4903 66.5012C87.3438 69.4664 83.6142 72.975 80.4016 76.9329C81.7822 77.1832 83.1453 77.5221 84.4823 77.9476C84.527 77.967 84.5625 78.0028 84.5816 78.0476C84.6006 78.0925 84.6016 78.1429 84.5845 78.1885C84.5682 78.2291 84.5378 78.2625 84.499 78.2826C84.4601 78.3027 84.4154 78.3082 84.3728 78.298C81.6061 77.641 71.481 75.4948 66.8528 75.9985C66.7433 75.9985 66.7652 76.1883 66.8017 76.4146C66.3695 76.3262 65.926 76.3065 65.4877 76.3562C64.2102 74.6334 62.8597 72.7062 60.6478 74.1662C59.6623 72.312 51.2089 56.1425 50.8804 56.1133C50.4716 55.5147 49.9971 56.1133 50.2672 56.617L59.7207 75.67C58.9907 76.2978 58.8812 77.2687 59.5017 77.4731C59.1221 78.2615 59.6477 79.1959 59.9105 79.0864C59.6258 80.5464 61.7939 81.8969 62.7648 81.7144C62.8962 81.9626 63.4948 83.2401 63.7503 83.2255C63.8909 83.3357 64.0654 83.3939 64.244 83.3901C64.4227 83.3864 64.5945 83.3209 64.7303 83.2048C64.8662 83.0887 64.9577 82.9292 64.9893 82.7534C65.0209 82.5775 64.9906 82.3961 64.9037 82.24L65.5169 82.5685C65.3417 82.8605 65.2395 83.0138 65.2906 83.0722C68.3055 86.5908 75.7953 90.9489 78.6642 91.3942C80.9856 91.7519 83.7158 91.8249 85.0809 91.438C85.7087 85.4301 87.1468 78.371 90.0449 72.9982C90.0558 72.9756 90.0711 72.9553 90.0899 72.9386C90.1087 72.922 90.1306 72.9092 90.1543 72.901C90.1781 72.8929 90.2033 72.8895 90.2283 72.8912C90.2534 72.8928 90.2779 72.8994 90.3004 72.9106C90.324 72.9215 90.3451 72.937 90.3624 72.9564C90.3798 72.9757 90.3929 72.9984 90.4012 73.023C90.4094 73.0477 90.4124 73.0737 90.4102 73.0996C90.4079 73.1254 90.4004 73.1506 90.388 73.1734V73.2099ZM62.9984 77.7578C62.9516 77.6693 62.8826 77.5944 62.7981 77.5407C62.7136 77.4869 62.6166 77.4561 62.5166 77.4512C62.5983 77.3999 62.6679 77.3316 62.7208 77.251C62.7737 77.1704 62.8086 77.0793 62.8232 76.984C63.1006 77.2833 63.1809 77.0862 63.1006 76.984C62.721 76.4365 62.3706 74.9181 62.064 75.0568C61.7793 74.9546 60.9033 75.2466 60.4215 75.2028C60.2317 75.2028 60.0857 75.0787 60.2317 74.8743C60.783 74.2734 61.5427 73.9053 62.356 73.845C63.4364 74.0348 64.7723 75.8452 65.3417 76.6628C65.9768 78.3564 64.9037 80.9479 64.4657 81.3786L62.9254 78.3783C62.9935 78.2916 63.0364 78.1878 63.0493 78.0783C63.0622 77.9688 63.0446 77.8579 62.9984 77.7578ZM59.9032 75.159L50.4643 56.3104C50.4643 55.8724 50.7782 56.252 50.9169 56.4783C51.7345 58.1208 60.4069 74.3633 60.4069 74.3633C60.2649 74.4454 60.1449 74.5606 60.0572 74.6992C59.9694 74.8378 59.9166 74.9955 59.9032 75.159ZM60.1441 75.7722C60.5748 75.5459 61.8085 75.1736 62.1151 75.7284C62.1516 75.9036 62.1881 76.0715 62.2173 76.2467C61.7341 76.1577 61.2355 76.2063 60.7786 76.387C60.3216 76.5677 59.9247 76.8732 59.6331 77.2687C59.1878 76.7577 59.6258 76.0277 60.1441 75.7722ZM59.7061 77.7359C59.9762 77.0059 61.5384 76.1445 62.2465 76.5752C62.9546 77.0059 62.0494 77.3052 61.918 77.4877C61.4877 77.5168 61.0751 77.6703 60.7304 77.9295C60.3857 78.1887 60.1237 78.5424 59.9762 78.9477C59.8203 78.7925 59.7121 78.596 59.6642 78.3812C59.6163 78.1665 59.6309 77.9426 59.7061 77.7359ZM61.3194 77.933C61.626 77.8162 63.1663 77.4439 62.6553 78.2615C61.9253 78.3272 61.3048 78.882 61.6698 79.5974C61.9764 80.196 62.2903 80.7946 62.6115 81.3859C60.5456 81.1596 59.0199 78.7871 61.3194 77.933ZM61.8304 79.0426C61.9039 78.9051 62.0079 78.7863 62.1345 78.6952C62.261 78.6041 62.4067 78.5431 62.5604 78.517C62.8305 79.0426 64.6628 82.4517 64.6628 82.7218C64.6628 82.9919 64.0642 83.2182 63.9328 82.97C63.1931 81.6803 62.4874 80.3712 61.8158 79.0426H61.8304ZM64.5825 81.5684C65.714 80.7362 66.0425 78.1593 65.714 76.5971L66.9185 76.7723C67.0915 78.6913 66.6656 80.6168 65.6994 82.2838C65.4658 82.1378 64.6774 81.7874 64.5679 81.5684H64.5825ZM103.776 93.7813C102.791 93.7229 101.798 93.9273 100.732 93.2995C99.9437 92.8323 99.1334 91.8395 99.3962 90.9124C99.6882 91.3066 99.8342 90.9635 99.7247 90.8394C99.5248 90.6219 99.3885 90.3538 99.3306 90.0641C99.2727 89.7745 99.2954 89.4745 99.3962 89.1969C99.6371 89.686 99.8707 89.4013 99.7831 89.248C99.4254 88.5837 99.3451 87.3938 100.199 87.058C100.133 88.737 101.973 88.9779 101.842 88.518C101.842 88.518 101.112 85.3279 101.937 85.4885C102.338 86.5689 102.886 88.9268 104.127 89.2553C103.844 90.7466 103.722 92.2639 103.762 93.7813H103.776Z" fill="#A24C00"/>
<path d="M30.1782 84.7439C35.7846 76.7139 42.9459 64.4864 47.6325 55.9965C47.8094 56.1059 48.0135 56.1633 48.2215 56.1623C48.4295 56.1612 48.633 56.1017 48.8088 55.9906C48.9846 55.8795 49.1256 55.7212 49.2158 55.5338C49.306 55.3464 49.3417 55.1374 49.3188 54.9307C54.9982 56.3907 60.9185 57.2448 66.6563 58.5223C66.7658 60.048 68.912 59.464 68.5835 58.2157C73.3431 53.4123 78.4677 48.3023 83.1178 43.5427L83.293 43.6157C83.567 43.7062 83.8656 43.6849 84.124 43.5564C84.3823 43.4279 84.5795 43.2026 84.6727 42.9295C84.7678 42.6732 84.7607 42.3901 84.6529 42.1388C84.5451 41.8876 84.3449 41.6873 84.0937 41.5795C83.8424 41.4717 83.5594 41.4646 83.303 41.5596C83.0466 41.6546 82.8366 41.8445 82.7163 42.09C82.6128 42.2849 82.5694 42.5061 82.5914 42.7257C82.6135 42.9452 82.7002 43.1533 82.8404 43.3237C78.1392 48.0906 72.9124 52.9962 68.4521 57.9237C68.3342 57.7618 68.1719 57.6376 67.9849 57.566C67.735 57.4758 67.4597 57.4872 67.2181 57.5977C66.9765 57.7083 66.7879 57.9092 66.6928 58.1573C63.7728 57.566 50.6328 54.6898 49.2604 54.6387C48.7275 53.0619 46.2455 54.427 47.3186 55.741C41.8217 65.7128 35.9379 74.94 29.93 84.576C29.6915 84.4611 29.4213 84.4297 29.1627 84.4866C28.9041 84.5435 28.6721 84.6856 28.5039 84.89C28.3356 85.0944 28.2408 85.3494 28.2347 85.6141C28.2286 85.8788 28.3114 86.1379 28.47 86.3499C29.4409 87.7296 31.4922 85.9338 30.1782 84.7439ZM83.5996 36.6661C83.3295 36.7026 83.4244 37.0749 83.439 37.2574C83.7456 40.338 84.2566 36.6004 83.5996 36.6661Z" fill="#A24C00"/>
<path d="M67.7356 50.7843C67.2903 50.7405 67.5896 52.4779 67.6334 52.8867C67.636 52.9041 67.6421 52.9207 67.6513 52.9357C67.6605 52.9506 67.6726 52.9636 67.6869 52.9738C67.7012 52.984 67.7174 52.9913 67.7345 52.9951C67.7517 52.999 67.7694 52.9993 67.7867 52.9962C67.8147 52.9931 67.8407 52.9805 67.8606 52.9606C67.8805 52.9407 67.8931 52.9147 67.8962 52.8867C67.8889 52.5728 68.1006 50.85 67.7356 50.7843ZM67.8889 56.4491C68.1371 53.2006 67.4874 54.4781 67.4874 54.5219C67.5031 55.1647 67.5592 55.806 67.6553 56.4418C67.6543 56.4728 67.6657 56.5029 67.6869 56.5255C67.7081 56.548 67.7375 56.5613 67.7684 56.5622C67.7994 56.5632 67.8295 56.5518 67.8521 56.5306C67.8747 56.5094 67.8879 56.4801 67.8889 56.4491ZM67.6626 43.8931C67.3925 43.9296 67.4874 44.3019 67.5093 44.4844C67.8378 47.565 68.3196 43.8274 67.6626 43.8931ZM83.4598 39.5715C83.27 41.36 83.9489 41.5206 83.8613 40.1993C83.8613 39.9146 83.7737 39.6299 83.7372 39.3452C83.7372 39.2211 83.5036 39.1189 83.4598 39.5715ZM76.335 40.4475C77.6928 40.5862 80.5982 40.4986 80.7734 40.4913C81.8684 40.4913 81.7589 40.4913 81.6786 39.4401C81.6786 38.8853 81.6056 38.2794 81.3501 38.3524L75.8678 38.2356C75.4371 38.1188 75.5977 38.8342 75.6196 39.2941C75.6634 40.1263 75.3714 40.3453 76.335 40.4475ZM75.9773 38.5422L81.3282 38.7028L81.372 40.1044H75.97L75.9773 38.5422ZM67.5896 38.6736C67.5997 38.7062 67.6222 38.7336 67.6521 38.7499C67.6821 38.7663 67.7173 38.7703 67.7502 38.7612C67.7717 38.7549 67.7914 38.7437 67.8079 38.7285C67.8243 38.7133 67.8371 38.6945 67.8451 38.6736C67.9567 38.0395 67.9715 37.3922 67.8889 36.7537C67.8795 36.7316 67.8657 36.7116 67.8482 36.6951C67.8308 36.6785 67.8101 36.6657 67.7875 36.6575C67.7649 36.6493 67.7409 36.6458 67.7169 36.6473C67.6929 36.6488 67.6694 36.6552 67.648 36.6661C67.6215 36.6797 67.5989 36.6998 67.5823 36.7245C67.4762 37.3625 67.4762 38.0137 67.5823 38.6517L67.5896 38.6736ZM67.7283 40.3307C67.3706 40.3307 67.5093 41.0242 67.5239 41.2213C67.6553 43.9004 68.4145 40.3453 67.7283 40.3307ZM38.4991 53.8138C38.4991 53.9233 38.6962 53.9379 38.9955 53.9379C40.273 53.9379 44.8866 54.3029 44.9669 53.7919C45.2297 53.7919 45.1348 52.2078 45.0983 51.9012C45.4268 51.1201 39.1853 51.6968 38.7327 51.6603C38.5283 51.6019 38.4334 51.8282 38.4699 52.164C38.5283 52.7334 38.4699 53.551 38.4991 53.8138ZM38.813 51.9742C40.784 51.9742 42.8791 52.0253 44.8428 51.9742V53.6605C42.7842 53.7408 40.7913 53.6605 38.7838 53.7189C38.823 53.1382 38.8328 52.5559 38.813 51.9742ZM29.0164 38.8196C28.9069 44.5355 28.9507 74.4217 28.9653 83.6489C28.9653 83.9409 29.4252 83.9774 29.4252 83.6489C29.4252 77.7213 29.4909 47.8059 29.3011 38.7758C29.5201 38.7758 30.2866 38.7393 30.4399 38.4911C30.5932 38.2429 29.5201 35.4032 29.3595 34.9798C29.3011 34.8338 29.1113 34.936 29.0821 35.0382C28.7317 36.1989 28.3521 37.3377 28.0455 38.513C27.9579 38.8707 28.7901 38.8269 29.0164 38.8196ZM67.94 48.66V47.857C67.94 47.3387 67.3122 46.9153 67.5823 48.9009C67.6553 49.39 67.8889 49.39 67.94 48.66ZM47.9307 52.6093C47.9745 52.9086 48.3979 52.8794 48.376 52.3392C48.3103 50.631 47.9234 50.6018 47.9161 51.4559C47.8869 51.8398 47.8869 52.2254 47.9161 52.6093H47.9307ZM48.1789 38.9364C48.5804 38.8999 48.2665 37.0822 48.1789 36.7464C48.1789 36.6223 47.9526 36.5931 47.9453 36.7464C47.9453 37.4034 47.9307 38.0604 47.9015 38.7174C47.9002 38.7518 47.9071 38.786 47.9216 38.8173C47.936 38.8485 47.9576 38.8759 47.9847 38.8973C48.0117 38.9186 48.0433 38.9333 48.0771 38.9401C48.1108 38.9469 48.1457 38.9456 48.1789 38.9364ZM47.9234 44.499V45.3166C47.9234 45.8349 48.5512 46.2437 48.2811 44.2727C48.1789 43.769 47.9526 43.8128 47.9234 44.499ZM48.1278 42.4185C48.5804 42.4623 48.2738 40.7249 48.23 40.3088C48.23 40.2739 48.2162 40.2405 48.1915 40.2159C48.1669 40.1912 48.1334 40.1774 48.0986 40.1774C48.0637 40.1774 48.0303 40.1912 48.0057 40.2159C47.981 40.2405 47.9672 40.2739 47.9672 40.3088C47.9672 40.63 47.7628 42.382 48.1278 42.4185Z" fill="#A24C00"/>
</svg>
