<svg width="146" height="182" viewBox="0 0 146 182" fill="none" xmlns="http://www.w3.org/2000/svg">
<rect x="0.5" y="0.5" width="145" height="181" rx="7.5" stroke="#D60000"/>
<path d="M131.539 63.5228C131.634 63.6323 131.086 63.5228 139.051 64.9317V64.4718L131.911 63.0483C122.356 52.1494 109.128 48.1709 94.5281 48.5943C93.4331 44.9443 88.2866 27.8696 87.3668 25.5044C86.3448 22.8764 84.6001 21.65 81.8772 21.65C79.3149 21.65 41.7272 31.724 39.5372 32.3299C35.3835 33.4468 22.5428 36.6296 13.9872 38.8342C5.84037 40.9439 6.73827 46.1415 7.30037 49.244C10.4394 66.91 17.8854 92.9783 29.872 120.601C28.7358 124.096 28.2847 127.777 28.5434 131.442C29.5508 145.151 40.1431 155.036 51.042 158.058L51.8304 160.35H52.6115C51.6552 157.729 51.7209 157.518 51.4143 157.43C40.1504 154.196 30.4706 144.107 29.434 131.369C28.704 122.193 33.084 112.644 39.3109 106.987C41.1724 105.308 45.1509 102.607 46.4722 104.709C40.7198 113.885 36.6537 124.354 35.6974 131.683C36.1994 131.599 36.715 131.657 37.1858 131.85C37.6566 132.044 38.064 132.365 38.3619 132.778C38.5225 132.997 38.4568 133.428 38.0918 133.063C37.8181 132.809 37.4959 132.614 37.1446 132.488C36.7932 132.363 36.4201 132.31 36.0478 132.333C35.9792 132.34 35.9129 132.362 35.8527 132.396C35.7925 132.43 35.7397 132.475 35.6974 132.53C35.4711 132.844 35.6974 133.311 35.9967 133.566C36.6184 134.035 37.3598 134.318 38.1356 134.384C38.2593 134.394 38.3836 134.374 38.4979 134.325C38.6123 134.277 38.7133 134.202 38.7926 134.106C41.1651 131.172 43.3056 128.058 45.1947 124.792C46.0235 127.642 47.2813 130.35 48.925 132.822L47.4504 135.53C47.4422 135.543 47.4368 135.558 47.4344 135.574C47.432 135.589 47.4327 135.605 47.4364 135.62C47.4402 135.636 47.4469 135.65 47.4561 135.663C47.4654 135.675 47.4771 135.686 47.4905 135.694C47.5039 135.702 47.5188 135.708 47.5344 135.71C47.5499 135.713 47.5657 135.712 47.581 135.708C47.5962 135.704 47.6106 135.698 47.6233 135.688C47.6359 135.679 47.6466 135.667 47.6548 135.654L49.6404 132.975C49.6671 132.934 49.6813 132.885 49.6813 132.836C49.6813 132.787 49.6671 132.739 49.6404 132.698C48.493 130.999 47.515 129.192 46.7204 127.303C45.9527 125.435 45.3826 123.493 45.0195 121.507C42.5886 107.111 58.5683 115.491 62.4227 135.698C64.2769 145.334 61.5321 151.028 61.5321 151.495C61.5353 151.53 61.5501 151.564 61.5743 151.59C61.5984 151.616 61.6306 151.633 61.6656 151.639C61.7007 151.645 61.7367 151.639 61.768 151.622C61.7993 151.605 61.8242 151.579 61.8387 151.546C63.4115 147.085 63.9117 142.316 63.2987 137.625C64.4811 137.677 65.6647 137.552 66.81 137.253C67.9269 140.173 68.1824 142.808 67.0655 145.823C67.0412 145.868 67.0285 145.918 67.0285 145.969C67.0285 146.02 67.0412 146.07 67.0655 146.115L77.0154 160.35H77.9279L67.6568 145.896C67.7969 145.545 67.9187 145.187 68.0218 144.823C68.0218 144.823 87.0018 139.487 92.0023 137.793C95.2216 136.698 108.464 132.442 112.968 131.011C117.684 129.515 119.662 128.172 120.509 125.901C121.356 123.631 120.093 120.455 117.209 113.367C115.683 109.608 107.719 88.3355 107.223 87.0872C111.603 87.0069 117.501 84.8242 121.093 82.5466L139.022 91.5475V90.8175L121.085 81.4662C118.341 83.0576 114.056 85.9265 107.099 86.7222C102.675 74.9473 103.31 77.0716 100.901 69.4066C101.908 69.2898 102.923 69.1438 103.923 68.9832L109.96 73.626C109.993 73.6531 110.036 73.666 110.078 73.6619C110.12 73.6578 110.159 73.637 110.187 73.6041C110.214 73.5712 110.227 73.5288 110.222 73.4864C110.218 73.444 110.198 73.4049 110.165 73.3778L104.237 68.37C104.011 68.1875 103.938 68.37 100.704 68.6474C97.1853 69.0051 89.221 69.4358 86.4032 67.3261C84.9432 66.1873 85.2571 64.7492 86.5054 63.3476C91.6154 57.8434 106.427 55.8432 114.391 55.5658C114.411 55.5704 114.431 55.5706 114.45 55.5664C114.47 55.5621 114.488 55.5536 114.503 55.5413C114.519 55.529 114.532 55.5133 114.54 55.4954C114.549 55.4775 114.554 55.4579 114.554 55.438C114.554 55.4182 114.549 55.3986 114.54 55.3807C114.532 55.3628 114.519 55.3471 114.503 55.3348C114.488 55.3225 114.47 55.3139 114.45 55.3097C114.431 55.3054 114.411 55.3056 114.391 55.3103C108.601 55.3172 102.835 56.053 97.2291 57.5003C96.3823 54.7263 95.5136 51.872 94.6668 49.0688C121.684 49.2294 129.853 62.4424 131.539 63.5228ZM14.5566 40.9293C23.5429 38.6079 73.9129 25.4095 80.7384 24.0006C81.6568 23.7347 82.636 23.7679 83.5343 24.0955C84.6658 24.5773 85.1476 25.6577 85.7243 27.2783C70.2337 30.6509 19.7104 43.9588 9.18377 47.3606C8.86257 44.7618 9.30787 42.2871 14.5566 40.9293ZM9.20567 47.4993C16.2502 45.3093 40.2599 38.9875 47.4285 37.1114C76.5628 29.4318 85.7316 27.4097 85.7462 27.4024C86.1623 28.6507 86.7901 30.6363 87.5493 33.1037C73.1464 35.9507 23.3093 49.463 10.3591 53.5437C9.98677 51.8501 9.40277 49.0031 9.20567 47.5139V47.4993ZM10.3956 53.6751C19.9513 50.7551 74.1319 35.9872 87.5931 33.2351C88.3231 35.6368 89.2064 38.4911 90.1335 41.5498C79.001 43.9296 24.5503 58.2376 12.3666 61.9898C11.5563 58.7559 10.8847 55.8943 10.3956 53.6897V53.6751ZM46.7204 104.344C45.0925 102.096 41.0629 104.709 38.9386 106.534C36.8453 108.392 35.0243 110.534 33.5293 112.9C32.3102 112.462 31.2882 109.98 30.1932 107.264C28.6151 103.462 27.2885 99.5605 26.222 95.5844C25.93 94.3069 25.8862 93.3214 26.9082 92.4673C28.1565 91.4015 33.4782 89.6933 35.0477 89.1896C38.0407 88.226 41.4133 87.4376 44.472 86.7587C45.6838 86.4959 46.9759 86.5251 47.6986 87.2989C48.7717 88.4231 50.7208 94.1317 51.8231 97.3437C50.6113 98.8037 49.436 100.329 48.3118 101.95C45.7172 100.291 42.9516 98.9151 40.0628 97.8474C40.7928 96.5626 43.8734 91.0365 44.837 89.2407C44.8592 89.202 44.8652 89.156 44.8536 89.1129C44.8419 89.0697 44.8136 89.033 44.7749 89.0107C44.7362 88.9885 44.6902 88.9825 44.6471 88.9941C44.604 89.0058 44.5672 89.0341 44.545 89.0728C42.5229 92.1169 40.8585 94.8179 39.3255 97.5627C35.712 96.2268 32.7555 95.3727 29.361 94.4529C29.3184 94.4384 29.2718 94.4414 29.2314 94.4612C29.191 94.4811 29.1601 94.5161 29.1456 94.5587C29.1311 94.6013 29.1341 94.6479 29.1539 94.6883C29.1738 94.7287 29.2089 94.7596 29.2515 94.7741C31.5802 95.6939 35.7047 97.0444 38.9313 98.2635C37.0165 101.697 35.4138 105.296 34.1425 109.016C34.1342 109.055 34.1398 109.095 34.1583 109.13C34.1768 109.165 34.207 109.192 34.2437 109.207C34.2803 109.222 34.3209 109.223 34.3585 109.211C34.3961 109.199 34.4282 109.174 34.4491 109.14C37.1136 103.359 39.3401 99.1906 39.6832 98.5482C42.5498 99.6174 45.3255 100.916 47.9833 102.432C47.5453 103.03 47.1219 103.68 46.7204 104.344ZM50.3704 114.396C50.6916 113.63 51.0055 112.863 51.3048 112.097C53.305 112.177 57.2616 112.498 58.342 114.192C59.4224 115.886 57.1667 117.63 55.13 118.295C53.831 116.679 52.2101 115.352 50.3704 114.396ZM55.6556 118.937C58.4077 119.448 64.8536 120.631 65.3281 123.397C65.7077 125.485 62.5687 126.675 60.3057 126.923C59.1101 124.075 57.5547 121.391 55.6775 118.937H55.6556ZM63.1746 137.231C62.8049 134.406 62.1192 131.632 61.1306 128.96C63.7586 129.902 69.8395 132.61 68.9562 135.187C68.3868 136.873 65.1383 137.26 63.1965 137.231H63.1746ZM118.457 125.127C117.976 126.427 116.771 127.522 112.289 128.945C89.6152 136.143 90.9365 136.158 68.3576 142.472C68.4128 140.615 67.9665 138.776 67.0655 137.151C67.562 137.033 68.026 136.806 68.4238 136.487C68.8216 136.167 69.1431 135.763 69.365 135.304C70.4162 132.281 63.8316 129.464 60.8751 128.318C60.5758 127.529 60.5174 127.42 60.4663 127.296C62.9702 126.938 66.1019 125.609 65.7077 123.339C65.6548 123.032 65.5459 122.738 65.3865 122.47C65.3865 122.47 111.063 108.958 112.961 108.476C116.406 117.411 119.202 123.171 118.479 125.127H118.457ZM86.1915 63.0775C84.2862 65.2164 85.2644 66.5669 85.2571 66.6618C85.4842 67.0429 85.7844 67.3753 86.1404 67.64C86.6475 68.0431 87.2106 68.3702 87.8121 68.6109C76.6504 72.02 27.9448 86.036 27.7404 86.1017C25.054 86.8317 23.2801 87.3573 21.9004 83.4445C24.8204 80.05 34.5367 68.7423 36.5004 67.3407C37.1921 66.8238 38.0313 66.5424 38.8948 66.5377C41.9097 66.4501 57.2251 73.6625 59.9042 72.3777C61.7438 71.4871 68.1167 61.4715 68.1824 61.3766C72.7449 54.3467 72.1536 54.7482 82.5415 56.4418C84.8556 56.8214 88.0165 57.3324 92.1264 57.9821L92.4403 59.1136C90.0824 60.0553 87.7099 61.3766 86.2134 63.0702L86.1915 63.0775ZM21.6887 82.97C20.4404 79.32 17.0678 68.5233 17.2649 66.91C17.3529 66.3321 17.6066 65.792 17.9953 65.3554C18.384 64.9187 18.891 64.6042 19.4549 64.4499C21.8712 63.771 84.9797 46.5211 86.7098 46.5211C88.0895 46.5211 88.6224 47.2511 89.148 48.587C90.2414 51.5259 91.1867 54.5178 91.9804 57.5514C76.6504 55.0256 75.4605 54.5219 73.2997 55.0256C71.482 55.449 70.6717 56.4856 67.6787 61.0335C65.4376 64.4937 60.8678 71.2097 59.6487 71.8156C58.5975 72.3266 58.0354 72.1514 54.9329 71.1805C50.9617 69.9322 48.7936 69.2314 44.1654 67.3991C41.3768 66.2895 38.6612 65.085 36.1354 66.8735C33.8359 68.5452 23.5064 80.78 21.6887 82.97ZM95.1413 58.0843C94.4113 58.3179 93.6302 58.588 92.8491 58.9019C91.9309 55.3617 90.8196 51.8744 89.5203 48.4556C88.929 46.9956 88.272 46.1561 86.6806 46.1342C85.7973 46.1342 47.7716 55.96 19.3162 64.063C18.6776 64.2437 18.1043 64.6039 17.6643 65.1008C17.2244 65.5977 16.9362 66.2104 16.8342 66.8662C16.586 68.7423 19.871 79.2762 21.3821 83.3569C23.156 88.1457 25.1124 87.1967 28.5653 86.2769C42.8514 82.5539 73.8253 73.4727 88.4764 68.8737C91.63 69.9249 95.4041 69.8446 98.6964 69.6037C99.9155 73.5092 100.886 76.5022 101.412 77.8308C102.383 80.3055 111.143 103.658 112.931 108.33C109.464 109.192 107.741 109.746 65.3281 122.339C63.7586 119.915 58.8457 118.755 55.933 118.404C57.5463 117.674 59.1085 116.506 58.999 114.754C58.8895 113.002 56.1593 112.294 55.2687 112.075C54.037 111.788 52.7803 111.622 51.5165 111.579C53.2653 107.133 54.5425 102.516 55.3271 97.8036C55.5388 96.4677 53.2831 95.6136 52.5604 96.4166L51.9326 97.1466C50.2317 92.1096 48.7425 88.0143 47.7789 86.985C47.0489 86.1601 45.5305 86.3207 44.4209 86.4886C40.5957 87.0872 29.0179 90.2773 26.7403 92.2045C25.9519 92.9856 25.5066 93.5696 25.9665 95.5771C27.0162 99.5907 28.3406 103.527 29.9304 107.359C30.7991 109.484 32.0182 112.586 33.3906 113.082C32.4613 114.551 31.6462 116.088 30.9524 117.681C24.0101 101.855 19.2724 89.9415 12.3958 62.2015C23.7181 58.7632 81.2056 43.7106 90.17 41.7615C90.7978 43.7544 94.1704 54.7774 95.1413 58.0843Z" fill="#D60000"/>
<path d="M55.7867 93.701C55.2465 93.5039 54.1661 95.161 53.896 95.6209C53.8887 95.6325 53.8842 95.6456 53.8828 95.6593C53.8815 95.6729 53.8834 95.6867 53.8884 95.6995C53.8934 95.7123 53.9013 95.7237 53.9115 95.7329C53.9217 95.7421 53.9339 95.7487 53.9471 95.7523C54.3597 95.846 54.7463 96.0306 55.0786 96.2925C55.0868 96.3018 55.097 96.3093 55.1083 96.3144C55.1196 96.3195 55.1319 96.3221 55.1443 96.3221C55.1567 96.3221 55.169 96.3195 55.1804 96.3144C55.1917 96.3093 55.2018 96.3018 55.21 96.2925C55.4363 95.8107 56.3269 93.92 55.7867 93.701ZM16.3521 48.1271C14.9456 48.4023 13.5828 48.8664 12.3006 49.5068C12.7253 48.8553 13.1082 48.1775 13.4467 47.4774C13.4529 47.4613 13.4531 47.4435 13.4474 47.4272C13.4417 47.4109 13.4304 47.3972 13.4155 47.3884C13.4007 47.3796 13.3832 47.3765 13.3662 47.3794C13.3491 47.3823 13.3337 47.3912 13.3226 47.4044C12.8425 48.1244 12.4109 48.8755 12.0305 49.6528C11.9064 49.9156 14.0745 50.5142 14.3592 50.558C14.3745 50.558 14.3895 50.5532 14.4019 50.5442C14.4143 50.5352 14.4236 50.5226 14.4285 50.5081C14.4333 50.4935 14.4335 50.4778 14.4289 50.4632C14.4243 50.4486 14.4153 50.4358 14.403 50.4266C13.7453 50.1032 13.052 49.8582 12.3371 49.6966C13.6531 49.1415 15.0041 48.6733 16.3813 48.295C16.5127 48.2147 16.4762 48.1052 16.3521 48.1271ZM24.0025 46.1561C23.189 45.7216 22.3419 45.353 21.4694 45.0538C21.4528 45.0496 21.4352 45.0515 21.4197 45.059C21.4043 45.0666 21.392 45.0793 21.3851 45.095C21.3781 45.1107 21.3769 45.1283 21.3816 45.1448C21.3864 45.1613 21.3968 45.1756 21.411 45.1852C22.1157 45.5694 22.8476 45.9013 23.601 46.178C22.2068 46.3128 20.8409 46.6573 19.5495 47.2C19.5353 47.2096 19.5249 47.2239 19.5201 47.2404C19.5154 47.2569 19.5166 47.2745 19.5236 47.2902C19.5305 47.3059 19.5428 47.3186 19.5582 47.3262C19.5737 47.3337 19.5913 47.3355 19.6079 47.3314C20.5715 47.0248 21.9658 46.7547 23.7762 46.3824C23.3062 46.952 22.8884 47.5628 22.5279 48.2074C22.5232 48.2234 22.5237 48.2406 22.5292 48.2564C22.5347 48.2722 22.545 48.2858 22.5587 48.2955C22.5724 48.3051 22.5887 48.3103 22.6054 48.3102C22.6222 48.3101 22.6385 48.3048 22.652 48.295C23.1746 47.6764 23.6367 47.009 24.0317 46.3021C24.0426 46.2919 24.0507 46.2791 24.0553 46.2649C24.0598 46.2507 24.0607 46.2356 24.0577 46.221C24.0548 46.2063 24.0482 46.1927 24.0385 46.1814C24.0289 46.17 24.0165 46.1613 24.0025 46.1561ZM30.5214 45.1925C30.4985 45.6205 30.322 46.0259 30.0244 46.3343C29.7267 46.6427 29.3278 46.8335 28.9008 46.8715C28.4906 46.9038 28.0815 46.7976 27.7388 46.57C27.396 46.3424 27.1395 46.0065 27.0101 45.6159C26.9023 45.2136 26.94 44.7862 27.1167 44.4091C27.2934 44.0319 27.5976 43.7293 27.9757 43.5547C28.3538 43.3801 28.7814 43.3446 29.1831 43.4546C29.5848 43.5646 29.9347 43.813 30.171 44.1559C29.8178 44.1389 29.4637 44.1511 29.1125 44.1924C29.0932 44.1924 29.0746 44.2001 29.0609 44.2138C29.0472 44.2275 29.0395 44.246 29.0395 44.2654C29.0395 44.2847 29.0472 44.3033 29.0609 44.317C29.0746 44.3307 29.0932 44.3384 29.1125 44.3384C29.5177 44.382 29.9264 44.382 30.3316 44.3384C30.3476 44.3347 30.3623 44.3266 30.3739 44.315C30.3855 44.3033 30.3936 44.2887 30.3973 44.2727C30.4884 43.8508 30.5106 43.4169 30.463 42.9879C30.463 42.9685 30.4553 42.95 30.4416 42.9363C30.4279 42.9226 30.4094 42.9149 30.39 42.9149C30.3707 42.9149 30.3521 42.9226 30.3384 42.9363C30.3247 42.95 30.317 42.9685 30.317 42.9879C30.2435 43.3257 30.2165 43.672 30.2367 44.0172C28.9008 42.09 26.1195 43.6814 26.7327 45.7546C27.397 48.0833 30.9375 47.4847 30.6747 45.2436C30.6815 45.2233 30.6799 45.2011 30.6703 45.1819C30.6608 45.1627 30.6439 45.1482 30.6236 45.1414C30.6033 45.1346 30.5811 45.1362 30.5619 45.1458C30.5428 45.1554 30.5282 45.1722 30.5214 45.1925ZM13.6584 42.82C13.4707 42.82 13.2872 42.8756 13.1312 42.9799C12.9751 43.0842 12.8535 43.2324 12.7817 43.4058C12.7098 43.5792 12.691 43.77 12.7277 43.9541C12.7643 44.1382 12.8547 44.3073 12.9874 44.44C13.1201 44.5728 13.2892 44.6631 13.4733 44.6998C13.6574 44.7364 13.8482 44.7176 14.0216 44.6458C14.195 44.5739 14.3432 44.4523 14.4475 44.2962C14.5518 44.1402 14.6074 43.9567 14.6074 43.769C14.6074 43.5173 14.5074 43.2759 14.3295 43.0979C14.1515 42.92 13.9101 42.82 13.6584 42.82ZM17.0091 41.8126C16.8214 41.8126 16.6379 41.8682 16.4819 41.9725C16.3258 42.0768 16.2042 42.225 16.1324 42.3984C16.0605 42.5718 16.0417 42.7626 16.0784 42.9467C16.115 43.1308 16.2054 43.2999 16.3381 43.4326C16.4708 43.5654 16.6399 43.6557 16.824 43.6924C17.0081 43.729 17.1989 43.7102 17.3723 43.6384C17.5457 43.5665 17.6939 43.4449 17.7982 43.2888C17.9025 43.1328 17.9581 42.9493 17.9581 42.7616C17.9581 42.5099 17.8581 42.2685 17.6802 42.0905C17.5022 41.9126 17.2608 41.8126 17.0091 41.8126ZM20.3671 40.8271C20.1794 40.8271 19.9959 40.8827 19.8399 40.987C19.6838 41.0913 19.5622 41.2395 19.4904 41.4129C19.4185 41.5863 19.3997 41.7771 19.4364 41.9612C19.473 42.1453 19.5634 42.3144 19.6961 42.4471C19.8288 42.5799 19.9979 42.6702 20.182 42.7069C20.3661 42.7435 20.5569 42.7247 20.7303 42.6528C20.9037 42.581 21.0519 42.4594 21.1562 42.3033C21.2605 42.1473 21.3161 41.9638 21.3161 41.7761C21.3161 41.5244 21.2161 41.283 21.0382 41.105C20.8602 40.9271 20.6188 40.8271 20.3671 40.8271ZM83.4172 29.3661C82.8478 29.3661 40.3983 40.1555 36.8578 41.1045C34.6678 41.6958 34.1641 41.7396 33.7261 42.4696C33.5666 42.7275 33.4793 43.0236 33.4733 43.3268C33.4673 43.63 33.5428 43.9293 33.692 44.1934C33.8412 44.4574 34.0586 44.6766 34.3214 44.8279C34.5842 44.9793 34.8829 45.0573 35.1861 45.0538C35.76 44.9803 36.3234 44.8406 36.8651 44.6377C46.1872 42.09 82.9427 32.9577 83.3953 32.8701C83.6884 32.8354 83.9706 32.7379 84.2226 32.5842C84.4745 32.4305 84.6904 32.2242 84.8553 31.9795C85.0116 31.7208 85.0971 31.4256 85.1033 31.1234C85.1094 30.8212 85.0359 30.5227 84.8902 30.2579C84.7445 29.9931 84.5317 29.7713 84.2731 29.6148C84.0146 29.4582 83.7194 29.3725 83.4172 29.3661ZM84.7239 31.87C84.5669 32.0936 84.3639 32.2809 84.1284 32.4194C83.8929 32.5579 83.6305 32.6444 83.3588 32.673C30.2148 45.9809 35.6898 44.9005 35.1788 44.9005C34.9078 44.8961 34.6428 44.8207 34.4101 44.6817C34.1775 44.5427 33.9854 44.3451 33.8531 44.1086C33.7208 43.8721 33.6529 43.605 33.6562 43.334C33.6596 43.063 33.734 42.7977 33.8721 42.5645C34.259 41.9367 34.6021 41.9075 36.887 41.2943C40.975 40.192 82.877 29.5632 83.3953 29.5632C83.6656 29.5623 83.9313 29.6328 84.1655 29.7677C84.3997 29.9025 84.5941 30.0969 84.729 30.3311C84.8639 30.5653 84.9344 30.831 84.9335 31.1012C84.9327 31.3715 84.8603 31.6367 84.7239 31.87Z" fill="#D60000"/>
<path d="M37.7119 43.55C37.5179 43.3998 37.3042 43.277 37.0768 43.185C37.1732 42.9818 37.1878 42.7492 37.1174 42.5356C37.0471 42.3219 36.8973 42.1434 36.699 42.0372C36.5007 41.931 36.2691 41.9052 36.0523 41.965C35.8354 42.0249 35.6499 42.1658 35.5342 42.3587C35.4185 42.5516 35.3814 42.7817 35.4306 43.0012C35.4798 43.2207 35.6116 43.4128 35.7987 43.5378C35.9857 43.6628 36.2136 43.711 36.4353 43.6725C36.6569 43.634 36.8552 43.5117 36.9892 43.331C37.1948 43.4694 37.4151 43.5844 37.6462 43.6741C37.6617 43.6774 37.6779 43.6755 37.6923 43.6688C37.7066 43.6621 37.7184 43.6509 37.7259 43.6369C37.7333 43.6228 37.7359 43.6068 37.7334 43.5911C37.7309 43.5754 37.7233 43.561 37.7119 43.55ZM36.2519 43.55C36.1059 43.5588 35.9607 43.5235 35.8351 43.4488C35.7094 43.3741 35.6091 43.2634 35.547 43.131C35.485 42.9987 35.4642 42.8507 35.4872 42.7063C35.5102 42.562 35.576 42.4278 35.6762 42.3213C35.7763 42.2148 35.9061 42.1408 36.0488 42.1089C36.1914 42.077 36.3404 42.0887 36.4764 42.1424C36.6123 42.1961 36.729 42.2894 36.8113 42.4103C36.8937 42.5311 36.9378 42.6738 36.9381 42.82C36.9388 43.0027 36.871 43.1791 36.748 43.3143C36.625 43.4494 36.4558 43.5336 36.2738 43.55H36.2519ZM82.3295 31.0524C82.1762 30.0377 81.8185 30.118 81.6798 30.6728C81.6457 30.7973 81.6213 30.9242 81.6068 31.0524C81.3659 31.0524 80.8257 30.9867 80.7089 31.2057C80.5921 31.4247 80.833 31.5415 81.0155 31.6218C81.1397 31.675 81.2695 31.7142 81.4024 31.7386C81.2345 31.9649 81.0228 32.3956 81.2418 32.5343C81.4608 32.673 81.8696 32.2423 82.0521 32.0452C82.2419 32.2058 82.6142 32.4759 82.8259 32.3445C83.0376 32.2131 82.7018 31.8189 82.512 31.6145C82.7602 31.5634 83.1325 31.4466 83.0741 31.2057C83.0157 30.9648 82.5558 31.0305 82.3295 31.0524ZM82.4098 31.5634C82.366 31.5634 82.3514 31.5999 82.4098 31.6437C82.4682 31.6875 82.8843 32.1474 82.7748 32.2496C82.6653 32.3518 82.2565 32.0379 82.1032 31.9284C82.0924 31.9212 82.0797 31.9173 82.0667 31.9173C82.0537 31.9173 82.041 31.9212 82.0302 31.9284C81.7893 32.162 81.417 32.4832 81.3002 32.3956C81.1834 32.308 81.5046 31.7897 81.5338 31.7094C81.5405 31.7026 81.5442 31.6934 81.5442 31.6838C81.5442 31.6743 81.5405 31.6651 81.5338 31.6583C81.4024 31.6072 80.8476 31.4393 80.8841 31.2568C80.9206 31.0743 81.6141 31.14 81.6944 31.1473C81.7747 31.1546 81.7528 31.1108 81.7601 31.0524C81.8988 30.3224 82.0229 30.3735 82.0813 30.4757C82.1707 30.6772 82.2463 30.8845 82.3076 31.0962V31.1327C82.3076 31.1327 82.9354 31.1327 82.9792 31.2568C83.023 31.3809 82.585 31.5269 82.4098 31.5634ZM54.2245 93.6353C52.8521 88.9925 51.8301 87.0215 52.3192 85.4374C53.2974 82.5977 63.2692 80.1741 66.5907 79.4076C67.7222 79.1448 70.2845 78.5462 71.3722 78.7798C72.4599 79.0134 73.1169 79.6485 75.6208 87.1748C76.6767 90.2627 77.5422 93.4125 78.2123 96.6064C78.3294 96.9823 78.362 97.3794 78.3077 97.7694C78.2534 98.1593 78.1137 98.5325 77.8984 98.8621C76.745 100.395 68.4741 102.658 66.6199 103.169C57.6044 105.644 58.6921 105.271 55.9984 98.519C55.9984 98.5054 55.993 98.4924 55.9834 98.4829C55.9738 98.4733 55.9608 98.4679 55.9473 98.4679C55.9337 98.4679 55.9207 98.4733 55.9111 98.4829C55.9016 98.4924 55.8962 98.5054 55.8962 98.519C57.0788 102.169 57.5095 104.264 59.4513 104.76C60.9113 105.147 65.138 103.804 66.6856 103.366C76.4165 100.57 77.475 99.7892 78.0955 98.9862C78.3292 98.6304 78.4823 98.2279 78.5441 97.8067C78.6059 97.3855 78.5749 96.9559 78.4532 96.548C77.7859 93.3342 76.9204 90.1649 75.8617 87.058C73.3432 79.539 72.7008 78.7871 71.4233 78.5097C70.3137 78.2688 68.0799 78.7871 66.5396 79.1448C63.2181 79.9259 53.1806 82.3422 52.1148 85.3352C51.5235 87.1091 53.3485 91.7227 54.115 93.6353C54.1442 93.7375 54.2464 93.701 54.2245 93.6353ZM84.7969 97.2196C86.892 97.0955 96.2287 94.4529 100.857 92.4308C102.419 91.7446 103.2 91.0511 102.828 89.394C101.301 84.016 99.4233 78.7438 97.2069 73.6114C96.929 72.7638 96.3567 72.0438 95.5936 71.582C93.9146 70.779 85.7751 73.4289 83.0668 74.3049C81.3513 74.8597 78.4167 75.8014 77.2268 76.984C76.1756 77.9914 76.3216 79.2762 76.7158 80.6778C81.2929 96.84 82.2346 97.3656 84.7969 97.2196ZM77.3217 77.13C78.5116 75.9839 81.4389 75.0568 83.1106 74.5166C85.432 73.7866 93.9292 71.0637 95.5206 71.801C96.233 72.2464 96.7655 72.9288 97.0244 73.7282C99.2321 78.8427 101.091 84.1011 102.587 89.467C102.886 91.0584 102.258 91.5475 100.777 92.1972C96.8565 93.9127 87.0307 96.8473 84.8188 96.9933C82.2784 97.1539 81.4097 96.2633 76.8764 80.6559C76.4676 79.32 76.3216 78.0644 77.3217 77.13ZM27.5211 51.7114C27.5108 51.6654 27.4914 51.622 27.464 51.5837C27.4366 51.5454 27.4018 51.513 27.3616 51.4885C27.3214 51.4639 27.2766 51.4478 27.23 51.4409C27.1834 51.4341 27.1359 51.4367 27.0904 51.4486L14.1475 54.8723C14.0507 54.8975 13.9678 54.9601 13.9172 55.0463C13.8665 55.1326 13.8522 55.2354 13.8774 55.3322C13.9025 55.429 13.9651 55.5118 14.0514 55.5625C14.1376 55.6132 14.2405 55.6275 14.3373 55.6023L27.2729 52.1786C27.3211 52.1663 27.3663 52.144 27.4054 52.1132C27.4446 52.0824 27.4769 52.0438 27.5002 51.9998C27.5236 51.9559 27.5375 51.9075 27.5411 51.8578C27.5447 51.8082 27.5379 51.7583 27.5211 51.7114ZM24.7106 55.3614C24.6995 55.3161 24.6795 55.2734 24.6518 55.236C24.624 55.1985 24.589 55.1669 24.5489 55.1431C24.5088 55.1193 24.4644 55.1038 24.4182 55.0974C24.372 55.091 24.3249 55.0939 24.2799 55.1059L14.8629 57.5952C14.8163 57.6077 14.7728 57.6296 14.7349 57.6594C14.697 57.6892 14.6655 57.7263 14.6423 57.7686C14.6191 57.8109 14.6047 57.8574 14.6 57.9054C14.5952 57.9534 14.6002 58.0018 14.6147 58.0478C14.6256 58.093 14.6456 58.1355 14.6735 58.1727C14.7014 58.2099 14.7365 58.241 14.7768 58.2642C14.8171 58.2875 14.8617 58.3022 14.9078 58.3077C14.954 58.3132 15.0008 58.3092 15.0454 58.296L24.4624 55.8067C24.5081 55.7941 24.5509 55.7725 24.5882 55.7432C24.6255 55.7139 24.6566 55.6775 24.6797 55.636C24.7028 55.5946 24.7174 55.549 24.7227 55.5018C24.728 55.4547 24.7239 55.4069 24.7106 55.3614ZM32.9231 50.12C32.9486 50.2107 33.009 50.2877 33.091 50.3342C33.173 50.3807 33.2701 50.3929 33.3611 50.3682L46.2967 46.9445C46.3422 46.9325 46.3849 46.9117 46.4224 46.8832C46.4599 46.8547 46.4914 46.8191 46.5151 46.7784C46.5389 46.7377 46.5543 46.6928 46.5607 46.6461C46.567 46.5995 46.5642 46.552 46.5522 46.5065C46.5402 46.461 46.5194 46.4182 46.4909 46.3807C46.4624 46.3433 46.4268 46.3118 46.3861 46.288C46.3454 46.2643 46.3005 46.2488 46.2538 46.2425C46.2072 46.2361 46.1597 46.239 46.1142 46.251L33.1786 49.7039C33.0912 49.728 33.0162 49.7843 32.9688 49.8616C32.9214 49.9388 32.905 50.0312 32.9231 50.12ZM43.7417 50.1857C43.716 50.0947 43.656 50.0171 43.5743 49.9695C43.4926 49.9218 43.3956 49.9077 43.3037 49.9302L33.8867 52.4268C33.8404 52.4385 33.797 52.4595 33.7591 52.4886C33.7213 52.5177 33.6898 52.5542 33.6665 52.5959C33.6433 52.6376 33.6288 52.6836 33.624 52.7311C33.6192 52.7786 33.6241 52.8266 33.6385 52.8721C33.6625 52.9626 33.7211 53.04 33.8016 53.0878C33.8822 53.1356 33.9782 53.1499 34.0692 53.1276L43.4935 50.631C43.5848 50.6038 43.6618 50.5421 43.7082 50.4589C43.7546 50.3757 43.7666 50.2776 43.7417 50.1857ZM51.9542 45.01C51.9652 45.0553 51.9852 45.098 52.013 45.1354C52.0407 45.1729 52.0757 45.2045 52.1158 45.2283C52.1559 45.2521 52.2004 45.2676 52.2466 45.274C52.2928 45.2804 52.3398 45.2775 52.3849 45.2655L65.3205 41.8418C65.3671 41.8292 65.4108 41.8074 65.449 41.7777C65.4872 41.748 65.5191 41.711 65.5429 41.6689C65.5666 41.6268 65.5818 41.5804 65.5875 41.5324C65.5932 41.4844 65.5893 41.4357 65.576 41.3892C65.5488 41.2995 65.4881 41.2237 65.4066 41.1775C65.3251 41.1313 65.2289 41.1182 65.138 41.141L52.2024 44.5282C52.1517 44.5391 52.104 44.561 52.0628 44.5925C52.0217 44.624 51.988 44.6643 51.9642 44.7104C51.9405 44.7564 51.9273 44.8072 51.9255 44.859C51.9238 44.9109 51.9336 44.9624 51.9542 45.01ZM62.7801 45.01C62.7545 44.9193 62.6941 44.8423 62.6121 44.7958C62.5301 44.7493 62.433 44.7371 62.3421 44.7618L52.9251 47.2511C52.8283 47.2763 52.7454 47.3389 52.6948 47.4251C52.6441 47.5114 52.6298 47.6142 52.655 47.711C52.6801 47.8078 52.7427 47.8906 52.829 47.9413C52.9152 47.9919 53.0181 48.0063 53.1149 47.9811L62.5319 45.4845C62.5816 45.4734 62.6284 45.4516 62.6689 45.4206C62.7093 45.3896 62.7425 45.3501 62.7662 45.3049C62.7898 45.2597 62.8033 45.2099 62.8057 45.159C62.8081 45.108 62.7993 45.0572 62.7801 45.01ZM70.978 39.8051C70.9898 39.8498 71.0104 39.8916 71.0385 39.9283C71.0666 39.965 71.1017 39.9957 71.1417 40.0188C71.1817 40.0419 71.2259 40.0568 71.2717 40.0627C71.3175 40.0686 71.3641 40.0654 71.4087 40.0533L84.3516 36.6296C84.3973 36.617 84.4401 36.5954 84.4774 36.5661C84.5147 36.5368 84.5458 36.5004 84.5689 36.4589C84.592 36.4175 84.6066 36.3719 84.6119 36.3247C84.6172 36.2776 84.6131 36.2298 84.5998 36.1843C84.5879 36.1387 84.5671 36.0959 84.5386 36.0584C84.5102 36.0208 84.4746 35.9893 84.4339 35.9655C84.3932 35.9418 84.3482 35.9263 84.3015 35.92C84.2548 35.9137 84.2073 35.9167 84.1618 35.9288L71.2262 39.3525C71.1332 39.3796 71.0549 39.4425 71.0083 39.5274C70.9618 39.6123 70.9509 39.7122 70.978 39.8051ZM81.7601 39.8416C81.749 39.7963 81.729 39.7536 81.7013 39.7162C81.6735 39.6787 81.6385 39.6471 81.5984 39.6233C81.5583 39.5995 81.5138 39.584 81.4676 39.5776C81.4214 39.5712 81.3744 39.5741 81.3294 39.5861L71.9416 42.09C71.896 42.102 71.8533 42.1228 71.8158 42.1513C71.7783 42.1798 71.7468 42.2154 71.7231 42.2561C71.6994 42.2968 71.6839 42.3417 71.6775 42.3884C71.6712 42.435 71.6741 42.4825 71.6861 42.528C71.698 42.5735 71.7189 42.6163 71.7474 42.6537C71.7759 42.6912 71.8115 42.7227 71.8521 42.7465C71.8928 42.7702 71.9378 42.7857 71.9844 42.792C72.0311 42.7984 72.0785 42.7955 72.1241 42.7835L81.5411 40.2942C81.5856 40.2795 81.6267 40.2559 81.6619 40.225C81.6972 40.1941 81.7258 40.1564 81.7463 40.1142C81.7667 40.072 81.7784 40.0261 81.7808 39.9793C81.7832 39.9325 81.7761 39.8856 81.7601 39.8416ZM78.935 102.68C78.9209 102.635 78.8979 102.593 78.8675 102.556C78.837 102.52 78.7996 102.49 78.7575 102.469C78.7154 102.447 78.6694 102.434 78.6222 102.43C78.5749 102.426 78.5274 102.432 78.4824 102.446L61.7435 107.659C61.6984 107.673 61.6565 107.695 61.6202 107.725C61.5839 107.755 61.5539 107.792 61.5319 107.834C61.5098 107.876 61.4962 107.921 61.4918 107.968C61.4874 108.015 61.4923 108.062 61.5062 108.108C61.5201 108.153 61.5428 108.194 61.5728 108.231C61.6029 108.267 61.6399 108.297 61.6816 108.319C61.7232 108.341 61.7689 108.355 61.8158 108.359C61.8628 108.364 61.9101 108.359 61.9552 108.345L78.6941 103.133C78.7857 103.104 78.8623 103.04 78.9074 102.956C78.9525 102.871 78.9624 102.772 78.935 102.68ZM75.1901 107.659C75.176 107.613 75.153 107.571 75.1226 107.535C75.0921 107.499 75.0547 107.469 75.0126 107.447C74.9705 107.425 74.9245 107.412 74.8773 107.408C74.83 107.405 74.7825 107.41 74.7375 107.425L62.6998 111.17C62.6545 111.184 62.6125 111.207 62.5762 111.237C62.5399 111.268 62.51 111.305 62.4883 111.347C62.4666 111.389 62.4534 111.435 62.4496 111.483C62.4458 111.53 62.4514 111.577 62.4662 111.622C62.4948 111.714 62.5583 111.791 62.643 111.836C62.7278 111.881 62.8268 111.891 62.9188 111.863L74.9492 108.111C75.0407 108.083 75.1174 108.019 75.1625 107.934C75.2076 107.85 75.2175 107.751 75.1901 107.659ZM80.3366 109.454L63.5977 114.674C63.5526 114.688 63.5108 114.711 63.4747 114.742C63.4386 114.772 63.4088 114.81 63.3871 114.852C63.3654 114.894 63.3522 114.94 63.3483 114.987C63.3443 115.034 63.3497 115.081 63.3641 115.127C63.3784 115.172 63.4016 115.213 63.4321 115.249C63.4626 115.286 63.5 115.315 63.542 115.337C63.584 115.359 63.6299 115.372 63.677 115.376C63.7242 115.38 63.7716 115.374 63.8167 115.36L80.5556 110.148C80.6008 110.134 80.6428 110.111 80.6791 110.08C80.7154 110.05 80.7453 110.013 80.767 109.97C80.7887 109.928 80.8019 109.882 80.8057 109.835C80.8095 109.788 80.8039 109.74 80.7892 109.695C80.7605 109.604 80.697 109.527 80.6123 109.482C80.5276 109.437 80.4285 109.427 80.3366 109.454ZM102.696 95.2413L85.9576 100.49C85.9125 100.504 85.8706 100.527 85.8343 100.557C85.798 100.587 85.768 100.624 85.746 100.665C85.7239 100.707 85.7103 100.753 85.7059 100.8C85.7015 100.847 85.7064 100.894 85.7203 100.939C85.7342 100.984 85.7569 101.026 85.7869 101.062C85.817 101.098 85.854 101.129 85.8957 101.151C85.9373 101.173 85.983 101.186 86.0299 101.191C86.0769 101.195 86.1242 101.19 86.1693 101.176L102.93 95.9348C103.027 95.9067 103.109 95.8413 103.157 95.753C103.206 95.6647 103.217 95.5608 103.189 95.4639C103.161 95.3671 103.096 95.2855 103.007 95.2369C102.919 95.1883 102.815 95.1767 102.718 95.2048L102.696 95.2413ZM99.3677 100.446C99.3544 100.401 99.3322 100.359 99.3024 100.323C99.2727 100.287 99.2359 100.257 99.1944 100.235C99.1529 100.213 99.1074 100.2 99.0607 100.196C99.014 100.192 98.9669 100.198 98.9224 100.213L86.8701 103.957C86.7785 103.986 86.7019 104.05 86.6568 104.134C86.6117 104.219 86.6018 104.318 86.6292 104.41C86.6433 104.455 86.6662 104.497 86.6967 104.534C86.7271 104.57 86.7645 104.6 86.8066 104.622C86.8487 104.643 86.8947 104.656 86.942 104.66C86.9892 104.664 87.0367 104.658 87.0818 104.644L99.1195 100.899C99.166 100.886 99.2096 100.864 99.2475 100.835C99.2854 100.805 99.3169 100.768 99.34 100.725C99.3632 100.683 99.3776 100.637 99.3824 100.589C99.3871 100.541 99.3821 100.492 99.3677 100.446ZM87.6001 107.907C87.6134 107.952 87.6356 107.994 87.6652 108.03C87.6949 108.067 87.7314 108.097 87.7728 108.12C87.8141 108.142 87.8595 108.156 87.9063 108.161C87.953 108.166 88.0003 108.161 88.0454 108.148L104.784 102.935C104.835 102.926 104.883 102.906 104.926 102.877C104.968 102.848 105.004 102.81 105.031 102.766C105.057 102.722 105.075 102.673 105.081 102.622C105.087 102.571 105.083 102.519 105.068 102.47C105.053 102.421 105.028 102.375 104.994 102.336C104.96 102.298 104.918 102.266 104.871 102.245C104.825 102.223 104.774 102.212 104.722 102.211C104.671 102.211 104.62 102.221 104.573 102.242L87.8337 107.454C87.7884 107.468 87.7464 107.491 87.7101 107.522C87.6738 107.552 87.644 107.59 87.6222 107.632C87.6005 107.674 87.5873 107.72 87.5835 107.767C87.5797 107.814 87.5854 107.862 87.6001 107.907ZM67.1601 126.339L75.3361 123.857C75.4181 123.821 75.484 123.757 75.5214 123.675C75.5588 123.594 75.565 123.502 75.5389 123.416C75.5128 123.331 75.4561 123.258 75.3797 123.211C75.3033 123.165 75.2124 123.148 75.1244 123.164L66.9484 125.646C66.8977 125.655 66.8496 125.675 66.8071 125.704C66.7647 125.733 66.7289 125.771 66.7021 125.815C66.6753 125.859 66.6581 125.908 66.6517 125.959C66.6452 126.01 66.6497 126.062 66.6647 126.111C66.6797 126.161 66.705 126.206 66.7389 126.245C66.7728 126.284 66.8145 126.315 66.8613 126.336C66.9081 126.358 66.9589 126.369 67.0104 126.37C67.0619 126.37 67.1129 126.36 67.1601 126.339ZM67.3645 128.88C67.3931 128.971 67.4566 129.048 67.5413 129.093C67.626 129.138 67.7251 129.148 67.8171 129.121L78.8401 125.77C78.9203 125.734 78.9847 125.669 79.0213 125.589C79.058 125.509 79.0645 125.419 79.0396 125.334C79.0147 125.25 78.9601 125.177 78.8859 125.13C78.8116 125.082 78.7228 125.063 78.6357 125.076L67.5835 128.427C67.4959 128.46 67.4244 128.525 67.3836 128.61C67.3429 128.694 67.336 128.791 67.3645 128.88ZM70.0801 131.42L76.6063 129.435C76.6519 129.422 76.6945 129.4 76.7316 129.371C76.7686 129.342 76.7993 129.305 76.8218 129.263C76.8443 129.222 76.8582 129.176 76.8625 129.129C76.8669 129.082 76.8617 129.034 76.8472 128.989C76.8338 128.944 76.8116 128.902 76.782 128.866C76.7524 128.829 76.7158 128.799 76.6745 128.776C76.6331 128.754 76.5877 128.74 76.541 128.735C76.4942 128.73 76.4469 128.735 76.4019 128.748L69.8319 130.727C69.7839 130.741 69.7392 130.764 69.7002 130.795C69.6613 130.826 69.6288 130.865 69.6048 130.908C69.5807 130.952 69.5655 131 69.56 131.05C69.5545 131.099 69.5588 131.15 69.5727 131.197C69.5866 131.245 69.6098 131.29 69.641 131.329C69.6722 131.368 69.7107 131.4 69.7545 131.425C69.7982 131.449 69.8462 131.464 69.8958 131.469C69.9454 131.475 69.9956 131.471 70.0436 131.457L70.0801 131.42ZM70.8685 133.931C70.8971 134.023 70.9606 134.1 71.0453 134.145C71.1301 134.19 71.2291 134.2 71.3211 134.172L80.6651 131.34C80.7471 131.304 80.813 131.239 80.8504 131.158C80.8878 131.077 80.894 130.984 80.8679 130.899C80.8418 130.813 80.7851 130.74 80.7087 130.694C80.6323 130.647 80.5414 130.63 80.4534 130.646L71.1094 133.479C71.0178 133.507 70.9411 133.571 70.8961 133.656C70.851 133.74 70.8411 133.839 70.8685 133.931ZM77.9495 134.888L70.1604 137.246C70.1124 137.259 70.0677 137.283 70.0287 137.314C69.9898 137.345 69.9573 137.384 69.9333 137.427C69.9092 137.471 69.894 137.519 69.8885 137.569C69.883 137.618 69.8873 137.668 69.9012 137.716C69.9151 137.764 69.9383 137.809 69.9695 137.848C70.0007 137.887 70.0392 137.919 70.083 137.943C70.1267 137.968 70.1747 137.983 70.2243 137.988C70.2739 137.994 70.3241 137.989 70.3721 137.976L78.1612 135.61C78.2522 135.582 78.3283 135.519 78.3728 135.435C78.4173 135.351 78.4265 135.252 78.3984 135.161C78.3703 135.07 78.3073 134.994 78.2231 134.95C78.1389 134.905 78.0405 134.896 77.9495 134.924V134.888ZM81.9572 122.032L88.6951 120.12C88.7919 120.094 88.8743 120.03 88.9243 119.943C88.9743 119.856 88.9876 119.753 88.9615 119.656C88.9354 119.559 88.8719 119.477 88.7849 119.427C88.698 119.377 88.5948 119.364 88.498 119.39L81.7601 121.339C81.7137 121.351 81.6701 121.372 81.632 121.401C81.5939 121.43 81.562 121.466 81.5381 121.507C81.5143 121.549 81.4991 121.595 81.4933 121.642C81.4875 121.69 81.4914 121.738 81.5046 121.784C81.5333 121.876 81.5965 121.953 81.6809 121.999C81.7653 122.046 81.8643 122.057 81.9572 122.032ZM82.3806 124.58C82.3932 124.626 82.4148 124.669 82.4441 124.706C82.4734 124.743 82.5098 124.774 82.5512 124.797C82.5927 124.82 82.6383 124.835 82.6855 124.84C82.7326 124.846 82.7803 124.842 82.8259 124.828L90.6296 122.638C90.7264 122.612 90.8088 122.549 90.8588 122.462C90.9088 122.375 90.9221 122.271 90.896 122.175C90.8699 122.078 90.8064 121.995 90.7194 121.945C90.6325 121.895 90.5293 121.882 90.4325 121.908L82.6288 124.098C82.5781 124.109 82.5304 124.131 82.4892 124.163C82.4481 124.194 82.4144 124.234 82.3906 124.28C82.3669 124.326 82.3537 124.377 82.3519 124.429C82.3502 124.481 82.36 124.532 82.3806 124.58ZM90.4033 125.31C90.3745 125.218 90.3113 125.141 90.227 125.095C90.1426 125.048 90.0436 125.037 89.9507 125.062L83.4975 126.894C83.4495 126.907 83.4046 126.929 83.3653 126.96C83.326 126.99 83.293 127.028 83.2682 127.071C83.2183 127.158 83.2049 127.261 83.231 127.358C83.2571 127.454 83.3207 127.537 83.4076 127.587C83.4945 127.637 83.5978 127.65 83.6946 127.624L90.1551 125.792C90.2038 125.778 90.2493 125.754 90.2885 125.722C90.3277 125.69 90.3599 125.65 90.3832 125.604C90.4064 125.559 90.4202 125.51 90.4237 125.459C90.4271 125.409 90.4202 125.358 90.4033 125.31ZM84.118 130.135C84.1306 130.181 84.1522 130.224 84.1815 130.261C84.2108 130.298 84.2472 130.33 84.2886 130.353C84.3301 130.376 84.3757 130.39 84.4229 130.396C84.47 130.401 84.5177 130.397 84.5633 130.383L92.1918 128.194C92.238 128.182 92.2814 128.161 92.3193 128.132C92.3572 128.103 92.3887 128.066 92.4119 128.024C92.4352 127.983 92.4496 127.937 92.4545 127.889C92.4593 127.842 92.4543 127.794 92.44 127.748C92.4275 127.701 92.4055 127.656 92.3752 127.618C92.3449 127.579 92.307 127.548 92.2639 127.524C92.2208 127.501 92.1733 127.487 92.1245 127.483C92.0757 127.478 92.0265 127.484 91.9801 127.5L84.3516 129.69C84.263 129.72 84.1893 129.783 84.1459 129.866C84.1024 129.949 84.0924 130.045 84.118 130.135ZM90.5201 130.975L85.2495 132.471C85.1527 132.497 85.0702 132.561 85.0202 132.648C84.9703 132.735 84.9569 132.838 84.983 132.935C85.0092 133.032 85.0727 133.114 85.1596 133.164C85.2465 133.214 85.3498 133.227 85.4466 133.201L90.7172 131.705C90.814 131.679 90.8964 131.615 90.9464 131.528C90.9964 131.441 91.0098 131.338 90.9836 131.241C90.9575 131.144 90.894 131.062 90.807 131.012C90.7201 130.962 90.6169 130.949 90.5201 130.975ZM55.575 64.7711C55.9495 65.1436 56.4102 65.4179 56.9161 65.5698C57.422 65.7217 57.9575 65.7465 58.4753 65.642C58.9931 65.5375 59.4771 65.3069 59.8845 64.9706C60.2918 64.6344 60.61 64.2029 60.8108 63.7143C61.0115 63.2257 61.0887 62.6951 61.0354 62.1696C60.9822 61.6441 60.8001 61.1398 60.5054 60.7014C60.2107 60.2631 59.8124 59.9042 59.3459 59.6565C58.8793 59.4088 58.3589 59.28 57.8307 59.2815C57.1922 59.2762 56.5668 59.4621 56.035 59.8154C55.5031 60.1686 55.0892 60.673 54.8466 61.2636C54.6039 61.8541 54.5436 62.5038 54.6734 63.1289C54.8032 63.754 55.1172 64.326 55.575 64.7711ZM55.8889 60.5371C56.2137 60.2161 56.6125 59.9801 57.0501 59.8498C57.4878 59.7194 57.9508 59.6989 58.3982 59.7899C58.8457 59.8809 59.2639 60.0807 59.6158 60.3716C59.9678 60.6626 60.2427 61.0357 60.4163 61.458C60.5899 61.8804 60.6569 62.3389 60.6112 62.7933C60.5656 63.2476 60.4088 63.6838 60.1547 64.0631C59.9006 64.4425 59.557 64.7535 59.1542 64.9687C58.7514 65.1838 58.3019 65.2965 57.8453 65.2967C57.2937 65.297 56.7544 65.1332 56.2961 64.8263C55.8378 64.5193 55.4811 64.083 55.2714 63.5728C55.0617 63.0626 55.0084 62.5016 55.1184 61.961C55.2283 61.4205 55.4965 60.9248 55.8889 60.5371Z" fill="#D60000"/>
<path d="M70.3878 80.1887C68.4267 83.4441 66.6949 86.8322 65.2048 90.3284C62.1333 88.7196 58.9637 87.3055 55.7148 86.0944C55.6748 86.0826 55.632 86.0849 55.5935 86.1008C55.555 86.1168 55.5231 86.1454 55.5031 86.182C55.4851 86.2228 55.4834 86.269 55.4984 86.3111C55.5133 86.3531 55.5437 86.3879 55.5834 86.4083C59.3356 88.2698 64.8982 91.0584 64.8982 91.0584C63.429 94.5004 62.1686 98.0278 61.1241 101.621C61.1174 101.646 61.1165 101.672 61.1214 101.697C61.1263 101.723 61.1369 101.746 61.1524 101.767C61.1679 101.787 61.1879 101.804 61.2108 101.815C61.2338 101.827 61.259 101.833 61.2847 101.833C61.5621 101.833 61.2409 101.833 65.6063 91.4307C67.8547 92.6133 71.4463 94.6427 75.4759 97.0736C75.5136 97.0988 75.5598 97.1079 75.6043 97.099C75.6488 97.0901 75.688 97.0639 75.7131 97.0261C75.7383 96.9884 75.7474 96.9422 75.7385 96.8977C75.7297 96.8532 75.7034 96.8141 75.6657 96.7889C72.5701 94.5207 69.3102 92.4856 65.9129 90.7007C67.1977 87.6931 68.7599 84.3059 70.6871 80.3493C70.7084 80.3096 70.713 80.2631 70.7 80.22C70.687 80.1768 70.6574 80.1406 70.6177 80.1193C70.578 80.098 70.5315 80.0934 70.4884 80.1064C70.4453 80.1194 70.4091 80.149 70.3878 80.1887ZM79.4252 79.32C82.3452 80.78 84.1337 81.5757 88.9152 84.0504C87.3613 87.4488 86.0465 90.9516 84.9805 94.5332C84.9669 94.5758 84.9709 94.622 84.9914 94.6617C85.0119 94.7014 85.0474 94.7313 85.09 94.7449C85.1326 94.7584 85.1788 94.7545 85.2185 94.734C85.2582 94.7134 85.2881 94.678 85.3017 94.6354C86.8201 90.9416 86.2507 92.0147 89.6306 84.4154C92.5506 85.9776 95.8429 87.8537 99.3396 89.9707C99.3773 89.9959 99.4236 90.005 99.468 89.9961C99.5125 89.9872 99.5517 89.961 99.5768 89.9232C99.602 89.8855 99.6111 89.8393 99.6022 89.7948C99.5933 89.7503 99.5671 89.7112 99.5294 89.686C96.4802 87.4624 93.2745 85.4619 89.9372 83.7C91.4848 80.3493 93.2003 76.9475 94.5727 74.1078C94.5879 74.0698 94.5886 74.0275 94.5748 73.9889C94.561 73.9504 94.5335 73.9182 94.4977 73.8985C94.4618 73.8787 94.4199 73.8728 94.3799 73.8818C94.34 73.8907 94.3047 73.914 94.2807 73.9472C92.43 76.98 90.7461 80.1115 89.2364 83.3277C86.1103 81.6843 82.8819 80.2432 79.5712 79.0134C79.5305 78.994 79.4838 78.9916 79.4414 79.0067C79.399 79.0217 79.3643 79.053 79.3449 79.0937C79.3255 79.1343 79.3231 79.181 79.3382 79.2235C79.3532 79.2659 79.3845 79.3006 79.4252 79.32ZM95.5071 119.66C95.7343 119.43 95.8892 119.14 95.9526 118.823C96.016 118.507 95.9852 118.178 95.864 117.879C95.7428 117.58 95.5365 117.323 95.2706 117.14C95.0047 116.957 94.691 116.856 94.3683 116.849C94.1034 116.853 93.8433 116.92 93.6105 117.047C93.3778 117.174 93.1795 117.355 93.0328 117.576C92.8862 117.796 92.7956 118.05 92.7689 118.313C92.7422 118.577 92.7803 118.843 92.8798 119.088C92.9793 119.334 93.1372 119.551 93.3398 119.722C93.5424 119.893 93.7837 120.011 94.0426 120.068C94.3015 120.124 94.5702 120.116 94.8254 120.045C95.0806 119.974 95.3146 119.842 95.5071 119.66ZM93.2076 117.981C93.2942 117.796 93.4241 117.634 93.5865 117.51C93.7488 117.386 93.9387 117.303 94.14 117.267C94.3414 117.232 94.5482 117.246 94.743 117.308C94.9378 117.37 95.1148 117.478 95.2589 117.623C95.3741 117.738 95.4647 117.875 95.5251 118.026C95.5856 118.177 95.6147 118.339 95.6106 118.501C95.6065 118.664 95.5693 118.824 95.5013 118.972C95.4333 119.119 95.3359 119.252 95.2151 119.36C94.9769 119.579 94.6657 119.699 94.3427 119.699C94.0198 119.699 93.7086 119.579 93.4704 119.36C93.2948 119.189 93.1757 118.967 93.1287 118.726C93.0818 118.485 93.1093 118.235 93.2076 118.01V117.981ZM98.4928 118.463C98.7908 118.599 99.1236 118.641 99.4461 118.582C99.7686 118.524 100.065 118.367 100.296 118.134C100.591 117.822 100.755 117.41 100.755 116.981C100.755 116.552 100.591 116.139 100.296 115.827C100.148 115.672 99.9701 115.549 99.7731 115.465C99.5761 115.38 99.3641 115.337 99.1498 115.337C98.9355 115.337 98.7234 115.38 98.5265 115.465C98.3295 115.549 98.1516 115.672 98.0037 115.827C97.8239 116.017 97.6916 116.247 97.6174 116.497C97.5433 116.748 97.5296 117.012 97.5773 117.269C97.625 117.526 97.7328 117.769 97.8919 117.976C98.051 118.183 98.2569 118.35 98.4928 118.463ZM97.9964 116.455C98.083 116.27 98.2129 116.108 98.3753 115.984C98.5376 115.86 98.7275 115.777 98.9288 115.742C99.1302 115.707 99.337 115.721 99.5318 115.783C99.7266 115.844 99.9036 115.952 100.048 116.097C100.163 116.212 100.253 116.349 100.314 116.5C100.374 116.651 100.403 116.813 100.399 116.976C100.395 117.138 100.358 117.298 100.29 117.446C100.222 117.594 100.125 117.726 100.004 117.835C99.7669 118.052 99.4569 118.173 99.1352 118.173C98.8135 118.173 98.5035 118.052 98.2665 117.835C98.0808 117.663 97.9545 117.437 97.9059 117.189C97.8573 116.941 97.889 116.684 97.9964 116.455ZM105.121 116.601C105.349 116.373 105.505 116.083 105.569 115.768C105.633 115.452 105.603 115.124 105.482 114.825C105.362 114.527 105.156 114.27 104.891 114.087C104.625 113.904 104.312 113.804 103.99 113.798C103.724 113.799 103.462 113.865 103.227 113.99C102.993 114.116 102.792 114.297 102.644 114.517C102.496 114.738 102.403 114.992 102.376 115.256C102.348 115.521 102.386 115.788 102.485 116.035C102.585 116.282 102.743 116.5 102.947 116.672C103.151 116.843 103.393 116.962 103.653 117.017C103.913 117.073 104.183 117.064 104.439 116.992C104.695 116.919 104.929 116.785 105.121 116.601ZM102.822 114.929C102.908 114.744 103.038 114.583 103.201 114.459C103.363 114.334 103.553 114.251 103.754 114.216C103.955 114.181 104.162 114.195 104.357 114.257C104.552 114.319 104.729 114.427 104.873 114.572C104.988 114.686 105.078 114.822 105.139 114.973C105.199 115.123 105.228 115.284 105.224 115.446C105.22 115.608 105.183 115.768 105.115 115.915C105.047 116.062 104.95 116.194 104.829 116.302C104.593 116.521 104.283 116.643 103.96 116.643C103.638 116.643 103.328 116.521 103.092 116.302C102.902 116.135 102.771 115.912 102.716 115.665C102.661 115.419 102.685 115.161 102.785 114.929H102.822ZM108.041 115.411C108.34 115.547 108.673 115.588 108.996 115.528C109.318 115.467 109.615 115.31 109.844 115.075C110.142 114.767 110.308 114.354 110.308 113.926C110.308 113.497 110.142 113.085 109.844 112.776C109.698 112.619 109.522 112.494 109.327 112.407C109.131 112.32 108.92 112.274 108.706 112.27C108.492 112.267 108.279 112.307 108.081 112.387C107.883 112.468 107.703 112.588 107.552 112.739C107.366 112.93 107.229 113.162 107.151 113.416C107.074 113.671 107.058 113.94 107.106 114.202C107.154 114.463 107.264 114.71 107.426 114.92C107.589 115.131 107.8 115.299 108.041 115.411ZM107.552 113.396C107.639 113.213 107.769 113.052 107.93 112.929C108.092 112.806 108.281 112.723 108.481 112.688C108.682 112.653 108.888 112.667 109.081 112.728C109.275 112.789 109.452 112.895 109.596 113.039C109.746 113.202 109.85 113.402 109.896 113.619C109.942 113.835 109.929 114.061 109.858 114.27C109.787 114.48 109.66 114.667 109.492 114.812C109.324 114.956 109.12 115.052 108.902 115.09C108.684 115.128 108.459 115.107 108.252 115.029C108.045 114.95 107.862 114.817 107.724 114.644C107.586 114.471 107.497 114.263 107.467 114.044C107.437 113.824 107.466 113.601 107.552 113.396Z" fill="#D60000"/>
</svg>
