<svg width="324" height="396" viewBox="0 0 324 396" fill="none" xmlns="http://www.w3.org/2000/svg">
<rect x="0.5" y="0.5" width="323" height="395" rx="7.5" stroke="#00115F"/>
<path d="M315.756 225.329C309.357 226.625 296.915 225.961 293.221 225.475C293.108 224.179 293.302 211.754 293.14 208.951C293.14 208.805 292.897 208.724 292.897 208.724C283.732 208.08 274.541 207.896 265.357 208.173C265.357 197.287 265.357 186.271 265.114 175.271C265.116 175.231 265.107 175.191 265.091 175.154C265.074 175.118 265.049 175.086 265.017 175.061C264.986 175.035 264.949 175.018 264.909 175.009C264.87 175.001 264.829 175.002 264.79 175.012C247.926 174.429 235.63 174.672 235.533 174.85C235.355 176.016 235.063 186.935 235.161 189.43C230.211 183.989 224.231 179.584 217.567 176.47C215.987 175.962 214.515 175.166 213.226 174.121C212.859 173.793 212.58 173.377 212.416 172.913C212.252 172.449 212.207 171.95 212.286 171.464C213.696 166.086 222.103 163.364 224.566 161.501C226.085 160.487 227.388 159.181 228.4 157.66C229.413 156.139 230.113 154.433 230.463 152.64C230.559 150.909 230.068 149.197 229.069 147.78C228.016 146.16 229.685 145.852 230.835 144.848C229.77 144.864 228.721 145.107 227.757 145.56C228.127 144.974 228.338 144.301 228.369 143.608C228.4 142.915 228.251 142.225 227.935 141.608C228.016 142.126 227.97 142.656 227.801 143.153C227.632 143.65 227.344 144.098 226.963 144.459C227.052 143.143 226.655 141.84 225.846 140.798C221.682 135.371 212.886 134.204 206.519 133.848C206.681 120.888 206.519 87.0946 206.519 83.3362C221.099 83.9842 235.679 84.697 250.389 85.2802C249.352 108.106 249.093 131.078 249.757 154.017C249.759 154.056 249.77 154.094 249.79 154.128C249.81 154.162 249.838 154.191 249.872 154.211C249.905 154.232 249.943 154.244 249.982 154.247C250.022 154.25 250.061 154.243 250.097 154.227C257.452 154.503 275.709 155.135 277.491 155.183C278.236 165.243 278.447 175.482 278.301 185.704C278.305 185.779 278.338 185.849 278.392 185.9C278.446 185.951 278.518 185.98 278.593 185.979C285.923 186.45 293.275 186.482 300.609 186.077C300.852 186.077 300.868 185.672 300.609 185.672C296.899 185.672 282.416 185.672 278.884 185.429C279.152 175.242 278.87 165.048 278.042 154.892C271.384 153.822 252.3 153.839 250.243 153.79C249.789 130.932 249.903 107.944 250.956 85.0048C250.956 84.9302 250.927 84.8584 250.876 84.8042C250.825 84.7499 250.755 84.7174 250.68 84.7132C250.518 84.7132 206.308 82.8664 206.146 82.9474C206.088 82.9592 206.035 82.9921 206 83.0399C205.964 83.0877 205.947 83.1471 205.952 83.2066V133.864C202.55 134.285 203.846 137.282 202.987 138.951C202.615 139.647 202.307 139.356 201.708 139.761C200.088 140.814 200.233 147.861 200.298 149.724C198.678 153.92 197.415 159.978 200.46 163.316C200.995 163.899 201.934 164.385 202.226 165.146C202.28 165.404 202.278 165.671 202.219 165.929C202.16 166.186 202.046 166.427 201.886 166.637C201.267 167.782 200.318 168.714 199.163 169.312C198.007 169.91 196.698 170.146 195.406 169.99C185.232 169.18 180.972 170.751 178.752 171.383C172.082 174.407 165.796 178.214 160.025 182.723C159.754 183.036 159.573 183.417 159.501 183.825C159.43 184.233 159.471 184.653 159.62 185.04C158 185.704 156.38 186.66 154.857 187.421C153.901 184.343 149.56 169.488 149.317 168.84C150.3 168.225 151.135 167.401 151.763 166.426C153.383 166.426 153.739 166.523 153.853 166.28C155.1 163.51 155.91 160.545 157.255 157.808C158.745 157.808 174.054 157.03 180.194 156.495C180.194 156.495 188.845 158.115 189.282 158.261C189.258 158.6 189.31 158.939 189.436 159.254C189.563 159.569 189.759 159.851 190.01 160.079C190.261 160.307 190.561 160.475 190.887 160.57C191.213 160.664 191.556 160.684 191.89 160.626C193.705 160.416 194.774 158.78 195.503 157.289C196.386 155.598 196.858 153.722 196.88 151.814C196.88 148.088 194.904 146.824 193.381 146.954C192.981 146.936 192.587 147.054 192.263 147.29C191.939 147.525 191.705 147.864 191.599 148.25C190.497 148.055 183.612 146.727 183.499 146.63C179.675 142.612 169.761 133.896 169.761 133.864C169.502 124.679 169.842 100.136 169.939 97.333C169.935 97.257 169.903 97.185 169.85 97.1312C169.796 97.0773 169.724 97.0453 169.648 97.0414C151.034 97.3978 146.449 96.442 146.466 97.2844C146.676 101.966 146.644 116.028 146.563 115.979C134.559 108.025 115.345 89.8486 115.669 90.0592C115.475 89.4274 114.552 86.9002 114.276 86.2684C114.276 86.1712 105.156 83.3848 103.228 83.0284C102.346 83.0179 101.478 83.2475 100.717 83.6926C98.308 85.3175 96.2572 87.418 94.6903 89.8648C80.3371 109.11 74.9425 131.256 77.9233 151.02C78.2329 153.797 78.9083 156.52 79.9321 159.12C80.3414 159.944 80.9499 160.652 81.7024 161.181C82.4549 161.71 83.3276 162.043 84.2413 162.149C85.8613 162.506 93.7183 163.364 95.5813 162.911C96.6993 162.245 97.7808 161.521 98.8213 160.74C103.681 160.837 117.208 160.124 119.152 160.027C118.683 169.099 118.747 192.33 118.845 194.841C111.214 194.679 91.8067 194.679 89.6845 194.614C89.6845 190.24 90.0409 185.461 89.8465 181.022C89.5873 180.617 89.1013 180.601 88.6801 180.569C85.0351 180.358 69.6613 179.872 66.1783 180.18C65.4817 180.18 66.3241 179.969 66.1783 198.842H39.3673C39.29 198.842 39.2158 198.873 39.1611 198.928C39.1064 198.982 39.0757 199.056 39.0757 199.134C39.0757 211.332 38.8489 223.644 39.0757 235.94H15.7477C15.6919 235.94 15.6383 235.962 15.5988 236.002C15.5593 236.041 15.5371 236.095 15.5371 236.151C15.5371 236.207 15.5593 236.26 15.5988 236.3C15.6383 236.339 15.6919 236.361 15.7477 236.361C31.5589 236.556 47.4511 236.718 63.3271 236.653C63.6349 236.653 63.7321 237.771 63.6511 216.128C73.3711 216.128 83.0911 216.371 92.9245 216.128C92.9245 223.418 92.7139 230.708 92.8111 237.998C89.9406 236.658 86.6787 236.416 83.6419 237.317C76.5787 239.18 77.9557 244.478 77.7613 245.271C77.4049 246.373 76.3681 246.081 75.1855 246.389C73.841 246.758 72.6195 247.479 71.6481 248.479C70.6767 249.479 69.9907 250.721 69.6613 252.075C66.4213 251.93 64.3801 252.075 62.8087 254.878C61.9485 253.898 60.8778 253.125 59.6767 252.617C58.4756 252.109 57.1751 251.879 55.8726 251.944C54.5701 252.01 53.2993 252.369 52.1551 252.995C51.011 253.621 50.0232 254.497 49.2655 255.558C46.4143 254.619 43.8871 257.178 42.6559 259.754C40.5823 264.177 44.0329 266.623 44.2759 267.271L35.2039 267.158C34.9771 267.158 34.9771 267.498 35.2039 267.514C38.2981 267.514 67.4743 268.632 137.264 267.627C129.553 284.508 128.548 312.987 128.095 331.455C129.001 331.854 129.939 332.179 130.897 332.427C130.897 333.675 130.995 334.971 130.995 336.607C129.553 337.433 125.033 340.122 124.79 340.43C124.547 340.738 124.353 341.888 125.082 342.05C128.621 342.145 132.163 342.047 135.693 341.759C135.483 338.786 135.869 335.801 136.826 332.978C138.84 333.011 140.853 332.908 142.853 332.67C153.14 309.666 154.517 297.84 158.032 289.935C161.515 287.327 170.118 278.076 174.151 274.383C174.781 268.257 174.868 262.088 174.411 255.947C174.411 255.672 174.751 255.429 175.01 255.947C175.528 257.033 176.128 260.969 175.561 271.629C175.334 276.035 173.795 284.945 177.634 296.755C181.06 306.032 186.41 314.479 193.332 321.541L206.73 335.052C207.635 334.888 208.529 334.661 209.403 334.371C209.484 334.469 211.946 337.611 212.076 337.611C212.058 338.514 211.778 339.392 211.268 340.138C210.759 340.883 210.043 341.463 209.208 341.807C208.722 342.002 208.965 343.427 209.338 343.427C211.064 343.524 212.795 343.524 214.522 343.427C215.881 341.892 217.137 340.269 218.28 338.567C218.28 338.308 215.04 334.047 214.457 331.828C215.101 331.392 215.713 330.91 216.288 330.386C210.291 316.593 205.003 302.502 200.444 288.169C203.409 283.001 208.706 272.99 209.451 267.384C244.897 269.004 274.883 271.062 309.47 267.595C309.729 267.595 309.729 267.174 309.47 267.19L305.371 267.546C304.442 265.065 302.978 262.82 301.082 260.969C299.187 259.118 296.906 257.708 294.404 256.838C290.402 255.526 289.674 257.049 288.475 255.413C286.911 253.019 284.6 251.21 281.902 250.267C279.203 249.323 276.269 249.298 273.555 250.196C274.138 243.83 269.553 237.868 262.409 238.678C263.199 236.173 263.085 233.47 262.088 231.039C261.09 228.609 259.272 226.606 256.95 225.378C257.541 223.505 257.61 221.506 257.151 219.597C256.691 217.687 255.72 215.939 254.341 214.54C253.607 213.566 252.594 212.838 251.437 212.453C250.28 212.068 249.032 212.045 247.861 212.385C246.178 209.316 244.109 206.474 241.705 203.929C242.241 203.236 242.733 202.511 243.18 201.758C241.176 197.38 238.581 193.298 235.468 189.624C235.468 189.624 235.954 176.211 235.987 175.044C243.439 174.882 262.506 175.482 264.58 175.449C264.58 184.003 264.661 205.97 264.742 208.4C264.745 208.45 264.76 208.499 264.786 208.541C264.813 208.584 264.849 208.62 264.892 208.645C264.935 208.671 264.984 208.686 265.034 208.688C265.084 208.69 265.134 208.681 265.179 208.659C278.625 208.238 289.593 209.048 292.638 209.097C292.638 211.916 292.136 224.535 292.638 225.767C292.638 225.912 298.47 227.111 310.118 226.528C311.382 226.398 316.841 226.253 315.756 225.329ZM135.288 336.461C134.008 336.315 132.717 336.282 131.432 336.364C131.432 336.202 131.286 333.124 131.238 332.508C132.907 332.764 134.589 332.931 136.276 333.011C136.081 333.529 135.32 336.396 135.288 336.461ZM213.987 332.184L215.721 335.424C215.202 335.716 213.517 336.801 212.481 337.417C212.481 337.255 209.905 334.177 209.84 334.177C211.265 333.606 212.651 332.94 213.987 332.184ZM195.762 170.832C196.307 170.817 196.849 170.752 197.382 170.638C198.308 170.569 199.208 170.302 200.021 169.854C200.834 169.407 201.542 168.79 202.096 168.046C205.952 162.489 197.965 165.454 199.747 154.892C200.639 150.584 202.243 146.456 204.494 142.677C205.743 144.269 207.307 145.587 209.088 146.549C210.869 147.51 212.829 148.095 214.846 148.266C216.174 148.266 214.959 151.376 215.51 154.049C215.915 155.945 218.005 154.551 219.22 155.669C219.593 156.03 219.856 156.49 219.976 156.995C220.097 157.5 220.07 158.029 219.9 158.519C219.73 159.01 219.423 159.441 219.015 159.763C218.607 160.085 218.116 160.283 217.6 160.335C216.767 162.282 216.053 164.279 215.461 166.313C213.478 167.66 212.1 169.73 211.622 172.08C211.754 172.849 212.064 173.577 212.529 174.204C212.993 174.832 213.598 175.341 214.295 175.692C211.951 178.257 208.757 179.886 205.304 180.277C203.425 180.6 201.494 180.409 199.715 179.726C196.378 178.252 195.163 174.396 195.762 170.832ZM148.62 168.726C148.75 169.553 153.367 184.829 154.339 188.037C155.035 188.604 158.097 186.077 159.733 185.607C160.547 191.886 163.145 197.801 167.218 202.649C159.118 209.356 153.205 210.215 152.217 210.247C151.238 210.291 150.263 210.101 149.372 209.692C148.482 209.284 147.702 208.669 147.097 207.898C144.71 205.012 143.233 201.483 142.853 197.757C141.395 188.474 141.849 178.754 141.994 169.277C142.224 169.361 142.474 169.373 142.711 169.312C142.948 169.252 143.161 169.121 143.323 168.937C144.165 170.363 145.234 170.103 145.818 169.148C147.049 170.93 148.766 168.37 149.171 166.313C149.171 166.313 150.532 166.426 151.196 166.442C150.564 167.69 148.572 168.419 148.62 168.726ZM144.019 163.591C144.019 163.364 144.505 163.089 144.7 163.073C144.902 163.079 145.095 163.158 145.243 163.295C145.392 163.431 145.486 163.617 145.51 163.818C145.51 164.077 145.898 164.207 146.012 163.964C146.104 163.784 146.237 163.629 146.4 163.511C146.563 163.393 146.751 163.315 146.95 163.283C147.149 163.252 147.353 163.268 147.544 163.329C147.736 163.391 147.91 163.498 148.053 163.64C149.949 165.26 147.421 169.877 146.433 169.131C146.239 168.986 145.915 168.888 146.044 167.754C146.044 167.479 145.623 167.528 145.526 167.754C145.526 169.034 145.024 169.374 144.635 169.374C144.246 169.374 143.987 169.034 143.809 168.775C143.712 168.376 143.712 167.959 143.809 167.56C143.809 167.236 143.355 167.09 143.29 167.43C143.209 167.843 143.067 168.242 142.869 168.613C142.809 168.688 142.73 168.745 142.641 168.779C142.551 168.813 142.454 168.822 142.359 168.805C142.265 168.789 142.177 168.747 142.104 168.685C142.031 168.623 141.977 168.542 141.946 168.451C141.609 166.885 141.665 165.26 142.108 163.721C142.161 163.555 142.261 163.408 142.396 163.299C142.532 163.189 142.696 163.122 142.869 163.105C143.112 163.105 143.452 163.51 143.452 163.559C143.501 163.98 144.036 163.98 144.019 163.591ZM153.334 165.778C152.168 165.778 150.759 165.778 149.236 165.891C149.576 162.927 147.016 162.084 145.866 163.235C145.763 163.041 145.613 162.877 145.43 162.757C145.246 162.638 145.036 162.566 144.817 162.55C144.599 162.534 144.38 162.573 144.181 162.665C143.982 162.756 143.809 162.896 143.679 163.073C143.581 162.957 143.461 162.862 143.326 162.794C143.191 162.726 143.044 162.685 142.893 162.674C142.742 162.664 142.59 162.684 142.447 162.732C142.304 162.781 142.172 162.858 142.059 162.959C141.427 163.478 141.379 164.579 141.282 165.616H135.936C135.612 164.676 133.894 160.383 133.587 159.298L156.493 157.889C156.023 159.12 153.999 164.433 153.334 165.778ZM196.021 154.082C195.422 156.366 194.207 160.157 191.161 160.059C190.784 159.99 190.443 159.79 190.2 159.493C189.957 159.196 189.827 158.823 189.833 158.439C190.128 158.485 190.429 158.485 190.724 158.439C192.036 157.479 193.041 156.157 193.617 154.636C194.192 153.114 194.313 151.458 193.964 149.87C193.964 149.562 193.656 148.59 193.446 148.557L191.826 148.298C193.656 145.982 197.334 148.379 196.021 154.082ZM147.033 97.5598C147.211 97.5598 162.05 97.7542 169.372 97.7218C168.854 109.58 168.741 121.601 169.243 133.572C162.131 127.676 154.485 121.989 146.984 116.336C147 116.19 147.162 100.8 147.033 97.5598ZM81.5845 160.221C79.9645 158.52 79.5109 155.961 79.0897 153.741C75.6391 135.921 79.4299 117.162 88.2265 101.367C89.6197 98.8396 96.0673 88.0666 100.927 84.3568C102.904 82.834 105.415 84.8266 106.533 86.9002C108.477 90.5128 108.768 106.454 108.412 111.654C105.526 110.581 102.378 110.434 99.4045 111.233C84.1603 115.607 85.4563 138.87 102.645 138.967C101.478 142.207 96.6181 154.049 88.0645 160.4C87.1429 161.153 85.9811 161.549 84.7913 161.516C83.6016 161.484 82.4633 161.024 81.5845 160.221ZM95.2249 162.522C94.9171 162.425 88.4533 162.246 85.9909 162.003C88.214 161.224 90.192 159.871 91.7257 158.083C101.867 148.169 106.452 131.952 108.396 117.923C109.671 108.345 109.49 98.6282 107.861 89.1034C107.507 87.2283 106.618 85.4955 105.301 84.1138C106.452 84.4864 113.531 86.6734 113.936 86.7058C119.039 99.7792 119.379 114.635 116.236 128.372C115.588 130.948 114.746 133.508 113.92 136.035C110.469 147.116 105.188 156.544 95.2249 162.522ZM99.2911 160.367C118.245 145.496 121.971 109.694 115.961 90.853C136.179 112.01 162.941 126.104 183.061 147.148C183.191 147.278 191.647 148.865 193.348 149.141C193.787 150.725 193.751 152.403 193.244 153.967C192.737 155.531 191.782 156.911 190.497 157.937C189.784 157.646 180.324 155.961 180.194 155.945C174.848 155.993 101.737 160.238 99.2911 160.367ZM63.3109 215.528C63.2634 215.528 63.2166 215.541 63.1752 215.564C63.1338 215.587 63.0992 215.621 63.0748 215.662C63.0503 215.703 63.0368 215.749 63.0356 215.797C63.0344 215.844 63.0455 215.891 63.0679 215.933C63.0679 222.494 62.8411 229.395 63.0679 236.118C57.1063 235.973 41.3437 235.924 39.6913 235.924C39.8857 226.544 39.6913 202.034 39.6913 199.393H66.4699C66.5166 199.394 66.5629 199.384 66.6045 199.362C66.646 199.341 66.6814 199.309 66.7073 199.271C66.7333 199.232 66.7489 199.187 66.7527 199.14C66.7565 199.094 66.7484 199.047 66.7291 199.004C66.9073 193.091 66.7291 186.854 66.5995 180.747C72.4801 180.52 87.2383 181.281 88.7449 181.379C89.8627 181.379 89.1823 180.552 89.2147 195.068C89.2147 195.197 89.4901 195.359 89.5549 195.359C99.2749 196.04 109.173 195.359 119.071 195.473C120.189 195.845 118.958 192.508 119.622 160.108L133.101 159.347C133.489 160.416 135.223 164.855 135.514 166.086C135.537 166.156 135.579 166.219 135.637 166.265C135.695 166.311 135.765 166.339 135.838 166.345H141.395C141.243 167.307 141.396 168.293 141.832 169.164C140.326 192.443 142.286 198.324 142.448 198.907C140.723 198.356 138.866 198.373 137.151 198.956C135.436 199.539 133.954 200.658 132.922 202.147C131.806 201.332 130.474 200.866 129.093 200.809C127.713 200.752 126.346 201.105 125.166 201.825C123.987 202.545 123.047 203.599 122.467 204.853C121.887 206.107 121.692 207.505 121.906 208.87C121.906 209.567 121.258 209.712 120.659 209.745C113.92 209.453 109.643 214.605 110.55 219.659C109.552 220.434 108.854 221.531 108.576 222.764C108.298 223.996 108.458 225.287 109.027 226.415C106.776 227.387 104.167 228.942 104.167 231.696C104.083 232.492 104.309 233.289 104.798 233.923C105.286 234.556 106.001 234.977 106.792 235.098C107.553 235.195 108.412 235.098 109.06 235.632C109.362 236.252 109.84 236.769 110.433 237.12C111.026 237.471 111.708 237.641 112.397 237.609C112.427 238.118 112.347 238.627 112.163 239.102C111.978 239.578 111.693 240.008 111.328 240.363C111.328 240.363 109.594 239.958 108.833 239.666C108.102 239.393 107.296 239.393 106.565 239.666C105.71 239.998 104.774 240.057 103.884 239.837C102.993 239.617 102.193 239.127 101.592 238.435C100.636 236.815 98.9185 234.077 96.7315 235.843C96.4686 236.073 96.2633 236.362 96.1321 236.685C96.1321 239.618 94.4311 238.694 93.6049 238.305C93.8155 230.821 93.7669 223.353 93.7831 215.868C93.5563 215.431 95.0305 215.463 63.3109 215.528ZM137.701 266.834C135.385 266.834 73.5007 267.563 44.8267 267.271C44.3083 265.651 41.9755 264.209 42.8503 261.034C43.7251 257.859 46.4305 255.056 49.4275 256.174C49.4945 256.197 49.5676 256.195 49.6332 256.168C49.6988 256.141 49.7524 256.092 49.7839 256.028C50.4812 255.058 51.3846 254.254 52.4292 253.674C53.4738 253.094 54.6338 252.752 55.8261 252.673C57.0183 252.594 58.2132 252.78 59.3252 253.217C60.4372 253.654 61.4387 254.332 62.2579 255.202C62.5981 255.494 62.7115 255.931 63.1651 255.332C64.2505 252.723 67.3285 252.351 70.0177 252.626C70.0836 252.623 70.1469 252.599 70.199 252.558C70.2511 252.518 70.2896 252.462 70.3093 252.399C70.619 250.731 71.544 249.239 72.9013 248.22C74.3273 247.325 75.9405 246.77 77.6155 246.6C77.8615 246.356 78.0524 246.061 78.1753 245.737C78.2982 245.413 78.3504 245.067 78.3283 244.721C78.2705 243.315 78.6837 241.929 79.5025 240.785C80.3213 239.64 81.4987 238.802 82.8481 238.403C88.9879 236.491 94.1881 239.618 95.0143 239.488C95.8405 239.358 96.1807 238.694 96.2617 237.868C96.2617 237.382 96.1807 236.102 97.8817 235.924C99.5827 235.746 100.117 237.884 100.879 238.872C101.458 239.568 102.219 240.089 103.078 240.375C103.937 240.661 104.858 240.702 105.739 240.492C106.857 240.314 107.213 239.909 108.428 240.379C109.317 240.66 110.236 240.84 111.166 240.914C111.702 240.489 112.121 239.934 112.382 239.302C112.643 238.669 112.737 237.98 112.656 237.301C112.655 237.264 112.646 237.228 112.628 237.196C112.611 237.163 112.587 237.135 112.557 237.113C112.528 237.091 112.493 237.076 112.457 237.069C112.421 237.063 112.384 237.064 112.348 237.074C111.923 237.162 111.483 237.14 111.069 237.009C110.655 236.879 110.281 236.645 109.983 236.329C109.481 235.778 109.27 235.082 108.493 234.822C107.715 234.563 106.873 234.725 106.176 234.498C105.735 234.268 105.354 233.938 105.061 233.536C104.768 233.134 104.571 232.67 104.487 232.179C104.402 231.689 104.431 231.186 104.573 230.708C104.714 230.231 104.963 229.793 105.301 229.428C106.404 228.172 107.818 227.228 109.4 226.69C109.455 226.659 109.496 226.608 109.514 226.548C109.532 226.487 109.526 226.422 109.497 226.366C108.863 225.314 108.651 224.061 108.903 222.858C109.156 221.656 109.854 220.594 110.858 219.886C110.902 219.86 110.936 219.821 110.956 219.775C110.977 219.728 110.982 219.676 110.971 219.627C109.935 214.864 114.211 210.458 119.071 210.198C121.339 210.328 122.814 209.988 122.311 207.412C122.39 206.31 122.735 205.244 123.316 204.304C123.898 203.365 124.698 202.58 125.649 202.017C127.981 200.543 130.93 201.499 133.133 202.568C134.124 201.09 135.568 199.975 137.249 199.391C138.929 198.806 140.754 198.784 142.448 199.328C142.545 199.328 144.279 209.631 151.066 210.814C151.974 210.976 157.141 211.089 166.926 203.88C166.035 206.667 161.969 221.555 161.24 225.831C161.046 227.046 162.034 227.662 162.86 228.213C158.842 234.417 144.441 252.399 137.701 266.834ZM255.168 216.452C256.04 217.776 256.596 219.282 256.792 220.855C256.989 222.429 256.821 224.026 256.302 225.524C256.277 225.593 256.279 225.669 256.306 225.737C256.332 225.805 256.383 225.862 256.447 225.896C264.645 230.303 261.761 238.856 261.761 238.856C260.473 239.165 259.275 239.77 258.262 240.622C258.1 240.784 258.262 241.027 258.521 240.881C259.672 239.982 261.033 239.391 262.476 239.164C263.919 238.937 265.396 239.082 266.767 239.585C268.91 240.453 270.695 242.024 271.826 244.041C272.956 246.059 273.366 248.401 272.988 250.682C283.096 248.22 287.568 255.04 287.908 255.542C288.945 257.033 289.317 256.838 291.148 256.903C297.207 257.178 302.488 262.168 304.999 267.627C273.344 270.009 241.511 268.113 209.791 266.72C212.316 258.072 213.677 249.127 213.841 240.12C214.455 240.014 215.061 239.868 215.656 239.682C216.073 238.92 216.379 238.102 216.563 237.252C218.183 228.942 220.84 220.485 221.423 211.818C223.512 213.743 225.786 215.458 228.211 216.938C228.405 217.035 229.021 216.533 229.215 216.403C230.917 217.422 232.541 218.564 234.075 219.821C236.894 222.77 235.695 225.767 236.44 237.026C237.169 249.014 238.255 251.913 237.915 252.885C237.412 254.165 232.633 255.137 236.44 256.125C236.878 256.125 238.255 255.737 238.06 256.628C237.558 257.454 236.44 259.058 238.255 259.479C238.519 259.507 238.784 259.438 239 259.284C239.023 259.557 239.144 259.812 239.34 260.003C239.537 260.194 239.796 260.307 240.069 260.321C240.365 260.334 240.657 260.253 240.904 260.09C241.151 259.927 241.341 259.691 241.446 259.414C241.507 259.581 241.611 259.729 241.747 259.843C241.884 259.957 242.048 260.033 242.224 260.062C244.054 259.932 243.957 257.357 244.427 255.785C244.864 252.74 244.945 249.305 246.646 246.292C250.875 234.952 253.693 223.612 248.266 213.017C249.62 212.794 251.01 213.006 252.236 213.623C253.462 214.24 254.46 215.231 255.087 216.452H255.168ZM245.172 247.993C244.33 249.84 243.552 257.227 243.358 257.713C243.163 258.199 242.888 259.997 241.932 259.106C241.802 258.823 241.757 258.508 241.803 258.199C241.803 257.891 241.381 257.907 241.333 258.199C241.333 258.782 240.993 259.608 240.28 259.673C239.081 259.673 239.551 258.167 239.518 258.053C239.504 257.997 239.472 257.948 239.426 257.913C239.381 257.877 239.325 257.858 239.267 257.858C239.21 257.858 239.154 257.877 239.108 257.913C239.063 257.948 239.03 257.997 239.016 258.053C239.016 258.167 238.903 259.284 238.028 258.798C237.655 258.572 237.704 258.199 237.882 257.875C238.06 257.551 238.546 257.081 238.627 256.563C238.657 256.344 238.614 256.121 238.506 255.928C238.398 255.735 238.23 255.583 238.028 255.494C237.493 255.384 236.942 255.384 236.408 255.494C236.165 255.494 235.679 255.494 235.598 255.17C235.517 254.846 236.424 254.684 236.667 254.603C239.454 253.614 238.449 251.363 238.077 248.333C237.315 242.258 237.007 235.973 236.764 229.671V224.163C236.424 219.805 233.67 218.023 229.847 216.063C229.847 216.063 237.817 210.312 241.592 204.383C250.227 214.832 254.795 224.649 245.091 247.993H245.172ZM236.392 191.698C238.869 194.757 240.999 198.083 242.742 201.612C240.215 206.472 232.682 213.179 228.47 216.192C226.688 215.285 221.261 212.223 216.498 203.556C216.401 203.378 216.126 203.556 216.223 203.718C217.597 206.364 219.225 208.871 221.083 211.203C220.516 218.687 218.232 226.236 216.757 233.737C216.423 235.545 215.957 237.326 215.364 239.067C210.504 240.249 176.144 235.681 162.892 227.289C162.034 226.771 161.839 226.528 162.034 225.459C163.654 216.711 168.967 197.141 174.994 185.169C175.091 184.959 174.783 184.781 174.686 184.991C171.918 190.485 169.547 196.169 167.59 202.001C164.48 197.773 160.9 191.228 160.414 184.473C160.187 183.404 161.143 182.853 161.872 182.383C162.601 181.913 177.521 169.682 191.242 170.492C192.36 170.492 195.228 170.784 195.568 170.784C195.16 172.39 195.231 174.08 195.772 175.646C196.313 177.212 197.301 178.585 198.613 179.597C202.145 182.027 209.953 181.492 214.813 175.871C223.114 179.4 230.475 184.82 236.311 191.698H236.392Z" fill="#00115F"/>
<path d="M204.963 157.176C205 157.167 205.033 157.149 205.061 157.122C205.088 157.096 205.107 157.063 205.117 157.027C205.127 156.99 205.127 156.952 205.117 156.915C205.107 156.879 205.087 156.846 205.06 156.82C204.752 156.544 203.975 156.56 203.975 155.993C205.078 154.545 206.268 153.166 207.539 151.862C207.685 151.7 207.458 151.441 207.296 151.603C203.861 155.054 203.181 155.556 203.537 156.463C203.675 156.712 203.885 156.913 204.14 157.04C204.394 157.168 204.681 157.215 204.963 157.176ZM204.023 151.247C204.36 150.872 204.674 150.477 204.963 150.064C205.125 149.837 204.736 149.546 204.542 149.837C204.248 150.225 203.987 150.637 203.764 151.069C203.768 151.098 203.778 151.126 203.793 151.152C203.809 151.177 203.829 151.199 203.854 151.216C203.878 151.233 203.906 151.244 203.935 151.249C203.964 151.255 203.994 151.254 204.023 151.247ZM210.228 154.633C210.455 154.633 212.253 153.385 211.848 153.013C211.796 152.961 211.726 152.932 211.654 152.932C211.581 152.932 211.511 152.961 211.459 153.013C211.232 153.401 210.034 154.066 210.05 154.633C210.077 154.648 210.108 154.656 210.139 154.656C210.17 154.656 210.201 154.648 210.228 154.633ZM207.458 162.473C208.073 162.927 209.191 162.214 209.71 161.339C210.003 160.764 210.242 160.162 210.422 159.541C210.432 159.514 210.435 159.485 210.433 159.457C210.431 159.428 210.423 159.401 210.409 159.375C210.396 159.35 210.378 159.328 210.355 159.31C210.333 159.292 210.307 159.278 210.28 159.271C210.252 159.263 210.223 159.261 210.195 159.265C210.167 159.269 210.139 159.278 210.115 159.293C210.09 159.307 210.069 159.327 210.052 159.35C210.035 159.373 210.024 159.4 210.017 159.428C209.825 159.856 209.52 160.224 209.135 160.492C208.749 160.76 208.299 160.919 207.83 160.951C206.956 161.226 206.858 162.068 207.458 162.473ZM127.478 109.823C127.444 109.802 127.402 109.795 127.363 109.804C127.323 109.813 127.289 109.838 127.268 109.872C127.246 109.906 127.239 109.948 127.248 109.987C127.258 110.027 127.282 110.061 127.316 110.083C136.583 116.984 138.656 117.907 144.035 122.346C144.213 122.492 144.472 122.249 144.294 122.071C138.985 117.597 133.365 113.504 127.478 109.823ZM156.687 131.726C156.914 131.823 157.157 131.564 156.962 131.369C156.768 131.175 152.102 128.032 151.13 127.384C150.904 127.222 150.693 127.579 150.92 127.741C151.859 128.421 156.152 131.483 156.687 131.726ZM56.4899 76.2732L53.2499 77.1318C58.4825 84.681 67.5221 92.0034 74.0345 99.5364C75.1523 99.747 64.8005 82.5912 60.7991 74.4264L63.5045 74.2482C63.5725 74.2492 63.6393 74.2298 63.6961 74.1924C63.753 74.1551 63.7974 74.1016 63.8235 74.0389C63.8497 73.9761 63.8564 73.9069 63.8429 73.8403C63.8293 73.7736 63.7961 73.7126 63.7475 73.665C57.7995 65.805 50.8812 58.7288 43.1573 52.605C42.9629 52.2 42.3635 52.605 42.5579 52.9452C46.5593 61.0614 52.5209 68.4 56.4899 76.2732ZM62.8565 73.6002L60.2645 73.746C60.202 73.7461 60.1407 73.7627 60.0866 73.7941C60.0326 73.8254 59.9877 73.8704 59.9565 73.9245C59.9253 73.9787 59.909 74.0401 59.909 74.1026C59.909 74.1651 59.9255 74.2265 59.9567 74.2806C63.1967 81.0198 71.6531 95.7294 72.1877 96.588C67.5383 91.728 55.8095 79.011 54.3677 77.5206L57.0407 76.824C57.0902 76.8085 57.1357 76.7823 57.174 76.7474C57.2123 76.7125 57.2426 76.6696 57.2626 76.6218C57.2827 76.574 57.2921 76.5223 57.2901 76.4705C57.2882 76.4187 57.2749 76.368 57.2513 76.3218C54.0113 69.8418 44.4047 55.035 43.6919 53.6418C51.2735 59.0364 61.5605 72.0126 62.8565 73.6002ZM59.3411 117.697C59.4201 117.712 59.502 117.703 59.5754 117.67C59.6488 117.637 59.7102 117.582 59.7511 117.513C59.792 117.443 59.8104 117.363 59.8037 117.283C59.797 117.203 59.7656 117.126 59.7137 117.065C57.5364 114.226 54.9986 111.683 52.1645 109.499C57.4457 108.722 62.8241 108.754 68.1053 107.879C68.4617 107.879 68.3969 107.312 68.1053 107.215L35.2679 96.5556C35.1885 96.5212 35.0986 96.5198 35.0181 96.5517C34.9375 96.5836 34.873 96.6462 34.8386 96.7257C34.8043 96.8052 34.8029 96.8951 34.8348 96.9756C34.8667 97.0561 34.9293 97.1206 35.0087 97.155C38.1891 99.0853 41.0297 101.526 43.4165 104.38C32.1089 103.311 8.74854 102.42 8.55414 102.42C8.10054 102.258 7.90614 102.971 8.35974 103.133C21.2549 107.831 55.6313 116.725 59.3411 117.697ZM10.0931 102.922C21.4331 103.279 31.6067 104.445 44.1131 105.061C44.4209 105.061 44.4857 104.72 44.3237 104.526C42.3214 102.002 39.9642 99.781 37.3253 97.9326L66.4853 107.41C61.3661 108.106 56.1659 108.09 51.0629 108.932C50.7389 108.932 50.7227 109.451 50.9657 109.597C53.7799 111.548 56.263 113.938 58.3205 116.676C42.2663 112.464 25.9205 108.576 10.0931 102.922ZM66.7931 137.477C60.0377 140.83 42.2663 148.396 40.2737 149.157C40.1931 149.182 40.1239 149.235 40.0787 149.306C40.0334 149.378 40.015 149.463 40.0266 149.547C40.0383 149.63 40.0794 149.707 40.1424 149.763C40.2055 149.82 40.2865 149.852 40.3709 149.854H48.2117C41.1809 156.334 36.1751 161.194 27.8645 166.054C27.6377 166.183 28.5287 166.621 28.7717 166.507C40.6498 160.772 52.1436 154.273 63.1805 147.051C63.6989 145.674 58.3205 146.727 57.3809 146.435L67.1009 138.028C67.5221 137.752 67.1171 137.315 66.7931 137.477ZM56.2793 146.533C56.2308 146.58 56.1975 146.641 56.184 146.708C56.1705 146.775 56.1772 146.844 56.2034 146.906C56.2295 146.969 56.2739 147.023 56.3307 147.06C56.3876 147.097 56.4543 147.117 56.5223 147.116H61.9169C52.1239 153.483 41.9532 159.25 31.4609 164.385C37.9624 160.255 43.9451 155.36 49.2809 149.805C49.3235 149.758 49.352 149.7 49.3632 149.637C49.3743 149.574 49.3677 149.51 49.3441 149.451C49.3205 149.392 49.2808 149.341 49.2296 149.303C49.1783 149.265 49.1175 149.243 49.0541 149.238H42.1853C48.6653 146.695 63.5693 139.891 64.7033 139.34L56.2793 146.533Z" fill="#00115F"/>
</svg>
