<svg width="146" height="182" viewBox="0 0 146 182" fill="none" xmlns="http://www.w3.org/2000/svg">
<rect x="0.5" y="0.5" width="145" height="181" rx="7.5" stroke="#3460B2"/>
<path d="M68.5642 55.3669C68.655 55.3674 68.7436 55.3386 68.8168 55.2848C68.89 55.2311 68.944 55.1552 68.9708 55.0684C68.9943 54.7927 68.9232 54.5172 68.7693 54.2873C68.5977 54.0449 68.4043 53.8712 68.0867 54.0566C67.6247 54.3267 68.0386 55.3669 68.5642 55.3669Z" fill="#3460B2"/>
<path d="M69.7243 54.1092C70.1988 54.7038 70.7306 55.2503 71.3121 55.7408C70.7076 56.0853 70.4558 56.1788 70.4543 56.4197C70.4584 56.4978 70.4885 56.5723 70.5397 56.6314C70.583 56.6701 70.6353 56.6971 70.6919 56.7098C70.7485 56.7226 70.8074 56.7207 70.8631 56.7044C71.1998 56.5528 71.5215 56.3697 71.8238 56.1576C71.8879 56.1137 71.9403 56.0548 71.9763 55.9859C72.0124 55.917 72.0309 55.8404 72.0304 55.7627C72.0245 55.4875 71.7683 55.2999 71.6318 55.2013C71.1106 54.748 70.6266 54.2268 70.0988 53.7201C70.0333 53.6736 69.9551 53.6481 69.8747 53.6471C69.8207 53.6471 69.7682 53.6642 69.7245 53.6959C69.6809 53.7276 69.6484 53.7723 69.6317 53.8236C69.615 53.8749 69.615 53.9301 69.6316 53.9814C69.6482 54.0328 69.6807 54.0775 69.7243 54.1092Z" fill="#3460B2"/>
<path d="M71.3023 56.5334C70.9784 56.71 70.6135 56.7973 70.2448 56.7862C69.8761 56.7752 69.517 56.6663 69.2043 56.4707C69.2096 56.4278 69.2053 56.3842 69.1917 56.3432C69.1782 56.3021 69.1557 56.2646 69.1258 56.2333C69.096 56.202 69.0596 56.1778 69.0193 56.1623C68.9789 56.1467 68.9357 56.1404 68.8926 56.1436C68.7312 56.1436 68.6736 56.2246 68.3618 56.4984C68.321 56.536 68.2919 56.5848 68.2783 56.6387C68.2646 56.6925 68.267 56.7492 68.285 56.8018C68.3031 56.8543 68.336 56.9005 68.3799 56.9347C68.4237 56.9688 68.4765 56.9895 68.5319 56.9941C68.7728 58.4672 70.1876 58.9899 71.0774 58.1759C71.3067 57.908 71.0132 57.4795 70.6248 57.7379C70.4935 57.8616 70.3224 57.9343 70.1422 57.9429C69.962 57.9514 69.7847 57.8953 69.6423 57.7847C69.4221 57.601 69.2611 57.3565 69.1794 57.0817C70.2511 57.5649 71.5016 57.1824 71.6563 56.8743C71.6825 56.8253 71.6919 56.7691 71.6832 56.7142C71.6744 56.6593 71.6481 56.6087 71.608 56.5702C71.568 56.5317 71.5165 56.5072 71.4613 56.5006C71.4061 56.4939 71.3503 56.5055 71.3023 56.5334Z" fill="#3460B2"/>
<path d="M68.0757 53.5113C68.5575 53.4638 68.5502 52.9506 68.2465 52.8981C67.9908 52.9048 67.7428 52.9874 67.5342 53.1355C67.3255 53.2835 67.1656 53.4903 67.0749 53.7295C67.0584 53.7747 67.0543 53.8234 67.0631 53.8706C67.0718 53.9178 67.0931 53.9618 67.1246 53.998C67.1561 54.0343 67.1968 54.0614 67.2424 54.0766C67.2879 54.0917 67.3367 54.0944 67.3837 54.0843C67.5815 54.0383 67.5202 53.8653 67.845 53.6354C67.9161 53.584 67.9937 53.5423 68.0757 53.5113Z" fill="#3460B2"/>
<path d="M34.615 77.8801C34.9121 77.6946 34.6201 77.172 34.3128 77.3625C32.8382 78.2837 22.954 84.4136 19.5281 86.6335C19.4647 86.6824 19.4221 86.7534 19.4088 86.8323C19.3954 86.9112 19.4123 86.9923 19.456 87.0593C19.4998 87.1264 19.5672 87.1745 19.6448 87.194C19.7224 87.2136 19.8045 87.2032 19.8748 87.1649C24.8206 84.1938 29.6889 80.9891 34.615 77.8801Z" fill="#3460B2"/>
<path d="M29.0356 62.7216C29.073 62.7237 29.1104 62.7172 29.1449 62.7028C29.1795 62.6883 29.2103 62.6661 29.235 62.638C29.2597 62.6099 29.2778 62.5766 29.2878 62.5405C29.2977 62.5044 29.2994 62.4665 29.2926 62.4296C29.2977 62.3948 29.2955 62.3592 29.2862 62.3252C29.277 62.2912 29.2607 62.2595 29.2386 62.2321C29.2164 62.2046 29.1888 62.1821 29.1576 62.1658C29.1263 62.1496 29.092 62.14 29.0568 62.1376C22.8831 61.7973 16.6926 61.921 10.5374 62.5078C10.4713 62.5172 10.4107 62.5498 10.3663 62.5997C10.3219 62.6496 10.2967 62.7136 10.295 62.7804C10.2933 62.8471 10.3154 62.9123 10.3572 62.9644C10.3991 63.0165 10.458 63.052 10.5236 63.0647C10.5236 63.0647 28.4195 62.7136 29.0356 62.7216Z" fill="#3460B2"/>
<path d="M30.9179 37.7272C30.9537 37.7576 30.9958 37.7797 31.0412 37.7921C31.0865 37.8045 31.134 37.8069 31.1804 37.7989C31.2267 37.791 31.2707 37.773 31.3094 37.7462C31.348 37.7195 31.3803 37.6845 31.404 37.6439C31.4252 37.588 31.4309 37.5274 31.4206 37.4684C31.4104 37.4095 31.3845 37.3544 31.3456 37.3089C28.8352 34.6802 26.1057 32.0156 23.0098 29.1738C22.9807 29.1469 22.9458 29.1272 22.9078 29.1162C22.8698 29.1052 22.8298 29.1031 22.7908 29.1102C22.7519 29.1173 22.7151 29.1333 22.6835 29.157C22.6518 29.1807 22.626 29.2114 22.6083 29.2468C22.3995 29.6643 22.1987 28.9584 30.9179 37.7272Z" fill="#3460B2"/>
<path d="M41.9413 27.4788C44.1875 31.7479 44.1568 31.7778 44.3999 31.7778H44.4664C44.5128 31.7775 44.5582 31.7645 44.5978 31.7404C44.6374 31.7163 44.6698 31.6818 44.6914 31.6408C44.7129 31.5997 44.723 31.5535 44.7204 31.5072C44.7178 31.4609 44.7026 31.4161 44.6766 31.3778C44.3014 30.5616 43.8539 29.7623 43.4217 28.9877C43.2808 28.7366 41.6018 25.6451 41.2938 25.0852C41.2694 25.0392 41.2318 25.0016 41.1859 24.9772C41.14 24.9527 41.0878 24.9425 41.0361 24.9479C40.9923 24.9481 40.9492 24.9596 40.9111 24.9813C40.8729 25.0029 40.841 25.0339 40.8183 25.0714C40.7956 25.1089 40.7829 25.1516 40.7814 25.1954C40.7799 25.2393 40.7897 25.2827 40.8098 25.3217C41.1821 26.04 41.5632 26.7598 41.9413 27.4788Z" fill="#3460B2"/>
<path d="M78.0297 32.8705C78.4166 32.7194 77.8764 33.0457 80.6577 21.7388C80.6677 21.686 80.6629 21.6314 80.6439 21.5812C80.6249 21.5309 80.5924 21.4869 80.55 21.4539C80.5076 21.4209 80.4569 21.4003 80.4035 21.3942C80.3501 21.3882 80.2961 21.397 80.2474 21.4197C80.1684 21.4587 80.1078 21.5271 80.0788 21.6103C79.0872 25.2261 78.287 28.8916 77.6814 32.5917C77.6737 32.6366 77.6781 32.6827 77.6943 32.7253C77.7104 32.7679 77.7377 32.8054 77.7733 32.8339C77.8088 32.8623 77.8513 32.8808 77.8964 32.8872C77.9415 32.8937 77.9875 32.8879 78.0297 32.8705Z" fill="#3460B2"/>
<path d="M104.183 41.5977C104.988 40.5407 105.926 39.5912 106.973 38.7726C106.973 38.7726 115.263 31.5003 116.861 30.0724C117.135 29.8366 116.868 29.3548 116.442 29.6001C114.965 30.8711 106.429 38.4331 106.429 38.4331C105.4 39.2451 104.485 40.1936 103.712 41.2524C103.671 41.3224 103.658 41.4053 103.676 41.4843C103.693 41.5634 103.74 41.6328 103.807 41.6787C103.87 41.7063 103.941 41.7133 104.008 41.6988C104.076 41.6843 104.137 41.6489 104.183 41.5977Z" fill="#3460B2"/>
<path d="M112.4 53.0929C112.304 53.1287 112.264 53.2294 112.234 53.3462C112.223 53.3916 112.224 53.4392 112.238 53.4839C112.252 53.5286 112.277 53.5687 112.312 53.5998C112.347 53.6309 112.39 53.6518 112.436 53.6603C112.482 53.6687 112.529 53.6644 112.573 53.6477C117.801 51.6541 118.719 51.5168 121.083 50.7051C121.155 50.6693 121.212 50.6104 121.246 50.5379C121.267 50.4887 121.274 50.4346 121.267 50.3816C121.259 50.3287 121.237 50.2788 121.203 50.2375C121.169 50.1963 121.124 50.1651 121.074 50.1475C121.023 50.13 120.969 50.1266 120.916 50.1379C118.852 50.7036 114.384 52.3476 112.4 53.0929Z" fill="#3460B2"/>
<path d="M135.536 78.0788C135.367 78.0123 112.788 77.1685 111.127 77.2028C111.082 77.2038 111.038 77.2166 111 77.2397C110.962 77.2629 110.93 77.2957 110.909 77.3349C110.887 77.3741 110.876 77.4182 110.877 77.4629C110.878 77.5076 110.89 77.5513 110.913 77.5897C110.933 77.6359 110.966 77.6757 111.007 77.7043C111.048 77.733 111.097 77.7494 111.147 77.7517C113.302 77.8247 134.418 78.6737 135.422 78.6737C135.493 78.6724 135.562 78.6467 135.616 78.601C135.67 78.5552 135.707 78.4922 135.721 78.4224C135.734 78.3527 135.723 78.2805 135.689 78.2179C135.656 78.1553 135.602 78.1062 135.536 78.0788Z" fill="#3460B2"/>
<path d="M127.126 93.1598C127.065 93.0868 127.413 93.262 121.376 90.4785C121.709 89.8829 122.053 89.2923 122.409 88.7068C122.436 88.6346 122.438 88.5556 122.415 88.4821C122.391 88.4087 122.345 88.3449 122.282 88.3008C122.219 88.2566 122.143 88.2346 122.066 88.238C121.989 88.2415 121.915 88.2703 121.857 88.3199L119.364 89.6186C114.765 87.4702 110.537 85.6226 106.46 83.9772C104.798 83.3085 100.389 81.5682 100.374 81.5587L100.368 81.5696C100.102 81.4922 100.076 81.5499 100.019 81.6893C99.9171 81.9427 99.9317 81.9375 100.949 82.3522C96.9241 90.1384 93.1384 96.42 88.6671 105.589C88.0008 105.899 87.4579 106.425 87.1254 107.08C86.6749 108.223 87.8145 108.229 82.7453 86.2117C80.8152 77.8269 80.9656 78.2978 80.8663 78.216C80.823 78.18 80.7706 78.1566 80.7149 78.1482C80.6592 78.1398 80.6022 78.1469 80.5502 78.1685C80.5502 78.1685 77.0316 78.8102 75.7512 79.0752C75.6416 78.2149 75.7457 77.3409 76.0542 76.5304C76.1042 76.5769 76.1684 76.6052 76.2365 76.6107C76.3045 76.6163 76.3725 76.5988 76.4294 76.5611C77.6436 75.8782 78.7639 75.0401 79.7618 74.0681C80.2874 73.6152 80.7335 73.0776 81.0817 72.4775C81.239 71.9076 81.1648 71.2986 80.8751 70.7831C80.386 69.3888 79.8006 68.0302 79.1231 66.717C86.8189 61.8554 93.5606 55.6272 99.0156 48.34C99.2171 48.3648 100.502 48.524 100.592 48.524C101.227 48.524 101.49 47.9159 101.111 47.5378C101.383 47.529 101.804 47.4706 101.885 47.0727C101.904 46.9622 101.887 46.8486 101.839 46.7475C101.79 46.6464 101.712 46.5627 101.614 46.5077C101.65 46.4513 101.674 46.3883 101.685 46.3225C101.696 46.2566 101.694 46.1892 101.679 46.1242C101.663 46.0592 101.635 45.998 101.595 45.9441C101.556 45.8902 101.506 45.8448 101.449 45.8106C100.972 45.5199 100.412 45.3956 99.8573 45.4573C99.9227 45.3943 99.9716 45.3161 99.9995 45.2297C100.027 45.1433 100.034 45.0513 100.017 44.9619C100.001 44.8726 99.9632 44.7886 99.9067 44.7175C99.8503 44.6463 99.7771 44.5903 99.6938 44.5542C99.4722 44.4837 99.2318 44.5031 99.0243 44.6083C98.286 44.8319 97.6456 45.2999 97.2081 45.9354C96.9088 45.996 90.9111 48.759 86.9881 50.8775C83.1118 52.9741 74.4401 58.2352 71.0785 60.3471C71.0332 60.2376 70.9807 60.1069 70.9507 60.0113C71.1113 59.9634 71.269 59.9064 71.423 59.8404C72.902 58.9776 73.3758 57.0467 73.0575 55.4677C73.0349 55.3488 72.9991 55.2341 72.9736 55.1159C73.3646 54.5908 73.6837 54.0158 73.9226 53.4062C73.955 53.0979 73.9258 52.7862 73.8369 52.4892C73.7479 52.1922 73.6008 51.9159 73.4043 51.6761C73.2664 51.4977 73.1896 51.2796 73.1853 51.0542C73.2364 50.6067 73.9883 50.1862 73.4773 49.2671C73.3056 48.951 73.0755 48.6703 72.7991 48.44C71.8456 47.4377 70.6723 46.6705 69.3717 46.1989C68.1621 45.7668 66.8401 45.7668 65.6305 46.1989C65.0973 46.4879 64.5824 46.8095 64.0887 47.1618C63.5976 47.4125 63.0816 47.6111 62.5492 47.7546C61.9377 48.0054 61.4011 48.4093 60.9909 48.9275C60.5806 49.4456 60.3105 50.0606 60.2066 50.7133C59.965 52.0557 60.5453 53.3413 60.384 54.6553C60.2562 55.6904 59.1138 56.3598 58.013 56.8781C57.6482 57.0155 57.297 57.1865 56.9639 57.3891C47.3893 54.1771 38.6154 51.6265 33.1302 50.2256C33.0577 50.1947 32.976 50.1931 32.9024 50.2212C32.6387 49.7428 32.291 49.3158 31.876 48.9605C31.7867 48.8997 31.6836 48.8623 31.5761 48.8515C31.4686 48.8408 31.3602 48.8572 31.2606 48.8992C30.9329 49.0678 30.9993 49.4898 31.0993 49.8438C30.5517 49.6067 29.9458 49.538 29.359 49.6467C29.28 49.6608 29.2058 49.6947 29.1435 49.7453C29.0812 49.7959 29.0328 49.8616 29.0029 49.936C28.9729 50.0105 28.9625 50.0914 28.9724 50.171C28.9823 50.2507 29.0124 50.3265 29.0597 50.3913C28.9455 50.4193 28.8429 50.4821 28.7661 50.5712C28.6894 50.6602 28.6423 50.771 28.6314 50.888C28.6206 51.0051 28.6465 51.1226 28.7056 51.2242C28.7647 51.3258 28.854 51.4065 28.9611 51.4549C28.8532 51.5487 28.7844 51.6796 28.7683 51.8216C28.7522 51.9637 28.79 52.1066 28.8743 52.2222C29.2823 52.8105 29.8474 52.3842 31.6483 53.369C31.6417 53.4106 31.6271 53.4471 31.6205 53.4887C31.6205 54.3049 32.3126 54.7472 32.8681 55.1035C38.6249 58.7958 43.9824 62.1757 53.2774 67.2587C52.5109 68.9326 51.6641 70.5897 50.7494 72.1855C50.7176 72.2481 50.7063 72.3191 50.717 72.3886C50.7277 72.458 50.76 72.5223 50.8093 72.5724C53.0344 74.3883 55.4735 75.925 58.0721 77.148C58.4975 77.432 58.9807 77.6177 59.4868 77.6919C59.691 77.696 59.8896 77.6254 60.0453 77.4933C60.1183 77.4079 60.1789 77.3159 60.2446 77.2261C60.2657 77.2349 60.2876 77.2415 60.3088 77.2502C60.3986 79.2672 59.3123 80.8893 58.2517 82.6274C51.2896 84.1378 44.2561 85.7606 37.3007 87.4688C37.2252 87.5026 37.1647 87.5628 37.1303 87.638C37.0959 87.7132 37.0901 87.7983 37.1138 87.8776C38.9227 92.7642 40.5703 97.7209 42.2968 102.76C42.2238 102.731 24.7702 95.8579 21.5553 95.0009C21.1472 94.5738 20.4253 95.3389 21.0531 95.49C26.9062 103.704 33.1557 114.601 41.4201 128.486C38.6444 127.946 35.7731 128.188 33.1273 129.186C31.0373 129.993 28.7305 131.851 29.1123 134.43C29.4867 136.985 32.2841 138.342 34.3748 139.258C37.3294 140.513 40.1545 142.053 42.81 143.857C45.3954 145.703 47.3909 148.258 48.5551 151.214C48.4954 151.249 48.4499 151.304 48.4266 151.369C48.0134 152.641 47.1637 156.53 46.8396 157.998C46.6373 158.715 46.4947 159.448 46.4133 160.188C46.414 160.263 46.442 160.336 46.492 160.392C46.5421 160.447 46.6107 160.483 46.6852 160.492C46.7597 160.501 46.8349 160.483 46.8968 160.44C46.9586 160.398 47.0029 160.334 47.0213 160.261C47.2366 159.54 47.4008 158.803 47.5126 158.058C47.6674 157.334 48.758 152.624 48.8996 151.993C60.3606 156.479 72.7217 157.11 84.8507 154.511C85.5818 154.446 86.2939 154.243 86.9487 153.911C87.1159 154.394 89.3029 160.378 89.3029 160.378C89.3327 160.461 89.3941 160.529 89.4738 160.567C89.5535 160.604 89.6448 160.609 89.7278 160.579C89.8108 160.549 89.8785 160.488 89.9162 160.408C89.9538 160.328 89.9583 160.237 89.9286 160.154C89.9286 160.154 87.7079 154.146 87.402 153.418C87.6302 153.071 87.7585 152.669 87.7729 152.254C88.162 150.048 89.0073 147.948 90.2548 146.087C91.5023 144.227 93.1244 142.648 95.0174 141.45C99.7529 138.448 103.104 137.682 108.357 135.863C109.831 135.421 111.268 134.866 112.656 134.203C114.826 133.142 116.876 130.957 115.637 128.536C114.432 126.178 110.933 125.242 108.199 125.373C107.752 125.398 107.306 125.451 106.865 125.53C114.151 115.177 119.748 104.433 127.128 93.5635C127.175 93.5067 127.2 93.4352 127.2 93.3614C127.2 93.2877 127.174 93.2163 127.126 93.1598ZM101.543 82.6778C101.616 82.6778 108.083 85.2583 111.345 86.6701C112.896 87.3417 117.831 89.5544 118.723 89.95L89.6482 105.089C92.8427 98.6407 101.496 82.7508 101.543 82.6778ZM87.0786 109.372C87.1194 109.335 87.1519 109.29 87.1738 109.239C87.1957 109.189 87.2066 109.135 87.2057 109.08C87.2057 109.05 87.1969 109.019 87.1932 108.989C87.5867 107.682 87.7291 106.787 88.908 106.196C90.1848 105.557 121.127 89.4208 121.2 89.3821C119.413 92.5906 117.859 95.923 116.549 99.3539C116.184 100.247 105.294 126.268 104.723 127.39C104.116 128.43 102.852 128.931 101.788 129.516C92.512 134.633 83.4374 139.49 74.5467 145.01C79.3348 133.203 83.3191 121.543 87.0808 109.372L87.0786 109.372ZM68.0709 79.8388C68.1295 80.0238 68.2274 80.194 68.3579 80.3377C68.4885 80.4813 68.6485 80.595 68.8272 80.671C67.8096 80.7668 66.7848 80.7572 65.7692 80.6425C64.8162 80.4441 63.8739 80.1981 62.9456 79.9052L63.2872 78.1671C64.9083 78.5419 66.5642 78.7465 68.2278 78.7774C68.0611 79.1046 68.006 79.4773 68.0709 79.8388ZM70.8829 79.595C71.0565 79.5759 71.229 79.5479 71.3997 79.511C71.2475 79.7051 71.0533 79.862 70.8316 79.97C70.6099 80.078 70.3666 80.1342 70.12 80.1344C69.7594 80.1782 69.0885 80.2607 68.8221 79.9388C68.7064 79.7599 68.6536 79.5476 68.6721 79.3354C68.6907 79.1232 68.7794 78.9233 68.9243 78.7672C69.6229 78.753 70.3194 78.6831 71.0069 78.5584C71.0179 78.5584 71.0289 78.573 71.0398 78.5737C71.1822 78.5904 71.3128 78.6609 71.4048 78.7708L70.8208 78.8701C70.7305 78.8853 70.6493 78.934 70.5932 79.0063C70.5371 79.0787 70.5102 79.1695 70.518 79.2607C70.5257 79.352 70.5674 79.437 70.6349 79.4989C70.7023 79.5608 70.7906 79.5951 70.8821 79.595H70.8829ZM68.1147 94.0198C68.1716 93.7949 68.3578 93.2379 68.5658 93.1248C69.4674 89.0704 70.1222 85.627 69.4331 81.6499C69.4165 81.5545 69.4386 81.4564 69.4943 81.3772C69.5501 81.298 69.6351 81.2442 69.7305 81.2276C69.826 81.2111 69.9241 81.2331 70.0033 81.2889C70.0825 81.3447 70.1363 81.4296 70.1528 81.5251C70.4127 83.2333 70.494 84.964 70.3952 86.6891C70.628 86.5469 70.8258 86.3542 70.974 86.1253C71.1222 85.8963 71.2171 85.6369 71.2515 85.3664C71.3378 84.0534 71.262 82.7348 71.0259 81.4404C71.0164 81.3928 71.0164 81.3438 71.026 81.2962C71.0356 81.2486 71.0546 81.2034 71.082 81.1632C71.1093 81.1231 71.1443 81.0888 71.185 81.0623C71.2258 81.0359 71.2714 81.0178 71.3192 81.0093C71.3669 81.0007 71.416 81.0017 71.4634 81.0123C71.5108 81.0229 71.5556 81.0428 71.5951 81.0709C71.6347 81.099 71.6683 81.1348 71.6939 81.176C71.7195 81.2173 71.7366 81.2632 71.7442 81.3112C71.9974 82.6828 72.0744 84.0811 71.9735 85.4722C71.913 85.9354 71.7263 86.3731 71.434 86.7374C71.1416 87.1017 70.7547 87.3787 70.3156 87.5381C70.1244 89.1485 69.6871 91.3596 69.3199 93.0722C69.3402 93.0774 69.3602 93.0838 69.3798 93.0912C69.6886 93.2146 69.7265 94.1483 69.7966 94.4643C71.1705 100.788 72.153 102.713 77.6879 117.11C76.4119 117.548 77.5324 117.251 70.0229 120.108C68.6264 120.639 63.6646 122.404 62.5937 122.795C62.1345 121.804 59.792 116.736 59.0649 115.179C60.0723 113.166 63.4661 105.338 63.9325 104.2C65.5728 100.204 63.4478 105.569 68.1147 94.0198ZM71.8997 78.3664C72.4194 78.2311 72.9302 78.0636 73.4291 77.8649L73.5087 79.6074C72.8904 79.8264 72.2735 80.0279 71.6603 80.1863C71.9298 79.9742 72.1057 79.6651 72.1505 79.3251C72.1952 78.985 72.1052 78.641 71.8997 78.3664ZM77.8952 117.652C78.9267 120.331 79.9699 123.007 81.0496 125.669C81.0861 125.835 78.0449 134.349 73.8123 145.335C70.0331 138.739 66.2525 130.68 62.8164 123.275C66.9219 121.916 76.6374 118.229 77.8952 117.652ZM80.1049 78.8409C80.1915 78.8136 80.2795 78.7909 80.3685 78.773C80.4366 78.9537 80.4896 79.1398 80.5269 79.3293C83.0563 90.588 85.3602 99.6342 86.5129 108.814C86.4173 109.115 86.3413 109.419 86.2574 109.722C86.1829 107.744 85.9317 105.777 85.5069 103.844C83.5177 93.9891 81.0087 88.2367 77.7478 83.145C76.9235 82.0828 76.2841 80.8893 75.8563 79.6147C76.1272 79.5687 79.8443 78.9183 80.1049 78.8409ZM76.2564 82.7975C76.317 82.7686 76.3832 82.7532 76.4504 82.7523C76.5175 82.7515 76.5841 82.7651 76.6455 82.7924C76.7149 82.8279 76.771 82.8848 76.8058 82.9546C76.8405 83.0244 76.852 83.1035 76.8385 83.1802C76.8251 83.257 76.7874 83.3275 76.731 83.3813C76.6745 83.4351 76.6024 83.4695 76.525 83.4793C74.5073 84.1275 73.4108 82.9566 73.0269 80.928C73.009 80.8328 73.0296 80.7344 73.0842 80.6545C73.1388 80.5745 73.223 80.5195 73.3181 80.5016C73.4133 80.4837 73.5117 80.5043 73.5916 80.559C73.6716 80.6136 73.7265 80.6977 73.7444 80.7929C74.0416 82.3631 74.7372 83.2946 76.2564 82.7975ZM75.1059 78.9686C74.7832 79.1146 74.4613 79.2526 74.1394 79.3789C74.181 79.1599 74.1788 79.2752 73.9839 77.6371C74.4087 77.446 74.823 77.2323 75.2249 76.9969C75.0631 77.641 75.0227 78.3097 75.1059 78.9686ZM80.0144 70.3408C80.2715 70.8391 80.447 71.3754 80.5342 71.9292C80.5342 72.3921 79.9604 72.895 79.6312 73.252C78.7219 74.23 77.6806 75.0765 76.5374 75.7669C76.525 75.6939 76.0031 72.9658 75.9877 72.8914C76.0126 72.8184 76.8484 65.6644 76.4316 63.516C77.8967 65.6381 79.0998 67.9297 80.0144 70.3408ZM99.1995 45.3018C98.6104 45.7609 98.5907 45.6704 98.5323 45.8128C98.5098 45.8762 98.5061 45.9448 98.5216 46.0104C98.5372 46.0759 98.5713 46.1355 98.6199 46.1821C98.6599 46.2156 98.707 46.2395 98.7576 46.2521C98.8081 46.2648 98.8609 46.2658 98.9119 46.2551C99.2659 46.1614 99.6334 46.1298 99.9982 46.1617C99.8496 46.1814 99.7031 46.2139 99.5602 46.2588C99.4807 46.2804 99.4121 46.3308 99.3677 46.4002C99.3232 46.4696 99.3062 46.5531 99.3199 46.6343C99.3335 46.7155 99.3769 46.7888 99.4415 46.8399C99.5061 46.891 99.5875 46.9162 99.6697 46.9107C99.9927 46.8658 100.32 46.8658 100.643 46.9107C100.784 46.9143 100.69 46.9173 99.6945 46.9545C99.1258 46.826 99.0149 47.567 99.4755 47.6239C99.7212 47.6686 99.9633 47.7316 100.2 47.8122C100.004 47.7896 99.1455 47.6808 98.9054 47.6553C98.5679 47.1479 98.1789 46.6767 97.7447 46.2493C98.1376 45.8118 98.6397 45.4866 99.1995 45.3069V45.3018ZM92.9288 48.5787C93.0019 48.5437 97.1446 46.5975 97.2183 46.626C97.6596 47.0938 98.0527 47.605 98.3914 48.1517C98.2903 48.2826 98.1824 48.4081 98.068 48.5276C92.7356 55.4891 86.2135 61.4521 78.8033 66.1411C78.223 65.0603 77.5813 64.0138 76.8813 63.0065C76.8491 62.9598 76.8054 62.9223 76.7544 62.8977C76.7034 62.873 76.6469 62.862 76.5904 62.8658C76.5338 62.8696 76.4793 62.8879 76.432 62.9191C76.3847 62.9503 76.3463 62.9932 76.3206 63.0437C76.1608 62.2707 75.8037 61.5523 75.2842 60.9581C74.7646 60.3639 74.1001 59.9143 73.3554 59.6528C79.6502 55.7999 86.1603 51.8177 92.9288 48.5787ZM72.6348 60.0945C75.222 60.3274 75.9454 63.3065 75.9636 65.0351C75.9636 66.1958 75.8782 66.8864 75.5556 70.924C74.9346 68.0901 74.118 65.3026 73.1115 62.5816C72.9127 61.8034 72.5265 61.0856 71.9866 60.4909L72.6348 60.0945ZM70.9734 61.0734C71.1347 61.0252 71.1113 61.026 71.4654 60.8099C72.118 61.5795 72.5757 62.4949 72.7998 63.4788C73.078 64.346 73.559 65.6688 74.2248 68.0975C74.9204 70.6367 75.47 73.2137 75.8709 75.8158C73.7921 77.3031 71.3126 78.128 68.7571 78.1824C64.0603 78.2919 60.8935 76.6808 60.5512 76.7575C61.354 75.4524 62.0615 74.0911 62.6682 72.6841C64.2274 69.088 65.1279 65.2412 65.3268 61.3267C65.348 61.2807 65.4173 61.1194 65.4312 61.0844C70.4719 62.9605 65.5889 61.1377 68.8447 62.3575C68.8763 62.3705 68.9103 62.377 68.9445 62.3766C68.9787 62.3763 69.0125 62.3691 69.0438 62.3554C69.0752 62.3417 69.1035 62.3219 69.1271 62.2971C69.1506 62.2723 69.169 62.243 69.181 62.211C69.193 62.179 69.1985 62.1448 69.1971 62.1107C69.1957 62.0765 69.1874 62.0429 69.1728 62.012C69.1582 61.9811 69.1375 61.9534 69.112 61.9306C69.0865 61.9078 69.0567 61.8904 69.0243 61.8793C66.1043 60.7843 66.5335 60.9573 66.3831 60.8537C66.3729 60.775 66.3578 60.6969 66.3379 60.6201C66.3379 60.5975 66.3269 60.5807 66.324 60.5595C67.0739 60.9887 67.9096 61.2465 68.771 61.3143C69.2688 61.4157 69.7763 61.4615 70.2842 61.4508C70.4201 61.4467 70.5531 61.4103 70.6721 61.3447C70.7912 61.2791 70.8929 61.1861 70.969 61.0734H70.9734ZM62.3477 79.7118C61.8233 79.5452 61.3143 79.3337 60.8264 79.0796C60.966 78.5631 61.0079 78.0251 60.9497 77.4933C61.5009 77.6868 62.0608 77.8539 62.6287 78.0007C62.3367 79.3672 62.3075 79.3928 62.3477 79.7118ZM63.2908 56.0371C63.5536 55.1159 65.018 55.8707 65.0903 56.5868C65.0854 56.7885 65.1279 56.9886 65.2144 57.1708C65.337 57.3446 65.4436 57.3059 65.7101 57.6234C65.9188 57.8716 66.2941 58.3191 66.4072 58.0154C66.5143 57.5786 66.4745 57.1186 66.2941 56.7066C66.3107 56.3678 66.4411 56.0445 66.6642 55.7889C67.219 54.9531 66.6474 53.8793 67.2095 53.0843C67.8271 52.3032 68.3381 52.5288 69.1644 51.7856C69.3034 51.6582 69.4051 51.4953 69.4583 51.3145C69.5116 51.1336 69.5145 50.9416 69.4667 50.7592C70.0307 51.0726 70.5481 51.4633 71.004 51.9199C71.034 51.9667 71.0632 52.0141 71.0916 52.0616H71.0821C70.8607 52.0929 70.66 52.2088 70.5222 52.385C70.3405 52.6171 70.6682 52.969 70.8872 52.8105C70.9635 52.7398 71.0564 52.6896 71.1573 52.6645C71.2456 52.6448 71.3375 52.6485 71.4238 52.6755H71.4318C71.5216 52.8522 71.6092 53.0303 71.688 53.2128C71.6386 53.1536 71.5749 53.108 71.5029 53.0804C71.431 53.0528 71.3531 53.0441 71.2768 53.055C71.2005 53.066 71.1282 53.0963 71.067 53.1431C71.0057 53.1899 70.9574 53.2516 70.9267 53.3223C70.8825 53.5054 70.8925 53.6975 70.9555 53.875C71.0184 54.0526 71.1317 54.208 71.2814 54.3224C71.3459 54.3806 71.427 54.4173 71.5133 54.4271C71.5997 54.437 71.6869 54.4195 71.7629 54.3772C71.8388 54.335 71.8996 54.27 71.9367 54.1914C71.9738 54.1128 71.9854 54.0246 71.9698 53.9391C72.4502 55.348 72.7049 57.1241 71.9749 58.3768C71.8148 58.6586 71.5959 58.9028 71.3332 59.0927C71.0705 59.2827 70.77 59.4139 70.4522 59.4776C70.4068 59.4895 70.3643 59.5103 70.3273 59.539C70.2902 59.5677 70.2593 59.6036 70.2365 59.6445C70.2136 59.6854 70.1993 59.7305 70.1943 59.7771C70.1894 59.8237 70.1939 59.8708 70.2076 59.9156C70.3405 60.3055 70.4266 60.5223 70.4996 60.7398C70.3682 60.8581 69.9353 60.8194 69.6966 60.7975C68.4755 60.7751 67.2785 60.4533 66.2108 59.8602C66.1043 59.8003 66.1678 59.9434 66.0451 59.5003C65.9756 59.1608 65.8779 58.8278 65.7531 58.5045C65.7137 58.4199 65.5699 57.957 65.2421 58.1629C64.9541 58.2051 64.6601 58.1557 64.4017 58.0215C64.1433 57.8874 63.9337 57.6753 63.8026 57.4154C63.6197 57.2385 63.4788 57.0229 63.3903 56.7844C63.3017 56.5458 63.2677 56.2905 63.2908 56.0371ZM64.5574 62.8451C64.2354 65.9612 63.4597 69.0134 62.255 71.9052C62.3594 68.3194 62.1455 66.6878 62.1718 65.2621C63.2429 64.7856 64.0949 63.9224 64.5574 62.8451ZM31.803 52.7135C31.2761 52.4349 30.7133 52.23 30.1306 52.1046C29.9149 52.0652 29.7035 52.0053 29.4992 51.9258C29.8237 51.9008 30.15 51.9354 30.462 52.028C30.5215 52.0405 30.5832 52.036 30.6402 52.0151C30.6973 51.9942 30.7473 51.9577 30.7846 51.9098C30.8218 51.8618 30.8449 51.8044 30.8511 51.744C30.8573 51.6836 30.8465 51.6226 30.8197 51.5681C30.8129 51.5197 30.7924 51.4743 30.7606 51.4373C30.7287 51.4003 30.6869 51.3732 30.6401 51.3593C30.4833 51.3121 30.3233 51.2765 30.1613 51.2527L29.4371 51.0118C29.598 50.9899 29.7618 51.0038 29.9167 51.0527C30.1823 51.1033 30.444 51.1723 30.7 51.2593C31.1271 51.4053 31.2314 50.7235 30.9073 50.6074C30.644 50.5333 30.3945 50.4169 30.1686 50.2628C30.6407 50.3171 31.0881 50.5028 31.4599 50.7987C31.5076 50.8617 31.5769 50.9049 31.6545 50.9198C31.7321 50.9348 31.8125 50.9204 31.8801 50.8796C31.9478 50.8388 31.998 50.7744 32.0209 50.6988C32.0439 50.6232 32.038 50.5417 32.0045 50.4702C31.8877 50.1934 31.7913 49.9084 31.7162 49.6175C32.0368 50.0033 32.309 50.4269 32.5265 50.879L32.106 51.974C31.9841 52.2114 31.8828 52.4588 31.803 52.7135ZM60.2635 75.9231C60.0883 76.2224 59.762 76.9757 59.481 77.0371C59.1751 77.1042 58.3013 76.5823 57.9341 76.4085C55.7374 75.3523 53.6669 74.0515 51.762 72.5308C51.4933 72.3483 51.4378 72.2738 51.4254 72.3037C52.3285 70.7789 53.1331 69.1979 53.8344 67.5704C53.8906 67.6003 53.9461 67.6332 54.0031 67.6624C54.0788 67.7008 54.1667 67.7078 54.2477 67.6819C54.3286 67.6559 54.396 67.5991 54.4352 67.5237C54.4742 67.4505 54.4826 67.3648 54.4586 67.2854C54.4345 67.206 54.3799 67.1395 54.3067 67.1003C46.3497 62.8386 40.7558 59.4638 33.1703 54.6063C32.4856 54.1683 32.1126 53.8727 32.3359 53.2193C32.5682 52.4352 32.8679 51.6727 33.2316 50.9403C33.3046 50.9527 41.0353 53.1164 41.8989 53.3683C48.2711 55.1801 52.2649 56.5131 56.2799 57.857C55.9693 58.0354 55.7046 58.284 55.5072 58.5828C55.3097 58.8817 55.1848 59.2226 55.1426 59.5784C55.1032 60.4595 55.9697 61.4683 55.3616 62.221C54.9491 62.7437 54.0476 62.659 53.5001 63.097C53.3278 63.28 53.2008 63.5009 53.1294 63.7419C53.058 63.9829 53.0442 64.2374 53.0891 64.4847C53.134 64.732 53.2363 64.9654 53.3878 65.166C53.5393 65.3666 53.7358 65.5288 53.9614 65.6396C53.9711 65.6474 53.9835 65.6511 53.9959 65.6498C54.0083 65.6485 54.0197 65.6423 54.0275 65.6326C54.0354 65.6229 54.039 65.6105 54.0377 65.5982C54.0364 65.5858 54.0303 65.5744 54.0206 65.5666C53.7527 65.2622 54.0206 64.7278 54.4046 64.5927C54.8242 64.5042 55.2611 64.5523 55.6514 64.73C57.083 65.2805 58.594 65.5967 60.1263 65.6666C60.6107 65.682 61.0944 65.6201 61.5593 65.4833C61.5498 67.7412 61.8374 69.9363 61.5929 73.3856C61.168 74.2828 60.722 75.1405 60.2635 75.9231ZM58.9561 83.3603C59.7686 83.4884 60.6005 83.3401 61.3187 82.9392C62.0369 82.5383 62.5997 81.9079 62.9171 81.1491C62.9589 81.0642 63.0321 80.9989 63.1212 80.9669C63.2103 80.935 63.3083 80.9389 63.3946 80.9778C63.4809 81.0167 63.5487 81.0876 63.5837 81.1756C63.6186 81.2635 63.6181 81.3616 63.5821 81.4492C63.1991 82.3437 62.5319 83.087 61.6837 83.5639C60.8355 84.0409 59.8537 84.2249 58.8904 84.0874C58.8425 84.0831 58.7959 84.0694 58.7532 84.047C58.7106 84.0247 58.6728 83.9942 58.6419 83.9573C58.6111 83.9203 58.5878 83.8777 58.5735 83.8317C58.5591 83.7858 58.5539 83.7375 58.5583 83.6895C58.5626 83.6416 58.5763 83.595 58.5986 83.5524C58.6209 83.5097 58.6515 83.4719 58.6884 83.4411C58.7253 83.4102 58.768 83.387 58.8139 83.3726C58.8599 83.3582 58.9082 83.3531 58.9561 83.3574V83.3603ZM38.2424 89.1456C37.8328 88.0345 37.8044 88.0958 37.8044 88.0097C38.1796 87.8586 57.007 83.5611 57.8202 83.3837C53.9447 90.1676 52.5328 98.7502 51.5795 106.516C51.1772 106.35 45.4818 104.04 42.9983 103.048C41.6186 98.4633 40.044 94.0322 38.2424 89.1456ZM22.059 95.7053C22.351 95.8075 54.041 108.201 55.09 108.744C56.0566 109.62 65.6918 132.29 72.6538 144.733C71.8312 144.255 70.9776 143.832 70.0988 143.467C68.0687 142.486 45.108 132.117 44.2758 131.683C43.8356 131.413 29.6751 106.649 22.059 95.7053ZM110.866 126.226C112.237 126.473 113.506 127.116 114.516 128.075C114.956 128.515 115.233 129.092 115.301 129.711C115.368 130.329 115.222 130.953 114.886 131.477C114.132 132.471 113.123 133.243 111.966 133.71C105.358 136.458 101.007 136.897 94.9765 140.593C92.9476 141.855 91.1998 143.52 89.8417 145.486C88.4835 147.452 87.544 149.676 87.0816 152.02C87.0469 152.304 86.985 152.585 86.8969 152.858C86.811 153.033 86.6815 153.183 86.5208 153.294C86.3601 153.405 86.1737 153.473 85.9792 153.491C80.5742 154.741 75.042 155.358 69.4944 155.328C62.5734 155.239 55.7246 153.909 49.2734 151.401V151.391L49.2683 151.371C47.5893 145.437 41.8581 142.014 37.6941 139.956C34.2631 138.261 32.544 137.847 30.7715 136.115C30.366 135.715 30.0725 135.216 29.9203 134.667C29.7681 134.118 29.7626 133.539 29.9043 132.987C30.3529 131.834 31.2191 130.891 32.3308 130.347C34.8793 128.887 38.446 128.526 41.9172 129.325C42.2566 129.896 42.5975 130.469 42.9392 131.022C43.1425 131.422 43.3927 131.796 43.6845 132.136C43.902 132.3 44.1417 132.431 44.3963 132.527C70.5244 144.399 70.328 144.236 72.9706 145.734C73.5203 146.046 73.689 146.357 74.3423 145.946C75.4621 145.242 79.6436 142.38 99.347 131.627C102.774 129.758 102.476 129.955 103.391 129.412C103.356 129.473 103.317 129.531 103.274 129.587C103.096 129.901 103.36 130.197 103.671 129.879L103.682 129.885C104.139 129.332 104.565 128.755 104.958 128.155C104.986 128.139 105.011 128.117 105.031 128.09C105.061 128.048 105.983 126.776 106.373 126.232C107.855 125.933 109.382 125.931 110.866 126.226ZM125.831 94.357C118.612 105.23 113.364 114.98 106.559 124.871C119.871 93.1533 119.528 93.9001 121.07 91.0538C126.91 93.7358 126.342 93.4423 126.415 93.5102C126.253 93.8133 126.057 94.0975 125.832 94.3578L125.831 94.357Z" fill="#3460B2"/>
</svg>
