<svg width="324" height="396" viewBox="0 0 324 396" fill="none" xmlns="http://www.w3.org/2000/svg">
<rect x="0.5" y="0.5" width="323" height="395" rx="7.5" stroke="#03607A"/>
<path d="M198.564 129.96C198.272 129.96 197.965 130.22 198.272 130.754C200.508 135.034 202.351 139.507 203.78 144.119C203.926 144.573 204.671 144.638 204.493 143.811C203.408 139.052 201.558 134.501 199.018 130.333C198.872 130.106 198.726 129.96 198.564 129.96Z" fill="#03607A"/>
<path d="M185.296 122.362C189.054 124.533 197.916 129.587 198.159 129.733C198.217 129.763 198.285 129.769 198.348 129.751C198.411 129.733 198.465 129.692 198.499 129.636C198.499 129.506 200.896 124.597 202.047 122.135C205.384 122.135 208.64 122.022 211.977 121.941C215.092 125.863 217.929 129.999 220.466 134.317C220.511 134.401 220.588 134.464 220.679 134.491C220.77 134.518 220.868 134.508 220.952 134.463C221.036 134.418 221.098 134.342 221.125 134.25C221.153 134.159 221.143 134.061 221.098 133.977C218.833 129.704 216.182 125.648 213.176 121.86C223.009 121.649 232.438 121.617 238.205 113.452C246.969 100.994 236.666 82.8501 218.976 84.8589C220.216 83.0219 221.014 80.9222 221.306 78.7249C221.598 76.5276 221.377 74.2925 220.659 72.1951C219.942 70.0978 218.748 68.1954 217.171 66.6373C215.594 65.0793 213.678 63.9081 211.572 63.2157C209.144 62.2823 206.496 62.0794 203.955 62.6321C201.413 63.1847 199.089 64.4688 197.268 66.3261C196.846 60.3321 193.444 54.7917 187.677 50.6445C178.476 44.0997 164.9 42.0747 153.058 45.5577C142.56 48.7005 132.208 56.9625 132.84 68.3997C128.141 65.2723 122.567 63.7229 116.928 63.9763C111.289 64.2298 105.877 66.2727 101.477 69.8091C98.8493 71.888 96.9004 74.7026 95.879 77.8937C94.8576 81.0849 94.81 84.5079 95.7421 87.7263C86.5243 84.3081 75.9943 87.6129 71.0857 95.5347C69.253 98.526 68.4219 102.024 68.7132 105.52C69.0046 109.016 70.4032 112.328 72.7057 114.975C78.1651 120.904 87.2857 121.714 95.4991 122.005C118.617 122.815 162.794 122.605 185.296 122.362ZM72.2521 96.2637C76.5937 89.1681 86.4757 85.1181 96.7789 89.1357C96.8223 89.1481 96.8682 89.1491 96.9121 89.1383C96.956 89.1276 96.9963 89.1056 97.029 89.0745C97.0617 89.0434 97.0858 89.0043 97.0987 88.961C97.1117 88.9178 97.1132 88.8719 97.1029 88.8279L96.9571 88.3743C96.0048 85.2437 96.0229 81.898 97.0089 78.7778C97.995 75.6577 99.9029 72.9093 102.481 70.8945C106.82 67.5036 112.118 65.5671 117.62 65.3606C123.123 65.1541 128.551 66.6881 133.132 69.7443C133.472 69.9873 133.585 70.1331 133.78 70.0359C133.974 69.9387 133.909 69.6957 133.877 69.3231C133.132 58.2585 142.917 49.9803 153.463 46.9023C171.283 41.7021 192.343 49.5105 195.858 63.8637C196.183 65.2123 196.362 66.5917 196.393 67.9785C196.393 68.1891 196.636 68.3187 196.83 68.1081C199.132 65.4685 202.373 63.8312 205.864 63.5446C209.354 63.2581 212.819 64.3448 215.521 66.5737C218.222 68.8025 219.948 71.9976 220.33 75.479C220.712 78.9605 219.72 82.4537 217.566 85.2153L217.258 85.6527C217.229 85.691 217.211 85.7372 217.208 85.7854C217.205 85.8336 217.217 85.8816 217.241 85.9234C217.265 85.9651 217.302 85.9986 217.345 86.0197C217.389 86.0407 217.437 86.0483 217.485 86.0415C234.544 83.7897 245.625 100.524 237.006 112.804C231.401 120.79 221.875 120.612 212.301 120.904C210.296 118.417 208.131 116.063 205.821 113.857C207.069 111.022 208.154 108.495 209.061 106.129C209.085 106.071 209.087 106.006 209.066 105.946C209.045 105.886 209.003 105.836 208.948 105.805C200.848 102.112 193.088 98.8557 185.928 96.0855C185.876 96.0621 185.817 96.0592 185.763 96.0772C185.709 96.0952 185.663 96.1328 185.636 96.1827C181.745 102.636 178.182 109.281 174.96 116.092C174.939 116.147 174.937 116.207 174.955 116.263C174.973 116.319 175.009 116.368 175.057 116.4C177.342 117.761 180.096 119.381 183.417 121.26C162.551 121.519 118.617 121.779 95.4343 121.001C88.9543 120.758 79.0399 120.402 73.4671 114.148C71.4374 111.66 70.2303 108.603 70.0127 105.399C69.7951 102.196 70.5776 99.0036 72.2521 96.2637ZM205.513 114.521C207.518 116.508 209.39 118.624 211.119 120.855L202.5 121.05C203.569 118.83 204.574 116.643 205.513 114.521ZM205.74 107.118L197.3 124.938L178.2 114.408C181.068 109.094 184.081 103.554 186.835 99.1149C194.011 101.95 203.213 105.903 205.74 107.118ZM241.153 250.99C237.298 250.536 233.053 255.04 229.911 259.576C234.062 249.075 236.131 237.867 236.002 226.576C235.872 222.024 235.127 213.94 231.595 210.846C226.735 206.602 221.13 214.637 217.955 220.177C220.307 212.898 221.301 205.249 220.887 197.611C220.482 191.649 218.716 182.415 212.787 182.415C208.203 182.415 204.574 187.696 202.678 191.196C201.058 186.336 194.028 166.701 190.885 159.055C185.749 146.71 182.121 143.163 169.582 145.803C164.268 146.986 143.143 153.109 137.716 154.665C122.974 158.909 109.059 162.927 102.967 167.365C100.921 168.705 99.3102 170.613 98.3319 172.854C97.3535 175.096 97.0503 177.574 97.4593 179.985C98.3827 187.065 112.299 233.04 116.673 246.924C109.172 254.7 104.425 266.833 102.724 271.71C98.5285 283.779 93.1825 306.831 104.344 325.558C110.205 335.217 119.349 342.441 130.102 345.906C129.6 347.526 128.92 349.502 128.175 351.819C128.165 351.856 128.164 351.896 128.171 351.934C128.179 351.972 128.195 352.008 128.218 352.039C128.241 352.07 128.271 352.096 128.306 352.114C128.341 352.132 128.379 352.141 128.418 352.143H129.033C129.084 352.139 129.133 352.12 129.174 352.088C129.214 352.056 129.244 352.013 129.26 351.964C130.086 349.47 130.799 347.266 131.334 345.663C131.351 345.599 131.355 345.532 131.346 345.467C131.338 345.401 131.316 345.338 131.283 345.281C131.25 345.224 131.206 345.174 131.153 345.133C131.101 345.093 131.041 345.064 130.977 345.047C120.42 341.787 111.434 334.751 105.738 325.283C97.6375 311.481 96.8923 291.619 103.939 272.131C111.375 251.67 121.014 241.999 126.36 243.36C130.977 244.494 132.516 253.404 130.605 267.822C129.596 275.05 127.904 282.167 125.55 289.076C125.513 289.172 125.508 289.276 125.534 289.375C125.56 289.474 125.617 289.562 125.696 289.627C127.316 290.939 130.119 292.867 132.014 294.228C134.02 300.125 136.462 305.865 139.32 311.4C141.945 316.033 144.763 318.933 150.757 319.062C156.314 319.208 166.488 316.389 171.817 314.899C168.51 318.496 165.881 322.662 164.058 327.195C162.276 331.974 161.579 338.988 165.499 343.022C165.594 343.117 165.722 343.17 165.856 343.17C165.989 343.17 166.118 343.117 166.212 343.022C166.307 342.928 166.36 342.799 166.36 342.666C166.36 342.532 166.307 342.404 166.212 342.309C162.875 338.535 163.734 332.055 165.483 327.729C167.543 322.941 170.27 318.469 173.583 314.445C190.933 309.585 212.544 301.89 215.703 300.578C221.082 298.375 225.715 296.091 227.869 290.615C230.623 283.6 226.249 272.487 225.731 268.551C228.534 263.35 235.548 251.573 240.91 252.221C246.613 252.918 245.77 266.299 245.544 268.956C243.227 293.871 227.724 322.286 195.324 343.476C193.428 344.707 193.266 344.836 193.299 345.096C193.623 347.526 193.963 349.956 194.287 351.997C194.295 352.056 194.324 352.109 194.368 352.148C194.413 352.187 194.471 352.208 194.53 352.207H195.275C195.31 352.208 195.344 352.201 195.376 352.186C195.408 352.172 195.436 352.151 195.459 352.125C195.482 352.099 195.5 352.068 195.51 352.035C195.52 352.002 195.523 351.967 195.518 351.932C195.307 350.118 195.032 347.947 194.692 345.339C209.871 336.461 229.765 318.447 240.246 294.406C243.769 286.369 245.958 277.811 246.726 269.069C247.212 264.97 247.763 251.751 241.153 250.99ZM169.679 146.824C184.777 143.584 186.365 149.157 194.935 172.468C211.605 217.828 225.261 269.28 227.173 279.388C230.089 294.746 221.519 297.646 205.951 302.895C199.276 305.146 188.908 308.84 174.539 312.971C144.18 321.654 143.208 320.698 133.488 294.697C131.593 289.627 130.151 285.674 128.823 281.851C130.071 277.448 131.056 272.974 131.771 268.453C133.958 275.614 143.208 306.718 149.154 309.958C152.296 311.707 156.881 310.541 160.575 309.601C167.557 307.836 215.995 294.082 219.786 288.736C220.408 287.843 220.767 286.793 220.822 285.706C221.244 277.93 207.603 232.327 204.347 222.721L208.964 220.793C209.021 220.768 209.066 220.722 209.09 220.665C209.114 220.608 209.115 220.543 209.094 220.485C201.982 200.089 195.826 182.124 186.738 161.533C186.713 161.477 186.667 161.432 186.609 161.407C186.552 161.383 186.488 161.382 186.43 161.404C169.566 167.754 139.563 178.722 122.926 185.704C122.472 185.898 122.748 185.331 129.6 203.799C125.955 205.419 120.998 207.995 118.26 209.388C118.171 209.437 118.103 209.517 118.07 209.613C118.037 209.709 118.041 209.814 118.082 209.907C128.142 231.858 131.982 241.918 143.16 262.006C143.257 262.2 143.5 262.314 143.856 262.184C151.179 259.641 167.784 251.573 171.396 249.872C182.623 244.623 190.836 239.553 198.126 235.713C198.181 235.676 198.225 235.625 198.253 235.565C198.282 235.505 198.294 235.439 198.288 235.373C198.304 235.326 198.304 235.275 198.288 235.227C197.494 233.121 195.874 229.152 194.627 226.706L203.375 223.045C205.773 231.145 220.045 277.963 219.575 285.609C219.529 286.503 219.238 287.366 218.733 288.104C215.298 292.964 165.03 307.398 160.056 308.646C156.638 309.488 152.394 310.573 149.591 309.018C144.861 306.41 138.154 285.318 133.261 269.928C132.808 268.486 132.354 267.109 131.933 265.78C133.035 256.984 133.099 240.476 124.351 241.918C119.07 222.834 107.714 187.453 106.629 179.37C106.376 178.264 106.5 177.105 106.981 176.077C107.463 175.05 108.274 174.213 109.285 173.7C116.754 168.613 167.087 153.676 173.907 153.401C177.358 153.239 178.67 154.616 180.63 158.601C181.91 161.258 181.732 161.29 182.072 161.436C182.412 161.582 182.963 161.258 182.655 160.578C182.347 159.897 182.121 159.444 181.521 158.164C179.788 154.503 178.508 152.267 174.134 152.445C170.408 152.575 152.572 157.305 150.012 158.067C142.009 160.286 114.372 168.953 108.702 172.841C107.524 173.464 106.581 174.455 106.017 175.662C105.452 176.87 105.298 178.228 105.576 179.532C106.71 188.409 120.739 233.51 123.509 242.209C121.225 243.036 119.163 244.377 117.483 246.13C115.863 240.832 99.3547 185.347 98.5933 179.856C98.1445 177.641 98.3673 175.343 99.2332 173.257C100.099 171.17 101.569 169.389 103.453 168.143C111.942 161.971 165.435 147.78 169.679 146.824ZM185.749 198.664C185.7 198.705 185.661 198.757 185.635 198.816C185.61 198.876 185.599 198.94 185.604 199.004L185.766 200.251L185.312 199.441C185.182 199.231 185.037 199.231 184.81 199.279C184.095 199.495 183.339 199.539 182.604 199.406C181.869 199.274 181.176 198.97 180.582 198.518L179.901 196.38C180.923 196.471 181.95 196.284 182.874 195.839C183.798 195.394 184.584 194.708 185.15 193.852L186.478 195.732C186.632 196.233 186.645 196.767 186.517 197.275C186.388 197.784 186.123 198.247 185.749 198.615V198.664ZM184.421 202.941C183.288 203.108 182.133 202.848 181.181 202.212C180.795 201.838 180.519 201.365 180.385 200.845C180.25 200.324 180.262 199.777 180.42 199.263C181.566 200.063 182.971 200.404 184.356 200.219C184.21 201.095 184.232 201.992 184.421 202.86V202.941ZM173.437 191.795C173.383 191.857 173.308 191.897 173.227 191.908C173.026 191.906 172.828 191.858 172.649 191.768C172.469 191.679 172.312 191.549 172.19 191.39C171.992 191.201 171.846 190.966 171.763 190.705C171.681 190.445 171.666 190.168 171.72 189.9C171.866 189.608 172.19 189.657 172.498 189.802C172.756 190.476 173.07 191.126 173.437 191.746V191.795ZM177.876 178.722C182.234 178.722 185.83 183.889 185.782 188.895C185.308 188.08 184.553 187.465 183.658 187.167C182.763 186.868 181.79 186.907 180.922 187.275C180.985 187.107 181.034 186.934 181.068 186.757C181.095 186.671 181.088 186.577 181.047 186.497C181.006 186.416 180.935 186.355 180.849 186.328C180.763 186.3 180.669 186.307 180.589 186.348C180.508 186.389 180.447 186.46 180.42 186.546C180.34 186.757 180.237 186.958 180.112 187.146C180.036 187.279 179.915 187.382 179.772 187.437C179.529 187.518 179.205 187.243 179.01 186.967C178.504 186.176 178.168 185.288 178.022 184.359C178.005 184.284 177.963 184.216 177.903 184.168C177.842 184.119 177.767 184.093 177.69 184.093C177.612 184.093 177.537 184.119 177.477 184.168C177.417 184.216 177.375 184.284 177.358 184.359C177.358 185.671 177.925 187.599 179.091 188.101C176.402 189.835 175.851 192.006 176.596 194.014C170.1 188.717 172.06 178.56 177.876 178.673V178.722ZM182.266 189.041C182.577 189.019 182.888 189.067 183.178 189.18C183.468 189.293 183.729 189.469 183.943 189.695C184.157 189.922 184.318 190.192 184.415 190.488C184.511 190.784 184.541 191.098 184.502 191.406C184.291 194.095 180.582 195.926 178.994 194.063C177.406 192.2 179.593 188.992 182.266 188.992V189.041ZM185.685 184.181C185.74 183.999 185.854 183.839 186.009 183.727C186.559 183.452 186.932 184.408 186.964 185.04C186.997 185.671 186.77 186.206 186.3 186.174C186.151 185.499 185.945 184.838 185.685 184.197V184.181ZM187.224 195.861C188.844 196.039 189.783 198.259 188.341 200.916C188.094 200.022 187.515 199.257 186.721 198.777C186.998 198.354 187.186 197.878 187.272 197.379C187.359 196.881 187.342 196.37 187.224 195.877V195.861ZM173.178 202.033C170.586 199.927 167.832 200.041 166.844 198.923C166.739 198.772 166.672 198.597 166.649 198.414C166.627 198.231 166.649 198.045 166.715 197.873C166.78 197.701 166.887 197.547 167.025 197.425C167.163 197.303 167.329 197.217 167.508 197.173C169.044 196.703 170.685 196.7 172.222 197.164C173.76 197.629 175.124 198.54 176.143 199.782C177.357 201.204 178.272 202.857 178.832 204.642C179.374 206.343 179.733 208.097 179.901 209.874L176.661 211.689C176.945 209.919 176.774 208.105 176.165 206.419C175.556 204.733 174.528 203.23 173.178 202.05V202.033ZM173.713 214.767C173.64 214.823 173.592 214.905 173.58 214.996C173.568 215.087 173.592 215.18 173.648 215.253C173.704 215.326 173.786 215.374 173.878 215.386C173.969 215.398 174.061 215.373 174.134 215.317C174.523 215.031 174.876 214.699 175.187 214.329C175.641 215.074 176.37 216.192 176.807 216.84C176.694 219.886 172.725 221.133 170.683 219.465C170.538 218.768 170.197 217.569 169.906 216.694H170.878C170.957 216.677 171.029 216.633 171.08 216.57C171.131 216.507 171.159 216.428 171.159 216.346C171.159 216.265 171.131 216.186 171.08 216.122C171.029 216.059 170.957 216.015 170.878 215.998C169.938 216.093 168.989 215.973 168.102 215.647C167.215 215.322 166.414 214.799 165.759 214.119C163.831 211.948 163.928 207.914 164.884 205.16C165.045 205.146 165.208 205.146 165.37 205.16C165.464 205.181 165.563 205.167 165.648 205.122C165.733 205.076 165.799 205.002 165.834 204.912C165.869 204.822 165.871 204.723 165.84 204.632C165.808 204.54 165.745 204.464 165.661 204.415C165.512 204.339 165.354 204.279 165.192 204.237C165.773 202.919 166.271 201.567 166.682 200.187C166.763 199.765 166.682 199.765 166.893 199.927C168.253 200.867 172.222 200.883 174.474 204.69C176.467 208.044 176.58 212.272 173.713 214.783V214.767ZM165.904 200.057C165.435 201.677 164.949 202.487 164.284 204.253C163.992 204.32 163.72 204.456 163.491 204.651C163.263 204.846 163.085 205.092 162.972 205.371C162.921 205.465 162.909 205.576 162.939 205.68C162.969 205.783 163.04 205.87 163.134 205.921C163.229 205.973 163.34 205.985 163.443 205.955C163.546 205.924 163.633 205.854 163.685 205.759C163.724 205.683 163.773 205.612 163.831 205.549C163.198 207.586 163.114 209.754 163.588 211.834C163.811 212.815 164.272 213.725 164.93 214.485C165.588 215.245 166.424 215.832 167.362 216.192L164.544 217.391C161.628 214.426 159.019 208.724 159.684 204.431C160.251 201.045 163.183 198.518 164.949 198.372C165.856 198.291 166.099 199.263 165.904 200.073V200.057ZM152.718 208.157C153.244 209.643 154.029 211.025 155.034 212.239C154.516 215.479 151.584 216.808 148.392 215.139C148.099 213.509 147.552 211.935 146.772 210.474C146.745 210.425 146.707 210.383 146.663 210.349C146.618 210.316 146.567 210.292 146.513 210.279C145.687 210.133 142.852 209.129 140.908 202.86C138.478 194.986 144.763 196.007 146.416 193.399C147.939 195.213 151.065 195.343 152.329 198.988C153.352 201.845 153.488 204.946 152.718 207.882C152.689 207.966 152.689 208.057 152.718 208.141V208.157ZM148.149 215.739C151.503 217.78 155.293 216.241 155.747 212.499L157.367 212.385C157.314 213.542 156.942 214.661 156.292 215.619C155.642 216.577 154.739 217.336 153.684 217.813C152.629 218.289 151.462 218.464 150.314 218.318C149.165 218.172 148.08 217.711 147.177 216.986C147.523 216.583 147.848 216.161 148.149 215.722V215.739ZM187.029 195.084L185.604 193.14C186.523 191.244 186.824 189.108 186.462 187.032C187.337 187.032 187.839 185.898 187.774 185.04C187.677 183.582 186.705 182.496 185.62 183.063L185.247 181.994C186.3 181.152 186.333 179.208 184.988 178.851C185.27 178.464 185.424 177.998 185.427 177.519C185.43 177.04 185.282 176.572 185.005 176.181C184.727 175.79 184.333 175.497 183.88 175.343C183.426 175.188 182.935 175.18 182.477 175.32C182.437 174.751 182.205 174.212 181.82 173.792C181.435 173.371 180.918 173.093 180.355 173.003C179.792 172.913 179.215 173.016 178.718 173.296C178.221 173.575 177.833 174.014 177.617 174.542C177.384 174.289 177.087 174.103 176.757 174.006C176.427 173.909 176.077 173.903 175.744 173.989C175.411 174.076 175.108 174.252 174.867 174.497C174.626 174.743 174.457 175.05 174.377 175.384C172.449 173.505 169.08 175.741 169.938 178.527C166.876 178.381 165.953 183.16 168.756 184.44C168.484 184.8 168.327 185.233 168.305 185.683C168.284 186.133 168.399 186.579 168.635 186.962C168.872 187.346 169.218 187.649 169.63 187.832C170.042 188.015 170.499 188.07 170.943 187.988L171.526 189.09C169.906 189.802 171.348 192.913 173.146 192.751C173.362 192.719 173.567 192.635 173.745 192.508C174.931 194.368 176.758 195.729 178.881 196.331L179.593 198.55C178.816 199.036 178.071 199.555 177.342 200.17C173.308 194.792 166.423 195.521 165.775 197.967C165.363 197.803 164.917 197.742 164.477 197.79C164.036 197.838 163.614 197.993 163.248 198.243C162.142 198.862 161.18 199.707 160.423 200.723C159.667 201.739 159.133 202.903 158.857 204.139C157.11 202.583 156.011 200.426 155.779 198.097C155.472 194.031 154.807 189.592 150.806 188.62C150.043 188.479 149.26 188.497 148.504 188.672C147.749 188.848 147.038 189.178 146.416 189.64C144.841 188.918 143.061 188.774 141.39 189.233C139.719 189.693 138.264 190.726 137.279 192.151C134.606 195.505 135.043 199.506 138.624 204.382C141.394 208.173 138.089 214.653 143.986 218.768C143.338 219.351 142.657 219.967 141.928 220.728C139.596 214.815 131.609 193.788 129.746 189.009C148.003 181.476 164.932 175.32 183.514 168.516C187.58 177.539 191.128 186.028 194.352 194.436C191.874 194.396 189.399 194.608 186.964 195.067L187.029 195.084ZM142.479 221.392C143.986 219.772 145.347 218.736 146.643 217.488C147.634 218.381 148.864 218.965 150.182 219.168C151.501 219.372 152.85 219.186 154.064 218.634C155.279 218.082 156.305 217.187 157.019 216.06C157.732 214.933 158.101 213.622 158.08 212.288L160.202 212.126C161.111 214.437 162.453 216.554 164.155 218.363C164.235 218.413 164.327 218.44 164.422 218.44C164.517 218.44 164.609 218.413 164.689 218.363L168.48 216.63C168.523 216.641 168.567 216.641 168.61 216.63H169.128C169.274 217.261 169.533 218.25 169.89 219.27C165.03 221.927 162.843 225.459 163.296 230.043C163.298 230.083 163.31 230.121 163.33 230.155C163.35 230.189 163.377 230.217 163.411 230.238C163.444 230.259 163.482 230.271 163.522 230.274C163.561 230.276 163.6 230.27 163.636 230.254C170.019 227.613 189.848 219.627 190.383 219.432C190.561 219.432 190.609 219.254 190.48 219.108C187.353 215.285 183.433 214.378 177.374 216.063C176.969 215.366 176.321 214.362 175.754 213.633C175.91 213.388 176.051 213.134 176.175 212.871L180.679 210.603C180.765 210.556 180.835 210.485 180.881 210.399C180.927 210.313 180.947 210.215 180.938 210.117C180.707 206.782 179.685 203.551 177.957 200.689C178.524 200.251 179.107 199.846 179.691 199.458C179.091 202.698 181.829 204.172 185.02 203.637C185.072 203.626 185.121 203.604 185.164 203.573C185.208 203.542 185.244 203.503 185.271 203.457C185.299 203.412 185.316 203.361 185.323 203.309C185.33 203.256 185.326 203.202 185.312 203.151C185.065 202.294 184.993 201.396 185.101 200.511L186.041 201.888C186.078 201.947 186.134 201.991 186.199 202.014C186.264 202.037 186.336 202.038 186.402 202.015C186.467 201.993 186.523 201.949 186.561 201.89C186.598 201.832 186.615 201.762 186.608 201.693L186.462 199.62C187.192 200.161 187.699 200.95 187.888 201.839C187.901 201.896 187.93 201.948 187.971 201.989C188.012 202.031 188.063 202.061 188.12 202.076C188.176 202.091 188.236 202.09 188.292 202.074C188.348 202.058 188.399 202.027 188.439 201.985C190.431 199.895 190.204 196.671 188.552 195.586C190.612 195.236 192.7 195.078 194.789 195.116C197.916 203.216 200.394 210.214 202.371 216.176C189.411 221.23 149.024 237.366 149.024 237.366C146.675 231.987 144.488 226.641 142.382 221.36L142.479 221.392ZM146.464 245.692C146.489 245.749 146.535 245.794 146.592 245.819C146.65 245.843 146.714 245.844 146.772 245.822C159.505 241.302 179.448 233.186 194.028 227.143C194.789 229.217 196.765 233.818 197.413 235.243C187.531 240.298 172.806 248.365 143.953 261.325C130.588 235.26 128.369 228.78 119.07 209.955C119.07 209.955 128.547 205.338 129.94 204.625C135.124 218.363 140.292 232.133 146.4 245.611L146.464 245.692ZM214.699 228.78C217.712 222.3 225.488 206.974 230.769 211.721C234.009 214.621 234.544 223.061 234.609 226.544C234.68 240.508 231.513 254.299 225.358 266.833C224.176 262.281 220.401 247.863 214.699 228.78ZM214.197 227.079C210.957 216.289 206.761 203.038 203.1 192.362C205.773 187.988 209.013 183.549 212.82 183.549C217.923 183.549 219.381 192.54 219.656 197.627C219.994 207.75 218.132 217.826 214.197 227.16V227.079ZM131.22 292.203C130.038 291.312 128.126 289.902 126.603 288.882C127.235 287.051 127.77 285.269 128.223 283.552C129.26 286.419 130.2 289.189 131.22 292.203Z" fill="#03607A"/>
<path d="M167.249 270.9L170.294 272.617C170.386 272.669 170.486 272.702 170.59 272.714C170.695 272.727 170.8 272.718 170.901 272.69C171.002 272.661 171.096 272.613 171.178 272.548C171.261 272.482 171.329 272.401 171.38 272.31L173.243 268.794L177.471 281.754C177.53 281.935 177.645 282.092 177.799 282.203C177.954 282.314 178.139 282.372 178.329 282.37C179.617 282.081 180.875 281.675 182.088 281.155C182.315 281.077 182.503 280.913 182.609 280.697C182.716 280.481 182.732 280.232 182.655 280.005L178.329 267.514L181.1 268.843C181.286 268.93 181.498 268.944 181.693 268.881C181.889 268.817 182.053 268.682 182.153 268.503L183.935 265.263C183.985 265.169 184.016 265.067 184.026 264.961C184.036 264.856 184.025 264.749 183.994 264.648C183.962 264.547 183.91 264.453 183.842 264.372C183.773 264.291 183.689 264.225 183.594 264.177L173.34 259.285C173.09 259.167 172.804 259.152 172.544 259.243C172.283 259.334 172.069 259.523 171.947 259.771L166.86 269.799C166.811 269.896 166.782 270.002 166.775 270.111C166.768 270.22 166.783 270.329 166.82 270.432C166.856 270.535 166.913 270.63 166.986 270.71C167.06 270.79 167.149 270.855 167.249 270.9Z" fill="#03607A"/>
<path d="M163.62 296.383C163.712 296.644 163.902 296.859 164.15 296.983C164.398 297.107 164.684 297.13 164.949 297.047L202.419 285.075C202.683 284.989 202.903 284.805 203.033 284.56C203.163 284.315 203.192 284.029 203.116 283.763L199.26 271.111C199.221 270.978 199.156 270.853 199.069 270.745C198.982 270.637 198.874 270.548 198.752 270.482C198.63 270.415 198.497 270.374 198.359 270.359C198.22 270.345 198.081 270.358 197.948 270.398L194.789 271.338C194.654 271.376 194.528 271.442 194.419 271.53C194.31 271.619 194.219 271.728 194.153 271.852C194.086 271.975 194.045 272.111 194.032 272.251C194.019 272.391 194.034 272.532 194.076 272.666L196.458 280.669C196.498 280.815 196.48 280.971 196.408 281.104C196.335 281.237 196.214 281.337 196.069 281.382L167.832 290.421C167.686 290.467 167.528 290.454 167.391 290.384C167.255 290.315 167.151 290.194 167.103 290.049L164.203 281.511C164.16 281.379 164.09 281.256 163.998 281.151C163.907 281.046 163.795 280.96 163.67 280.898C163.545 280.836 163.409 280.8 163.27 280.791C163.13 280.782 162.991 280.801 162.859 280.847L159.732 281.9C159.467 281.992 159.249 282.185 159.125 282.436C159.001 282.688 158.98 282.978 159.068 283.245L163.62 296.383ZM170.1 208.951C170.177 208.917 170.24 208.856 170.276 208.78C170.313 208.704 170.321 208.617 170.3 208.536C170.279 208.454 170.229 208.382 170.16 208.334C170.09 208.285 170.006 208.263 169.922 208.271C169.661 208.329 169.39 208.329 169.128 208.271C168.788 208.158 169.015 207.801 169.258 207.477C169.289 207.448 169.314 207.413 169.332 207.374C169.349 207.335 169.358 207.293 169.358 207.25C169.358 207.208 169.349 207.166 169.332 207.127C169.314 207.087 169.289 207.052 169.258 207.024C169.112 206.91 168.869 207.024 168.642 207.137C168.513 207.221 168.402 207.331 168.317 207.46C168.233 207.589 168.176 207.734 168.15 207.887C168.124 208.039 168.13 208.195 168.167 208.345C168.205 208.494 168.273 208.635 168.367 208.757C168.601 208.963 168.893 209.092 169.203 209.127C169.513 209.162 169.826 209.1 170.1 208.951ZM171.364 209.211C171.329 209.484 171.228 209.745 171.07 209.97C170.912 210.196 170.702 210.38 170.457 210.507C169.937 210.716 169.356 210.716 168.837 210.507C168.742 210.455 168.631 210.443 168.528 210.474C168.424 210.504 168.337 210.574 168.286 210.669C168.234 210.763 168.222 210.874 168.253 210.978C168.283 211.081 168.353 211.168 168.448 211.219C168.861 211.485 169.342 211.627 169.833 211.627C170.324 211.627 170.805 211.485 171.218 211.219C171.555 211.011 171.828 210.712 172.005 210.357C172.183 210.003 172.258 209.606 172.222 209.211C172.222 209.097 172.177 208.988 172.097 208.907C172.016 208.827 171.907 208.781 171.793 208.781C171.679 208.781 171.57 208.827 171.49 208.907C171.409 208.988 171.364 209.097 171.364 209.211ZM170.602 204.172C169.89 204.464 170.327 205.792 171.088 205.792C171.197 205.793 171.303 205.761 171.392 205.7C171.482 205.64 171.551 205.553 171.591 205.452C171.866 204.885 171.202 203.929 170.602 204.172ZM166.358 206.473C165.775 206.052 165.192 206.651 165.516 207.461C165.694 207.866 166.099 208.206 166.471 208.044C166.844 207.882 166.86 206.845 166.358 206.473ZM169.242 203.152C169.398 202.878 169.644 202.667 169.938 202.552C170.251 202.464 170.582 202.464 170.894 202.552C170.99 202.582 171.094 202.574 171.185 202.531C171.276 202.488 171.348 202.413 171.386 202.32C171.425 202.226 171.427 202.122 171.393 202.028C171.359 201.933 171.291 201.854 171.202 201.807C170.971 201.674 170.714 201.593 170.448 201.568C170.183 201.543 169.915 201.576 169.663 201.663C169.411 201.751 169.181 201.891 168.988 202.076C168.795 202.26 168.644 202.483 168.545 202.731C168.489 202.823 168.472 202.934 168.498 203.039C168.524 203.143 168.59 203.234 168.683 203.289C168.775 203.345 168.886 203.362 168.991 203.336C169.096 203.311 169.186 203.244 169.242 203.152ZM150.498 204.837C150.077 204.723 150.077 205.193 149.461 205.679C149.122 205.95 148.706 206.107 148.273 206.127C147.839 206.148 147.41 206.03 147.048 205.792C146.966 205.721 146.86 205.686 146.752 205.694C146.644 205.701 146.543 205.751 146.473 205.833C146.402 205.915 146.366 206.021 146.374 206.129C146.381 206.237 146.431 206.337 146.513 206.408C146.826 206.725 147.215 206.955 147.644 207.075C148.072 207.196 148.525 207.202 148.957 207.094C149.388 206.986 149.785 206.768 150.106 206.46C150.428 206.152 150.663 205.766 150.79 205.339C150.804 205.287 150.808 205.232 150.802 205.178C150.795 205.125 150.777 205.073 150.75 205.026C150.723 204.979 150.687 204.938 150.643 204.906C150.6 204.873 150.551 204.85 150.498 204.837ZM148.36 204.189C148.449 204.141 148.517 204.063 148.551 203.968C148.585 203.873 148.583 203.769 148.544 203.676C148.506 203.583 148.434 203.508 148.343 203.465C148.252 203.422 148.148 203.414 148.052 203.443C147.242 203.832 146.934 202.066 146.934 201.175C146.946 201.117 146.945 201.056 146.93 200.998C146.916 200.939 146.889 200.885 146.851 200.838C146.813 200.792 146.765 200.755 146.711 200.729C146.657 200.703 146.597 200.69 146.537 200.69C146.477 200.69 146.418 200.703 146.364 200.729C146.31 200.755 146.262 200.792 146.224 200.838C146.186 200.885 146.159 200.939 146.144 200.998C146.13 201.056 146.128 201.117 146.14 201.175C146.14 202.86 146.788 204.788 148.36 204.189ZM144.65 198.438C144.65 198.033 144.018 197.887 143.646 197.919C143.256 197.989 142.9 198.186 142.633 198.479C142.367 198.772 142.204 199.144 142.171 199.539C142.165 199.596 142.17 199.654 142.187 199.709C142.204 199.764 142.233 199.815 142.271 199.858C142.31 199.9 142.357 199.935 142.409 199.958C142.462 199.981 142.519 199.993 142.576 199.993C143.127 199.993 143.143 198.826 144.196 198.826C144.504 198.859 144.666 198.664 144.65 198.438ZM146.788 197.174C147.112 197.174 147.777 196.607 148.732 197.044C148.832 197.089 148.944 197.094 149.047 197.058C149.15 197.022 149.234 196.947 149.283 196.85C149.559 196.218 147.874 195.23 146.513 196.477C146.455 196.533 146.415 196.605 146.398 196.683C146.381 196.762 146.388 196.843 146.417 196.918C146.447 196.993 146.498 197.057 146.564 197.102C146.63 197.148 146.708 197.173 146.788 197.174ZM144.52 201.111C143.743 201.499 144.52 203.152 145.347 202.731C146.173 202.309 145.298 200.738 144.52 201.111ZM148.084 199.231C147.323 199.604 148.084 201.273 148.911 200.851C149.737 200.43 148.878 198.843 148.084 199.231ZM179.512 191.698C180.49 191.66 181.432 191.314 182.202 190.71C182.526 192.152 182.007 193.043 181.149 193.399C181.083 193.431 181.031 193.483 180.999 193.548C180.967 193.613 180.957 193.687 180.972 193.758C180.987 193.829 181.026 193.893 181.081 193.939C181.136 193.986 181.206 194.012 181.278 194.015C181.747 193.937 182.175 193.703 182.493 193.351C182.884 192.835 183.124 192.221 183.184 191.577C183.244 190.933 183.122 190.285 182.833 189.706C182.787 189.601 182.703 189.518 182.598 189.473C182.492 189.428 182.374 189.424 182.266 189.463C181.469 190.228 180.495 190.785 179.431 191.083C179.35 191.094 179.276 191.136 179.226 191.202C179.176 191.267 179.153 191.349 179.164 191.431C179.175 191.513 179.218 191.587 179.283 191.637C179.348 191.687 179.431 191.709 179.512 191.698ZM181.213 183.193C181.051 183.185 180.889 183.226 180.751 183.312C180.613 183.398 180.504 183.525 180.44 183.675C180.377 183.825 180.36 183.991 180.394 184.15C180.428 184.309 180.51 184.455 180.629 184.566C180.748 184.677 180.898 184.749 181.059 184.772C181.221 184.795 181.385 184.768 181.53 184.694C181.676 184.62 181.795 184.503 181.871 184.359C181.948 184.216 181.978 184.052 181.959 183.89C181.946 183.701 181.862 183.524 181.724 183.394C181.585 183.265 181.403 183.193 181.213 183.193ZM176.434 186.061C176.463 185.934 176.461 185.803 176.427 185.678C176.393 185.553 176.329 185.438 176.241 185.343C176.152 185.248 176.042 185.177 175.92 185.134C175.797 185.092 175.666 185.08 175.538 185.1C175.41 185.12 175.289 185.171 175.185 185.249C175.082 185.326 174.998 185.428 174.943 185.545C174.887 185.662 174.862 185.791 174.867 185.921C174.873 186.05 174.911 186.176 174.976 186.288C175.051 186.433 175.17 186.551 175.315 186.625C175.461 186.699 175.626 186.725 175.787 186.7C175.948 186.675 176.098 186.599 176.214 186.485C176.33 186.37 176.407 186.222 176.434 186.061ZM181.44 181.055C181.513 181.028 181.58 180.987 181.636 180.934C181.692 180.88 181.737 180.816 181.767 180.744C181.798 180.673 181.813 180.596 181.812 180.519C181.812 180.441 181.796 180.365 181.764 180.294C181.537 179.565 180.144 179.532 179.399 179.921C179.043 180.099 178.783 180.358 178.8 180.699C178.816 181.039 179.156 181.298 179.577 181.314C180.209 181.342 180.84 181.255 181.44 181.055ZM176.58 182.983C176.58 182.545 176.208 182.108 175.381 182.319C174.97 182.419 174.594 182.632 174.296 182.934C173.583 183.647 173.972 184.376 174.539 184.376C175.106 184.376 176.402 183.566 176.58 182.983ZM255.264 159.396C250.128 151.976 238.902 135.873 233.102 128.988C233.059 128.953 233.004 128.933 232.948 128.933C232.892 128.933 232.838 128.953 232.794 128.988L199.406 148.477C199.317 148.534 199.253 148.623 199.229 148.726C199.205 148.829 199.222 148.937 199.276 149.028C206.307 160.238 215.363 172.291 223.155 183.048C223.184 183.091 223.222 183.128 223.266 183.156C223.31 183.185 223.359 183.204 223.41 183.213C223.461 183.222 223.514 183.221 223.565 183.209C223.616 183.197 223.664 183.175 223.706 183.145C233.426 176.276 242.044 170.185 255.183 159.979C255.228 159.947 255.265 159.906 255.294 159.859C255.323 159.812 255.341 159.759 255.349 159.705C255.356 159.65 255.353 159.594 255.338 159.541C255.323 159.488 255.298 159.439 255.264 159.396ZM228.501 147.197C228.454 147.153 228.396 147.122 228.333 147.106C228.271 147.091 228.205 147.093 228.143 147.111C228.081 147.129 228.024 147.163 227.979 147.209C227.934 147.255 227.902 147.313 227.886 147.375C227.822 147.873 227.566 148.326 227.173 148.639C226.606 148.898 226.071 148.088 225.763 148.039C225.669 148.025 225.573 148.047 225.495 148.101C225.416 148.156 225.362 148.238 225.342 148.331C225.148 149.514 224.5 150.761 223.56 150.874C222.621 150.988 222.459 150.583 222.216 150.745C222.168 150.769 222.128 150.806 222.1 150.852C222.072 150.898 222.058 150.95 222.058 151.004C222.058 151.058 222.072 151.11 222.1 151.156C222.128 151.201 222.168 151.239 222.216 151.263C223.706 152.041 225.342 151.377 225.925 149.028C226.129 149.216 226.383 149.34 226.656 149.386C226.93 149.433 227.21 149.398 227.464 149.287C227.898 149.043 228.222 148.643 228.372 148.169C229.973 150.097 230.915 152.487 231.061 154.989C231.567 156.144 232.262 157.206 233.118 158.132C232.713 159.752 231.936 160.627 229.246 160.578C228.92 159.554 228.457 158.578 227.869 157.678C227.497 157.111 224.905 157.873 222.07 151.911C222.034 151.837 221.972 151.779 221.895 151.749C221.818 151.719 221.732 151.72 221.656 151.751C221.579 151.782 221.518 151.841 221.483 151.916C221.449 151.991 221.444 152.076 221.47 152.154C221.74 152.877 222.06 153.581 222.426 154.26C220.417 154.957 218.457 152.106 221.292 150.68C221.357 150.659 221.413 150.617 221.454 150.562C221.494 150.507 221.515 150.44 221.515 150.372C221.515 150.304 221.494 150.237 221.454 150.182C221.413 150.127 221.357 150.086 221.292 150.064C218.311 149.352 217.858 147.035 219.559 144.961C221.26 142.888 223.414 143.017 225.213 145.658C225.241 145.709 225.282 145.751 225.332 145.78C225.381 145.81 225.438 145.825 225.496 145.825C225.554 145.825 225.611 145.81 225.661 145.78C225.711 145.751 225.752 145.709 225.78 145.658C225.966 145.251 226.276 144.914 226.666 144.696C227.057 144.477 227.506 144.389 227.95 144.443C228.955 144.589 229.036 145.383 229.052 146.176V146.468C229.052 147.035 230.008 146.468 230.413 147.748C230.496 148.021 230.515 148.309 230.467 148.59C230.419 148.872 230.306 149.138 230.137 149.368C229.687 148.578 229.137 147.848 228.501 147.197ZM225.261 167.982C225.974 165.45 227.285 163.128 229.084 161.21C230.113 161.437 231.188 161.323 232.146 160.886C232.615 160.616 233.009 160.233 233.292 159.772C233.575 159.311 233.738 158.786 233.766 158.245C235.849 157.248 238.136 156.751 240.445 156.793C242.754 156.835 245.021 157.416 247.066 158.488C241.202 162.83 231.466 169.683 225.439 173.911C224.773 171.997 224.728 169.922 225.31 167.982H225.261ZM247.65 158.051C245.516 156.826 243.115 156.141 240.657 156.053C238.198 155.966 235.755 156.479 233.539 157.549C232.901 156.688 232.306 155.796 231.757 154.876C231.714 153.047 231.225 151.256 230.332 149.659C230.669 149.403 230.919 149.05 231.049 148.648C231.179 148.245 231.184 147.812 231.061 147.408C231.001 147.052 230.834 146.723 230.582 146.466C230.33 146.208 230.005 146.034 229.651 145.966C229.751 145.416 229.643 144.849 229.348 144.374C229.053 143.9 228.592 143.552 228.054 143.399C227.517 143.245 226.942 143.297 226.441 143.544C225.94 143.791 225.548 144.215 225.342 144.735C220.92 138.611 213.84 148.331 220.239 150.405C219.693 150.721 219.288 151.235 219.107 151.84C218.926 152.445 218.983 153.096 219.267 153.661C219.55 154.225 220.038 154.66 220.631 154.877C221.225 155.094 221.878 155.076 222.459 154.827C222.541 154.806 222.619 154.767 222.685 154.714C223.15 155.599 223.805 156.371 224.603 156.973C225.402 157.575 226.323 157.993 227.302 158.197C227.74 159.039 228.145 159.817 228.501 160.789C224.856 164.693 222.88 169.472 224.84 174.348L222.912 175.725C221.292 173.311 216.772 167.787 204.282 149.643C213.775 143.455 223.998 137.266 231.725 133.054C238.772 141.559 246.694 153.223 249.156 156.917L247.65 158.051ZM196.263 111.622C196.793 111.661 197.322 111.539 197.781 111.273C198.241 111.007 198.609 110.609 198.839 110.13C199.068 109.651 199.148 109.114 199.068 108.59C198.988 108.065 198.751 107.576 198.389 107.188C198.027 106.799 197.557 106.529 197.039 106.412C196.521 106.296 195.98 106.338 195.486 106.533C194.992 106.728 194.569 107.068 194.271 107.508C193.973 107.947 193.815 108.466 193.817 108.997C193.795 109.669 194.04 110.323 194.499 110.814C194.957 111.306 195.591 111.596 196.263 111.622ZM196.263 107.167C196.635 107.121 197.013 107.189 197.345 107.363C197.678 107.536 197.949 107.807 198.124 108.139C198.299 108.471 198.368 108.848 198.324 109.22C198.279 109.593 198.122 109.943 197.873 110.223C197.624 110.504 197.296 110.703 196.932 110.793C196.568 110.882 196.185 110.859 195.835 110.726C195.484 110.593 195.182 110.356 194.969 110.048C194.757 109.739 194.643 109.372 194.643 108.997C194.621 108.541 194.778 108.094 195.081 107.752C195.383 107.41 195.808 107.2 196.263 107.167ZM181.44 113.76C184.47 113.46 187.524 113.504 190.545 113.89C193.606 114.27 196.623 114.948 199.552 115.915C199.625 115.926 199.699 115.909 199.76 115.868C199.821 115.826 199.864 115.763 199.88 115.691C199.896 115.62 199.885 115.544 199.848 115.481C199.811 115.417 199.752 115.369 199.681 115.348C193.866 113.026 187.545 112.261 181.343 113.128C180.97 113.112 180.857 113.76 181.44 113.76ZM184.324 107.669C186.245 108.844 187.936 110.359 189.313 112.14C189.368 112.188 189.436 112.217 189.509 112.221C189.581 112.226 189.652 112.206 189.712 112.165C189.772 112.124 189.816 112.064 189.838 111.995C189.859 111.926 189.857 111.852 189.832 111.784C188.212 108.544 184.794 106.924 184.34 107.151C184.296 107.177 184.259 107.214 184.232 107.259C184.206 107.303 184.192 107.354 184.19 107.405C184.188 107.457 184.2 107.508 184.223 107.554C184.247 107.6 184.281 107.64 184.324 107.669ZM136.89 93.2024C143.905 98.4512 143.565 98.273 143.727 98.273C143.889 98.273 143.727 98.6456 147.145 92.6354C152.361 93.8018 154.24 94.6118 154.986 94.7738C155.731 94.9358 155.634 94.2392 155.293 94.1096C152.779 93.204 150.215 92.4414 147.615 91.8254L148.263 90.7076C148.284 90.6865 148.301 90.6612 148.313 90.6334C148.325 90.6056 148.331 90.5757 148.331 90.5456C148.331 90.5154 148.325 90.4855 148.313 90.4577C148.301 90.4299 148.284 90.4047 148.263 90.3836L141.685 86.5766C141.639 86.5398 141.582 86.5197 141.523 86.5197C141.465 86.5197 141.407 86.5398 141.361 86.5766L136.923 92.8136C136.887 92.8308 136.857 92.8569 136.835 92.8894C136.812 92.9218 136.799 92.9595 136.796 92.9987C136.792 93.038 136.799 93.0774 136.816 93.1131C136.833 93.1488 136.858 93.1796 136.89 93.2024ZM146.853 90.902L146.448 91.5824C145.063 91.2904 143.662 91.0794 142.252 90.9506C142.182 90.9441 142.111 90.9579 142.048 90.9904C141.985 91.0229 141.932 91.0727 141.897 91.1339C141.861 91.1951 141.843 91.2653 141.846 91.3361C141.849 91.4069 141.872 91.4755 141.912 91.5338C142.09 91.7768 142.058 91.5338 145.995 92.3924L143.581 96.5072L138.381 92.7002L141.734 87.986L146.853 90.902ZM202.403 180.326C205.28 174.356 206.744 167.804 206.68 161.178C206.662 161.094 206.616 161.019 206.55 160.965C206.484 160.912 206.401 160.882 206.315 160.882C206.23 160.882 206.147 160.912 206.081 160.965C206.014 161.019 205.969 161.094 205.951 161.178C205.614 167.648 204.179 174.013 201.706 180.002C201.528 180.423 202.192 180.747 202.403 180.326ZM172.158 102.906C178.524 107.28 178.2 107.28 178.573 107.28C178.639 107.269 178.7 107.239 178.75 107.195C178.8 107.15 178.836 107.092 178.854 107.028C178.873 106.964 178.873 106.896 178.855 106.831C178.837 106.767 178.801 106.709 178.751 106.665C176.879 104.951 174.794 103.486 172.546 102.307C172.467 102.255 172.37 102.237 172.278 102.257C172.185 102.277 172.104 102.333 172.052 102.412C172.001 102.492 171.983 102.588 172.003 102.681C172.022 102.774 172.078 102.855 172.158 102.906ZM233.653 180.569C233.649 180.47 233.609 180.375 233.541 180.304C233.472 180.232 233.379 180.188 233.28 180.18C232.179 180.18 234.106 183.258 230.04 205.242C230.033 205.329 230.058 205.417 230.109 205.488C230.161 205.56 230.236 205.61 230.321 205.632C230.407 205.653 230.497 205.644 230.576 205.605C230.655 205.566 230.718 205.5 230.753 205.42C233.277 197.393 234.261 188.961 233.653 180.569ZM172.449 94.7414C179.35 96.896 180.792 97.9814 181.23 97.8518C181.297 97.8257 181.354 97.7801 181.395 97.7208C181.435 97.6616 181.457 97.5914 181.457 97.5197C181.457 97.4479 181.435 97.3778 181.395 97.3185C181.354 97.2593 181.297 97.2136 181.23 97.1876C178.513 95.7669 175.62 94.7103 172.627 94.0448C172.535 94.0211 172.437 94.0352 172.355 94.0838C172.273 94.1324 172.214 94.2116 172.19 94.304C172.166 94.3963 172.18 94.4943 172.229 94.5764C172.278 94.6584 172.357 94.7177 172.449 94.7414Z" fill="#03607A"/>
<path d="M150.968 91.2584L156.767 91.6958L156.2 98.9372C156.195 98.9948 156.213 99.0521 156.249 99.0973C156.285 99.1424 156.337 99.1721 156.395 99.1802C161.255 100.006 170.553 101.529 170.391 101.529C170.732 101.529 170.586 102.031 171.866 85.9772C171.871 85.9419 171.868 85.9058 171.857 85.8718C171.846 85.8378 171.827 85.8069 171.802 85.7817C171.777 85.7564 171.746 85.7375 171.712 85.7264C171.678 85.7153 171.642 85.7124 171.606 85.718L157.383 86.5118C157.323 86.5118 157.265 86.5357 157.222 86.5782C157.18 86.6207 157.156 86.6784 157.156 86.7386L156.832 90.8858C154.895 90.6689 152.949 90.5554 151 90.5456C150.905 90.5413 150.813 90.5747 150.743 90.6385C150.673 90.7023 150.632 90.7913 150.627 90.8858C150.623 90.9803 150.656 91.0727 150.72 91.1425C150.784 91.2124 150.873 91.2541 150.968 91.2584ZM157.788 96.8312C157.788 96.9932 158.079 97.058 158.225 97.0256C161.417 96.3382 164.695 96.147 167.945 96.4586C167.992 96.4639 168.039 96.4599 168.085 96.4469C168.13 96.434 168.172 96.4122 168.209 96.3828C168.246 96.3535 168.277 96.3172 168.299 96.276C168.322 96.2348 168.337 96.1895 168.342 96.1427C168.347 96.0959 168.343 96.0485 168.33 96.0032C168.317 95.9579 168.296 95.9157 168.266 95.8788C168.237 95.8419 168.201 95.8112 168.159 95.7884C168.118 95.7656 168.073 95.7511 168.026 95.7458C166.854 95.6153 165.674 95.5558 164.495 95.5676V94.547C164.875 94.7034 165.282 94.7858 165.693 94.79C166.235 94.8309 166.771 94.6593 167.189 94.3116C167.606 93.9638 167.872 93.4672 167.929 92.927C169.938 91.631 168.69 87.9698 166.001 89.2172C164.073 86.7224 161.141 88.2614 161.903 90.1568C161.466 90.1503 161.042 90.2983 160.705 90.5746C160.367 90.8509 160.139 91.2377 160.059 91.6665C159.98 92.0953 160.054 92.5384 160.27 92.9173C160.486 93.2963 160.829 93.5866 161.238 93.737C161.325 93.7483 161.412 93.7291 161.486 93.6827C161.559 93.6363 161.614 93.5656 161.641 93.4829C161.668 93.4002 161.665 93.3107 161.633 93.2299C161.601 93.149 161.541 93.082 161.465 93.0404C160.299 92.6516 160.72 90.7238 162.486 90.8696C162.555 90.877 162.624 90.8641 162.686 90.8326C162.748 90.801 162.799 90.7522 162.833 90.692C162.868 90.6319 162.884 90.563 162.879 90.4938C162.875 90.4246 162.851 90.3582 162.81 90.3026C161.708 88.8284 164.09 87.8726 165.612 89.8976C165.664 89.9694 165.742 90.0191 165.828 90.0371C165.915 90.055 166.006 90.04 166.082 89.9948C168.107 88.8446 168.885 91.6958 167.362 92.4086C167.318 92.4309 167.279 92.4615 167.248 92.4989C167.216 92.5362 167.192 92.5794 167.177 92.6261C167.162 92.6727 167.156 92.7219 167.16 92.7707C167.164 92.8196 167.178 92.8672 167.2 92.9108C167.183 93.0647 167.133 93.213 167.051 93.3448C166.97 93.4765 166.86 93.5884 166.73 93.6722C166.402 93.9 166.012 94.0221 165.612 94.0221C165.213 94.0221 164.823 93.9 164.495 93.6722V93.3158C164.477 93.2322 164.431 93.1573 164.365 93.1035C164.298 93.0498 164.215 93.0204 164.13 93.0204C164.045 93.0204 163.962 93.0498 163.895 93.1035C163.829 93.1573 163.783 93.2322 163.766 93.3158V95.4866H162.777L163.02 93.089C163.02 92.9945 162.983 92.9038 162.916 92.837C162.849 92.7701 162.758 92.7326 162.664 92.7326C162.569 92.7326 162.479 92.7701 162.412 92.837C162.345 92.9038 162.308 92.9945 162.308 93.089L162.048 95.5676C160.663 95.6561 159.293 95.9062 157.966 96.3128C157.879 96.3321 157.804 96.3844 157.755 96.4586L158.128 91.793C158.533 91.793 158.695 91.8902 158.857 91.793C158.951 91.7801 159.037 91.7302 159.095 91.6542C159.152 91.5783 159.178 91.4825 159.165 91.388C159.152 91.2935 159.102 91.2079 159.026 91.1502C158.95 91.0925 158.854 91.0673 158.76 91.0802H158.258L158.517 87.8402L170.343 87.176L169.322 99.1802L157.739 97.5602L157.788 96.8312ZM212.657 138.368C210.604 133.139 207.817 128.23 204.379 123.788C204.322 123.72 204.241 123.675 204.153 123.663C204.065 123.651 203.975 123.673 203.902 123.724C203.829 123.774 203.777 123.851 203.758 123.938C203.738 124.025 203.752 124.116 203.796 124.193C206.852 128.863 209.591 133.734 211.993 138.773C212.047 138.861 212.133 138.924 212.233 138.948C212.334 138.973 212.439 138.956 212.528 138.903C212.616 138.849 212.679 138.762 212.703 138.662C212.727 138.562 212.711 138.456 212.657 138.368ZM180.419 101.367C178.097 100.005 175.658 98.8557 173.129 97.9328C173.041 97.8937 172.941 97.8905 172.85 97.9237C172.759 97.9569 172.685 98.0241 172.643 98.111C172.608 98.1997 172.607 98.2983 172.64 98.3879C172.672 98.4776 172.737 98.552 172.821 98.597C174.247 99.245 180.063 102.048 180.225 102.048C180.303 102.044 180.378 102.017 180.44 101.968C180.502 101.92 180.546 101.853 180.568 101.778C180.589 101.702 180.587 101.622 180.56 101.548C180.533 101.475 180.484 101.411 180.419 101.367Z" fill="#03607A"/>
</svg>
