<svg width="146" height="182" viewBox="0 0 146 182" fill="none" xmlns="http://www.w3.org/2000/svg">
<rect x="0.5" y="0.5" width="145" height="181" rx="7.5" stroke="#008037"/>
<path d="M78.4976 106.41C78.3066 104.133 78.236 101.848 78.2859 99.5629C78.2859 99.3731 78.0085 99.322 77.9866 99.5629C77.748 101.853 77.7725 104.162 78.0596 106.447C78.0644 106.505 78.0921 106.559 78.1366 106.596C78.1811 106.634 78.2387 106.652 78.2968 106.648C78.3549 106.643 78.4087 106.615 78.4463 106.57C78.484 106.526 78.5024 106.468 78.4976 106.41ZM75.1907 105.556C75.2039 105.586 75.2254 105.611 75.2526 105.629C75.2798 105.646 75.3116 105.656 75.344 105.656C75.3764 105.656 75.4081 105.646 75.4353 105.629C75.4625 105.611 75.4841 105.586 75.4973 105.556C75.3951 103.257 75.3002 100.95 75.198 98.6431C75.198 98.6044 75.1826 98.5672 75.1552 98.5399C75.1278 98.5125 75.0907 98.4971 75.052 98.4971C75.0133 98.4971 74.9761 98.5125 74.9487 98.5399C74.9214 98.5672 74.906 98.6044 74.906 98.6431C74.8086 100.385 74.8281 102.131 74.9644 103.87C74.9692 104.439 75.0452 105.006 75.1907 105.556ZM94.324 105.848C94.3955 106.976 94.2695 108.107 93.9517 109.192C93.9517 109.359 94.4408 110.287 94.7474 107.622C94.9396 105.822 94.5644 104.008 93.6743 102.432C93.5794 102.257 93.3312 102.432 93.4115 102.585C93.9167 103.606 94.2262 104.713 94.324 105.848ZM85.4764 53.0765C85.4713 53.6259 85.6571 54.1599 86.002 54.5876C86.44 54.9818 87.1189 53.4488 89.1556 53.2079V51.2369C87.7346 51.3409 86.4122 52.0021 85.4764 53.0765ZM104.668 105.804C104.668 104.301 104.537 102.804 104.507 101.3C104.507 101.096 104.194 101.14 104.194 101.344C104.194 102.899 104.194 104.468 104.259 106.031C104.288 107.06 104.69 106.68 104.668 105.804ZM90.5207 51.2004L90.5645 53.1714C93.083 53.259 93.813 55.157 94.0831 54.5657C94.1999 54.2956 94.6744 52.9451 94.4189 52.7115C93.3472 51.7493 91.9609 51.2119 90.5207 51.2004ZM38.1286 39.3525C37.749 39.5569 38.1286 40.4548 38.4279 40.2577C38.7272 40.0606 38.5447 39.1116 38.1286 39.3525ZM37.6468 37.1552C37.1358 37.2063 37.1212 37.7319 37.6468 37.7976C38.0275 37.8271 38.3968 37.9419 38.7272 38.1334C38.9243 38.2648 39.136 38.002 39.0192 37.8195C38.8688 37.5981 38.6628 37.4202 38.4219 37.3036C38.181 37.187 37.9137 37.1358 37.6468 37.1552ZM36.3401 39.7248C36.5354 40.2372 36.6892 40.7645 36.8 41.3016C36.9241 41.9294 36.9168 42.0973 36.8876 42.1338C36.7697 42.1376 36.6524 42.1523 36.5372 42.1776C36.3255 42.2506 36.3255 42.5207 36.654 42.674C36.7431 42.719 36.8437 42.7361 36.9426 42.7231C37.0416 42.7101 37.1344 42.6675 37.2088 42.601C37.5884 42.236 37.4278 41.2067 36.7416 39.5423C36.7174 39.4891 36.673 39.4476 36.6183 39.4271C36.5635 39.4065 36.5028 39.4086 36.4496 39.4328C36.3963 39.457 36.3549 39.5014 36.3344 39.5561C36.3138 39.6109 36.3159 39.6716 36.3401 39.7248Z" fill="#008037"/>
<path d="M142.146 127.661H131.787C132.743 122.551 127.064 118.952 123.531 120.835C123.168 119.064 122.171 117.487 120.727 116.4C119.284 115.312 117.493 114.789 115.691 114.929C115.498 113.675 115.024 112.481 114.303 111.436C113.582 110.392 112.634 109.524 111.53 108.9C111.186 104.812 111.34 100.651 111.347 96.6137C111.968 96.6575 113.457 96.7962 113.216 96.2049C112.486 94.3945 111.238 91.3723 110.296 89.6349C110.675 89.6349 111.106 89.6349 111.106 89.248C111.223 82.24 111.449 67.5378 111.449 67.5378C111.566 58.8362 111.858 48.8352 105.748 41.6739C105.558 41.4476 105.295 41.3673 105.127 41.6009C102.642 45.12 101.007 49.1684 100.353 53.4269C100.105 49.2659 99.7765 44.5647 99.1341 39.9146C98.0391 32.0233 95.3965 26.7235 91.1041 23.5772C90.6953 23.2779 90.0967 22.7961 89.8266 22.9859C83.1252 27.7309 81.1542 36.0091 80.687 42.1192C80.5191 44.718 80.468 47.3533 80.5337 49.9667C79.6358 46.616 76.5552 40.0752 75.4237 41.652C70.1531 49.2002 70.5984 58.953 71.0437 67.5597C71.7737 83.9555 71.9927 88.1822 72.0876 89.2845C72.0876 89.6422 72.0876 89.8831 73.095 89.7736C70.9707 95.4019 70.5327 96.3436 70.7225 96.5042C70.9123 96.6648 71.6642 96.6137 72.0292 96.5918C71.9781 99.0519 72.5621 111.009 72.4818 111.644C71.9518 112.29 71.5257 113.014 71.2189 113.791C69.9745 114.129 68.8196 114.737 67.8358 115.571C66.8519 116.404 66.063 117.444 65.5249 118.616C64.5538 118.521 63.5747 118.682 62.6852 119.083C61.8092 109.367 60.0134 94.6792 57.8161 84.8972C61.5756 85.3863 63.3714 83.7 64.2401 82.24C66.4301 78.4221 64.9701 72.0784 62.2545 68.5671C59.956 63.6771 56.585 59.368 52.3922 55.96C52.8375 55.1132 51.6622 51.2661 48.6765 49.682C47.399 49.0031 45.6981 48.952 44.917 48.222C43.2453 46.5868 44.3695 42.236 40.8874 41.0972C40.6622 39.298 40.2886 37.5204 39.7705 35.7828C44.1505 33.8994 43.9242 28.804 41.34 27.3586C38.931 26.0154 37.6024 27.9207 36.0183 28.4536C33.8283 29.1836 31.9668 27.6068 29.0906 27.6068C23.6667 27.6068 22.3819 33.0672 22.0972 33.3373C21.8125 33.6074 21.703 35.1477 19.2867 36.0967C16.7171 37.0968 13.4467 37.1552 12.0524 40.1774C10.8698 42.82 13.1401 46.0466 11.5779 48.4921C10.6654 49.9521 7.38771 50.0397 5.00791 53.8576C2.46021 57.9237 3.31431 63.4425 6.82561 65.7347C3.80341 72.5237 3.94211 79.7434 7.18331 84.6052C10.1471 89.0363 14.9797 90.7007 20.2284 90.562C19.9656 102.928 20.0751 115.258 19.4181 127.704C17.0456 127.704 14.6658 127.755 12.3371 127.799C12.2713 127.799 12.2081 127.825 12.1616 127.872C12.1151 127.919 12.0889 127.982 12.0889 128.047C12.0889 128.113 12.1151 128.176 12.1616 128.223C12.2081 128.27 12.2713 128.296 12.3371 128.296C14.4176 128.339 16.8777 128.383 19.3743 128.383C18.9728 135.632 18.4326 142.983 17.7683 150.188C17.7026 150.918 19.4108 150.875 20.1335 150.918C19.9339 151.932 19.8579 152.967 19.9072 153.999C19.3524 154.488 18.5421 157.831 18.5859 158.452C18.5859 158.583 18.6443 158.664 18.7319 158.678C19.5349 158.81 31.6675 159.408 32.2296 158.744C32.2437 158.718 32.251 158.689 32.251 158.66C32.251 158.631 32.2437 158.602 32.2296 158.576C31.4193 156.386 28.5796 154.539 26.2582 153.941L26.886 151.145C27.3678 151.145 28.346 151.218 28.4847 150.962C31.7478 143.604 34.7189 136.004 37.3104 128.391H47.9246C49.9467 134.881 51.7316 141.443 53.2755 148.064C53.896 150.736 53.4653 150.59 55.1881 150.67C55.18 151.711 55.3051 152.749 55.5604 153.758C55.0005 155.076 54.6626 156.477 54.5603 157.904C54.5462 157.929 54.5388 157.957 54.5388 157.985C54.5388 158.013 54.5462 158.041 54.5603 158.065C55.0202 158.649 68.1237 159.138 69.0216 158.605C69.7516 158.138 65.7512 154.262 62.2034 153.546C62.2546 152.614 62.2326 151.679 62.1377 150.75C62.7582 150.75 64.189 150.918 64.189 150.305C64.189 143.414 63.9554 136.034 63.459 128.405H142.168C142.266 128.402 142.36 128.36 142.428 128.288C142.495 128.217 142.532 128.121 142.529 128.022C142.526 127.923 142.484 127.83 142.412 127.762C142.34 127.694 142.244 127.658 142.146 127.661ZM43.2672 114.637C45.0849 119.638 46.0558 122.748 47.6983 127.726H37.5294C39.3033 122.478 41.7561 114.586 43.3694 107.951C43.9169 105.761 45.0192 106.688 44.6177 108.469C44.1505 110.666 43.2453 114.586 43.2672 114.637ZM61.6851 153.619C60.4368 154.189 57.3051 154.152 56.086 153.802C56.0057 152.758 55.794 151.714 55.7794 150.67L61.5172 150.736C61.5683 151.699 61.6267 152.656 61.6851 153.619ZM20.8051 90.5547C26.9371 90.2481 34.2298 87.4449 40.3326 83.043C40.464 82.9481 40.5808 82.9262 40.6173 82.8021C40.6538 82.678 40.6173 82.5758 40.3983 82.2619C42.1126 81.4593 43.9127 80.8543 45.7638 80.4588C46.4938 80.3274 48.6327 79.9186 49.0196 78.7579L50.611 78.7141C52.144 81.8896 54.5822 84.0942 57.3124 84.7804L58.7724 93.4601C46.7128 97.6138 35.7044 98.4971 20.8489 96.475C20.9 94.5113 20.9073 92.5184 20.827 90.5547H20.8051ZM39.9384 46.0612C38.9164 48.7111 36.7848 48.8206 37.1279 49.4484V49.6747C37.2666 50.8354 37.5367 53.2225 35.6679 54.9088C32.5143 53.6532 30.5579 52.2078 29.0979 50.1054C29.4045 49.5725 29.0979 47.2438 29.0979 47.2219C28.6453 44.8421 26.5721 44.3603 27.0393 42.2068C27.105 41.8929 27.1999 41.7104 27.324 41.652C27.7328 41.4695 28.784 42.8784 29.003 41.2432C29.3461 38.9072 30.0031 37.1041 32.3172 36.4471C34.4634 35.8412 36.5366 36.8778 39.3106 35.9215C39.9384 38.5203 41.0188 43.2215 39.9384 46.0612ZM35.7774 55.5512C37.0403 55.2373 38.1207 52.1348 37.8579 50.3974C39.8281 50.6757 41.7683 51.1351 43.6541 51.7698C50.5161 54.2153 56.4729 59.4421 60.4952 66.5377C57.7504 63.9097 54.1588 62.4278 50.9103 62.6322C49.8746 60.9348 48.6845 59.3367 47.3552 57.858C47.3354 57.8361 47.3111 57.8185 47.2841 57.8065C47.2571 57.7945 47.2278 57.7883 47.1983 57.7883C47.1687 57.7883 47.1394 57.7945 47.1124 57.8065C47.0854 57.8185 47.0612 57.8361 47.0413 57.858C47.0203 57.8784 47.0037 57.9028 46.9923 57.9297C46.9809 57.9567 46.975 57.9857 46.975 58.0149C46.975 58.0442 46.9809 58.0732 46.9923 58.1001C47.0037 58.1271 47.0203 58.1515 47.0413 58.1719C48.2076 59.6222 49.2828 61.1435 50.2606 62.7271C49.2931 62.8731 48.3604 63.1947 47.5085 63.6761C47.3705 63.6896 47.2338 63.714 47.0997 63.7491C46.6989 63.8397 46.291 63.8958 45.8806 63.917C44.1724 63.917 44.1067 63.187 43.4935 63.2673C42.2744 63.3914 42.6321 65.8004 45.4353 66.3114C44.9316 67.7203 44.7053 70.8228 45.647 72.1514C44.5228 72.1514 43.8001 71.9178 43.7563 73.0639C43.7416 73.2705 43.7416 73.4778 43.7563 73.6844C43.3944 73.4515 42.9847 73.303 42.5575 73.2499C42.1304 73.1968 41.6968 73.2405 41.2889 73.3778C40.5224 73.6698 39.0624 75.1955 38.3251 75.8306C38.3251 75.524 38.3251 75.0568 38.055 75.0276C33.4195 74.6407 26.375 74.5312 22.1556 74.648C21.9243 71.6697 21.9634 68.6767 22.2724 65.7055C22.285 65.6445 22.2728 65.581 22.2386 65.529C22.2044 65.477 22.1509 65.4407 22.0899 65.4281C22.0289 65.4155 21.9654 65.4277 21.9134 65.4619C21.8614 65.4961 21.8251 65.5496 21.8125 65.6106C21.5789 66.9246 21.1263 72.2828 21.6008 74.6699L15.6221 75.0641C15.578 75.0682 15.5361 75.0857 15.5021 75.1142C15.4681 75.1427 15.4436 75.1808 15.4317 75.2235C15.4198 75.2662 15.4212 75.3115 15.4357 75.3535C15.4501 75.3954 15.4769 75.4319 15.5126 75.4583C15.5332 75.4767 15.5577 75.4902 15.5842 75.4978C15.6108 75.5054 15.6387 75.5069 15.6659 75.5021C23.0362 75.0506 30.4286 75.0994 37.7922 75.6481C37.8261 78.1146 38.5686 80.5194 39.9311 82.5758C30.1929 89.5911 14.1694 94.1755 7.62861 84.2329C2.92011 77.13 5.25611 64.72 13.9869 57.1426C18.1572 53.5671 23.231 51.2082 28.6526 50.3244C29.9739 52.8429 34.8211 55.7702 35.7701 55.5366L35.7774 55.5512ZM46.596 64.3988C46.2241 64.7915 45.9117 65.2367 45.6689 65.7201C44.3038 65.5157 43.53 64.8003 43.3986 64.209C43.2964 63.8002 43.5373 63.6323 44.041 63.9754C44.8334 64.362 45.7213 64.5091 46.596 64.3988ZM50.1438 68.4211C50.1068 68.4636 50.0849 68.5172 50.0815 68.5735C50.0781 68.6298 50.0935 68.6856 50.1251 68.7323C50.1568 68.7789 50.203 68.8138 50.2565 68.8315C50.3101 68.8491 50.368 68.8486 50.4212 68.8299C51.0125 68.5963 51.2899 68.6474 51.3337 68.7569C51.3775 68.8664 51.1439 69.4066 50.6694 69.6402C50.3628 69.7935 49.7715 69.9322 49.3189 69.1073C48.9466 68.4357 49.5817 67.6984 49.3189 67.5451C49.0561 67.3918 48.3115 68.5233 48.9466 69.5161C48.8154 69.6123 48.6585 69.6671 48.4959 69.6736C48.3334 69.6801 48.1726 69.638 48.0341 69.5526C47.7129 69.3044 47.4939 68.6109 47.8662 67.3626C48.0049 66.8808 47.1873 66.7567 47.0851 68.8226C47.0413 69.1073 46.7274 70.8593 46.6325 71.4506C46.5376 72.0419 46.4062 72.0857 46.3916 72.093C46.377 72.1003 46.3113 72.093 46.2529 72.0127C45.7346 71.4287 45.1141 68.4576 46.1069 66.1727C46.4156 65.4021 46.9428 64.7386 47.6238 64.2639C48.3047 63.7892 49.1096 63.5239 49.9394 63.5009C50.4274 63.4915 50.9104 63.6002 51.3474 63.8177C51.7843 64.0352 52.1623 64.3551 52.449 64.7501C52.7357 65.1451 52.9228 65.6035 52.9943 66.0863C53.0657 66.5691 53.0195 67.0621 52.8594 67.5232C52.7808 67.7686 52.6472 67.9928 52.4688 68.1787C52.2905 68.3647 52.072 68.5075 51.8301 68.5963C51.7467 68.4538 51.631 68.3329 51.4922 68.2434C51.3535 68.154 51.1956 68.0985 51.0313 68.0814C50.8671 68.0644 50.7012 68.0862 50.547 68.1452C50.3928 68.2042 50.2547 68.2987 50.1438 68.4211ZM44.771 74.6042C44.6816 74.3525 44.5091 74.1388 44.2819 73.9983L44.3695 72.8157H47.8297C47.8297 73.2099 47.9392 74.3706 47.9392 74.3706C46.879 74.3752 45.8204 74.4533 44.771 74.6042ZM47.034 72.1587C47.2268 71.361 47.3658 70.5513 47.4501 69.7351C47.6874 69.9935 48.0098 70.1579 48.3583 70.1982C48.7069 70.2384 49.0582 70.1517 49.3481 69.9541L49.4649 70.0344C49.1526 71.4594 49.113 72.9308 49.3481 74.3706H48.6181C48.638 73.6796 48.5618 72.9893 48.3918 72.3193C48.1801 72.1295 47.3552 72.1587 47.034 72.1587ZM41.413 73.9253C41.9023 73.803 42.4152 73.8122 42.8998 73.9519C43.3843 74.0916 43.8234 74.357 44.1724 74.721C44.3038 74.94 44.2819 75.013 44.2746 75.0349C44.2673 75.0568 43.8366 75.1152 43.5446 75.1006C43.1132 75.0309 42.6708 75.092 42.2744 75.2758C41.6726 75.7586 41.2782 76.4533 41.1721 77.2176C41.0626 79.0791 46.4427 78.8455 48.2823 78.7871C46.9245 80.1741 42.8803 79.8602 40.1428 81.7728C39.1862 80.1227 38.5775 78.2942 38.3543 76.4C38.8361 76.181 40.6392 74.2611 41.413 73.9253ZM64.2401 80.8676C62.6633 85.4739 57.7212 84.2913 57.5168 84.2402C54.0712 83.3715 52.0783 80.1595 51.3264 78.6703C52.144 78.4805 51.9104 77.6775 51.8301 76.9037L58.1957 76.7577C58.7067 77.7286 59.9185 77.4074 59.8601 76.4365C59.8676 76.2252 59.8009 76.018 59.6716 75.8507C59.5423 75.6835 59.3586 75.5668 59.1522 75.5208C58.9459 75.4749 58.73 75.5026 58.5419 75.5992C58.3539 75.6958 58.2056 75.8551 58.1227 76.0496C57.2102 75.9693 52.7207 76.0934 51.779 76.1956C51.6695 74.2392 51.779 74.3779 49.9759 74.3852C49.808 73.013 49.808 71.6255 49.9759 70.2534C50.3583 70.3247 50.7537 70.2592 51.0927 70.0684C51.4317 69.8775 51.6927 69.5735 51.8301 69.2095C53.0419 69.0562 54.261 66.9538 53.1879 64.7054C52.987 64.3279 52.7101 63.9962 52.3747 63.7311C52.0392 63.466 51.6525 63.2733 51.2388 63.1651C56.8087 63.0191 61.853 67.5086 63.8678 72.8522C63.97 72.8522 64.0357 72.7792 63.8678 72.8522C64.9049 75.4028 65.0363 78.2318 64.2401 80.8676ZM26.2801 151.13C26.048 152.05 25.8773 152.984 25.7691 153.926C23.9935 154.11 22.2047 154.129 20.4255 153.984C20.5423 152.97 20.6518 151.962 20.7613 150.948L26.2801 151.13ZM123.589 121.266C125.181 119.959 132.218 121.623 131.167 127.682H63.4152L62.7801 119.594C66.4812 118.309 69.1968 120.266 70.1531 122.645C70.321 123.091 71.2627 122.711 69.7954 120.879C68.863 119.727 67.5463 118.949 66.087 118.689C69.6202 111.885 79.6212 112.973 81.563 120.288C81.6652 120.674 82.2419 120.485 82.1397 120.098C81.554 117.941 80.1766 116.084 78.2824 114.897C76.3881 113.71 74.1162 113.281 71.9197 113.696C72.5386 112.451 73.4546 111.379 74.5865 110.572C75.7185 109.766 77.0317 109.251 78.41 109.073C79.7883 108.895 81.1892 109.059 82.4891 109.55C83.7889 110.042 84.9476 110.847 85.8627 111.893C86.5343 112.623 88.7827 116.9 89.5127 117.404C88.9126 118.433 88.5369 119.578 88.4104 120.762C87.5079 121.093 86.6873 121.614 86.0045 122.291C85.3217 122.967 84.7928 123.783 84.4538 124.682C84.4296 124.737 84.4283 124.8 84.4502 124.856C84.4721 124.912 84.5154 124.957 84.5706 124.981C84.6258 125.006 84.6883 125.007 84.7444 124.985C84.8006 124.963 84.8457 124.92 84.8699 124.865C85.3115 123.842 86.0123 122.951 86.903 122.282C87.7937 121.612 88.8436 121.186 89.9491 121.046C91.0546 120.906 92.1775 121.057 93.207 121.483C94.2366 121.91 95.1371 122.597 95.8199 123.478C95.8683 123.545 95.9417 123.591 96.0238 123.605C96.1059 123.619 96.1901 123.599 96.2579 123.551C96.3257 123.502 96.3714 123.429 96.3851 123.347C96.3988 123.265 96.3793 123.18 96.3309 123.113C95.4899 121.999 94.3344 121.163 93.0136 120.713C91.6929 120.263 90.2674 120.219 88.9214 120.587C89.1359 119.425 89.5835 118.318 90.2371 117.333C90.8908 116.348 91.7369 115.506 92.7247 114.856C93.919 114.091 95.2883 113.641 96.7041 113.55C98.1198 113.458 99.5356 113.728 100.819 114.334C102.101 114.939 103.209 115.861 104.038 117.012C104.867 118.164 105.39 119.507 105.558 120.915C105.574 120.988 105.616 121.053 105.676 121.097C105.735 121.141 105.809 121.162 105.883 121.156C105.958 121.15 106.027 121.117 106.079 121.063C106.13 121.009 106.161 120.939 106.164 120.864C105.971 119.257 105.349 117.732 104.364 116.448C103.379 115.164 102.067 114.168 100.565 113.564C101.052 112.279 101.861 111.14 102.914 110.257C103.967 109.374 105.23 108.776 106.58 108.52C110.843 107.863 114.501 111.141 115.041 115.002C113.924 115.187 112.864 115.623 111.939 116.277C111.015 116.93 110.251 117.785 109.705 118.776C109.573 119.025 109.975 119.244 110.113 119.003C110.91 117.656 112.128 116.607 113.579 116.019C115.029 115.431 116.633 115.335 118.143 115.747C119.596 116.21 120.861 117.13 121.748 118.371C122.634 119.612 123.096 121.106 123.064 122.631C123.064 122.828 123.326 123.076 123.523 122.937C123.604 122.886 123.837 122.718 123.596 121.266H123.589ZM81.3586 42.5134C86.3664 41.6374 91.5786 41.4841 98.7691 42.017C99.9225 51.9377 100.09 61.2817 100.273 71.2608C98.8713 68.1656 97.4478 63.6469 97.4697 60.5298C97.4629 56.9037 96.5814 53.3327 94.9001 50.12C92.8999 46.3021 90.1916 43.6011 87.2424 46.7693C83.1544 51.1493 83.4464 56.4345 83.5267 62.2964C83.2559 64.9032 82.6952 67.4716 81.855 69.9541C81.5995 57.785 80.8914 48.8206 81.3586 42.5134ZM110.617 89.0436C110.08 88.9596 109.533 88.9596 108.996 89.0436L109.069 83.2912C109.091 83.1609 109.082 83.0274 109.044 82.9009C109.006 82.7744 108.94 82.6582 108.85 82.5612C107.179 81.1596 102.499 76.6482 100.952 72.6259C100.952 68.3919 100.886 64.0995 100.718 59.8655C104.419 59.756 107.88 59.7998 110.792 59.8655C111.084 66.983 110.537 79.4222 110.617 89.0436ZM81.4608 108.571C79.9829 108.243 78.446 108.292 76.9925 108.716C75.539 109.14 74.216 109.924 73.1461 110.995C73.095 109.425 72.7738 99.6724 72.6643 96.6064L80.9571 96.4458C80.9352 97.9277 81.3221 107.14 81.4608 108.571ZM97.623 65.5668C98.9589 71.0929 101.353 76.9986 108.434 83.0065C108.434 84.9775 108.208 89.9634 108.339 91.8614C108.193 91.8614 97.4478 91.9344 96.6594 92.0001C97.4761 83.214 97.7978 74.389 97.623 65.5668ZM83.6873 65.6763C84.1764 74.6188 85.0743 83.5175 86.3664 92.1607C84.5779 92.1169 76.1902 91.8614 74.9711 91.9198C74.9711 90.7226 74.6718 83.8314 74.6426 83.1598C79.2921 78.3345 82.4351 72.2591 83.6873 65.6763ZM81.4973 96.4312C82.0229 96.4312 83.1836 96.5553 83.1179 96.037C82.7898 94.8956 82.342 93.792 81.782 92.7447L86.4394 92.8104C86.5489 93.482 86.6511 94.1536 86.7533 94.8252C86.0671 95.5552 84.6801 99.7892 84.4903 100.556C84.4757 100.607 84.4734 100.66 84.4836 100.712C84.4937 100.764 84.516 100.813 84.5487 100.855C84.7239 101.074 85.1838 101.103 85.6729 101.103C83.5486 104.468 84.702 108.629 85.5123 110.681C84.502 109.795 83.3187 109.129 82.0375 108.724C82.2054 107.388 81.5922 97.6576 81.5046 96.4312H81.4973ZM85.2349 104.344C85.3895 103.218 85.7561 102.13 86.3153 101.14C89.6827 101.275 93.0548 101.238 96.4185 101.03C96.82 102.614 100.477 106.768 95.9367 113.009C94.7045 113.176 93.5211 113.601 92.4634 114.255C91.4058 114.909 90.4975 115.778 89.7974 116.805C87.2132 112.9 84.5779 109.046 85.2422 104.344H85.2349ZM96.9806 73.5238C96.8711 80.8822 96.4185 87.3281 95.8783 94.3799L87.2862 94.6062C85.6656 83.3861 84.9721 75.3561 84.3662 66.1362C84.1983 63.5228 84.0304 60.8145 84.0888 58.1646C84.1837 53.6167 85.1108 50.3755 87.0088 47.9446C89.6952 44.5209 91.8706 46.0466 94.0022 49.8353C95.2263 52.0223 96.0682 54.4022 96.4915 56.8725C97.1485 60.5955 97.0171 71.3995 96.9879 73.5238H96.9806ZM100.047 113.374C98.9964 113.034 97.8936 112.886 96.7908 112.936C98.019 111.201 98.7033 109.14 98.7566 107.014C98.8099 104.889 98.2298 102.796 97.0901 101.001C97.5646 101.001 98.8275 101.001 98.6815 100.556C98.4333 99.7235 97.7325 97.9934 97.1704 96.5991C96.8054 95.6793 96.4404 94.8836 96.4404 94.6719C96.4842 94.285 96.6594 92.5622 96.6594 92.5622C97.3383 92.6717 100.587 92.5622 101.689 92.5622C100.762 95.4822 100.886 95.1172 100.689 95.6209C100.543 96.0078 100.47 96.1976 100.565 96.3509C100.66 96.5042 101.047 96.4969 102.025 96.5188C102.025 100.731 102.383 105.6 102.565 109.797C101.382 110.705 100.506 111.954 100.054 113.374H100.047ZM102.492 96.5115L110.807 96.5918C110.542 100.566 110.557 104.555 110.851 108.527C109.598 107.978 108.223 107.762 106.862 107.902C105.501 108.041 104.199 108.531 103.083 109.323C102.93 105.052 102.813 100.665 102.499 96.5115H102.492ZM81.3951 41.9659C81.8988 36.0602 83.8406 28.1543 90.1551 23.6137C96.2287 27.782 97.8858 34.8995 98.6888 41.3454C93.5131 40.9658 86.2277 41.0169 81.4024 41.9659H81.3951ZM71.5401 60.8218C73.241 60.8218 79.5701 60.7342 81.0301 60.7269C81.1615 64.2309 81.2953 67.7397 81.4316 71.2535C80.0811 74.7575 77.0516 80.1449 74.2119 82.7875C74.0659 83.5175 74.2557 88.2187 74.2922 89.0655C73.7593 89.1166 73.2264 89.1677 72.73 89.2407C72.438 79.4149 71.5401 66.7202 71.5401 60.8218Z" fill="#008037"/>
<path d="M36.2007 44.3165C34.2224 44.1632 33.7187 42.7251 33.2807 42.8565C33.1639 42.8565 33.1128 43.0098 33.0836 43.0901C32.4631 44.4406 33.2515 46.1196 34.6312 46.1196C35.0556 46.0741 35.4597 45.9143 35.8003 45.6572C36.141 45.4 36.4055 45.0552 36.5657 44.6596C36.5898 44.6093 36.5973 44.5526 36.587 44.4977C36.5768 44.4429 36.5493 44.3927 36.5087 44.3545C36.468 44.3163 36.4163 44.292 36.3609 44.2852C36.3055 44.2783 36.2494 44.2893 36.2007 44.3165ZM35.8503 44.8202C34.8648 46.1342 33.3026 45.5502 33.4559 43.7471C33.7587 44.0823 34.128 44.3508 34.5402 44.5355C34.9524 44.7203 35.3985 44.8172 35.8503 44.8202ZM91.25 76.2321C91.2383 76.1543 91.199 76.0833 91.1394 76.032C91.0798 75.9806 91.0038 75.9524 90.9251 75.9524C90.8464 75.9524 90.7704 75.9806 90.7108 76.032C90.6512 76.0833 90.612 76.1543 90.6003 76.2321C90.6003 77.3344 90.9653 90.9343 91.1697 92.4089C91.1697 92.4786 91.1973 92.5454 91.2466 92.5947C91.2959 92.644 91.3628 92.6717 91.4325 92.6717C91.5022 92.6717 91.569 92.644 91.6183 92.5947C91.6676 92.5454 91.6953 92.4786 91.6953 92.4089C92.0238 87.7661 91.4033 81.0428 91.25 76.2321ZM33.58 40.8782C33.8136 40.8782 33.8866 40.63 33.8355 40.3745C33.7333 39.8635 33.3245 39.8343 33.2223 40.1263C33.1201 40.4183 33.2661 40.8782 33.58 40.8782ZM32.8062 37.7903C32.4775 37.8556 32.1813 38.032 31.9673 38.2899C31.7533 38.5478 31.6345 38.8714 31.6309 39.2065C31.6893 39.5861 32.0032 39.5861 32.0543 39.3087C32.2076 38.5276 32.5361 38.5787 32.9449 38.3305C33.0038 38.3017 33.0509 38.2535 33.0784 38.194C33.1059 38.1345 33.112 38.0673 33.0957 38.0038C33.0794 37.9404 33.0417 37.8844 32.9889 37.8455C32.9362 37.8066 32.8716 37.7871 32.8062 37.7903ZM107.368 106.41C107.368 106.549 107.638 106.505 107.668 106.366C107.784 105.87 107.244 100.213 107.332 98.6796C107.332 98.4825 107.04 98.4898 107.025 98.6796C106.89 101.262 107.005 103.85 107.368 106.41ZM90.5784 112.345C90.7244 112.455 90.9507 112.279 90.8558 112.119C90.5784 111.63 90.1842 111.25 89.7681 110.498C89.1294 109.307 88.761 107.989 88.6891 106.639C88.6172 105.289 88.8435 103.94 89.352 102.687C89.4323 102.505 89.1403 102.395 89.0527 102.585C88.4321 104.009 88.1798 105.567 88.3188 107.114C88.4579 108.662 88.9838 110.149 89.8484 111.44C90.0436 111.778 90.2898 112.083 90.5784 112.345Z" fill="#008037"/>
</svg>
