<svg width="154" height="154" viewBox="0 0 154 154" fill="none" xmlns="http://www.w3.org/2000/svg">
<path d="M114.507 67.3705C115.169 67.6964 115.893 67.8743 116.63 67.8917C116.672 67.887 116.712 67.8741 116.748 67.8537C116.785 67.8333 116.817 67.806 116.842 67.7732C116.868 67.7403 116.887 67.7028 116.898 67.6626C116.909 67.6224 116.912 67.5804 116.906 67.5391C116.845 67.0562 116.301 67.4701 114.791 66.7726L114.867 66.2053C114.906 66.0444 114.714 65.7837 114.507 65.8604C114.3 65.9371 114.247 66.1823 114.185 66.6269C114.124 67.0715 114.093 67.1635 114.507 67.3705ZM34.4947 69.5474C35.4171 69.2966 36.2834 68.8726 37.0473 68.298C37.3462 68.068 37.2466 67.5314 37.1623 67.2248C37.1383 67.1453 37.0857 67.0774 37.0148 67.0342C36.9438 66.991 36.8594 66.9755 36.7777 66.9907C36.696 67.0059 36.6228 67.0507 36.5721 67.1165C36.5214 67.1824 36.4968 67.2646 36.503 67.3475C36.5176 67.5136 36.5484 67.6779 36.595 67.838C34.7783 69.1641 34.0731 68.8345 34.1804 69.3711C34.2042 69.4324 34.2486 69.4834 34.3059 69.5156C34.3633 69.5477 34.43 69.559 34.4947 69.5474ZM32.4097 68.1293C33.9428 68.1293 33.4215 67.2248 33.0076 67.3628L32.4173 67.4548C31.9114 65.0555 32.3177 64.5496 31.8807 64.5343C31.8149 64.53 31.7499 64.5517 31.6998 64.5947C31.6497 64.6376 31.6183 64.6985 31.6124 64.7643C31.5583 65.7121 31.6279 66.6629 31.8194 67.5928C31.9037 68.0067 32.057 68.1293 32.4097 68.1293ZM76.9232 66.8109C77.3601 66.8109 79.6598 66.3127 80.0507 66.2513C80.6256 66.1517 81.3079 65.9754 81.3539 65.3545C81.3539 64.9712 81.0779 64.5266 80.7636 64.7566C80.6982 64.8025 80.65 64.8688 80.6264 64.9451C80.6028 65.0214 80.6052 65.1034 80.6333 65.1782C80.7483 65.4771 80.503 65.4541 76.8006 66.259C76.7325 66.28 76.6748 66.3259 76.6391 66.3875C76.6033 66.4491 76.592 66.5219 76.6075 66.5915C76.6229 66.661 76.664 66.7222 76.7225 66.7629C76.781 66.8035 76.8526 66.8207 76.9232 66.8109ZM26.5072 48.0462C26.6759 48.2379 27.0898 48.0462 26.9672 47.7549C26.2006 45.8846 24.7901 43.7996 23.901 41.7453C23.763 41.4157 23.487 40.8562 23.2187 40.8255C23.1851 40.8208 23.1509 40.8254 23.1198 40.839C23.0886 40.8525 23.0619 40.8744 23.0424 40.9022C22.8738 41.1321 23.1191 41.7683 23.2341 42.0366C23.5867 42.7955 25.2961 46.6588 26.5072 48.0462ZM51.3588 44.8115C51.3731 44.8713 51.4029 44.9264 51.4452 44.9711C51.4874 45.0159 51.5406 45.0488 51.5995 45.0667C51.6584 45.0845 51.721 45.0866 51.7809 45.0727C51.8409 45.0589 51.8962 45.0296 51.9414 44.9878C52.5742 44.4115 53.1493 43.7748 53.6584 43.0868C55.9581 50.4455 55.9581 50.7061 56.3183 50.7061C56.37 50.7047 56.4207 50.6921 56.4671 50.6693C56.5135 50.6466 56.5544 50.6141 56.5871 50.5741C56.6199 50.5341 56.6436 50.4876 56.6567 50.4376C56.6699 50.3876 56.6721 50.3354 56.6633 50.2845C55.8048 47.571 54.9002 44.9188 54.1183 42.2129C54.1008 42.1457 54.0638 42.0851 54.012 42.0388C53.9601 41.9925 53.8958 41.9626 53.827 41.9528C53.7582 41.9429 53.688 41.9537 53.6253 41.9836C53.5626 42.0135 53.5101 42.0613 53.4744 42.1209C53.0343 42.8133 52.5202 43.4559 51.9414 44.0373C51.4814 41.937 50.4083 37.1385 50.4083 37.1385C50.3889 37.0612 50.3397 36.9948 50.2714 36.9539C50.2032 36.9129 50.1214 36.9007 50.0441 36.92C49.9669 36.9394 49.9005 36.9886 49.8595 37.0568C49.8185 37.1251 49.8064 37.2069 49.8257 37.2841C50.0863 38.4723 51.1978 44.2826 51.3588 44.8115ZM11.4292 84.6864C8.96089 83.5059 6.76089 82.2948 4.23128 80.9611C3.74069 80.7004 3.4034 81.5973 4.16995 81.8042C6.3785 83.1827 8.73351 84.3114 11.1916 85.1693C11.4982 85.2536 11.7128 84.855 11.4292 84.6864ZM13.3915 66.9872C13.4442 67.0338 13.5099 67.0632 13.5798 67.0714C13.6497 67.0797 13.7204 67.0663 13.7825 67.0332C14.2884 66.7879 13.6368 66.1823 13.8821 62.5413C20.0989 70.0457 19.7539 69.854 20.0145 69.854C20.0685 69.8574 20.1223 69.8453 20.1696 69.8191C20.2169 69.7929 20.2557 69.7537 20.2815 69.7062C20.3073 69.6586 20.319 69.6047 20.3151 69.5508C20.3113 69.4969 20.2921 69.4452 20.2598 69.4018C19.2863 68.1753 15.0243 62.8786 13.8898 61.4375C13.8471 61.3835 13.7899 61.3428 13.7248 61.3203C13.6597 61.2977 13.5896 61.2943 13.5226 61.3105C13.4557 61.3266 13.3947 61.3616 13.3471 61.4113C13.2994 61.461 13.2669 61.5233 13.2536 61.5908C13.0977 62.9907 13.0721 64.4021 13.1769 65.8067C10.8773 63.7448 8.67727 61.5602 6.35462 59.5519C6.28431 59.4954 6.19635 59.4656 6.10621 59.4676C6.01608 59.4696 5.92953 59.5033 5.8618 59.5628C5.79406 59.6223 5.74946 59.7038 5.73585 59.7929C5.72224 59.882 5.74048 59.9731 5.78737 60.0501C6.6919 61.4528 11.7971 65.5385 13.3915 66.9872ZM73.857 38.5566C73.857 38.6318 73.8869 38.7039 73.9401 38.7571C73.9933 38.8103 74.0654 38.8402 74.1406 38.8402C74.2159 38.8402 74.288 38.8103 74.3412 38.7571C74.3944 38.7039 74.4243 38.6318 74.4243 38.5566C74.5557 35.7411 74.4377 32.9195 74.0716 30.1247C74.0638 30.051 74.0347 29.9811 73.9878 29.9236C73.941 29.8661 73.8786 29.8234 73.808 29.8007C73.7374 29.7779 73.6617 29.7762 73.5901 29.7956C73.5186 29.815 73.4542 29.8548 73.4047 29.9101C73.0598 30.3547 73.8877 31.7575 73.857 38.5566ZM94.5999 51.8712C100.433 42.029 100.119 42.5195 100.073 42.3432C99.9427 41.8987 99.5748 42.1133 96.6235 43.0025C97.3901 40.2813 98.3483 37.3761 98.9845 34.6243C98.9977 34.5353 98.9772 34.4446 98.9269 34.37C98.8766 34.2954 98.8003 34.2423 98.7128 34.2212C98.6254 34.2 98.5332 34.2124 98.4544 34.2558C98.3756 34.2991 98.3159 34.3704 98.287 34.4556C97.4208 37.5218 96.5622 40.5189 95.7343 43.4624C95.721 43.5232 95.7233 43.5865 95.741 43.6462C95.7588 43.7059 95.7914 43.7601 95.8358 43.8038C95.8802 43.8475 95.935 43.8791 95.995 43.8958C96.0551 43.9125 96.1183 43.9137 96.1789 43.8993C96.1789 43.8993 98.2103 43.2707 99.0305 43.0025L94.1323 51.6106C94.1033 51.6721 94.0988 51.7423 94.1196 51.807C94.1404 51.8717 94.185 51.9261 94.2444 51.9592C94.3038 51.9923 94.3735 52.0016 94.4395 51.9853C94.5054 51.9689 94.5628 51.9282 94.5999 51.8712ZM149.408 74.3536C149.01 74.1619 141.635 78.7458 141.559 78.7994C141.29 78.9911 141.559 79.4663 141.835 79.3207C142.279 79.1214 149.324 75.2044 149.561 74.7828C149.58 74.7446 149.59 74.7031 149.592 74.6608C149.594 74.6185 149.588 74.5763 149.574 74.5364C149.56 74.4965 149.538 74.4598 149.509 74.4285C149.481 74.3971 149.446 74.3716 149.408 74.3536ZM129.892 65.5921C129.892 65.5921 137.281 59.9581 138.661 58.885C138.96 58.6473 138.661 58.1184 138.309 58.1568C136.918 58.1899 135.532 58.3464 134.169 58.6244C136.148 56.5135 137.9 54.2013 139.397 51.7256C139.65 51.3117 139.037 50.8824 138.791 51.304C137.103 54.0588 135.093 56.6036 132.805 58.885C132.559 59.1226 132.713 59.7052 133.111 59.6515C134.464 59.307 135.844 59.0762 137.235 58.9616C137.235 58.9616 131.379 63.6758 129.57 65.1705C129.539 65.2194 129.525 65.2764 129.527 65.3339C129.53 65.3914 129.55 65.4467 129.585 65.4925C129.62 65.5382 129.668 65.5723 129.723 65.5901C129.778 65.6079 129.837 65.6086 129.892 65.5921ZM119.321 43.4011C124.028 35.2912 124.848 34.1107 124.058 33.9114C123.721 33.8271 123.736 33.8577 118.792 43.1098C118.769 43.178 118.771 43.2522 118.797 43.3193C118.823 43.3865 118.871 43.4424 118.935 43.4771C118.998 43.5119 119.071 43.5233 119.142 43.5094C119.212 43.4955 119.276 43.4571 119.321 43.4011Z" fill="white"/>
<path d="M141.045 93.4326C137.918 83.5673 130.014 75.9787 119.344 72.6212C119.337 72.4259 119.316 72.2313 119.283 72.0387C122.196 70.7662 122.847 66.3894 122.203 62.5797C122.763 61.6675 124.25 56.9764 123.154 57.6202L121.153 58.8007C120.869 58.0342 120.54 57.3213 120.187 56.6161C120.264 55.3896 119.145 53.1974 117.175 51.7639C115.366 50.4455 112.253 49.2651 107.715 51.1507C104.174 52.6225 100.18 55.8726 99.5747 60.5944C98.8082 66.7266 100.84 69.7008 97.0451 75.3961C92.8524 73.4977 88.3833 72.2815 83.8068 71.7934C83.807 71.4499 83.7839 71.1067 83.7378 70.7662C85.6925 69.7774 86.1064 66.558 86.1908 65.5078C88.4904 63.5149 88.7587 59.5442 86.9573 59.4523C87.4203 56.6077 87.5974 53.724 87.4862 50.8441C87.3866 49.0581 86.62 48.6595 86.2674 48.5828C86.0186 48.5358 85.7615 48.5597 85.5257 48.6519C85.2898 48.7441 85.0846 48.9008 84.9336 49.1041C84.3587 47.9313 83.2549 48.0769 82.634 48.9661C82.573 48.6505 82.4144 48.3621 82.1805 48.1416C81.9467 47.921 81.6494 47.7796 81.3308 47.7372C81.0122 47.6949 80.6883 47.7537 80.4049 47.9054C80.1216 48.0572 79.8931 48.2942 79.7517 48.5828C79.6031 48.2664 79.3638 48.0013 79.0641 47.8212C78.7645 47.6411 78.4181 47.5541 78.0689 47.5714C77.7197 47.5886 77.3835 47.7093 77.1031 47.9181C76.8226 48.1268 76.6106 48.4143 76.4939 48.7438C75.7274 47.0804 73.7726 47.4637 73.3357 49.1501C72.7608 47.8546 71.1894 47.8623 70.6451 49.3647C69.2117 48.3069 68.0848 49.3647 67.8549 51.1047C67.7156 54.0635 67.8387 57.0288 68.2228 59.9658C65.6242 59.3833 67.6479 65.4695 69.1963 65.6152C69.4646 67.9148 70.4152 70.4443 72.2625 71.0575C72.2625 71.3641 72.2166 71.6784 72.2166 71.985C67.2603 72.7765 62.4905 74.4677 58.1427 76.9751C55.7511 75.2888 50.4312 72.9968 45.3183 73.4184C44.3919 71.4612 43.6948 69.4035 43.241 67.2862C42.9037 65.4389 43.7699 64.7107 43.7622 63.1163C44.7547 61.1162 45.002 58.828 44.4598 56.6621C42.0451 48.9968 27.4577 51.9096 27.8716 60.3261C27.9253 61.2843 28.0096 62.2424 28.0939 62.986C26.2925 63.5302 26.5608 63.6605 27.0591 65.8528C27.3274 67.0486 27.634 68.0374 28.8911 67.7768C29.4661 70.268 30.9148 74.2463 34.3336 74.2463C34.5406 74.2463 34.3336 74.116 34.5253 75.4038C25.9476 79.1368 15.1776 86.1352 12.3873 98.3997C11.7128 101.358 11.3065 105.559 13.2382 108.733C15.3615 112.266 19.1176 112.489 21.8159 112.312C21.1843 115.782 20.9809 119.317 21.2103 122.837C21.2117 122.886 21.2266 122.934 21.2533 122.975C21.2801 123.016 21.3177 123.049 21.362 123.071C21.4063 123.092 21.4556 123.101 21.5046 123.096C21.5535 123.091 21.6002 123.073 21.6396 123.044C22.0535 122.798 21.241 122.538 22.5364 112.259C29.7573 111.592 36.641 108.487 43.0033 105.222C44.0535 105.988 45.096 106.755 46.1768 107.445C47.0655 109.241 48.4272 110.762 50.1156 111.842C51.8039 112.923 53.7549 113.523 55.7587 113.577C55.5671 116.804 55.5671 120.039 55.7587 123.266C55.7616 123.305 55.7723 123.343 55.7901 123.378C55.808 123.413 55.8327 123.443 55.8628 123.468C55.8928 123.493 55.9276 123.512 55.965 123.523C56.0025 123.535 56.0418 123.538 56.0807 123.534C56.7399 123.473 55.889 123.143 56.4103 113.569C62.788 113.569 68.0235 109.407 73.2744 106.226C79.4528 109.054 94.5998 114.321 102.61 112.803C102.978 116.068 102.925 119.165 103.239 122.323C103.249 122.38 103.279 122.431 103.323 122.468C103.367 122.505 103.423 122.525 103.48 122.525C103.538 122.525 103.594 122.505 103.638 122.468C103.682 122.431 103.712 122.38 103.722 122.323C103.923 119.096 103.792 115.857 103.331 112.657C108.888 111.339 112.299 107.422 113.204 101.335C113.572 101.09 113.971 100.814 114.384 100.5C119.129 102.393 128.949 107 133.748 107.169C133.525 110.733 133.211 114.497 133.157 118.191C133.168 118.254 133.2 118.311 133.249 118.351C133.297 118.392 133.358 118.415 133.422 118.415C133.485 118.415 133.546 118.392 133.595 118.351C133.643 118.311 133.676 118.254 133.686 118.191C133.794 117.172 134.491 108.472 134.453 107.146C142.134 106.969 143.345 100.684 141.045 93.4326ZM86.3441 60.671C86.551 60.3951 86.666 60.0731 86.965 60.1651C88.0381 60.4794 87.1796 63.1469 86.2827 64.3351C86.3594 63.1163 86.3824 61.8822 86.3441 60.671ZM68.0465 60.671C68.2918 60.671 68.2612 60.7784 68.8131 60.8857L69.1197 64.6723C67.9852 63.6222 67.165 60.6864 68.0465 60.6864V60.671ZM121.306 59.9045C121.339 59.7968 121.413 59.7063 121.512 59.6532C121.611 59.6 121.728 59.5884 121.835 59.6209C121.943 59.6534 122.034 59.7274 122.087 59.8266C122.14 59.9258 122.151 60.0421 122.119 60.1498C121.851 61.1003 121.644 61.7902 121.467 62.4494C121.422 62.5314 121.358 62.6018 121.281 62.655C121.204 62.7082 121.116 62.7428 121.023 62.756C120.348 62.779 121.069 60.5944 121.306 59.8892V59.9045ZM108.405 62.9706C108.842 62.641 109.371 63.0626 109.456 63.0703C110.176 63.5302 110.989 62.8633 110.782 62.6717L110.628 62.549C110.061 62.1044 108.896 61.1846 109.141 60.5561C109.325 60.0808 110.076 60.1498 110.567 60.1268C110.584 60.1263 110.602 60.1218 110.617 60.1137C110.632 60.1056 110.646 60.0941 110.656 60.0801C110.666 60.0661 110.673 60.0499 110.677 60.0327C110.68 60.0156 110.679 59.998 110.674 59.9812C110.598 59.7359 110.506 59.4906 110.414 59.2146C113.311 57.7779 116.487 56.993 119.72 56.915C120.049 57.6816 120.333 58.4098 120.586 59.1303C119.628 59.6745 118.539 60.2724 118.286 61.3609C118.058 61.3326 117.827 61.3558 117.61 61.4288C117.392 61.5017 117.194 61.6226 117.029 61.7825C115.826 60.3338 110.843 60.4564 109.839 60.4947C108.543 60.5484 111.962 63.1623 112.905 63.8981C116.071 66.3587 118.141 64.6647 117.351 62.4187C117.462 62.283 117.607 62.1799 117.772 62.1205C117.937 62.0611 118.114 62.0476 118.286 62.0815C118.315 62.2271 118.361 62.3687 118.424 62.503C118.386 62.4841 118.344 62.4743 118.302 62.4743C118.259 62.4743 118.217 62.4841 118.179 62.503C117.865 62.7023 118.179 62.9706 118.899 64.2507C118.811 64.3411 118.716 64.4256 118.616 64.5037C118.325 64.7183 118.578 65.6535 119.551 64.5037C119.697 64.3274 119.421 63.8138 119.114 63.3616C119.484 63.6138 119.928 63.7356 120.375 63.7078C120.821 63.6801 121.246 63.5043 121.582 63.2083C121.917 65.2662 121.728 67.3754 121.03 69.3405C120.264 71.2185 118.34 71.3258 118.731 72.0387C118.832 74.5659 118.626 77.0961 118.118 79.5737C116.148 79.1444 112.269 74.3383 110.72 72.1077C110.881 70.2438 110.64 68.3672 110.015 66.604C109.502 65.7148 108.482 65.3085 108.214 64.3044C108.109 64.0805 108.071 63.831 108.105 63.5862C108.139 63.3413 108.244 63.1116 108.405 62.9246V62.9706ZM120.026 61.6905C119.942 61.9435 119.888 62.2961 119.612 62.2961C119.336 62.2961 119.198 61.9741 119.229 61.6982C119.26 61.4222 119.336 60.786 119.628 60.6174C119.684 60.5897 119.745 60.5753 119.808 60.5753C119.87 60.5753 119.932 60.5897 119.988 60.6174C120.348 60.717 120.157 61.2536 120.026 61.6445V61.6905ZM115.895 63.4535C115.81 63.6605 115.726 64.0361 115.481 64.1511C115.438 64.1721 115.39 64.183 115.343 64.183C115.295 64.183 115.248 64.1721 115.205 64.1511C114.745 63.9825 115.251 62.2731 115.665 61.9435C115.701 61.9067 115.746 61.8796 115.795 61.8647C115.844 61.8499 115.897 61.8477 115.947 61.8584C115.997 61.8691 116.044 61.8923 116.083 61.9259C116.123 61.9596 116.152 62.0025 116.171 62.0508C116.332 62.4034 115.941 63.2926 115.895 63.4076V63.4535ZM114.216 62.71C114.116 62.9093 114.07 63.0933 113.81 63.0933C113.748 63.0975 113.687 63.0867 113.631 63.0617C113.575 63.0366 113.525 62.9982 113.488 62.9498C113.45 62.9014 113.424 62.8444 113.414 62.7839C113.403 62.7234 113.407 62.6612 113.426 62.6027C113.511 62.3497 113.603 61.7748 113.909 61.6215C113.958 61.5991 114.01 61.5869 114.064 61.5856C114.117 61.5843 114.171 61.594 114.22 61.6142C114.27 61.6343 114.315 61.6644 114.352 61.7026C114.39 61.7407 114.419 61.7862 114.438 61.8362C114.545 62.0891 114.369 62.4341 114.216 62.71ZM110.383 72.5369C112.56 76.2929 118.294 81.7353 118.738 79.911C119.24 77.7453 119.472 75.526 119.428 73.3035C129.93 77.0135 137.059 83.8126 140.164 92.988C137.916 91.9155 135.447 91.3901 132.958 91.4549C132.851 88.933 129.394 84.0579 128.067 82.5938C127.799 82.2949 127.301 82.6781 127.592 82.9771C129.58 85.2285 131.102 87.8522 132.069 90.696C128.313 87.8675 120.747 83.9199 110.375 87.17C107.685 82.5774 103.756 78.8346 99.0381 76.3696C102.433 74.1495 106.337 72.8305 110.383 72.5369ZM70.4075 55.244C75.0172 53.9858 79.8606 53.8466 84.535 54.8377C84.4563 56.1367 84.4974 57.4402 84.6577 58.7317H84.5197C83.8834 55.8036 79.8054 54.8991 78.4333 57.9652C77.7323 57.7275 76.9726 57.7275 76.2716 57.9652C74.9455 55.2057 71.1051 56.0948 70.3998 58.8237H70.2542C70.4153 57.6377 70.4667 56.4394 70.4075 55.244ZM80.8326 61.5525C80.9706 61.1616 82.2124 58.2641 83.0172 58.1798C83.0842 58.179 83.1504 58.1941 83.2104 58.2239C83.2704 58.2538 83.3224 58.2975 83.3621 58.3514C83.4018 58.4054 83.4281 58.468 83.4388 58.5342C83.4495 58.6003 83.4442 58.668 83.4235 58.7317C82.7392 59.7065 82.1294 60.7314 81.5991 61.7978C81.4075 62.2731 80.6563 62.0891 80.8326 61.5525ZM79.7211 60.4794C79.6291 60.7094 79.2152 60.8473 79.0695 60.5791C78.9239 60.3108 79.2765 59.2913 80.273 57.7965C80.526 57.4209 80.7636 57.237 80.9706 57.2676C81.0379 57.2869 81.0995 57.3223 81.15 57.3708C81.2006 57.4194 81.2384 57.4795 81.2604 57.546C81.2823 57.6126 81.2876 57.6834 81.2758 57.7525C81.2641 57.8216 81.2356 57.8867 81.1929 57.9422C80.6095 58.7306 80.1158 59.5816 79.7211 60.4794ZM73.0521 61.7518C73.3817 61.0313 73.7497 60.3031 74.1023 59.5902C74.1399 59.5215 74.1953 59.4641 74.2628 59.4241C74.3302 59.3842 74.4072 59.3631 74.4855 59.3631C74.5639 59.3631 74.6409 59.3842 74.7083 59.4241C74.7757 59.4641 74.8312 59.5215 74.8688 59.5902C74.9169 59.663 74.9426 59.7483 74.9426 59.8355C74.9426 59.9227 74.9169 60.0081 74.8688 60.0808C74.5315 60.7477 74.1866 61.4452 73.8186 62.1198C73.5274 62.503 72.8221 62.2118 73.0521 61.7518ZM72.1246 60.786L72.0786 60.8397C71.8409 61.1846 71.243 60.9623 71.404 60.5254C71.8466 59.3477 72.4118 58.2198 73.0904 57.1603C73.42 56.7617 74.0869 57.1067 73.857 57.5743C73.3127 58.6627 72.6458 59.6822 72.1246 60.786ZM69.388 60.855C69.8786 60.648 70.0166 60.0885 70.1545 59.6056L70.3155 59.5596C70.2753 60.0914 70.3407 60.6258 70.5077 61.1323C70.6748 61.6388 70.9403 62.1072 71.289 62.5107C71.7025 62.9167 72.2206 63.1999 72.7856 63.3286C73.3505 63.4574 73.9402 63.4266 74.4887 63.2398C75.0372 63.053 75.5231 62.7175 75.892 62.2706C76.261 61.8238 76.4985 61.2833 76.5782 60.7094C76.499 61.4476 76.4657 62.19 76.4786 62.9323C76.4786 63.3922 76.3713 63.9671 76.9385 64.0054H77.7051C78.1037 64.0054 78.211 63.3156 77.751 63.3079H77.1838C77.1391 61.9422 77.2135 60.5751 77.4061 59.2223C77.4598 58.8467 76.9155 58.793 76.8388 59.1456C76.5016 60.7937 76.8388 59.8508 76.5399 58.6321C77.0751 58.4402 77.6604 58.4402 78.1956 58.6321C78.0269 59.2466 77.9936 59.8905 78.0982 60.5191C78.2027 61.1478 78.4426 61.7463 78.8012 62.2731C79.0744 62.6269 79.4204 62.918 79.8159 63.1265C80.2113 63.3349 80.647 63.456 81.0933 63.4814C81.5396 63.5069 81.9862 63.4361 82.4028 63.2739C82.8194 63.1117 83.1962 62.8619 83.5078 62.5414C84.2609 61.701 84.6617 60.6031 84.627 59.4752H84.7726C84.8646 60.1421 85.0026 61.062 85.7078 61.0083C85.6312 63.6298 85.8611 68.1217 83.7838 69.7621C83.5155 69.9767 83.2089 70.222 83.1706 70.4673C83.0746 71.2796 83.0746 72.1003 83.1706 72.9125C83.3929 75.0358 79.6751 79.2364 77.751 81.0301C74.0409 75.9863 72.9754 75.4881 72.9831 71.0652C72.9831 70.6206 72.9294 70.5516 72.6228 70.3983C69.5183 68.8959 69.8019 64.565 69.388 60.855ZM72.2549 72.6596C72.3392 75.0128 74.1866 78.1939 77.4444 81.6203C78.1037 82.4788 83.9294 75.3271 83.8145 73.7787V72.4833C99.5057 74.3306 110.751 83.3603 112.545 95.5328C106.029 94.2527 97.7963 95.7551 96.4012 96.0234C95.8029 92.2112 94.6754 88.5012 93.0514 85.0007C93.0239 84.9326 92.9706 84.8782 92.903 84.8495C92.8354 84.8207 92.7592 84.82 92.6911 84.8474C92.623 84.8749 92.5686 84.9282 92.5398 84.9958C92.5111 85.0634 92.5104 85.1396 92.5378 85.2077C93.9473 88.6626 94.9754 92.2611 95.604 95.9391C91.5719 91.6925 85.4395 89.8069 76.8925 90.1901C71.748 90.4286 66.6377 91.155 61.6305 92.3594C62.031 90.0219 62.9851 87.8141 64.4131 85.9206C64.4444 85.8635 64.4538 85.7969 64.4397 85.7334C64.4256 85.6698 64.3888 85.6136 64.3363 85.5751C64.2838 85.5367 64.219 85.5186 64.1542 85.5243C64.0893 85.5301 64.0288 85.5592 63.9838 85.6063C62.3731 87.5964 61.3155 89.9759 60.9176 92.5051C55.36 93.8382 49.9628 95.7683 44.8201 98.2617C45.5253 83.2454 59.4075 75.1968 72.2549 72.6596ZM39.0096 58.4634C39.0017 59.1912 39.0453 59.9187 39.1399 60.6404C36.3803 60.7094 31.9957 61.7825 28.7302 62.7943C28.6458 62.1198 28.4542 60.8933 28.4465 60.1651C31.7323 58.5992 35.3983 58.0086 39.0096 58.4634ZM36.572 62.5797C35.0389 65.1859 35.3685 65.6458 34.8549 65.6458C34.7973 65.6493 34.7396 65.6389 34.6869 65.6155C34.6341 65.5921 34.5877 65.5564 34.5517 65.5113C34.5156 65.4662 34.4909 65.4131 34.4796 65.3565C34.4684 65.2999 34.4709 65.2414 34.487 65.1859C35.1845 62.549 35.8514 62.0585 36.1887 61.9971C36.2622 61.9822 36.3386 61.9896 36.4078 62.0184C36.4771 62.0472 36.5362 62.0961 36.5774 62.1587C36.6187 62.2214 36.6402 62.295 36.6392 62.3701C36.6383 62.4451 36.6148 62.5181 36.572 62.5797ZM34.2033 63.1546C33.9197 63.6222 33.8507 64.2737 33.4368 64.1741C33.0228 64.0744 33.3218 63.1393 33.5671 62.641C33.8124 62.1428 34.027 62.1351 34.1727 62.1734C34.2547 62.1958 34.3277 62.2433 34.3814 62.3093C34.435 62.3753 34.4666 62.4565 34.4716 62.5414C34.4416 62.7669 34.3486 62.9794 34.2033 63.1546ZM28.5002 64.6877C28.4159 64.887 28.4082 65.5002 27.9943 65.5002C27.9137 65.5033 27.8345 65.4793 27.7691 65.4321C27.7038 65.3848 27.6562 65.317 27.634 65.2396C27.5934 64.7033 27.764 64.1724 28.1093 63.7602C28.1805 63.6965 28.27 63.657 28.365 63.6474C28.46 63.6378 28.5556 63.6585 28.6382 63.7065C28.8222 63.8291 28.7838 64.1511 28.5002 64.6647V64.6877ZM28.7838 66.4737C29.4814 63.9671 29.88 63.5992 30.1176 63.5455C30.1665 63.5343 30.2175 63.5369 30.2649 63.5532C30.3123 63.5694 30.3543 63.5986 30.3859 63.6375C30.4901 63.7583 30.5425 63.9153 30.5316 64.0744L29.5197 66.6883C29.4882 66.7859 29.4192 66.867 29.3279 66.9137C29.2366 66.9604 29.1305 66.9689 29.033 66.9374C28.9354 66.9059 28.8543 66.8369 28.8076 66.7456C28.7609 66.6544 28.7523 66.5483 28.7838 66.4507V66.4737ZM29.5504 67.6311C31.0222 67.2019 31.4974 67.3245 31.3364 65.0863C31.2828 64.45 31.1601 63.0013 31.804 63.0243C32.3253 63.0243 32.3406 65.4465 33.1148 66.1977C33.8891 66.9489 34.8932 66.42 35.7364 66.1977C38.0361 65.5692 37.5302 64.588 37.3615 61.5449L39.2932 61.3916C40.1594 65.8834 41.3246 62.5184 42.1065 62.0125C42.6047 61.6982 43.034 62.3881 43.126 62.917C43.3023 64.0514 42.3594 65.2932 42.5587 66.9566C43.0105 69.3641 43.7839 71.7 44.8584 73.9014C43.1796 77.0901 38.358 80.0336 36.2117 81.1987C35.3072 77.918 35.2305 73.6101 34.6786 73.6254C32.1337 73.6407 30.4626 71.7167 29.5197 67.6081L29.5504 67.6311ZM34.5943 76.1396C34.7323 77.2971 35.2995 82.2719 36.1274 81.8579C38.2124 80.8768 44.5594 76.7069 45.464 74.024C46.8054 74.3306 50.9908 73.5181 57.4911 77.4351C52.6943 80.3002 48.8452 84.5117 46.4221 89.5462C40.2208 88.7797 32.5476 87.8216 26.1009 91.2249C28.0709 86.5798 29.2514 86.1199 28.6918 85.7519C28.6629 85.7321 28.6302 85.7183 28.5958 85.7115C28.5614 85.7046 28.5259 85.7047 28.4915 85.7119C28.4572 85.719 28.4246 85.7331 28.3958 85.7531C28.367 85.7732 28.3425 85.7988 28.3239 85.8286C28.1246 86.1275 25.3267 90.7497 25.2577 91.6925C24.1769 92.3518 21.8695 94.0381 21.1796 95.3642C18.3616 95.4192 15.6155 96.2637 13.2535 97.8018C15.5838 88.7797 22.9504 81.2907 34.5636 76.1166L34.5943 76.1396ZM14.7176 109.614C11.7894 106.548 12.418 101.42 13.0236 98.6066C20.5051 93.6932 30.3936 95.7935 42.4284 104.862C38.381 106.594 20.6967 115.815 14.7176 109.614ZM21.9539 95.3489C28.0403 88.6111 36.8403 89.0403 46.1079 90.1825C43.7316 95.6632 43.5246 101.45 45.5099 106.172C38.611 101.006 30.4626 95.3259 21.9539 95.3259V95.3489ZM56.3566 112.979C48.8061 112.979 44.7511 106.349 44.8584 98.9899C55.5901 94.1684 64.965 91.7002 75.2368 90.9873C84.6193 90.3358 90.9357 92.0451 95.0751 96.353C74.8535 100.883 66.5058 112.956 56.3566 112.956V112.979ZM102.718 112.136C95.2131 113.83 82.7873 109.399 73.9566 105.866C88.0305 97.5565 100.694 94.4214 112.644 96.2841C113.587 104.846 110.061 110.473 102.718 112.136ZM113.35 100.531C113.748 96.0982 112.811 91.6482 110.659 87.7526C118.892 85.6216 125.844 86.8634 131.885 91.5392C123.951 92.1295 115.956 98.323 113.342 100.531H113.35ZM134.2 106.487C129.509 106.487 119.635 101.887 115.09 100.032C119.95 96.353 125.706 92.4514 132.636 92.1754C135.343 92.0083 138.043 92.6003 140.432 93.8848C142.486 100.814 141.459 106.441 134.192 106.487H134.2Z" fill="white"/>
</svg>
