<svg width="200" height="200" viewBox="0 0 200 200" fill="none" xmlns="http://www.w3.org/2000/svg">
<path fill-rule="evenodd" clip-rule="evenodd" d="M87.5923 85.4952C87.4523 85.7652 87.0424 88.4952 88.6524 88.4952C88.9336 88.4958 89.2057 88.395 89.4187 88.2114C89.6317 88.0277 89.7715 87.7735 89.8123 87.4952C90.1523 84.4352 88.1523 84.4452 87.5923 85.4952ZM102.092 85.4552C102.182 86.5152 102.302 87.4552 103.362 87.4552C103.644 87.4558 103.916 87.355 104.129 87.1714C104.342 86.9877 104.481 86.7335 104.522 86.4552C104.544 85.8118 104.473 85.1686 104.312 84.5452C103.732 83.4752 101.942 83.7352 102.092 85.4552ZM95.0923 95.1152C95.4023 95.1152 98.0924 94.9852 98.7224 94.4952C98.9124 94.3552 98.8923 94.0852 98.8923 93.8352C98.8324 90.9986 98.5583 88.1705 98.0723 85.3752C98.0723 85.2252 97.9424 85.1952 97.8624 85.2152C97.7824 85.2352 97.7423 85.3752 97.7523 85.6152C97.7523 86.4352 97.6824 86.7152 97.9724 91.3052C98.1624 94.3052 98.0823 93.4652 98.1423 93.9652C97.2046 94.3088 96.2417 94.5796 95.2624 94.7752C94.6124 94.9152 95.0723 95.1152 95.0923 95.1152ZM98.2523 102.035C97.5104 102.433 96.6923 102.668 95.8523 102.725C95.8099 102.725 95.7692 102.742 95.7392 102.772C95.7092 102.802 95.6924 102.843 95.6924 102.885C95.6924 102.928 95.7092 102.968 95.7392 102.998C95.7692 103.028 95.8099 103.045 95.8523 103.045C96.3222 103.214 96.824 103.275 97.3206 103.223C97.8172 103.171 98.2957 103.008 98.7205 102.746C99.1452 102.483 99.5054 102.129 99.7741 101.708C100.043 101.287 100.213 100.811 100.272 100.315C100.278 100.295 100.279 100.274 100.276 100.253C100.273 100.232 100.266 100.212 100.255 100.194C100.245 100.176 100.23 100.16 100.214 100.147C100.197 100.135 100.178 100.125 100.157 100.12C100.137 100.115 100.116 100.114 100.095 100.117C100.074 100.12 100.054 100.127 100.036 100.137C100.018 100.148 100.002 100.162 99.9895 100.179C99.9768 100.196 99.9676 100.215 99.9623 100.235C99.5574 100.973 98.9683 101.593 98.2523 102.035ZM53.4324 24.9152C56.0024 33.5052 65.0924 33.0852 66.1524 33.7252C66.1524 33.8252 68.2323 41.8352 69.0723 42.9352C69.5423 43.5452 70.6723 43.3052 71.4223 43.1652C73.1823 42.8152 75.2223 42.7052 76.7123 41.5152C77.0923 41.2052 76.8723 39.9452 76.7723 39.5152C76.4541 37.7171 76.013 35.943 75.4523 34.2052C75.2318 33.6809 75.0448 33.1432 74.8923 32.5952C75.5824 31.9839 76.333 31.4444 77.1323 30.9852C78.4518 30.0863 79.6255 28.9902 80.6124 27.7352C82.5218 24.9379 83.3849 21.5575 83.0503 18.1873C82.7156 14.817 81.2046 11.6723 78.7823 9.30518C71.3723 2.03519 57.9723 4.40518 53.6223 13.5752C52.1323 16.7552 52.4224 21.5752 53.4324 24.9152ZM76.2523 41.0352C74.9223 42.1052 72.9623 42.2452 71.2523 42.5952C70.7923 42.6952 69.7024 42.9652 69.4124 42.5952C68.8465 41.7784 68.4394 40.8625 68.2123 39.8952C70.8027 39.5301 73.3362 38.8379 75.7523 37.8352C76.0792 38.8706 76.2478 39.9494 76.2523 41.0352ZM75.6423 37.4252C73.0872 37.9014 70.5778 38.5973 68.1423 39.5052C67.8841 38.3446 67.55 37.2021 67.1423 36.0852C69.726 35.8146 72.2599 35.1887 74.6723 34.2252C75.0758 35.2823 75.4099 36.3646 75.6723 37.4652L75.6423 37.4252ZM54.2523 13.8852C58.4423 5.22519 71.2523 3.03518 78.2523 9.88518C80.5275 12.1168 81.9508 15.0736 82.2759 18.2439C82.6009 21.4142 81.8073 24.5983 80.0323 27.2452C78.3023 29.6852 74.8024 31.3652 74.2624 32.2452C74.0724 32.5552 74.4223 33.3452 74.6423 33.9052C73.5023 34.1252 72.2523 34.3952 71.1323 34.6452C70.8323 33.2752 69.4324 27.7452 68.9124 26.4452C68.7124 25.9252 68.5323 25.9652 68.0023 26.1152C65.0823 26.1152 61.8723 25.3752 60.8424 22.6252C60.7179 22.3028 60.6307 21.9673 60.5824 21.6252C60.4424 20.1852 61.5824 18.5052 62.8424 18.6252C62.6623 19.7252 62.8423 21.8252 63.7823 22.4552C64.7223 23.0852 65.7823 22.0852 65.7823 21.1852C65.729 20.5362 65.5181 19.91 65.1678 19.3611C64.8175 18.8121 64.3385 18.357 63.7724 18.0352C63.9295 17.6782 64.1625 17.3596 64.4551 17.1016C64.7476 16.8437 65.0928 16.6524 65.4667 16.5411C65.8406 16.4298 66.2342 16.4011 66.6202 16.4571C67.0062 16.513 67.3755 16.6523 67.7023 16.8652C66.9123 18.4052 67.7023 21.9352 69.1023 21.1052C70.5023 20.2752 70.0423 18.2352 69.1723 17.1052C68.7523 16.5552 68.6624 16.7052 68.8724 16.5452C70.5024 15.3552 72.3523 16.7352 73.1323 18.5452C74.2523 21.0352 71.8524 24.1052 70.3324 25.0352C70.2952 25.0577 70.2686 25.0941 70.2582 25.1363C70.2479 25.1785 70.2548 25.2231 70.2774 25.2602C70.2999 25.2973 70.3363 25.324 70.3785 25.3343C70.4207 25.3446 70.4652 25.3377 70.5023 25.3152C72.3623 24.2252 74.7123 21.0152 73.6423 18.3152C72.5723 15.6152 69.8824 14.5752 68.1824 16.1852C67.7543 15.8915 67.2658 15.6976 66.7529 15.6177C66.2399 15.5379 65.7156 15.5741 65.2185 15.7238C64.7214 15.8735 64.2643 16.1328 63.8807 16.4827C63.4972 16.8325 63.197 17.2639 63.0023 17.7452C61.1423 17.5052 59.5723 19.6752 59.7823 21.6452C59.8953 22.5159 60.2244 23.3445 60.7397 24.0554C61.255 24.7663 61.94 25.3369 62.7323 25.7152C63.6723 26.1652 67.0124 26.9852 68.3324 26.6052C68.7924 27.6052 70.4624 33.4752 70.7624 34.7052C66.3224 35.7052 67.2223 36.1752 67.0023 35.5252C66.7423 34.7152 66.5824 33.5252 66.3624 33.4452C60.8424 32.1952 55.8623 31.2752 54.0023 24.7252C53.0923 21.5552 52.8523 16.8552 54.2523 13.8852ZM63.5323 18.8252C63.9113 19.0941 64.2279 19.4413 64.4609 19.8433C64.6938 20.2453 64.8375 20.6927 64.8823 21.1552C64.8823 21.4252 64.2724 22.1552 63.8824 21.3552C63.5838 20.5474 63.4776 19.6811 63.5723 18.8252H63.5323ZM68.2523 17.2952C69.0523 18.0752 69.5524 19.8952 68.6824 20.4252C68.3808 19.969 68.1856 19.4509 68.1111 18.9091C68.0367 18.3674 68.085 17.8158 68.2523 17.2952ZM38.2523 55.4652C42.3224 54.1952 47.2524 55.2952 49.1524 59.7952C52.4424 67.4152 43.7424 71.2952 43.8324 71.6952C44.0324 72.6952 44.3924 74.4452 44.5424 75.4552C44.5543 75.5401 44.5994 75.6167 44.6679 75.6683C44.7363 75.7198 44.8225 75.7421 44.9073 75.7302C44.9922 75.7182 45.0689 75.6731 45.1204 75.6046C45.172 75.5362 45.1943 75.4501 45.1824 75.3652C45.0624 74.3652 44.9324 72.9252 44.7924 71.8852C46.2062 71.318 47.5145 70.5168 48.6623 69.5152C55.7223 61.1852 47.8424 50.6752 37.7724 53.9652C36.1778 54.4301 34.7675 55.3799 33.7372 56.6826C32.7068 57.9853 32.1075 59.5764 32.0224 61.2352C31.7024 65.1752 34.8423 68.5752 39.9123 68.1352C39.9888 68.1217 40.058 68.0818 40.1079 68.0223C40.1578 67.9629 40.1851 67.8878 40.1851 67.8102C40.1851 67.7326 40.1578 67.6575 40.1079 67.598C40.058 67.5386 39.9888 67.4986 39.9123 67.4852C35.4123 67.7152 33.0024 64.4852 33.4324 61.3852C33.532 60.0233 34.0478 58.725 34.91 57.666C35.7721 56.6071 36.9389 55.8388 38.2523 55.4652ZM112.942 29.3752C113.027 29.3977 113.118 29.3856 113.194 29.3416C113.269 29.2975 113.325 29.2251 113.347 29.1402C113.37 29.0553 113.358 28.965 113.314 28.889C113.27 28.8131 113.197 28.7577 113.112 28.7352C108.782 27.5152 107.532 23.6852 108.932 20.8752C109.478 19.6202 110.396 18.5632 111.562 17.8477C112.728 17.1321 114.087 16.7926 115.452 16.8752C122.972 17.0652 126.272 23.9852 123.452 28.9252C121.582 32.3052 119.082 33.2152 115.882 33.6352C115.781 33.6494 115.688 33.6961 115.615 33.7683C115.543 33.8404 115.497 33.9341 115.482 34.0352C115.372 34.9552 115.132 36.7652 114.952 37.8152C114.935 37.8987 114.952 37.9857 114.999 38.057C115.046 38.1282 115.119 38.1779 115.202 38.1952C115.286 38.2124 115.373 38.1958 115.444 38.1489C115.515 38.102 115.565 38.0287 115.582 37.9452C115.812 36.8652 116.122 35.5952 116.332 34.5252C117.852 34.4435 119.346 34.1054 120.752 33.5252C124.142 31.5252 126.202 28.3652 125.932 24.3652C125.302 14.9752 111.602 11.6152 107.662 20.3652C106.132 23.9252 107.992 28.2552 112.942 29.3752ZM168.502 76.2952C168.388 74.4416 167.727 72.6634 166.602 71.1852C165.521 69.9683 164.202 68.9856 162.726 68.2977C161.251 67.6098 159.65 67.2312 158.022 67.1852C156.366 67.1084 154.726 67.5483 153.331 68.4441C151.935 69.3398 150.852 70.6472 150.232 72.1852C148.662 75.8152 150.552 80.0452 155.482 81.2452C155.526 81.265 155.574 81.2749 155.622 81.2742C155.67 81.2736 155.718 81.2624 155.761 81.2415C155.805 81.2205 155.843 81.1904 155.873 81.153C155.904 81.1157 155.926 81.0722 155.938 81.0255C155.95 80.9788 155.951 80.9301 155.942 80.8827C155.933 80.8354 155.914 80.7906 155.886 80.7515C155.858 80.7124 155.821 80.6799 155.779 80.6564C155.737 80.6328 155.69 80.6188 155.642 80.6152C151.342 79.3152 150.062 75.6152 151.472 72.7552C152.018 71.5002 152.936 70.4432 154.102 69.7277C155.268 69.0121 156.627 68.6726 157.992 68.7552C159.379 68.7937 160.744 69.1131 162.004 69.6941C163.264 70.275 164.393 71.1055 165.322 72.1352C166.259 73.3577 166.816 74.8288 166.922 76.3652C167.632 85.1852 158.132 85.2152 158.042 85.9152C157.922 86.9152 157.702 88.6752 157.512 89.6952C157.495 89.7787 157.512 89.8657 157.559 89.937C157.606 90.0082 157.679 90.0579 157.762 90.0752C157.846 90.0924 157.933 90.0758 158.004 90.0289C158.075 89.982 158.125 89.9087 158.142 89.8252C158.382 88.7552 158.682 87.4752 158.892 86.4052C160.414 86.3197 161.911 85.9818 163.322 85.4052C166.662 83.4452 168.772 80.3352 168.502 76.2952ZM48.9924 83.0352C49.4224 81.2552 48.1323 79.3852 46.8523 79.5352C46.0222 79.4454 45.1862 79.422 44.3523 79.4652C42.1823 79.9852 41.1624 82.8252 43.2024 84.2152C45.5424 85.7752 48.5724 84.6952 48.9924 83.0352ZM47.4423 82.8352C47.0872 83.1315 46.6522 83.3159 46.1923 83.3652C43.4723 83.7452 42.8924 81.3652 44.7224 80.5852L46.8723 80.1852C47.8023 80.2652 48.0123 82.2552 47.4423 82.7852V82.8352ZM114.122 41.6352C111.792 40.7852 109.272 43.4152 110.922 45.6352C112.572 47.8552 115.842 47.8552 116.782 46.3752C117.722 44.8952 117.152 42.6552 115.892 42.3752C115.782 42.3252 114.912 41.9252 114.122 41.6352ZM115.382 45.6352C114.935 45.7874 114.456 45.8214 113.992 45.7338C113.527 45.6462 113.093 45.44 112.732 45.1352C112.437 44.923 112.194 44.6459 112.022 44.3252C111.732 43.5152 112.772 42.6852 113.532 42.6352L115.692 42.9452C116.532 43.3952 116.112 45.3552 115.382 45.6652V45.6352ZM158.422 94.3152C158.222 94.2252 157.192 93.7952 156.662 93.5952C154.322 92.7452 151.812 95.3752 153.462 97.5952C155.112 99.8152 158.372 99.8152 159.322 98.3352C160.272 96.8552 159.692 94.5952 158.422 94.3152ZM157.912 97.6252C157.465 97.7764 156.986 97.8099 156.522 97.7223C156.058 97.6347 155.624 97.4291 155.262 97.1252C154.969 96.9062 154.727 96.6264 154.552 96.3052C154.272 95.5052 155.302 94.6752 156.062 94.6252L158.222 94.9352C159.062 95.3552 158.642 97.3052 157.912 97.6252Z" fill="white"/>
<path fill-rule="evenodd" clip-rule="evenodd" d="M150.252 149.475C148.252 139.635 140.472 124.475 131.132 120.605L129.252 116.675C129.239 116.647 129.219 116.621 129.195 116.601C129.171 116.581 129.143 116.566 129.113 116.557C129.082 116.549 129.05 116.547 129.019 116.552C128.988 116.556 128.958 116.568 128.932 116.585L126.932 117.875C126.297 113.631 124.357 109.689 121.382 106.595C123.462 103.385 126.792 102.405 130.232 102.255C133.082 102.135 135.182 101.965 136.832 99.5252C140.102 94.7052 139.332 90.0052 135.492 85.5252C129.642 78.7052 127.342 80.7452 124.492 76.9752C119.072 69.8952 117.842 59.4252 109.862 53.9752C99.662 47.0652 94.162 52.6352 92.022 54.3552C88.892 52.4552 81.912 53.1152 78.912 55.6852C76.362 57.8652 72.982 60.6852 71.672 63.8352C68.882 70.4852 69.182 78.3552 65.102 84.3852C64.102 85.8852 62.392 86.8952 61.182 88.3152C59.5212 90.3976 58.1083 92.6662 56.972 95.0752C55.492 97.8752 54.362 100.985 55.712 103.885C57.522 107.765 61.572 111.465 65.892 111.185C68.392 111.015 71.702 109.515 74.052 110.505C75.452 111.085 75.992 112.435 77.052 113.565C79.452 116.235 85.052 117.045 88.152 115.195C84.742 119.535 79.542 119.385 70.472 124.385C56.552 132.045 51.472 140.745 49.982 149.655C49.412 152.427 48.9914 155.228 48.722 158.045C47.862 172.575 52.272 190.995 66.572 194.045C70.492 194.885 74.982 195.425 78.862 194.455C86.212 192.625 94.982 187.675 101.422 183.655C104.422 181.785 115.522 174.295 120.682 173.315C120.993 175.984 121.665 178.598 122.682 181.085C126.812 189.575 133.422 194.595 142.682 192.415C148.682 191.005 150.392 184.615 150.552 178.495C153.562 172.035 151.172 154.175 150.252 149.475ZM115.652 102.655C117.432 102.985 118.652 104.655 119.972 106.015C123.462 109.505 125.862 113.245 126.582 118.015C123.692 119.855 121.812 121.015 121.772 121.075C121.732 121.135 120.342 117.595 119.502 117.165C118.245 116.541 117.105 115.706 116.132 114.695C115.382 113.865 114.462 112.405 114.582 111.305C115.114 111.022 115.694 110.843 116.292 110.775V110.155C113.202 110.245 112.142 113.065 111.862 113.695C111.662 114.145 111.382 114.595 110.742 114.525C110.102 114.455 109.872 113.715 110.112 113.055C110.352 112.395 110.932 109.495 115.022 108.865C115.073 108.858 115.123 108.841 115.167 108.814C115.212 108.788 115.251 108.753 115.282 108.712C115.313 108.671 115.335 108.624 115.348 108.574C115.361 108.524 115.364 108.471 115.357 108.42C115.35 108.369 115.333 108.32 115.306 108.275C115.28 108.231 115.245 108.192 115.204 108.161C115.163 108.129 115.116 108.107 115.065 108.094C115.015 108.081 114.963 108.078 114.912 108.085C114.056 108.194 113.226 108.455 112.462 108.855C111.775 109.191 111.165 109.665 110.671 110.249C110.177 110.832 109.81 111.512 109.592 112.245C109.112 113.615 107.432 113.005 107.832 111.825C108.235 110.677 108.833 109.608 109.602 108.665C110.455 107.852 111.481 107.24 112.602 106.875C113.482 106.515 114.232 106.685 114.432 106.395C114.632 106.105 114.162 105.135 113.922 104.845C112.632 103.305 108.922 104.635 107.502 102.915C106.592 101.785 108.502 101.745 109.272 101.645C111.432 101.405 113.482 102.245 115.652 102.655ZM119.322 127.435C116.463 128.367 113.547 129.112 110.592 129.665C111.592 123.975 112.272 119.095 112.172 117.325C114.502 117.775 117.172 118.095 120.092 118.575C120.882 119.885 121.312 120.985 121.502 121.295L119.562 122.525C119.462 122.655 119.482 122.115 119.322 127.435ZM108.462 156.325C108.905 158.245 109.219 160.193 109.402 162.155C105.302 161.895 102.172 161.945 100.632 161.885C100.692 159.075 100.722 158.205 100.772 157.615C103.296 156.976 105.868 156.544 108.462 156.325ZM92.732 131.695C98.405 131.736 104.07 131.274 109.662 130.315C107.882 139.915 105.172 151.455 103.892 153.765C100.952 145.745 101.252 145.715 92.732 131.695ZM104.732 153.635C106.352 150.005 108.812 139.175 110.452 130.155C113.437 129.596 116.38 128.834 119.262 127.875C118.952 138.675 118.862 152.155 119.512 162.985C117.612 162.815 114.852 162.575 112.172 162.365C112.002 160.745 111.332 155.105 110.762 153.625C110.612 153.225 110.432 153.065 109.762 153.045C108.09 153.118 106.425 153.316 104.782 153.635H104.732ZM108.302 115.485C107.289 114.893 106.48 114.007 105.982 112.945C106.445 113.14 106.928 113.285 107.422 113.375C107.609 113.586 107.851 113.742 108.121 113.825C108.391 113.907 108.678 113.915 108.952 113.845C109.402 113.705 109.112 113.645 109.352 114.275C109.444 114.529 109.599 114.755 109.803 114.932C110.007 115.109 110.252 115.232 110.517 115.288C110.781 115.344 111.055 115.332 111.313 115.253C111.571 115.173 111.805 115.03 111.992 114.835C112.382 114.485 112.412 114.065 112.882 113.165C113.342 113.075 113.792 112.955 114.232 112.825C115.422 115.945 119.152 117.455 119.412 117.685C115.022 117.035 111.132 116.625 108.352 115.485H108.302ZM89.132 114.285C91.532 111.505 91.042 109.515 88.572 107.545C83.572 103.625 84.192 104.675 82.092 100.295C79.622 93.1852 81.752 81.9852 83.582 74.6952C84.082 72.6952 87.492 70.5552 89.972 70.8752C93.412 71.3152 91.972 73.1252 94.912 74.1552C95.4224 74.3044 95.9504 74.3851 96.482 74.3952C96.5135 74.405 96.5467 74.4086 96.5796 74.4056C96.6125 74.4027 96.6444 74.3933 96.6737 74.3779C96.7029 74.3626 96.7289 74.3417 96.75 74.3163C96.7712 74.291 96.7872 74.2617 96.797 74.2302C96.8069 74.1987 96.8104 74.1655 96.8074 74.1326C96.8045 74.0998 96.7951 74.0678 96.7798 74.0385C96.7644 74.0093 96.7435 73.9833 96.7181 73.9622C96.6928 73.941 96.6635 73.925 96.632 73.9152C95.0724 72.9797 93.6347 71.8545 92.352 70.5652C92.962 68.0752 94.512 66.7152 97.422 66.6952C99.422 66.6952 101.002 68.2152 102.422 69.5152C104.142 71.0852 105.992 75.3252 105.852 77.6552C105.536 80.3551 106.169 83.0809 107.642 85.3652C108.642 87.1052 110.522 88.6152 111.642 90.0852C112.262 90.9052 111.902 94.5652 111.542 96.1752C111.072 97.5852 110.072 100.275 109.842 100.885C105.662 101.035 105.842 103.275 107.842 104.235C105.972 106.475 101.402 108.965 104.672 112.105C105.372 113.575 106.492 115.585 107.992 116.195C109.056 116.627 110.158 116.961 111.282 117.195C111.502 118.745 110.782 123.875 109.682 129.845C103.943 130.8 98.1295 131.238 92.312 131.155C88.702 125.245 85.112 119.645 84.202 118.745C86.2224 117.718 87.9392 116.181 89.182 114.285H89.132ZM82.312 119.555C84.312 118.805 83.312 118.935 83.792 119.305C84.272 119.675 87.572 124.905 91.402 131.115C86.862 131.045 81.752 130.705 79.822 130.485C80.402 130.025 78.902 122.125 78.322 121.125C79.772 120.545 81.112 120.035 82.362 119.555H82.312ZM77.582 121.435C78.4043 124.38 78.9631 127.392 79.252 130.435C74.9371 129.817 70.7043 128.72 66.632 127.165C70.1217 124.933 73.8028 123.016 77.632 121.435H77.582ZM78.492 193.735C74.742 194.675 70.352 194.125 66.572 193.315C60.662 192.045 56.572 188.095 53.912 183.035C49.682 175.035 48.422 163.145 49.712 154.815C49.972 153.145 50.302 151.495 50.582 149.815C52.172 140.285 57.962 133.105 66.042 127.675C73.972 130.585 79.302 131.605 91.762 131.675C100.392 145.675 100.582 147.075 103.052 153.925C102.292 154.065 98.772 154.775 98.172 155.265C97.932 155.455 97.932 155.835 98.172 161.845C89.072 162.025 80.172 163.445 71.802 168.845C70.802 161.635 71.952 159.455 74.282 155.325C77.942 148.835 77.282 147.635 74.972 143.945C74.5912 143.447 74.3187 142.875 74.172 142.265C74.172 142.025 73.172 141.695 74.582 144.175C76.582 147.815 77.122 148.675 73.582 154.925C70.992 159.505 69.932 161.855 71.492 169.055C70.792 169.525 69.992 170.055 69.222 170.675C68.0456 171.504 66.9417 172.43 65.922 173.445C65.9021 173.484 65.8983 173.528 65.9115 173.57C65.9246 173.611 65.9536 173.645 65.992 173.665C66.0305 173.685 66.0752 173.689 66.1165 173.676C66.1578 173.663 66.1921 173.634 66.212 173.595C66.522 173.045 71.692 169.595 73.082 168.885C80.842 164.975 89.422 161.595 103.472 162.525C103.295 168.47 103.91 174.413 105.302 180.195C98.082 184.755 87.822 191.415 78.542 193.735H78.492ZM105.922 179.795C104.637 174.156 104.069 168.377 104.232 162.595C119.412 163.595 114.652 163.275 119.552 163.595C119.732 166.515 120.002 169.685 120.402 172.595C116.482 173.325 109.432 177.625 105.972 179.795H105.922ZM142.262 191.695C133.432 193.785 127.162 188.965 123.182 180.805C118.782 171.805 119.512 132.715 119.762 122.755L128.902 117.095C141.242 143.745 142.722 146.265 145.492 155.095C149.072 166.345 153.792 189.035 142.312 191.695H142.262ZM150.322 176.395C150.09 171.04 149.265 165.728 147.862 160.555C144.692 148.225 141.262 142.045 131.772 122.095L132.052 121.945C140.432 126.425 147.532 140.335 149.392 149.625C150.412 154.475 152.362 170.335 150.372 176.395H150.322Z" fill="white"/>
</svg>
