<svg width="154" height="154" viewBox="0 0 154 154" fill="none" xmlns="http://www.w3.org/2000/svg">
<path d="M67.4564 19.3704C67.8013 22.0609 69.4571 22.4825 69.4571 22.4825C72.163 22.6665 71.2125 20.2519 71.2125 20.2519C68.4376 14.6946 61.6689 16.5419 61.6689 16.5419C61.6689 16.5419 67.0808 16.6799 67.4564 19.3704ZM106.665 29.7492C110.544 24.4372 103.661 20.3746 103.661 20.3746C104.114 22.4427 104.114 24.5844 103.661 26.6524C103.293 31.6886 106.665 29.7492 106.665 29.7492Z" fill="#4C2FB3"/>
<path d="M141.812 34.6397C141.812 34.6397 134.146 15.2465 106.719 7.42789C79.2921 -0.390721 58.5492 15.8597 58.5492 15.8597C84.8266 7.42789 89.8168 14.227 89.8168 14.227C89.8168 14.227 94.3088 19.3398 98.4405 18.7189C102.572 18.098 99.8203 14.1197 99.8203 14.1197C109.732 16.0974 111.357 21.9 113.794 26.8288C116.232 31.7576 119.16 29.2357 121.951 26.4608C124.741 23.686 127.677 27.0127 127.677 27.0127C130.171 30.4664 131.771 34.4835 132.336 38.7059C132.9 42.9283 132.411 47.2247 130.912 51.2121C125.829 65.255 134.606 66.0828 134.606 66.0828C152.429 62.9017 141.812 34.6397 141.812 34.6397ZM117.888 23.1418C116.416 23.6094 115.673 20.9725 115.673 20.9725C115.501 20.6241 115.463 20.2249 115.567 19.8505C115.67 19.4762 115.906 19.1526 116.232 18.9412C117.919 18.1746 118.532 20.3516 118.532 20.3516C118.532 20.3516 119.36 22.7048 117.88 23.1648L117.888 23.1418ZM140.279 44.459C140.469 44.4605 140.655 44.5078 140.823 44.5969C140.991 44.6859 141.135 44.8142 141.242 44.9706C141.35 45.1271 141.418 45.3073 141.441 45.4958C141.464 45.6842 141.442 45.8755 141.375 46.0534C140.976 47.5864 139.344 46.3676 139.344 46.3676C139.228 46.1879 139.161 45.9813 139.148 45.7679C139.136 45.5545 139.179 45.3415 139.273 45.1496C139.367 44.9576 139.509 44.7932 139.685 44.6722C139.861 44.5512 140.066 44.4778 140.279 44.459ZM138.201 60.9087C138.201 60.9087 137.512 60.3568 138.201 58.6091C138.772 56.8311 139.19 55.0079 139.451 53.1591C140.325 50.1543 142.218 52.2853 142.218 52.2853C142.218 52.2853 143.56 54.4085 141.528 58.5172C139.497 62.6258 138.201 60.9164 138.201 60.9164V60.9087ZM56.9931 45.992C57.0094 45.992 57.025 45.9856 57.0365 45.9741C57.048 45.9626 57.0545 45.947 57.0545 45.9307C57.0545 45.9145 57.048 45.8989 57.0365 45.8874C57.025 45.8759 57.0094 45.8694 56.9931 45.8694C56.9769 45.8694 56.9613 45.8759 56.9498 45.8874C56.9383 45.8989 56.9318 45.9145 56.9318 45.9307C56.9318 45.947 56.9383 45.9626 56.9498 45.9741C56.9613 45.9856 56.9769 45.992 56.9931 45.992ZM63.7848 50.9745C63.7122 51.0417 63.6325 51.1008 63.5471 51.1508C63.5373 51.1593 63.5305 51.1707 63.5276 51.1834C63.5247 51.196 63.5259 51.2093 63.531 51.2212C63.5361 51.2331 63.5449 51.2431 63.5561 51.2498C63.5672 51.2564 63.5802 51.2593 63.5931 51.2581C64.605 50.9822 63.6621 50.1773 63.5931 49.6407C63.5931 49.5258 63.3325 49.6407 63.8844 50.5452C63.9119 50.6187 63.917 50.6985 63.8993 50.7749C63.8816 50.8512 63.8417 50.9207 63.7848 50.9745ZM64.812 48.6059C64.7581 48.8741 64.7581 49.1503 64.812 49.4184C64.8212 49.4311 64.8333 49.4414 64.8473 49.4485C64.8613 49.4556 64.8767 49.4593 64.8924 49.4593C64.9081 49.4593 64.9236 49.4556 64.9376 49.4485C64.9516 49.4414 64.9637 49.4311 64.9729 49.4184C65.0081 49.1641 65.0081 48.9062 64.9729 48.6519C65.0266 48.5139 64.8273 48.4833 64.812 48.6059ZM61.6308 48.6902C61.5672 48.9871 61.6022 49.2966 61.7304 49.5717C61.7451 49.5857 61.763 49.5958 61.7826 49.6011C61.8021 49.6064 61.8227 49.6068 61.8424 49.6023C61.8622 49.5977 61.8805 49.5884 61.8957 49.575C61.9109 49.5616 61.9226 49.5447 61.9297 49.5258C61.9506 49.2434 61.9167 48.9597 61.8301 48.6902C61.82 48.6727 61.8055 48.6582 61.788 48.6481C61.7705 48.6379 61.7506 48.6326 61.7304 48.6326C61.7102 48.6326 61.6904 48.6379 61.6729 48.6481C61.6554 48.6582 61.6408 48.6727 61.6308 48.6902ZM60.7722 48.0463C60.9409 47.8854 61.6768 47.3565 61.8301 47.2108C61.9834 47.0652 61.6308 46.8582 60.6649 47.939C60.5959 48.008 60.7032 48.123 60.7722 48.0463ZM65.3945 47.7091C65.2096 47.4552 64.9682 47.2479 64.6893 47.1035C64.582 47.0575 64.4977 47.2492 64.6126 47.2951C64.7276 47.3411 65.4788 48.1307 65.3945 47.7091ZM61.0482 53.0595C61.0942 53.1131 61.1708 53.0595 61.1402 52.9905C60.9037 52.6825 60.7744 52.3056 60.7722 51.9173C61.6308 52.8602 62.5736 52.6302 62.2057 52.5305C61.6727 52.413 61.1838 52.1473 60.7952 51.764C60.6036 51.5801 60.4886 52.4002 61.0482 53.0595ZM56.3492 46.9119C56.3208 46.9119 56.2935 46.9232 56.2734 46.9433C56.2532 46.9634 56.2419 46.9907 56.2419 47.0192C56.2419 47.0477 56.2532 47.075 56.2734 47.0951C56.2935 47.1152 56.3208 47.1265 56.3492 47.1265C56.3777 47.1265 56.405 47.1152 56.4251 47.0951C56.4452 47.075 56.4566 47.0477 56.4566 47.0192C56.4566 46.9907 56.4452 46.9634 56.4251 46.9433C56.405 46.9232 56.3777 46.9119 56.3492 46.9119ZM57.2308 47.7167C57.2633 47.7167 57.2945 47.7038 57.3175 47.6808C57.3405 47.6578 57.3534 47.6266 57.3534 47.5941C57.3534 47.5616 57.3405 47.5304 57.3175 47.5074C57.2945 47.4844 57.2633 47.4714 57.2308 47.4714C57.1982 47.4714 57.167 47.4844 57.144 47.5074C57.121 47.5304 57.1081 47.5616 57.1081 47.5941C57.1081 47.6266 57.121 47.6578 57.144 47.6808C57.167 47.7038 57.1982 47.7167 57.2308 47.7167ZM57.3687 46.6896C57.3933 46.6831 57.415 46.6687 57.4304 46.6486C57.4459 46.6285 57.4543 46.6038 57.4543 46.5784C57.4543 46.5531 57.4459 46.5284 57.4304 46.5083C57.415 46.4882 57.3933 46.4738 57.3687 46.4673C57.3442 46.4738 57.3225 46.4882 57.3071 46.5083C57.2916 46.5284 57.2832 46.5531 57.2832 46.5784C57.2832 46.6038 57.2916 46.6285 57.3071 46.6486C57.3225 46.6687 57.3442 46.6831 57.3687 46.6896ZM58.5876 46.8582C58.6139 46.8515 58.6373 46.8361 58.654 46.8146C58.6707 46.7931 58.6798 46.7666 58.6798 46.7394C58.6798 46.7122 58.6707 46.6857 58.654 46.6642C58.6373 46.6427 58.6139 46.6274 58.5876 46.6206C58.5612 46.6274 58.5378 46.6427 58.5211 46.6642C58.5044 46.6857 58.4953 46.7122 58.4953 46.7394C58.4953 46.7666 58.5044 46.7931 58.5211 46.8146C58.5378 46.8361 58.5612 46.8515 58.5876 46.8582ZM58.8635 48.9432C59.0858 48.8665 58.7945 48.6136 58.7332 48.8129C58.7102 48.8742 58.7869 48.9738 58.8635 48.9432ZM58.4956 48.031C58.5139 48.031 58.5314 48.0237 58.5444 48.0108C58.5573 47.9979 58.5646 47.9803 58.5646 47.962C58.5646 47.9437 58.5573 47.9262 58.5444 47.9132C58.5314 47.9003 58.5139 47.893 58.4956 47.893C58.4773 47.893 58.4597 47.9003 58.4468 47.9132C58.4339 47.9262 58.4266 47.9437 58.4266 47.962C58.4266 47.9803 58.4339 47.9979 58.4468 48.0108C58.4597 48.0237 58.4773 48.031 58.4956 48.031ZM56.2802 48.2916C56.2599 48.2916 56.2404 48.2997 56.226 48.3141C56.2117 48.3285 56.2036 48.348 56.2036 48.3683C56.2036 48.3886 56.2117 48.4081 56.226 48.4225C56.2404 48.4369 56.2599 48.4449 56.2802 48.4449C56.3006 48.4449 56.3201 48.4369 56.3344 48.4225C56.3488 48.4081 56.3569 48.3886 56.3569 48.3683C56.3569 48.348 56.3488 48.3285 56.3344 48.3141C56.3201 48.2997 56.3006 48.2916 56.2802 48.2916ZM57.0851 51.4114C57.0661 51.4171 57.0495 51.4287 57.0376 51.4446C57.0258 51.4605 57.0194 51.4798 57.0194 51.4996C57.0194 51.5194 57.0258 51.5387 57.0376 51.5545C57.0495 51.5704 57.0661 51.5821 57.0851 51.5877C57.1041 51.5821 57.1208 51.5704 57.1326 51.5545C57.1444 51.5387 57.1508 51.5194 57.1508 51.4996C57.1508 51.4798 57.1444 51.4605 57.1326 51.4446C57.1208 51.4287 57.1041 51.4171 57.0851 51.4114ZM56.0963 49.3418C56.0637 49.3418 56.0326 49.3547 56.0096 49.3777C55.9865 49.4007 55.9736 49.4319 55.9736 49.4644C55.9736 49.497 55.9865 49.5281 56.0096 49.5512C56.0326 49.5742 56.0637 49.5871 56.0963 49.5871C56.1288 49.5871 56.16 49.5742 56.183 49.5512C56.206 49.5281 56.2189 49.497 56.2189 49.4644C56.2189 49.4319 56.206 49.4007 56.183 49.3777C56.16 49.3547 56.1288 49.3418 56.0963 49.3418ZM57.2308 48.2916C57.2148 48.2873 57.1981 48.2866 57.1819 48.2898C57.1657 48.2929 57.1504 48.2998 57.1373 48.3098C57.1241 48.3198 57.1135 48.3327 57.1062 48.3475C57.0988 48.3623 57.095 48.3786 57.095 48.3951C57.095 48.4116 57.0988 48.4279 57.1062 48.4427C57.1135 48.4575 57.1241 48.4704 57.1373 48.4805C57.1504 48.4905 57.1657 48.4973 57.1819 48.5005C57.1981 48.5036 57.2148 48.503 57.2308 48.4986C57.2534 48.4924 57.2734 48.4789 57.2877 48.4602C57.3019 48.4415 57.3097 48.4186 57.3097 48.3951C57.3097 48.3716 57.3019 48.3488 57.2877 48.3301C57.2734 48.3114 57.2534 48.2979 57.2308 48.2916ZM58.0816 47.6478C58.1081 47.6478 58.1334 47.6373 58.1521 47.6186C58.1708 47.5999 58.1813 47.5745 58.1813 47.5481C58.1813 47.5217 58.1708 47.4963 58.1521 47.4776C58.1334 47.459 58.1081 47.4485 58.0816 47.4485C58.0552 47.4485 58.0299 47.459 58.0112 47.4776C57.9925 47.4963 57.982 47.5217 57.982 47.5481C57.982 47.5745 57.9925 47.5999 58.0112 47.6186C58.0299 47.6373 58.0552 47.6478 58.0816 47.6478ZM47.6642 73.1886C47.6712 73.1531 47.6712 73.1167 47.6642 73.0812C47.5799 72.3147 46.3458 72.9739 46.8977 73.6025C46.9499 73.6545 47.0167 73.6893 47.0893 73.7021C47.1628 73.7183 47.2391 73.7168 47.312 73.6977C47.3848 73.6787 47.452 73.6426 47.5082 73.5924C47.5643 73.5423 47.6077 73.4795 47.6349 73.4093C47.662 73.3391 47.6721 73.2634 47.6642 73.1886ZM48.5534 68.8806C48.6097 68.9365 48.68 68.976 48.757 68.9949C48.834 69.0138 48.9146 69.0114 48.9904 68.988C49.0504 68.9672 49.1054 68.9339 49.1517 68.8905C49.198 68.847 49.2347 68.7943 49.2593 68.7357C49.2838 68.6771 49.2958 68.614 49.2944 68.5505C49.293 68.487 49.2782 68.4245 49.251 68.3671C49.113 67.7922 48.0168 68.3211 48.5534 68.8806ZM50.3242 71.5328C50.3712 71.4068 50.3712 71.268 50.3242 71.1419C49.3506 70.2911 49.4273 72.6443 50.3242 71.5328ZM43.0649 74.9899C43.5479 75.3348 44.0078 74.8596 43.5862 74.3613C43.4252 74.1697 42.4823 74.553 43.0649 74.9899ZM47.4343 76.8066C46.4377 76.086 46.2921 78.2476 47.3346 77.5731C47.4379 77.4775 47.5062 77.35 47.5284 77.211C47.5506 77.0721 47.5256 76.9296 47.4573 76.8066H47.4343ZM50.4085 65.0327C50.1785 65.5079 50.9374 65.9218 51.1137 65.186C51.1137 65.0173 51.1137 64.795 50.7228 64.7644C50.6499 64.7735 50.5813 64.8037 50.5254 64.8514C50.4695 64.8991 50.4289 64.9621 50.4085 65.0327ZM49.8259 62.0892C49.8999 62.1299 49.9848 62.1462 50.0686 62.1355C50.1524 62.1249 50.2306 62.0879 50.292 62.0299C50.3534 61.9719 50.3948 61.8959 50.4102 61.8129C50.4256 61.7299 50.4143 61.6441 50.3778 61.5679C50.1478 61.1234 49.3123 61.6293 49.8259 62.0892ZM51.2747 58.8468C51.2747 59.2837 52.0872 59.2224 52.0412 58.7241C52.0407 58.6739 52.0279 58.6245 52.0038 58.5804C51.9797 58.5363 51.9452 58.4988 51.9032 58.4712C51.7269 58.2565 51.0754 58.4175 51.2747 58.8468ZM54.6015 54.3779C55.0384 54.1173 54.7548 53.481 54.3332 53.711C53.7813 53.7647 54.1032 54.6692 54.6015 54.3779ZM51.6196 50.9822C51.623 50.9567 51.623 50.9309 51.6196 50.9055C51.6315 50.8452 51.628 50.7829 51.6096 50.7243C51.5912 50.6656 51.5584 50.6126 51.5142 50.5699C51.4699 50.5272 51.4157 50.4963 51.3565 50.4799C51.2973 50.4635 51.2349 50.4623 51.175 50.4762C51.1125 50.4926 51.0555 50.5255 51.01 50.5714C50.9646 50.6174 50.9323 50.6747 50.9166 50.7374C50.9009 50.8001 50.9024 50.8659 50.9209 50.9279C50.9394 50.9898 50.9742 51.0456 51.0217 51.0895C51.0511 51.1522 51.1003 51.2035 51.1619 51.2354C51.2234 51.2673 51.2937 51.2779 51.3619 51.2657C51.4301 51.2534 51.4924 51.219 51.539 51.1677C51.5856 51.1164 51.6139 51.0512 51.6196 50.9822ZM46.7597 47.5251C46.3994 47.0575 45.8168 47.6401 46.1771 48.0234C46.2097 48.0532 46.2457 48.0789 46.2844 48.1C46.5374 48.3453 47.0893 47.9084 46.7597 47.5251ZM47.235 42.8569C47.051 43.0332 47.074 43.5162 47.3959 43.5545C47.4704 43.5886 47.5541 43.5975 47.6341 43.5796C47.714 43.5618 47.786 43.5183 47.839 43.4558C47.892 43.3933 47.923 43.3152 47.9275 43.2333C47.9319 43.1515 47.9094 43.0705 47.8635 43.0026C47.8356 42.9478 47.796 42.8998 47.7476 42.862C47.6992 42.8241 47.643 42.7973 47.5831 42.7835C47.5233 42.7696 47.4611 42.769 47.4009 42.7817C47.3408 42.7944 47.2841 42.82 47.235 42.8569ZM48.5151 38.0431C48.4323 38.0024 48.338 37.9917 48.2482 38.0127C48.1584 38.0338 48.0787 38.0853 48.0226 38.1585C47.9666 38.2318 47.9377 38.3222 47.9408 38.4143C47.9439 38.5065 47.9789 38.5948 48.0398 38.664C48.0591 38.7415 48.0982 38.8127 48.1533 38.8704C48.2084 38.9282 48.2776 38.9707 48.3541 38.9936C48.4035 39 48.4537 38.9966 48.5017 38.9834C48.5497 38.9703 48.5947 38.9477 48.6339 38.9171C48.6731 38.8864 48.7059 38.8482 48.7302 38.8048C48.7546 38.7613 48.77 38.7135 48.7757 38.664C48.7923 38.5885 48.7906 38.5101 48.7705 38.4354C48.7505 38.3607 48.7129 38.2919 48.6607 38.2348C48.6381 38.1548 48.5861 38.0864 48.5151 38.0431ZM45.7402 40.749C45.9242 40.1587 44.9276 40.0974 44.9276 40.6493C44.9294 40.7498 44.9691 40.846 45.0387 40.9185C45.1084 40.991 45.2029 41.0345 45.3032 41.0403C45.3983 41.0483 45.4932 41.0239 45.5726 40.9709C45.652 40.918 45.711 40.8398 45.7402 40.749ZM45.3646 70.5823C45.6865 71.1419 46.3918 70.1378 45.5639 70.0841C45.4336 70.1684 45.2266 70.2374 45.3646 70.5823ZM64.0761 73.2882C64.1543 73.2753 64.2272 73.2406 64.2866 73.1881C64.346 73.1356 64.3894 73.0674 64.4118 72.9914C64.4342 72.9154 64.4347 72.8346 64.4133 72.7583C64.3919 72.682 64.3494 72.6133 64.2907 72.56C63.9074 72.1461 63.2635 73.2499 64.0761 73.2882ZM64.9576 67.5469C65.0496 67.3629 65.0496 67.1253 64.8196 67.0486C63.7158 66.88 64.2907 68.5664 64.9576 67.5469ZM63.1485 63.0167C63.0731 62.9975 62.994 62.9975 62.9186 63.0167C61.7381 63.8369 64.2754 64.0975 63.1485 63.0167ZM65.9234 61.7596C66.1994 61.5143 66.2147 60.9471 65.6782 60.993C65.1416 61.039 65.2795 62.1428 65.9234 61.7596ZM67.3569 64.6187C67.3497 64.5685 67.3316 64.5205 67.3038 64.4781C67.276 64.4357 67.2391 64.4 67.1959 64.3735C67.1395 64.3335 67.0721 64.3119 67.0029 64.3115C66.9338 64.3111 66.8662 64.332 66.8093 64.3713C66.7524 64.4106 66.709 64.4665 66.6849 64.5313C66.6608 64.5961 66.6572 64.6668 66.6747 64.7337C66.6899 64.8242 66.7405 64.9049 66.8152 64.9581C66.89 65.0113 66.9828 65.0326 67.0733 65.0173C67.1637 65.0021 67.2444 64.9515 67.2976 64.8768C67.3508 64.802 67.3721 64.7092 67.3569 64.6187ZM69.5492 66.9643C69.6237 66.946 69.6902 66.904 69.7386 66.8445C69.787 66.785 69.8147 66.7114 69.8175 66.6347C69.8409 66.5544 69.8314 66.4681 69.7912 66.3948C69.7509 66.3215 69.6832 66.2672 69.6029 66.2438C69.5226 66.2204 69.4363 66.2299 69.363 66.2701C69.2896 66.3104 69.2353 66.3781 69.2119 66.4584C69.097 66.5734 69.1583 67.064 69.5492 66.9643ZM68.9053 70.567C68.8274 70.6029 68.7649 70.6654 68.729 70.7433C68.2691 72.307 70.3158 70.59 68.9053 70.567ZM74.4628 70.8583C74.4518 70.7743 74.4108 70.697 74.3475 70.6407C74.2841 70.5844 74.2026 70.5528 74.1179 70.5517C72.8761 70.8966 74.2482 72.0541 74.4628 70.8583ZM75.5743 66.4124C75.9039 66.5657 76.1722 65.9142 75.7813 65.7379C75.5666 65.5692 75.1067 65.9448 75.3903 66.3204C75.4375 66.3737 75.5034 66.4066 75.5743 66.4124ZM78.4872 67.6389C78.8321 67.6389 79.0544 66.8723 78.4872 66.8723C78.3262 66.8723 78.1499 66.9643 78.1116 67.2556C78.107 67.3064 78.1136 67.3576 78.1307 67.4057C78.1479 67.4537 78.1752 67.4975 78.211 67.5339C78.2467 67.5703 78.2899 67.5986 78.3375 67.6167C78.3852 67.6348 78.4363 67.6424 78.4872 67.6389ZM67.6022 78.2323C67.7038 78.2222 67.7973 78.172 67.862 78.093C67.9267 78.0139 67.9573 77.9124 67.9471 77.8107C67.937 77.7091 67.8868 77.6156 67.8078 77.5509C67.7287 77.4863 67.6272 77.4556 67.5255 77.4658C67.4239 77.476 67.3304 77.5261 67.2657 77.6051C67.2011 77.6842 67.1704 77.7857 67.1806 77.8874C67.1908 77.989 67.2409 78.0825 67.3199 78.1472C67.399 78.2119 67.5005 78.2425 67.6022 78.2323ZM64.2064 82.5862C64.536 82.8545 65.1799 82.3409 64.812 81.881C64.559 81.4441 63.7541 82.065 64.2064 82.5862ZM68.706 83.7207C68.7868 83.6676 68.8468 83.5883 68.8761 83.4962C68.9055 83.4041 68.9022 83.3048 68.867 83.2148C68.867 82.9925 68.3457 82.6475 68.2001 83.1458C68.1537 83.2186 68.1321 83.3046 68.1388 83.3907C68.1454 83.4769 68.1799 83.5585 68.237 83.6234C68.294 83.6883 68.3707 83.7328 68.4552 83.7504C68.5398 83.7679 68.6279 83.7575 68.706 83.7207ZM63.6775 77.0979C63.5855 77.0442 63.5471 77.0365 63.3172 77.0979C63.0872 77.1592 63.0642 77.4275 63.3172 77.6574C63.5701 77.8874 64.237 77.4198 63.6775 77.0979ZM91.1736 54.6308C91.1926 54.5079 91.1814 54.3823 91.141 54.2646C91.1005 54.147 91.0321 54.041 90.9415 53.9558C90.851 53.8705 90.7411 53.8086 90.6212 53.7753C90.5014 53.742 90.3753 53.7383 90.2537 53.7647C90.0997 53.8235 89.9737 53.9385 89.9011 54.0866C89.84 54.1455 89.793 54.2175 89.7638 54.2971C89.7346 54.3768 89.7239 54.4621 89.7325 54.5465C89.5179 55.3974 90.9666 55.681 91.1736 54.6308ZM93.0976 57.1451C94.0022 57.7813 95.129 56.4552 94.5311 55.6657C94.3896 55.4657 94.1839 55.3201 93.9483 55.2532C93.7126 55.1863 93.4611 55.202 93.2356 55.2977C92.5994 55.635 92.3311 56.7618 93.0976 57.1451ZM93.8259 61.4683C94.3165 62.5644 96.1255 60.8704 94.922 60.1115C94.1325 59.6056 93.4426 60.8321 93.8259 61.4683ZM91.5722 65.5156C91.7071 65.5307 91.8437 65.5171 91.973 65.4759C92.1024 65.4346 92.2215 65.3666 92.3228 65.2762C92.4241 65.1858 92.5051 65.075 92.5607 64.9512C92.6163 64.8273 92.6451 64.6932 92.6454 64.5574C92.998 63.6222 91.9708 63.0703 91.3499 63.2237C90.4071 63.4536 90.637 65.6306 91.5722 65.5156ZM87.4558 66.5964C87.6132 66.7182 87.8066 66.7843 88.0056 66.7841C88.2046 66.784 88.3979 66.7177 88.555 66.5956C88.7122 66.4736 88.8243 66.3027 88.8737 66.11C88.9231 65.9172 88.907 65.7135 88.828 65.5309C88.391 64.5114 86.9882 64.933 87.1645 66.1365C87.2229 66.3111 87.3228 66.469 87.4558 66.5964ZM85.0872 63.0397C84.9922 63.0296 84.8961 63.0394 84.805 63.0685C84.714 63.0975 84.6299 63.1451 84.5583 63.2083C84.1597 63.5609 84.152 64.5344 84.7576 64.6417C85.5241 64.956 86.2294 63.7449 85.5778 63.239C85.435 63.1299 85.2656 63.061 85.0872 63.0397Z" fill="#4C2FB3"/>
<path d="M83.1322 114.42C79.0771 113.96 74.7768 113.608 70.76 114.574L64.2674 100.124C65.8005 97.8708 66.751 94.3448 67.4026 91.2633C70.7064 91.7233 74.0332 90.4278 72.8681 87.331C72.1705 85.5144 71.0283 83.6517 70.4841 81.7814C69.9181 79.7214 69.6953 77.5822 69.8249 75.4498C70.2075 75.6009 70.6105 75.6939 71.0207 75.7258C72.4925 75.8254 73.627 74.9592 74.6925 74.0777C77.1851 71.9758 79.2379 69.4021 80.7329 66.5044C80.5696 66.1027 80.3774 65.7133 80.158 65.3393C80.8458 65.0961 81.4903 64.7441 82.0667 64.2968C82.358 68.2061 85.7844 70.6207 88.3294 70.1608C91.8938 69.5245 94.2012 67.1866 96.4241 64.3045C97.5142 63.0155 98.2348 61.4553 98.5092 59.7896C98.8541 56.9994 98.3865 53.0901 95.6729 51.5724C94.9773 51.1933 94.2013 50.9857 93.4093 50.9671C92.6173 50.9484 91.8323 51.1192 91.1196 51.4651C89.4389 52.1753 88.1002 53.5112 87.3865 55.1904C86.0527 53.0748 81.3691 54.5159 82.6339 59.0231C81.7649 59.3525 81.0183 59.9413 80.4952 60.7094C80.1899 61.1436 79.8516 61.5536 79.4834 61.9359C79.1768 62.2118 78.7858 62.3651 78.4639 62.6258C78.4027 62.5772 78.3486 62.5205 78.3029 62.4571H78.2032C75.9286 63.8095 73.8081 65.4056 71.8792 67.2173C70.0625 63.4613 67.0193 58.4482 63.6235 56.2789C63.5775 55.566 63.5162 54.7458 63.5238 54.7458C64.5127 54.1786 65.8235 54.0713 66.2451 51.6797C66.5415 49.7569 66.4319 47.7933 65.9231 45.9154C68.0311 45.1489 68.4451 42.1901 67.8778 42.8033C67.6081 43.1388 67.2276 43.3671 66.8047 43.4472C67.3951 42.712 67.6981 41.7872 67.6572 40.8451C67.6163 39.9031 67.2343 39.008 66.5824 38.3267C66.5553 38.2936 66.5183 38.2701 66.4768 38.2597C66.4353 38.2492 66.3915 38.2524 66.352 38.2687C66.3125 38.2851 66.2792 38.3137 66.2572 38.3504C66.2352 38.387 66.2256 38.4298 66.2297 38.4724C66.3175 38.9651 66.2195 39.4728 65.9547 39.8975C65.69 40.3222 65.2773 40.6338 64.7963 40.772V39.9211C64.7977 39.8897 64.7883 39.8587 64.7696 39.8333C64.7509 39.808 64.7242 39.7898 64.6938 39.7817C64.6633 39.7737 64.6311 39.7763 64.6023 39.7891C64.5735 39.8019 64.55 39.8241 64.5357 39.8521C64.3297 40.2021 64.0563 40.5077 63.7312 40.7511C63.4062 40.9946 63.0361 41.171 62.6423 41.2702C62.7484 40.9045 62.8354 40.5335 62.9029 40.1588C62.9066 40.1184 62.8993 40.0779 62.8817 40.0415C62.864 40.005 62.8368 39.9741 62.8029 39.952C62.7689 39.9299 62.7296 39.9175 62.6892 39.9161C62.6487 39.9147 62.6087 39.9244 62.5733 39.9441L60.8256 41.0019C60.8256 41.0019 61.1015 40.2967 60.266 40.3581C60.266 40.3581 57.5447 42.8876 56.5712 42.8339C55.8737 42.8339 55.5747 44.1064 56.6862 45.1335C54.6395 46.6666 55.2374 50.8595 57.2151 52.2623C56.7169 53.0288 56.6402 53.1131 56.7475 53.1361C57.022 53.2272 57.3092 53.2737 57.5984 53.2741C57.2743 53.3624 56.9646 53.4966 56.6785 53.6727C54.7143 51.2551 52.5859 48.9757 50.3085 46.8506C50.1322 41.4159 49.9406 36.4104 49.4653 36.2341C49.3351 36.1891 49.2019 36.1533 49.0667 36.1268C49.519 34.6551 49.0667 32.5624 47.5336 31.9109C53.1141 25.702 53.8423 25.518 53.5663 24.3682C54.5705 25.0044 55.866 24.2839 56.4869 23.4407C59.1468 22.4596 58.7022 16.312 57.882 17.1475C57.5754 17.4618 57.7977 18.5962 56.096 18.6422C55.1378 18.6422 54.1106 18.3126 53.6047 18.7572C51.6883 18.8569 50.9677 21.992 51.9029 23.2568C51.594 23.3174 51.3014 23.4428 51.0444 23.6247L45.6249 30.6614C45.4256 30.6614 44.5517 30.1249 44.3217 30.9987C44.2733 31.1821 44.2733 31.3749 44.3217 31.5583C44.0943 31.4737 43.844 31.4737 43.6165 31.5583C43.4521 31.6061 43.3085 31.7075 43.2085 31.8464C43.1084 31.9854 43.0578 32.1538 43.0646 32.3248C43.0596 32.4513 43.0916 32.5765 43.1566 32.6851C43.045 32.6962 42.9404 32.7446 42.8597 32.8225C42.779 32.9004 42.727 33.0032 42.712 33.1143C42.6857 33.2596 42.6912 33.4089 42.7283 33.5519C42.7654 33.6948 42.833 33.828 42.9266 33.9422L36.5106 40.9253C36.5106 40.9253 35.6137 41.9141 36.0967 42.397C36.0967 42.397 36.5643 42.8646 37.6298 41.7991L44.843 35.1073C44.8444 35.3344 44.9062 35.557 45.0221 35.7523C45.1379 35.9477 45.3036 36.1086 45.5022 36.2188C45.3097 36.2253 45.1177 36.2432 44.9273 36.2724C44.8813 36.2724 44.9273 36.3491 44.9273 36.3491C49.3196 36.2188 49.4423 36.4334 49.4653 36.4258C49.5266 38.1275 50.1705 45.0492 50.1015 46.8046C50.0984 46.8223 50.0984 46.8405 50.1015 46.8582C50.1015 47.0269 53.6967 50.4379 56.4869 53.757C55.5913 54.4438 54.8497 55.3107 54.3099 56.3019C52.1712 59.8433 51.397 70.6513 51.3587 74.2157C50.7454 79.7884 46.7594 81.0455 45.5022 79.5278C44.5752 78.4869 43.5482 77.5395 42.436 76.6993C41.6235 75.7794 40.328 74.4993 39.3162 74.8596C41.0332 73.2499 44.0611 72.56 45.9085 68.85C48.8597 62.9094 48.6987 54.9528 48.3921 58.3792C45.8308 55.3856 44.1478 51.7417 43.5295 47.8508C42.9113 43.9599 43.3818 39.9738 44.889 36.3338C44.889 36.2571 44.7817 36.1958 44.751 36.2801C39.1859 48.9125 48.2925 58.5708 48.3308 58.6475C48.1173 60.653 47.7274 62.6357 47.1656 64.5728C45.073 72.0541 43.1336 71.5865 39.5921 74.2847C39.0842 74.604 38.6794 75.0633 38.4265 75.6072C38.1735 76.1512 38.0832 76.7567 38.1663 77.3508C28.1169 81.1835 30.1406 89.8606 30.1406 89.8606L32.8312 106.632C24.8897 109.76 17.0479 113.125 9.3364 116.789C9.28274 116.789 9.29807 116.927 9.37473 116.919C15.1009 116.444 20.5817 117.923 25.6256 120.453C24.2172 120.816 22.8405 121.293 21.5092 121.879C20.1831 122.4 18.8723 122.975 17.5845 123.588C14.8391 124.913 12.2018 126.45 9.69668 128.187C9.58936 128.187 9.63535 128.363 9.69668 128.34C14.066 127.574 17.2932 127.022 21.4862 127.451C17.3698 129.667 9.02211 134.296 8.95312 134.296L9.45138 136.205H41.9991C41.9991 136.205 42.6123 133.859 44.3371 136.512C44.3371 136.512 57.882 138.482 72.9677 149.443V147.228C72.9677 147.228 62.236 137.792 43.3789 134.388C48.9364 134.112 54.7775 133.254 60.243 134.902C68.6367 137.447 74.6235 141.801 74.8764 141.601C84.443 132.779 81.1238 136.282 90.3761 128.034C91.6252 128.591 92.9048 129.077 94.2088 129.49C93.1356 130.195 84.4276 136.036 73.2437 147.12L73.3663 149.458C73.3663 149.458 85.2249 136.496 94.3161 130.908C94.3161 130.908 94.3161 129.375 94.2701 129.375C93.0207 128.892 91.7482 128.356 90.4374 127.98C93.105 125.619 94.1168 125.397 93.7029 125.221C91.9997 124.36 90.2372 123.623 88.429 123.013C90.8513 121.043 96.0102 117.095 95.8876 117.049C90.8437 115.24 90.4527 115.256 83.1322 114.42ZM53.4284 18.9335C53.3272 19.0776 53.2645 19.2451 53.2461 19.4202C53.2278 19.5953 53.2544 19.7722 53.3235 19.9341C53.3925 20.096 53.5018 20.2376 53.6409 20.3456C53.7799 20.4535 53.9442 20.5242 54.1182 20.5509C55.5517 20.5509 53.9266 21.3941 53.8653 21.5704C53.8442 21.6629 53.8556 21.7598 53.8975 21.8449C53.9393 21.93 54.0091 21.9982 54.0953 22.038C54.5322 22.2449 54.9078 21.8157 55.2757 21.7314C55.5057 21.6777 55.797 21.785 55.82 22.015C55.843 22.2449 55.5134 22.4442 55.3984 22.6972C55.3522 22.8169 55.3491 22.9489 55.3896 23.0706C55.4302 23.1923 55.5119 23.2961 55.6207 23.3641C55.7539 23.447 55.9084 23.4896 56.0653 23.4867C55.7788 23.8734 55.3686 24.1505 54.9028 24.2718C54.437 24.3931 53.9438 24.3514 53.505 24.1536C53.4248 23.8705 53.2521 23.6224 53.0146 23.4488C52.7771 23.2752 52.4883 23.186 52.1942 23.1954C51.558 22.5745 51.1057 19.7231 53.4284 18.9335ZM45.2953 30.7381C45.3809 30.7656 45.4679 30.7886 45.5559 30.8071C45.9392 31.014 45.9085 31.6426 45.8855 31.8572C45.6325 31.8572 45.5482 32.1485 45.5176 32.3478C45.1573 32.2482 45.0116 32.2865 44.751 31.9032C44.698 31.8365 44.6518 31.7646 44.613 31.6886C44.2681 31.0907 44.544 30.4775 45.2953 30.7381ZM43.6932 31.6886C43.9589 31.6423 44.2323 31.697 44.4597 31.8419C44.5481 32.0371 44.6918 32.2022 44.873 32.3166C45.0542 32.4311 45.265 32.4899 45.4792 32.4858C45.4691 32.6059 45.4875 32.7267 45.5329 32.8384C45.4634 32.9751 45.3502 33.0848 45.2114 33.15C45.0726 33.2152 44.916 33.2324 44.7663 33.1987C44.5156 33.2236 44.2624 33.1925 44.0251 33.1077C43.7878 33.0228 43.5723 32.8863 43.3942 32.7081C43.328 32.627 43.2826 32.5311 43.2618 32.4286C43.241 32.326 43.2456 32.2199 43.275 32.1195C43.3044 32.0191 43.3579 31.9274 43.4308 31.8523C43.5036 31.7772 43.5937 31.721 43.6932 31.6886ZM43.0799 33.9039C42.9561 33.7602 42.8833 33.5796 42.873 33.3903C42.873 33.1373 42.9649 32.7617 43.2946 32.8614C43.4742 33.0366 43.6882 33.1727 43.923 33.261C44.1579 33.3494 44.4085 33.3882 44.659 33.375C44.6088 33.5279 44.5237 33.6671 44.4103 33.7813C44.2969 33.8956 44.1584 33.9818 44.0058 34.0332C43.8533 34.0845 43.6908 34.0996 43.5314 34.0771C43.372 34.0547 43.22 33.9954 43.0876 33.9039H43.0799ZM48.898 36.0655L45.7245 36.1498C45.4986 36.0616 45.3017 35.9124 45.1555 35.7189C45.0093 35.5253 44.9197 35.2951 44.8967 35.0537L46.2611 33.7966C46.5601 34.5631 47.6102 34.5631 47.2883 34.4174C46.9663 34.2718 46.4757 34.1875 46.3684 33.6049C46.3575 33.472 46.3988 33.34 46.4834 33.237C46.2241 33.147 45.9789 33.0205 45.7552 32.8614C45.6526 32.72 45.6088 32.5443 45.6331 32.3713C45.6574 32.1983 45.7479 32.0415 45.8855 31.9339H47.3573C48.99 32.8614 49.059 34.3485 48.9057 36.0655H48.898ZM70.875 117.916C71.0492 118.501 71.2618 119.075 71.5113 119.633C70.7635 120.348 69.887 120.915 68.928 121.304C67.9315 120.139 68.1614 120.392 67.9315 120.116C68.9927 119.496 69.9801 118.758 70.875 117.916ZM71.312 123.197C70.7064 123.749 68.2458 125.834 67.4792 126.263C67.1726 126.041 67.4792 125.305 67.5789 125.06C68.1921 124.002 68.6367 124.086 68.6904 121.465C69.6179 121.396 71.404 120.031 71.7566 119.579C72.2232 120.416 72.5935 121.303 72.8604 122.224C72.7301 122.308 72.5614 122.415 72.4541 122.499C72.3311 122.177 72.1491 121.881 71.9175 121.626C71.8026 121.488 71.6416 121.273 71.4346 121.373C71.2276 121.472 71.1587 121.863 71.1357 122.047C71.1045 122.437 71.1568 122.829 71.289 123.197H71.312ZM72.4541 89.4237C71.6876 91.1637 69.1426 91.1254 67.4869 90.8801C67.9851 88.4578 68.2151 86.7561 68.2534 86.2809C70.0242 86.4802 72.6534 87.492 72.4541 89.4237ZM83.1858 55.4587C84.1363 54.3012 86.344 53.826 87.2102 55.3207C87.2164 55.3347 87.2259 55.3469 87.2379 55.3563C87.25 55.3656 87.2642 55.3719 87.2792 55.3744C87.285 55.3856 87.2938 55.3951 87.3046 55.4017C87.3154 55.4083 87.3279 55.4118 87.3405 55.4118C87.3532 55.4118 87.3656 55.4083 87.3764 55.4017C87.3873 55.3951 87.396 55.3856 87.4018 55.3744C90.1614 49.771 98.3788 48.9509 98.2715 58.8008C98.2715 61.8669 96.2478 64.2815 94.2625 66.4124C86.597 74.6143 80.112 66.6271 82.8562 60.8628C82.8674 60.8331 82.8674 60.8004 82.8562 60.7708C83.2767 60.5362 83.7365 60.3803 84.213 60.3108C83.8681 61.9742 86.8269 62.0662 87.0646 60.1192C87.1025 59.7323 87.0068 59.3441 86.7934 59.0192C86.58 58.6943 86.2618 58.4522 85.8918 58.3332C85.5563 58.2523 85.2025 58.3078 84.908 58.4874C84.6134 58.667 84.402 58.9562 84.3203 59.2914C83.8514 58.9724 83.2777 58.8462 82.7182 58.9388C82.5879 57.7353 82.3963 56.4705 83.2242 55.4587H83.1858ZM84.374 59.391C84.4646 59.0851 84.6729 58.8277 84.9532 58.6753C85.2335 58.523 85.5628 58.4881 85.8687 58.5785C86.1405 58.6723 86.3781 58.8449 86.5515 59.0742C86.7249 59.3035 86.8261 59.5792 86.8423 59.8663C86.8959 61.3993 84.1977 62.0355 84.282 60.3185H84.3587C84.42 60.3185 84.5043 60.2189 84.512 60.1959C84.5723 60.0658 84.5949 59.9215 84.5773 59.7792C84.5597 59.6369 84.5025 59.5024 84.4123 59.391H84.374ZM80.3726 60.9777C80.8657 60.2439 81.5352 59.6456 82.3196 59.2377C82.9099 58.9771 84.6193 59.0001 84.3203 60.1269C83.7613 60.1515 83.2246 60.3528 82.7872 60.7018C82.5266 60.7018 81.967 62.6411 82.0207 64.0975C81.3998 64.5191 80.7175 64.864 80.0966 65.278C77.7893 60.9164 78.0269 63.9595 80.4109 60.9777H80.3726ZM65.8081 45.9461C66.7817 53.3967 65.4939 53.5041 63.4012 54.5312C63.3844 54.5399 63.3705 54.5531 63.361 54.5694C63.3515 54.5857 63.3468 54.6044 63.3475 54.6232C63.3393 55.4835 63.3828 56.3436 63.4778 57.1987C62.6825 58.123 61.8218 58.9889 60.9022 59.7896C59.345 58.6564 58.2074 57.039 57.6674 55.1904C57.7727 54.5417 57.7933 53.8821 57.7287 53.2281C58.204 53.2281 58.7022 53.1591 59.1162 53.1361C59.2005 53.1361 59.2388 52.9598 59.2311 52.9445C58.9463 52.1421 58.5789 51.3715 58.135 50.6449C58.135 50.7215 57.9817 50.9132 57.9433 50.9898C57.9363 50.9858 57.9284 50.9837 57.9203 50.9837C57.9123 50.9837 57.9043 50.9858 57.8973 50.9898C56.5252 50.9898 56.2876 48.9969 57.5217 48.9279C58.2883 48.8819 58.2883 49.7327 58.8479 49.9627C58.855 49.9661 58.8629 49.9679 58.8709 49.9679C58.8788 49.9679 58.8867 49.9661 58.8939 49.9627C59.2695 50.0547 59.5838 49.7174 59.6604 49.3188C59.7601 48.6519 59.0855 47.7857 59.7907 46.544C62.374 47.0422 64.2214 46.3447 65.8158 45.9461H65.8081ZM56.7629 45.1259C57.6031 45.7742 58.5772 46.2272 59.6144 46.452C59.0088 47.3182 59.5454 48.445 59.5454 48.9662C59.5353 49.1593 59.4624 49.3439 59.3379 49.4919C59.2134 49.6399 59.0441 49.7433 58.8555 49.7864C58.5106 49.4568 58.4109 48.9662 57.9203 48.7822C57.7079 48.7072 57.477 48.7024 57.2617 48.7687C57.0463 48.8349 56.858 48.9687 56.7245 49.1502C56.6136 49.3496 56.5579 49.5751 56.5634 49.8032C56.5689 50.0314 56.6352 50.254 56.7556 50.4478C56.876 50.6417 57.0461 50.7999 57.2482 50.906C57.4503 51.0121 57.677 51.0622 57.905 51.0512C57.721 51.3961 57.5141 51.718 57.3071 52.0476C56.3849 51.1605 55.8202 49.9659 55.7199 48.6902C55.6196 47.4145 55.9907 46.1463 56.7629 45.1259ZM56.8855 52.9751C57.3575 52.3544 57.7852 51.7012 58.1656 51.0205C58.2729 51.2964 58.8402 52.5536 59.0242 52.8832C58.6332 52.8908 57.1998 52.9292 56.8855 52.9751ZM57.5754 53.4351C57.5754 53.619 57.3914 55.1061 57.5754 55.2134C57.7699 56.1895 58.1577 57.1168 58.7159 57.9409C59.274 58.7649 59.9913 59.4691 60.8256 60.0119C61.9005 59.2484 62.8452 58.3166 63.6235 57.2524C63.637 57.2446 63.6484 57.2334 63.6564 57.22C63.6645 57.2066 63.6689 57.1914 63.6695 57.1757C63.6695 57.0378 63.6695 56.7541 63.6235 56.4092C67.2569 59.667 68.5754 61.0927 71.7029 67.2709C71.7566 67.3706 71.8792 67.3169 71.8945 67.2249C74.0256 65.6919 75.9419 63.8599 78.2186 62.5031C78.9851 63.8369 79.7517 65.1093 80.5182 66.4508C78.7092 69.7545 74.9148 74.5683 72.2548 75.3962C70.3998 75.9711 68.2994 74.4227 67.7015 73.8631L67.6555 73.9091C68.2247 74.5591 68.9247 75.0816 69.7099 75.4422C69.0736 78.3626 70.1238 81.6511 71.1663 84.3339C71.6876 85.6677 72.8604 87.4 72.6151 88.9331C72.4158 86.8021 69.7252 85.3534 59.8827 84.8092L60.5573 79.7194C61.0325 77.2588 60.0513 74.0931 60.289 68.3364C60.6339 60.1729 62.9259 59.4217 64.5893 57.4517C64.5954 57.4461 64.6003 57.4395 64.6037 57.4321C64.6072 57.4246 64.6091 57.4166 64.6095 57.4084C64.6099 57.4002 64.6086 57.392 64.6058 57.3843C64.603 57.3766 64.5987 57.3696 64.5932 57.3635C64.5876 57.3575 64.581 57.3526 64.5735 57.3491C64.5661 57.3457 64.5581 57.3437 64.5499 57.3434C64.5417 57.343 64.5335 57.3443 64.5258 57.3471C64.5181 57.3499 64.511 57.3542 64.505 57.3597C62.0137 59.6056 60.6723 60.8704 60.1587 66.9567C59.7064 72.1691 60.6339 76.2317 60.427 79.0142L51.5196 74.2694C52.1252 65.1093 52.3245 55.773 57.5754 53.4351ZM38.7643 75.4345C39.8374 74.4917 40.8569 75.4345 41.7615 76.3237C40.6104 76.5573 39.478 76.875 38.3733 77.2742C38.2934 76.958 38.2871 76.6278 38.3548 76.3089C38.4226 75.9899 38.5627 75.6908 38.7643 75.4345ZM40.9029 91.3477C44.3447 91.0257 50.5998 88.6418 50.5998 88.6418C50.5998 88.6418 50.8298 81.996 51.1057 81.5131C51.3817 81.0302 51.3357 81.5131 51.3357 81.5131C49.9559 101.734 55.3064 107.506 55.3064 107.506L62.8569 116.513C62.3159 116.69 61.786 116.9 61.2702 117.141C59.3218 113.614 56.8161 110.425 53.85 107.698C52.4426 106.391 50.9009 105.238 49.2507 104.256C47.6026 103.298 45.7169 102.393 43.7698 102.539C43.7162 102.447 43.9155 102.393 40.0214 103.85L40.9029 91.3477ZM9.90365 128.141C12.3607 126.539 14.9215 125.103 17.5691 123.841C18.9873 123.166 20.436 122.545 21.9002 121.986C23.211 121.48 24.6061 121.127 25.8862 120.568C32.2021 123.878 37.8457 128.336 42.528 133.714C38.2813 130.648 32.8235 129.521 27.8103 128.348C21.2103 126.792 17.5155 126.6 9.90365 128.172V128.141ZM9.5357 134.273C9.61236 134.235 21.8465 127.566 21.9078 127.49C26.1008 127.973 37.6451 130.402 42.827 134.289C42.1601 134.289 29.1287 133.622 9.5357 134.312V134.273ZM9.71201 116.712C17.3162 113.135 25.0302 109.813 32.8542 106.747L33.2834 109.399L34.3259 109.438C34.4452 110.123 34.6379 110.794 34.9008 111.438C34.5176 111.438 34.2723 112.205 33.59 112.972C33.1205 113.396 32.6065 113.769 32.0569 114.083C31.3824 114.574 31.5663 115.102 32.3022 115.34C33.5824 115.746 35.2765 114.987 36.4493 114.574C36.5847 114.15 36.7513 113.738 36.9475 113.339C37.3845 112.926 37.4611 114.213 37.4458 114.405C37.7872 114.466 38.1352 114.482 38.4806 114.451C38.664 113.393 38.6196 112.309 38.3503 111.27H38.1893C38.2787 110.722 38.3248 110.169 38.3273 109.614L39.5845 109.66L39.9831 104.064C43.6932 102.715 43.6932 102.784 43.7622 102.715C47.7022 102.8 51.4277 105.781 54.1259 108.357C56.8427 110.995 59.1799 113.998 61.0709 117.279C58.0047 118.812 55.5134 121.38 53.0068 123.619C49.3338 126.765 46.0062 130.293 43.0799 134.143C35.2611 124.945 21.7392 115.271 9.71201 116.75V116.712ZM36.4339 114.413C35.4067 114.755 34.353 115.011 33.2834 115.179C32.9461 115.179 31.2827 115.179 32.1183 114.167C33.3097 113.635 34.2662 112.687 34.8089 111.5C35.972 111.673 37.1581 111.61 38.2967 111.316C38.2967 112.006 38.381 111.492 38.358 114.298C38.1325 114.295 37.9071 114.308 37.6834 114.336C37.7677 112.78 36.7482 112.596 36.4339 114.474V114.413ZM38.059 111.247C37.0639 111.388 36.0591 111.45 35.0542 111.431C35.0542 111.431 34.7169 110.089 34.5252 109.438L38.2047 109.568C38.1204 110.174 38.0514 111.293 38.059 111.308V111.247ZM93.4346 125.297C90.1461 127.405 87.5322 130.433 84.466 132.825C81.0152 135.412 77.7823 138.279 74.7998 141.394C70.1528 138.626 65.221 136.367 60.0897 134.657C55.8123 133.346 47.5642 133.538 43.4479 134.22C48.898 131.92 52.6848 131.598 58.112 132.173C63.5391 132.748 67.2569 133.607 72.0862 136.772C72.4081 136.987 77.682 131.66 88.2987 123.028C90.0465 123.78 91.7329 124.592 93.4346 125.359V125.297ZM95.5426 117.095C87.5322 123.304 79.7134 129.72 72.2931 136.619C72.2892 136.602 72.2817 136.587 72.2711 136.574C72.2605 136.561 72.2471 136.55 72.2318 136.542C67.9468 133.691 63.1789 132.495 58.112 131.943C52.7461 131.376 48.6451 131.683 43.2409 134.112C46.1484 130.511 49.326 127.136 52.7461 124.017C58.1963 119.035 59.921 117.647 63.0026 116.636L66.3447 120.637C66.8365 120.541 67.31 120.368 67.7475 120.123L68.8054 121.281C68.767 121.281 68.5754 121.327 68.5754 121.396C68.3761 123.933 68.4374 123.274 67.4256 125.052C67.2752 125.267 67.2037 125.527 67.2232 125.788C67.2428 126.049 67.3522 126.296 67.5329 126.485C67.5789 126.485 71.5266 123.235 71.5113 123.212C71.4959 123.189 71.0437 121.587 71.5726 121.557C71.9635 121.557 72.4541 122.599 72.4925 122.584C72.671 122.511 72.8366 122.41 72.983 122.285C72.769 121.248 72.3634 120.26 71.7872 119.372C71.7872 119.372 71.6416 119.433 71.6186 119.456C71.427 118.874 71.2276 118.291 71.0053 117.716C71.5189 117.241 71.8409 116.904 71.8409 116.904L70.8137 114.604C74.8965 114.006 79.0429 113.983 83.1322 114.535C90.1384 115.432 90.7747 115.424 95.5426 117.157V117.095Z" fill="#4C2FB3"/>
<path d="M125.944 81.9729V81.9269H125.89C125.872 81.9243 125.854 81.9283 125.838 81.9381C125.823 81.948 125.811 81.963 125.806 81.9806L116.707 87.0704C116.293 89.186 116.784 89.0557 116.063 96.9893C115.404 97.8018 114.99 98.9669 112.644 99.8408C111.33 100.23 110.048 100.722 108.812 101.312C107.202 102.225 106.78 103.911 108.398 105.145C108.363 105.169 108.333 105.197 108.306 105.229L108.076 105.36C108.045 105.382 108.021 105.412 108.008 105.447C107.994 105.482 107.991 105.521 107.999 105.558C108.008 105.595 108.026 105.628 108.054 105.654C108.081 105.68 108.115 105.698 108.152 105.705C108.252 105.797 108.336 105.751 108.428 105.705C108.432 105.758 108.432 105.812 108.428 105.866C108.428 105.91 108.446 105.953 108.478 105.985C108.509 106.017 108.552 106.034 108.597 106.034C108.642 106.034 108.685 106.017 108.716 105.985C108.748 105.953 108.766 105.91 108.766 105.866V105.544L108.904 105.467C110.046 106.126 111.686 106.441 112.031 107.928C112.284 109.031 111.425 110.381 110.337 111.155C110.337 111.155 110.207 110.074 110.199 110.059C110.145 109.905 109.892 109.905 109.9 110.097V110.457L109.616 109.982C109.589 109.951 109.552 109.93 109.512 109.923C109.471 109.916 109.429 109.924 109.393 109.945C109.358 109.966 109.33 109.999 109.317 110.038C109.303 110.077 109.303 110.119 109.317 110.158C109.517 110.588 109.708 111.017 109.915 111.446C107.14 112.979 106.144 109.568 104.404 108.127C104.626 106.946 104.68 106.969 104.634 106.862C104.64 106.839 104.642 106.814 104.639 106.789C104.636 106.765 104.628 106.742 104.616 106.72C104.604 106.699 104.588 106.68 104.569 106.665C104.549 106.65 104.527 106.639 104.504 106.632C104.48 106.626 104.455 106.624 104.431 106.627C104.406 106.63 104.383 106.638 104.362 106.65C104.34 106.662 104.321 106.678 104.306 106.697C104.291 106.717 104.28 106.739 104.274 106.763C104.22 106.893 104.182 107.031 104.136 107.169C104.09 107.307 104.082 107.245 104.044 107.391L103.959 107.138C103.949 107.101 103.924 107.068 103.891 107.049C103.857 107.03 103.817 107.024 103.779 107.035C103.742 107.045 103.71 107.069 103.69 107.103C103.671 107.137 103.666 107.177 103.676 107.215C103.637 107.291 103.676 107.414 103.745 107.667C103.375 107.433 102.979 107.245 102.564 107.107C101.486 106.791 100.33 106.873 99.3063 107.337C99.245 107.046 99.199 106.747 99.1607 106.456C99.1224 106.165 98.8847 106.318 98.8464 106.456C98.7983 106.477 98.76 106.515 98.7391 106.563C98.6854 106.487 98.6241 106.364 98.4785 106.425C98.4545 106.417 98.4286 106.416 98.4041 106.422C98.3796 106.429 98.3574 106.442 98.3403 106.461C98.3233 106.479 98.312 106.503 98.3079 106.528C98.3039 106.553 98.3072 106.578 98.3175 106.602C98.5091 106.908 98.6931 107.215 98.8771 107.521C97.5884 108.2 96.437 109.113 95.4812 110.212C95.4721 110.228 95.4685 110.247 95.471 110.265C95.4734 110.283 95.4819 110.3 95.4949 110.313C95.508 110.326 95.525 110.335 95.5433 110.337C95.5616 110.34 95.5802 110.336 95.5962 110.327C96.6303 109.407 97.7464 108.583 98.9307 107.866C98.992 108.234 99.0687 108.633 99.1454 108.962C99.1454 109.169 99.5363 109.123 99.5056 108.916C99.5094 108.871 99.5094 108.824 99.5056 108.778C99.5346 108.751 99.5558 108.717 99.567 108.679L99.6359 108.786C99.6559 108.823 99.6875 108.853 99.7259 108.87C99.7643 108.887 99.8074 108.892 99.8484 108.882C99.8894 108.872 99.9261 108.849 99.9528 108.817C99.9795 108.784 99.9948 108.744 99.9962 108.702V108.664C99.9965 108.643 99.9918 108.622 99.9825 108.603C99.9731 108.585 99.9595 108.568 99.9426 108.556C99.7893 108.247 99.6178 107.948 99.429 107.659C100.14 107.328 100.929 107.196 101.709 107.279C102.49 107.361 103.233 107.654 103.86 108.127V108.188C103.86 108.357 103.798 108.526 103.76 108.694C103.722 108.863 103.699 108.985 103.676 109.131C103.653 109.277 104.013 109.491 104.051 109.238V109.131C104.083 109.108 104.106 109.076 104.12 109.039L104.35 109.637C104.435 109.852 104.779 109.767 104.703 109.537C104.626 109.307 104.496 108.909 104.389 108.602C105.86 110.059 107.087 113.293 109.954 111.829C110.007 112.343 110.015 112.496 110.084 113.132C110.093 113.176 110.116 113.215 110.151 113.243C110.185 113.271 110.228 113.286 110.272 113.286C110.316 113.286 110.359 113.271 110.393 113.243C110.427 113.215 110.451 113.176 110.46 113.132C110.46 112.971 110.46 112.81 110.421 112.649C110.429 112.617 110.429 112.583 110.421 112.55C110.441 112.558 110.463 112.558 110.483 112.55C110.613 112.634 110.835 112.55 110.774 112.343C110.668 112.066 110.548 111.795 110.414 111.53C111.77 110.595 112.828 108.817 112.054 107.36C111.479 106.287 110.214 105.942 109.095 105.375C109.455 105.13 110.023 105.03 109.685 104.762C109.586 104.371 109.256 104.762 108.727 105.03V104.708C108.727 104.684 108.718 104.66 108.7 104.643C108.683 104.626 108.66 104.616 108.635 104.616C108.611 104.616 108.587 104.626 108.57 104.643C108.553 104.66 108.543 104.684 108.543 104.708C108.543 104.816 108.505 104.915 108.482 105.022C107.064 103.98 107.416 102.455 108.873 101.604C110.329 100.753 112.1 100.439 113.656 99.7948C114.231 99.5355 114.75 99.165 115.181 98.7046C115.613 98.2441 115.949 97.7028 116.17 97.1119L126.818 91.8382C126.838 91.8432 126.86 91.8405 126.878 91.8305C126.896 91.8206 126.91 91.8042 126.917 91.7845C126.764 91.087 126.021 82.0189 125.944 81.9729ZM121.621 89.5462L116.255 96.9509C116.408 95.5559 117.021 88.8104 116.807 87.1317L121.636 89.5462L125.837 82.1799C126.012 85.3682 126.347 88.5456 126.841 91.7002L121.621 89.5462ZM14.4109 97.8784L13.5754 96.491L13.2688 98.0011L11.889 98.3077L12.9775 99.0819L12.6555 100.554L13.9433 99.4958L15.4534 100.186L14.7559 98.7983L15.6757 97.6638L14.4109 97.8784ZM94.3851 96.5677L93.2046 94.6897L92.7677 96.7363L90.79 97.1502L92.3384 98.2004L91.8861 100.201L93.7182 98.7599L95.8722 99.7028L94.8757 97.8248L96.1788 96.2764L94.3851 96.5677ZM40.3893 15.8367C41.2172 15.9746 42.275 15.7907 42.7426 16.6415L42.5126 16.8025C42.466 17.0154 42.4959 17.2379 42.597 17.431C42.7381 17.7325 42.9384 18.0026 43.186 18.2251C43.4335 18.4476 43.7233 18.6182 44.0381 18.7265L44.2144 18.6805C44.6513 18.9641 45.2492 19.1634 45.6632 18.7188C46.0771 18.2742 45.8011 17.569 45.8088 17.5537C46.6903 16.3349 44.8583 15.1698 44.8583 15.1698L44.6436 15.3231C43.8311 13.79 46.0234 12.3183 44.1071 9.67376C41.8764 6.60763 35.9356 8.02572 37.6374 13.2305C37.8094 13.8772 38.1579 14.4635 38.6438 14.9237C39.1298 15.3839 39.7341 15.7 40.3893 15.8367ZM43.3942 16.1969C42.3862 15.1918 41.2994 14.269 40.144 13.4374C40.4659 13.5141 40.6576 13.6827 40.9105 13.3991V13.2918C41.2095 12.5253 41.3935 13.3301 41.7844 12.7475V12.5866C41.999 12.28 41.9684 12.5329 42.1754 12.5099C42.274 12.516 42.3729 12.503 42.4666 12.4716C42.7043 12.3643 42.6583 11.981 43.0722 12.027C43.2589 13.2999 43.5907 14.5472 44.0611 15.7447L43.3942 16.1969ZM45.6095 17.799C45.6713 17.9441 45.6911 18.1037 45.6667 18.2595C45.6423 18.4153 45.5747 18.5612 45.4715 18.6805C45.1496 18.9794 44.705 18.8108 44.3983 18.6115C44.8571 18.4334 45.2707 18.1559 45.6095 17.799ZM44.5823 11.3065C44.9196 12.8395 43.6931 14.3726 44.4673 15.4457L44.2144 15.622C43.5398 13.3914 42.7809 9.94971 43.0186 11.8354C42.298 11.7894 42.4743 12.0807 42.344 12.188C42.2137 12.2953 41.8611 12.188 41.6234 12.303C41.5545 12.303 41.6234 12.4639 41.5545 12.4946C41.0869 12.9852 41.2325 12.6249 40.8416 12.7552C40.6959 12.8089 40.6883 12.8472 40.6193 12.9698C40.5503 13.0925 40.8032 13.2381 40.5503 13.3761C40.5503 13.3761 40.1287 13.3148 39.9677 13.3071C38.4346 12.1113 41.6848 15.0548 43.1795 16.3732L42.8729 16.5879C41.9761 14.7942 38.013 17.0861 37.5914 11.7664C37.2541 7.35117 43.6931 7.1442 44.5823 11.3065ZM99.4136 132.495C99.396 132.674 99.4415 132.853 99.5424 133.001C99.6432 133.15 99.793 133.258 99.9656 133.307C100.839 133.376 100.916 132.748 100.916 132.748L101.307 131.292L99.7739 131.131L99.4136 132.495ZM40.2053 3.90945C40.2053 3.79447 39.983 3.8098 39.9984 3.90945C40.0853 4.74247 40.2235 5.56935 40.4123 6.38534C40.5043 6.65363 41.0179 6.71495 40.2053 3.90945ZM44.383 8.24801C44.7224 7.64607 44.9802 7.00164 45.1496 6.33168C45.147 6.31164 45.1392 6.29263 45.1269 6.27656C45.1147 6.26049 45.0984 6.24794 45.0797 6.24017C45.0611 6.2324 45.0407 6.22968 45.0207 6.23229C45.0006 6.2349 44.9816 6.24274 44.9656 6.25503C44.5916 6.83876 44.3049 7.47404 44.1147 8.14069C44.0687 8.28634 44.314 8.43198 44.383 8.24801ZM35.882 8.53929C35.8988 8.54577 35.917 8.54791 35.9349 8.5455C35.9527 8.5431 35.9697 8.53623 35.9842 8.52554C35.9987 8.51485 36.0103 8.50067 36.0179 8.48432C36.0255 8.46796 36.0288 8.44996 36.0276 8.43198C35.5148 7.64193 34.9214 6.90724 34.2569 6.2397C34.1726 6.17071 34.0269 6.2397 34.0959 6.36234C34.3719 6.70728 35.537 8.19435 35.882 8.53929ZM32.5322 13.9127C35.0848 13.5601 34.8318 13.1461 34.6555 13.1461C33.889 13.2381 33.1991 13.5447 32.4708 13.6904C32.3175 13.7134 32.3865 13.9357 32.5322 13.9127ZM37.714 16.9405C37.783 16.8485 37.668 16.7105 37.5607 16.7488C36.9522 17.1291 36.3731 17.5544 35.8283 18.0213C35.7057 18.1209 35.8283 18.3202 35.9893 18.2359C36.5948 17.8464 37.1712 17.4134 37.714 16.9405ZM40.3893 17.6687C40.259 18.3126 40.282 18.9948 40.19 19.6463C40.19 19.8073 40.4123 19.8839 40.443 19.7153C40.6149 19.0476 40.677 18.3563 40.6269 17.6687C40.6269 17.6372 40.6144 17.6069 40.5921 17.5847C40.5698 17.5624 40.5396 17.5499 40.5081 17.5499C40.4766 17.5499 40.4464 17.5624 40.4241 17.5847C40.4018 17.6069 40.3893 17.6372 40.3893 17.6687ZM37.5147 26.6524C37.6993 26.6678 37.885 26.6438 38.0595 26.5818C38.234 26.5198 38.3933 26.4213 38.5268 26.293C38.6602 26.1646 38.7648 26.0092 38.8335 25.8373C38.9022 25.6653 38.9335 25.4807 38.9252 25.2957C38.7872 23.4023 36.089 23.6476 36.02 25.196C36.0392 25.5826 36.204 25.9477 36.4813 26.2178C36.7585 26.488 37.1277 26.6432 37.5147 26.6524ZM38.6032 25.1193C38.6416 25.2778 38.6417 25.4432 38.6034 25.6017C38.5652 25.7602 38.4898 25.9074 38.3834 26.0309C38.2771 26.1545 38.1428 26.251 37.9917 26.3125C37.8407 26.3739 37.6772 26.3984 37.5147 26.3841C37.206 26.3907 36.9056 26.2833 36.6709 26.0826C36.4362 25.8818 36.2836 25.6017 36.2423 25.2957C36.2588 25.0076 36.379 24.7352 36.5807 24.5288C36.7823 24.3224 37.0517 24.1958 37.3394 24.1725C37.627 24.1492 37.9133 24.2306 38.1456 24.4018C38.3779 24.573 38.5404 24.8224 38.6032 25.104V25.1193ZM73.0367 42.3126C73.098 42.4966 81.0931 42.8415 82.8562 42.8032C82.6268 43.0178 82.4633 43.2931 82.3846 43.5972C82.3058 43.9012 82.3152 44.2213 82.4116 44.5202C82.6415 45.0951 83.3621 45.2101 83.8987 45.2868C86.7732 45.67 89.6325 46.2449 92.8137 45.601C97.1523 44.7272 94.8527 40.4193 92.2387 42.4046C92.3363 41.8419 92.2636 41.2628 92.03 40.7417C91.7963 40.2206 91.4123 39.7811 90.9271 39.4797C90.442 39.1782 89.8779 39.0286 89.3072 39.0498C88.7365 39.0711 88.1851 39.2624 87.7238 39.5991C87.7238 37.6445 84.8262 36.0117 83.5997 37.7671C83.914 34.9769 81.4381 33.2216 78.7628 33.7428C75.8882 34.2871 75.3746 37.5601 76.6548 39.7678C76.266 39.4531 75.7853 39.2738 75.2855 39.2569C74.7857 39.2401 74.294 39.3866 73.885 39.6743C73.4759 39.962 73.1718 40.3752 73.0187 40.8513C72.8656 41.3274 72.8719 41.8404 73.0367 42.3126ZM87.8771 39.7831C89.9468 38.549 92.1774 39.7831 91.9781 42.6269C91.9781 42.6269 92.1698 42.7036 92.1851 42.6882C94.6304 40.7259 96.6234 44.4896 93.0666 45.3021C90.1767 45.9613 86.7042 45.5321 83.7377 45.0108C81.438 44.6046 83.1705 41.5538 84.9105 42.7496C85.0408 42.8415 85.0868 41.7914 85.953 41.7837C86.3746 41.7837 86.9495 41.9294 87.0875 42.374C87.0875 42.374 87.2408 42.1747 87.2255 42.1287C87.0262 41.2701 87.0185 40.2967 87.8771 39.7831ZM83.2778 38.0431C83.2778 38.1964 83.5154 38.089 83.5231 38.0431C84.9105 36.2417 87.3558 37.8208 87.4325 39.7371C87.1276 39.9624 86.9084 40.2847 86.8109 40.6511C86.7134 41.0174 86.7434 41.406 86.8959 41.7531C86.1293 41.2395 84.8952 41.4618 84.8109 42.5196C84.6781 42.4039 84.5237 42.3159 84.3566 42.2605C84.1895 42.2051 84.013 42.1836 83.8375 42.1972C83.662 42.2107 83.4909 42.2591 83.3343 42.3395C83.1776 42.4198 83.0385 42.5306 82.9252 42.6652C79.859 42.236 73.5732 42.2743 73.2436 42.1287C72.914 41.983 73.2436 40.7489 73.4736 40.381C73.6634 40.1305 73.9061 39.9249 74.1843 39.7788C74.4626 39.6328 74.7697 39.5498 75.0836 39.5359C75.3976 39.522 75.7108 39.5775 76.0009 39.6984C76.291 39.8193 76.5509 40.0026 76.7621 40.2353C76.8847 40.3426 76.9231 40.036 76.9154 40.0284C73.3586 31.9185 84.3893 32.3631 83.3161 38.0431H83.2778ZM91.6485 24.6978C91.5076 23.7003 91.0937 22.7613 90.4527 21.9842C87.5245 19.3167 81.4074 22.2602 84.4659 28.1165C84.8064 28.6524 85.1828 29.1646 85.5928 29.6495C86.2826 30.646 86.5969 32.8766 86.7426 34.0801C86.7426 34.1106 86.7547 34.1398 86.7763 34.1614C86.7978 34.183 86.8271 34.1951 86.8576 34.1951H89.0576C89.4178 34.1951 88.9426 31.4509 89.3948 30.2014C90.0541 28.2851 92.1621 26.9744 91.6485 24.6978ZM86.9725 21.302C87.478 21.1957 88.0001 21.1957 88.5056 21.302C89.0324 22.7236 89.2646 24.2374 89.1881 25.7514C89.1117 27.2655 88.7282 28.7482 88.061 30.1095H87.4401C86.7735 28.7484 86.3885 27.2668 86.3081 25.7534C86.2278 24.24 86.4538 22.726 86.9725 21.302ZM84.4506 27.4956C83.5384 25.196 83.5231 23.1954 85.5851 21.8769C84.3279 23.5096 84.6269 27.8329 87.1182 30.1171C86.7656 30.1171 86.4206 30.0098 86.068 29.9715C85.4764 29.1817 84.9361 28.3547 84.4506 27.4956ZM88.8736 33.9958C88.383 34.0494 87.9077 33.9958 87.4171 33.9958C86.9265 33.9958 87.0262 34.2641 86.7732 32.6697C87.5172 32.7883 88.2753 32.7883 89.0192 32.6697C89.0313 33.1163 88.9823 33.5624 88.8736 33.9958ZM89.0192 32.4627C88.2527 32.5624 87.4861 32.4627 86.7196 32.5394C86.5513 31.7012 86.3311 30.8743 86.0603 30.0635C87.0745 30.4083 88.1717 30.4244 89.1955 30.1095C89.0059 30.8812 88.9463 31.6791 89.0192 32.4704V32.4627ZM89.3029 29.8948C89.0452 29.9213 88.7893 29.9622 88.5363 30.0175C91.0046 27.5952 91.1196 23.364 89.9238 21.8463C91.1426 22.6971 91.9245 25.38 91.1886 26.8517C90.652 27.9095 89.7934 28.791 89.3335 29.9178L89.3029 29.8948ZM95.5579 35.5595C95.7189 35.9428 95.8645 33.5129 97.5203 33.3059C97.5816 33.3059 97.6353 33.2446 97.5816 33.1909C97.2443 32.8613 96.3015 32.846 96.1865 30.807C96.1865 30.7227 96.0255 30.692 96.0255 30.807C95.9795 33.1066 93.1586 33.1756 93.7258 33.3442C95.121 33.7275 95.3586 35.0919 95.5579 35.5595ZM96.1022 31.4279C96.1238 31.7822 96.2306 32.126 96.4134 32.4302C96.5962 32.7345 96.8497 32.9902 97.1523 33.1756C96.7763 33.3825 96.4465 33.664 96.1829 34.0027C95.9193 34.3414 95.7275 34.7303 95.6192 35.1456C95.4926 34.7458 95.2869 34.3755 95.0143 34.0569C94.7417 33.7382 94.4078 33.4776 94.0325 33.2906C94.5097 33.1871 94.9517 32.9608 95.3147 32.6341C95.6777 32.3074 95.9491 31.8916 96.1022 31.4279ZM105.653 44.068C105.592 44.068 105.607 44.1906 105.653 44.206C106.084 44.3011 106.47 44.5392 106.749 44.8816C107.027 45.2239 107.181 45.6504 107.186 46.0916C107.186 46.1453 107.301 46.1606 107.317 46.0916C107.332 46.0226 107.317 44.5586 108.267 43.9913C108.329 43.9913 108.359 43.8227 108.267 43.8304C107.225 43.9837 106.619 41.9064 106.612 41.8757C106.604 41.845 106.458 41.8297 106.481 41.8757C106.569 42.282 106.537 42.7049 106.39 43.0938C106.243 43.4826 105.988 43.8208 105.653 44.068ZM106.757 42.5349C107.002 43.1482 107.401 43.9147 107.999 44.0143C107.629 44.3705 107.382 44.8348 107.294 45.3404C107.043 44.7871 106.586 44.3529 106.021 44.1293C106.458 43.6994 106.72 43.1234 106.757 42.5119V42.5349ZM54.5781 32.3784V32.4474C54.959 32.5172 55.3097 32.7013 55.5835 32.9751C55.8573 33.2489 56.0414 33.5996 56.1112 33.9804C56.1163 33.9958 56.126 34.0091 56.1391 34.0186C56.1522 34.0281 56.1679 34.0332 56.1841 34.0332C56.2002 34.0332 56.2159 34.0281 56.229 34.0186C56.2421 34.0091 56.2518 33.9958 56.2569 33.9804C56.4715 33.2829 56.6172 32.5317 57.79 32.3631C57.836 32.3631 57.8513 32.2634 57.79 32.2634C56.4025 32.1254 56.1342 30.4084 56.0806 30.2858C56.0269 30.1631 55.9503 30.2858 55.9579 30.2858C56.1649 31.5889 54.9921 32.1408 54.5781 32.3784ZM56.1726 30.968C56.2662 31.2553 56.4199 31.5193 56.6235 31.7427C56.827 31.966 57.0757 32.1435 57.353 32.2634C57.0842 32.3806 56.8448 32.5563 56.6526 32.7778C56.4603 32.9993 56.3198 33.2609 56.2416 33.5435C56.1111 33.2504 55.9121 32.9929 55.6613 32.7927C55.4105 32.5926 55.1152 32.4558 54.8004 32.3937C55.1293 32.2883 55.4269 32.1028 55.6664 31.854C55.9059 31.6051 56.0798 31.3007 56.1726 30.968ZM126.082 60.2571C125.315 57.6202 125.208 55.1674 124.901 55.474C123.936 56.4321 121.835 58.3331 121.835 58.3408C121.835 58.3485 124.633 59.6899 125.883 60.3951C125.913 60.4181 126.105 60.3261 126.082 60.2571ZM122.134 58.2948C123.158 57.5033 124.1 56.6123 124.947 55.6349C125.036 57.1539 125.328 58.6542 125.814 60.0961C124.556 59.4293 123.361 59.023 122.134 58.2948ZM118.815 59.9352C118.605 60.6907 118.444 61.4588 118.332 62.2348C118.332 62.3957 118.547 62.4647 118.577 62.3037C118.778 61.5237 118.896 60.7246 118.93 59.9198C118.924 59.9084 118.915 59.899 118.904 59.8931C118.893 59.8871 118.88 59.8848 118.867 59.8865C118.854 59.8882 118.843 59.8938 118.833 59.9025C118.824 59.9112 118.818 59.9226 118.815 59.9352ZM117.727 65.5922C117.975 64.8425 118.159 64.0732 118.278 63.2926C118.278 63.1929 118.14 63.1853 118.11 63.2926C117.864 64.0272 117.679 64.781 117.558 65.5462C117.559 65.5655 117.566 65.5841 117.578 65.5992C117.59 65.6143 117.607 65.6251 117.626 65.6302C117.644 65.6353 117.664 65.6344 117.682 65.6276C117.7 65.6207 117.716 65.6083 117.727 65.5922ZM120.494 63.6835C120.522 63.6925 120.553 63.6907 120.581 63.6783C120.608 63.666 120.63 63.6441 120.642 63.6167C120.655 63.5892 120.657 63.5583 120.647 63.5296C120.638 63.501 120.619 63.4766 120.593 63.4612C119.987 63.1532 119.335 62.946 118.662 62.848C118.102 62.8557 120.11 63.6222 120.494 63.6835ZM117.604 62.4187C116.937 62.2348 116.278 61.9971 115.611 61.8208C115.465 61.8208 114.944 61.9665 117.527 62.7023C117.565 62.7125 117.605 62.7073 117.639 62.6879C117.672 62.6685 117.697 62.6365 117.707 62.5989C117.718 62.5613 117.712 62.5211 117.693 62.4874C117.674 62.4536 117.641 62.4289 117.604 62.4187ZM98.1872 72.3146C97.091 72.8742 96.1711 74.7062 96.5851 75.8943C96.5851 75.8943 96.6464 75.948 96.6617 75.9557C98.5015 76.1396 109.693 76.1243 113.388 76.0476C113.414 76.047 113.44 76.0391 113.462 76.0249C113.485 76.0108 113.503 75.9908 113.514 75.9672C113.526 75.9436 113.531 75.9172 113.529 75.8908C113.527 75.8645 113.518 75.8392 113.503 75.8177C113.622 75.3036 113.573 74.7649 113.363 74.2807C113.153 73.7965 112.794 73.3922 112.338 73.1272C111.826 72.9325 111.279 72.8496 110.733 72.8839C110.187 72.9183 109.655 73.0692 109.172 73.3265C109.701 72.3836 109.172 71.3411 108.528 70.5286C107.761 69.5321 106.918 68.574 105.592 68.482C104.42 68.3246 103.23 68.5969 102.242 69.2485C101.269 70.061 101.353 71.2568 101.522 72.3836C100.786 71.3795 99.176 71.8087 98.1872 72.3146ZM102.273 69.6318C102.673 69.2665 103.147 68.9903 103.662 68.8214C104.177 68.6526 104.722 68.5948 105.261 68.6521C105.8 68.7093 106.32 68.8802 106.788 69.1534C107.256 69.4267 107.661 69.7961 107.976 70.2373C108.681 71.1112 109.647 72.3376 108.796 73.4414C108.697 73.5717 109.034 73.5488 109.042 73.5411C112.376 72.4909 113.227 73.6331 113.281 75.764C109.616 75.971 97.5203 75.695 96.6847 75.8177C96.4471 72.1767 100.517 71.2185 101.644 72.8589C101.69 72.9279 101.79 72.8589 101.721 72.7286C101.614 71.7014 101.491 70.429 102.273 69.6318ZM110.253 82.5861C110.337 82.5325 110.253 82.4022 110.214 82.4252C108.911 82.8851 108.152 81.0301 108.099 80.9534C108.045 80.8768 107.961 80.9534 107.984 80.9994C108.344 81.9039 108.237 82.9694 107.217 83.3527C107.204 83.3574 107.192 83.3662 107.184 83.3779C107.175 83.3895 107.171 83.4035 107.171 83.4178C107.171 83.4322 107.175 83.4461 107.184 83.4578C107.192 83.4695 107.204 83.4783 107.217 83.483C107.648 83.4188 108.087 83.508 108.458 83.735C108.83 83.962 109.109 84.3124 109.248 84.7248C109.248 84.8168 109.432 84.8014 109.425 84.7248C109.417 84.6481 109.202 83.1994 110.253 82.5861ZM109.218 84.1959C109.046 83.9445 108.818 83.7366 108.552 83.5889C108.286 83.4412 107.989 83.3577 107.685 83.345C107.926 83.1538 108.113 82.9021 108.226 82.6153C108.34 82.3286 108.375 82.0171 108.329 81.7123C108.484 81.9872 108.706 82.2188 108.973 82.3862C109.241 82.5535 109.547 82.6513 109.862 82.6705C109.659 82.8699 109.498 83.1073 109.388 83.3691C109.277 83.6308 109.22 83.9118 109.218 84.1959ZM80.2269 112.42C81.9823 107.1 86.229 102.455 90.836 99.3885C90.9816 99.2889 90.836 99.0589 90.698 99.1509C81.1468 105.505 79.652 114.213 80.2269 112.42ZM77.314 107C79.9279 103.007 82.4499 101.404 86.6276 99.1739C86.7886 99.0896 86.6276 98.8519 86.4896 98.9363C82.9405 100.707 79.0234 103.275 77.2374 106.954C77.2343 106.964 77.2346 106.975 77.2383 106.984C77.242 106.994 77.2488 107.002 77.2576 107.007C77.2664 107.013 77.2768 107.015 77.287 107.013C77.2973 107.012 77.3068 107.007 77.314 107ZM89.2109 95.9698C89.5711 95.9238 89.2645 95.3949 86.0067 96.1384C79.0541 97.6715 77.4443 100.876 77.8199 100.462C81.1698 96.7976 86.1063 96.3684 89.2109 95.9698ZM18.9182 81.6357C17.8297 82.2106 16.9789 81.3444 16.6876 80.3632C16.6876 80.2866 16.5266 80.2942 16.5343 80.3632C16.7336 82.7701 20.413 82.7088 19.8764 79.5967C19.4982 78.03 18.8553 76.5394 17.9754 75.1891C16.036 71.8854 14.3189 70.6819 14.6639 71.1112C16.6569 73.5871 21.6318 80.2099 18.9182 81.6357ZM27.8715 85.8976C28.3315 85.6139 28.0785 84.8934 28.1245 84.4565C28.1245 84.3492 27.9635 84.3338 27.9405 84.4565C27.9112 84.6803 27.8933 84.9054 27.8869 85.131C27.7336 85.8976 26.9977 85.6906 26.4841 85.4453C25.69 84.9802 25.0196 84.3308 24.5294 83.552C23.5405 82.1799 22.682 80.7005 21.8235 79.2517C16.4576 70.3063 16.0743 70.8659 16.1816 70.9962C18.8186 74.4226 20.8576 78.1863 23.1343 81.8503C23.9851 83.23 24.9126 84.9624 26.4687 85.6829C26.829 85.8516 27.4883 86.1275 27.8715 85.8976ZM19.5545 73.3954C19.5008 73.3265 19.3858 73.3955 19.4318 73.4874C23.1189 78.7612 22.5287 76.9751 19.5545 73.3954ZM11.2757 68.0987C9.63531 70.5746 12.5022 71.7244 12.5022 71.7244C12.292 71.4171 12.2089 71.0403 12.2704 70.6731C12.3318 70.3058 12.533 69.9766 12.8318 69.7544C13.0522 69.9055 13.2827 70.0413 13.5217 70.1607C14.24 69.9118 14.8817 69.4814 15.3844 68.9112C15.3021 68.6276 15.1917 68.3528 15.0548 68.0911C15.3752 67.8775 15.7666 67.7981 16.1449 67.8697C16.5232 67.9414 16.8584 68.1584 17.0785 68.4743C17.0785 68.4743 17.0785 65.2856 14.0123 66.0444C10.5935 60.0425 5.25064 58.0342 10.7315 67.1942C10.8771 67.5008 11.0688 67.7998 11.2757 68.0987ZM10.5552 62.0355C11.4214 63.0013 13.1998 63.9671 15.2081 68.8039C14.6976 69.2748 14.1373 69.6886 13.537 70.038C10.1029 66.374 10.3175 65.6612 8.85343 63.2542L10.5552 62.0355ZM28.5844 48.5829C27.0513 48.8128 24.6444 50.4839 25.2269 52.3005C24.7422 51.9088 24.144 51.6838 23.5212 51.6589C22.8984 51.6341 22.2842 51.8107 21.7698 52.1626C21.1434 52.6432 20.6882 53.3125 20.4715 54.0717C20.2548 54.8309 20.288 55.6396 20.5663 56.3785H34.2952C35.606 56.3785 36.043 50.4149 31.4743 52.2239C31.6529 51.7858 31.7117 51.3081 31.6447 50.8398C31.5778 50.3715 31.3875 49.9294 31.0934 49.5588C30.7993 49.1883 30.412 48.9026 29.9711 48.7311C29.5302 48.5596 29.0516 48.5084 28.5844 48.5829ZM31.3287 52.5228C33.751 50.9898 36.0966 53.573 34.3259 56.2252C34.3259 56.2252 21.4785 56.0412 20.7809 56.1792C19.5851 52.3465 23.7168 50.4915 25.4339 52.7911C25.4876 52.8678 25.4339 52.5381 25.3726 52.4538C24.6597 49.9089 28.9907 47.4561 30.8381 49.5027C32.0646 50.8518 30.9684 52.7604 31.3287 52.5228ZM16.1816 31.8112C16.136 31.8893 16.1082 31.9765 16.1003 32.0666C16.0923 32.1567 16.1044 32.2475 16.1357 32.3324C15.852 32.6467 16.3426 33.5512 17.0785 33.0529C18.3626 33.5887 19.7186 33.9322 21.1029 34.0724C20.712 35.3142 19.8151 38.572 20.9343 39.2312C22.0534 39.8904 23.6095 36.1651 24.0694 35.0536C24.3946 34.9415 24.6962 34.77 24.9586 34.5477C26.9133 34.7086 31.183 34.8466 29.8722 32.938C29.3433 32.1714 26.3154 31.5965 25.3956 31.4509C25.9092 29.8795 27.289 25.173 24.997 26.0852C24.0235 26.4608 23.0959 28.745 22.452 30.3471C22.0359 30.4435 21.6557 30.6562 21.3559 30.9603C20.1064 30.8377 16.6952 30.6614 16.1816 31.8112ZM25.4569 31.6272C26.3461 31.7652 29.3893 32.3937 29.7113 33.0299C30.5851 34.701 26.9747 34.3944 25.1963 34.2947C25.5491 33.9533 25.769 33.4975 25.8167 33.0088C25.8645 32.5202 25.7369 32.0305 25.4569 31.6272ZM25.043 26.2615C26.9133 25.7172 25.7022 29.5729 25.1579 31.3129C24.8445 30.9653 24.4556 30.6941 24.0211 30.5201C23.5866 30.346 23.1181 30.2737 22.6513 30.3088C22.9963 29.4579 24.1921 26.4914 25.043 26.2462V26.2615ZM23.8088 35.1532C21.6701 41.0095 19.4778 39.9977 21.2792 34.1797C21.5395 34.5926 21.9272 34.9095 22.3836 35.0823C22.84 35.2552 23.3403 35.2747 23.8088 35.1379V35.1532ZM21.2409 31.1443C20.9707 31.5362 20.8116 31.994 20.7805 32.4691C20.7495 32.9441 20.8476 33.4187 21.0646 33.8425C21.0646 33.8425 17.8757 33.3442 17.2318 32.9073C17.4848 32.6697 17.3085 32.0105 16.381 32.1408C16.2276 31.7192 16.8409 31.4816 17.1092 31.3742C18.4562 31.0174 19.8611 30.934 21.2409 31.1289V31.1443ZM15.5377 22.1069C15.9037 22.2636 16.225 22.5088 16.4726 22.8206C16.7201 23.1324 16.8862 23.5009 16.9559 23.8929C17.1628 24.3298 16.9559 22.1682 18.1747 22.0762C18.2283 22.0762 18.259 21.9842 18.1747 21.9536C17.6381 21.6776 16.8945 21.5933 16.4193 19.4777C16.4193 19.355 16.174 19.4164 16.2353 19.5313C16.7106 20.4512 15.5224 21.9996 15.5147 21.9996C15.5005 22.0026 15.4881 22.0112 15.4802 22.0234C15.4723 22.0356 15.4695 22.0505 15.4726 22.0647C15.4756 22.079 15.4842 22.0914 15.4964 22.0993C15.5087 22.1072 15.5235 22.1099 15.5377 22.1069ZM16.4883 20.3745C16.5725 20.7245 16.7321 21.0519 16.9558 21.3338C17.1796 21.6158 17.4621 21.8456 17.7837 22.0072C17.5497 22.1341 17.3505 22.3164 17.2034 22.5383C17.0564 22.7602 16.9661 23.0147 16.9405 23.2797C16.8532 22.9698 16.6851 22.6886 16.4535 22.4651C16.2218 22.2415 15.9349 22.0835 15.6221 22.0072C16.0978 21.5849 16.4053 21.0052 16.4883 20.3745ZM15.4304 13.7977C16.805 13.4846 18.1572 13.08 19.4778 12.5866C20.298 13.0005 17.0862 9.52045 15.8674 8.67727C15.8137 8.63894 15.7524 8.72326 15.7907 8.76925C15.5531 10.3955 15.3995 12.033 15.3308 13.675C15.3308 13.675 15.3998 13.7977 15.4304 13.7977ZM15.875 8.8459C18.466 11.4444 18.3127 11.5671 19.2938 12.4256C18.0367 12.8319 16.7949 13.3608 15.5147 13.6674C15.6067 12.05 15.7217 10.4403 15.875 8.83824V8.8459ZM15.1698 54.1172C15.183 54.1335 15.2021 54.1438 15.223 54.146C15.2438 54.1481 15.2647 54.1419 15.2809 54.1287C15.2972 54.1155 15.3076 54.0964 15.3097 54.0755C15.3119 54.0547 15.3057 54.0338 15.2924 54.0176C15.2259 53.6369 15.2563 53.2457 15.3809 52.88C15.5055 52.5142 15.7203 52.1858 16.0053 51.9249C16.0973 51.8406 16.0053 51.6643 15.921 51.7256C14.6639 52.4232 13.7823 51.0128 13.767 50.9591C13.7517 50.9054 13.606 50.9591 13.6367 51.0128C14.2269 52.5458 13.3301 53.1207 12.9391 53.3123C12.9008 53.3123 12.9391 53.4043 12.9391 53.389C13.3345 53.2084 13.7833 53.183 14.1965 53.3179C14.6097 53.4528 14.9571 53.7381 15.1698 54.1172ZM13.9357 51.4803C14.1497 51.7205 14.4232 51.9001 14.7286 52.001C15.0341 52.1019 15.3607 52.1206 15.6757 52.0552C15.2705 52.5049 15.0488 53.0903 15.0548 53.6956C14.8716 53.4947 14.6434 53.34 14.389 53.2441C14.1345 53.1482 13.861 53.1138 13.5907 53.1437C13.7856 52.919 13.9196 52.6482 13.98 52.357C14.0404 52.0658 14.0251 51.764 13.9357 51.4803ZM24.6904 68.8039C24.652 68.8039 24.6904 68.8806 24.6904 68.8806C25.0724 68.6872 25.5143 68.6486 25.9241 68.7728C26.3339 68.8971 26.68 69.1745 26.8904 69.5475C26.944 69.6241 27.0513 69.5475 27.013 69.4478C26.9566 69.0674 26.9919 68.6791 27.1159 68.3151C27.2399 67.9511 27.449 67.622 27.7259 67.3552C27.8102 67.2709 27.7259 67.1099 27.6416 67.1559C27.4503 67.2501 27.2422 67.3049 27.0294 67.3172C26.8166 67.3296 26.6035 67.2991 26.4026 67.2276C26.2018 67.1562 26.0174 67.0451 25.8602 66.9012C25.703 66.7572 25.5763 66.5832 25.4876 66.3894C25.4876 66.3204 25.3266 66.3894 25.3573 66.443C26.0012 67.9761 25.089 68.574 24.6904 68.8039ZM25.6869 66.9106C25.9009 67.1508 26.1744 67.3303 26.4799 67.4312C26.7853 67.5322 27.112 67.5509 27.4269 67.4855C27.061 67.9563 26.8519 68.53 26.829 69.1259C26.649 68.9209 26.4212 68.7633 26.1659 68.667C25.9106 68.5708 25.6355 68.5388 25.3649 68.574C25.5559 68.3471 25.6857 68.0752 25.742 67.7841C25.7984 67.493 25.7794 67.1923 25.6869 66.9106ZM10.9308 77.7263C10.944 77.7426 10.9631 77.753 10.984 77.7551C11.0048 77.7573 11.0257 77.7511 11.0419 77.7378C11.0582 77.7246 11.0685 77.7055 11.0707 77.6847C11.0729 77.6638 11.0666 77.643 11.0534 77.6267C10.8925 76.8065 11.0534 76.4692 11.7816 75.5494C11.8583 75.4574 11.7816 75.3041 11.6973 75.3501C11.5059 75.4466 11.297 75.5033 11.0831 75.5168C10.8691 75.5303 10.6547 75.5004 10.4527 75.4287C10.2507 75.3571 10.0653 75.2453 9.90766 75.1C9.75005 74.9548 9.62351 74.7791 9.53566 74.5836C9.53566 74.5146 9.38235 74.5836 9.41301 74.6372C9.52946 74.8345 9.60392 75.0536 9.63172 75.281C9.65953 75.5083 9.64007 75.739 9.57459 75.9585C9.5091 76.1779 9.39899 76.3815 9.25115 76.5565C9.10331 76.7314 8.92094 76.874 8.71545 76.9751V77.0518C9.10136 76.8621 9.54499 76.8262 9.95637 76.9515C10.3678 77.0767 10.7161 77.3537 10.9308 77.7263ZM9.7043 75.1201C9.91714 75.3597 10.1893 75.5389 10.4934 75.6398C10.7975 75.7407 11.1229 75.7598 11.4367 75.695C11.23 75.9155 11.0688 76.1745 10.9622 76.4573C10.8557 76.74 10.8059 77.0411 10.8158 77.3431C10.6341 77.1419 10.4075 76.9864 10.1545 76.8892C9.90142 76.792 9.62901 76.7558 9.35935 76.7835C9.55292 76.5581 9.68612 76.2873 9.74645 75.9963C9.80678 75.7054 9.79228 75.4039 9.7043 75.1201ZM16.6339 99.0206C18.5675 99.64 20.3362 100.688 21.8081 102.087C23.1435 103.475 24.3951 104.942 25.5566 106.479C25.6332 106.571 25.7712 106.479 25.7099 106.364C23.7782 102.999 20.4513 99.9251 16.6492 98.9592C16.6109 98.9516 16.6032 99.0129 16.6339 99.0206ZM25.4876 100.837C25.5719 100.883 25.6715 100.761 25.5949 100.699C24.2025 99.3829 22.3941 98.5939 20.482 98.4687C20.3977 98.4687 20.3977 98.599 20.482 98.6066C22.429 98.7446 23.9085 99.8254 25.4876 100.837ZM25.7942 97.6638C24.4297 96.7067 22.8442 96.1124 21.1867 95.9368C19.5293 95.7611 17.8544 96.0099 16.3196 96.6597C16.266 96.6597 16.3196 96.7746 16.3196 96.7593C17.8612 96.2355 19.4988 96.056 21.1172 96.2335C22.7356 96.4109 24.2955 96.941 25.6869 97.7865C25.7031 97.8007 25.7244 97.8079 25.7459 97.8064C25.7675 97.805 25.7876 97.795 25.8018 97.7788C25.8161 97.7625 25.8233 97.7413 25.8218 97.7197C25.8204 97.6981 25.8104 97.678 25.7942 97.6638ZM103.637 116.727C103.193 117.785 102.235 119.863 102.227 119.878C101.267 123.265 100.514 126.708 99.9732 130.188C99.9732 130.188 101.506 130.471 101.506 130.456C102.564 127.037 103.147 123.45 104.097 120.016C104.097 120.016 103.76 116.781 103.768 116.766C103.775 116.75 103.66 116.658 103.637 116.727ZM103.706 116.927C103.691 117.151 103.691 117.377 103.706 117.601H103.461C103.568 117.348 103.637 117.134 103.706 116.927ZM100.065 130.065C100.51 128.195 102.12 121.449 102.365 119.955C102.365 119.955 102.84 119.901 103.078 119.901C102.135 123.258 100.701 130.134 100.701 130.142C100.493 130.091 100.28 130.066 100.065 130.065ZM101.445 130.264L100.839 130.165C101.606 126.754 103.193 119.901 103.193 119.893C103.454 119.925 103.712 119.987 103.959 120.077C103.308 121.626 101.867 128.501 101.445 130.264ZM102.357 119.801C102.763 119.149 103.114 118.465 103.407 117.755C103.519 117.792 103.635 117.815 103.752 117.824C103.752 117.939 103.875 119.357 103.936 119.909C103.415 119.815 102.886 119.779 102.357 119.801ZM101.307 130.54C100.848 130.447 100.385 130.378 99.9196 130.333C99.8659 130.333 99.8353 130.41 99.9196 130.441C100.36 130.598 100.818 130.698 101.284 130.74C101.384 130.77 101.437 130.563 101.307 130.54ZM99.8276 130.839C100.188 131.154 100.74 131.008 101.154 131.184C101.168 131.194 101.183 131.2 101.2 131.202C101.217 131.205 101.234 131.204 101.25 131.199C101.266 131.195 101.281 131.187 101.293 131.176C101.306 131.164 101.316 131.151 101.323 131.135C101.33 131.12 101.333 131.104 101.333 131.087C101.333 131.07 101.329 131.053 101.321 131.038C101.314 131.023 101.303 131.01 101.29 130.999C101.277 130.989 101.262 130.981 101.246 130.977C101.016 130.901 99.6513 130.655 99.8276 130.839ZM112.805 124.339C112.378 124.247 111.933 124.312 111.55 124.522C111.167 124.731 110.873 125.072 110.72 125.481C110.084 127.781 113.633 128.685 114.124 126.409C114.22 125.96 114.136 125.491 113.889 125.104C113.642 124.716 113.253 124.442 112.805 124.339ZM111.012 125.228C111.364 124.462 112.545 124.416 112.767 124.462C113.126 124.575 113.435 124.806 113.645 125.118C113.856 125.43 113.954 125.804 113.924 126.179C113.779 128.578 109.954 127.474 111.012 125.228ZM119.835 129.414C119.919 128.041 119.574 126.953 119.513 127.398C119.433 128.082 119.462 128.776 119.597 129.452C119.628 129.582 119.827 129.544 119.835 129.414ZM119.812 132.917C119.812 133.062 120.065 133.024 120.065 132.878C120.069 132.248 120.01 131.619 119.888 131C119.666 130.448 119.72 132.311 119.812 132.917ZM121.958 129.682C118.892 130.18 119.957 130.326 122.035 129.958C122.219 129.927 122.134 129.651 121.958 129.682ZM119.283 130.157C118.674 130.166 118.067 130.219 117.466 130.318C117.452 130.323 117.441 130.332 117.432 130.343C117.424 130.355 117.42 130.369 117.42 130.383C117.42 130.397 117.424 130.411 117.432 130.423C117.441 130.435 117.452 130.444 117.466 130.448C118.082 130.533 118.709 130.502 119.313 130.356C119.326 130.354 119.339 130.35 119.35 130.343C119.362 130.336 119.371 130.327 119.379 130.316C119.387 130.306 119.393 130.294 119.396 130.281C119.399 130.268 119.4 130.254 119.398 130.241C119.396 130.228 119.391 130.216 119.384 130.204C119.377 130.193 119.368 130.183 119.358 130.175C119.347 130.168 119.335 130.162 119.322 130.159C119.309 130.156 119.296 130.155 119.283 130.157Z" fill="#4C2FB3"/>
<path d="M12.3721 67.3322C12.3879 67.4645 12.4516 67.5863 12.5512 67.6748C12.6508 67.7632 12.7793 67.812 12.9125 67.812C13.0457 67.812 13.1742 67.7632 13.2738 67.6748C13.3734 67.5863 13.4372 67.4645 13.4529 67.3322C13.4529 67.0333 12.3721 66.6117 12.3721 67.3322ZM11.1916 65.4926C11.2075 65.6268 11.2721 65.7505 11.3731 65.8402C11.4741 65.93 11.6046 65.9795 11.7397 65.9795C11.8748 65.9795 12.0053 65.93 12.1063 65.8402C12.2073 65.7505 12.2719 65.6268 12.2878 65.4926C12.2719 65.3584 12.2073 65.2347 12.1063 65.1449C12.0053 65.0552 11.8748 65.0056 11.7397 65.0056C11.6046 65.0056 11.4741 65.0552 11.3731 65.1449C11.2721 65.2347 11.2075 65.3584 11.1916 65.4926ZM9.82715 63.7832C9.82715 63.9275 9.88449 64.066 9.98656 64.168C10.0886 64.2701 10.2271 64.3274 10.3714 64.3274C10.5157 64.3274 10.6542 64.2701 10.7562 64.168C10.8583 64.066 10.9156 63.9275 10.9156 63.7832C10.9156 63.4843 9.82715 63.0627 9.82715 63.7832ZM47.8327 53.458C47.9648 53.458 48.0916 53.4055 48.185 53.3121C48.2785 53.2187 48.331 53.0919 48.331 52.9598C48.331 52.8276 48.2785 52.7009 48.185 52.6075C48.0916 52.514 47.9648 52.4615 47.8327 52.4615C47.5261 52.4615 47.1735 53.458 47.8327 53.458ZM51.8648 55.3207C51.8733 55.2538 51.8675 55.1857 51.8477 55.1212C51.8279 55.0567 51.7946 54.9971 51.75 54.9464C51.7054 54.8958 51.6506 54.8552 51.5891 54.8274C51.5275 54.7996 51.4608 54.7852 51.3933 54.7852C51.3258 54.7852 51.2591 54.7996 51.1976 54.8274C51.1361 54.8552 51.0812 54.8958 51.0366 54.9464C50.992 54.9971 50.9587 55.0567 50.9389 55.1212C50.9191 55.1857 50.9133 55.2538 50.9219 55.3207C50.9219 55.6043 51.8648 55.9569 51.8648 55.3207Z" fill="#4C2FB3"/>
</svg>
