<svg width="200" height="200" viewBox="0 0 200 200" fill="none" xmlns="http://www.w3.org/2000/svg">
<path d="M60.8499 189.464C59.667 189.033 58.3947 188.905 57.1499 189.094C57.004 189.144 56.8774 189.238 56.7877 189.364C56.6981 189.489 56.6499 189.639 56.6499 189.794C56.6499 189.948 56.6981 190.098 56.7877 190.224C56.8774 190.349 57.004 190.444 57.1499 190.494C59.6799 191.604 64.0199 190.824 60.8499 189.464ZM57.9099 190.464C56.1999 189.774 57.7699 189.204 58.3099 189.204C60.5399 189.204 61.9699 190.104 60.9399 190.664C59.9361 190.947 58.865 190.873 57.9099 190.454V190.464ZM84.6099 183.014C84.4317 183.046 84.267 183.13 84.1357 183.255C84.0045 183.379 83.9125 183.54 83.8711 183.716C83.8297 183.892 83.8407 184.077 83.9026 184.247C83.9646 184.417 84.0748 184.565 84.2199 184.674C84.7278 184.977 85.2922 185.173 85.8785 185.25C86.4648 185.327 87.0608 185.284 87.6299 185.124C88.6299 184.874 89.4399 184.124 88.6299 183.474C88.6199 183.454 86.0899 182.544 84.6099 183.014ZM86.6999 185.014C86.1493 185.048 85.5967 185.001 85.0599 184.874C83.5599 184.244 84.2399 183.204 85.5799 183.204C85.8299 183.204 87.9499 183.204 88.4599 183.664C89.2399 184.364 87.6699 185.014 86.6999 185.014ZM100.68 183.644C100.22 183.984 100.62 184.644 101.02 184.774C101.42 184.904 102.61 185.064 102.78 184.484C103.02 183.614 101.15 183.314 100.68 183.644ZM101.03 184.444C100.6 184.224 100.52 183.724 101.44 183.754C102.36 183.784 103.52 184.754 101.74 184.604C101.492 184.599 101.247 184.545 101.02 184.444H101.03ZM52.0199 103.784C51.9987 103.784 51.9783 103.792 51.9633 103.807C51.9483 103.822 51.9399 103.842 51.9399 103.864C51.9399 103.885 51.9483 103.905 51.9633 103.92C51.9783 103.935 51.9987 103.944 52.0199 103.944C52.7299 103.944 57.1499 104.734 57.0199 103.784C57.0199 103.564 54.7999 101.494 55.0199 101.434C55.2399 101.374 58.1699 102.194 58.8099 102.194C58.9299 102.194 58.9599 101.994 58.8099 101.984H58.5799C59.2716 101.27 59.7706 100.393 60.0299 99.4337C60.2958 100.324 60.7044 101.165 61.2399 101.924C61.2696 101.952 61.309 101.967 61.3499 101.967C61.3908 101.967 61.4302 101.952 61.4599 101.924C61.5599 101.864 61.7899 101.544 63.0199 100.514C62.2599 103.424 62.0199 103.514 62.2899 103.584C63.7279 103.775 65.1888 103.7 66.5999 103.364C66.6152 103.358 66.6284 103.348 66.6377 103.334C66.647 103.321 66.6521 103.305 66.6521 103.289C66.6521 103.272 66.647 103.256 66.6377 103.243C66.6284 103.23 66.6152 103.219 66.5999 103.214C65.9999 103.304 63.1699 103.874 62.7399 103.214C62.4399 102.754 63.3199 100.744 63.4599 100.144C63.4659 100.125 63.4677 100.104 63.4653 100.085C63.4629 100.065 63.4562 100.046 63.4458 100.029C63.4354 100.012 63.4214 99.997 63.4049 99.9858C63.3883 99.9746 63.3696 99.967 63.3499 99.9637C63.0999 99.8937 61.9299 101.534 61.3499 101.364C60.7699 101.194 60.3499 99.3037 60.2399 98.7437C60.2399 98.6137 59.9899 98.5937 59.9699 98.7437C59.7859 99.9332 59.2333 101.035 58.3899 101.894C57.163 101.707 55.955 101.412 54.7799 101.014C54.7549 101.006 54.7282 101.006 54.7032 101.014C54.6783 101.022 54.6563 101.037 54.6401 101.058C54.6239 101.078 54.6142 101.103 54.6124 101.129C54.6106 101.155 54.6167 101.181 54.6299 101.204C54.9299 101.624 56.8299 103.654 56.7299 103.864C56.6299 104.074 52.8899 103.794 52.0199 103.784ZM94.0199 30.2637C93.7681 31.0407 93.3559 31.7562 92.8099 32.3637C92.6199 32.5937 92.1599 32.9437 92.1999 33.2837C92.2699 33.8837 93.6099 34.1437 94.0499 34.1637C94.0738 34.1637 94.0966 34.1542 94.1135 34.1373C94.1304 34.1204 94.1399 34.0975 94.1399 34.0737C94.1399 34.0498 94.1304 34.0269 94.1135 34.01C94.0966 33.9932 94.0738 33.9837 94.0499 33.9837C93.6538 33.9386 93.2737 33.8016 92.9399 33.5837C92.1599 32.9237 93.5899 32.6437 94.1499 30.3037C94.1606 30.2943 94.1687 30.2822 94.1732 30.2687C94.1777 30.2552 94.1785 30.2407 94.1755 30.2268C94.1726 30.2128 94.1659 30.1999 94.1563 30.1894C94.1467 30.1789 94.1344 30.1711 94.1208 30.1669C94.1072 30.1628 94.0927 30.1623 94.0788 30.1656C94.0649 30.1689 94.0522 30.1758 94.0419 30.1856C94.0316 30.1955 94.0242 30.2079 94.0203 30.2217C94.0164 30.2354 94.0163 30.2499 94.0199 30.2637ZM96.3599 36.8537C97.1718 36.9494 97.99 36.7347 98.6502 36.2525C99.3105 35.7703 99.764 35.0563 99.9199 34.2537C99.9199 34.0837 99.7099 33.9637 99.6399 34.1337C99.0399 35.4937 98.0199 36.7337 96.3899 36.6637C96.2799 36.6637 96.2499 36.8337 96.3599 36.8537ZM92.1599 27.1637C91.8613 27.2009 91.5744 27.3024 91.3189 27.4612C91.0634 27.62 90.8454 27.8324 90.6799 28.0837C90.6625 28.1081 90.6508 28.1362 90.6457 28.1658C90.6406 28.1954 90.6422 28.2258 90.6505 28.2547C90.6588 28.2836 90.6734 28.3102 90.6934 28.3327C90.7134 28.3551 90.7381 28.3728 90.7659 28.3843C90.7936 28.3959 90.8236 28.401 90.8536 28.3994C90.8836 28.3978 90.9128 28.3894 90.9391 28.375C90.9655 28.3605 90.9882 28.3403 91.0056 28.3158C91.0231 28.2913 91.0348 28.2633 91.0399 28.2337C91.1603 28.0117 91.3287 27.8193 91.5328 27.6705C91.737 27.5218 91.9717 27.4204 92.2199 27.3737C92.2447 27.3632 92.2647 27.3441 92.2764 27.3198C92.288 27.2956 92.2903 27.2679 92.2829 27.2421C92.2755 27.2162 92.259 27.194 92.2363 27.1795C92.2136 27.1651 92.1864 27.1594 92.1599 27.1637ZM97.4699 27.1737C97.7775 27.2255 98.0709 27.3412 98.331 27.5135C98.5911 27.6857 98.8121 27.9106 98.9799 28.1737C99.0024 28.2108 99.0388 28.2375 99.081 28.2478C99.1232 28.2581 99.1677 28.2512 99.2049 28.2287C99.242 28.2061 99.2687 28.1698 99.279 28.1276C99.2893 28.0854 99.2824 28.0408 99.2599 28.0037C99.0663 27.7016 98.8002 27.4527 98.4858 27.2798C98.1714 27.1069 97.8187 27.0154 97.4599 27.0137C97.3299 27.0137 97.3299 27.1637 97.4699 27.1737ZM91.5799 29.7037C91.4438 30.1003 91.3663 30.5147 91.3499 30.9337C91.3499 30.9708 91.3646 31.0064 91.3909 31.0327C91.4171 31.0589 91.4528 31.0737 91.4899 31.0737C91.527 31.0737 91.5626 31.0589 91.5889 31.0327C91.6151 31.0064 91.6299 30.9708 91.6299 30.9337C91.7282 30.5454 91.8017 30.1513 91.8499 29.7537C91.8494 29.7213 91.8378 29.6901 91.8169 29.6653C91.796 29.6406 91.7672 29.6238 91.7354 29.6179C91.7036 29.612 91.6707 29.6174 91.6423 29.633C91.6139 29.6486 91.5919 29.6736 91.5799 29.7037ZM97.3299 30.9037C97.4248 30.4294 97.475 29.9473 97.4799 29.4637C97.4799 29.2937 97.1999 29.2537 97.1699 29.4637C97.0676 29.9233 97.0173 30.3929 97.0199 30.8637C97.0231 30.9 97.0386 30.9342 97.0639 30.9605C97.0891 30.9868 97.1226 31.0037 97.1588 31.0084C97.195 31.013 97.2317 31.0052 97.2628 30.9862C97.2939 30.9671 97.3176 30.938 97.3299 30.9037ZM189.86 172.224C188.539 172.902 187.371 173.845 186.43 174.994C185.35 172.364 186.55 170.044 187.92 167.784C187.934 167.753 187.939 167.719 187.933 167.686C187.927 167.653 187.91 167.622 187.886 167.599C187.862 167.576 187.83 167.561 187.797 167.556C187.764 167.552 187.73 167.558 187.7 167.574C185.557 169.1 183.769 171.072 182.46 173.354C182.46 172.974 182.46 172.604 182.39 172.214C182.39 172.191 182.385 172.168 182.376 172.147C182.367 172.127 182.353 172.108 182.336 172.093C182.319 172.078 182.299 172.066 182.277 172.06C182.255 172.053 182.233 172.051 182.21 172.054C182.05 172.054 182.07 172.054 181.73 173.354C181.43 172.354 181.13 171.354 180.84 170.424C180.84 170.284 180.55 170.254 180.52 170.424C180.408 171.169 180.391 171.925 180.47 172.674C178.831 171.545 177.259 170.323 175.76 169.014C175.729 168.995 175.693 168.987 175.658 168.991C175.622 168.995 175.589 169.012 175.563 169.037C175.538 169.062 175.522 169.096 175.517 169.131C175.513 169.167 175.521 169.203 175.54 169.234C176.936 170.768 178.222 172.399 179.39 174.114C179.47 174.234 179.66 174.114 179.58 174.004C176.38 169.134 175.51 169.694 180.58 173.154C180.71 173.244 180.83 173.094 180.81 172.964C180.735 172.414 180.715 171.858 180.75 171.304L181.56 174.014C181.574 174.056 181.603 174.091 181.643 174.111C181.682 174.132 181.727 174.136 181.77 174.124C181.9 174.124 181.88 174.034 182.1 173.224V173.934C182.097 173.972 182.108 174.011 182.131 174.043C182.153 174.074 182.186 174.097 182.224 174.108C182.261 174.118 182.301 174.116 182.337 174.101C182.372 174.085 182.402 174.058 182.42 174.024C183.593 171.822 185.207 169.885 187.16 168.334C185.97 170.384 184.86 172.844 186.16 175.094C186.194 175.174 186.249 175.243 186.32 175.294C186.353 175.303 186.388 175.304 186.422 175.295C186.455 175.286 186.486 175.269 186.51 175.244C187.287 174.386 188.167 173.627 189.13 172.984C188.557 173.69 188.25 174.574 188.26 175.484C188.26 175.624 188.51 175.674 188.52 175.484C188.649 174.318 189.183 173.235 190.03 172.424C190.19 172.344 190.02 172.164 189.86 172.224ZM194.02 87.7437C192.409 88.0299 190.947 88.8635 189.88 90.1037C189.778 88.5662 190.021 87.0255 190.59 85.5937C190.6 85.5616 190.599 85.527 190.587 85.4956C190.575 85.4642 190.553 85.4377 190.524 85.4204C190.495 85.4031 190.461 85.396 190.428 85.4002C190.394 85.4044 190.364 85.4197 190.34 85.4437C188.83 87.0737 188.45 89.5337 188.22 89.5937C188.22 89.5937 187.62 89.1237 187.55 89.0737C186.424 88.2886 185.209 87.6406 183.93 87.1437C183.77 87.0837 183.68 87.3337 183.82 87.4137C185.193 88.2418 186.37 89.3573 187.27 90.6837C187.33 90.7837 187.5 90.6837 187.43 90.5837C186.771 89.5787 185.958 88.6842 185.02 87.9337C186.202 88.4951 187.302 89.2151 188.29 90.0737C188.309 90.092 188.332 90.1051 188.358 90.1116C188.383 90.1181 188.41 90.1178 188.435 90.1107C188.46 90.1036 188.483 90.09 188.502 90.0712C188.52 90.0524 188.533 90.0291 188.54 90.0037C188.762 88.7031 189.267 87.4673 190.02 86.3837C189.62 87.711 189.48 89.1034 189.61 90.4837C189.61 90.6037 189.79 90.7137 189.88 90.5937C190.805 89.395 192.103 88.5397 193.57 88.1637C193.148 88.5904 192.815 89.0965 192.591 89.6526C192.366 90.2087 192.253 90.8039 192.26 91.4037C192.26 91.4395 192.274 91.4738 192.299 91.4991C192.325 91.5244 192.359 91.5387 192.395 91.5387C192.431 91.5387 192.465 91.5244 192.49 91.4991C192.516 91.4738 192.53 91.4395 192.53 91.4037C192.611 90.1046 193.196 88.8884 194.16 88.0137C194.29 87.8937 194.15 87.7237 194.02 87.7437ZM47.0699 86.6037C47.7699 84.9637 48.3799 79.6037 47.2599 77.2837C47.1239 76.9033 46.8985 76.5613 46.6026 76.2863C46.3067 76.0113 45.9491 75.8115 45.5599 75.7037C44.4299 75.4937 44.7199 74.2237 44.7299 73.2937C44.7299 70.8937 44.7299 62.1437 44.2199 60.2437C43.4499 57.5737 41.0199 54.9537 38.0199 55.3237C37.1699 55.4337 37.0199 55.9037 36.9599 54.8737C36.9599 53.5537 37.1399 36.4437 34.4799 33.7537C32.3399 31.5937 29.0999 31.0037 26.6799 33.0837C23.4499 35.8637 23.3299 41.0837 22.8699 45.0837C22.1966 50.0108 22.281 55.012 23.1199 59.9137C20.5999 59.5537 19.2699 62.0737 18.8699 64.2337C18.2522 67.8132 18.1277 71.4604 18.4999 75.0737C18.5699 75.8837 19.3899 80.0737 19.2899 80.2837C19.0699 80.7137 17.6599 80.5037 15.8799 81.8737C11.8799 84.9637 11.8799 92.8737 15.0399 97.1837C16.0399 98.5137 17.4799 99.2637 17.6699 101.014C18.1999 107.144 26.3699 110.934 32.8999 110.724C33.1699 117.584 33.6199 124.434 33.8099 131.294C33.8165 131.314 33.8292 131.331 33.8462 131.343C33.8633 131.356 33.8838 131.362 33.9049 131.362C33.9259 131.362 33.9465 131.356 33.9635 131.343C33.9806 131.331 33.9933 131.314 33.9999 131.294C33.8099 124.444 33.8499 117.544 33.2399 110.714C37.5599 110.474 41.6899 108.614 44.0599 104.804C46.0599 101.354 46.3799 96.8037 45.9799 92.9437C45.7459 91.9168 45.5888 90.8739 45.5099 89.8237C45.5799 88.5537 46.5999 87.7137 47.0699 86.6037ZM40.8199 80.6037C38.3145 84.3814 35.5968 88.0139 32.6799 91.4837C32.7799 94.7937 32.9799 105.884 33.5299 108.644C33.5233 108.664 33.5106 108.681 33.4935 108.693C33.4765 108.706 33.4559 108.712 33.4349 108.712C33.4138 108.712 33.3933 108.706 33.3762 108.693C33.3592 108.681 33.3465 108.664 33.3399 108.644C32.7628 105.476 32.465 102.264 32.4499 99.0437C30.6243 98.3734 28.9465 97.3545 27.5099 96.0437C26.1999 94.9037 24.4299 93.5237 23.8099 91.8437C23.7499 91.6837 23.9999 91.5837 24.0899 91.7337C25.0261 93.2351 26.2133 94.5645 27.5999 95.6637C29.0131 96.9752 30.6577 98.0128 32.4499 98.7237C32.4499 97.1237 32.0399 84.7237 31.9099 80.1637C30.3999 78.9737 28.9099 77.7737 27.4899 76.4437C26.3899 75.4437 24.9899 74.2037 24.5599 72.6837C24.5099 72.5237 24.7599 72.4137 24.8299 72.5737C26.2599 75.4937 29.3399 77.8037 31.8899 79.8037C31.8899 79.3437 31.1599 57.8037 30.8899 47.4637C30.9003 47.417 30.9262 47.3753 30.9635 47.3454C31.0008 47.3155 31.0471 47.2992 31.0949 47.2992C31.1427 47.2992 31.189 47.3155 31.2263 47.3454C31.2636 47.3753 31.2895 47.417 31.2999 47.4637C31.5299 53.7037 31.7099 59.9337 31.8999 66.1737C33.2015 65.1864 34.3158 63.9739 35.1899 62.5937C35.2203 62.5575 35.2625 62.5332 35.3092 62.5252C35.3558 62.5171 35.4037 62.5259 35.4445 62.5499C35.4852 62.5739 35.5162 62.6115 35.5318 62.6561C35.5475 62.7008 35.5468 62.7495 35.5299 62.7937C34.5832 64.2714 33.3487 65.5433 31.8999 66.5337C32.0099 70.3337 32.5199 86.6137 32.6599 90.9537C35.3999 87.5237 37.9199 83.9537 40.4599 80.3337C40.6099 80.1637 41.0199 80.3637 40.8199 80.5937V80.6037Z" fill="#4C2FB3"/>
<path d="M188.73 63.8337C191.98 59.5437 193.26 54.0237 194.1 48.8337C195.067 42.8571 195.272 36.7819 194.71 30.7537C194.52 28.7537 194.28 26.4837 192.85 24.9037C192.16 24.1337 191.23 23.6137 190.59 22.8137C189.45 21.4337 190.04 19.2137 190.02 17.5337C190.02 15.2637 189.55 12.7837 187.88 11.1137C186.21 9.44368 183.51 8.90368 181.31 9.01368C180.31 9.0794 179.338 9.3753 178.471 9.87833C177.603 10.3814 176.864 11.0779 176.31 11.9137C175.765 12.7897 175.332 13.7303 175.02 14.7137C174.02 17.3637 171.4 17.6137 170.11 19.9937C169.627 21.1186 169.311 22.3077 169.17 23.5237C168.86 24.7937 166.77 27.5237 166.59 27.8937C153.68 27.7237 147.95 27.7937 147.95 27.7937C147.941 27.2521 147.822 26.7179 147.6 26.2237C147.038 25.1465 146.643 23.9899 146.43 22.7937C145.52 20.5837 143.79 19.4737 141.65 18.6137C139.34 17.6837 137.36 15.6137 134.71 15.7737C132.327 15.8435 130.053 16.7866 128.32 18.4237C126.61 20.3037 126.65 21.7837 125.77 23.2837C125.426 23.8222 125.112 24.3798 124.83 24.9537C124.481 25.9899 124.236 27.0586 124.1 28.1437C119.453 28.6659 114.773 28.8331 110.1 28.6437C110.34 27.3237 110.73 26.0137 111.1 24.7437C113.54 24.2237 113.77 18.1137 108.51 17.5337C108.18 16.8237 108.63 16.2337 109.13 15.7737C108.771 15.7049 108.4 15.7264 108.051 15.8364C107.701 15.9463 107.385 16.1413 107.13 16.4037C107.242 16.0357 107.275 15.6481 107.228 15.2664C107.18 14.8846 107.053 14.5172 106.854 14.188C106.655 13.8587 106.388 13.5751 106.072 13.3556C105.757 13.136 105.398 12.9855 105.02 12.9137C105.373 13.3865 105.597 13.9428 105.671 14.5282C105.744 15.1137 105.665 15.7082 105.44 16.2537C104.69 14.0737 100.28 10.9637 94.62 11.4837C95.08 12.0137 95.34 12.9537 94.54 13.2237C90.65 14.5237 88.43 12.3637 88.47 12.1137C87.35 15.7937 88.85 16.5037 88.53 16.6837C87.6844 17.2638 87.0229 18.0743 86.6241 19.019C86.2253 19.9638 86.1059 21.0031 86.28 22.0137C86.4408 21.7149 86.6598 21.4513 86.9241 21.2386C87.1884 21.0258 87.4927 20.8682 87.8189 20.775C88.1452 20.6818 88.4868 20.6549 88.8236 20.6959C89.1604 20.7369 89.4856 20.8449 89.78 21.0137C89.0724 23.2403 88.5867 25.5315 88.33 27.8537C85.23 27.7537 73.08 27.6237 70.21 28.1037C70.34 24.8837 69.33 24.6137 68.97 23.0237C67.83 17.9437 65.63 17.5237 62.27 15.9437C59.85 14.8137 57.74 12.7637 54.88 12.9437C52.02 13.1237 49.14 14.1537 47.35 16.3137C45.56 18.4737 45.92 19.7237 44.49 22.0137C43.4068 23.6445 42.8229 25.5559 42.81 27.5137C35.81 27.9437 11.4 27.3137 5.1 27.2737C5.07348 27.2737 5.04804 27.2842 5.02929 27.303C5.01054 27.3217 5 27.3472 5 27.3737C5 27.4002 5.01054 27.4256 5.02929 27.4444C5.04804 27.4631 5.07348 27.4737 5.1 27.4737C11.4 27.5537 36.56 28.1137 42.82 27.9237C42.98 31.5537 45.27 32.8637 46.82 34.4437C47.6856 35.506 48.8224 36.3146 50.11 36.7837C51.5 37.1937 54.5 36.9237 55.18 36.4337C55.37 38.8637 55.68 41.2837 56.08 43.6637C56.08 43.8937 56.52 43.8437 56.49 43.6637C56.24 41.2737 56 38.8937 55.82 36.5137C55.88 36.5137 56.93 37.0237 57.4 37.2037C58.7943 37.6416 60.2731 37.7404 61.7132 37.4916C63.1534 37.2429 64.5133 36.6539 65.68 35.7737C67.92 33.8937 69.98 31.4137 70.25 28.4137C71.84 28.2037 85.4 28.4137 88.33 28.3237C88.1681 30.1733 88.2521 32.0362 88.58 33.8637C89.25 37.4037 90.87 39.3537 95.47 40.5537C95.2 42.3837 95.62 44.6537 93.33 45.3737C86.42 46.5337 80.5 49.6737 74.95 53.8437C74.05 54.5137 73.4 54.6137 73.64 55.7137C72.8889 56.0527 72.1607 56.4402 71.46 56.8737C71.67 55.9437 73.32 44.4937 73.83 39.7037C73.8908 39.666 73.9477 39.6225 74 39.5737C74.33 39.9137 74.84 39.6737 75.06 39.2937C75.5012 39.0569 75.8699 38.705 76.127 38.2753C76.3841 37.8457 76.5199 37.3544 76.52 36.8537C77.34 35.7137 77.79 35.7537 77.62 35.3037C77.45 34.8537 76.56 34.7237 76.14 34.9937C75.24 33.6337 72.87 33.6337 71.54 34.2637C69.03 35.4537 69.4 38.2637 68.4 40.4237C65.79 46.2037 59.29 51.8937 56.81 61.4237C55.81 65.3437 56.41 69.4237 60.01 71.7937C64.76 74.9037 71.53 72.5637 75.85 69.6537C75.94 69.8537 76.06 70.3037 76.49 70.2637C77.9645 70.0849 79.3779 69.5682 80.62 68.7537C80.23 72.0237 80.01 81.5537 79.96 84.8537C79.96 87.6037 79.82 91.8537 80.28 92.2237C80.6764 92.4932 81.1213 92.6834 81.59 92.7837C81.29 95.7837 82.59 106.364 82.59 106.984C86.4 103.064 86.88 102.664 89.36 100.204C89.3759 100.189 89.397 100.181 89.4185 100.182C89.4401 100.183 89.4604 100.193 89.475 100.209C89.4896 100.225 89.4973 100.246 89.4963 100.267C89.4954 100.289 89.4859 100.309 89.47 100.324C87.85 102.084 79.16 111.394 78.85 112.324C78.54 113.254 80.36 114.964 80.42 115.014C73.75 123.014 73.54 125.164 71.83 135.484C67.4 137.904 61.04 139.484 60.83 138.624C60.63 137.874 61.41 136.934 61.93 136.534C62.07 136.434 62.05 136.174 61.84 136.184C60.3681 136.289 58.9867 136.934 57.96 137.994C57.9638 137.335 58.1096 136.685 58.3875 136.088C58.6653 135.491 59.0687 134.961 59.57 134.534C59.75 134.384 59.57 134.154 59.35 134.234C57.3507 135.143 55.6637 136.621 54.5 138.484C54.0812 137.418 54.0493 136.24 54.41 135.154C54.47 134.954 54.23 134.904 54.09 135.014C52.7 136.164 52.54 138.624 52.47 138.674C52.2 138.864 48.42 136.414 45.47 137.024C45.29 137.024 45.22 137.324 45.47 137.364C47.2148 137.724 48.7603 138.727 49.8 140.174C47.2266 141.798 44.4399 143.057 41.52 143.914C31.02 147.234 17.72 148.014 6.93 147.554C6.90083 147.554 6.87285 147.565 6.85222 147.586C6.83159 147.607 6.82 147.635 6.82 147.664C6.82 147.693 6.83159 147.721 6.85222 147.741C6.87285 147.762 6.90083 147.774 6.93 147.774C15.4448 148.224 23.9832 147.795 32.41 146.494C38 145.544 45.41 143.664 50.08 140.384C50.1068 140.365 50.1287 140.341 50.1439 140.312C50.1591 140.283 50.167 140.251 50.167 140.219C50.167 140.186 50.1591 140.154 50.1439 140.125C50.1287 140.097 50.1068 140.072 50.08 140.054C49.3046 138.848 48.1718 137.914 46.84 137.384C48.8418 137.552 50.7766 138.185 52.49 139.234C52.5134 139.245 52.5389 139.251 52.5649 139.251C52.5908 139.252 52.6165 139.247 52.6403 139.236C52.664 139.226 52.6852 139.21 52.7024 139.191C52.7196 139.171 52.7325 139.149 52.74 139.124C52.908 138.024 53.2811 136.966 53.84 136.004C53.7105 137.008 53.8701 138.027 54.3 138.944C54.3172 138.971 54.3409 138.993 54.3688 139.008C54.3968 139.023 54.4281 139.031 54.46 139.031C54.4919 139.031 54.5232 139.023 54.5512 139.008C54.5791 138.993 54.6028 138.971 54.62 138.944C55.5538 137.315 56.8986 135.96 58.52 135.014C57.7983 135.981 57.4631 137.183 57.58 138.384C57.5797 138.421 57.5904 138.457 57.6106 138.489C57.6308 138.52 57.6598 138.544 57.6938 138.559C57.7279 138.574 57.7656 138.579 57.8022 138.572C57.8389 138.566 57.8729 138.549 57.9 138.524C58.7457 137.478 59.9373 136.768 61.26 136.524C60.928 136.879 60.6872 137.309 60.5583 137.777C60.4294 138.246 60.4162 138.739 60.52 139.214C60.534 139.261 60.5658 139.301 60.6087 139.325C60.6516 139.349 60.7023 139.356 60.75 139.344C64.49 138.794 68.52 137.874 71.75 135.794C70.55 143.004 68.42 158.384 68.18 166.454C67.9075 166.563 67.6623 166.73 67.4619 166.944C67.2614 167.159 67.1105 167.415 67.02 167.694C66.74 168.304 66.02 170.384 59.75 170.344C59.28 170.344 58.53 170.134 57.98 170.524C56.78 171.394 57.23 173.204 58.15 174.084C59.51 175.374 61.81 176.084 63.55 176.734C65.55 177.434 68.2 178.464 70.34 178.024C72.9 177.514 73.57 173.664 73.46 171.024C75.91 164.674 80.17 159.224 83.03 153.024C85.6 147.474 88.26 142.514 89.9 137.024C90.24 135.884 90.26 134.834 91.29 134.104C91.89 133.684 97.2 130.464 98.95 128.904C99.6208 129.433 100.349 129.886 101.12 130.254C102.12 130.444 105.12 126.954 105.83 126.254C108.507 128.271 111.57 129.714 114.83 130.494C117.022 131.062 119.241 131.516 121.48 131.854C129.67 133.164 143.11 134.754 144.8 134.854C144.996 135.081 145.244 135.258 145.522 135.371C145.8 135.484 146.101 135.529 146.4 135.504C147.08 135.504 150.97 134.824 151.87 140.984C152.2 143.044 154.68 143.884 155.87 141.054C156.58 139.344 156.25 136.834 156.09 135.054C155.9 132.904 155.71 130.154 154.5 128.314C153.44 126.704 150.98 126.404 148.76 127.414C148.004 127.702 147.266 128.036 146.55 128.414C137.75 125.224 129.55 120.544 121.28 116.254C119.95 115.564 118.66 114.784 117.35 114.044C117.857 113.377 118.337 112.677 118.79 111.944C122.66 109.674 126.31 106.504 128.2 102.634C128.708 101.728 129.015 100.723 129.101 99.688C129.188 98.6529 129.051 97.6114 128.7 96.6337C127.7 94.1637 125.2 92.6937 122.9 91.6337C122.865 83.0909 121.899 74.5774 120.02 66.2437C122.09 67.2437 122.87 67.6937 123.67 67.6837C124.27 67.6837 124.35 67.4337 124.67 66.9037C124.99 66.3737 125.25 65.9037 125.54 65.4137C127.42 67.1037 130.39 67.4937 132.76 68.1037C131.35 72.3045 130.799 76.7458 131.14 81.1637C131.361 86.1045 131.908 91.0253 132.78 95.8937C132.06 96.5937 130.55 95.8937 130.15 96.4337C129.6 97.1737 131.41 97.7737 131.99 97.9437C131.604 98.7879 131.472 99.7259 131.61 100.644C132.12 101.844 133.94 102.434 135.14 102.294C136.34 102.154 136.49 101.094 136.79 100.184C137.213 98.9568 137.397 97.6599 137.33 96.3637C139.14 87.8937 144.33 80.3637 145.08 71.6237C145.48 68.0474 144.783 64.434 143.08 61.2637C141.87 59.1337 139.88 57.7537 137.93 56.3637C135.503 54.6304 133.013 53.0004 130.46 51.4737C130.64 50.6737 130.74 50.5637 130.57 50.4737C130.17 50.2537 129.75 50.0537 129.34 49.8537C140.8 44.6637 153.34 44.3137 165.51 41.7837C164.98 45.7837 164.58 51.6437 165.43 54.4337C149.76 63.6837 150.55 80.6737 161.09 86.0837C167.26 89.2337 174.09 88.6537 180.61 93.9237C185.29 97.7337 187.86 103.364 188.76 109.244C190.76 122.244 185.28 138.074 177.98 149.094C170.68 160.114 160.07 169.094 148.88 176.284C129.45 188.674 118.8 190.014 119.02 190.444C119.027 190.466 119.042 190.485 119.063 190.496C119.083 190.507 119.107 190.51 119.13 190.504C128.13 188.224 136.72 183.864 144.69 179.234C155.86 172.734 166.39 164.564 174.52 154.464C182.91 144.014 188.83 130.574 189.52 117.014C190.19 104.014 185.26 93.2437 172.84 89.3037C166.45 87.3037 157.55 86.7237 154.61 78.0337C152.1 70.5837 155.17 60.9237 165.5 54.7637C167.35 62.4937 174.23 67.6237 180.22 67.6937C180.22 71.4137 180.53 75.1337 180.67 78.8437C180.67 78.9937 180.93 78.9937 180.91 78.8437C180.8 75.1337 180.91 71.4037 180.61 67.6937C182.155 67.6384 183.673 67.2674 185.069 66.6036C186.466 65.9398 187.712 64.9971 188.73 63.8337ZM68.95 31.3637C68.4 32.8337 66.66 34.5037 65.46 35.5537C64.3568 36.39 63.0737 36.9575 61.7127 37.2109C60.3517 37.4644 58.9503 37.3969 57.62 37.0137C57.01 36.7937 55.76 36.1437 55.76 36.1437C55.76 36.1437 55.67 34.9837 55.64 34.4037C57.7912 32.4218 59.6079 30.1052 61.02 27.5437C61.02 27.4637 60.94 27.3937 60.89 27.4637C59.4403 29.8347 57.6513 31.9808 55.58 33.8337C55.41 31.0237 55.3 28.2137 55.28 25.3937C57.0202 24.0768 58.3319 22.2745 59.05 20.2137C59.1 20.1137 58.92 20.0337 58.87 20.1437C57.9344 21.9019 56.7147 23.4934 55.26 24.8537C55.26 23.3537 55.26 21.8537 55.33 20.3537C55.33 20.3298 55.3205 20.3069 55.3036 20.29C55.2868 20.2732 55.2639 20.2637 55.24 20.2637C55.2161 20.2637 55.1932 20.2732 55.1764 20.29C55.1595 20.3069 55.15 20.3298 55.15 20.3537C54.96 22.7337 54.84 25.1337 54.81 27.5437C53.621 27.2258 52.4806 26.7481 51.42 26.1237C51.31 26.0437 51.22 26.2137 51.32 26.2937C52.3533 27.1118 53.5503 27.6984 54.83 28.0137C54.83 30.7137 55.1 36.1137 55.1 36.1137C54.232 36.5663 53.2729 36.8167 52.2945 36.8461C51.316 36.8756 50.3436 36.6833 49.45 36.2837C48.05 35.7037 47.16 34.3937 46.08 33.3837C44.9568 32.4935 44.0763 31.3344 43.52 30.0137C43.1236 28.7447 43.0176 27.4028 43.2097 26.0873C43.4019 24.7718 43.8873 23.5163 44.63 22.4137C45.2495 21.3812 45.7557 20.2848 46.14 19.1437C47.35 16.0537 51.9 12.6437 57.14 13.6337C58.3317 14.0268 59.4453 14.6258 60.43 15.4037C62.63 16.7337 65.23 17.1937 66.94 19.2637C67.94 20.4237 68.12 21.7737 68.64 23.1737C69.306 24.4271 69.6798 25.8149 69.7335 27.2332C69.7872 28.6515 69.5193 30.0636 68.95 31.3637ZM154.45 129.014C155.65 131.464 156.03 137.194 155.78 139.864C155.67 141.004 154.64 143.254 153.13 142.404C153.462 141.879 153.664 141.282 153.72 140.664C153.942 139.006 154.049 137.336 154.04 135.664C154.124 133.826 153.87 131.989 153.29 130.244C153.009 129.111 152.429 128.075 151.61 127.244C152.21 127.197 152.81 127.343 153.321 127.662C153.832 127.98 154.228 128.454 154.45 129.014ZM150.45 130.334C150.54 129.774 151.1 129.174 151.58 129.464C151.85 129.664 151.75 130.114 151.58 130.394C151.21 131.194 150.32 131.014 150.43 130.364L150.45 130.334ZM149.89 132.084C150.31 131.794 151.12 131.294 151.66 131.434C151.752 131.454 151.835 131.503 151.898 131.572C151.96 131.642 152 131.73 152.01 131.824C152.01 132.024 151.88 132.134 151.73 132.234C151.395 132.464 151.036 132.658 150.66 132.814C150.463 132.926 150.232 132.962 150.01 132.914C149.933 132.885 149.865 132.837 149.812 132.774C149.759 132.711 149.724 132.635 149.71 132.554C149.696 132.473 149.703 132.39 149.731 132.312C149.759 132.235 149.807 132.167 149.87 132.114L149.89 132.084ZM150.11 133.544C150.72 133.254 151.94 132.544 152.44 133.114C152.94 133.684 152.12 134.044 151.74 134.254C151.36 134.464 150.45 135.024 149.86 134.714C149.41 134.504 149.33 133.944 150.09 133.574L150.11 133.544ZM125.91 23.6337C126.55 22.6337 126.7 21.4637 127.3 20.4537C128.23 18.8972 129.62 17.6683 131.279 16.9373C132.939 16.2063 134.784 16.0093 136.56 16.3737C137.678 16.837 138.744 17.4168 139.74 18.1037C141.57 19.1637 143.6 19.5037 145.03 21.2137C145.811 22.2589 146.328 23.4765 146.54 24.7637C146.81 25.9237 147.49 26.7637 147.54 28.0437C147.707 29.6097 147.337 31.186 146.49 32.5137C145.751 33.5971 144.827 34.5416 143.76 35.3037C142.76 35.9537 139.04 37.4337 136.71 36.5237C136.29 36.3637 135.32 35.8437 135.32 35.8437C135.32 35.8437 135.25 34.8437 135.22 34.3637C137.085 32.647 138.662 30.6414 139.89 28.4237C139.895 28.4145 139.899 28.4044 139.9 28.3939C139.901 28.3833 139.901 28.3727 139.898 28.3625C139.895 28.3523 139.89 28.3427 139.884 28.3343C139.877 28.3259 139.869 28.3189 139.86 28.3137C139.851 28.3084 139.841 28.305 139.83 28.3037C139.82 28.3024 139.809 28.3031 139.799 28.3059C139.789 28.3087 139.779 28.3135 139.771 28.3199C139.762 28.3264 139.755 28.3345 139.75 28.3437C138.499 30.3753 136.963 32.2173 135.19 33.8137C135.043 31.407 134.953 28.9904 134.92 26.5637C136.456 25.4147 137.61 23.8289 138.23 22.0137C138.23 21.9137 138.1 21.8337 138.05 21.9437C137.233 23.4289 136.191 24.7783 134.96 25.9437V22.1137C134.96 21.9937 134.78 22.0037 134.77 22.1137C134.61 24.1604 134.51 26.227 134.47 28.3137C133.449 28.0504 132.47 27.6466 131.56 27.1137C131.45 27.0437 131.36 27.2137 131.46 27.2837C132.338 28.0003 133.362 28.5157 134.46 28.7937C134.46 31.1237 134.69 35.7937 134.69 35.7937C132.33 36.7137 130.56 36.4537 129.26 35.6437C128.246 34.8788 127.315 34.0108 126.48 33.0537C125.344 31.7742 124.67 30.1503 124.567 28.4422C124.463 26.7342 124.936 25.0409 125.91 23.6337ZM90.02 21.0737C95.85 17.9737 107.68 19.2237 110.88 24.6337C110.51 25.9737 109.74 29.2237 109.73 29.3837C107.33 26.5037 103.97 24.0537 100.17 23.6137C96.54 23.2037 92.01 23.1637 88.97 25.4837C89.2395 23.9957 89.59 22.5235 90.02 21.0737ZM93.43 45.5737C95.75 44.8637 95.35 42.4237 95.67 40.5037C95.67 40.1237 92.75 39.7637 90.9 38.0437C88.16 35.4937 88.26 29.3937 88.9 25.7937C91.95 23.4137 96.7 23.3937 100.37 23.8937C101.435 24.0404 102.473 24.3437 103.45 24.7937C103.17 26.1137 103.2 28.4037 103.61 28.9737C103.896 28.7202 104.239 28.5383 104.609 28.4427C104.979 28.3471 105.367 28.3406 105.74 28.4237C105.987 28.491 106.215 28.6171 106.403 28.7912C106.591 28.9653 106.734 29.1823 106.82 29.4237C107.45 31.0437 106.05 32.0337 105.82 32.3537C105.651 32.6578 105.594 33.0119 105.66 33.3537C105.759 34.4124 105.601 35.4793 105.201 36.4644C104.801 37.4495 104.169 38.3238 103.36 39.0137C103.091 39.1121 102.818 39.1955 102.54 39.2637C102.4 39.2637 102.54 42.1437 105.81 44.9037C107.025 44.8736 108.24 44.9136 109.45 45.0237C108.717 47.1195 107.269 48.8899 105.36 50.0237C99.61 53.8537 95.07 53.0237 93.13 52.0237C92.1117 51.451 91.3521 50.5092 91.0079 49.3928C90.6636 48.2764 90.761 47.0704 91.28 46.0237C91.95 45.8537 93.37 45.5837 93.42 45.5737H93.43ZM77.19 35.5737C77.19 35.6437 76.62 36.1437 76.5 36.3637C76.4865 36.0219 76.419 35.6844 76.3 35.3637C76.7 35.0637 77.3 35.2637 77.18 35.5437L77.19 35.5737ZM63.19 72.8137C61.2241 72.4595 59.4619 71.3826 58.2499 69.7949C57.0378 68.2071 56.4635 66.2234 56.64 64.2337C57.2716 60.1293 58.7166 56.1923 60.89 52.6537C63.89 47.8937 67.72 43.3537 69.04 39.6537C69.46 38.3737 69.42 36.9637 70.22 35.8237C70.6678 35.2126 71.2872 34.7484 71.9994 34.4902C72.7117 34.2321 73.4846 34.1915 74.22 34.3737C74.7156 34.431 75.174 34.6645 75.5118 35.0316C75.8495 35.3988 76.0441 35.8751 76.06 36.3737C76.1026 36.8359 76.0401 37.3017 75.8773 37.7363C75.7146 38.1709 75.4557 38.5632 75.12 38.8837C75.1755 38.1746 75.0408 37.4635 74.73 36.8237C74.73 36.7337 74.51 36.8237 74.55 36.9037C74.8093 37.6281 74.8647 38.4099 74.71 39.1637C74.58 39.4537 74.27 39.3837 74.1 39.3337C74.3132 38.4998 74.2854 37.6225 74.02 36.8037C74.013 36.7813 73.9991 36.7617 73.9802 36.7479C73.9613 36.734 73.9384 36.7265 73.915 36.7265C73.8915 36.7265 73.8687 36.734 73.8498 36.7479C73.8309 36.7617 73.817 36.7813 73.81 36.8037C73.81 37.3737 74.31 39.6837 73.28 39.1837C73.2183 38.375 73.1115 37.5704 72.96 36.7737C72.96 36.6437 72.76 36.7037 72.77 36.8237C72.8665 37.5499 72.9199 38.2812 72.93 39.0137C72.93 39.4337 72.33 39.2837 72.14 39.0137C71.814 38.3508 71.6922 37.6059 71.79 36.8737C71.7863 36.8438 71.7737 36.8158 71.7539 36.7932C71.7341 36.7706 71.7079 36.7545 71.6788 36.7469C71.6497 36.7394 71.619 36.7408 71.5907 36.7509C71.5623 36.761 71.5377 36.7794 71.52 36.8037C71.01 37.8037 71.77 40.0137 72.76 39.8737C72.8609 39.789 72.9883 39.7426 73.12 39.7426C73.2517 39.7426 73.3791 39.789 73.48 39.8737C71.27 54.1837 71.89 60.7937 66.84 64.3337C66.77 64.3337 66.84 64.5137 66.91 64.4537C69.2354 62.6984 70.8136 60.131 71.33 57.2637C72.075 56.8054 72.8463 56.3913 73.64 56.0237C74.02 57.7937 74.72 67.0137 75.72 69.4637C72.31 71.7137 67.32 73.5937 63.2 72.7737L63.19 72.8137ZM67.9 172.124C67.9512 172.068 68.0162 172.026 68.0885 172.002C68.1608 171.978 68.238 171.974 68.3125 171.989C68.3871 172.004 68.4564 172.038 68.5138 172.088C68.5712 172.138 68.6147 172.202 68.64 172.274C68.64 172.274 68.91 173.814 68.53 174.274C68.4701 174.347 68.3893 174.401 68.2982 174.428C68.2072 174.455 68.1102 174.453 68.02 174.424C67.83 174.294 67.52 172.484 67.91 172.094L67.9 172.124ZM66.27 171.284C66.71 170.874 67.5 173.874 66.77 174.224C66.04 174.574 65.98 173.674 65.95 173.224C65.92 172.614 65.79 171.724 66.28 171.254L66.27 171.284ZM69.56 177.824C67.8515 177.752 66.1645 177.415 64.56 176.824C62.6261 176.203 60.7679 175.368 59.02 174.334C57.97 173.744 56.79 171.894 58.02 170.954C58.357 171.47 58.8088 171.901 59.34 172.214C65.42 175.644 70.34 176.374 71.14 176.264C71.5594 176.197 71.9713 176.09 72.37 175.944C72.1604 176.51 71.7759 176.994 71.2725 177.327C70.769 177.659 70.1727 177.823 69.57 177.794L69.56 177.824ZM69.28 173.964C69.292 173.886 69.3224 173.812 69.3685 173.747C69.4147 173.683 69.4754 173.631 69.5456 173.595C69.6159 173.559 69.6937 173.54 69.7727 173.54C69.8516 173.54 69.9295 173.558 70 173.594C70.1533 173.688 70.2838 173.815 70.3824 173.965C70.4809 174.115 70.545 174.286 70.57 174.464C70.5977 174.554 70.5966 174.65 70.5669 174.739C70.5371 174.828 70.4802 174.906 70.4041 174.961C70.328 175.016 70.2365 175.046 70.1425 175.046C70.0485 175.047 69.9567 175.018 69.88 174.964C69.88 174.964 69.23 174.314 69.29 173.934L69.28 173.964ZM73.2 170.714C72.5915 171.003 71.9094 171.099 71.2447 170.99C70.58 170.881 69.9643 170.572 69.48 170.104C69.0559 169.514 68.7907 168.825 68.71 168.104C70.2211 168.999 71.9542 169.45 73.71 169.404C73.56 169.794 73.38 170.234 73.21 170.684L73.2 170.714ZM90.34 134.514C89.99 135.244 86.71 145.014 83.18 151.774C81.47 155.044 79.94 158.304 78.02 161.444C76.4604 163.892 75.0705 166.445 73.86 169.084C72.042 169.083 70.2549 168.614 68.67 167.724C68.57 167.104 68.53 166.594 68.5 166.514C68.95 162.074 69.2 157.614 69.7 153.174C70.28 147.964 72.63 130.394 74.12 125.694C75.36 121.694 77.95 118.294 80.57 115.104C84.65 118.334 98.35 128.584 98.67 128.774C96.86 130.304 90.87 133.394 90.34 134.514ZM146.54 128.774C147.035 129.207 147.388 129.779 147.556 130.415C147.723 131.051 147.697 131.723 147.48 132.344C147.17 133.244 145.28 134.344 144.78 134.664L144.43 134.614C145.85 132.824 145.84 130.704 145.72 128.504C146.02 128.604 146.27 128.684 146.54 128.774ZM124.49 118.424C129.73 121.224 139.85 126.424 145.44 128.424C145.53 130.634 145.56 132.764 144.13 134.594C128.02 132.304 113.77 132.014 106.02 126.154C108.47 123.824 116.02 116.404 117.21 114.264C119.63 115.624 122.02 117.104 124.49 118.424ZM122.86 91.9337C125.19 93.0937 127.69 94.6337 128.56 97.2237C129.3 99.4237 128.46 101.774 127.3 103.654C125.215 106.826 122.417 109.466 119.13 111.364C120.532 108.985 121.415 106.338 121.722 103.594C122.028 100.85 121.752 98.0729 120.91 95.4437C121.51 95.2037 122.09 94.9437 122.67 94.6437C122.711 94.6495 122.753 94.6392 122.786 94.615C122.82 94.5908 122.843 94.5544 122.85 94.5137C122.86 94.4137 122.87 92.3237 122.86 91.9337ZM136.3 55.5637C138.22 56.8737 140.49 58.2337 141.97 60.0637C144.36 63.0637 145.03 67.2737 144.81 70.9637C144.27 79.9037 138.67 87.5637 137.03 96.2437C137.128 97.1407 137.067 98.0478 136.85 98.9237C136.7 99.8303 136.392 100.704 135.94 101.504C135.08 102.634 131.99 101.734 131.74 100.354C131.74 99.5146 131.899 98.6832 132.21 97.9037C132.214 97.8813 132.21 97.8581 132.199 97.8381C132.188 97.8181 132.171 97.8025 132.15 97.7937C131.552 97.6905 130.992 97.428 130.53 97.0337C130.479 96.9547 130.452 96.8627 130.452 96.7687C130.452 96.6747 130.479 96.5827 130.53 96.5037C130.71 96.3437 132.37 96.8437 132.99 96.0337C133 96.0189 133.005 96.0015 133.005 95.9837C133.005 95.9659 133 95.9485 132.99 95.9337C132.16 86.6237 129.84 77.2937 132.99 68.1437C132.997 68.13 133 68.1151 133.001 68.0999C133.001 68.0848 132.998 68.0697 132.993 68.0556C132.987 68.0415 132.979 68.0287 132.968 68.0181C132.957 68.0074 132.944 67.9991 132.93 67.9937C130.61 66.7637 127.69 67.0537 125.64 65.2437C125.92 64.7337 129.93 53.7037 130.36 51.7537C132.38 52.9437 134.35 54.2337 136.3 55.5637ZM124.09 67.1037C123.44 67.9537 121.2 66.3637 120.42 66.0037C119.64 65.6437 118.58 65.1537 117.65 64.7737C117.49 64.7037 117.37 64.9737 117.53 65.0537C118.25 65.4237 118.99 65.7737 119.73 66.1237C121.594 75.4485 122.535 84.9343 122.54 94.4437C118.358 96.2436 113.843 97.1398 109.29 97.0737C104.515 97.2942 99.7329 96.8738 95.07 95.8237C90.78 94.7237 86.45 93.8937 82.19 92.6637C81.04 92.3337 80.28 92.1637 80.19 90.7437C80.1 89.3237 80.44 69.2837 81.74 63.2237C81.74 63.0837 81.55 63.0237 81.52 63.1637C81.14 64.9237 80.85 66.7037 80.63 68.4937C79.63 69.1037 77.5 70.4937 76.33 69.8237C75.16 69.1537 75.18 65.8237 75.08 64.9437C74.87 63.1837 73.84 55.2537 73.95 54.9437C76.7177 52.6154 79.7363 50.603 82.95 48.9437C85.535 47.7192 88.2393 46.7641 91.02 46.0937C89.47 49.6737 91.92 53.5437 98.02 53.2137C100.568 52.9188 103.004 51.9981 105.11 50.5337C107.27 49.2037 109.11 47.5337 109.63 44.9937C117.13 45.6037 120.85 47.2837 123.8 48.0537C125.984 48.7622 128.127 49.5901 130.22 50.5337C130.22 50.5337 126.34 64.1437 124.07 67.0937L124.09 67.1037ZM165.79 40.0137C165.92 40.3637 165.7 40.8537 165.58 41.3037C153.28 43.5337 140.44 44.3037 128.95 49.5837C122.02 46.4237 113.37 44.3337 105.95 44.5837C104.258 43.3234 103.112 41.4625 102.75 39.3837C105.39 38.8037 107.02 36.5937 108.38 34.3037C109.227 32.6477 109.781 30.8582 110.02 29.0137C112.19 29.0637 114.37 29.0137 116.54 29.0137C119.067 29.1187 121.597 28.9578 124.09 28.5337C124.094 29.4298 124.285 30.3152 124.65 31.1337C125.249 32.202 126.055 33.1402 127.02 33.8937C127.855 34.8882 128.874 35.7131 130.02 36.3237C131.6 36.8751 133.326 36.836 134.88 36.2137C134.88 36.2137 135.31 40.4037 135.66 42.4537C135.66 42.6837 136.1 42.6337 136.07 42.4537C135.85 40.3937 135.5 36.2837 135.5 36.2837C135.5 36.2837 136.35 36.6637 136.73 36.8137C139.13 37.8137 143.32 36.1937 144.13 35.5837C146.13 34.0537 147.79 32.1437 148 29.5137V28.2137C148 28.2137 163.42 28.2137 166.41 28.3537C165.02 30.0137 163.78 34.5837 165.79 40.0137ZM187.19 38.3437C185.19 41.8637 183.19 45.4437 180.83 48.7737C180.89 54.6037 181.05 60.4737 180.74 66.2837C180.74 66.342 180.717 66.398 180.676 66.4393C180.634 66.4805 180.578 66.5037 180.52 66.5037C180.462 66.5037 180.406 66.4805 180.364 66.4393C180.323 66.398 180.3 66.342 180.3 66.2837V60.3737C178.432 58.3731 176.275 56.6641 173.9 55.3037C173.73 55.2137 173.9 54.9437 174.06 55.0337C176.448 56.148 178.574 57.7529 180.3 59.7437C180.3 52.2437 180.48 44.7437 180.59 37.2637C179.11 35.4455 177.289 33.9338 175.23 32.8137C175.03 32.7237 175.23 32.4337 175.41 32.5237C177.506 33.3596 179.31 34.7921 180.6 36.6437C180.74 26.9037 180.6 27.1937 180.81 27.2337C180.86 27.2337 180.89 27.2337 180.9 27.3237C181.12 33.8637 180.83 40.4037 180.9 46.9437V47.9437C182.9 44.6537 185.07 41.5037 186.99 38.1837C187.018 38.1751 187.047 38.1743 187.076 38.1813C187.104 38.1883 187.13 38.2029 187.15 38.2235C187.171 38.244 187.185 38.2698 187.192 38.298C187.199 38.3263 187.199 38.3559 187.19 38.3837V38.3437Z" fill="#4C2FB3"/>
</svg>
