<svg width="154" height="154" viewBox="0 0 154 154" fill="none" xmlns="http://www.w3.org/2000/svg">
<path d="M51.2976 87.0931C51.5199 87.5607 51.7958 88.1509 52.3401 88.2276C53.5359 88.2276 55.276 87.3077 54.77 86.02C54.5011 85.3364 54.194 84.6685 53.8502 84.0193C53.6585 83.3448 53.3826 82.7086 52.7004 82.6242C52.0697 82.666 51.4673 82.9015 50.9756 83.2988C49.5422 84.0193 50.3394 85.0388 51.2976 87.0931ZM50.462 84.165C50.646 83.5901 51.7958 83.0918 52.593 83.0458C53.1066 83.1148 53.2753 83.8737 53.5436 84.3413C53.9422 85.0158 54.9387 86.1886 54.4481 86.9398C54.2144 87.2593 53.907 87.5174 53.5519 87.6923C53.1968 87.8672 52.8047 87.9535 52.4091 87.944C51.9108 87.7983 51.7268 87.1774 51.4662 86.5642C51.2056 85.951 50.2167 84.9545 50.462 84.165ZM58.6948 82.8389C58.1889 81.5358 57.522 79.8571 56.3185 80.6313C55.5519 80.9762 54.8467 81.2138 54.6091 81.7657C54.5354 82.0268 54.524 82.3016 54.576 82.5679C54.6279 82.8341 54.7416 83.0845 54.908 83.2988C55.3833 84.188 55.8815 86.8018 57.5756 85.905C59.124 85.1845 59.7909 84.9315 58.6948 82.8389ZM56.3951 85.4144C56.0448 84.8906 55.742 84.3365 55.4906 83.7587C54.9387 82.6549 53.9575 81.8041 55.7896 81.2828C57.3763 80.4396 57.3227 81.0529 58.1812 82.8159C58.4495 83.3831 58.8251 83.6284 58.9477 84.4639C59.0167 84.9622 58.5338 85.2304 57.9972 85.3761C58.0049 85.1308 57.0544 86.2193 56.4181 85.4144H56.3951ZM62.7882 79.5734C62.2899 78.5386 62.1059 78.393 61.6383 78.278C61.1172 78.2859 60.6112 78.4545 60.1895 78.7609C58.6564 79.6041 59.124 80.0947 59.7143 81.5204C60.9101 84.4026 61.347 84.3259 63.2404 83.0535C63.377 82.989 63.4992 82.8976 63.5998 82.7849C63.7004 82.6722 63.7773 82.5404 63.8259 82.3974C63.8745 82.2544 63.8939 82.1031 63.8829 81.9524C63.8718 81.8018 63.8306 81.6549 63.7617 81.5204C63.4916 80.8456 63.166 80.1944 62.7882 79.5734ZM62.6962 82.9768C60.7951 83.8277 61.2857 83.6821 59.9673 81.3671C59.7066 80.8536 59.2927 80.5469 59.377 79.7574C59.4767 79.3588 60.0439 79.0905 60.3889 78.9909C62.1519 78.2244 61.922 78.7609 63.0641 80.7769C63.4058 81.1866 63.6096 81.6935 63.6467 82.2256C63.5394 82.8312 62.4662 82.9768 62.6962 82.9768ZM69.3651 74.1847C68.4376 74.821 68.9589 75.8558 69.5491 76.8139C70.1624 78.2244 70.653 79.6501 72.0481 78.7609C73.4202 78.071 74.0334 77.9944 73.4279 76.561C73.1744 75.8931 72.8668 75.2471 72.508 74.6293C71.7261 72.9046 70.9902 73.2802 69.3651 74.1847ZM70.2007 74.1388C70.6989 73.8705 71.2202 73.6098 71.6341 73.9011C72.0372 74.3349 72.3268 74.8615 72.4773 75.4342C72.8913 76.3464 74.2097 77.7338 72.761 78.1707C71.4655 78.8529 70.7833 79.0599 70.2544 77.6265C69.9631 77.0056 69.0662 75.6028 69.1199 74.8593C69.3881 74.4684 69.6104 74.453 70.2007 74.1388ZM73.8495 73.2879C74.7693 75.2426 75.2139 77.4425 76.8083 76.4307C77.8125 75.9248 78.8934 75.4648 78.3414 74.3994C78.0568 73.7126 77.7344 73.0422 77.3756 72.3911C76.8773 71.3562 76.6857 71.2029 76.2181 71.0956C75.697 71.1035 75.191 71.2722 74.7693 71.5785L74.4091 71.7702C74.2704 71.8304 74.1454 71.9181 74.0416 72.028C73.9377 72.1379 73.8573 72.2676 73.805 72.4095C73.7527 72.5513 73.7296 72.7023 73.7373 72.8532C73.7449 73.0042 73.7831 73.1521 73.8495 73.2879ZM76.4557 71.5096C76.8555 71.9445 77.1424 72.4709 77.2913 73.0426C77.9199 74.1081 78.7554 75.3422 77.5826 75.7715C75.6969 76.745 75.7352 76.492 74.938 74.798C74.1024 73.3799 73.3205 72.4984 74.7923 71.8775C74.7923 72.0078 75.8885 71.1493 76.4557 71.5096ZM65.3024 79.4891C64.6125 78.3547 64.8885 78.2244 63.892 76.9136C64.2139 78.3393 64.4286 78.1707 64.9805 79.4355C65.2708 80.232 65.6597 80.9891 66.138 81.6891C66.2453 81.5741 66.3679 81.5818 65.9693 80.7846C65.7763 80.3383 65.5535 79.9055 65.3024 79.4891ZM67.3798 77.1512C67.1335 76.5727 66.8251 76.0227 66.4599 75.5108C66.5703 76.1386 66.8049 76.7379 67.1498 77.2739C67.7631 78.3547 67.9854 79.4278 68.7213 80.34C69.1045 79.9874 68.016 78.6919 67.3798 77.1512ZM20.8962 101.519C20.0223 99.8865 20.237 99.7639 19.4244 98.959C19.5319 99.5253 19.7508 100.065 20.0683 100.546C20.6816 101.619 20.9115 102.7 21.6397 103.612C21.8697 103.405 20.9422 101.604 20.8962 101.519ZM23.9854 102.431C24.2 102.224 24.0544 102.178 23.9087 101.811C23.6099 101.145 23.2773 100.495 22.9122 99.8635C22.612 99.094 22.2208 98.3632 21.7471 97.6866C22.092 99.1813 22.299 98.9667 22.8432 100.231C23.1271 101.011 23.511 101.751 23.9854 102.431ZM28.0864 97.4719C27.9014 96.8207 27.5829 96.2151 27.1512 95.6936C26.607 95.2413 26.0704 95.5173 25.5492 95.7702C24.292 96.3835 24.1387 96.5368 24.085 97.0044C24.1019 97.5725 24.283 98.1236 24.6063 98.5911C25.7025 100.668 25.4648 101.657 27.6725 100.576C27.9537 100.523 28.2132 100.389 28.4189 100.19C28.6246 99.9913 28.7675 99.7365 28.83 99.4573C28.7131 98.7535 28.4606 98.0793 28.0864 97.4719ZM28.5234 99.8175C27.9791 100.415 27.5958 100.362 26.9903 100.684C26.3847 101.006 26.0857 100.553 25.7485 100.063C24.706 97.9625 24.0544 97.4489 24.5833 96.7974C24.6723 96.6912 24.7822 96.6044 24.9062 96.5425C25.0301 96.4805 25.1655 96.4446 25.3039 96.4371C26.4 95.8699 26.837 95.6706 27.3889 96.6594C28.2091 98.5451 28.7993 99.005 28.5234 99.8175ZM32.6014 95.7166C32.2718 94.3982 31.4133 92.7731 30.3018 93.509C29.5352 93.8539 28.83 94.0915 28.5924 94.6434C28.5176 94.904 28.505 95.1784 28.5556 95.4446C28.6062 95.7109 28.7186 95.9616 28.8836 96.1765C29.3666 97.0733 29.8648 99.6795 31.5512 98.7904C33.0154 98.1465 33.0843 98.0238 33.1763 97.6636C33.2211 97.3169 33.1931 96.9647 33.0941 96.6295C32.9951 96.2942 32.8273 95.9833 32.6014 95.7166ZM31.9039 98.2845C30.6237 98.9513 30.4474 98.4914 30.3708 98.3534C30.1398 98.0705 29.956 97.7521 29.8265 97.4106C29.1596 95.7472 27.7415 94.7278 29.7728 94.1375C31.5589 93.187 31.3059 94.1375 32.4328 96.1382C32.6871 96.4938 32.8479 96.9076 32.9004 97.3416C32.9617 97.7556 32.6551 97.9012 31.9039 98.2845ZM33.6439 91.7536C33.3766 91.8932 33.1729 92.1299 33.0745 92.415C32.9762 92.7 32.9907 93.0119 33.115 93.2867C33.9965 95.0497 34.4258 97.4873 36.1122 96.4141C37.3617 95.7702 37.7143 95.6476 37.7143 95.1877C37.8599 94.4212 36.5032 92.0679 36.5415 92.1216C35.7979 90.5272 35.108 91.0101 33.6439 91.7536ZM34.7324 91.6463C35.9359 91.0254 36.1122 92.1446 36.9554 93.6623C37.423 94.4288 37.9136 95.1953 37.0704 95.6399C36.8053 95.7892 36.5314 95.9223 36.2502 96.0385C34.6711 96.7131 35.1004 95.9849 33.9505 94.2295C33.7052 93.7313 33.2836 93.4093 33.368 92.6198C33.4676 92.1752 33.8509 92.1062 34.7324 91.6463ZM43.7317 90.4505C44.253 91.5237 44.4369 91.769 44.8892 91.8303C46.062 91.8303 46.6523 90.9948 46.6523 91.2324C47.5491 90.5885 47.8634 90.4659 46.3687 87.6297C45.9011 86.6102 45.7248 86.3802 45.2188 86.2499C44.5883 86.2982 43.987 86.536 43.4941 86.9321C41.8537 87.737 43.2028 89.0554 43.7317 90.4505ZM45.0732 86.6179C45.5791 86.6945 45.7554 87.4457 46.0237 87.9286C46.292 88.4116 46.6829 89.0784 47.0202 89.753C47.2885 90.2665 46.9819 90.8568 46.7673 90.8951C44.6592 92.0142 44.6133 91.6616 43.9694 90.1822C43.8774 89.9753 43.8007 89.9753 43.0725 88.5035C42.4209 87.2924 44.1303 86.6869 45.0732 86.6179ZM38.3275 91.4853C38.6188 91.9912 39.4774 93.7849 39.9833 94.5975C40.3512 94.2295 39.3624 92.9724 38.7721 91.654C38.5104 91.0107 38.1367 90.419 37.6683 89.9063C37.7763 90.4726 38.0008 91.0103 38.3275 91.4853ZM41.1561 90.4505C41.4109 90.8769 41.6314 91.3229 41.8153 91.7843C42.053 92.2519 42.4439 92.9264 42.6279 93.21C42.9958 92.8498 41.9993 91.5543 41.4167 90.2666C41.1482 89.61 40.7669 89.0056 40.2899 88.4805C40.451 89.1862 40.745 89.8548 41.1561 90.4505ZM48.7373 86.7712C48.524 86.1212 48.1647 85.5286 47.6871 85.0388C47.9477 86.2653 48.2544 86.3189 48.7526 87.4687C48.8293 87.6527 49.7261 89.9063 49.9714 89.6533C50.2167 89.4004 48.699 86.6945 48.7373 86.7712ZM46.8439 78.7379C47.3728 79.6118 47.9707 80.8996 47.9324 80.8152C47.994 80.9543 48.0852 81.0783 48.1997 81.1784C48.3143 81.2785 48.4493 81.3523 48.5954 81.3946C48.7415 81.437 48.8951 81.4469 49.0454 81.4236C49.1957 81.4003 49.3391 81.3444 49.4655 81.2598C50.3394 80.7003 51.9568 80.7462 50.7916 78.5846C50.5034 77.8445 50.16 77.1271 49.7645 76.4383C49.0592 75.2732 47.7714 76.262 47.4648 76.354C47.1407 76.4918 46.8503 76.6984 46.614 76.9596C46.177 77.8028 46.7596 78.4007 46.8439 78.7379ZM48.0704 76.4383C49.5038 75.8864 49.2892 76.676 50.5157 78.7379C51.5889 80.5239 50.5157 80.271 50.5157 80.6313C50.4084 80.5239 50.5157 80.6313 50.3164 80.6313C48.1011 81.5664 48.4767 81.0912 47.0815 78.646C46.7059 77.8794 46.545 77.5191 46.7903 77.1129C47.1609 76.7947 47.5984 76.5641 48.0704 76.4383ZM51.5275 76.3157C51.8199 77.0839 52.1525 77.8361 52.524 78.5693C52.585 78.7091 52.6768 78.8333 52.7925 78.9327C52.9083 79.032 53.045 79.1039 53.1924 79.143C53.3398 79.1821 53.4942 79.1873 53.6439 79.1583C53.7937 79.1293 53.935 79.0668 54.0571 78.9756C54.6321 78.6536 55.3756 78.5233 55.7359 77.9484C55.8404 77.6975 55.8763 77.4233 55.84 77.1539C55.8036 76.8845 55.6963 76.6296 55.5289 76.4153C55.046 75.4878 54.9693 75.0663 54.5017 74.2001C53.7352 72.8433 52.1101 74.2461 52.2021 74.1541C51.8251 74.2635 51.489 74.4822 51.2362 74.7826C51.0446 75.1659 51.1366 75.5338 51.5275 76.3157ZM52.2941 74.3227C53.2523 73.9624 53.6049 73.7018 54.1721 74.706C55.2453 77.1206 56.7171 78.0251 54.0342 78.6996C52.9763 79.0905 52.8843 78.554 52.2174 77.3122C50.8836 74.8056 51.3589 74.9359 52.3171 74.3534L52.2941 74.3227ZM61.2167 71.7012C62.2746 73.8168 62.3052 74.1004 62.8571 74.3534C63.6632 74.345 64.4391 74.0455 65.0418 73.5102C65.2614 73.2601 65.3936 72.9453 65.4185 72.6134C65.4434 72.2816 65.3596 71.9506 65.1798 71.6705C64.9805 71.5555 65.0571 71.2029 64.0836 69.3709C63.4397 68.2211 61.784 68.9723 60.9254 69.9535C60.6188 70.5207 61.0098 70.996 61.2167 71.7012ZM61.2167 69.9535C61.4467 69.6239 62.7498 69.187 62.6808 69.233C63.7847 68.819 63.915 70.1605 64.7429 71.4099C65.0116 71.771 65.1568 72.2092 65.1568 72.6593C65.0801 73.3416 64.4822 73.5562 63.777 73.7938C62.8035 74.3687 62.3512 73.2112 61.9449 72.4524C61.5387 71.6935 60.6648 70.5207 61.2014 69.9535H61.2167ZM57.2537 75.5262C57.4751 76.0787 57.7774 76.5954 58.1505 77.0592C58.5031 76.7066 57.5143 75.4265 56.9317 74.1311C56.6597 73.4723 56.2759 72.8655 55.7972 72.3374C56.2955 74.1234 56.7631 74.2614 57.2537 75.5262ZM59.7909 74.1081C60.041 74.6685 60.3331 75.2092 60.6648 75.7255C61.0328 75.3575 60.0516 74.1004 59.4537 72.782C59.1849 72.1233 58.8036 71.5163 58.3268 70.9883C58.8864 72.9506 59.377 72.9046 59.7909 74.1081ZM66.5826 69.3786C67.0224 70.3246 67.5138 71.2458 68.0544 72.1381C68.4223 71.7625 67.4488 70.5514 66.8355 69.1946C66.5795 68.5324 66.2055 67.9221 65.7317 67.3933C65.8863 68.1032 66.1751 68.7771 66.5826 69.3786ZM70.0934 68.9877C70.3549 69.5438 70.6493 70.0838 70.9749 70.605C71.3352 70.2524 70.3617 68.934 69.7791 67.6539C69.5042 67.0169 69.1232 66.4311 68.6523 65.9215C69.2348 67.9758 69.6794 67.7689 70.0934 68.9877ZM72.9373 67.6692C73.1973 68.2286 73.4917 68.7713 73.8188 69.2943C74.1868 68.9263 73.2056 67.6769 72.6077 66.3508C72.3389 65.6921 71.9576 65.0851 71.4808 64.5571C72.0557 66.5041 72.5387 66.4888 72.9373 67.6692ZM20.1066 95.7626C20.3046 95.697 20.4784 95.5736 20.6055 95.4082C20.7325 95.2429 20.8071 95.0432 20.8195 94.8351C20.5349 93.4953 19.9505 92.2373 19.1101 91.1557C18.8798 90.984 18.6002 90.8913 18.3129 90.8913C18.0256 90.8913 17.746 90.984 17.5157 91.1557C15.9826 91.8533 16.0899 92.2212 16.0516 92.3745C15.9519 93.141 17.1861 95.6553 17.5847 96.1382C18.1519 96.7591 19.0488 96.3068 20.1066 95.7626ZM18.1213 95.8929C17.7227 95.5786 17.4467 94.8121 16.7185 93.5396C16.4349 93.0567 16.1742 92.5585 16.4732 92.1139C16.8565 91.5237 18.7269 90.7725 19.2404 91.9913C20.099 94.0302 20.9192 94.5515 20.4286 95.2797C19.938 96.0079 18.5506 96.2225 18.1213 95.8929ZM20.8349 91.7C22.0077 93.7159 21.9157 95.1034 23.9471 93.8463C24.292 93.7006 24.8516 93.4937 25.0126 93.0797C25.1056 92.8177 25.1332 92.5369 25.0932 92.2617C25.0531 91.9866 24.9465 91.7253 24.7826 91.5007C24.0161 89.9676 23.6251 87.599 21.5708 89.2011C20.3366 90.0673 20.191 89.7683 20.8349 91.7ZM21.9924 89.3314L22.276 89.2241C22.8739 88.9941 23.1729 89.2241 23.5025 89.8526C24.6983 92.4742 26.0321 93.0337 23.3875 93.7926C22.3296 94.1912 22.23 93.647 21.5631 92.4052C20.6126 90.6498 19.9303 89.9369 21.9924 89.3314ZM26.4384 91.447C26.5214 91.626 26.6517 91.7791 26.815 91.8898C26.9784 92.0005 27.1688 92.0647 27.3659 92.0756C27.7645 92.0756 27.9178 91.9223 28.899 91.3934C29.7345 91.3934 30.0181 90.2206 29.3819 89.431C28.5617 87.898 28.2627 85.5984 26.1701 87.1314C25.8481 87.3691 24.7519 87.6987 25.1429 88.6645C25.507 89.622 25.94 90.552 26.4384 91.447ZM26.5917 87.0625L26.8753 86.9551C27.4732 86.7328 27.7722 87.0011 28.1018 87.5837C29.2286 90.0519 30.1485 90.4352 28.9833 91.1557H28.8377C26.7373 91.9912 27.1589 91.9223 25.6795 89.1781C25.0892 88.0973 24.9206 87.576 26.5917 87.0625ZM30.5317 87.1084C30.7889 87.5321 31.0119 87.9755 31.1986 88.4346C31.4439 88.9251 31.8119 89.5613 32.0112 89.868C32.3714 89.5 31.3826 88.2276 30.7924 86.9245C30.522 86.2666 30.1409 85.6599 29.6655 85.1308C29.8299 85.8378 30.1235 86.5083 30.5317 87.1084ZM33.7282 86.9858C33.9875 87.547 34.2846 88.0899 34.6174 88.6108C34.9854 88.2429 33.9965 86.9781 33.4063 85.6674C33.1381 85.0089 32.7538 84.404 32.2718 83.8814C32.8314 85.928 33.2913 85.721 33.7282 86.9858ZM49.6188 92.3209C48.4767 93.0874 49.0592 93.7083 49.5498 94.8887C50.6 97.426 50.83 97.8399 53.1373 96.4218C53.2683 96.3512 53.3829 96.2538 53.4736 96.1358C53.5644 96.0179 53.6293 95.8822 53.664 95.7375C53.6987 95.5928 53.7025 95.4424 53.6752 95.2962C53.6478 95.1499 53.5899 95.0111 53.5052 94.8887C53.2518 94.2208 52.9441 93.5748 52.5854 92.9571C51.7422 91.2171 51.3589 91.4623 49.6188 92.3209ZM50.5923 92.2135C51.7882 91.5543 51.9338 92.7501 52.8153 94.2218C53.6969 95.6936 53.4899 96.0079 52.4474 96.4525C50.4314 97.3186 51.1059 96.7821 49.7798 94.7967C49.5345 94.2985 49.1129 93.9612 49.2202 93.164C49.3659 92.7501 49.6878 92.6275 50.5923 92.2135ZM56.8934 90.5885C56.6941 90.1362 56.4641 89.6303 55.8739 89.477C55.3187 89.4651 54.7767 89.6466 54.3408 89.9906C53.4209 90.5885 53.1526 90.8415 53.4132 91.5237C53.8502 92.6275 54.4941 93.8693 54.4558 93.8233C54.7241 94.3982 55.092 95.1187 55.7206 95.0344C56.2872 94.8848 56.8257 94.644 57.315 94.3215C57.4533 94.2731 57.58 94.1962 57.6869 94.0959C57.7937 93.9956 57.8784 93.874 57.9354 93.739C57.9925 93.604 58.0206 93.4585 58.0181 93.312C58.0155 93.1654 57.9823 93.021 57.9206 92.8881C57.625 92.1015 57.2819 91.3336 56.8934 90.5885ZM57.4146 94.0915C55.9429 94.8581 55.3986 95.2643 54.7854 93.7389C54.3944 92.7501 52.8 90.9564 54.1645 90.3815C54.6386 90.0401 55.1989 89.8383 55.7819 89.799C56.2878 89.8756 56.4565 90.6115 56.7247 91.0944C57.6446 92.7118 58.3038 93.5166 57.407 94.0915H57.4146ZM71.8334 84.9392C70.4 81.2138 69.6334 82.5629 68.5679 82.8849C68.2438 83.0227 67.9534 83.2293 67.7171 83.4904C67.5881 83.7316 67.5325 84.0052 67.557 84.2776C67.5815 84.5499 67.6851 84.8092 67.855 85.0235C69.1812 87.668 69.1352 88.7182 71.5575 87.4074C72.6613 87.0548 72.5157 85.8513 71.8334 84.9392ZM70.8599 87.4994L70.6376 87.5684C69.9554 87.8137 69.6104 87.6987 69.3115 87.1008C68.0007 84.8012 67.6711 84.2033 67.9777 83.751C68.3271 83.4122 68.7614 83.1739 69.2348 83.0612L69.5185 82.9539C70.124 82.7009 70.4383 83.0152 70.7449 83.5671C71.7951 85.8513 73.2132 86.7865 70.8599 87.4994ZM27.6572 108.61C27.5707 108.013 27.3591 107.441 27.0363 106.931C26.1854 105.222 26.0781 104.194 24.3533 105.03C22.8739 105.743 22.3143 106.049 23.4028 107.843C23.9164 108.824 24.1694 110.104 24.9819 110.281C25.7945 110.457 27.5958 109.223 27.6572 108.61ZM24.407 109.116C23.3492 107.023 22.9965 106.816 23.1039 106.241C23.2112 105.666 25.2962 104.248 26.0627 105.712C26.8293 107.406 27.3889 108.058 27.4349 108.564C27.5115 109.33 25.3728 110.526 24.43 109.093L24.407 109.116ZM27.5115 105.245C28.3547 106.663 28.7457 108.625 30.1331 107.782C31.007 107.222 32.6167 107.261 31.4439 105.099C31.1523 104.361 30.8064 103.647 30.4091 102.96C29.6425 101.864 28.4314 102.838 28.1094 102.96C26.9903 103.589 26.8293 103.903 27.5115 105.245ZM28.7687 102.945C30.2098 102.393 30.0028 103.213 31.214 105.245C31.5742 105.85 31.8272 106.264 31.6279 106.67C31.5039 106.899 31.2945 107.07 31.0453 107.146C29.037 107.989 29.1673 107.621 28.3087 106.08C27.3352 104.325 26.745 103.482 28.7687 102.96V102.945ZM35.108 100.806C34.3415 99.4496 32.7164 100.852 32.8467 100.76C32.6481 100.774 32.4566 100.839 32.2913 100.95C32.126 101.061 31.9928 101.213 31.905 101.392C31.8172 101.571 31.778 101.769 31.7913 101.968C31.8045 102.166 31.8698 102.358 31.9805 102.523C32.2679 103.435 32.6561 104.312 33.138 105.137C33.2016 105.275 33.2939 105.397 33.4086 105.495C33.5234 105.594 33.658 105.667 33.8033 105.709C33.9486 105.751 34.1013 105.761 34.251 105.739C34.4007 105.718 34.5439 105.664 34.6711 105.582C35.0237 105.344 36.1505 104.9 36.2042 104.815C36.3973 104.558 36.4979 104.243 36.4895 103.922C36.4812 103.601 36.3644 103.291 36.1582 103.045C35.7596 102.385 35.591 101.703 35.108 100.806ZM36.1275 104.493C35.8266 104.793 35.4669 105.026 35.071 105.179C34.6752 105.332 34.2519 105.402 33.8279 105.383C33.437 105.222 33.1917 104.57 32.3331 102.991C32.0035 102.378 31.8349 102.094 31.9575 101.558C31.9575 101.289 32.7241 100.944 32.8467 100.944C34.6864 100.277 34.1498 100.607 35.6446 103.106C35.9742 103.612 36.3882 104.003 36.1275 104.493ZM44.7742 100.592C45.7477 100.132 46.6293 99.5876 46.0774 98.6294C45.805 97.9472 45.4875 97.284 45.1268 96.6441C44.6286 95.6169 44.4446 95.4636 43.977 95.3486C43.4551 95.3593 42.9492 95.5306 42.5282 95.8392C40.9951 96.6671 41.5777 97.4719 41.6314 97.5639C42.8272 99.9632 42.9268 101.711 44.7742 100.592ZM42.1603 98.1158C42.0175 97.9432 41.9106 97.7437 41.8461 97.5291C41.7816 97.3145 41.7607 97.0892 41.7847 96.8664C41.8997 96.4525 42.3673 96.2608 42.7965 96.0999C44.5059 95.3793 44.2223 95.9159 45.3951 97.9549C46.2997 99.4879 46.085 99.7409 45.0272 100.193C43.1261 101.036 43.6934 100.691 42.1603 98.1158ZM37.768 101.772C38.0334 102.365 38.3434 102.936 38.6955 103.482C38.8258 103.359 38.9408 103.367 38.5422 102.569C38.3452 102.132 38.1172 101.709 37.8599 101.305C37.2544 100.239 37.4307 99.9785 36.3268 98.6907C37.0321 100.684 37.2927 100.461 37.768 101.772ZM38.8488 97.3493C40.9108 101.312 40.7268 101.466 41.4244 102.263C41.777 101.91 40.7882 100.63 40.2056 99.3346C39.9066 98.5802 39.443 97.902 38.8488 97.3493ZM46.4223 93.9459C46.6983 95.2337 46.9819 95.226 47.4955 96.4141C47.7782 97.2125 48.1648 97.9702 48.6453 98.6677C48.7603 98.5604 48.8829 98.5604 48.4843 97.7709C48.2947 97.3314 48.0691 96.9084 47.8098 96.5061C47.3498 95.5786 47.3498 94.9807 46.4223 93.9459ZM56.9011 98.0315C57.061 98.6161 57.2955 99.1777 57.5986 99.7025C58.0892 100.661 58.3652 101.435 58.9784 101.527C59.8497 101.386 60.6748 101.039 61.3854 100.515C61.0864 100.216 60.3659 101.197 58.9937 101.282C58.4878 101.136 58.3038 100.515 58.0509 99.9018C57.7979 99.2886 56.2265 97.4719 57.5986 96.92C58.0616 96.5643 58.6248 96.3631 59.2084 96.3451C59.7143 96.4218 59.8829 97.1117 60.1589 97.6406C61.1937 99.4803 61.4544 99.8022 61.1631 100.316L61.324 100.415C61.4284 100.259 61.4916 100.078 61.5076 99.8906C61.5237 99.7031 61.4922 99.5145 61.416 99.3423C61.0328 98.3764 60.3352 96.9737 60.3735 97.0427C60.1666 96.5904 59.9443 96.0845 59.354 95.9389C58.8721 95.9331 58.4023 96.0897 58.0202 96.3835C57.2 96.7591 56.5944 97.2113 56.9011 98.0315ZM64.1833 99.1506L65.1951 98.6371C65.3301 98.542 65.4446 98.4207 65.5315 98.2803C65.6185 98.14 65.6763 97.9835 65.7013 97.8203C65.7264 97.6571 65.7182 97.4906 65.6773 97.3306C65.6365 97.1706 65.5637 97.0206 65.4634 96.8894C65.2272 96.2752 64.948 95.6783 64.6279 95.1034C64.2446 94.2678 64.0606 93.9612 63.4857 93.8769C62.9631 93.8834 62.456 94.0552 62.0369 94.3675L61.669 94.5668C61.3918 94.6974 61.1744 94.9281 61.0606 95.2126C60.9468 95.4971 60.9451 95.8141 61.0558 96.0999C61.7073 97.058 62.4815 100.316 64.1833 99.1506ZM62.3895 94.5515C63.3247 94.1605 63.7923 93.9842 64.1449 94.6051C65.908 97.6712 66.1303 97.9548 64.6969 98.5681C62.8878 99.3346 63.3171 99.1353 62.0216 96.8511C61.6119 96.4452 61.3779 95.8947 61.37 95.318C61.4927 94.9424 61.9449 94.7508 62.3895 94.5668V94.5515ZM27.5115 114.903C26.745 113.546 26.9136 113.209 26.0397 112.335C26.1458 112.902 26.3648 113.441 26.6837 113.922C27.3199 115.025 27.5192 116.06 28.2627 116.988L28.3241 116.919C28.1352 116.217 27.8624 115.54 27.5115 114.903ZM30.662 115.938C30.662 115.117 29.8342 113.975 29.4816 113.247C29.1933 112.479 28.8178 111.746 28.3624 111.063C28.7073 112.596 28.9066 112.343 29.4586 113.615C29.7404 114.445 30.1461 115.229 30.662 115.938ZM35.2613 113.232C35.3648 112.98 35.3995 112.706 35.3617 112.436C35.324 112.167 35.2153 111.912 35.0467 111.699C34.5255 110.702 34.5101 110.396 34.0119 109.476C33.2453 108.119 31.5819 109.56 31.7122 109.476C31.3359 109.583 30.9998 109.799 30.7464 110.097C30.4397 110.564 30.7464 111.086 30.961 111.545C31.2497 112.329 31.5798 113.097 31.9498 113.845C32.5324 115.018 33.6133 114.152 34.0655 113.952C33.8969 114.129 33.8432 114.113 34.4105 113.845C34.7513 113.735 35.049 113.52 35.2613 113.232ZM35.0237 113.155C34.9173 113.347 34.7501 113.498 34.5485 113.584C33.4906 113.822 32.816 114.489 32.2488 113.416C30.4397 110.25 30.6161 110.281 31.8272 109.514C33.6669 108.824 33.1457 109.192 34.6251 111.668C35.3763 112.833 35.016 113.01 35.039 113.155H35.0237ZM36.3805 111.676C36.4488 111.809 36.5433 111.926 36.6584 112.022C36.7735 112.117 36.9068 112.188 37.0502 112.23C37.1935 112.273 37.344 112.285 37.4924 112.268C37.6408 112.25 37.7841 112.203 37.9136 112.128L38.6188 111.814C39.462 111.637 40.0983 110.909 39.623 110.112C39.2421 109.137 38.8097 108.182 38.3275 107.253C37.676 106.026 36.3805 107.008 35.9742 107.123C35.6496 107.263 35.3593 107.472 35.1234 107.736C34.9944 107.977 34.9388 108.251 34.9633 108.523C34.9878 108.795 35.0914 109.055 35.2613 109.269C35.6932 110.042 36.0673 110.847 36.3805 111.676ZM35.4376 108.004C35.7894 107.663 36.2261 107.422 36.7025 107.307L36.9861 107.199C37.584 106.946 37.8983 107.276 38.2049 107.82C39.1631 109.928 39.738 110.12 39.462 110.94C39.2649 111.298 38.9429 111.571 38.5575 111.706C36.7714 112.281 37.239 112.09 35.7519 109.545C35.0084 108.372 35.4376 108.081 35.4376 108.004ZM43.9157 107.314C43.1491 105.781 42.7965 103.482 40.7038 105.015C40.3206 105.298 39.9373 105.36 39.738 105.704C39.416 106.218 39.738 106.647 39.9833 107.444C40.9875 109.223 40.9645 110.02 41.915 110.066C42.3749 110.066 44.1227 109.391 44.2146 108.41C44.2455 108.217 44.2348 108.019 44.1832 107.83C44.1317 107.641 44.0405 107.465 43.9157 107.314ZM43.9923 108.778C43.8697 109.062 41.8077 110.311 41.1944 109.07C41.1561 108.993 39.9833 106.893 39.8146 106.456C39.7588 106.292 39.7508 106.115 39.7915 105.947C39.8322 105.779 39.92 105.625 40.0446 105.505C40.4737 105.248 40.9317 105.042 41.4091 104.892C42.5052 104.486 42.5896 105.712 43.5707 107.391C44 108.081 44.2146 108.372 43.9923 108.763V108.778ZM52.662 100.231C52.5686 100.071 52.441 99.9337 52.2885 99.8283C52.1359 99.723 51.9621 99.6524 51.7792 99.6217C51.5964 99.591 51.409 99.6009 51.2304 99.6506C51.0518 99.7003 50.8863 99.7887 50.7457 99.9095C50.2657 100.09 49.8275 100.367 49.4578 100.722C49.3309 100.964 49.2771 101.238 49.303 101.51C49.3288 101.782 49.4332 102.041 49.6035 102.255C50.4314 103.842 50.6077 105.107 51.7268 105.183C52.0105 105.183 52.0871 105.107 53.03 104.639C54.77 104.018 54.0955 103.167 52.662 100.231ZM52.9303 104.524C52.0028 104.884 51.6655 105.59 50.8683 103.88C50.3164 102.707 48.9903 101.098 50.2244 100.676C50.7154 100.31 51.3062 100.101 51.9185 100.078C52.3631 100.139 52.2864 100.316 53.8578 103.206C54.0725 104.171 53.2906 104.248 52.9303 104.524ZM46.568 107.92C46.6446 107.843 46.6906 107.805 46.6829 107.72C46.6293 107.245 45.4948 105.498 45.1498 104.57C44.9544 104.053 44.6803 103.57 44.3373 103.137C44.4515 103.748 44.6832 104.331 45.0195 104.854C45.5331 105.781 46.039 107.391 46.568 107.92ZM49.2432 106.617C49.4502 106.41 49.3122 106.356 49.1666 105.988C48.867 105.324 48.5318 104.677 48.1624 104.049C47.862 103.278 47.4736 102.545 47.0049 101.864C47.3345 103.328 47.5798 103.206 48.0934 104.378C48.3843 105.168 48.7704 105.92 49.2432 106.617ZM56.5178 102.983C56.7631 102.746 56.5178 102.401 56.4335 102.309C56.0349 101.343 55.7896 101.136 55.4293 100.385C55.1145 99.6138 54.7269 98.8746 54.2718 98.1771C54.6091 99.7102 54.816 99.4649 55.368 100.73C55.6507 101.528 56.0373 102.286 56.5178 102.983ZM59.193 106.333C58.9631 105.911 58.8021 105.145 58.0509 104.953C57.2843 104.953 55.7512 105.773 55.5979 106.379C55.3833 107.146 56.8627 110.434 57.6906 110.549C58.4571 110.549 60.0592 109.782 60.1512 109.1C60.2432 108.418 59.5073 106.908 59.193 106.333ZM57.6139 110.281C57.246 110.158 57.0697 109.69 56.7477 108.932C56.6558 108.717 55.5826 107.138 55.7972 106.417C55.9505 105.904 57.177 105.421 57.8746 105.375C58.2578 105.436 58.4495 105.881 58.6411 106.272C58.9937 107.153 60.0209 108.403 59.9136 109.085C59.7909 109.905 57.9896 110.38 57.6139 110.281ZM64.4592 106.264C64.076 105.298 63.3861 103.895 63.4167 103.964C63.3482 103.712 63.2197 103.48 63.0422 103.288C62.8647 103.095 62.6435 102.949 62.3972 102.861C61.9167 102.857 61.4492 103.016 61.0711 103.313C60.6955 103.543 60.1052 103.773 59.9289 104.256C59.839 104.488 59.839 104.744 59.9289 104.976C60.2442 105.774 60.6024 106.555 61.0021 107.314C61.2167 107.789 61.4927 108.372 62.0369 108.456C62.7422 108.456 64.2753 107.797 64.5206 107.031C64.562 106.905 64.578 106.773 64.5675 106.641C64.5569 106.509 64.5201 106.381 64.4592 106.264ZM62.0906 108.134C61.6997 108.027 60.0439 105.114 60.1589 104.386C60.2739 103.658 61.5693 103.244 62.2976 103.198C62.7115 103.259 64.4976 106.456 64.3366 107.031C64.1756 107.605 62.7498 108.081 62.0906 108.134ZM68.1387 102.002C67.6787 100.983 67.5024 100.745 66.9965 100.622C66.3658 100.664 65.7634 100.9 65.2718 101.297C64.5895 101.642 64.3366 102.132 64.5666 102.746C64.8699 103.543 65.2153 104.323 65.6014 105.084C65.931 105.812 66.2146 106.157 66.6209 106.21C67.1882 106.287 68.9972 105.551 69.1659 104.754C69.2198 104.523 69.1956 104.28 69.0969 104.064C68.223 101.765 67.9777 102.002 68.1387 102.002ZM66.6899 105.919C66.1993 105.781 66.0153 105.153 65.747 104.539C65.5554 104.087 64.5436 102.868 64.7888 102.102C64.9805 101.512 66.138 101.029 66.9045 100.983C67.4028 101.059 67.5791 101.749 67.8474 102.278C68.4683 103.359 69.0202 104.148 68.9742 104.677C68.8822 105.375 67.2725 105.888 66.6899 105.919ZM69.1812 99.5109C69.4648 100.868 70.2697 101.611 70.4077 102.355C69.9861 102.508 69.3192 103.121 69.5721 103.336C69.9752 103.464 70.3845 103.572 70.7986 103.658C71.1206 103.704 71.1436 103.658 71.4118 104.21C71.5881 104.033 71.5958 103.987 71.4962 103.811C73.1979 103.811 73.8571 103.19 75.1679 101.872C75.4015 101.66 75.6169 101.43 75.8118 101.182C76.4021 101.864 79.6446 100.822 78.7401 99.3269C79.3707 98.9685 80.0716 98.7514 80.7944 98.6907C80.9105 98.9434 81.0657 99.1762 81.2543 99.3806C81.4306 99.2043 81.377 99.1046 81.1317 98.6141C82.1962 98.4685 83.2738 98.4453 84.3435 98.5451C86.1909 99.0127 87.7164 97.6022 86.7505 96.6517C84.5888 95.1187 79.8516 95.7013 77.3526 96.5521C77.1293 96.2801 76.8306 96.0801 76.4941 95.9772C76.0132 95.9711 75.5449 96.1308 75.1679 96.4295L74.7847 96.6441C74.6526 96.6892 74.5317 96.7623 74.4303 96.8582C74.3289 96.9542 74.2494 97.0708 74.197 97.2002C74.1447 97.3296 74.1208 97.4688 74.1269 97.6083C74.1331 97.7477 74.1692 97.8842 74.2327 98.0085C74.57 98.5298 74.3017 98.3841 74.0948 98.775C72.2397 101.006 73.7805 100.684 71.7951 98.2308C72.0481 99.4266 72.3547 99.5262 72.761 100.484C72.2385 101.261 71.5005 101.869 70.6376 102.232C69.8021 100.415 69.9324 100.262 69.1812 99.5109ZM78.3798 99.281C78.4742 99.4169 78.5404 99.5703 78.5746 99.7322C78.6088 99.8942 78.6104 100.061 78.5791 100.224C77.9764 100.771 77.2124 101.107 76.4021 101.182C76.2568 101.111 76.1204 101.024 75.9958 100.921C76.6529 100.187 77.4791 99.6241 78.4028 99.281H78.3798ZM76.8467 96.2608C77.5289 96.7744 76.5631 96.2608 74.547 98.0392C73.9031 96.7974 76.4634 96.0232 76.862 96.2608H76.8467ZM33.0997 119.218C32.931 118.904 32.7317 118.038 31.9575 117.839C31.3268 117.88 30.7244 118.116 30.2328 118.513C29.1366 118.896 29.3436 120.2 30.0105 121.142C30.6084 122.522 30.984 123.358 31.5972 123.442C32.6244 123.442 34.3951 122.576 33.9735 121.265C33.759 120.553 33.4659 119.866 33.0997 119.218ZM31.5666 123.197C31.0683 123.059 30.8767 122.43 30.6237 121.817C30.5701 121.694 30.1408 120.997 30.1868 121.05C29.7728 120.138 29.2286 119.188 30.1485 118.82C30.6223 118.483 31.1787 118.282 31.7582 118.237C32.1415 118.299 32.3331 118.743 32.5248 119.134C33.092 120.537 34.2648 121.51 33.6133 122.354C33.0427 122.833 32.3394 123.127 31.5972 123.197H31.5666ZM38.3812 118.965C37.0091 116.198 36.9861 115.899 36.3115 115.746C35.8036 115.732 35.306 115.891 34.9011 116.198C34.1882 116.597 33.5289 117.018 33.8816 117.731C34.3185 118.835 34.9624 120.085 34.9241 120.031C35.1847 120.59 35.5603 121.342 36.1889 121.242C37.1471 121.112 38.8258 120.345 38.3812 118.965ZM35.8976 120.882C35.6063 120.774 35.43 120.453 35.2077 119.908C34.8014 118.881 33.6746 117.655 34.1958 116.896C34.7516 116.38 35.4639 116.064 36.2195 115.999C36.7331 116.076 36.9018 116.827 37.1701 117.294C37.4383 117.762 37.837 118.467 38.1742 119.134C38.8181 120.468 36.1582 120.981 35.8976 120.882ZM39.807 113.791C39.485 113.998 38.8718 114.083 38.5192 114.604C38.3951 114.847 38.3428 115.12 38.3686 115.392C38.3944 115.663 38.4972 115.922 38.6648 116.137C39.531 117.448 39.853 119.632 41.3018 118.889C42.4286 118.299 43.1875 118.176 43.0495 117.034C43.0113 116.69 42.8845 116.363 42.6815 116.083C42.1603 115.37 41.7694 112.55 39.807 113.791ZM41.2788 118.582C40.4279 118.758 40.1289 118.437 39.462 117.195C38.6955 115.746 38.2586 115.209 38.6188 114.773C39.1438 114.268 39.8252 113.957 40.5505 113.891C41.2711 113.891 41.2558 114.872 42.3213 116.367C43.5554 118.107 41.3937 118.567 41.2788 118.582ZM51.1519 108.939C51.0084 108.786 50.8209 108.682 50.6153 108.64C49.9766 108.656 49.3603 108.879 48.8599 109.277C47.7638 109.66 47.9631 110.963 48.63 111.898C49.2279 113.278 49.6035 114.113 50.2244 114.198C51.1427 114.117 51.9967 113.692 52.616 113.01C52.6814 112.854 52.7151 112.687 52.7151 112.519C52.7151 112.35 52.6814 112.184 52.616 112.028C52.2601 110.941 51.7682 109.903 51.1519 108.939ZM50.2551 113.991C49.7491 113.853 49.5652 113.224 49.3122 112.611C49.2585 112.488 48.262 110.948 48.3234 110.181C48.515 109.606 49.6572 109.116 50.4467 109.054C50.83 109.116 51.0216 109.56 51.2132 109.951C51.4049 110.342 51.7958 110.971 52.4091 112.189C52.506 112.375 52.5358 112.589 52.4934 112.795C52.2941 113.515 50.8913 113.945 50.2551 113.991ZM44.5596 114.903C43.6934 113.27 43.9004 113.147 43.0878 112.335C43.1927 112.902 43.4118 113.442 43.7317 113.922C44.3756 115.025 44.5673 116.06 45.3108 116.988C45.5484 116.781 44.6056 114.979 44.5596 114.903ZM47.5798 114.359C47.3376 113.784 47.0638 113.224 46.7596 112.68C46.543 112.03 46.1813 111.437 45.7018 110.948C45.9624 112.174 46.2767 112.228 46.7673 113.377C48.3387 117.087 48.1164 115.317 47.5798 114.359ZM54.5094 109.936C53.6432 108.303 53.8502 108.18 53.0376 107.368C53.1495 107.933 53.368 108.471 53.6815 108.955C54.3101 110.058 54.5247 111.101 55.2146 112.021C55.3833 111.913 55.4906 111.775 54.5094 109.936ZM63.754 116.651C64.1094 116.499 64.4095 116.242 64.6136 115.915C64.8177 115.587 64.9157 115.204 64.8944 114.818C64.873 114.433 64.7334 114.063 64.4944 113.76C64.2554 113.457 63.9287 113.234 63.5588 113.123C63.189 113.012 62.7939 113.018 62.4274 113.14C62.0609 113.262 61.7408 113.493 61.5108 113.803C61.2807 114.114 61.1519 114.487 61.1418 114.873C61.1317 115.259 61.2408 115.639 61.4544 115.961C61.7278 116.288 62.0916 116.529 62.5005 116.651C62.9094 116.774 63.3453 116.774 63.754 116.651ZM64.0836 116.114C63.9041 116.242 63.7001 116.331 63.4844 116.377C63.2687 116.422 63.046 116.422 62.8302 116.378C62.6143 116.333 62.41 116.245 62.23 116.117C62.05 115.99 61.8981 115.827 61.784 115.639C61.6118 115.357 61.5265 115.031 61.5387 114.701C61.551 114.371 61.6603 114.052 61.853 113.784C63.1178 112.044 66.0843 114.619 64.0836 116.114ZM73.0676 119.847C72.9373 119.717 72.6153 119.487 72.4313 119.525C72.1647 119.626 71.9081 119.752 71.6648 119.901C66.1456 122.522 64.4516 123.442 64.6202 123.35C62.7345 124.408 62.0216 124.392 61.9296 124.883C61.9296 125.266 62.0139 125.151 62.1979 126.087C62.2762 126.83 62.4277 127.565 62.6502 128.279H62.8571C63.0028 128.233 75.2369 122.147 75.3212 122.101C75.4056 122.055 75.5742 122.001 75.6125 121.894C75.6892 121.641 74.6237 121.181 73.0676 119.847ZM62.7805 128.08C62.6195 127.367 62.5122 126.638 62.4202 125.903C62.4202 125.811 62.2439 124.829 62.2822 124.822C63.524 124.331 70.2314 120.866 71.5575 120.223C71.7665 120.147 71.9712 120.06 72.1707 119.962C72.6 119.732 72.83 120.062 73.1519 120.315C74.3784 121.28 74.8 121.602 75.2676 121.901C62.6808 128.087 66.2376 126.385 62.7805 128.08ZM73.3972 29.2047C73.5735 29.2047 73.4739 29.2047 73.8035 29.1357C73.3796 29.0325 72.9972 28.8026 72.7073 28.4765V28.3156L72.6537 28.4995C72.5463 28.8905 73.0216 29.1741 73.3972 29.2047ZM75.1219 29.8946C75.0441 29.9472 74.9846 30.0226 74.9517 30.1105C74.9187 30.1984 74.9139 30.2944 74.938 30.3852C75.0989 30.6918 75.4976 30.3162 75.3749 29.9253C75.4591 29.9203 75.5414 29.8979 75.6166 29.8597C75.6917 29.8214 75.7582 29.7681 75.8118 29.703L75.9422 29.496L75.7122 29.5727C75.5819 29.5727 74.8077 29.6646 74.7387 29.5727L74.823 29.7106C74.9226 29.8333 75.0223 29.8486 75.1219 29.8946Z" fill="#4C2FB3"/>
<path d="M72.8224 29.7796C73.0601 29.7796 73.2824 29.243 73.0218 29.1204C72.6078 28.9288 72.3395 29.7796 72.8224 29.7796ZM72.0942 32.0562C72.2212 32.2903 72.2696 32.559 72.2322 32.8227C72.3035 32.7731 72.3642 32.7097 72.4106 32.6362C72.4571 32.5628 72.4884 32.4808 72.5026 32.3951C72.5169 32.3094 72.5139 32.2217 72.4938 32.1372C72.4737 32.0526 72.4369 31.973 72.3855 31.9029C72.2647 31.7671 72.1137 31.6616 71.9445 31.595C71.7754 31.5284 71.593 31.5026 71.412 31.5196C71.6907 31.6214 71.9297 31.8094 72.0942 32.0562ZM22.8511 49.0579C23.2933 49.323 23.8102 49.4361 24.3228 49.3798H25.0894C25.2268 49.3565 25.3678 49.3659 25.501 49.4072C25.6341 49.4485 25.7557 49.5205 25.8559 49.6174C25.5646 49.7477 25.2427 49.8474 25.2427 50.2383C26.0284 52.2965 26.9982 54.2796 28.1402 56.1636C29.6542 58.9727 31.8367 61.3658 34.4949 63.1314C36.2984 64.1188 38.1929 64.93 40.1521 65.5536C39.8839 63.5362 39.5052 61.5351 39.0176 59.5593C38.9103 59.0228 37.0706 52.8905 36.9326 52.8905C36.3427 53.0858 35.7057 53.0858 35.1159 52.8905C33.9734 52.4769 32.9026 51.8872 31.9423 51.1428C31.3061 50.6982 30.6545 50.3073 30.003 49.855C29.7883 49.7094 29.0218 49.9087 29.1674 49.4258C29.3437 46.9959 28.7228 46.6126 26.7835 47.1262C25.9019 47.3408 22.3145 47.9541 22.5674 48.8126C22.6352 48.921 22.734 49.0064 22.8511 49.0579ZM27.1974 47.2642C27.7263 47.2029 28.3702 47.1185 28.7305 47.6321C28.9681 48 28.8685 48.322 28.8685 48.7359V49.5714C27.9674 49.513 27.0636 49.513 26.1625 49.5714C26.0613 49.4116 25.9143 49.2859 25.7407 49.2107C25.5671 49.1355 25.3749 49.1143 25.189 49.1498C23.9472 49.1498 23.2037 49.1498 23.035 48.8126C22.8664 48.4753 23.426 48.2453 23.6789 48.1533C24.814 47.727 25.9947 47.4337 27.1974 47.2795V47.2642ZM104.251 107.475L103.247 106.64C102.921 106.395 102.52 106.27 102.112 106.287C101.801 106.324 101.507 106.45 101.266 106.649C101.025 106.849 100.846 107.115 100.752 107.414C100.658 107.712 100.653 108.032 100.736 108.334C100.82 108.636 100.989 108.907 101.223 109.116L102.22 109.951C102.361 110.082 102.528 110.182 102.71 110.244C102.892 110.307 103.086 110.329 103.277 110.311C103.607 110.31 103.929 110.207 104.197 110.015C104.465 109.823 104.667 109.552 104.774 109.24C104.881 108.928 104.888 108.59 104.794 108.274C104.701 107.958 104.511 107.678 104.251 107.475ZM104.136 109.414C103.951 109.635 103.687 109.774 103.401 109.803C103.114 109.831 102.828 109.747 102.603 109.568L101.599 108.732C101.371 108.547 101.226 108.279 101.196 107.988C101.166 107.696 101.253 107.404 101.438 107.176C101.623 106.949 101.891 106.804 102.182 106.773C102.474 106.743 102.766 106.83 102.994 107.015L103.99 107.851C104.206 108.046 104.339 108.316 104.365 108.606C104.391 108.895 104.306 109.184 104.128 109.414H104.136ZM108.344 98.5297C108.003 98.2792 107.579 98.1708 107.159 98.2274C106.74 98.2839 106.359 98.5011 106.097 98.833C105.834 99.1649 105.711 99.5857 105.753 100.007C105.795 100.428 105.998 100.816 106.321 101.09L107.409 101.925C109.142 103.213 110.981 100.691 109.433 99.3729L108.344 98.5297ZM109.31 101.305C109.12 101.535 108.847 101.681 108.55 101.711C108.253 101.741 107.956 101.653 107.723 101.466L106.627 100.63C106.426 100.438 106.305 100.177 106.289 99.8986C106.273 99.6207 106.364 99.3471 106.542 99.1335C106.721 98.9199 106.974 98.7822 107.25 98.7484C107.526 98.7146 107.805 98.7871 108.03 98.9513L109.119 99.7945C109.34 99.9724 109.484 100.229 109.519 100.511C109.555 100.793 109.48 101.077 109.31 101.305Z" fill="#4C2FB3"/>
<path d="M146.564 88.68C146.43 88.4505 146.229 88.2669 145.988 88.1531C145.748 88.0393 145.478 88.0006 145.215 88.0419C144.952 88.0833 144.708 88.2028 144.514 88.3849C144.32 88.5671 144.185 88.8035 144.127 89.0633H142.916C137.275 89.3466 131.973 91.8418 128.16 96.008C128.092 95.9824 128.03 95.9434 127.977 95.8934C127.924 95.8434 127.882 95.7833 127.853 95.7167C127.64 95.142 127.468 94.5529 127.339 93.9537C127.237 93.758 127.162 93.5491 127.117 93.3328C127.154 92.6861 127.265 92.0458 127.447 91.4242C127.987 88.5958 128.116 85.7043 127.83 82.839C128.281 82.4321 128.8 82.1078 129.363 81.8809C129.509 82.049 129.693 82.1802 129.899 82.2637C130.106 82.3472 130.329 82.3806 130.551 82.3612C130.773 82.3417 130.987 82.27 131.176 82.152C131.365 82.0339 131.523 81.8727 131.638 81.6818C131.752 81.4908 131.82 81.2754 131.835 81.0532C131.851 80.831 131.813 80.6083 131.726 80.4034C131.638 80.1985 131.504 80.0172 131.333 79.8743C131.162 79.7314 130.96 79.631 130.743 79.5813C130.56 79.534 130.37 79.5251 130.184 79.5552C129.997 79.5852 129.82 79.6535 129.661 79.7558C129.503 79.8581 129.367 79.9921 129.263 80.1494C129.159 80.3067 129.089 80.4839 129.056 80.6697C129.049 80.7948 129.049 80.9203 129.056 81.0453C128.545 81.2746 128.068 81.5738 127.638 81.9345C126.45 74.2692 121.728 66.6039 114.921 63.2235L111.15 61.4988C110.97 61.4659 110.788 61.4454 110.606 61.4375C111.589 62.1732 112.374 63.1421 112.889 64.2568C113.404 65.3716 113.634 66.5971 113.557 67.8227C113.541 68.0838 113.463 68.3374 113.329 68.5626C113.196 68.7877 113.011 68.9781 112.79 69.1181C113.156 69.7974 113.415 70.5291 113.557 71.2874C114.205 73.9093 115.069 76.4731 116.14 78.9527C115.925 78.4391 114.783 78.1172 114.331 77.8719C109.463 75.1277 103.929 74.1619 103.201 74.2845C102.764 73.518 101.775 71.5557 101.806 71.6323C101.453 70.8198 100.985 70.1529 100.096 70.2449C98.7011 70.2449 96.8307 68.7119 96.5088 66.5579C96.3267 65.0324 96.4837 63.4855 96.9687 62.0277C94.7291 63.4875 92.8834 65.4763 91.5946 67.8185C90.3058 70.1607 89.6136 72.7842 89.5792 75.4573C88.9123 75.1201 87.6628 75.9556 87.4482 75.8636C87.3715 75.8176 78.8245 58.5247 78.5179 57.7352C78.0656 56.7617 77.4447 55.4356 75.9193 55.6808C75.4173 55.7742 74.9383 55.9643 74.5088 56.2404C74.5088 56.2404 52.8231 66.8645 51.1367 67.7384C53.1911 62.3727 53.789 56.1944 52.1562 48.9047C53.1814 52.6773 53.5751 56.5935 53.3214 60.4947C54.3863 59.1157 55.3156 57.6371 56.0963 56.0794C56.6855 54.7672 57.1302 53.3947 57.4224 51.9862C60.1743 51.8022 65.3025 47.8316 67.3416 45.67C69.265 47.2029 71.3465 48.5262 73.5506 49.6176C78.9701 52.4078 84.8956 53.251 88.7283 52.6301C89.3645 52.5227 90.1694 52.6761 90.6217 51.8635C90.6553 52.0142 90.746 52.1461 90.8747 52.2315C91.4879 52.5917 91.7562 52.3618 92.6914 52.4461C92.906 53.1283 93.4579 52.791 93.2893 52.4461C93.4656 52.4461 93.5576 52.5381 93.6879 52.3771C93.7779 52.1969 93.8023 51.9908 93.7569 51.7945C94.2321 51.5646 94.3241 51.028 93.6572 50.7751C93.7048 50.6466 93.7171 50.5078 93.6928 50.373C93.6686 50.2382 93.6086 50.1123 93.5192 50.0085C93.4001 49.9123 93.2686 49.8324 93.1283 49.7709C91.4419 33.8424 92.3618 40.4959 91.7255 34.103C94.4774 33.3901 95.1673 29.9484 95.2976 27.4879C95.5969 25.5498 95.5969 23.5773 95.2976 21.6392C95.0874 20.042 94.5159 18.5137 93.6266 17.1704C93.3105 16.6742 92.863 16.2754 92.3339 16.0183C91.8048 15.7612 91.2148 15.6558 90.6294 15.7139C90.499 15.7139 90.499 15.7906 90.3841 15.7676C88.6379 15.7902 86.9193 15.3314 85.4168 14.4415C78.3646 10.5475 76.5478 6.30862 72.2781 4.47661C71.4782 4.08002 70.6068 3.84792 69.7155 3.79403C68.8243 3.74014 67.9313 3.86557 67.0893 4.16288C66.2474 4.46019 65.4736 4.92335 64.8139 5.52496C64.1541 6.12656 63.6217 6.85439 63.2482 7.66538C60.6802 12.9161 63.4705 18.8797 67.7248 22.3061C68.3994 22.835 67.9088 23.0726 68.0468 23.7395C67.6108 23.8487 67.2164 24.0832 66.9123 24.4141C66.7959 24.5932 66.7412 24.8054 66.7564 25.0184C66.7717 25.2315 66.856 25.4338 66.9966 25.5945C66.8123 25.6695 66.6556 25.7996 66.5481 25.9671C66.4405 26.1345 66.3873 26.331 66.3957 26.5298C66.4041 26.7287 66.4737 26.92 66.5949 27.0778C66.7162 27.2355 66.8833 27.352 67.0733 27.4112C66.853 27.6374 66.724 27.9371 66.7113 28.2527C66.6986 28.5682 66.8029 28.8773 67.0043 29.1206C67.1193 29.2815 67.4182 29.2815 67.5562 29.4425C67.6942 29.6035 67.4872 29.9867 67.2726 30.1324C66.9892 30.3187 66.6665 30.4368 66.3297 30.4773C65.8775 30.4773 65.6782 30.0864 65.4942 29.7108C64.4517 27.3652 63.1945 21.9458 58.4496 18.7494C54.3238 16.1577 49.522 14.8479 44.6517 14.9857C42.1527 14.9857 39.8378 14.8478 37.7527 16.4192C37.1316 15.914 36.4815 15.4456 35.8057 15.0164C35.5667 14.8977 35.3057 14.8299 35.0392 14.8171C34.7555 14.8171 34.5256 15.0547 34.7939 15.3307C34.6282 15.2816 34.4543 15.2671 34.2828 15.2882C34.1114 15.3093 33.9461 15.3655 33.7973 15.4533C33.6517 15.6373 33.69 15.9132 34.1116 16.0895C33.8203 16.0206 33.6057 16.3962 33.782 16.7028C34.0367 17.0062 34.3754 17.2276 34.7555 17.339C34.2573 17.3007 34.1959 18.1668 35.1158 18.2665C35.6773 18.2734 36.2385 18.2375 36.7946 18.1592C37.0461 19.1687 37.6325 20.0631 38.458 20.6964C41.02 22.3879 43.9363 23.4684 46.982 23.8545C48.2545 24.0385 49.6266 23.8545 50.8684 24.1228C51.0908 26.5498 51.9241 28.8809 53.2907 30.8989C51.7576 31.3358 48.7297 33.6738 47.5263 34.6549C46.8977 35.1685 46.2078 35.889 46.4148 36.6786C45.8396 36.7987 45.2793 36.9812 44.7437 37.2228C43.9834 37.6299 43.2533 38.091 42.559 38.6025C40.5456 40.0666 39.0013 42.0843 38.114 44.4101C37.2266 46.7359 37.0345 49.2695 37.5611 51.7026C39.7304 61.6675 42.513 63.7907 39.8608 73.4567C35.6294 75.511 9.9653 88.1511 9.09144 88.5573C8.44093 88.832 7.81949 89.171 7.23638 89.5692C5.97924 90.558 6.66914 91.9224 7.23638 93.0186C7.23638 93.0186 25.6796 130.234 27.1667 133.353C27.3498 133.855 27.7248 134.264 28.2092 134.49C28.6936 134.715 29.2478 134.74 29.75 134.557C29.7669 135.324 29.7387 136.092 29.6656 136.856C29.6656 142.329 29.497 141.624 29.497 145.396C29.4127 146.844 29.5583 146.162 29.1827 146.722C29.1827 147.082 29.3973 147.105 29.52 147.427L30.5625 149.474C30.6622 149.474 100.25 115.156 103.254 113.623C107.409 117.785 111.602 119.556 116.853 120.683C114.653 123.235 112.637 124.577 113.296 125.734C113.667 126.233 114.193 126.594 114.791 126.761C117.244 127.842 122.924 130.019 123.346 130.034C123.386 130.017 123.421 129.991 123.449 129.958C123.477 129.925 123.497 129.885 123.507 129.843C123.553 129.62 123.307 129.252 122.786 128.724C122.227 128.018 121.652 127.267 121.008 126.547C121.392 126.265 121.809 126.031 122.25 125.849C122.763 125.696 122.97 125.657 123.062 125.473C123.154 125.289 122.763 124.768 122.495 124.615C122.224 124.375 121.969 124.119 121.728 123.848C121.636 123.756 121.728 123.672 121.897 123.457C123.606 121.756 124.197 122.131 125.009 122.315C125.63 122.453 127.508 122.791 127.715 122.814C128.088 122.954 128.488 123.01 128.885 122.978C129.283 122.946 129.668 122.827 130.015 122.63C130.919 121.94 131.157 121.097 131.548 120.974C131.939 120.851 133.809 121.396 133.794 121.74C133.732 122.768 130.191 124.186 135.779 124.4C135.58 124.968 135.388 125.757 135.158 126.386C135.013 126.853 134.56 127.482 134.836 127.88C134.857 127.91 134.884 127.933 134.917 127.948C134.949 127.962 134.985 127.968 135.02 127.965C135.656 127.965 137.466 125.734 137.473 125.711C138.518 124.798 139.31 123.631 139.773 122.323C140.026 121.051 139.144 120.2 138.148 119.487C136.87 118.596 135.513 117.826 134.093 117.187C139.183 109.967 136.921 100.891 128.949 96.2686C132.409 92.5933 137.092 90.3088 142.119 89.8451C142.791 89.7761 143.469 89.7761 144.142 89.8451C144.259 90.0985 144.452 90.3097 144.693 90.4504C144.934 90.5911 145.212 90.6545 145.491 90.6319C145.769 90.6093 146.034 90.502 146.249 90.3243C146.464 90.1466 146.62 89.9071 146.695 89.6382C146.75 89.4795 146.767 89.31 146.745 89.1434C146.722 88.9769 146.66 88.8181 146.564 88.68ZM126.297 95.0499C125.998 94.9195 125.684 94.7969 125.385 94.6819C126.918 90.7803 126.627 85.9128 126.151 84.6021C126.151 84.3568 126.19 84.2878 126.366 84.2035L127.332 83.3066C127.62 87.2512 127.27 91.2164 126.297 95.0499ZM122.296 90.8339C122.311 90.9433 122.311 91.0542 122.296 91.1636C122.401 92.0584 122.268 92.9651 121.912 93.7928C121.746 93.7517 121.577 93.7261 121.406 93.7161C121.636 92.7362 121.934 91.7732 122.296 90.8339ZM121.253 91.2939C120.985 92.1294 120.816 92.9649 120.609 93.7468C120.39 93.7468 120.173 93.6998 119.973 93.6088C119.751 93.3175 119.812 92.3823 119.766 92.0221C119.314 89.0709 118.348 85.8362 117.842 83.7895C119.337 85.1387 120.58 86.7427 121.514 88.5267C121.882 89.6228 122.104 88.818 121.253 91.2939ZM122.525 93.1029C122.747 92.4783 122.854 91.8186 122.84 91.1559C122.886 90.3894 122.525 90.1134 122.84 89.6228C123.23 88.6565 123.72 87.7341 124.304 86.871C124.642 88.4208 124.74 90.0132 124.595 91.5928C124.499 92.4974 124.328 93.3923 124.082 94.268C124.082 94.3447 123.691 94.1454 122.342 93.9307C122.081 93.9077 122.196 94.0304 122.525 93.1029ZM124.679 86.6947C124.646 86.6133 124.628 86.526 124.628 86.4379C124.628 86.3497 124.646 86.2625 124.679 86.1811C124.791 86.0017 124.928 85.8391 125.086 85.6982C125.309 85.4055 125.55 85.1265 125.806 84.8627C126.482 88.1324 126.281 91.5226 125.224 94.6896L124.281 94.3676C125.133 91.8984 125.271 89.2389 124.679 86.6947ZM124.856 74.9898C125.561 76.4735 126.145 78.0115 126.604 79.5889C126.851 80.5049 127.033 81.4373 127.148 82.3791C126.718 82.6952 126.311 83.041 125.929 83.4139C124.296 77.0211 120.042 70.1989 116.171 65.7837C115.082 64.5607 113.85 63.4744 112.499 62.549C118.099 64.9012 122.542 69.3736 124.856 74.9898ZM114.477 73.4567C114.408 73.357 113.181 69.2714 113.158 69.2024C114.346 68.6735 113.756 66.098 113.572 65.2088C113.352 64.1461 112.818 63.174 112.039 62.4187C112.698 62.9016 113.12 63.3385 113.503 63.6144C115.578 65.4506 117.401 67.5539 118.923 69.8693C121.676 73.7967 123.79 78.1354 125.185 82.724C125.538 83.7742 125.599 83.7589 125.185 84.0655C124.833 84.4255 124.501 84.8042 124.189 85.1999C123.196 82.0821 121.42 79.2713 119.03 77.0364C117.978 76.0491 116.844 75.1516 115.642 74.3535C115.359 74.1068 115.062 73.8764 114.753 73.6637H114.699C114.608 73.6196 114.53 73.5505 114.477 73.4644V73.4567ZM114.73 73.9703C121.514 78.5695 122.824 83.4369 123.691 85.1386C124.158 86.0738 123.629 85.5449 122.158 88.6493C121.322 86.4187 119.452 84.717 117.696 83.3373C113.794 71.1571 115.466 76.3159 114.73 73.9779V73.9703ZM117.029 93.4401C114.446 93.5551 113.503 94.2067 113.028 93.7468C110.567 91.4472 108.329 89.2396 107.072 86.1351C106.589 84.9317 106.535 83.1533 107.838 82.2258L107.746 82.0802C107.232 82.4357 106.835 82.9356 106.604 83.5167C106.374 84.0978 106.32 84.7342 106.451 85.3456C106.716 86.5922 107.238 87.7697 107.984 88.8026C109.22 90.7443 110.834 92.4178 112.729 93.7238C113.059 94.0457 112.997 93.992 113.074 94.0457C112.001 94.3063 112.054 94.3063 111.863 94.2603C111.671 94.2143 109.939 92.8116 110.031 92.8882C107.689 91.0098 105.465 88.99 103.369 86.8403C100.579 83.9735 97.8733 80.3861 98.2872 76.2009C98.4173 74.4807 99.085 72.8449 100.196 71.525C100.411 71.1628 100.728 70.8721 101.108 70.6895C104.121 78.1862 111.541 86.8786 116.991 93.4478L117.029 93.4401ZM96.5011 62.8556C95.4816 66.2973 96.7541 69.0415 98.8774 70.1683C99.4576 70.4494 100.095 70.5912 100.74 70.5822C100.119 70.5822 95.9492 75.5493 98.5938 81.1757C100.847 86.4034 106.259 90.2284 110.414 93.5935C110.92 93.9154 111.027 94.084 111.564 94.4136C110.298 94.7846 109.079 95.2989 107.93 95.9467C101.553 91.8841 95.1367 84.9623 93.1283 77.7263C92.4753 75.15 92.4404 72.4559 93.0265 69.8636C93.6127 67.2713 94.8032 64.8543 96.5011 62.8096V62.8556ZM111.15 96.261C111.466 96.283 111.763 96.4192 111.985 96.6442L112.821 97.7327C112.924 97.8666 112.999 98.0196 113.042 98.1827C113.086 98.3458 113.097 98.5159 113.074 98.6832C113.025 98.883 112.923 99.0654 112.777 99.2102C112.631 99.355 112.447 99.4565 112.247 99.5033C112.047 99.5502 111.838 99.5406 111.643 99.4757C111.448 99.4107 111.274 99.293 111.142 99.1355L110.307 98.047C110.174 97.8876 110.089 97.6935 110.063 97.4876C110.036 97.2817 110.069 97.0725 110.158 96.8847C110.247 96.697 110.387 96.5385 110.563 96.428C110.739 96.3175 110.942 96.2595 111.15 96.261ZM90.453 71.732C91.0433 68.6659 92.8294 65.7147 96.1255 62.9476C95.461 63.681 94.8871 64.4917 94.4161 65.3621C89.3109 74.3459 93.2663 83.4139 100.709 90.5887C102.813 92.7045 105.184 94.5367 107.762 96.0387C106.847 96.5755 105.964 97.1641 105.117 97.8017C103.037 96.4714 101.118 94.9049 99.3987 93.1335C95.7338 89.5446 92.9137 85.1849 91.1429 80.3708C90.0809 77.6082 89.8413 74.5972 90.453 71.7013V71.732ZM75.122 56.524C78.0733 54.991 76.5938 57.2446 86.9729 76.0016C86.8579 75.7793 83.8301 77.1897 83.2398 77.4963C81.8983 74.7828 74.8078 60.4717 74.6468 60.2034C74.4858 59.9351 74.3862 59.8354 74.0565 59.8891C73.2306 60.1873 72.4411 60.5781 71.7032 61.0542L49.228 72.1536C49.3595 71.8566 49.508 71.5674 49.6726 71.2874C50.0099 70.7125 50.9757 68.4972 51.0524 68.3133C51.7883 68.0373 47.074 71.1724 75.122 56.524ZM92.9597 52.5764C92.9478 52.493 92.9103 52.4153 92.8523 52.3541C92.791 52.2621 92.699 52.2698 91.7409 52.2698C91.4112 52.2698 90.9743 52.2698 90.9743 51.8712C90.9673 51.7822 90.9787 51.6928 91.0077 51.6084C91.0367 51.524 91.0827 51.4465 91.1429 51.3806C91.1716 51.5913 91.2796 51.7832 91.4448 51.917C91.61 52.0509 91.8201 52.1168 92.0321 52.1012C92.3309 52.0563 92.6161 51.9464 92.8677 51.7792C92.745 51.8482 92.952 52.3618 93.0287 52.4384C93.1053 52.5151 93.0057 52.7297 92.975 52.5764H92.9597ZM93.9025 51.2963C93.9025 51.4419 93.6189 51.5109 93.6189 51.4956L93.4349 50.9667C93.6266 50.9897 93.9408 51.1277 93.9179 51.2963H93.9025ZM93.2356 50.1848C93.2817 50.1877 93.3266 50.1998 93.3679 50.2204C93.4092 50.2409 93.4459 50.2696 93.476 50.3046C93.506 50.3396 93.5287 50.3803 93.5427 50.4243C93.5567 50.4682 93.5618 50.5145 93.5576 50.5604C93.5576 50.6831 93.4962 50.7597 93.2356 50.6677C93.2177 50.5069 93.2229 50.3442 93.251 50.1848H93.2356ZM92.722 50.6984C92.5841 50.6984 92.2851 50.6524 92.2621 50.6984C92.2391 50.7444 92.8447 51.0893 93.0287 51.2043C93.1835 51.3245 93.3078 51.4794 93.3917 51.6565C93.4756 51.8336 93.5167 52.0279 93.5116 52.2238C93.4804 52.2529 93.4393 52.2691 93.3966 52.2691C93.3539 52.2691 93.3128 52.2529 93.2816 52.2238C93.0976 52.0552 93.1053 51.8252 93.0517 51.6106C92.998 51.3959 92.883 51.304 92.6914 51.4419C92.5623 51.5665 92.4047 51.6575 92.2323 51.7069C92.0599 51.7564 91.878 51.7628 91.7025 51.7256C91.1199 51.4956 91.1966 50.7521 91.4956 50.2768C91.5799 50.1848 91.7792 50.1925 91.8942 50.1772H92.6607C92.7157 50.3457 92.7467 50.5212 92.7527 50.6984H92.722ZM92.653 49.8246C92.313 49.7927 91.9699 49.8239 91.6412 49.9165C91.9248 49.7019 91.7332 49.3416 91.4572 49.15C90.752 48.4755 90.1388 47.7089 89.3952 47.0957C85.9917 44.1522 82.9255 43.1097 78.7785 42.4965C76.9924 40.1969 75.4133 37.8973 72.4085 35.9197C72.2168 35.7894 71.7952 35.4521 71.5193 35.2911C71.8674 35.2831 72.2057 35.1739 72.4928 34.9769C72.6037 35.0781 72.74 35.1473 72.8872 35.177C73.0344 35.2067 73.1869 35.1958 73.3283 35.1455C73.4514 35.0765 73.553 34.9748 73.622 34.8517C73.6909 34.7287 73.7246 34.5889 73.7193 34.448C73.9002 34.4628 74.0815 34.4234 74.2399 34.3346C74.3984 34.2458 74.5267 34.1118 74.6085 33.9497C74.7771 34.0877 74.9611 33.9497 75.0531 33.7657C75.145 33.5818 75.0531 33.3441 75.1374 33.1065C75.2087 32.8689 75.3259 32.6476 75.4823 32.455C75.9537 31.6971 76.3466 30.8932 76.6551 30.0557C76.815 29.7489 76.909 29.4121 76.9311 29.0669C77.9623 29.8142 79.0889 30.42 80.2809 30.8683C80.8712 31.0982 81.4231 31.4048 82.0287 31.6348C84.7054 32.6268 87.4732 33.3534 90.2921 33.8041C90.6482 33.9519 91.0264 34.04 91.4112 34.0647C91.6182 39.1698 92.5994 48.8894 92.653 49.8246ZM70.7527 29.6801C70.8073 29.546 70.815 29.3974 70.7747 29.2583C70.7343 29.1192 70.6483 28.9978 70.5304 28.9136C70.86 28.4384 70.6914 28.4767 71.2586 27.5262C71.4349 27.1812 71.6266 26.8516 71.8335 26.5297C72.0405 26.2078 72.3088 26.0391 72.7534 26.2691L75.4287 27.7178C75.6663 27.8481 76.6705 28.2007 76.7471 28.4843C76.7471 29.6648 75.3367 32.3936 74.3708 32.9685C74.1105 33.0918 73.8224 33.1446 73.5353 33.1219C73.7346 33.1219 73.5353 32.2863 73.5353 32.2097C73.4917 32.0718 73.4353 31.9384 73.3666 31.8111C73.4243 31.8378 73.4871 31.8517 73.5506 31.8517C73.6142 31.8517 73.677 31.8378 73.7346 31.8111C74.1792 31.6118 74.2712 31.1442 74.3402 30.7149C74.4576 30.2107 74.4576 29.6862 74.3402 29.1819C74.0259 30.8989 73.9876 31.4815 73.6349 31.6041C73.2823 31.7268 73.037 31.4278 72.8224 31.2285C72.3744 30.8769 71.8487 30.6377 71.2893 30.531H70.814C70.9071 30.3785 70.9574 30.2037 70.9597 30.0251C70.998 29.9561 70.768 29.6035 70.7527 29.6801ZM70.2391 34.7852C70.2391 34.8849 70.2391 34.7852 70.1471 35.2145C70.0012 35.1636 69.874 35.0697 69.7824 34.9452C69.6907 34.8207 69.6388 34.6714 69.6335 34.5169L70.2391 34.7852ZM69.6412 34.3253V33.988C70.0781 34.4326 70.0781 34.149 70.0475 34.5246C69.9029 34.4786 69.766 34.4115 69.6412 34.3253ZM70.1548 21.5702C69.5139 21.0636 68.9235 20.4963 68.3917 19.8762C68.3917 19.6462 68.6064 18.8797 68.7214 18.2052C69.0433 16.9864 69.6336 15.9056 70.0092 14.7098C70.8305 15.4711 71.6902 16.19 72.5848 16.8637C72.4161 17.523 72.1785 18.1668 72.0482 18.8337C71.9945 19.0714 71.8949 21.1333 71.8106 21.1333C71.5935 21.2443 71.4265 21.4332 71.343 21.6622C70.9646 21.5153 70.5513 21.4833 70.1548 21.5702ZM68.3227 20.3285C68.3611 20.4588 69.4879 21.4553 69.8558 21.7849C69.2886 22.3521 69.4113 22.0532 68.5527 22.4441C68.6294 22.3828 68.2614 20.6964 68.3227 20.3285ZM86.9269 23.6015C86.9269 24.782 86.5283 27.7178 87.6935 30.5846C86.7736 30.3547 85.8231 30.1171 84.9645 29.8794C84.5594 28.1565 84.3638 26.3909 84.382 24.621C84.395 24.1333 84.4385 23.6469 84.5123 23.1646C84.4816 22.904 84.3206 23.157 86.9269 23.6015ZM76.2489 21.7312C76.2853 21.0029 76.4733 20.2902 76.8008 19.6386C77.6 19.9948 78.3691 20.4152 79.1004 20.8957C79.3611 21.049 80.051 21.2866 80.1506 21.5932C80.2503 21.8998 80.0126 22.3138 79.9436 22.674C79.6296 24.5198 79.7424 26.413 80.2733 28.2084L78.5945 27.4879C78.8475 27.5952 78.9011 26.7213 78.8398 26.5987L79.0468 26.3841C79.0936 26.2719 79.1162 26.1511 79.1129 26.0296C79.1096 25.9082 79.0805 25.7888 79.0276 25.6793C78.9747 25.5699 78.8992 25.473 78.806 25.3949C78.7129 25.3169 78.6042 25.2595 78.4872 25.2266C78.5698 25.1528 78.624 25.0525 78.6405 24.943C78.694 24.8031 78.7106 24.6517 78.6887 24.5036C78.6669 24.3554 78.6073 24.2153 78.5157 24.0968C78.4241 23.9783 78.3036 23.8853 78.1657 23.8267C78.0278 23.7682 77.8772 23.7461 77.7283 23.7625C77.7771 23.599 77.7791 23.4251 77.734 23.2605C77.6888 23.096 77.5985 22.9473 77.4731 22.8316C77.3478 22.7158 77.1924 22.6375 77.0248 22.6056C76.8572 22.5737 76.684 22.5894 76.5248 22.651C76.5337 22.3228 76.437 22.0004 76.2489 21.7312ZM75.8349 21.6392C75.7123 21.5013 74.7694 21.3173 74.8768 21.5856C74.8025 21.3817 74.6714 21.2035 74.4989 21.0719C74.3264 20.9403 74.1198 20.8609 73.9036 20.8432C73.6874 20.8254 73.4706 20.8701 73.279 20.9718C73.0874 21.0734 72.9289 21.2279 72.8224 21.4169C72.6691 21.1563 72.3011 21.2866 72.1402 21.0873C71.9792 20.888 72.1402 20.1292 72.1402 19.8455C72.1972 18.8647 72.4282 17.9017 72.8224 17.0017C74.0029 17.8909 75.214 18.5348 76.3025 19.4316C76.2311 19.7515 76.19 20.0775 76.1799 20.4051C76.1492 20.5431 75.8043 21.6009 75.8349 21.6392ZM84.5276 29.7568C84.3513 29.7568 82.9255 29.1972 82.5729 29.0669C82.2203 28.9366 80.6335 28.5303 80.5875 28.3004C80.5788 28.2035 80.5788 28.106 80.5875 28.0091C80.1667 26.3252 80.0808 24.575 80.3346 22.858L80.5722 21.7006C81.4121 22.0481 82.2692 22.3526 83.1402 22.6127C83.5335 22.6747 83.9111 22.8127 84.2517 23.019C83.7085 25.2462 83.8042 27.5814 84.5276 29.7568ZM77.6287 28.768C78.1959 28.768 78.3952 28.2391 78.4642 27.8021C79.0524 28.1253 79.6745 28.3823 80.3193 28.5687C80.4894 29.419 80.8058 30.2334 81.2544 30.9756C80.5002 30.6969 79.7608 30.3796 79.0391 30.0251C76.9464 28.9749 77.0308 28.9213 76.9924 28.6377C77.2032 28.7182 77.4261 28.7623 77.6517 28.768H77.6287ZM80.6949 28.8293C82.7722 29.7261 84.6273 30.3087 84.5276 30.2857C84.8085 30.6781 85.0646 31.0877 85.2942 31.5121C85.6134 31.9793 86.007 32.391 86.4593 32.7309C84.9262 32.0334 84.8802 32.432 81.7834 31.1289C81.2705 30.4467 80.9098 29.6626 80.7255 28.8293H80.6949ZM84.9952 30.255C85.1792 30.3164 86.2064 30.5233 87.6781 30.7686C88.0032 31.8278 88.6388 32.7651 89.5025 33.4591C88.6328 33.2937 87.7749 33.071 86.9346 32.7922C86.0639 32.1514 85.4002 31.2692 85.0259 30.255H84.9952ZM84.037 22.5207C83.6917 22.4998 83.351 22.4301 83.0252 22.3138C82.1593 22.0781 81.3155 21.7678 80.5032 21.3863C80.9004 19.757 81.6399 18.231 82.6726 16.9097C82.8565 16.8331 83.6614 17.2853 83.8301 17.362C84.3726 17.5826 84.9001 17.8387 85.4091 18.1285C84.859 19.5591 84.4107 21.0269 84.0677 22.5207H84.037ZM81.1548 18.7801C80.8175 19.3933 80.143 20.4511 80.2426 21.187C79.5393 20.8874 78.8666 20.5203 78.2342 20.0908C77.7436 19.8226 77.2224 19.5696 76.7471 19.2553C77.3054 17.6702 78.1269 16.1905 79.1771 14.8784C79.1771 14.8784 82.2433 16.5035 82.4349 16.7028C82.4733 16.7411 81.3004 18.5808 81.1855 18.7801H81.1548ZM76.4942 19.217C72.8454 16.7871 73.106 16.9941 72.991 16.8101C72.8761 16.6261 73.2593 15.9746 73.3743 15.7369C73.9834 14.549 74.8377 13.5039 75.8809 12.6708C75.8809 12.6708 78.7555 14.5871 78.9471 14.8094C78.0733 15.8673 76.7241 17.7682 76.5248 19.217H76.4942ZM73.474 15.0164C73.3973 15.139 72.6384 16.4575 72.7687 16.5495C71.8029 16.0436 71.0977 15.1314 70.1778 14.5488C70.3234 14.2959 70.4691 14.0429 70.5994 13.7823C71.3893 12.5372 72.4344 11.4739 73.6656 10.6625C74.2856 11.2828 74.9436 11.8639 75.6356 12.4025C74.7952 13.1592 74.0765 14.0408 73.5046 15.0164H73.474ZM70.0552 14.1579C69.8175 13.7593 67.4259 11.7357 67.6405 11.3601C67.7718 11.1981 67.8778 11.0172 67.9548 10.8235C68.7508 9.62906 69.7713 8.60073 70.9597 7.79569C71.2126 7.63471 73.3207 10.2333 73.5889 10.4709C72.0852 11.3301 70.867 12.6122 70.0858 14.1579H70.0552ZM70.2238 7.94133C69.246 8.62658 68.406 9.48993 67.7478 10.4862C67.5508 10.7303 67.4119 11.016 67.3416 11.3217C66.6849 10.4601 66.0857 9.5562 65.5478 8.61587C65.5186 8.58022 65.5026 8.53552 65.5026 8.4894C65.5026 8.44327 65.5186 8.39857 65.5478 8.36292C66.202 7.34486 67.0545 6.46894 68.0545 5.78738C68.2078 5.68006 68.2998 5.48076 68.5067 5.49609C68.6354 5.51641 68.7567 5.56917 68.8593 5.6494C69.6036 6.14102 70.2615 6.75226 70.8064 7.45841C70.6071 7.51207 70.4538 7.78035 70.2545 7.94133H70.2238ZM66.6133 10.6625C66.9353 11.0764 66.9736 11.2451 67.2036 11.5364C66.4468 13.1221 65.9301 14.8116 65.6705 16.5495C65.6705 16.3578 65.2795 16.1049 64.605 14.8784C64.2552 14.382 63.9741 13.8405 63.7694 13.2687C63.9892 11.868 64.4702 10.5211 65.1876 9.29809C65.2519 9.15688 65.3316 9.0232 65.4252 8.89949C65.77 9.52015 66.1675 10.11 66.6133 10.6625ZM67.4565 11.7816C68.936 13.79 69.7562 14.0812 69.7562 14.5948C69.0322 16.2305 68.5171 17.9508 68.2231 19.7152C68.2231 19.5006 67.2343 18.5884 67.1039 18.4428C66.6429 17.9129 66.2154 17.3548 65.8238 16.7718C66.1602 15.0474 66.7086 13.3713 67.4565 11.7816ZM71.1896 31.2055H71.7952C71.8194 31.2964 71.8717 31.3772 71.9447 31.4364C72.0177 31.4956 72.1076 31.5302 72.2015 31.5351C72.3542 31.526 72.5074 31.5442 72.6538 31.5888C72.6341 31.6313 72.629 31.679 72.639 31.7247C72.649 31.7704 72.6737 31.8116 72.7093 31.842C72.7449 31.8723 72.7894 31.8903 72.8361 31.893C72.8828 31.8957 72.9292 31.8831 72.968 31.8571C72.8992 31.9851 72.8476 32.1217 72.8147 32.2633C72.7762 32.3725 72.7762 32.4915 72.8147 32.6006C72.8281 32.6245 72.8463 32.6454 72.8681 32.662C72.8899 32.6785 72.9149 32.6904 72.9415 32.6969C72.9681 32.7034 72.9958 32.7043 73.0228 32.6996C73.0498 32.6949 73.0755 32.6847 73.0984 32.6696C73.0212 32.8318 72.9919 33.0126 73.014 33.1908C72.968 32.9915 72.4238 33.1908 72.3395 33.1908C72.3 33.0635 72.2205 32.9522 72.1128 32.8735C72.0051 32.7948 71.8749 32.7529 71.7416 32.7539H71.6036C71.6128 32.4957 71.5844 32.2375 71.5193 31.9874C71.4049 31.7888 71.2445 31.6206 71.0517 31.4968C71.1057 31.4067 71.1446 31.3083 71.1666 31.2055H71.1896ZM92.8523 16.7948C94.3854 18.3278 94.7381 20.865 94.9604 22.927C95.29 25.9931 94.8837 30.5923 92.8447 32.9532C92.5883 33.3017 92.2202 33.5519 91.8018 33.6621C91.3834 33.7722 90.9398 33.7358 90.545 33.5588C87.4788 31.6808 87.0266 27.6488 87.1722 24.0538C87.1265 22.1215 87.5251 20.2044 88.3374 18.4505C88.5983 17.8429 88.9911 17.3009 89.4872 16.8637C89.9297 16.4268 90.5228 16.1761 91.1445 16.1633C91.7662 16.1504 92.3692 16.3764 92.8294 16.7948H92.8523ZM89.7861 16.0282C87.8698 17.2163 86.9269 21.026 86.8426 23.3026C86.0388 23.0096 85.2169 22.7689 84.382 22.5821C84.6757 21.004 85.1382 19.462 85.7618 17.9829C86.5283 18.2665 86.8963 18.3278 87.7011 18.6268C87.7011 18.3508 87.9081 18.6268 85.8614 17.7606C86.2967 16.9565 86.9401 16.2841 87.7241 15.8136C88.4019 15.9448 89.0887 16.0242 89.7785 16.0512L89.7861 16.0282ZM84.9262 14.4952C85.7413 14.9755 86.5982 15.3808 87.4865 15.7063C87.2642 15.622 86.1374 16.6338 85.6698 17.6226V17.6686C85.6698 17.7989 85.5548 17.7299 85.4705 17.7299C84.6349 17.2777 83.7151 16.9634 82.8949 16.5188C83.4514 15.8328 84.0478 15.1801 84.6809 14.5642L84.5736 14.4338C84.428 14.5565 82.3353 16.3578 82.5729 16.5035L79.4147 14.7481C80.0017 13.9666 80.7594 13.3295 81.6301 12.8854C80.9196 13.0991 80.2669 13.4712 79.7213 13.9739C79.5987 14.0966 79.4301 14.5182 79.3381 14.5795C79.1158 14.7251 78.1576 13.8819 77.8663 13.6903C77.3067 13.2994 76.7471 12.9238 76.1952 12.4792C76.4334 12.2442 76.718 12.0615 77.0308 11.9426C77.3446 11.7582 77.6727 11.5993 78.0119 11.4674C78.3646 11.3447 79.545 10.9155 79.9053 11.1684C81.5165 12.3863 83.1898 13.5198 84.9186 14.5642L84.9262 14.4952ZM79.8977 10.8541C79.6217 10.6165 78.3646 10.9921 78.0349 11.0764C77.2932 11.2621 76.6019 11.6103 76.0112 12.0959C75.3087 11.5956 74.652 11.0338 74.0489 10.4172C73.4586 9.98796 76.7241 8.64653 77.9506 9.25209C78.661 9.72735 79.3121 10.2858 79.89 10.9155L79.8977 10.8541ZM77.8663 9.09112C76.8085 8.70019 74.7388 9.37474 73.7039 9.99563C71.1207 7.48141 71.2893 7.66538 71.2893 7.61938C72.3807 6.91682 73.6764 6.601 74.9687 6.72254C75.9837 7.46903 76.949 8.2807 77.8586 9.15244L77.8663 9.09112ZM71.7646 4.69124C72.7304 4.84454 73.8572 5.87169 74.6315 6.46192C74.0949 6.16298 73.2057 6.46192 72.6614 6.5999C72.0917 6.79716 71.5444 7.0541 71.0287 7.36643C70.4647 6.49165 69.6684 5.79099 68.729 5.34279C69.1634 5.07432 69.649 4.8994 70.1548 4.82921C70.6809 4.69934 71.2241 4.65278 71.7646 4.69124ZM66.69 4.71423C68.1197 4.13855 69.7054 4.07892 71.1743 4.5456C70.2356 4.60722 69.3209 4.86856 68.4914 5.31213C67.8961 4.99319 67.2347 4.81735 66.5597 4.79855L66.69 4.71423ZM66.0461 5.01318C66.7735 4.86961 67.5283 5.0036 68.1618 5.38878L68.3687 5.49609C67.8168 5.49609 67.0886 6.32395 66.6977 6.67655C66.5367 6.82219 65.1646 8.14062 65.3102 8.34759C65.1109 8.04864 64.9346 7.74203 64.7276 7.44308C64.5207 7.14413 64.398 6.9525 64.237 6.67655C64.6966 5.98387 65.3174 5.41307 66.0461 5.01318ZM62.6349 9.96497C62.6347 10.1259 62.658 10.286 62.7039 10.4402C62.8901 11.3729 63.1464 12.2902 63.4705 13.1844C63.2402 14.1647 63.2586 15.1871 63.5241 16.1585C62.6331 14.224 62.3242 12.072 62.6349 9.96497ZM63.1332 11.4367C62.9536 10.6831 62.8584 9.9118 62.8496 9.13711C62.9248 8.93166 63.0198 8.73399 63.1332 8.54689C63.4092 7.93951 63.7375 7.35731 64.1144 6.80686C64.329 7.18246 64.4977 7.57339 64.7046 7.95666C64.9116 8.33992 65.2412 8.56222 64.9806 9.06813C64.3632 10.2882 63.8849 11.5738 63.5548 12.9008C63.4572 12.4014 63.3162 11.9115 63.1332 11.4367ZM63.6775 13.8896C65.8008 17.7223 65.6552 15.8136 65.4405 18.3508C65.3619 18.808 65.4233 19.2783 65.6168 19.6999C64.8761 18.9405 64.3168 18.0234 63.9809 17.0171C63.6451 16.0109 63.5413 14.9417 63.6775 13.8896ZM67.7402 22.0762C67.0583 21.416 66.435 20.6979 65.8775 19.9299C65.533 19.3052 65.4477 18.5702 65.6398 17.8832C65.6567 17.6515 65.7004 17.4226 65.7701 17.201C65.8404 17.5129 65.991 17.8009 66.2071 18.0365C66.7484 18.7688 67.3455 19.4582 67.9931 20.0985C68.0288 20.1218 68.0557 20.1563 68.0696 20.1965C68.0834 20.2368 68.0835 20.2805 68.0698 20.3208C68.1013 21.0627 68.2066 21.7997 68.3841 22.5207C68.2082 22.323 67.9874 22.1705 67.7402 22.0762ZM64.9959 29.3735C65.0968 29.7659 65.2856 30.1302 65.5478 30.439C65.6607 30.5647 65.809 30.6532 65.9733 30.6929C66.1375 30.7326 66.3099 30.7216 66.4677 30.6613C66.8781 30.5572 67.2603 30.3634 67.5869 30.0941C67.7905 30.1188 67.9964 30.1188 68.2001 30.0941C68.4209 29.9712 68.614 29.8042 68.7673 29.6035C69.0268 29.3588 69.2489 29.0773 69.4266 28.768C69.1482 28.5411 68.9583 28.2237 68.89 27.8711C68.591 26.752 70.4231 26.1004 70.0092 28.6377C69.8712 29.4732 69.051 29.8334 69.051 30.6613C69.051 30.8529 69.051 30.8453 68.9207 31.0062C68.8378 31.0782 68.7714 31.1671 68.7258 31.2669C68.6803 31.3668 68.6568 31.4752 68.6568 31.585C68.6568 31.6947 68.6803 31.8031 68.7258 31.903C68.7714 32.0028 68.8378 32.0917 68.9207 32.1637C68.7781 32.2709 68.6691 32.4166 68.6067 32.5836C68.5442 32.7507 68.5308 32.9321 68.568 33.1065C68.6984 33.6431 69.1123 33.6508 69.4956 33.8731C69.446 34.1255 69.4229 34.3824 69.4266 34.6396C69.4642 34.8007 69.5394 34.9506 69.6459 35.0772C69.7525 35.2037 69.8875 35.3033 70.0398 35.3678C69.7997 36.0214 69.3199 36.5593 68.6979 36.8725C68.0759 37.1856 67.3581 37.2506 66.69 37.0542C65.7909 36.8829 64.9785 36.4064 64.3903 35.7051C64.0632 35.2412 63.8695 34.6965 63.8303 34.1303C63.7911 33.564 63.9079 32.9978 64.168 32.4933C64.4157 31.8583 64.6306 31.211 64.812 30.554C64.9346 30.1725 64.9967 29.7742 64.9959 29.3735ZM36.9709 17.8756C36.2806 17.954 35.5837 17.954 34.8935 17.8756C34.8092 17.8756 34.7019 17.8066 34.7019 17.7146C34.7019 17.6226 34.8015 17.569 34.8935 17.5383C35.4301 17.385 35.7674 17.5383 35.844 17.362C35.2592 17.1431 34.7053 16.8494 34.1959 16.4881C34.2082 16.4609 34.23 16.4391 34.2573 16.4268C34.6022 16.2429 35.0928 16.6261 35.3764 16.4268C35.1848 16.0436 34.9088 16.1049 34.3952 15.8596C34.2649 15.8596 34.2036 15.5606 34.5026 15.5913C34.894 15.6078 35.2766 15.7127 35.6217 15.8979C35.6217 15.507 35.0621 15.4533 35.0621 15.1314C35.2335 15.1464 35.399 15.2015 35.5451 15.2924C36.2688 15.6442 36.9567 16.0652 37.5994 16.5495C37.5381 16.4958 37.1702 17.155 37.1395 17.201C37.0167 17.4122 36.9581 17.6546 36.9709 17.8986V17.8756ZM47.5799 35.1762C49.3241 33.4394 51.3446 32.0043 53.559 30.9296C54.3503 31.9264 55.2559 32.8269 56.2573 33.6124L56.3569 33.4745C54.1805 31.7074 52.5794 29.3325 51.7576 26.6523C50.9911 24.1764 51.3743 23.6935 50.9297 23.6705C48.5714 23.6801 46.2209 23.3995 43.9311 22.835C41.9083 22.2407 40.0224 21.2535 38.3813 19.9299C37.784 19.5045 37.3747 18.8644 37.2392 18.1438C37.1318 16.1739 39.9604 15.4687 41.9918 15.3767C43.1339 15.323 44.2914 15.3767 45.4029 15.3077C50.8823 15.1366 56.2058 17.1462 60.205 20.8957C62.7653 23.3639 65.3792 27.8941 64.306 31.2592C64.0305 31.9872 63.8226 32.739 63.6851 33.5051C62.9186 37.698 69.4036 38.9168 70.4384 34.7392C71.0057 35.2988 71.3966 35.3525 72.1172 35.9657C76.2106 38.9552 77.6363 41.8066 78.6482 42.8108C80.5152 43.0155 82.3416 43.496 84.0677 44.2365C86.8956 45.4498 89.4001 47.3085 91.3806 49.6636C90.522 51.3806 90.3764 51.8252 89.9471 52.0628C89.4096 52.2628 88.8418 52.3691 88.2684 52.3771C84.5596 52.7599 80.8124 52.2879 77.3144 50.9973C73.8089 49.7057 70.5424 47.8406 67.6482 45.4783C68.92 43.9974 70.0396 42.3924 70.9903 40.6875H70.8447C67.968 45.3446 63.7632 49.0341 58.7715 51.281C58.1886 51.5836 57.5239 51.6911 56.8753 51.5876C56.2267 51.4842 55.6285 51.1751 55.1688 50.7061C52.6391 48.6211 50.6691 45.2714 49.251 42.3202C48.177 40.6305 47.3389 38.802 46.7597 36.8855C46.8004 36.2307 47.0946 35.6176 47.5799 35.1762ZM48.9674 72.8205L74.2635 60.372C74.924 61.8879 75.6661 63.3669 76.4865 64.8026C77.299 66.3356 82.6189 77.2357 82.8949 77.7723C81.6216 78.454 80.4109 79.2466 79.2767 80.1408C79.0071 79.4451 78.618 78.8017 78.1269 78.2398C78.301 78.9898 78.6157 79.6999 79.0544 80.3325C78.2546 80.9546 77.487 81.6173 76.7548 82.3178C76.4788 82.3178 76.5555 81.3673 75.2217 79.7959C75.4975 80.7959 75.9157 81.7511 76.4635 82.6321C75.7056 83.368 75.0012 84.1569 74.3555 84.993C73.7214 83.6934 72.9912 82.4431 72.1708 81.2523C72.7183 82.6812 73.3611 84.0718 74.0949 85.4146C74.0949 85.4912 72.6461 87.7678 72.5618 87.8445C73.7806 87.9901 75.145 87.7602 77.1611 88.8256C78.2956 89.3469 77.7053 90.8339 76.8391 91.3705C75.9922 91.7395 75.0426 91.7992 74.1562 91.5391L74.0029 91.2785C74.8273 91.3436 75.6568 91.2841 76.4635 91.1022C77.3067 90.765 77.9966 89.4925 76.4635 88.8946C74.6416 88.3275 72.7361 88.076 70.8294 88.1511C69.6571 88.1973 68.511 88.512 67.4795 89.0709C66.8313 87.5387 66.0273 86.0772 65.0802 84.7094C65.6721 86.2723 66.3792 87.7891 67.1959 89.2472C66.4379 89.7646 65.6091 90.1699 64.7353 90.4507C64.0862 88.915 63.2796 87.4507 62.3283 86.0815C62.9103 87.5853 63.5994 89.0454 64.3903 90.4507H62.9952C62.7792 90.4124 62.5568 90.4591 62.3743 90.581C62.2747 90.3204 62.0677 89.8911 61.4085 88.473C61.2015 88.0284 60.9792 87.5225 60.389 87.3692C59.7583 87.4109 59.1559 87.6465 58.6642 88.0438C57.982 88.3887 57.729 88.887 57.9513 89.4925C58.4189 90.7113 59.0245 91.9147 58.9938 91.8381C59.2085 92.3133 59.4844 92.8959 60.0287 92.9726C60.5729 93.0492 62.382 92.3593 62.543 91.4395C63.2389 92.0573 64.1512 92.3743 65.0802 92.321C65.7538 92.2353 66.4183 92.0891 67.0656 91.8841C66.6593 92.1064 66.943 91.9684 66.2224 92.367C65.6705 92.6813 65.5478 93.2562 65.8545 93.9844C65.8545 94.061 66.621 95.8164 66.8663 96.1843C67.1653 96.7132 67.4489 97.2191 68.1004 97.2191C68.5221 97.2191 68.5834 97.1195 70.0705 96.3683C70.6991 95.9237 70.5227 95.3795 70.2698 94.7662C69.9886 94.0743 69.6687 93.3987 69.3116 92.7426C69.074 92.2674 68.821 91.6771 68.0238 91.5851C68.8406 91.3359 69.6851 91.1892 70.5381 91.1482C72.0712 94.429 72.0712 94.5286 72.5081 95.0959L72.5694 95.0269C72.6997 94.8966 72.5694 94.5593 72.4238 94.4213C72.2782 94.2833 70.8294 91.2095 70.7834 91.1329C71.5509 91.1219 72.3184 91.1501 73.083 91.2172C73.3408 91.2094 73.5985 91.2352 73.8496 91.2939C74.1931 92.1655 74.6192 93.0023 75.122 93.7928L75.191 93.7314C75.3213 93.6011 75.191 93.2638 75.0377 93.1182C75.6947 93.9162 76.4206 94.655 77.2071 95.3258C77.385 95.5594 77.6184 95.7448 77.8861 95.8652C78.1538 95.9857 78.4474 96.0374 78.7402 96.0157C81.0749 95.3775 83.534 95.3458 85.8844 95.9237C86.4122 96.0705 86.8895 96.3596 87.2642 96.7592C87.3626 96.927 87.4232 97.1142 87.4416 97.3078C87.4601 97.5014 87.436 97.6967 87.371 97.88C87.306 98.0633 87.2017 98.2302 87.0654 98.369C86.9291 98.5077 86.7641 98.615 86.582 98.6832C85.0489 99.3424 84.0754 98.7292 81.5611 98.8749C82.7969 99.4895 83.9903 100.186 85.1332 100.96C85.0565 100.96 31.0454 127.535 30.0259 127.98C29.1291 125.711 12.265 92.1524 11.9583 91.3628C15.0245 89.8298 17.3242 88.565 38.5576 77.8106C38.3883 78.1261 38.2373 78.4512 38.1054 78.7841C38.0528 78.8791 38.0197 78.9835 38.0078 79.0914C37.996 79.1993 38.0057 79.3085 38.0364 79.4126C38.1049 79.5115 38.1936 79.5948 38.2967 79.6569C38.3997 79.719 38.5148 79.7585 38.6343 79.7729C38.366 79.7039 37.7374 82.1645 37.7221 82.3868C37.3848 81.8272 37.1778 81.4899 36.4496 81.6202C35.6776 81.7932 35.0052 82.2644 34.5792 82.931C34.1346 84.1728 35.1081 85.3456 35.7214 86.2731C36.0357 86.7713 36.2963 87.2236 36.9632 87.1086C37.4365 87.002 37.8948 86.8372 38.3277 86.618C38.508 86.5491 38.6743 86.4477 38.8182 86.3191C39.3625 85.7442 39.1479 85.1156 38.8182 84.4947L38.6956 84.2648C38.4733 83.8049 38.1667 83.4293 37.929 82.977C38.7269 83.6209 39.7171 83.9797 40.7423 83.9965C40.781 83.9948 40.8193 84.0049 40.8521 84.0254C40.8849 84.046 40.9108 84.076 40.9263 84.1115C41.0336 84.2724 41.3938 85.2153 41.6085 85.2153C41.6928 85.2153 41.7005 85.0926 41.6698 85.0236L41.3249 84.1805C41.4015 84.1805 41.3249 84.1805 42.766 84.2571C44.1151 84.3414 44.6747 83.6056 45.7785 83.161C46.2001 82.977 46.821 82.6934 46.8977 82.1798C46.8859 81.6777 46.7049 81.1942 46.3841 80.8077C45.5715 79.5813 45.4872 78.8761 44.92 78.3165C46.564 76.7211 47.9317 74.8638 48.9674 72.8205ZM68.4454 91.9837C68.5144 92.0604 71.182 95.8164 69.5646 96.2763C68.568 96.8052 68.0928 96.9125 67.7325 96.6979C67.3429 96.3023 67.04 95.8297 66.8433 95.3105C66.5827 94.4903 66.3604 94.36 66.0768 93.5858C65.6398 92.6736 67.9778 91.7078 68.4454 91.9837ZM60.0823 92.4743C59.5917 92.3363 59.4001 91.7078 59.1395 91.1022C58.9402 90.65 57.936 89.4235 58.1736 88.657C58.2137 88.5352 58.2797 88.4234 58.367 88.3295C58.4543 88.2356 58.561 88.1616 58.6796 88.1128C59.1508 87.7724 59.7091 87.573 60.2893 87.5379C60.6726 87.5915 62.198 90.604 62.2363 90.6653C62.8573 91.7231 60.9102 92.4667 60.0823 92.505V92.4743ZM38.8872 85.9511C38.1743 86.6334 36.7256 87.4152 36.097 86.3267C34.9395 84.2954 34.3186 83.6439 34.7939 82.977C35.2253 82.5787 35.7541 82.3011 36.327 82.1721C37.3695 81.7812 37.4538 82.8467 38.504 84.5561C38.8259 85.1999 39.0482 85.5755 38.8872 85.9818V85.9511ZM44.552 79.0524C44.6594 78.9374 44.9276 78.6078 44.9736 78.5465C45.1269 78.7304 45.8168 80.2712 45.9165 80.4934C46.2464 80.9414 46.4454 81.4721 46.4914 82.0265C46.4224 82.4174 46.1311 82.5861 45.7785 82.793C45.4412 82.999 45.074 83.1516 44.69 83.2453C44.6771 83.0968 44.6346 82.9524 44.5648 82.8208C44.495 82.6891 44.3994 82.5728 44.2837 82.4788C44.1458 82.3561 43.7778 82.2335 43.6935 82.1032L42.9959 80.8384C43.5583 80.2935 44.0785 79.7066 44.552 79.083V79.0524ZM41.9611 81.2523C42.083 81.2948 42.2136 81.3059 42.341 81.2845C42.4683 81.263 42.5881 81.2098 42.6893 81.1297C42.8426 81.4439 42.9653 81.4363 43.0573 81.8962C41.8614 81.6662 41.9611 81.3136 41.9611 81.2523ZM41.6698 81.0453V81.2293C41.6647 81.4044 41.7197 81.576 41.8257 81.7154C41.9317 81.8549 42.0823 81.9539 42.2524 81.9958C42.9689 82.1722 43.6419 82.493 44.2301 82.9387C44.92 83.7052 43.3945 83.6132 43.0496 83.6132C41.1869 83.6132 40.221 83.7359 38.8566 83.092C38.3353 82.839 38.412 82.4788 38.5423 81.9575C38.6998 81.3265 38.8996 80.7068 39.1402 80.1025C39.6844 80.3555 40.3054 80.4475 40.8496 80.7234C41.104 80.869 41.3814 80.9701 41.6698 81.0223V81.0453ZM28.3625 134.227H28.3012C27.6989 133.665 27.2503 132.958 26.998 132.173C26.9597 132.096 8.75415 94.9349 7.30537 92.1984C7.12454 91.9486 7.01239 91.6557 6.98011 91.3491C6.94782 91.0424 6.99654 90.7326 7.1214 90.4507C7.4388 89.9901 7.89555 89.6436 8.42454 89.4619C10.1953 88.6953 37.9214 74.9898 39.9067 74.0393C39.5005 75.3117 39.1402 76.1702 38.7186 77.4427C36.8865 78.3242 11.5444 91.1329 11.3374 91.1329C11.3374 91.2172 29.5123 128.172 29.5966 128.325C29.681 128.478 30.0872 128.325 30.1639 128.325C30.2405 128.325 85.1869 101.289 85.6161 101.044C85.6928 101.044 87.9771 102.577 88.1304 102.654C88.5156 102.917 88.9297 103.136 89.3645 103.305C90.6162 102.801 91.9367 102.488 93.2816 102.378C94.7151 102.317 97.1144 102.57 96.9764 104.011C96.894 104.42 96.6581 104.782 96.3172 105.022C95.9032 105.367 89.8551 108.28 89.7785 108.319C90.5529 107.347 91.5351 106.561 92.653 106.019C93.5422 105.574 94.5464 105.49 95.9569 104.486C96.5548 104.103 96.5241 103.551 96.1408 103.305C94.0175 101.995 89.7248 102.6 87.4252 105.827C27.9179 135.155 30.6622 133.806 30.5088 133.875C30.0182 134.143 29.1291 134.672 28.3625 134.227ZM95.6962 106.701C94.6001 107.253 90.0621 109.445 88.8816 110.036C89.0299 109.555 89.2468 109.098 89.5255 108.679C92.5917 107.245 93.7109 106.686 94.8914 106.019C94.9834 106.096 95.5506 106.609 95.6809 106.701H95.6962ZM29.6273 146.561C29.7116 145.097 30.0796 135.239 30.0796 135.239C30.049 135.059 30.049 134.875 30.0796 134.695C30.1332 134.473 30.3172 134.427 30.8461 134.166L87.1032 106.448L86.444 107.767C82.7262 109.576 32.9081 134.319 32.6245 134.319C31.0071 135.032 31.6357 134.595 31.513 136.512V137.086C31.513 137.562 31.4287 138.029 31.4364 138.504C31.4364 138.65 83.9604 112.734 84.037 112.695C84.0106 112.754 83.9969 112.818 83.9969 112.883C83.9969 112.948 84.0106 113.012 84.037 113.071C84.221 113.631 85.2635 113.623 85.7158 113.631C86.3987 113.652 87.0761 113.502 87.6858 113.194C88.713 112.174 88.667 111.17 88.8816 110.426C90.476 109.622 90.0084 109.829 96.5931 106.594C96.6774 106.594 99.0537 107.583 99.391 107.682C99.3525 108.006 99.3525 108.332 99.391 108.656C99.4282 108.99 99.538 109.312 99.713 109.599C100.089 110.202 100.56 110.74 101.108 111.193C101.039 111.216 31.0378 145.725 29.612 146.53L29.6273 146.561ZM33.9047 137.301C33.9208 136.98 33.8976 136.658 33.8357 136.343C33.8279 136.313 33.8279 136.281 33.8357 136.251C33.7667 136.151 85.4628 110.695 85.3708 110.748C85.1373 111.264 84.8357 111.746 84.474 112.182L33.9047 137.301ZM33.7513 136.052L33.6594 135.216C33.6134 135.024 29.8266 136.895 85.8231 109.507C85.7234 109.864 85.5819 110.209 85.4015 110.534C85.3095 110.541 34.15 135.776 33.7284 136.021L33.7513 136.052ZM31.789 136.052C32.0803 135.906 33.1764 135.346 33.4141 135.201V136.19C32.7932 136.458 31.6817 136.956 31.5897 136.956V136.082C31.6676 136.07 31.7445 136.052 31.8196 136.029L31.789 136.052ZM31.8733 135.024C32.0803 134.856 32.9618 134.534 33.3221 134.335L33.3757 135.017C33.3757 135.093 33.4294 135.017 31.789 135.898C31.7736 135.185 31.7277 135.101 31.858 134.978L31.8733 135.024ZM31.789 137.109C32.3892 136.864 32.9752 136.585 33.5444 136.274C33.5904 136.642 33.6287 137.01 33.6594 137.378C33.6057 137.378 31.6127 138.344 31.582 138.367V137.171C31.6433 137.048 31.697 137.071 31.7736 137.063L31.789 137.109ZM33.6747 134.863V134.143C33.8893 134.143 84.4356 109.223 86.4287 108.28C86.2447 108.763 86.1987 108.878 86.122 109.047C78.4872 112.473 41.3095 131.115 33.6594 134.817L33.6747 134.863ZM121.268 123.526C121.015 124.201 121.935 124.837 122.487 125.198C121.836 125.397 120.816 125.726 120.601 126.386C120.525 126.746 120.87 127.152 121.146 127.451C121.33 127.65 122.679 129.321 122.61 129.252C120.778 128.662 115.397 126.47 115.473 126.501C114.912 126.322 114.391 126.036 113.94 125.657C113.273 124.73 114.914 123.626 115.948 122.415C116.485 121.855 116.508 121.648 117.045 121.074C117.489 120.391 118.486 121.35 123.139 121.932C122.648 122.338 122.043 122.315 121.253 123.48L121.268 123.526ZM129.003 122.568C128.466 122.568 112.76 119.226 111.725 118.736C111.602 118.682 111.602 118.682 111.602 118.567C111.64 118.283 114.768 109.07 115.611 106.969C115.736 106.584 115.935 106.227 116.198 105.919C116.461 105.611 116.783 105.359 117.144 105.176C118.174 104.665 119.284 104.336 120.425 104.202C122.089 103.875 123.771 103.643 125.461 103.505C126.19 103.505 126.611 104.379 127.056 105.038C128.587 107.551 129.599 110.346 130.032 113.257C130.465 116.167 130.311 119.136 129.578 121.986C129.455 122.446 129.225 122.522 128.988 122.522L129.003 122.568ZM137.435 119.686C139.796 120.744 139.903 122.829 137.987 124.492C137.237 125.415 136.414 126.276 135.526 127.068C135.679 126.419 135.884 125.783 136.139 125.167C136.515 124.27 136.461 123.825 135.373 123.825C134.658 123.866 133.943 123.738 133.288 123.45L133.51 123.212C133.939 122.76 134.476 122.193 134.407 121.541C134.338 120.89 133.571 120.522 132.046 120.307C133.939 117.747 133.686 117.647 133.939 117.747C135.126 118.319 136.282 118.951 137.404 119.64L137.435 119.686ZM136.055 105.889C136.203 106.46 136.308 107.042 136.369 107.629C136.272 107.258 136.063 106.926 135.771 106.678C135.721 106.626 135.656 106.591 135.585 106.576C135.514 106.561 135.44 106.567 135.373 106.594C135.135 106.716 135.043 107.161 135.051 107.437C134.36 110.742 133.234 113.941 131.701 116.95C131.165 117.854 131.195 118.023 131.241 118.138C131.394 118.628 132.153 118.069 132.59 117.892L133.464 117.402C132.432 119.03 131.282 120.58 130.022 122.039C130.743 118.78 130.834 115.414 130.291 112.121C129.697 108.988 128.394 106.033 126.481 103.482C129.445 103.311 132.419 103.466 135.35 103.942C135.731 104.52 135.963 105.183 136.024 105.873L136.055 105.889ZM130.912 98.185C132.701 99.5961 134.147 101.394 135.143 103.443C129.587 102.632 123.929 102.858 118.455 104.11C117.532 104.305 116.681 104.751 115.994 105.398C114.377 107.644 114.323 109.231 113.695 111.024C112.698 113.907 111.939 116.244 111.296 118.383C107.93 116.85 100.081 111.093 99.7973 108.326C99.851 106.793 101.484 101.565 104.78 98.9055C106.274 97.6786 107.933 96.6671 109.709 95.9007C109.534 96.0646 109.397 96.264 109.307 96.4855C109.216 96.7069 109.174 96.9453 109.183 97.1844C109.193 97.4235 109.254 97.6578 109.361 97.8714C109.469 98.085 109.622 98.273 109.808 98.4226L110.644 99.5034C110.768 99.6705 110.925 99.8106 111.105 99.9151C111.284 100.02 111.484 100.087 111.69 100.112C111.897 100.137 112.106 100.12 112.306 100.061C112.506 100.003 112.691 99.9042 112.852 99.7717C113.018 99.6483 113.158 99.4925 113.262 99.3135C113.367 99.1346 113.434 98.9364 113.46 98.7307C113.486 98.5251 113.47 98.3164 113.413 98.1172C113.355 97.918 113.258 97.7324 113.128 97.5717L112.361 96.399C112.223 96.1105 112.006 95.8676 111.734 95.6991C111.462 95.5306 111.148 95.4436 110.828 95.4485C113.985 94.2912 117.365 93.8742 120.709 94.2297C120.397 95.7193 120.208 97.2318 120.142 98.7522C120.096 99.6567 120.962 99.4114 120.977 98.6602C121.032 97.1806 121.198 95.7072 121.475 94.2527C123.2 94.8429 123.959 94.383 128.098 96.2763C127.585 96.8491 127.111 97.4561 126.68 98.093V98.116C126.596 98.2693 126.45 98.5682 126.742 98.7675C127.033 98.9668 127.577 98.3229 127.761 98.07C128.071 97.5791 128.412 97.108 128.781 96.6596C129.984 97.4798 130.314 97.6944 130.881 98.1696L130.912 98.185Z" fill="#4C2FB3"/>
<path d="M137.403 119.64C137.449 119.671 137.449 119.671 137.403 119.64ZM102.802 103.918L102.672 104.325C103.73 104.803 104.726 105.408 105.638 106.126L105.899 105.727C104.92 105.038 103.884 104.432 102.802 103.918ZM106.114 102.922C105.6 102.615 105.347 102.378 104.489 101.787C104.331 101.703 104.182 101.602 104.044 101.489L103.783 101.872C104.136 102.178 104.619 102.408 105.178 102.845C105.609 103.181 106.06 103.491 106.528 103.773C106.62 103.773 106.528 103.834 106.842 103.39C106.611 103.216 106.367 103.06 106.114 102.922ZM126.419 116.574C124.257 113.232 122.379 109.675 120.57 106.218C120.455 106.003 120.34 105.904 120.21 105.904C119.896 105.95 119.712 106.594 119.559 107.276C119.559 107.874 117.888 111.492 116.883 115.094C116.684 115.769 117.113 116.037 117.504 116.198C120.338 117.609 123.417 118.46 126.572 118.705C126.841 118.705 127.17 118.705 127.277 118.521C127.3 118.464 127.308 118.403 127.3 118.342C127.292 118.282 127.268 118.225 127.232 118.176C127.046 117.603 126.772 117.062 126.419 116.574ZM123.828 110.204C123.989 110.603 124.595 110.618 125.361 110.863C125.81 111.045 126.299 111.108 126.779 111.047C126.925 111.001 126.994 110.932 126.979 110.84C126.979 110.595 126.135 110.465 126.135 110.465L125.729 110.419C125.496 110.437 125.262 110.41 125.039 110.337C124.817 110.265 124.611 110.149 124.434 109.997C124.089 109.407 124.273 109.093 124.227 108.464C124.227 107.284 124.28 107.077 124.035 106.647C123.912 106.517 123.698 106.394 123.629 106.778C123.603 107.923 123.67 109.069 123.828 110.204ZM133.034 106.433C132.95 106.203 132.72 105.666 132.498 105.781C132.275 105.896 132.498 106.41 132.843 107.314C133.017 107.692 133.128 108.096 133.172 108.51C133.172 108.962 132.781 109.192 132.406 109.437C132.13 109.529 131.639 109.706 131.516 109.989C131.513 110.033 131.522 110.078 131.542 110.117C131.563 110.156 131.593 110.189 131.631 110.212C132.043 110.181 132.437 110.032 132.766 109.782C133.088 109.637 133.663 109.261 133.724 108.886C133.599 108.042 133.367 107.218 133.034 106.433Z" fill="#4C2FB3"/>
</svg>
