<svg width="200" height="200" viewBox="0 0 200 200" fill="none" xmlns="http://www.w3.org/2000/svg">
<path d="M33.1824 130.125C29.2424 131.195 18.0524 134.725 16.3624 135.305C16.3624 123.445 18.2624 36.025 18.4524 27.305C18.4451 27.2802 18.4299 27.2585 18.4092 27.243C18.3884 27.2276 18.3633 27.2192 18.3374 27.2192C18.3116 27.2192 18.2864 27.2276 18.2657 27.243C18.245 27.2585 18.2298 27.2802 18.2224 27.305C17.7024 35.045 15.8624 130.305 15.9024 135.445C14.3124 135.985 7.10244 138.445 5.07244 139.125C4.95244 139.125 5.00244 139.355 5.07244 139.315C8.60244 138.225 15.7724 135.835 15.8524 135.815C15.8524 139.295 15.8924 142.778 15.9724 146.265C15.9724 146.307 15.9893 146.348 16.0193 146.378C16.0493 146.408 16.09 146.425 16.1324 146.425C16.1749 146.425 16.2156 146.408 16.2456 146.378C16.2756 146.348 16.2924 146.307 16.2924 146.265V135.655C19.6024 134.555 30.9024 131.155 33.2424 130.535C33.2825 130.514 33.315 130.481 33.3355 130.44C33.356 130.4 33.3635 130.354 33.3569 130.309C33.3503 130.264 33.33 130.222 33.2988 130.189C33.2676 130.156 33.2269 130.134 33.1824 130.125ZM111.382 110.185C111.382 110.185 109.002 120.465 102.802 117.185C96.6024 113.905 100.612 107.275 100.712 100.795C100.812 94.315 95.7124 89.895 95.7124 89.895C95.7124 89.895 97.2424 102.135 89.8124 103.795C82.3824 105.455 76.2824 98.515 78.4224 88.695C80.5624 78.875 82.0024 73.405 81.9424 69.975C81.8824 66.545 80.6124 65.405 80.6124 65.405C80.6124 65.405 81.7124 73.135 73.1824 77.405C64.8724 81.565 53.5524 88.645 53.3624 102.285C53.1724 116.185 56.2624 120.375 53.2724 120.945C48.7724 121.805 51.5524 114.655 50.2224 109.795C49.7842 108.335 49.0622 106.976 48.0978 105.795C47.1334 104.615 45.9456 103.636 44.6024 102.915C44.6024 102.915 48.8824 109.825 44.3124 116.785C39.7424 123.745 29.6424 132.275 42.8824 143.915C42.8824 143.915 41.7424 139.585 44.2224 136.825C46.7024 134.065 47.7924 133.535 49.0024 130.725C49.4987 129.748 49.7849 128.679 49.8424 127.585C49.8424 127.585 56.1324 136.065 61.1724 131.205C66.2124 126.345 63.4024 119.575 66.0024 116.205C68.6024 112.835 69.6524 112.965 69.6524 112.965C69.6524 112.965 66.0024 117.915 70.1324 124.755C74.2624 131.595 80.6124 124.845 81.9424 119.755C83.2724 114.665 87.8024 115.915 87.8024 115.915C87.8024 115.915 82.6124 117.185 83.7124 122.075C84.8124 126.965 85.9424 127.075 85.9424 127.075C85.9424 127.075 86.9424 122.795 91.9424 123.935C96.9424 125.075 99.3924 129.745 102.292 129.175C105.192 128.605 106.132 124.985 106.132 124.985C106.132 124.985 109.852 130.705 109.382 133.745C108.912 136.785 106.132 140.315 106.132 140.315C108.682 140.297 111.151 139.423 113.146 137.835C115.14 136.247 116.544 134.036 117.132 131.555C119.672 122.465 111.382 110.185 111.382 110.185Z" fill="#4C2FB3"/>
<path d="M104.452 108.685C104.931 108.476 105.362 108.171 105.719 107.79C106.076 107.409 106.352 106.959 106.529 106.468C106.707 105.977 106.783 105.455 106.753 104.933C106.722 104.412 106.586 103.902 106.352 103.435C105.753 102.493 105.38 101.425 105.262 100.315C104.204 101.582 103.571 103.149 103.452 104.795C103.162 107.705 104.452 108.685 104.452 108.685ZM86.5223 73.125C86.1423 70.765 89.3023 70.265 88.8723 66.975C88.4423 63.685 85.8723 63.405 85.8723 63.405L86.5223 64.665C87.1623 65.935 87.0623 67.905 86.0923 70.125C85.1223 72.345 86.5223 73.125 86.5223 73.125Z" fill="#4C2FB3"/>
<path d="M125.172 101.285C123.547 101.626 121.95 102.084 120.392 102.655V97.895H120.542C121.542 97.895 121.122 89.055 120.482 85.995C120.722 59.995 121.322 12.995 121.322 12.495C121.322 12.4632 121.309 12.4327 121.287 12.4101C121.264 12.3876 121.234 12.375 121.202 12.375C121.17 12.375 121.139 12.3876 121.117 12.4101C121.094 12.4327 121.082 12.4632 121.082 12.495C120.082 39.145 119.962 67.325 119.982 84.955C119.462 84.885 118.292 85.745 116.982 86.895L99.4417 46.835C99.7517 34.555 99.9917 21.165 99.9917 9.105C99.9917 8.965 99.7717 8.965 99.7617 9.105C99.6917 10.345 99.2617 28.105 98.8317 46.365L77.1917 41.915C77.5617 30.155 77.9217 18.745 77.9417 16.915C77.9417 16.835 77.8217 16.835 77.8117 16.915C77.6317 21.105 77.1317 29.295 76.7017 41.915L56.7617 45.455C56.8217 32.545 56.7617 22.355 56.7617 22.025C56.756 22.0097 56.7458 21.9965 56.7324 21.9872C56.719 21.9778 56.703 21.9728 56.6867 21.9728C56.6704 21.9728 56.6544 21.9778 56.641 21.9872C56.6276 21.9965 56.6174 22.0097 56.6117 22.025C56.5417 23.025 56.4017 33.185 56.2517 45.255L37.0017 34.405C37.0517 30.015 37.0817 27.325 37.0817 27.165C37.0817 27.1453 37.0778 27.1258 37.0703 27.1076C37.0627 27.0894 37.0517 27.0729 37.0378 27.0589C37.0238 27.045 37.0073 27.034 36.9891 27.0264C36.9709 27.0189 36.9514 27.015 36.9317 27.015C36.912 27.015 36.8925 27.0189 36.8743 27.0264C36.8561 27.034 36.8395 27.045 36.8256 27.0589C36.8117 27.0729 36.8006 27.0894 36.7931 27.1076C36.7856 27.1258 36.7817 27.1453 36.7817 27.165C36.7817 28.165 36.7817 30.685 36.7117 34.335L20.7117 33.995C20.4398 33.987 20.176 34.0874 19.9781 34.274C19.7803 34.4606 19.6646 34.7182 19.6567 34.99C19.6487 35.2618 19.7491 35.5257 19.9357 35.7236C20.1223 35.9214 20.3798 36.037 20.6517 36.045L36.6517 36.505C36.3517 60.705 35.4117 121.505 35.3917 122.055C35.3917 122.235 35.6617 122.235 35.6617 122.055C35.8717 117.455 36.6617 59.725 36.9417 36.625L56.2217 47.625C55.9917 66.275 55.7517 88.325 55.7417 88.685C55.7417 88.815 55.9417 88.815 55.9517 88.685C56.4717 78.025 56.6817 61.495 56.7517 47.555L76.6317 44.065C76.4117 51.065 76.2117 59.325 76.1117 68.945C76.1117 69.065 76.3017 69.065 76.3017 68.945C76.4117 65.815 76.7717 55.005 77.1217 44.015L98.7717 48.865C98.3117 68.245 97.8717 87.495 97.8617 87.795C97.8617 87.8295 97.8754 87.8625 97.8998 87.8869C97.9241 87.9113 97.9572 87.925 97.9917 87.925C98.0262 87.925 98.0592 87.9113 98.0836 87.8869C98.108 87.8625 98.1217 87.8295 98.1217 87.795C98.2217 84.875 98.8617 69.045 99.3617 49.945L115.362 88.425C113.362 90.275 111.622 92.195 111.622 92.195C111.202 93.335 118.072 96.955 120.032 97.785V102.785C119.292 103.035 112.972 105.325 110.482 105.985C110.455 105.996 110.433 106.017 110.42 106.042C110.407 106.068 110.404 106.098 110.412 106.126C110.419 106.154 110.436 106.179 110.46 106.195C110.484 106.211 110.513 106.218 110.542 106.215C113.042 105.595 124.022 102.045 125.182 101.545C125.352 101.475 125.292 101.275 125.172 101.285ZM74.9417 140.155C74.6733 140.426 74.4784 140.761 74.3752 141.129C74.272 141.496 74.2639 141.884 74.3517 142.255C74.4629 142.582 74.6466 142.879 74.889 143.125C75.1314 143.371 75.4264 143.559 75.7517 143.675C77.0184 144.053 78.3436 144.195 79.6617 144.095C79.6617 144.095 84.1617 147.795 84.2817 147.905C83.2817 148.735 81.8917 148.235 80.7617 148.165C80.5717 148.165 80.5717 148.415 80.7617 148.475C81.3822 148.736 82.0568 148.842 82.7273 148.784C83.3979 148.727 84.0445 148.507 84.6117 148.145C84.8534 148.35 85.1072 148.54 85.3717 148.715C85.3943 148.725 85.4196 148.727 85.4436 148.721C85.4676 148.715 85.4888 148.701 85.5038 148.681C85.5188 148.662 85.5268 148.638 85.5264 148.613C85.526 148.588 85.5173 148.564 85.5017 148.545C85.2939 148.326 85.0735 148.119 84.8417 147.925C85.0503 147.675 85.2001 147.381 85.2801 147.065C85.3601 146.749 85.3683 146.419 85.304 146.1C85.2397 145.78 85.1046 145.479 84.9087 145.219C84.7127 144.958 84.4609 144.745 84.1717 144.595C82.808 143.91 81.2827 143.613 79.7617 143.735C78.3217 142.555 76.8817 141.375 75.4217 140.205C75.5561 140.096 75.704 140.006 75.8617 139.935C76.3609 139.77 76.8917 139.723 77.4122 139.797C77.9328 139.872 78.4289 140.066 78.8617 140.365C78.9317 140.365 78.9917 140.365 78.9417 140.265C78.4592 139.767 77.81 139.464 77.1182 139.414C76.4265 139.364 75.7406 139.571 75.1917 139.995L74.1917 139.205C74.1017 139.135 73.9817 139.255 74.0617 139.325L74.9417 140.155ZM84.9417 146.315C84.9736 146.56 84.9526 146.809 84.8802 147.046C84.8077 147.282 84.6855 147.5 84.5217 147.685L80.1617 144.095C82.0017 144.115 84.6917 144.445 84.9317 146.315H84.9417ZM75.2117 140.375C76.5417 141.515 77.8917 142.625 79.2117 143.745C78.2671 143.753 77.3236 143.679 76.3917 143.525C74.3717 143.015 74.2217 141.395 75.2017 140.375H75.2117Z" fill="#4C2FB3"/>
<path d="M132.623 166.355C131.153 165.085 110.303 149.795 108.413 148.515V146.855C108.413 146.835 89.2528 132.595 89.1328 132.625C86.5328 133.295 53.9428 141.625 51.8428 142.255C51.8238 142.258 51.8059 142.267 51.7908 142.279C51.7756 142.291 51.7636 142.306 51.7558 142.324C51.7479 142.342 51.7444 142.361 51.7457 142.38C51.7469 142.4 51.7527 142.418 51.7628 142.435V143.175C50.8728 143.465 39.5528 146.735 39.5528 146.865C39.5528 148.945 39.8528 153.135 39.8528 153.155C39.5928 153.155 32.4728 154.595 32.4428 154.665C32.4128 154.735 32.3528 160.305 32.5028 161.415C32.5028 161.465 69.9928 190.835 70.0628 190.825C71.3128 190.505 87.6228 185.385 89.0628 185.025C89.1079 185.011 89.1462 184.981 89.1703 184.94C89.1943 184.899 89.2023 184.851 89.1928 184.805C89.1128 184.345 89.0728 183.895 89.0228 183.435C89.0228 183.435 91.7828 184.605 91.8728 184.575C96.9228 183.025 109.873 178.905 111.283 178.425C111.361 178.374 111.418 178.295 111.443 178.205V176.995C111.443 176.995 113.223 177.735 113.303 177.705C118.303 175.885 130.953 171.645 132.303 171.145C132.342 171.131 132.375 171.103 132.393 171.065C132.412 171.028 132.416 170.985 132.403 170.945C132.493 170.685 132.623 167.285 132.663 166.495C132.672 166.47 132.674 166.443 132.666 166.418C132.659 166.393 132.644 166.371 132.623 166.355ZM132.223 166.355C131.943 166.415 120.083 169.835 119.143 170.185C119.083 169.645 119.143 165.185 119.143 165.185C118.833 164.785 111.603 159.075 110.423 158.125C111.633 157.875 116.713 156.125 118.103 155.785C121.143 158.045 131.393 165.825 132.223 166.395V166.355ZM106.223 175.415L95.0028 178.505C95.1828 177.755 94.8928 172.225 94.8928 172.155L106.393 169.025C106.373 169.285 106.123 175.285 106.173 175.455L106.223 175.415ZM94.7928 171.805C94.6128 171.555 81.9528 162.245 80.5128 161.175L87.9428 159.255C87.6204 159.439 87.3663 159.723 87.2185 160.063C87.0707 160.404 87.0371 160.783 87.1228 161.145C87.3328 162.025 88.3028 162.805 90.1228 162.815C90.6128 162.815 91.1228 162.765 91.6228 162.715C91.8028 162.875 94.4228 165.065 95.6228 165.975C94.6751 166.301 93.6522 166.339 92.6828 166.085C92.654 166.081 92.625 166.089 92.6011 166.105C92.5772 166.121 92.56 166.146 92.5527 166.174C92.5454 166.202 92.5485 166.231 92.5613 166.257C92.5742 166.283 92.596 166.304 92.6228 166.315C93.7001 166.658 94.8633 166.616 95.9128 166.195C96.2228 166.435 96.5328 166.685 96.8528 166.915C97.1728 167.145 97.2528 166.725 97.0528 166.575L96.2728 165.965C96.5637 165.762 96.78 165.469 96.8884 165.131C96.9968 164.793 96.9913 164.429 96.8728 164.095C96.4328 162.775 94.9328 162.265 93.6728 162.195C93.0404 162.175 92.4076 162.215 91.7828 162.315C91.2528 161.865 88.9928 159.865 88.3728 159.315C88.7428 159.115 91.5328 158.315 92.4728 158.045C92.4728 158.045 105.623 168.345 106.163 168.605C106.223 168.605 106.303 168.605 106.263 168.505C105.963 168.075 93.8928 158.625 92.9428 157.925C95.5028 157.245 105.203 154.555 105.503 154.475C105.503 154.475 118.233 164.935 118.603 165.175C114.553 166.415 97.9228 170.985 94.7428 171.845L94.7928 171.805ZM62.5428 166.155C62.1828 166.155 58.5428 166.865 58.1728 166.945C58.2328 165.845 58.5728 160.475 58.6128 160.205C59.8228 160.045 64.8128 159.205 65.1528 159.105L65.5928 159.475C64.6732 159.489 63.7593 159.62 62.8728 159.865C62.8728 159.865 62.5228 165.915 62.4928 166.195L62.5428 166.155ZM62.5428 166.345C62.5428 166.585 62.5428 166.815 62.4628 167.045C62.3828 167.275 67.2228 171.045 67.8328 171.545C67.0728 171.725 60.6528 173.665 56.6128 173.815C56.1828 173.485 48.4828 167.325 45.0928 164.545C46.2928 164.405 52.7328 162.985 52.7328 162.985C53.2528 163.385 56.7928 166.185 58.0028 167.245C59.5144 167.063 61.0113 166.776 62.4828 166.385L62.5428 166.345ZM63.0728 160.105C63.0728 160.105 65.5928 159.765 65.9628 159.775C65.9628 159.775 70.4528 163.625 70.4928 163.615C73.6928 162.905 76.9528 162.085 80.1328 161.265L94.3328 171.915C92.6828 172.355 81.7628 175.375 81.7328 175.405L63.0728 160.105ZM83.9328 159.935C83.8328 159.935 70.5528 163.385 70.4928 163.485L70.5928 156.485C75.0028 155.625 79.3628 154.545 83.7128 153.395C83.5628 153.965 83.7628 159.455 83.8728 159.975L83.9328 159.935ZM96.0028 156.785C95.2628 156.985 87.3728 159.075 84.1528 159.915C84.1528 159.395 84.0528 153.915 83.9728 153.385C83.9728 153.385 92.5428 151.035 96.3728 150.015C96.3428 150.295 95.8528 155.705 96.0028 156.785ZM88.1128 159.505C88.6828 160.115 90.7828 162.025 91.2228 162.405C90.3671 162.552 89.4892 162.508 88.6528 162.275C87.0028 161.735 87.0028 160.225 88.0928 159.505H88.1128ZM92.1128 162.695C93.0388 162.553 93.9848 162.618 94.8828 162.885C96.5428 163.465 96.9628 165.055 95.8828 165.795C94.7128 164.845 92.1928 162.755 92.1228 162.695H92.1128ZM108.583 153.355C108.503 152.275 108.393 149.295 108.403 148.885C111.513 151.105 114.653 153.285 117.743 155.545C116.443 155.915 111.433 157.545 110.213 157.975C109.683 157.545 106.213 154.735 105.643 154.485C106.553 154.225 107.463 153.965 108.343 153.635C108.423 153.615 108.603 153.455 108.593 153.355H108.583ZM108.293 153.355L96.2128 156.705C96.2128 155.625 96.5328 150.225 96.6228 149.975C96.7028 149.975 105.293 147.725 108.063 147.115C108.003 148.115 108.303 153.375 108.303 153.375L108.293 153.355ZM89.1328 132.915C91.4928 134.915 106.703 145.915 107.863 146.795C104.103 147.635 100.383 148.585 96.6628 149.575C95.5328 148.725 79.1528 135.915 78.8828 135.725C79.4128 135.625 86.2728 133.835 89.1328 132.915ZM78.4928 135.915C78.9928 136.395 95.0028 148.915 96.2228 149.765L83.6528 153.165C82.5328 152.265 66.5828 140.335 65.4028 139.285C69.8028 138.158 74.1661 137.035 78.4928 135.915ZM64.9228 139.405C66.1328 140.255 82.7128 152.835 83.3328 153.245C81.7028 153.675 73.0828 155.825 70.4028 156.385L51.9128 142.515C53.7928 142.135 64.7628 139.405 64.9228 139.365V139.405ZM51.7928 143.515C51.8528 145.085 51.9028 146.515 51.9628 148.185L64.7728 158.915C64.5428 158.915 59.6328 159.705 58.3628 159.975C58.2728 159.975 39.9428 146.975 39.9428 146.975C42.0028 146.455 50.9128 143.715 51.7928 143.475V143.515ZM33.0028 154.785C33.1328 154.785 39.6228 153.485 39.9428 153.445C39.9428 153.445 50.6728 161.515 52.5828 162.965C51.2928 163.065 46.0328 164.145 44.6628 164.285C43.3428 163.195 33.6028 155.195 33.0028 154.785ZM45.1628 171.175C45.1628 170.635 44.8728 165.725 44.8028 164.655C45.5428 165.265 53.2428 171.525 56.3728 174.005C56.3728 174.005 56.7028 179.775 56.7428 180.255C56.2728 179.915 48.5528 173.915 45.1728 171.175H45.1628ZM56.9328 174.175C60.6777 173.576 64.3892 172.785 68.0528 171.805C68.6528 172.275 79.9328 180.805 80.9028 181.485C79.1028 181.915 70.2628 183.915 70.2328 183.915C65.6528 180.915 61.2628 177.575 56.9428 174.175H56.9328ZM70.1728 190.545C70.1728 190.545 70.2528 184.215 70.2828 184.165C71.0928 184.055 79.1528 182.165 80.9828 181.755C81.3943 181.905 81.7869 182.103 82.1528 182.345L88.4128 180.545C88.6928 181.935 88.5528 183.365 88.7928 184.745C87.6328 185.165 71.5528 190.035 70.1828 190.545H70.1728ZM82.3828 182.095C82.3828 182.095 82.1628 177.865 82.0428 175.685C86.2028 174.525 90.3661 173.378 94.5328 172.245L94.8428 178.545L82.3828 182.095ZM111.103 178.095C108.583 178.855 93.3128 183.715 91.9528 184.155C91.8728 182.675 91.6228 179.635 91.6028 179.615C91.5828 179.595 105.243 176.015 111.193 174.115C111.113 174.435 111.123 177.465 111.113 178.125L111.103 178.095ZM106.413 175.365C106.413 175.215 106.553 169.195 106.603 168.925C108.043 168.535 116.193 166.265 118.813 165.485C118.702 167.544 118.779 169.609 119.043 171.655L106.413 175.365ZM119.303 171.915C119.28 171.406 119.23 170.898 119.153 170.395C120.013 170.335 131.943 166.925 132.263 166.795C132.263 167.505 132.063 170.665 132.103 170.945C127.203 172.765 114.703 176.885 113.443 177.345C113.443 176.155 113.513 173.535 113.513 173.535C113.513 173.535 119.293 171.965 119.303 171.915ZM154.933 24.4848V24.3448C154.812 24.2041 154.651 24.1038 154.471 24.0572C154.292 24.0106 154.102 24.0201 153.928 24.0843C153.754 24.1485 153.604 24.2643 153.497 24.4163C153.391 24.5684 153.333 24.7493 153.333 24.9348C153.384 24.7786 153.472 24.6374 153.591 24.5236C153.71 24.4098 153.854 24.3271 154.013 24.2826C154.171 24.2381 154.337 24.2333 154.498 24.2685C154.658 24.3038 154.808 24.3781 154.933 24.4848ZM158.103 26.5348C158.085 26.5137 158.063 26.4968 158.038 26.4852C158.013 26.4736 157.985 26.4676 157.958 26.4676C157.93 26.4676 157.903 26.4736 157.878 26.4852C157.853 26.4968 157.831 26.5137 157.813 26.5348C157.81 26.9226 157.857 27.3091 157.953 27.6848C157.953 27.8248 158.213 27.7948 158.203 27.6848C158.218 27.2988 158.185 26.9123 158.103 26.5348ZM154.223 25.9148C154.21 25.8999 154.193 25.888 154.175 25.8798C154.157 25.8716 154.138 25.8674 154.118 25.8674C154.098 25.8674 154.078 25.8716 154.06 25.8798C154.042 25.888 154.026 25.8999 154.013 25.9148C153.919 26.4071 153.919 26.9125 154.013 27.4048C154.013 27.5248 154.243 27.5048 154.233 27.4048C154.274 26.9088 154.271 26.4102 154.223 25.9148ZM156.333 30.3948V30.3148C155.143 30.3148 155.123 30.0348 155.103 30.0148C155.083 29.9948 155.793 28.2248 155.923 27.8448C155.923 27.7948 155.853 27.7548 155.833 27.8448C155.653 28.2048 154.693 30.1748 154.723 30.2648C154.813 30.5148 156.003 30.4948 156.333 30.3948ZM158.773 31.8448C158.891 31.9981 158.995 32.1622 159.083 32.3348C158.633 32.4948 158.673 33.7948 159.363 33.7248C159.453 33.7229 159.539 33.6883 159.605 33.6276C159.671 33.5669 159.713 33.4841 159.723 33.3948C159.743 32.9148 158.933 32.0148 158.773 31.8448ZM172.703 51.1548C170.179 51.626 167.596 51.6867 165.053 51.3348V51.4148C166.343 51.7048 170.373 52.3348 172.773 51.4148C172.863 51.3248 172.803 51.1348 172.703 51.1548ZM154.243 50.6548C152.047 51.1703 149.752 51.0804 147.603 50.3948C147.533 50.3948 147.513 50.4748 147.603 50.5048C149.749 51.3479 152.112 51.4672 154.333 50.8448C154.393 50.8148 154.343 50.6248 154.243 50.6548ZM158.603 45.6548C157.893 46.1148 153.213 65.9748 153.143 66.5148C153.073 67.0548 156.323 71.9148 156.533 71.9148C158.616 70.7625 160.621 69.473 162.533 68.0548C162.853 67.6648 161.463 46.5148 161.283 45.9848C161.103 45.4548 158.603 45.6548 158.603 45.6548Z" fill="#4C2FB3"/>
<path d="M188.153 26.2249C183.533 23.0149 172.853 16.7949 172.733 16.7449C172.613 16.6949 172.573 16.6649 171.323 17.5349C170.599 16.4979 169.71 15.5859 168.693 14.8349C168.331 14.6161 167.916 14.5005 167.493 14.5005C167.07 14.5005 166.655 14.6161 166.293 14.8349C165.439 15.2767 164.665 15.858 164.003 16.5549C162.877 16.4835 161.749 16.6646 160.703 17.0849C160.703 17.0849 157.823 11.0149 153.383 12.4449C148.943 13.8749 151.623 19.3049 151.623 19.3049C151.502 19.439 151.389 19.5792 151.283 19.7249C151.064 19.4675 150.819 19.233 150.553 19.0249C150.043 18.7649 143.553 20.3749 140.353 21.7449C136.521 23.4391 132.988 25.7422 129.893 28.5649C127.643 31.1349 127.283 32.5649 127.983 35.5649C129.743 43.1949 135.503 50.4449 141.893 55.0649C141.503 57.7649 141.183 60.4649 141.023 63.1849C140.623 69.7049 141.653 72.8249 144.863 75.2849C137.513 97.4949 141.773 156.285 141.773 156.285C142.327 156.806 143.023 157.154 143.773 157.285C143.823 157.845 143.973 159.355 143.993 159.555C143.083 160.242 142.116 160.851 141.103 161.375C140.753 161.491 140.451 161.72 140.245 162.026C140.039 162.331 139.939 162.697 139.963 163.065C139.823 163.945 143.683 163.905 144.763 163.805C145.843 163.705 145.883 162.995 146.103 162.905C146.323 162.815 146.283 163.335 146.253 163.605C146.223 163.875 147.253 163.905 147.883 163.915C148.513 163.925 148.433 157.815 148.473 157.425C149.158 157.328 149.829 157.15 150.473 156.895C157.623 137.695 158.193 125.545 158.193 125.545C155.623 105.225 156.093 91.4049 156.853 91.5449C157.613 91.6849 156.373 96.8749 157.853 115.785C159.333 134.695 165.533 158.535 165.533 158.535C166.343 158.681 167.161 158.781 167.983 158.835C168.043 159.435 168.223 160.985 168.243 161.175C167.355 161.833 166.415 162.418 165.433 162.925C165.083 163.04 164.781 163.269 164.576 163.575C164.372 163.881 164.275 164.247 164.303 164.615C164.153 165.495 168.013 165.455 169.103 165.355C170.193 165.255 170.213 164.545 170.433 164.455C170.653 164.365 170.613 164.885 170.583 165.155C170.553 165.425 171.583 165.455 172.213 165.465C172.843 165.475 172.293 162.055 172.913 158.875C173.513 158.845 174.106 158.727 174.673 158.525C174.673 158.525 177.523 151.525 179.213 121.065C180.773 93.0649 177.973 78.9649 177.513 76.8649C178.101 76.5349 178.594 76.0587 178.944 75.4824C179.295 74.906 179.49 74.249 179.513 73.5749C179.513 73.1749 179.103 57.2149 179.013 55.9649C183.502 52.6508 187.575 48.8062 191.143 44.5149C192.964 42.465 194.231 39.9829 194.823 37.3049C195.733 32.0349 192.503 29.2349 188.153 26.2249ZM166.303 15.0249C166.727 14.799 167.216 14.7264 167.688 14.8193C168.16 14.9122 168.585 15.1649 168.893 15.5349C169.605 16.2864 170.356 17.0007 171.143 17.6749C170.12 18.4729 169.412 19.6061 169.143 20.8749C169.142 19.903 168.762 18.9698 168.083 18.2749C167.006 17.2973 165.641 16.697 164.193 16.5649C164.836 15.974 165.544 15.4574 166.303 15.0249ZM166.453 36.0249C166.441 36.0084 166.425 35.9949 166.406 35.9857C166.388 35.9764 166.368 35.9716 166.348 35.9716C166.327 35.9716 166.307 35.9764 166.289 35.9857C166.27 35.9949 166.255 36.0084 166.243 36.0249L165.513 36.7749C165.343 35.7749 165.103 33.6949 165.123 33.6849C165.623 33.3849 168.693 27.0749 169.123 22.4649C171.423 26.3229 174.303 29.8037 177.663 32.7849C178.143 33.2149 180.373 35.0049 180.423 35.0349C180.233 35.1049 168.623 38.4749 168.173 38.7149C167.603 37.7649 167.003 36.9149 166.453 36.0049V36.0249ZM168.123 39.2549C167.463 40.1849 164.743 43.5149 164.183 44.3549C163.305 43.1184 162.503 41.8293 161.783 40.4949C163.361 39.1781 164.873 37.783 166.313 36.3149C166.913 37.2749 167.473 38.2849 168.123 39.2349V39.2549ZM153.213 21.4149C154.103 21.2349 154.213 23.6949 158.103 24.2749C157.94 24.2817 157.781 24.3248 157.638 24.4009C157.494 24.477 157.369 24.5843 157.273 24.7149C157.273 24.7149 158.593 24.1649 158.913 25.1649C158.913 25.2249 159.073 25.1649 159.083 25.1149C159.097 24.9361 159.049 24.7579 158.947 24.6104C158.845 24.4628 158.695 24.3549 158.523 24.3049C159.104 24.3622 159.689 24.3822 160.273 24.3649C162.653 24.3149 161.583 27.1549 162.333 27.2949C162.693 27.3649 162.743 27.0049 163.103 26.6149C163.463 26.2249 164.183 25.7549 164.763 26.2049C166.293 27.4149 164.263 29.5949 164.263 29.5949C164.355 32.069 164.727 34.5247 165.373 36.9149C163.463 38.8049 161.473 40.4249 161.473 40.5149C161.153 40.5149 159.723 40.7949 159.203 40.9049C158.634 39.7464 158.136 38.5542 157.713 37.3349C157.788 36.7916 157.818 36.2431 157.803 35.6949C157.803 34.2249 156.543 34.7749 155.723 34.5449C155.217 34.3918 154.757 34.1171 154.383 33.7449C153.602 32.914 153.087 31.8697 152.903 30.7449C152.643 29.4498 152.493 28.1352 152.453 26.8149C152.393 25.2349 152.113 21.6349 153.213 21.4149ZM154.723 39.9149C153.883 39.5749 143.163 33.3449 142.383 32.6549C143.103 32.0849 150.103 27.5349 152.163 26.4949C152.163 29.7649 152.553 34.3049 155.773 34.9849C156.603 35.1549 157.193 34.8649 157.313 35.3549C157.363 35.5649 157.383 36.2449 157.413 36.7949C157.386 36.7809 157.357 36.7736 157.328 36.7736C157.298 36.7736 157.269 36.7809 157.243 36.7949C156.833 37.2649 154.373 39.3049 154.443 39.3949C154.546 39.5629 154.639 39.7365 154.723 39.9149ZM157.293 37.4549C157.463 37.9849 158.713 40.1349 159.023 40.7649C159.023 40.7649 157.133 43.2149 156.833 43.7649C156.553 43.0549 154.973 39.6749 154.833 39.4449C155.743 38.9149 156.233 38.1349 157.293 37.4949V37.4549ZM148.003 159.705C146.693 160.935 144.613 159.995 144.283 159.705C144.283 159.435 144.073 157.825 144.003 157.295C145.404 157.445 146.814 157.495 148.223 157.445C148.163 157.775 148.003 159.285 148.003 159.705ZM172.323 161.205C171.771 161.605 171.104 161.816 170.423 161.805C169.741 161.794 169.081 161.563 168.543 161.145C168.543 160.905 168.303 159.325 168.233 158.775C168.883 158.775 172.133 158.865 172.713 158.775C172.643 159.325 172.373 160.915 172.313 161.205H172.323ZM194.323 38.0249C193.579 40.3517 192.352 42.4952 190.723 44.3149C187.192 48.5269 183.162 52.2945 178.723 55.5349C178.533 55.6749 179.293 73.7449 179.023 74.4649C178.649 75.3354 178.003 76.0615 177.183 76.5349C174.353 78.3449 158.183 79.5349 148.953 76.8949C147.36 76.4817 145.899 75.6729 144.703 74.5435C143.507 73.4141 142.616 72.0008 142.113 70.4349C141.476 68.2282 141.249 65.9235 141.443 63.6349C141.653 58.6349 142.443 53.1149 143.093 48.2749C143.093 48.2749 143.013 48.2049 143.003 48.2749C142.613 50.4949 142.253 52.5949 141.933 54.8349C140.573 53.6949 139.193 52.6849 137.933 51.4449C133.74 47.5113 130.616 42.577 128.853 37.1049C127.633 32.8449 128.093 31.8549 129.723 29.6249C130.13 29.0427 130.603 28.5092 131.133 28.0349C133.701 25.8359 136.545 23.9804 139.593 22.5149C143.095 21.07 146.738 19.9909 150.463 19.2949C150.688 19.5212 150.898 19.7617 151.093 20.0149C150.513 20.8549 149.753 22.3049 150.353 23.5049C150.716 24.4296 151.368 25.2119 152.213 25.7349V26.2249C150.333 27.1749 142.703 31.9249 141.923 32.5349C141.901 32.5555 141.883 32.5803 141.872 32.6078C141.86 32.6353 141.854 32.6649 141.854 32.6949C141.854 32.7249 141.86 32.7545 141.872 32.782C141.883 32.8095 141.901 32.8343 141.923 32.8549C144.923 35.4549 153.983 39.9849 155.013 40.2749C155.273 40.7449 156.433 43.2749 156.763 44.0749C156.763 44.1549 156.923 44.2049 156.973 44.0749C157.254 43.4728 157.599 42.9028 158.003 42.3749C158.053 42.8649 158.343 44.5049 159.553 44.8449C160.763 45.1849 162.403 43.3949 162.553 42.4449C162.553 42.5249 163.623 44.0749 164.053 44.7849C164.068 44.8132 164.09 44.8376 164.116 44.856C164.143 44.8745 164.173 44.8867 164.205 44.8915C164.237 44.8963 164.27 44.8937 164.301 44.8839C164.331 44.8741 164.359 44.8573 164.383 44.8349C165.063 43.9649 167.643 40.1949 168.433 39.3349C168.533 39.2349 168.433 39.1649 168.273 38.8449C168.683 38.8449 181.843 34.9449 182.843 34.3949C182.953 34.3349 182.843 34.1649 182.753 34.1949C182.122 34.3616 181.501 34.5619 180.893 34.7949C177.213 31.7149 174.633 30.0849 171.163 25.2249C169.893 23.4449 169.683 22.8949 169.163 22.0849C169.286 21.0355 169.672 20.0342 170.286 19.1741C170.899 18.3139 171.72 17.6228 172.673 17.1649C173.403 17.5949 179.263 20.7649 185.283 24.6349C187.943 26.3449 191.613 28.7749 193.283 31.1249C193.965 32.1223 194.414 33.2601 194.597 34.4544C194.781 35.6486 194.694 36.8688 194.343 38.0249H194.323Z" fill="#4C2FB3"/>
</svg>
