<svg width="200" height="200" viewBox="0 0 200 200" fill="none" xmlns="http://www.w3.org/2000/svg">
<path fill-rule="evenodd" clip-rule="evenodd" d="M57.4556 46.1006V46.8106C57.4556 47.0095 57.5347 47.2003 57.6753 47.3409C57.816 47.4816 58.0067 47.5606 58.2056 47.5606C58.4045 47.5606 58.5953 47.4816 58.736 47.3409C58.8766 47.2003 58.9556 47.0095 58.9556 46.8106V46.0606C58.9454 45.8634 58.8597 45.6777 58.7164 45.5418C58.5731 45.4059 58.3831 45.3303 58.1856 45.3306C58.0867 45.3319 57.9891 45.3529 57.8984 45.3926C57.8078 45.4322 57.7261 45.4896 57.658 45.5614C57.5899 45.6332 57.537 45.7179 57.5022 45.8105C57.4675 45.9031 57.4516 46.0018 57.4556 46.1006ZM57.1656 44.0106C58.2656 43.7506 59.1656 43.0106 57.5656 43.1106C57.1693 43.1659 56.7781 43.2528 56.3956 43.3706C54.8956 43.9906 56.1956 44.2406 57.1656 44.0106ZM148.916 50.9706C148.455 51.9374 147.684 52.7224 146.726 53.2006C146.688 53.2138 146.657 53.2396 146.637 53.2735C146.617 53.3073 146.609 53.3472 146.615 53.3862C146.621 53.4252 146.64 53.461 146.669 53.4873C146.699 53.5137 146.736 53.529 146.776 53.5306C147.099 53.5876 147.432 53.5639 147.744 53.4618C148.057 53.3596 148.339 53.182 148.566 52.9447C148.794 52.7074 148.959 52.4178 149.048 52.1014C149.137 51.785 149.146 51.4515 149.076 51.1306C149.076 51.0882 149.059 51.0475 149.029 51.0175C148.999 50.9875 148.958 50.9706 148.916 50.9706ZM144.936 43.0406C144.743 42.9914 144.54 43.0193 144.368 43.1183C144.196 43.2173 144.069 43.3797 144.016 43.5706C143.925 43.8961 143.908 44.2377 143.966 44.5706C143.966 44.7695 144.045 44.9603 144.185 45.1009C144.326 45.2416 144.517 45.3206 144.716 45.3206C144.915 45.3206 145.105 45.2416 145.246 45.1009C145.387 44.9603 145.466 44.7695 145.466 44.5706C145.466 43.8506 145.626 43.2306 144.936 43.0406ZM110.546 141.291C109.736 140.881 94.2456 141.891 93.8556 143.631C93.7756 144.011 94.0256 145.471 94.4656 145.711C95.3356 146.171 110.236 145.331 111.056 143.711C111.289 143.317 111.366 142.849 111.271 142.401C111.177 141.953 110.918 141.557 110.546 141.291ZM94.6556 145.291C94.3473 144.806 94.181 144.245 94.1756 143.671C94.3756 142.771 102.626 142.281 103.536 142.221C103.514 143.029 103.722 143.826 104.136 144.521C102.996 144.701 95.1956 145.581 94.6556 145.321V145.291ZM110.326 143.291C109.536 143.851 105.526 144.361 104.566 144.481C104.65 143.689 104.482 142.891 104.086 142.201C105.276 142.121 109.086 141.911 110.216 142.011C110.516 142.231 110.526 142.911 110.326 143.311V143.291ZM84.2656 143.661C84.2386 143.644 84.2075 143.635 84.1756 143.635C84.1438 143.635 84.1126 143.644 84.0856 143.661C84.0856 143.561 64.9856 154.321 64.4056 155.461C64.3798 155.515 64.3664 155.575 64.3664 155.636C64.3664 155.696 64.3798 155.756 64.4056 155.811C65.0156 157.561 84.9456 175.581 85.7756 175.991C86.0156 176.111 86.3156 175.901 87.2556 175.401C89.2556 174.331 106.326 165.211 108.086 163.741C108.576 163.241 108.876 158.741 108.606 158.231C108.336 157.721 84.2656 143.761 84.2656 143.661ZM85.9956 175.161C83.8656 173.471 66.9956 158.271 65.1256 155.691C66.8656 154.051 83.6956 144.301 84.2056 144.001C86.7856 145.571 105.356 156.871 107.736 158.471C106.478 158.834 105.281 159.384 104.186 160.101C103.616 160.651 105.036 161.671 107.006 163.581C103.996 165.521 89.0656 173.521 85.9956 175.161ZM107.576 163.011C107.476 162.911 105.066 160.561 104.956 160.471C105.927 159.864 106.928 159.307 107.956 158.801C107.959 160.214 107.825 161.624 107.556 163.011H107.576Z" fill="white"/>
<path fill-rule="evenodd" clip-rule="evenodd" d="M99.2657 161.171C98.5657 161.471 90.0258 164.301 87.6158 165.281C86.9075 165.634 86.1356 165.841 85.3457 165.891C85.2057 165.891 86.0158 164.331 92.1458 159.551C92.7858 159.051 94.0158 158.101 94.1458 157.321C94.7358 154.741 87.7458 158.601 81.4958 161.041C80.8494 161.388 80.144 161.612 79.4157 161.701C79.3457 161.291 80.7557 160.001 80.8457 159.901C84.5757 155.781 89.3057 154.081 88.9857 152.561C88.4957 150.181 79.8157 154.811 77.9857 155.561C76.4457 156.211 73.9858 156.991 74.1358 156.991C73.8058 157.121 74.1357 157.351 74.1957 157.321C74.2557 157.291 77.4257 156.321 78.1957 155.981C79.3457 155.541 87.0358 151.831 88.3158 152.701C88.8258 153.061 83.3857 155.991 80.3158 159.381C79.7758 159.961 78.3157 161.141 78.7657 162.101C78.8483 162.249 78.9734 162.369 79.1249 162.446C79.2764 162.523 79.4473 162.552 79.6158 162.531C81.1058 162.531 91.2658 157.441 93.3557 157.281C92.876 157.914 92.3028 158.47 91.6558 158.931C90.1658 160.111 85.8457 163.631 84.8457 165.251C84.3257 166.091 84.7558 166.591 85.4358 166.601C86.3358 166.601 87.4358 165.991 90.1458 164.971C99.3358 161.431 99.6258 161.591 99.4758 161.261C99.468 161.241 99.4565 161.223 99.4417 161.207C99.4269 161.192 99.4092 161.18 99.3896 161.172C99.3701 161.163 99.3491 161.159 99.3278 161.159C99.3065 161.158 99.2854 161.163 99.2657 161.171Z" fill="white"/>
<path fill-rule="evenodd" clip-rule="evenodd" d="M194.996 123.041C194.866 112.581 193.926 91.2305 191.856 80.8805C190.766 75.3905 188.406 67.8805 184.016 64.2505C182.156 62.7205 179.416 61.2505 174.446 58.5005C174.506 58.3705 166.596 55.1705 166.226 56.2305C165.918 54.4067 165.487 52.6059 164.936 50.8405C165.676 50.6005 165.346 48.4405 165.656 47.2205C165.966 46.0005 167.136 45.1305 167.736 44.1305C169.086 41.9005 169.316 38.0105 169.066 35.4205C168.826 33.0105 165.306 27.6305 162.986 26.7505C160.666 25.8705 158.286 25.9005 155.836 25.4105C153.836 25.0005 152.356 23.8905 150.116 23.6105C147.876 23.3305 146.536 24.6105 144.616 24.6105C142.696 24.6105 140.536 23.1205 138.526 23.0005C137.434 22.9836 136.373 23.3635 135.539 24.0697C134.706 24.7759 134.158 25.7605 133.996 26.8405C133.753 28.4504 133.944 30.0958 134.549 31.6074C135.153 33.119 136.15 34.4421 137.436 35.4405C139.001 36.431 140.761 37.0754 142.596 37.3305C142.476 42.4405 143.016 41.0705 142.416 41.5205C141.816 41.9705 142.006 45.1205 142.216 45.9905C142.306 46.3405 142.396 46.4705 142.826 46.6105C142.586 47.6105 140.896 49.7705 142.416 50.3005C142.616 50.3705 143.416 50.5105 143.496 50.5405C143.701 51.4889 144.002 52.4137 144.396 53.3005C144.784 54.1921 145.35 54.9947 146.061 55.6586C146.771 56.3226 147.61 56.8337 148.526 57.1605C149.966 57.7205 151.106 57.8705 151.946 58.1605C152.061 58.5741 152.122 59.0011 152.126 59.4305C148.555 60.3692 145.19 61.9666 142.206 64.1405C136.796 68.5305 129.106 86.7405 127.096 88.7405C126.316 89.5105 107.946 93.0705 105.236 94.9105C104.706 95.2705 104.686 95.5805 104.756 96.2205C104.096 96.3405 101.316 96.8605 101.006 97.4505C100.914 97.8791 100.938 98.3244 101.076 98.7405C98.6012 98.2785 96.1045 97.9447 93.5956 97.7405C93.1365 97.7513 92.6847 97.8583 92.2696 98.0546C91.8544 98.251 91.4852 98.5324 91.1856 98.8805C90.3456 99.8805 91.0256 99.7105 90.1356 99.5705C88.2456 99.3005 81.4756 101.571 80.6256 101.971C80.6256 101.611 80.6256 101.361 80.2456 101.161C79.1295 100.837 77.9635 100.722 76.8056 100.821C76.1056 101.291 78.8056 101.131 79.9256 101.711C79.9256 102.481 80.0256 110.381 79.9256 111.931C79.9256 112.211 79.9256 112.171 79.7156 112.201C78.7156 112.341 77.2756 112.201 76.8356 112.521C76.9956 109.041 76.8356 100.521 76.3556 100.021C76.0656 99.7205 70.7256 99.0805 64.9156 98.3805C64.9363 94.1769 64.7025 89.9759 64.2156 85.8005C63.1456 76.5205 60.9056 65.5805 53.9056 60.0305C54.3113 60.1962 54.7577 60.2345 55.1856 60.1405C55.7571 59.9137 56.3723 59.8181 56.9856 59.8605C57.9856 60.1305 58.1156 60.8605 60.6156 59.1805C60.7756 59.0705 61.1956 59.1005 61.5256 58.7705C62.6556 57.6405 62.0856 56.1105 62.0856 54.9705C62.2512 54.1955 62.3051 53.4008 62.2456 52.6105C62.215 52.4927 62.1575 52.3836 62.0777 52.2917C61.9979 52.1997 61.898 52.1275 61.7856 52.0805C61.7856 51.7505 62.1356 51.1605 61.6356 50.5205C62.3556 50.1405 63.1356 49.7005 62.7356 48.9205C61.9715 47.6984 61.3412 46.3976 60.8556 45.0405C60.5456 43.8805 60.9656 42.4005 60.9456 41.1505C60.9456 40.2905 61.0356 39.2605 60.9456 38.3205C61.7169 37.782 62.3063 37.0217 62.6356 36.1405C62.7086 35.7844 62.693 35.4157 62.5901 35.067C62.4872 34.7182 62.3002 34.4001 62.0456 34.1405C61.7156 33.9305 61.6456 34.1405 61.6556 33.5205C61.6918 33.303 61.682 33.0802 61.6269 32.8667C61.5718 32.6531 61.4726 32.4534 61.3356 32.2805C60.9156 31.8705 59.9556 31.4205 59.6556 31.0005C59.1456 30.2505 58.8456 29.5005 57.8856 29.2005C57.2056 28.9805 56.5656 29.4105 56.1056 29.2605C55.4756 29.0605 54.8256 28.3805 54.1056 29.1005C53.9449 29.1877 53.7685 29.2423 53.5866 29.2612C53.4047 29.28 53.2209 29.2628 53.0456 29.2105C52.4456 28.7005 52.2956 27.8205 51.2756 27.6305C50.6956 27.5305 49.5556 27.8105 49.1156 27.6305C48.3948 27.1 47.5996 26.6787 46.7556 26.3805C45.8122 26.2907 44.8602 26.372 43.9456 26.6205C43.3056 26.7505 42.4856 26.6805 41.8156 26.7805C40.4256 27.0005 40.0256 28.2005 39.1056 28.7805C38.1856 29.3605 36.6356 29.3705 35.7556 30.6705C35.0156 31.7705 35.1756 32.9605 34.8856 34.0605C34.7656 34.5305 34.1256 35.0605 33.8856 35.5405C33.3256 36.6505 33.7556 37.7705 33.7456 38.7305C33.7356 39.6905 33.0656 40.5705 33.2556 41.7305C33.41 42.3099 33.6638 42.858 34.0056 43.3505C34.0098 43.5126 33.9896 43.6744 33.9456 43.8305C33.6406 44.6175 33.5779 45.4777 33.7656 46.3005C33.9293 47.0894 34.3103 47.8168 34.8656 48.4005C35.5656 49.0105 35.9256 48.8505 36.4356 49.7205C36.6501 50.1806 36.9726 50.582 37.3756 50.8905C38.1156 51.3905 39.0256 50.9605 39.4656 51.1805C39.7394 51.3251 40.0379 51.4167 40.3456 51.4505C40.0995 51.5749 39.8868 51.7567 39.7256 51.9805C34.2856 52.6705 27.1056 56.6405 22.7256 62.0705C20.9956 64.3005 18.0856 67.5205 16.9956 70.1005C11.1356 83.3405 13.9956 104.101 11.6356 110.511L5.79565 125.741C5.51565 126.471 4.79565 130.101 5.05565 131.351C5.47565 133.211 7.42565 130.881 8.61565 129.561C7.87565 132.191 7.88565 132.881 7.49565 143.231C7.37565 146.471 7.26565 150.001 7.21565 152.971C7.21278 152.992 7.21453 153.014 7.22077 153.034C7.22701 153.055 7.23761 153.074 7.25183 153.09C7.26606 153.106 7.28358 153.119 7.30322 153.128C7.32286 153.136 7.34415 153.141 7.36565 153.141C7.64565 153.141 7.46565 153.461 7.87565 145.201C8.16565 139.391 8.49565 133.971 8.52565 133.531C8.67367 131.821 9.05037 130.14 9.64565 128.531C12.4383 126.444 15.5809 124.873 18.9256 123.891C22.6481 122.895 26.579 122.995 30.2456 124.181C31.2456 124.511 33.9356 125.181 34.8956 124.731C36.8956 123.731 42.0456 120.421 42.8956 118.411C43.3156 117.411 43.6556 116.601 43.9856 115.851C45.5156 115.991 47.3956 116.381 49.0656 116.401C50.9356 116.401 52.1356 116.101 54.2056 114.271C61.8156 114.441 70.2056 114.211 74.2056 114.061C76.8756 115.061 85.0756 117.991 87.0656 119.961C87.8456 120.721 88.3056 122.841 88.5856 125.201C88.9543 128.021 89.0515 130.871 88.8756 133.711C83.3956 134.761 76.4156 136.421 71.0156 137.761C70.7132 137.676 70.3972 137.653 70.0856 137.691C68.6556 137.841 69.3256 138.421 68.8556 136.971C68.8782 136.976 68.9016 136.975 68.924 136.969C68.9463 136.963 68.9668 136.952 68.9836 136.936C69.0005 136.92 69.0131 136.901 69.0204 136.879C69.0278 136.857 69.0296 136.833 69.0256 136.811C69.0109 134.888 68.7863 132.974 68.3556 131.101C68.2856 130.821 67.7956 130.681 67.4956 130.591C64.2556 129.651 51.7456 128.391 48.9956 129.101C47.2056 129.571 34.8156 135.971 34.2556 137.331C33.6956 138.691 32.1756 146.871 31.8956 148.381C25.4156 150.271 20.3056 151.831 17.8056 152.681C17.7849 152.687 17.7658 152.698 17.7494 152.712C17.733 152.727 17.7198 152.744 17.7104 152.764C17.701 152.784 17.6958 152.805 17.695 152.827C17.6942 152.849 17.6978 152.87 17.7056 152.891C17.8256 153.261 21.1056 151.561 54.7056 142.731C55.0433 143.593 55.476 144.414 55.9956 145.181C54.9956 145.421 53.8656 145.861 53.5356 146.781C53.477 146.975 53.4673 147.181 53.5074 147.379C53.5475 147.578 53.6363 147.764 53.7656 147.921C54.586 148.839 55.6797 149.47 56.8856 149.721C59.0001 150.251 61.1973 150.366 63.3556 150.061C65.4282 149.88 67.4704 149.443 69.4356 148.761C71.5756 147.861 71.4356 146.521 70.6156 145.911C69.7706 145.414 68.8421 145.075 67.8756 144.911C68.7856 143.261 67.9356 143.991 69.2956 143.661C70.0652 143.477 70.7683 143.082 71.3256 142.521C72.2056 141.621 72.7956 139.401 71.9556 138.331C76.1756 137.331 93.1456 133.131 97.2956 133.441C104.826 133.991 159.576 156.501 172.536 160.841C172.556 160.847 172.577 160.85 172.599 160.848C172.62 160.846 172.641 160.84 172.66 160.83C172.679 160.821 172.696 160.807 172.71 160.791C172.724 160.775 172.734 160.756 172.741 160.736C172.747 160.715 172.75 160.694 172.748 160.672C172.746 160.651 172.74 160.63 172.731 160.611C172.721 160.592 172.707 160.575 172.691 160.561C172.675 160.548 172.656 160.537 172.636 160.531C169.246 159.351 161.686 156.341 152.636 152.721C153.076 151.661 154.236 148.241 155.136 147.061C155.506 146.581 155.486 146.541 158.786 146.731C167.436 147.231 175.056 147.001 183.356 144.351C188.426 142.721 190.916 138.961 192.356 133.931C192.646 134.021 193.436 134.281 193.716 134.341C193.796 134.36 193.879 134.36 193.959 134.341C194.039 134.322 194.113 134.284 194.176 134.231C195.166 133.221 194.996 125.011 194.996 123.041ZM58.2156 54.2805C57.945 54.3791 57.6528 54.4033 57.3697 54.3505C57.0865 54.2978 56.8226 54.17 56.6056 53.9805C56.3898 53.8078 56.2208 53.5835 56.1142 53.3284C56.0076 53.0733 55.9669 52.7955 55.9956 52.5205C55.9824 52.4794 55.986 52.4347 56.0057 52.3963C56.0254 52.3579 56.0595 52.3288 56.1006 52.3155C56.1418 52.3023 56.1865 52.3059 56.2249 52.3256C56.2633 52.3453 56.2924 52.3794 56.3056 52.4205C56.7994 53.1307 57.4967 53.6746 58.3056 53.9805C58.3314 54.0018 58.3503 54.0303 58.36 54.0623C58.3697 54.0942 58.3697 54.1284 58.3601 54.1604C58.3505 54.1924 58.3317 54.2209 58.306 54.2422C58.2803 54.2636 58.2489 54.2769 58.2156 54.2805ZM48.8256 45.5205C48.8598 45.2268 48.9778 44.949 49.1656 44.7205C49.3856 44.5005 50.0556 44.6405 50.5256 44.3205C50.8772 44.0427 51.1439 43.6721 51.2956 43.2505C51.8556 42.1405 52.7456 43.0005 53.9856 41.1705C54.3022 40.6559 54.5477 40.1009 54.7156 39.5205C55.4156 39.1905 56.3256 39.6705 57.2056 38.2205C57.4956 37.7305 57.6856 37.2205 58.2056 37.0805C58.5956 37.5005 58.9856 39.0805 60.5656 38.4705C60.5656 39.0105 60.4456 41.7405 60.4156 41.9605C60.286 42.6196 60.2157 43.2889 60.2056 43.9605C60.2056 45.9605 61.1256 47.0605 62.1456 49.1505C62.3056 49.4805 61.4656 49.8005 61.0456 50.0305C60.4531 49.8123 59.84 49.6548 59.2156 49.5605C57.2756 49.0905 55.7256 50.1005 54.0556 50.5605C53.7726 50.5623 53.4904 50.5287 53.2156 50.4605C52.5856 50.4005 51.9256 51.0405 51.0356 51.1605C50.8036 51.2061 50.5632 51.1809 50.3457 51.0881C50.1281 50.9954 49.9435 50.8395 49.8156 50.6405C49.7078 50.2743 49.6309 49.8996 49.5856 49.5205C49.4956 49.1605 49.3856 48.8005 49.3056 48.4505C49.1456 47.7305 49.6156 47.4505 49.0656 46.4505C48.6856 45.7705 48.6956 46.0705 48.8256 45.5205ZM49.2056 65.9205C49.879 64.6427 50.4282 63.3033 50.8456 61.9205C51.4056 65.4005 51.7056 67.1605 51.8456 68.0405C51.1156 67.4305 51.0456 67.2005 49.2056 65.8805V65.9205ZM52.2056 69.9905C52.6956 72.9905 52.5856 72.3105 52.6756 72.9305C52.4368 72.4805 52.1447 72.0609 51.8056 71.6805C51.9176 71.02 51.9678 70.3504 51.9556 69.6805L52.2056 69.9905ZM48.5856 71.7905C47.9885 71.1696 47.4433 70.5007 46.9556 69.7905C47.4501 68.6342 48.0076 67.5058 48.6256 66.4105C50.7256 68.0205 50.5656 68.0005 51.0856 68.6505C51.162 69.5022 51.162 70.3589 51.0856 71.2105L48.5856 71.7905ZM48.7156 72.4405C49.9056 75.0905 50.3856 79.4405 50.6356 82.3405C49.3873 78.6879 47.7088 75.1967 45.6356 71.9405C46.0411 71.3865 46.4022 70.8014 46.7156 70.1905C47.1275 70.9576 47.6203 71.6784 48.1856 72.3405C48.2579 72.386 48.3392 72.4149 48.4239 72.4253C48.5086 72.4356 48.5946 72.4272 48.6756 72.4005L48.7156 72.4405ZM42.7756 51.0405C42.857 51.0658 42.9408 51.0826 43.0256 51.0905C43.2585 51.0801 43.4817 50.9946 43.6619 50.8468C43.8422 50.699 43.9698 50.4968 44.0256 50.2705C44.1856 50.1705 44.3056 50.0605 44.2956 49.8705C44.2856 49.6805 42.1356 46.7405 44.8756 45.2305C45.1173 45.2043 45.3602 45.267 45.5589 45.4069C45.7577 45.5468 45.8987 45.7543 45.9556 45.9905C46.085 46.524 46.3583 47.0117 46.7456 47.4005C46.7759 48.0397 46.8596 48.6753 46.9956 49.3005C47.0756 49.6705 46.7956 50.1505 46.7356 50.6605C46.5956 51.6605 47.5656 52.7605 47.9156 53.6605C48.3856 54.8705 48.0656 56.1705 49.1856 57.2405C50.3056 58.3105 50.0956 57.4305 50.4856 59.8305C50.0191 61.7167 49.3763 63.5548 48.5656 65.3205C47.4356 63.7205 41.7156 54.3805 40.5656 52.2505C40.9956 51.9905 42.3356 51.2305 42.7356 51.0005L42.7756 51.0405ZM39.7756 52.3705C40.5056 54.0705 47.7756 65.5905 47.7756 65.6905C47.4256 66.8005 45.4156 71.4005 44.4656 71.9005C42.3756 70.4105 36.6456 54.7405 36.2356 53.3205C37.3638 52.8372 38.5507 52.5044 39.7656 52.3305L39.7756 52.3705ZM50.0956 96.5205C48.9956 96.1705 45.4456 84.1205 42.2756 77.4505C40.3756 73.4505 36.6456 66.8405 32.5756 65.0805C28.1756 63.1905 19.9956 67.7205 19.1256 73.6005C18.5944 77.4784 18.9083 81.4253 20.0456 85.1705C24.7656 99.4405 31.1556 110.821 44.8056 114.081C45.1256 113.441 43.9956 113.971 52.9756 114.211C52.5355 114.553 52.0672 114.857 51.5756 115.121C49.8956 116.031 46.7056 115.301 44.3456 115.041L44.6456 114.391C30.5856 111.251 24.0056 99.3905 19.2956 85.3905C18.1061 81.5325 17.765 77.4628 18.2956 73.4605C19.1956 67.1005 27.6656 62.5405 32.3556 64.1205C33.5515 64.5661 34.6462 65.2461 35.5756 66.1205C35.1297 62.1134 35.0193 58.076 35.2456 54.0505C35.4294 53.8873 35.6268 53.7401 35.8356 53.6105C36.6956 56.6105 41.5956 70.9505 44.0856 72.5405C44.2436 72.6339 44.4285 72.6709 44.6101 72.6454C44.7918 72.62 44.9594 72.5337 45.0856 72.4005C47.3356 76.2705 49.4356 80.2305 50.2756 84.4005C50.7509 86.702 50.8723 89.0625 50.6356 91.4005C49.2156 85.5205 45.2856 77.0205 40.8156 72.9505C45.3856 80.8405 48.7156 93.4605 50.2056 95.9505C50.8017 96.1148 51.4105 96.2286 52.0256 96.2905C51.7656 90.2905 51.5656 77.7805 49.0256 72.3505C49.3356 72.3505 51.5256 71.8805 51.5256 71.8805C51.9206 72.3548 52.2564 72.8752 52.5256 73.4305C52.9356 74.2205 52.7956 73.6205 53.4156 77.8205C56.4156 97.2105 56.2456 97.1105 56.6356 97.3205C54.6756 97.0705 51.2256 96.8605 50.0956 96.5205ZM56.7356 92.5205C52.8356 70.3805 52.7956 69.7605 51.1556 60.5205C51.2856 60.0805 51.3856 59.7205 51.4556 59.4605C52.0756 60.2505 55.4556 64.5805 55.8256 65.5305C55.2756 66.0205 53.2956 66.8605 53.8956 67.5305C54.1656 67.8405 56.3956 69.7705 57.0956 70.4705C57.4756 72.0805 56.8756 89.7205 56.7356 92.5205ZM32.2956 148.251C32.5756 146.981 34.4056 138.721 34.9156 137.561C35.2856 136.701 47.3456 130.301 49.2456 129.821C51.9856 129.101 66.9056 130.581 67.9456 131.251C68.4152 132.995 68.6902 134.786 68.7656 136.591C67.0856 134.591 54.0856 135.121 53.9456 137.941C53.9429 138.033 53.9623 138.125 54.0023 138.208C54.0423 138.292 54.1018 138.365 54.1756 138.421C54.1691 139.629 54.3067 140.834 54.5856 142.011C46.9056 144.081 39.2256 146.241 32.2956 148.251ZM70.4256 146.691C70.9356 148.341 64.9456 149.051 63.2156 149.251C61.1614 149.543 59.0701 149.438 57.0556 148.941C56.1756 148.701 54.5456 148.061 54.2356 147.261C54.0856 146.881 54.5756 146.521 54.9356 146.331C55.3918 146.092 55.8754 145.911 56.3756 145.791C56.9204 146.541 57.651 147.137 58.4956 147.521C59.4956 147.961 63.7656 147.651 65.2456 147.331C65.8956 147.191 66.5856 147.001 67.5656 145.431C68.1656 145.521 70.2556 146.141 70.4256 146.691ZM65.6456 146.341C64.8956 146.791 59.5956 147.151 58.7856 146.821C56.1056 145.751 54.6456 141.571 54.5356 138.621C56.7143 139.1 58.9503 139.265 61.1756 139.111C62.8456 138.891 66.7956 138.211 68.2456 137.481C69.1156 140.761 67.2756 145.391 65.6456 146.341ZM71.2356 141.181C70.9649 141.716 70.5847 142.189 70.1195 142.568C69.6544 142.947 69.1148 143.224 68.5356 143.381C69.0588 141.978 69.3067 140.487 69.2656 138.991C69.3446 138.825 69.4592 138.679 69.6012 138.564C69.7432 138.448 69.9091 138.365 70.087 138.321C70.2648 138.277 70.4502 138.273 70.6298 138.309C70.8094 138.345 70.9787 138.421 71.1256 138.531C71.8756 139.021 71.5456 140.331 71.2356 141.181ZM174.236 58.7905C180.996 62.5205 183.996 64.0805 186.156 67.3505C184.797 66.1822 183.068 65.5337 181.276 65.5205C174.866 65.3005 171.716 74.7905 170.076 80.9305C167.356 91.1705 169.026 104.131 168.876 106.031C167.146 107.641 158.286 112.241 154.326 114.391C154.876 112.071 156.836 103.121 158.116 99.5905C159.836 94.8505 164.786 83.8105 165.116 81.4105C165.206 80.7005 165.066 80.6105 162.966 79.2505C163.776 79.2505 165.966 79.0305 166.646 78.9005C166.936 78.9005 167.086 78.7705 167.196 78.1605C167.566 76.0405 168.286 58.5705 168.346 56.7105C168.276 56.6705 173.376 58.3005 174.266 58.7905H174.236ZM166.526 56.4005C166.981 56.3677 167.439 56.4186 167.876 56.5505C167.376 63.8005 166.876 76.5505 166.406 78.1805C165.876 78.2805 163.996 78.4105 163.266 78.4605C161.706 78.5505 161.666 78.4605 161.506 78.6805C161.346 78.9005 161.566 79.2005 161.856 79.4005C162.366 79.7605 164.066 80.8305 164.306 81.1105C164.075 82.3011 163.72 83.4642 163.246 84.5805C157.596 99.5805 157.936 94.9705 154.136 111.421C154.39 103.541 155.118 95.683 156.316 87.8905C157.116 83.6005 158.086 79.5705 161.316 70.3905C162.586 66.8405 165.216 60.0405 165.316 60.0805C165.817 58.8854 166.232 57.6555 166.556 56.4005H166.526ZM149.156 117.771C149.346 118.511 149.346 118.411 149.286 118.421L148.976 118.361C148.976 118.261 148.436 108.221 148.696 104.071C149.166 96.7205 149.766 88.7505 150.326 81.0705C150.596 77.3505 151.616 69.3605 151.586 69.6605L152.586 68.9205C153.001 69.7484 153.472 70.547 153.996 71.3105C154.196 71.5805 154.466 71.9205 154.786 71.9505C154.566 73.7605 151.236 96.0905 150.256 110.361C149.716 118.131 150.256 116.481 149.466 117.191C149.372 117.254 149.297 117.341 149.247 117.443C149.198 117.545 149.177 117.658 149.186 117.771H149.156ZM155.096 71.9605C155.856 71.9605 156.676 70.3605 157.676 69.6805C158.066 70.0905 159.246 72.0505 160.026 72.3105C156.716 81.3905 153.176 94.0505 153.186 114.951C152.336 115.411 151.186 116.071 150.336 116.561C150.836 108.051 154.456 80.1205 155.126 71.9605H155.096ZM165.596 58.5205C165.276 59.5205 160.526 70.9905 160.196 71.5205C159.68 71.015 159.221 70.455 158.826 69.8505C157.986 68.7205 157.696 68.3505 156.266 69.9605C158.386 65.9605 162.526 61.9005 164.266 59.8805C165.926 57.9805 165.706 58.1405 165.596 58.5205ZM143.196 37.5205C143.942 37.7503 144.74 37.7503 145.486 37.5205C146.057 37.2669 146.687 37.1769 147.306 37.2605C148.18 37.6634 149.078 38.0107 149.996 38.3005C151.131 38.2905 152.263 38.2003 153.386 38.0305C153.9 38.2708 154.335 38.6521 154.642 39.13C154.948 39.6079 155.112 40.1629 155.116 40.7305C153.252 41.0012 151.453 41.6077 149.806 42.5205C149.705 42.1922 149.504 41.9033 149.232 41.6938C148.96 41.4842 148.629 41.3643 148.286 41.3505C146.646 41.1532 144.99 41.1331 143.346 41.2905C143.2 40.0127 143.15 38.7258 143.196 37.4405V37.5205ZM142.806 46.0505C142.556 45.6105 142.066 42.2005 142.566 41.8305C142.646 41.9305 142.296 41.6205 144.196 41.6405C145.535 41.6828 146.87 41.803 148.196 42.0005C149.096 42.1605 149.246 42.5705 149.196 43.4405C149.196 45.0505 149.246 44.8905 149.196 45.3905C149.196 45.5305 149.136 45.9005 149.026 45.9805C146.969 46.3528 144.861 46.3494 142.806 45.9705V46.0505ZM151.996 57.3205C149.256 56.5405 146.746 56.4405 145.056 52.9605C143.966 50.7205 144.566 50.0705 143.576 49.7805C143.209 49.7368 142.847 49.6564 142.496 49.5405C142.496 48.8705 143.336 47.4705 143.496 46.7605C145.156 46.9591 146.835 46.9591 148.496 46.7605C149.496 46.6105 150.026 46.4405 149.866 44.4105V42.8605C151.436 42.3805 154.766 41.5905 155.166 41.4805C155.168 42.0245 155.242 42.5659 155.386 43.0905C155.542 43.4205 155.812 43.6831 156.146 43.8305C156.199 43.8543 156.257 43.8654 156.316 43.863C156.374 43.8606 156.431 43.8447 156.482 43.8167C156.534 43.7886 156.578 43.7491 156.611 43.7012C156.645 43.6533 156.667 43.5983 156.676 43.5405C156.906 42.6105 157.086 41.7805 157.156 41.3805C157.156 41.6005 157.246 40.6805 157.906 40.3205C158.906 39.8005 160.456 40.9605 160.566 42.6005C160.626 43.4005 159.826 44.8505 159.226 46.5205C158.866 47.5205 161.046 47.9505 161.806 48.3205C162.086 48.9705 161.916 49.7005 162.296 50.0905C162.866 50.4421 163.491 50.6956 164.146 50.8405C164.835 53.0509 165.337 55.3157 165.646 57.6105C163.106 60.2805 162.536 60.9205 161.856 61.6105C159.199 64.1348 156.946 67.0521 155.176 70.2605C154.466 66.0905 153.116 62.4105 152.966 61.2005C152.846 60.2605 153.046 58.6005 152.606 57.7105C152.539 57.6046 152.45 57.5148 152.344 57.4473C152.239 57.3799 152.12 57.3366 151.996 57.3205ZM152.286 60.7105C152.766 62.4905 154.046 68.2705 154.416 70.5905C153.806 69.6705 153.056 68.1505 153.056 68.1505C153.03 68.0963 152.992 68.0486 152.945 68.011C152.898 67.9735 152.843 67.947 152.784 67.9335C152.726 67.9201 152.665 67.92 152.606 67.9333C152.548 67.9467 152.493 67.9731 152.446 68.0105L151.716 68.5705C151.996 65.9705 152.276 63.3205 152.316 60.7105H152.286ZM151.996 59.8205C151.906 67.1805 150.436 73.7405 149.836 81.0705C147.836 105.711 147.836 104.501 148.036 113.221C146.956 105.341 145.446 90.0105 144.616 81.7005C145.206 81.2505 148.056 79.0805 148.376 78.4205C148.526 78.1005 148.376 77.7705 147.656 77.7705C146.404 77.8649 145.147 77.8649 143.896 77.7705C144.656 74.6705 149.006 63.3605 150.166 60.3605C150.756 60.1905 151.246 60.0205 151.996 59.8205ZM105.506 95.6605C107.056 94.0305 126.506 90.2305 127.566 89.2005C129.056 87.7005 133.156 78.3905 137.336 71.3305C140.886 65.3305 142.816 63.1105 149.726 60.5605C148.066 64.6705 144.826 72.7105 143.366 77.3905C143.276 77.6805 143.146 78.0005 143.366 78.1905C143.916 78.7305 146.216 78.4105 147.536 78.4305C146.606 79.3605 144.046 81.2505 144.046 81.2505C143.996 81.287 143.957 81.3357 143.933 81.3918C143.908 81.448 143.899 81.5096 143.906 81.5705C144.326 86.2105 146.906 113.901 148.026 117.921L146.226 117.461C145.062 116.889 143.799 116.55 142.506 116.461C144.786 105.121 143.966 101.951 144.246 95.7705C144.246 95.1305 141.546 82.2705 141.526 82.1705C141.526 82.1281 141.509 82.0874 141.479 82.0574C141.449 82.0274 141.408 82.0105 141.366 82.0105C141.323 82.0105 141.283 82.0274 141.253 82.0574C141.223 82.0874 141.206 82.1281 141.206 82.1705C141.376 86.5505 142.616 90.7205 143.466 95.5005C140.266 98.5005 136.916 102.651 131.466 104.001C128.096 104.851 112.316 108.291 110.216 108.441C108.496 106.521 105.236 96.9405 105.506 95.6605ZM103.606 96.9905C103.606 96.9905 104.806 96.7005 104.786 96.5105C105.719 100.024 106.896 103.469 108.306 106.821C107.397 107.102 106.467 107.312 105.526 107.451C104.956 107.451 105.356 107.951 103.966 104.651C103.109 102.599 102.374 100.499 101.766 98.3605C101.596 97.6705 101.306 97.7405 103.606 96.9905ZM91.8956 99.1005C92.6856 98.2305 93.2556 98.1005 101.156 99.1005C101.858 101.485 102.71 103.823 103.706 106.101C102.08 107.368 100.217 108.296 98.2256 108.831C98.1656 108.401 98.0256 108.531 98.3656 108.561C98.6528 108.569 98.9381 108.512 99.2006 108.395C99.4631 108.279 99.696 108.104 99.8821 107.886C100.068 107.667 100.203 107.409 100.276 107.131C100.35 106.853 100.36 106.563 100.306 106.281C100.226 105.281 97.3656 103.201 96.5556 102.631C97.0365 102.73 97.5354 102.691 97.9956 102.521C98.0368 102.507 98.0709 102.478 98.0906 102.44C98.1103 102.401 98.1139 102.357 98.1006 102.316C98.0874 102.274 98.0583 102.24 98.0199 102.221C97.9814 102.201 97.9368 102.197 97.8956 102.211C96.2156 102.651 94.5156 100.651 94.2956 100.591C93.5256 100.401 94.0056 102.191 92.2956 103.261C92.0456 103.421 91.0856 103.061 91.0256 102.571C90.8998 101.964 90.9126 101.337 91.0633 100.736C91.214 100.135 91.4985 99.576 91.8956 99.1005ZM80.7156 102.251C81.9956 101.791 88.5156 99.7705 90.3956 100.251C90.184 101.049 90.1364 101.883 90.2556 102.701C90.3192 102.96 90.438 103.203 90.604 103.413C90.7699 103.623 90.9792 103.794 91.2174 103.916C91.4556 104.037 91.7172 104.106 91.9844 104.117C92.2516 104.128 92.5181 104.082 92.7656 103.981C93.4626 103.516 93.9864 102.834 94.2556 102.041C95.1456 102.581 99.5656 105.511 99.5056 106.551C99.5056 107.251 99.1356 107.841 98.4356 107.781C97.8447 107.569 97.286 107.276 96.7756 106.911C96.2621 106.5 95.7208 106.126 95.1556 105.791C95.0658 105.744 94.9618 105.732 94.8638 105.758C94.7658 105.783 94.6807 105.844 94.6248 105.928C94.569 106.013 94.5463 106.115 94.5612 106.215C94.5761 106.315 94.6276 106.406 94.7056 106.471C94.7056 106.471 95.4556 107.031 96.2856 107.571C97.5356 108.571 97.9656 109.491 96.4156 109.961C96.173 110.033 95.9181 110.054 95.6669 110.023C95.4157 109.992 95.1735 109.909 94.9556 109.781C94.7008 109.277 94.3627 108.821 93.9556 108.431C93.774 107.963 93.4483 107.566 93.0258 107.296C92.6033 107.027 92.1059 106.899 91.6056 106.931C91.0856 106.991 91.0456 107.251 91.0956 107.011C91.3356 105.821 89.8156 105.101 88.7556 105.301C87.0456 105.641 86.0956 107.901 85.5356 109.551C85.1956 110.271 86.5356 109.471 80.6856 111.551C80.8505 108.646 80.8505 105.735 80.6856 102.831C80.6356 102.141 80.6156 102.301 80.7156 102.251ZM85.8156 109.661C86.3656 108.481 87.5756 106.271 88.8656 106.071C89.3656 105.981 90.3756 106.321 90.2656 106.831C90.0491 108.185 89.4247 109.441 88.4756 110.431C88.5956 110.631 85.4656 110.691 85.8156 109.661ZM91.4756 107.751C91.7156 107.511 93.1156 108.001 93.1556 108.751C93.2256 110.001 92.0356 111.491 91.0056 112.181C90.6756 112.411 89.3756 111.351 89.0756 110.921C89.7899 109.802 90.5925 108.742 91.4756 107.751ZM93.1656 111.081C93.2356 110.981 94.2356 108.761 94.4056 110.601C94.4756 111.321 93.4056 111.701 92.7056 111.601C92.8683 111.436 93.0219 111.262 93.1656 111.081ZM115.406 124.081C111.196 127.351 110.596 131.651 111.286 136.781C104.526 134.381 99.3656 132.781 97.3556 132.611C94.6352 132.667 91.9277 133.002 89.2756 133.611C89.5456 130.921 89.4256 121.481 87.5156 119.541C85.6056 117.601 78.6756 114.951 76.0656 113.951H76.6556C76.8856 113.831 76.5056 112.781 77.3756 112.721C78.4256 112.661 79.8956 113.061 80.3756 112.641C80.519 112.423 80.6018 112.171 80.6156 111.911C81.7156 111.561 84.3056 110.771 85.6156 110.431C86.056 110.78 86.5716 111.023 87.1217 111.139C87.6719 111.255 88.2415 111.242 88.7856 111.101C89.0856 111.771 90.4856 113.241 91.3556 112.761C91.597 112.621 91.8276 112.464 92.0456 112.291C92.6782 112.466 93.3499 112.438 93.9656 112.211C94.2915 112.122 94.5822 111.935 94.7986 111.676C95.015 111.416 95.1466 111.097 95.1756 110.761C95.6992 110.911 96.2575 110.887 96.7662 110.692C97.2749 110.497 97.7065 110.142 97.9956 109.681C100.188 109.188 102.24 108.203 103.996 106.801C104.186 107.211 104.366 107.561 104.516 107.801C104.565 107.885 104.635 107.956 104.719 108.006C104.803 108.057 104.898 108.086 104.996 108.091C105.996 108.191 108.356 107.091 108.456 107.091C108.798 107.805 109.225 108.477 109.726 109.091C109.906 109.271 110.206 109.221 110.486 109.191C113.386 108.841 127.786 105.741 131.636 104.781C136.636 103.531 139.896 100.021 143.326 96.6805C143.136 102.421 143.886 105.221 141.616 116.491C136.896 117.077 132.219 117.973 127.616 119.171C123.586 120.321 118.786 121.461 115.406 124.091V124.081ZM129.996 143.811L129.646 143.671C129.566 138.591 130.826 133.911 134.546 130.441C134.875 130.524 135.209 130.588 135.546 130.631C131.716 133.911 130.206 138.691 129.996 143.811ZM145.786 127.141C142.786 128.901 143.666 129.851 140.916 130.141C138.712 130.292 136.499 130.12 134.346 129.631C132.606 129.071 133.526 128.401 135.346 128.201C135.656 128.251 138.096 128.271 139.246 128.201C139.34 128.186 139.425 128.138 139.487 128.065C139.549 127.993 139.583 127.901 139.583 127.806C139.583 127.71 139.549 127.618 139.487 127.546C139.425 127.474 139.34 127.426 139.246 127.411C137.949 127.299 136.645 127.279 135.346 127.351C134.518 127.339 133.694 127.241 132.886 127.061C132.805 126.929 132.758 126.78 132.75 126.627C132.741 126.473 132.771 126.32 132.836 126.181C133.886 125.551 138.836 125.791 139.656 125.761C139.752 125.745 139.84 125.696 139.903 125.622C139.967 125.548 140.002 125.453 140.002 125.356C140.002 125.258 139.967 125.163 139.903 125.089C139.84 125.015 139.752 124.966 139.656 124.951C138.015 124.985 136.374 124.898 134.746 124.691C134.046 124.571 132.416 124.221 132.536 123.511C132.756 122.231 135.386 123.331 137.236 123.201C138.541 123.181 139.833 122.937 141.056 122.481C141.147 122.453 141.224 122.39 141.269 122.305C141.314 122.221 141.324 122.122 141.296 122.031C141.268 121.939 141.205 121.862 141.12 121.817C141.036 121.772 140.937 121.763 140.846 121.791C139.594 122.091 138.325 122.312 137.046 122.451C136.965 122.434 136.892 122.388 136.843 122.322C136.793 122.255 136.769 122.173 136.776 122.091C136.79 121.904 136.837 121.721 136.916 121.551C137.431 120.878 138.124 120.362 138.916 120.061C141.756 118.881 143.916 120.061 147.166 120.271C147.573 122.12 148.091 123.943 148.716 125.731C147.719 126.129 146.753 126.6 145.826 127.141H145.786ZM149.606 125.921C149.256 124.741 147.956 120.461 147.826 119.461C148.342 119.208 148.885 119.017 149.446 118.891C149.906 120.601 150.756 123.571 151.306 125.231C150.769 125.499 150.214 125.729 149.646 125.921H149.606ZM152.436 125.921C151.906 124.721 150.336 119.131 149.976 117.731C151.696 116.321 167.136 108.731 169.436 106.421C170.156 105.701 167.726 92.1505 170.576 81.0005C172.096 75.0005 175.076 65.5705 181.226 65.7805C185.446 65.9205 187.856 69.1405 189.226 73.1605C191.736 80.5605 190.736 90.8305 190.736 90.7305C190.736 99.1205 187.736 111.731 181.736 117.731C177.206 122.271 155.256 126.431 152.476 125.951L152.436 125.921ZM193.666 133.521C192.496 133.211 187.126 131.231 184.856 131.041C173.066 130.041 173.796 127.801 166.506 124.601C170.506 123.601 179.396 121.281 182.346 118.361C188.576 112.181 191.456 99.4405 191.426 90.8205C191.657 87.8016 191.657 84.7694 191.426 81.7505C193.636 94.2905 194.996 129.721 193.666 133.521Z" fill="white"/>
<path fill-rule="evenodd" clip-rule="evenodd" d="M39.0456 65.9206L35.7656 66.3006C36.7656 67.241 37.6761 68.2721 38.4856 69.3806L39.3956 66.3806C39.4234 66.3269 39.4353 66.2663 39.4301 66.206C39.4248 66.1458 39.4026 66.0882 39.366 66.0401C39.3293 65.9919 39.2798 65.9551 39.2231 65.934C39.1664 65.9128 39.1048 65.9082 39.0456 65.9206ZM133.906 157.181C133.081 156.658 132.17 156.286 131.216 156.081C133.486 152.391 133.076 148.081 132.476 147.701C131.911 147.125 131.159 146.77 130.356 146.701C127.356 146.071 120.086 146.021 118.166 147.621C117.746 147.971 117.496 148.541 117.906 148.921C117.71 151.291 118.207 153.667 119.336 155.761C118.336 155.951 117.176 156.331 116.796 157.231C116.73 157.424 116.712 157.631 116.744 157.833C116.775 158.035 116.855 158.226 116.976 158.391C117.743 159.343 118.794 160.026 119.976 160.341C122.063 160.976 124.253 161.203 126.426 161.011C128.502 160.926 130.56 160.59 132.556 160.011C134.766 159.191 134.746 157.841 133.906 157.181ZM118.256 149.101C120.405 149.688 122.628 149.964 124.856 149.921C127.285 149.754 129.684 149.284 131.996 148.521C132.196 149.896 132.122 151.298 131.779 152.645C131.436 153.992 130.83 155.258 129.996 156.371C129.794 156.724 129.503 157.018 129.152 157.223C128.801 157.429 128.402 157.538 127.996 157.541C126.596 157.721 122.776 157.821 121.996 157.471C119.466 156.301 118.216 152.051 118.256 149.101ZM126.386 160.101C124.321 160.296 122.239 160.086 120.256 159.481C119.358 159.236 118.531 158.78 117.846 158.151C117.686 157.981 117.426 157.641 117.506 157.431C117.766 156.771 119.036 156.431 119.736 156.311C120.237 157.075 120.925 157.698 121.736 158.121C122.736 158.631 128.276 158.571 129.306 158.041C129.948 157.649 130.492 157.115 130.896 156.481C131.486 156.651 133.546 157.351 133.686 157.911C134.136 159.631 128.186 160.041 126.386 160.151V160.101Z" fill="white"/>
</svg>
