<svg width="200" height="200" viewBox="0 0 200 200" fill="none" xmlns="http://www.w3.org/2000/svg">
<path d="M95.9269 94.6394C96.2926 94.751 96.6871 94.7207 97.0315 94.5544C97.3759 94.3882 97.645 94.0982 97.7851 93.7423C97.9251 93.3864 97.9259 92.9908 97.7872 92.6344C97.6485 92.278 97.3806 91.987 97.0369 91.8194C96.7274 91.6976 96.3931 91.6522 96.0624 91.687C95.7317 91.7219 95.4142 91.8358 95.1369 92.0193C94.9266 92.2127 94.7751 92.4614 94.6996 92.7369C94.6242 93.0124 94.6279 93.3036 94.7104 93.577C94.7929 93.8505 94.9507 94.0952 95.1659 94.2831C95.381 94.471 95.6448 94.5945 95.9269 94.6394ZM95.3569 93.0993C95.3569 92.2594 97.0269 92.1593 97.1869 93.0993C97.4969 94.4093 95.3069 94.3293 95.3569 93.0993ZM94.7569 30.6394C93.2169 32.4494 93.5869 34.7794 96.0069 35.9194C96.5544 35.7782 97.1132 35.6845 97.6769 35.6394C98.3194 35.6815 98.9578 35.7718 99.5869 35.9094C100.254 35.5084 100.773 34.9014 101.065 34.1799C101.357 33.4585 101.407 32.6616 101.207 31.9094C101.021 31.2552 100.657 30.6652 100.157 30.2046C99.6562 29.744 99.0381 29.4307 98.3708 29.2993C97.7034 29.1678 97.0127 29.2235 96.3749 29.46C95.7372 29.6964 95.1772 30.1046 94.7569 30.6394ZM94.1969 47.9994C94.1851 47.9404 94.1533 47.8873 94.1068 47.8491C94.0603 47.811 94.002 47.7901 93.9419 47.7901C93.8817 47.7901 93.8234 47.811 93.7769 47.8491C93.7304 47.8873 93.6986 47.9404 93.6869 47.9994C93.6126 48.5565 93.5692 49.1174 93.5569 49.6794C93.5832 49.7594 93.6341 49.8291 93.7023 49.8785C93.7705 49.9279 93.8526 49.9545 93.9369 49.9545C94.0211 49.9545 94.1032 49.9279 94.1714 49.8785C94.2397 49.8291 94.2905 49.7594 94.3169 49.6794C94.3669 49.5094 94.1969 48.1694 94.1969 47.9994ZM102.087 48.1794C102.075 48.1204 102.043 48.0673 101.997 48.0291C101.95 47.991 101.892 47.9701 101.832 47.9701C101.772 47.9701 101.713 47.991 101.667 48.0291C101.62 48.0673 101.589 48.1204 101.577 48.1794C101.577 48.3194 101.407 49.6694 101.457 49.8594C101.483 49.9394 101.534 50.0091 101.602 50.0585C101.671 50.1079 101.753 50.1345 101.837 50.1345C101.921 50.1345 102.003 50.1079 102.071 50.0585C102.14 50.0091 102.191 49.9394 102.217 49.8594C102.267 49.6694 102.087 48.3294 102.087 48.1794ZM94.2669 44.7094C93.0669 44.6094 92.5169 46.4694 92.4969 46.5494C92.4796 46.6064 92.4857 46.6679 92.5139 46.7204C92.542 46.7729 92.5898 46.8121 92.6469 46.8294C92.7039 46.8466 92.7654 46.8405 92.8179 46.8123C92.8704 46.7842 92.9096 46.7364 92.9269 46.6794C92.9869 46.5294 93.6269 45.4394 94.3769 45.4794C94.7569 45.5094 94.9469 44.7594 94.2669 44.7094ZM102.387 46.8194C102.368 46.467 102.243 46.1286 102.026 45.8498C101.81 45.571 101.514 45.3649 101.177 45.2594C101.076 45.2328 100.969 45.2474 100.879 45.2999C100.789 45.3525 100.723 45.4386 100.697 45.5394C100.67 45.6401 100.685 45.7473 100.737 45.8373C100.79 45.9274 100.876 45.9928 100.977 46.0194C101.223 46.1067 101.443 46.254 101.617 46.4478C101.792 46.6416 101.916 46.8758 101.977 47.1294C101.993 47.1837 102.03 47.2295 102.079 47.2567C102.129 47.2839 102.187 47.2903 102.242 47.2744C102.296 47.2584 102.342 47.2216 102.369 47.1719C102.396 47.1222 102.403 47.0637 102.387 47.0094C102.387 47.0094 102.407 46.8994 102.387 46.8194ZM97.7569 52.1294C97.7969 52.1162 97.8317 52.0908 97.8564 52.0566C97.8811 52.0225 97.8944 51.9815 97.8944 51.9394C97.8944 51.8972 97.8811 51.8562 97.8564 51.8221C97.8317 51.788 97.7969 51.7625 97.7569 51.7494C97.2969 51.6594 96.7569 51.6294 96.7569 51.1794C96.8097 50.6179 96.8965 50.0602 97.0169 49.5094C97.0224 49.4597 97.0101 49.4096 96.982 49.3682C96.954 49.3268 96.9121 49.2967 96.8638 49.2835C96.8156 49.2702 96.7642 49.2746 96.719 49.2958C96.6737 49.3171 96.6375 49.3538 96.6169 49.3994C96.3681 50.0441 96.1937 50.7151 96.0969 51.3994C96.1169 51.9994 96.7569 52.4494 97.7569 52.1294ZM99.0069 53.4394C98.7868 53.6776 98.5165 53.864 98.2156 53.985C97.9147 54.1061 97.5906 54.1588 97.2669 54.1394C97.0449 54.1022 96.8333 54.0189 96.6455 53.8949C96.4578 53.7709 96.2981 53.6089 96.1769 53.4194C96.149 53.3676 96.1018 53.3291 96.0455 53.3122C95.9892 53.2953 95.9286 53.3015 95.8769 53.3294C95.8251 53.3572 95.7866 53.4045 95.7697 53.4607C95.7528 53.517 95.759 53.5776 95.7869 53.6294C95.9468 53.9761 96.1974 54.2731 96.5122 54.4892C96.827 54.7053 97.1944 54.8323 97.5754 54.8569C97.9564 54.8815 98.337 54.8027 98.677 54.6289C99.017 54.4551 99.3037 54.1926 99.5069 53.8694C99.6369 53.5394 99.2769 53.1994 99.0069 53.4394ZM98.8969 112.859C98.9219 112.877 98.9515 112.886 98.9819 112.886C99.0122 112.886 99.0418 112.877 99.0669 112.859C100.137 112.189 108.187 105.789 108.847 105.219C108.869 105.199 108.884 105.172 108.891 105.143C108.898 105.114 108.896 105.083 108.885 105.055C108.874 105.028 108.855 105.003 108.831 104.986C108.806 104.969 108.777 104.96 108.747 104.959C108.747 104.959 92.2469 104.639 89.3369 104.539C89.1669 104.539 89.1369 104.719 89.2269 104.799C89.7569 105.319 96.1469 110.749 98.8969 112.859ZM133.657 189.889C134.407 188.359 133.007 185.789 132.377 184.749C132.365 184.724 132.345 184.703 132.322 184.688C132.298 184.673 132.27 184.665 132.242 184.665C132.214 184.665 132.186 184.673 132.162 184.688C132.138 184.703 132.119 184.724 132.107 184.749C131.597 185.749 130.527 188.369 131.547 189.879C132.237 190.999 133.117 191.079 133.657 189.889ZM72.7569 179.139C72.6569 179.199 65.3369 183.409 65.0569 183.839C64.7769 184.269 64.7869 184.589 65.1669 184.619C68.1669 184.809 69.3169 185.059 69.4369 185.199C69.6269 185.869 69.8369 188.589 70.2369 189.129C70.2795 189.196 70.3404 189.249 70.4124 189.282C70.4844 189.314 70.5643 189.325 70.6425 189.314C70.7207 189.302 70.7938 189.268 70.8532 189.216C70.9125 189.164 70.9554 189.095 70.9769 189.019C71.3969 187.439 72.7169 182.519 72.9769 181.709C73.2369 180.899 73.6769 178.809 72.7569 179.139ZM72.6169 180.079C72.5169 180.739 72.0369 182.649 70.6169 187.529C70.4994 186.511 70.2851 185.507 69.9769 184.529C68.7801 184.171 67.5445 183.96 66.2969 183.899C68.3569 182.619 70.5169 181.389 72.5869 180.079H72.6169ZM77.9269 183.269C78.0091 183.262 78.0862 183.226 78.1452 183.168C78.2042 183.11 78.2415 183.034 78.2508 182.952C78.2602 182.87 78.2411 182.787 78.1967 182.717C78.1522 182.648 78.0852 182.595 78.0069 182.569C77.6369 182.461 77.2519 182.414 76.8669 182.429V180.979C76.8669 180.91 76.8395 180.844 76.7907 180.796C76.7419 180.747 76.6758 180.719 76.6069 180.719C76.5379 180.719 76.4718 180.747 76.423 180.796C76.3742 180.844 76.3469 180.91 76.3469 180.979C76.3469 181.499 76.2569 181.979 76.2169 182.469C75.7469 182.469 75.2769 182.559 74.7869 182.629C74.2969 182.699 74.5069 183.259 74.8669 183.229C75.2898 183.204 75.7139 183.204 76.1369 183.229C76.1369 183.669 76.0469 184.139 76.0269 184.589C76.0427 184.693 76.0953 184.788 76.1751 184.857C76.2549 184.925 76.3566 184.963 76.4619 184.963C76.5671 184.963 76.6688 184.925 76.7486 184.857C76.8285 184.788 76.881 184.693 76.8969 184.589V183.259C77.2396 183.285 77.5837 183.288 77.9269 183.269ZM102.017 177.799C101.931 177.548 101.772 177.327 101.56 177.167C101.348 177.006 101.092 176.913 100.827 176.899C99.9069 176.899 99.0469 178.029 98.3169 179.079H98.2469C97.5369 178.579 97.3169 178.579 96.6569 179.279C95.7769 180.229 96.1469 180.399 97.2869 181.279C96.5169 182.349 94.5769 185.109 94.2869 185.609C93.9969 186.109 93.1469 187.519 94.0869 188.299C94.2798 188.437 94.5133 188.508 94.7504 188.498C94.9876 188.489 95.215 188.402 95.3969 188.249C96.8493 186.488 98.1855 184.634 99.3969 182.699C100.397 183.299 100.477 183.419 101.257 182.779C101.37 182.705 101.465 182.607 101.534 182.491C101.604 182.374 101.645 182.244 101.657 182.109C101.657 181.619 101.067 181.279 100.657 180.949C101.007 180.439 101.317 179.949 101.597 179.439C101.783 179.213 101.916 178.949 101.989 178.666C102.062 178.383 102.071 178.087 102.017 177.799ZM98.8569 179.449C99.188 179.002 99.5418 178.571 99.9169 178.159C100.407 177.629 100.767 177.499 101.097 177.729C101.657 178.099 101.347 178.429 100.197 180.519L98.8569 179.449ZM94.6069 187.789C94.0369 187.659 94.4069 186.789 94.6769 186.269C94.9469 185.749 96.9769 182.809 97.7569 181.619C98.0669 181.839 98.5869 182.179 98.8369 182.329C98.1569 183.489 96.2269 186.329 95.8369 186.769C95.4469 187.209 95.0869 187.899 94.6069 187.789ZM97.4569 179.309L97.6169 179.369C97.7769 179.429 101.037 182.089 101.037 182.149C100.891 182.365 100.7 182.546 100.477 182.679C100.097 182.379 97.7369 180.779 96.8569 180.089C97.0402 179.817 97.2406 179.556 97.4569 179.309ZM119.517 184.299C119.517 184.299 124.057 189.169 124.457 189.299C125.127 189.479 128.747 185.299 129.227 184.739C129.697 185.139 129.937 185.209 130.467 184.679C130.795 184.336 131.068 183.945 131.277 183.519C131.312 183.454 131.325 183.378 131.314 183.305C131.303 183.231 131.269 183.162 131.217 183.109C126.127 177.949 125.217 176.989 125.007 176.909C124.347 176.629 124.007 177.439 123.617 177.729C123.077 178.249 122.787 178.409 123.677 179.409C119.617 183.809 119.297 183.779 119.517 184.299ZM123.797 178.429C124.063 178.122 124.362 177.844 124.687 177.599C124.687 177.599 127.687 180.599 130.527 183.399C130.345 183.738 130.124 184.054 129.867 184.339C129.757 184.229 123.957 178.599 123.757 178.429H123.797ZM128.797 184.279C124.437 188.899 124.877 188.719 124.417 188.279C124.147 188.049 120.797 184.599 120.287 184.009C120.647 183.609 123.967 180.009 124.187 179.809C124.137 179.849 128.077 183.659 128.757 184.279H128.797Z" fill="#4C2FB3"/>
<path d="M123.517 182.17C122.517 183.23 121.737 183.54 121.847 184.11C122.336 184.833 122.899 185.504 123.527 186.11C123.566 186.141 123.613 186.158 123.663 186.159C123.712 186.16 123.761 186.144 123.8 186.114C123.839 186.084 123.867 186.041 123.879 185.993C123.892 185.945 123.887 185.895 123.867 185.85C123.867 185.85 123.077 184.5 122.737 184.05C122.817 183.95 123.667 182.81 123.897 182.55C123.948 182.499 123.976 182.431 123.976 182.36C123.976 182.288 123.948 182.22 123.897 182.17C123.847 182.119 123.779 182.091 123.707 182.091C123.636 182.091 123.568 182.119 123.517 182.17Z" fill="#4C2FB3"/>
<path d="M138.277 194.439L113.757 194.279C113.757 192.569 113.207 178.369 113.167 177.159C113.167 176.789 112.577 176.789 112.597 177.159C112.597 178.159 112.957 193.339 113.007 194.269H86.3165C86.3165 192.649 86.0565 179.939 86.0365 179.069C86.0365 178.998 86.0081 178.929 85.9574 178.878C85.9068 178.828 85.8381 178.799 85.7665 178.799C85.6949 178.799 85.6262 178.828 85.5756 178.878C85.525 178.929 85.4965 178.998 85.4965 179.069V194.269C83.4165 194.269 61.4965 194.269 58.4965 194.489C58.4326 194.502 58.3749 194.536 58.3334 194.586C58.2919 194.636 58.2692 194.699 58.2692 194.764C58.2692 194.829 58.2919 194.893 58.3334 194.943C58.3749 194.993 58.4326 195.027 58.4965 195.039C61.1665 195.159 135.877 195.299 138.327 194.729C138.359 194.717 138.386 194.694 138.403 194.663C138.42 194.633 138.427 194.598 138.421 194.564C138.415 194.53 138.397 194.498 138.371 194.476C138.345 194.453 138.311 194.44 138.277 194.439ZM66.3565 13.9993C66.5865 14.3993 68.9265 14.5293 69.1365 14.4493C69.2745 14.4008 69.3936 14.3098 69.4765 14.1893C70.2697 14.8509 71.1012 15.4653 71.9665 16.0293C72.09 16.129 72.2329 16.2019 72.3862 16.2432C72.5394 16.2846 72.6996 16.2934 72.8565 16.2693C73.2765 16.1493 81.1665 11.4493 81.2865 11.3693C81.8065 11.0493 81.8165 10.7293 81.7465 10.5193C81.5965 10.1093 73.5365 6.32928 72.2465 4.91928C72.2091 4.89222 72.1668 4.87282 72.1219 4.86219C72.077 4.85156 72.0304 4.84992 71.9849 4.85736C71.9393 4.86479 71.8957 4.88116 71.8565 4.90551C71.8173 4.92987 71.7833 4.96174 71.7565 4.99928C70.7565 6.14928 69.8665 7.32928 68.9565 8.49928C68.0403 8.47105 67.1246 8.57204 66.2365 8.79928C66.1385 10.5331 66.1786 12.2719 66.3565 13.9993ZM73.2265 10.9993C73.1245 11.2786 72.9306 11.5148 72.6765 11.6693C72.1765 11.8393 71.6765 11.3693 71.5065 11.1593C70.9565 10.5193 72.2065 9.15928 73.0365 10.2293C73.1402 10.3376 73.2126 10.4719 73.2461 10.6181C73.2795 10.7642 73.2728 10.9167 73.2265 11.0593V10.9993ZM72.5065 9.14928C72.2072 9.0967 71.8992 9.1283 71.6169 9.24055C71.3345 9.35281 71.0889 9.54131 70.9074 9.78502C70.7259 10.0287 70.6157 10.3181 70.589 10.6208C70.5624 10.9235 70.6204 11.2276 70.7565 11.4993C70.9606 11.8351 71.2592 12.1034 71.6149 12.2706C71.9706 12.4378 72.3677 12.4964 72.7565 12.4393C73.025 12.3413 73.2636 12.1757 73.4493 11.9585C73.635 11.7412 73.7615 11.4797 73.8165 11.1993C74.9165 11.1993 78.6965 11.1993 80.2065 11.1293L72.7565 15.4693C72.3365 15.2893 69.8765 13.4693 69.5765 13.2293C69.5765 12.6793 69.5765 9.38928 69.5065 8.85928C70.3465 7.85928 71.2065 6.78928 72.0265 5.71928C73.2465 6.71928 78.8765 9.71928 80.5265 10.5893H73.8465C73.803 10.2451 73.6487 9.92434 73.407 9.67543C73.1653 9.42652 72.8493 9.26292 72.5065 9.20928V9.14928ZM66.9065 9.32928L68.7565 9.25928C68.7565 9.56928 68.8765 13.2593 68.8265 13.7793C68.1951 13.8209 67.5611 13.7907 66.9365 13.6893C66.9965 12.9993 66.9465 10.1693 66.9065 9.38928V9.32928ZM35.5965 61.8993C35.7014 61.9598 35.8204 61.9917 35.9415 61.9917C36.0626 61.9917 36.1816 61.9598 36.2865 61.8993C37.0765 61.5093 38.6465 60.1393 43.2265 57.1093C43.3609 57.0363 43.4768 56.9334 43.5652 56.8086C43.6536 56.6838 43.7122 56.5403 43.7365 56.3893C43.7365 56.3893 43.9065 52.1193 43.6665 51.9793C42.8965 51.4993 40.6665 49.9793 40.0265 50.0793C39.9465 50.0793 31.5065 55.3393 31.4865 55.5893C31.4029 56.6806 31.3862 57.776 31.4365 58.8693C32.7557 59.9689 34.1453 60.981 35.5965 61.8993ZM32.0465 56.2793C32.8165 56.7993 34.9665 58.2793 35.5565 58.5793V60.8593C31.8165 58.3593 32.0565 58.7793 32.0865 58.0393C32.0965 57.6293 32.0665 56.6693 32.0465 56.2793ZM35.9665 57.7493C35.9028 57.7964 35.8257 57.8218 35.7465 57.8218C35.6673 57.8218 35.5902 57.7964 35.5265 57.7493C35.3665 57.6493 33.1265 56.0493 32.5265 55.6193C40.3865 50.6193 40.1065 50.5593 40.5265 50.7093C40.7265 50.7893 41.6665 51.3893 42.9365 52.2293C41.4365 53.5093 36.1165 57.6493 35.9665 57.7493ZM42.9665 56.4193C42.7565 56.6193 37.3465 60.2093 36.1465 60.9893V58.4893C36.8565 57.9493 41.5465 54.2693 43.0065 53.0193C43.0465 56.3193 43.1065 56.3193 43.0165 56.4193H42.9665ZM146.437 62.5093C148.304 62.4657 150.121 61.8936 151.677 60.8593C152.452 60.3704 153.037 59.6297 153.332 58.7613C153.627 57.893 153.614 56.9496 153.297 56.0893C153.957 55.5893 156.067 53.7993 156.477 53.4093C157.327 53.4593 158.317 51.9493 158.847 51.1293C159.067 50.7893 159.357 50.4393 159.207 50.0493C157.857 48.6205 156.428 47.2684 154.927 45.9993C154.826 45.8931 154.696 45.82 154.553 45.7897C154.41 45.7593 154.261 45.7731 154.127 45.8293C153.131 46.7949 152.233 47.8567 151.447 48.9993C151.412 49.1473 151.43 49.3028 151.497 49.4393C151.497 49.5093 150.107 53.5393 149.937 54.0293C149.188 54.1048 148.493 54.4516 147.983 55.0043C147.473 55.557 147.182 56.2772 147.167 57.0293C147.047 59.9493 149.357 60.8893 146.347 61.9693C146.305 62.0051 146.273 62.0512 146.254 62.1029C146.235 62.1546 146.23 62.2104 146.239 62.2646C146.248 62.3189 146.271 62.37 146.306 62.4128C146.34 62.4557 146.385 62.4889 146.437 62.5093ZM152.217 49.1793C152.866 48.2249 153.632 47.3549 154.497 46.5893C155.037 47.0193 158.157 49.8993 158.497 50.3693C158.247 50.7993 156.847 52.6193 156.497 52.6593C156.467 52.6293 152.347 49.2993 152.217 49.1793ZM152.937 55.4393C152.427 54.6921 151.644 54.1749 150.757 53.9993C150.957 53.3293 151.687 50.8793 151.937 49.8893C152.697 50.5393 154.577 52.1193 155.727 53.0293C155.277 53.4793 153.577 54.9293 152.937 55.4393ZM148.037 61.7193C148.817 61.0093 148.627 60.0793 148.267 59.1893C147.627 57.1893 147.817 55.8993 148.887 55.1893C149.163 55.0141 149.471 54.8958 149.793 54.8412C150.116 54.7866 150.446 54.7968 150.764 54.8713C151.083 54.9458 151.383 55.083 151.648 55.275C151.913 55.467 152.137 55.7098 152.307 55.9893C153.887 58.4793 150.927 61.1493 148.037 61.7193ZM83.9165 10.9993C84.3265 10.9993 86.7265 10.6893 88.9165 10.4593C88.9934 10.4593 89.0672 10.4287 89.1216 10.3743C89.176 10.32 89.2065 10.2462 89.2065 10.1693C89.2065 10.0924 89.176 10.0186 89.1216 9.96422C89.0672 9.90983 88.9934 9.87928 88.9165 9.87928C88.0965 9.95928 84.2465 10.1893 83.8265 10.2793C83.7454 10.3063 83.6761 10.3607 83.6305 10.433C83.585 10.5054 83.5658 10.5913 83.5764 10.6762C83.587 10.761 83.6267 10.8396 83.6887 10.8985C83.7507 10.9574 83.8312 10.993 83.9165 10.9993ZM91.7565 10.3593C92.0265 10.3593 97.3365 9.91928 98.5065 9.97928C98.8965 9.97928 98.9265 9.40928 98.5065 9.37928C96.221 9.26783 93.9302 9.3414 91.6565 9.59928C91.5701 9.6276 91.4963 9.68523 91.4479 9.76219C91.3995 9.83914 91.3795 9.9306 91.3913 10.0207C91.4032 10.1109 91.4462 10.1941 91.5129 10.2559C91.5796 10.3177 91.6657 10.3543 91.7565 10.3593ZM101.517 9.78928L105.827 9.66928C105.898 9.65629 105.963 9.61865 106.009 9.56291C106.056 9.50717 106.081 9.43688 106.081 9.36428C106.081 9.29168 106.056 9.22138 106.009 9.16565C105.963 9.10991 105.898 9.07227 105.827 9.05928L101.537 8.93928C101.435 8.95234 101.341 9.00153 101.272 9.07792C101.203 9.15432 101.164 9.25287 101.161 9.35568C101.159 9.4585 101.193 9.55878 101.259 9.63833C101.324 9.71788 101.415 9.77144 101.517 9.78928ZM109.257 9.92928C111.097 9.92928 117.737 10.2393 119.357 10.5193C119.757 10.5993 119.897 9.97928 119.497 9.90928C116.104 9.3934 112.678 9.13267 109.247 9.12928C109.14 9.13061 109.039 9.17402 108.965 9.24997C108.891 9.32592 108.85 9.42819 108.852 9.53428C108.853 9.64037 108.896 9.74158 108.972 9.81566C109.048 9.88973 109.15 9.93061 109.257 9.92928ZM122.587 11.6593C125.234 12.4423 127.68 13.7899 129.757 15.6093C130.077 15.8993 130.527 15.4293 130.217 15.1393C128.119 13.1299 125.566 11.658 122.777 10.8493C122.676 10.84 122.575 10.8674 122.492 10.9267C122.41 10.9859 122.352 11.0729 122.329 11.1716C122.306 11.2703 122.319 11.374 122.366 11.4636C122.414 11.5533 122.492 11.6228 122.587 11.6593ZM131.457 24.9993C131.374 25.0195 131.301 25.0693 131.252 25.1394C131.204 25.2094 131.182 25.2948 131.192 25.3796C131.202 25.4644 131.242 25.5426 131.306 25.5996C131.369 25.6567 131.451 25.6885 131.537 25.6893C132.857 25.6893 134.407 24.1493 134.537 22.0193C134.667 19.8893 133.207 18.1793 131.807 16.7493C131.747 16.6883 131.665 16.6535 131.58 16.6525C131.495 16.6516 131.413 16.6846 131.352 16.7443C131.291 16.804 131.256 16.8854 131.255 16.9707C131.254 17.0561 131.287 17.1383 131.347 17.1993C132.927 18.8393 133.697 20.3393 133.707 21.7993C133.733 22.5053 133.527 23.2006 133.121 23.7786C132.715 24.3566 132.13 24.7854 131.457 24.9993ZM120.547 28.2493C121.547 28.2493 128.137 26.7393 129.227 26.4793C129.303 26.4541 129.367 26.4011 129.406 26.3309C129.445 26.2606 129.456 26.1783 129.437 26.1001C129.418 26.022 129.371 25.9539 129.304 25.9093C129.237 25.8646 129.156 25.8468 129.077 25.8593C127.587 26.1993 122.327 27.1193 120.477 27.4393C120.379 27.4607 120.293 27.5167 120.234 27.5968C120.175 27.677 120.148 27.7759 120.156 27.875C120.165 27.9741 120.209 28.0667 120.281 28.1356C120.353 28.2045 120.447 28.2449 120.547 28.2493ZM117.837 27.5893C115.707 27.8193 113.477 28.0193 111.327 28.3393C111.236 28.3663 111.158 28.4237 111.105 28.5018C111.052 28.5799 111.027 28.6738 111.036 28.7678C111.044 28.8618 111.084 28.95 111.15 29.0177C111.216 29.0854 111.303 29.1283 111.397 29.1393C112.007 29.1393 116.887 28.4993 117.867 28.3793C118.377 28.3093 118.347 27.5193 117.837 27.5893ZM102.757 30.1493C103.337 30.1493 107.337 29.4993 108.267 29.3693C108.345 29.3496 108.413 29.3022 108.458 29.2358C108.504 29.1695 108.523 29.0888 108.513 29.009C108.504 28.9291 108.465 28.8556 108.405 28.8023C108.345 28.749 108.267 28.7194 108.187 28.7193C106.967 28.8593 103.877 29.1293 102.677 29.3393C102.579 29.3611 102.492 29.418 102.434 29.4991C102.375 29.5803 102.348 29.6801 102.358 29.7797C102.368 29.8793 102.414 29.9719 102.487 30.04C102.561 30.1081 102.656 30.147 102.757 30.1493ZM86.0665 31.5893C88.2065 31.5893 90.3965 31.2093 92.5165 31.0093C92.9565 31.0093 92.9565 30.2793 92.5165 30.3193C90.3865 30.4893 88.1565 30.5793 86.0065 30.8793C85.5765 30.9293 85.6265 31.5893 86.0665 31.5893ZM75.5265 32.5093C75.4387 32.5301 75.3615 32.5823 75.3095 32.656C75.2575 32.7297 75.2342 32.8199 75.244 32.9096C75.2538 32.9993 75.2961 33.0823 75.3629 33.1431C75.4296 33.2038 75.5163 33.238 75.6065 33.2393C76.2865 33.2393 81.7765 32.4293 82.6065 32.3193C82.6939 32.2987 82.7705 32.2462 82.8212 32.1721C82.8719 32.098 82.8931 32.0076 82.8805 31.9186C82.868 31.8297 82.8227 31.7487 82.7535 31.6915C82.6843 31.6342 82.5962 31.6049 82.5065 31.6093C81.1965 31.7693 76.6365 32.2793 75.5265 32.5093ZM60.2965 35.3693C64.1773 34.5549 68.0999 33.954 72.0465 33.5693C72.5665 33.5693 72.5465 32.7193 72.0465 32.7693C68.0506 33.0073 64.0862 33.6234 60.2065 34.6093C60.1205 34.637 60.0468 34.6938 59.9981 34.7699C59.9493 34.8459 59.9284 34.9366 59.939 35.0263C59.9497 35.116 59.9911 35.1993 60.0563 35.2618C60.1215 35.3244 60.2064 35.3624 60.2965 35.3693ZM46.9165 40.5293C49.5832 38.9316 52.4959 37.7861 55.5365 37.1393C56.0665 37.0293 55.8565 36.2293 55.3365 36.3393C52.2053 36.961 49.2046 38.1179 46.4665 39.7593C46.3807 39.8263 46.3222 39.9222 46.3017 40.0292C46.2812 40.1361 46.3002 40.2468 46.3552 40.3409C46.4101 40.4349 46.4973 40.5058 46.6005 40.5404C46.7037 40.5751 46.816 40.5711 46.9165 40.5293ZM38.4665 48.5693C39.5703 45.5966 41.6976 43.1147 44.4665 41.5693C44.8365 41.3693 44.5265 40.8193 44.1465 41.0093C41.1317 42.5079 38.8159 45.1177 37.6865 48.2893C37.4965 48.8493 38.2765 49.0693 38.4665 48.5693ZM40.6465 60.5293C40.3465 60.1893 39.8665 60.6593 40.1465 60.9893C40.8465 61.7993 44.5365 64.6393 45.2865 64.6393C45.3652 64.6386 45.4415 64.6122 45.5038 64.5641C45.566 64.5159 45.6108 64.4487 45.6312 64.3727C45.6516 64.2967 45.6465 64.2161 45.6168 64.1433C45.5871 64.0704 45.5343 64.0093 45.4665 63.9693C43.7703 62.9536 42.1584 61.8033 40.6465 60.5293ZM54.5865 66.9393C52.3293 66.7162 50.1199 66.1462 48.0365 65.2493C47.5765 65.0493 47.1965 65.7293 47.6665 65.9493C49.8316 66.9749 52.1674 67.5919 54.5565 67.7693C55.1065 67.7993 55.1065 66.9993 54.5865 66.9393ZM56.7565 68.3093C57.9165 68.4793 62.6465 69.2493 63.8465 69.3093C63.9459 69.3122 64.0428 69.2781 64.1184 69.2134C64.194 69.1488 64.2428 69.0583 64.2552 68.9597C64.2677 68.861 64.243 68.7613 64.186 68.6799C64.1289 68.5984 64.0435 68.5412 63.9465 68.5193C62.7965 68.2793 58.1065 67.7193 56.9465 67.5193C56.4765 67.5093 56.2865 68.2293 56.7565 68.3093ZM72.1665 69.5293C70.2266 69.7016 68.2715 69.5392 66.3865 69.0493C66.3081 69.0404 66.229 69.0599 66.1638 69.1043C66.0985 69.1487 66.0513 69.215 66.0307 69.2912C66.0101 69.3674 66.0176 69.4485 66.0517 69.5197C66.0858 69.5909 66.1442 69.6475 66.2165 69.6793C68.1627 70.2464 70.1961 70.4531 72.2165 70.2893C72.6665 70.2393 72.6565 69.4993 72.1665 69.5293ZM138.627 64.6193C140.711 64.3909 142.765 63.9452 144.757 63.2893C145.177 63.1493 144.997 62.4893 144.567 62.6193C142.624 63.1839 140.631 63.559 138.617 63.7393C138.037 63.7993 138.047 64.6693 138.627 64.6193ZM129.347 65.3793C129.266 65.405 129.197 65.4576 129.15 65.5282C129.104 65.5989 129.083 65.6834 129.091 65.7676C129.099 65.8517 129.136 65.9306 129.195 65.991C129.254 66.0513 129.333 66.0896 129.417 66.0993C130.147 66.0993 135.137 65.2193 135.987 65.0993C136.477 65.0093 136.287 64.2993 135.817 64.3693C133.237 64.7393 131.317 64.9993 129.347 65.3793ZM126.757 65.6893C124.267 66.1293 121.757 66.3893 119.377 66.6193C118.857 66.6793 118.877 67.4793 119.377 67.4393C121.896 67.2364 124.402 66.9026 126.887 66.4393C126.936 66.4308 126.983 66.4126 127.025 66.3859C127.067 66.3591 127.104 66.3243 127.133 66.2835C127.161 66.2426 127.182 66.1965 127.193 66.1477C127.204 66.099 127.205 66.0485 127.197 65.9993C127.188 65.95 127.17 65.903 127.143 65.8607C127.116 65.8185 127.082 65.7819 127.041 65.7532C127 65.7244 126.954 65.7039 126.905 65.693C126.856 65.682 126.806 65.6808 126.757 65.6893ZM53.6965 101.329C54.1365 101.329 54.1565 100.709 53.6965 100.649C51.6677 100.347 49.6053 100.347 47.5765 100.649C47.4804 100.67 47.3959 100.727 47.3398 100.808C47.2838 100.889 47.2604 100.988 47.2743 101.085C47.2882 101.183 47.3384 101.271 47.4149 101.333C47.4913 101.395 47.5883 101.426 47.6865 101.419C49.6832 101.211 51.6945 101.181 53.6965 101.329ZM142.487 100.799C142.403 100.825 142.332 100.879 142.284 100.952C142.236 101.024 142.214 101.111 142.222 101.198C142.23 101.284 142.268 101.365 142.329 101.428C142.39 101.49 142.47 101.529 142.557 101.539C142.657 101.539 147.927 101.389 149.197 101.539C149.537 101.589 149.647 101.069 149.307 101.019C147.043 100.755 144.762 100.681 142.487 100.799ZM139.757 101.589C139.836 101.589 139.912 101.558 139.969 101.501C140.025 101.445 140.057 101.369 140.057 101.289C140.057 101.21 140.025 101.133 139.969 101.077C139.912 101.021 139.836 100.989 139.757 100.989C138.283 100.894 136.802 100.998 135.357 101.299C134.927 101.389 135.047 102.019 135.457 102.019C136.867 101.701 138.311 101.557 139.757 101.589ZM162.517 113.999C162.437 114.399 163.017 114.649 163.187 114.259C164.047 112.319 164.477 109.349 163.397 107.259C163.187 106.859 162.587 107.199 162.787 107.599C163.997 109.999 162.837 112.449 162.517 113.999ZM41.7565 143.999C40.3496 145.168 39.1728 146.589 38.2865 148.189C38.2668 148.222 38.2538 148.259 38.2481 148.296C38.2425 148.334 38.2444 148.373 38.2537 148.41C38.2724 148.485 38.3202 148.55 38.3865 148.589C38.4528 148.629 38.5322 148.641 38.6072 148.622C38.6822 148.603 38.7467 148.556 38.7865 148.489C39.7015 146.982 40.8723 145.645 42.2465 144.539C42.6465 144.249 42.1565 143.729 41.7565 143.999ZM48.4365 138.129C47.0663 139.154 45.7636 140.267 44.5365 141.459C44.4768 141.52 44.4438 141.603 44.4448 141.688C44.4457 141.773 44.4805 141.855 44.5415 141.914C44.6025 141.974 44.6847 142.007 44.77 142.006C44.8554 142.005 44.9368 141.97 44.9965 141.909C45.5565 141.319 48.5665 138.969 48.8665 138.719C49.1665 138.469 48.8065 137.999 48.4365 138.129ZM51.4365 136.309C51.6465 136.309 51.0265 136.509 54.7565 134.049C54.8343 133.995 54.8893 133.915 54.9106 133.822C54.9319 133.73 54.9181 133.633 54.8718 133.551C54.8256 133.468 54.7502 133.406 54.6604 133.376C54.5707 133.346 54.473 133.351 54.3865 133.389C53.2845 134.14 52.2323 134.962 51.2365 135.849C51.2029 135.889 51.1811 135.938 51.1736 135.989C51.1661 136.041 51.1731 136.093 51.1939 136.141C51.2147 136.189 51.2484 136.23 51.2913 136.26C51.3341 136.29 51.3844 136.307 51.4365 136.309Z" fill="#4C2FB3"/>
<path d="M56.5463 132.349C56.8063 132.459 56.6363 132.349 59.7863 130.349C59.5835 132.86 59.6204 135.385 59.8963 137.889C58.336 137.041 56.8388 136.082 55.4163 135.019C55.1463 134.809 54.7863 135.189 55.0663 135.419C56.6203 136.751 58.2941 137.936 60.0663 138.959C61.377 148.914 66.4557 157.987 74.2563 164.309C70.6763 165.149 68.4163 165.619 67.5363 165.709C67.1563 165.709 67.1563 166.329 67.5363 166.329C68.4063 166.329 73.9463 165.249 75.1163 165.009C89.4763 176.439 108.356 175.319 122.116 164.789C124.871 165.517 127.67 166.065 130.496 166.429C130.584 166.423 130.667 166.386 130.73 166.325C130.794 166.264 130.834 166.183 130.845 166.096C130.856 166.009 130.836 165.921 130.789 165.846C130.741 165.772 130.67 165.717 130.586 165.689C129.346 165.479 125.866 164.819 122.866 164.199C130.39 158.241 135.404 149.676 136.916 140.199C137.296 139.959 137.666 139.699 138.026 139.429C138.386 139.159 138.026 138.529 137.636 138.779L137.066 139.129C138.286 128.509 134.546 117.929 127.936 109.979C129.816 107.909 131.126 105.459 130.356 102.739C131.304 102.45 132.269 102.223 133.246 102.059C133.686 101.999 133.526 101.349 133.106 101.409C132.093 101.539 131.091 101.739 130.106 102.009C129.376 100.198 128.121 98.6466 126.504 97.5528C124.886 96.4589 122.979 95.8727 121.026 95.8692C122.624 94.1898 123.796 92.1524 124.445 89.9273C125.094 87.7022 125.201 85.3541 124.756 83.0792C122.906 74.5792 116.296 66.4992 107.976 61.8492C108.18 60.7239 108.118 59.5666 107.796 58.4692C107.576 57.4692 106.916 57.1292 106.146 56.6292C105.746 56.3692 105.366 56.1292 104.946 55.8892C106.05 54.1723 106.627 52.1701 106.606 50.1292C108.856 49.9092 108.936 46.6292 106.466 46.1292C108.976 34.3492 87.1863 32.3492 88.4663 46.5092C88.0224 46.6359 87.6248 46.8884 87.3213 47.2362C87.0179 47.5841 86.8216 48.0123 86.7563 48.4692C86.6971 48.7825 86.716 49.1055 86.8113 49.4097C86.9066 49.7139 87.0754 49.9899 87.3028 50.2134C87.5302 50.4368 87.8092 50.6008 88.115 50.6908C88.4208 50.7807 88.7441 50.7939 89.0563 50.7292C88.9645 52.0241 89.2345 53.319 89.8363 54.4692C89.336 54.5843 88.8702 54.8165 88.4773 55.1468C88.0844 55.4772 87.7756 55.8961 87.5763 56.3692C87.133 57.6313 87.0465 58.9912 87.3263 60.2992C79.3763 63.9261 73.0199 70.3251 69.4463 78.2992C66.6163 84.7492 67.9963 89.4692 72.9963 94.3892C70.7571 93.6671 68.3371 93.7413 66.1463 94.5992C64.7723 95.1902 63.5436 96.0733 62.5454 97.1872C61.5473 98.3011 60.8037 99.6189 60.3663 101.049C59.4043 100.895 58.4277 100.855 57.4563 100.929C57.3899 100.942 57.3299 100.977 57.2867 101.029C57.2435 101.081 57.2199 101.147 57.2199 101.214C57.2199 101.282 57.2435 101.347 57.2867 101.399C57.3299 101.451 57.3899 101.487 57.4563 101.499C58.3775 101.46 59.2991 101.568 60.1863 101.819C59.4963 106.029 63.0663 109.589 66.5363 112.089C62.8122 117.149 60.5187 123.118 59.8963 129.369C58.7229 130.084 57.591 130.866 56.5063 131.709C56.4492 131.743 56.4026 131.792 56.3715 131.851C56.3405 131.909 56.3263 131.975 56.3304 132.041C56.3345 132.108 56.3569 132.171 56.395 132.226C56.4331 132.28 56.4855 132.323 56.5463 132.349ZM100.756 58.5992L101.176 58.4692C101.406 58.7092 102.026 59.2492 102.406 59.5692C99.4363 61.1292 95.7563 60.9992 91.9163 59.1292C92.3463 58.7392 93.0463 58.0292 93.3063 57.7292C93.9939 57.9926 94.6949 58.2195 95.4063 58.4092C95.6982 58.842 96.0883 59.1996 96.5448 59.4528C97.0013 59.706 97.5112 59.8477 98.0329 59.8662C98.5546 59.8847 99.0733 59.7796 99.5466 59.5594C100.02 59.3392 100.434 59.0102 100.756 58.5992ZM92.7563 57.4492C92.4163 57.8292 91.6563 58.6392 91.4063 58.8492C91.1263 58.6959 90.8463 58.5359 90.5663 58.3692C90.5119 58.3361 90.4466 58.3259 90.3847 58.3409C90.3228 58.3559 90.2695 58.3949 90.2363 58.4492C90.2031 58.5036 90.1929 58.5689 90.208 58.6308C90.223 58.6927 90.2619 58.7461 90.3163 58.7792C92.7463 60.3392 95.1163 61.5192 97.9863 61.5192C99.149 61.5744 100.309 61.3686 101.382 60.917C102.455 60.4653 103.413 59.7793 104.186 58.9092C104.227 58.8668 104.25 58.8098 104.249 58.7507C104.248 58.6916 104.224 58.6353 104.181 58.5942C104.139 58.5531 104.082 58.5306 104.023 58.5315C103.964 58.5324 103.907 58.5568 103.866 58.5992C103.596 58.8226 103.312 59.0297 103.016 59.2192C102.746 58.9892 102.126 58.4892 101.826 58.2192C102.844 57.8352 103.768 57.2386 104.536 56.4692C105.536 56.8934 106.433 57.5277 107.166 58.3292C107.534 59.4186 107.593 60.5885 107.336 61.7092C106.416 64.5492 98.9763 67.3592 91.3363 63.3692C88.6463 62.0192 87.5163 60.9092 87.9963 57.5492C88.032 56.9552 88.2602 56.389 88.6463 55.9362C89.0324 55.4833 89.5554 55.1685 90.1363 55.0392C90.7951 56.0484 91.6958 56.8768 92.7563 57.4492ZM100.896 65.9992C102.526 65.7992 106.396 65.0592 107.766 62.5292C115.716 66.9292 124.006 76.7692 124.196 85.7392C124.265 87.7108 123.871 89.6709 123.046 91.463C122.221 93.255 120.988 94.829 119.446 96.0592C118.032 96.3194 116.677 96.8344 115.446 97.5792C116.326 83.9892 116.356 84.8092 116.256 84.7092C116.156 84.6092 114.636 84.5992 112.156 84.5392C112.466 84.1492 113.296 83.0492 113.486 82.8292C113.533 82.7802 113.558 82.7147 113.556 82.6472C113.554 82.5796 113.525 82.5156 113.476 82.4692C113.427 82.4228 113.362 82.3978 113.294 82.3997C113.227 82.4016 113.163 82.4302 113.116 82.4792C112.485 83.1802 111.817 83.8478 111.116 84.4792H110.906C111.161 81.4463 111.228 78.4004 111.106 75.3592C111.106 75.1192 110.686 75.1192 110.706 75.3592C110.806 76.7892 110.136 83.1992 110.056 84.4292C102.606 84.2792 90.1863 84.1492 82.6863 84.0792C81.7672 80.9698 81.3784 77.7278 81.5363 74.4892C81.5363 74.1492 81.0563 74.1492 81.0263 74.4892C80.703 77.7106 80.9707 80.964 81.8163 84.0892H81.6063C80.6043 83.0875 79.6531 82.0362 78.7563 80.9392C78.7199 80.8892 78.6662 80.8544 78.6057 80.8416C78.5451 80.8289 78.482 80.839 78.4285 80.8701C78.375 80.9012 78.3349 80.9511 78.316 81.01C78.2971 81.069 78.3008 81.1328 78.3263 81.1892C78.4363 81.3992 79.6363 83.1892 80.4263 84.1292H76.5463C76.2563 84.1292 76.3463 84.1292 76.3263 84.3592C76.2263 85.4892 76.5863 91.7292 76.8663 96.1692C76.2633 95.7932 75.6352 95.4591 74.9863 95.1692C69.8363 90.1092 67.0963 86.1692 69.8963 79.4092C73.239 71.2676 79.5369 64.6911 87.5263 60.9992C88.6463 63.3892 94.3363 66.7792 100.896 65.9992ZM76.9663 84.8392C78.1063 84.8392 113.186 85.1492 115.636 85.3692C115.166 89.3092 114.296 100.949 113.996 104.859H111.806C110.566 105.929 101.366 113.569 100.706 114.129C100.476 114.309 100.896 114.459 101.886 115.349C102.509 115.806 103.031 116.387 103.42 117.054C103.809 117.722 104.056 118.462 104.146 119.229C104.149 119.265 104.165 119.298 104.191 119.322C104.217 119.346 104.251 119.359 104.286 119.359C107.846 119.509 110.856 122.679 108.386 124.639C106.116 126.439 102.606 124.639 100.866 122.979C102.436 120.929 103.356 119.139 101.596 117.289C101.386 117.069 99.1263 115.229 96.2563 112.889C85.3863 104.019 86.2563 104.519 86.1163 104.519C85.5563 104.519 79.6163 104.109 78.5463 104.049C77.7563 97.6492 77.1763 88.2992 76.9663 84.8392ZM87.4263 124.279C85.9563 124.389 83.4863 124.579 82.4263 123.089C81.7363 122.089 82.7663 120.919 83.8763 120.599C86.3063 121.479 90.1263 122.709 91.3663 123.099C90.1326 123.721 88.7988 124.121 87.4263 124.279ZM82.2263 124.079C83.2263 125.079 84.9263 125.199 86.2863 125.179C88.5053 125.168 90.682 124.571 92.5963 123.449C94.7863 124.089 96.9563 124.639 99.2163 125.119C99.2433 125.129 99.2727 125.129 99.2998 125.12C99.3269 125.111 99.3503 125.093 99.3663 125.069C99.7463 124.599 100.116 124.069 100.456 123.619C102.756 125.759 106.596 127.169 108.956 125.349C110.696 123.999 110.426 121.689 108.686 120.259C116.966 117.829 123.556 114.339 127.256 110.669C130.71 114.629 133.265 119.289 134.748 124.329C136.231 129.369 136.605 134.671 135.846 139.869C133.734 141.251 131.547 142.517 129.296 143.659C129.242 143.687 129.199 143.733 129.174 143.788C129.149 143.844 129.143 143.907 129.158 143.966C129.173 144.025 129.208 144.078 129.257 144.114C129.305 144.151 129.365 144.171 129.426 144.169C129.556 144.169 133.556 142.239 135.666 140.989C133.939 150.026 129.09 158.167 121.966 163.989C120.356 163.649 118.966 163.329 118.306 163.129C117.946 163.009 117.786 163.549 118.136 163.679C118.746 163.899 119.886 164.209 121.246 164.559C114.796 169.474 106.918 172.15 98.8081 172.178C90.6987 172.207 82.8014 169.588 76.3163 164.719C77.5149 164.469 78.6944 164.135 79.8463 163.719C80.2863 163.529 80.0163 162.879 79.5663 162.979L75.4063 163.979C67.7848 157.862 62.6777 149.157 61.0563 139.519L61.2563 139.609C61.7163 139.809 62.0763 139.179 61.6463 138.929L60.9063 138.499C59.584 129.372 61.81 120.085 67.1263 112.549C72.1063 115.735 77.4427 118.326 83.0263 120.269C81.4463 121.069 80.9163 122.789 82.2263 124.079ZM106.086 49.8692C105.876 51.8692 105.576 53.8692 104.336 55.4092C103.656 56.2592 102.206 57.5192 101.016 57.5492C100.226 57.5492 99.9463 57.0892 99.4363 56.5492C98.7663 55.7692 98.4363 55.3592 98.0763 55.4192C97.2763 55.5192 97.4163 57.0292 96.1363 57.7792C95.7463 57.9992 94.3863 57.6092 93.3463 57.1092C92.1272 56.5046 91.1222 55.5415 90.4662 54.3493C89.8102 53.157 89.5346 51.7926 89.6763 50.4392C89.6763 50.1992 89.3263 50.0492 89.1863 50.1192C88.969 50.1944 88.736 50.2128 88.5096 50.1727C88.2831 50.1326 88.0707 50.0353 87.8924 49.8901C87.7141 49.7448 87.5759 49.5564 87.4908 49.3428C87.4057 49.1291 87.3766 48.8973 87.4063 48.6692C87.7863 46.6692 90.0263 47.1692 90.6163 48.3292C90.636 48.3585 90.6654 48.3799 90.6993 48.3896C90.7332 48.3994 90.7694 48.3969 90.8017 48.3826C90.8339 48.3682 90.8601 48.343 90.8755 48.3113C90.891 48.2796 90.8948 48.2435 90.8863 48.2092C90.4834 47.1579 90.4333 46.0041 90.7435 44.9218C91.0538 43.8395 91.7076 42.8874 92.6063 42.2092C94.0348 43.2011 95.7323 43.7326 97.4713 43.7326C99.2103 43.7326 100.908 43.2011 102.336 42.2092C104.266 43.7092 104.336 46.8292 104.196 47.9192C104.195 47.9456 104.199 47.972 104.21 47.9963C104.22 48.0206 104.236 48.0422 104.256 48.0592C104.426 48.1892 104.706 47.8492 104.846 47.6892C105.026 47.41 105.284 47.19 105.588 47.0566C105.892 46.9232 106.229 46.8824 106.556 46.9392C106.883 46.987 107.181 47.1529 107.394 47.4056C107.607 47.6582 107.719 47.9801 107.711 48.3103C107.702 48.6405 107.573 48.956 107.347 49.1973C107.121 49.4385 106.815 49.5886 106.486 49.6192C106.416 49.5592 106.106 49.6592 106.086 49.8692Z" fill="#4C2FB3"/>
<path d="M91.7568 159.549C91.8568 159.789 91.7568 159.679 91.7568 159.549C88.932 160.692 86.0102 161.579 83.0268 162.199C82.6668 162.269 82.7868 162.799 83.1468 162.759C86.2357 162.412 89.2462 161.557 92.0568 160.229C92.4668 159.999 92.1968 159.389 91.7568 159.549ZM105.757 155.299C105.997 155.299 114.097 152.119 114.887 151.609C115.277 151.349 115.007 150.679 114.547 150.849C113.737 151.149 107.297 154.189 105.687 154.759C105.628 154.782 105.579 154.823 105.546 154.877C105.514 154.931 105.501 154.995 105.509 155.057C105.517 155.119 105.546 155.177 105.591 155.221C105.636 155.265 105.694 155.293 105.757 155.299ZM118.137 149.999C118.397 149.999 125.137 146.929 125.767 146.449C126.077 146.209 125.867 145.639 125.457 145.799C124.847 146.029 119.317 148.799 118.047 149.329C117.976 149.359 117.916 149.411 117.878 149.478C117.84 149.545 117.825 149.623 117.835 149.699C117.845 149.775 117.88 149.846 117.935 149.9C117.989 149.955 118.06 149.989 118.137 149.999ZM137.757 129.899C138.317 130.259 140.397 131.899 140.957 132.259C141.042 132.309 141.143 132.326 141.24 132.307C141.337 132.288 141.424 132.235 141.485 132.157C141.546 132.079 141.577 131.982 141.572 131.883C141.566 131.784 141.526 131.69 141.457 131.619C140.927 131.169 138.637 129.739 138.067 129.399C138 129.358 137.921 129.345 137.845 129.363C137.769 129.381 137.703 129.428 137.662 129.494C137.621 129.561 137.608 129.641 137.625 129.717C137.643 129.793 137.691 129.858 137.757 129.899ZM150.307 138.199C149.997 137.949 149.577 138.399 149.897 138.659C150.607 139.249 153.427 141.749 154.207 142.279C154.29 142.32 154.384 142.331 154.474 142.311C154.564 142.29 154.644 142.239 154.7 142.166C154.757 142.093 154.786 142.002 154.784 141.91C154.781 141.818 154.747 141.729 154.687 141.659C154.047 140.999 151.137 138.859 150.307 138.199ZM156.757 143.939C156.697 143.881 156.617 143.849 156.533 143.85C156.45 143.851 156.37 143.885 156.312 143.944C156.253 144.004 156.221 144.084 156.222 144.168C156.223 144.251 156.257 144.331 156.317 144.389C157.572 145.66 158.701 147.05 159.687 148.539C160.007 148.989 160.737 148.539 160.427 148.079C159.383 146.55 158.149 145.159 156.757 143.939ZM142.757 166.999C141.417 166.999 135.647 166.619 134.227 166.329C134.162 166.313 134.093 166.324 134.036 166.359C133.979 166.393 133.938 166.449 133.922 166.514C133.906 166.579 133.916 166.648 133.951 166.705C133.986 166.762 134.042 166.803 134.107 166.819C136.963 167.356 139.853 167.691 142.757 167.819C142.866 167.819 142.97 167.776 143.047 167.699C143.124 167.622 143.167 167.518 143.167 167.409C143.167 167.301 143.124 167.196 143.047 167.119C142.97 167.043 142.866 166.999 142.757 166.999ZM107.017 159.809C106.667 159.639 106.377 160.159 106.737 160.339C109.256 161.612 111.953 162.495 114.737 162.959C115.277 163.059 115.487 162.229 114.937 162.139C112.201 161.736 109.535 160.951 107.017 159.809ZM95.2968 159.119C96.5468 158.849 99.0968 158.119 99.4968 158.059C99.8768 158.209 102.317 159.129 103.617 159.439C103.714 159.461 103.816 159.445 103.902 159.393C103.987 159.342 104.05 159.26 104.077 159.164C104.104 159.068 104.093 158.965 104.046 158.877C104 158.789 103.921 158.721 103.827 158.689C102.827 158.329 101.827 158.029 100.717 157.689C101.523 157.421 102.306 157.087 103.057 156.689C103.111 156.631 103.148 156.558 103.161 156.479C103.175 156.4 103.165 156.319 103.133 156.246C103.101 156.173 103.049 156.11 102.982 156.066C102.915 156.023 102.837 155.999 102.757 155.999C101.637 156.379 100.537 156.859 99.4468 157.279C98.2068 156.839 97.0668 156.389 95.9768 155.909C95.6168 155.749 95.3268 156.279 95.6968 156.449C96.6068 156.879 97.5168 157.289 98.4168 157.659C97.3538 158.028 96.2723 158.342 95.1768 158.599C95.1308 158.633 95.0957 158.679 95.0758 158.732C95.0559 158.786 95.0521 158.844 95.0649 158.899C95.0777 158.954 95.1065 159.005 95.1477 159.044C95.189 159.083 95.2408 159.109 95.2968 159.119ZM50.5368 131.239C49.5368 130.459 45.7868 127.239 44.9568 126.359C44.6868 126.069 44.2368 126.499 44.5068 126.789C46.1389 128.709 48.0032 130.419 50.0568 131.879C50.4568 132.149 50.9168 131.539 50.5368 131.239ZM38.6568 178.559C38.0328 173.039 36.9081 167.586 35.2968 162.269C36.209 163.649 37.6156 164.626 39.2268 164.999C39.2958 165.029 39.3735 165.029 39.4429 165.001C39.5123 164.973 39.5676 164.918 39.5968 164.849C39.626 164.78 39.6266 164.703 39.5984 164.633C39.5703 164.564 39.5158 164.509 39.4468 164.479C38.1668 163.709 36.1968 162.929 35.5868 161.059C35.9205 160.45 36.0027 159.735 35.8159 159.066C35.629 158.397 35.1879 157.827 34.5868 157.479C34.9466 155.356 35.7067 153.319 36.8268 151.479C36.9568 151.229 36.6168 150.969 36.4268 151.189C34.9998 152.969 34.127 155.128 33.9168 157.399C33.6565 157.418 33.4003 157.475 33.1568 157.569C30.5074 150.721 26.7432 144.359 22.0168 138.739C22.1988 138.429 22.2694 138.066 22.2172 137.71C22.165 137.355 21.9929 137.027 21.7295 136.783C21.466 136.538 21.127 136.39 20.7683 136.364C20.4096 136.338 20.0528 136.435 19.7568 136.639C19.419 136.869 19.1735 137.211 19.0637 137.605C18.9539 137.998 18.9868 138.418 19.1568 138.789C19.2701 138.988 19.4223 139.161 19.6043 139.298C19.7863 139.436 19.9943 139.536 20.2158 139.591C20.4372 139.646 20.6676 139.656 20.8929 139.619C21.1182 139.583 21.3339 139.501 21.5268 139.379C26.1608 144.935 29.8746 151.198 32.5268 157.929C30.8968 159.369 32.3168 162.069 34.3668 161.849C36.057 167.352 37.2354 173 37.8868 178.719C37.5868 178.878 37.3543 179.14 37.232 179.457C37.1096 179.774 37.1057 180.124 37.2209 180.444C37.3361 180.763 37.5628 181.03 37.8591 181.196C38.1555 181.361 38.5017 181.415 38.8341 181.346C39.1666 181.277 39.4629 181.09 39.6688 180.82C39.8746 180.55 39.976 180.214 39.9544 179.876C39.9329 179.537 39.7897 179.217 39.5514 178.975C39.313 178.733 38.9953 178.586 38.6568 178.559ZM21.4768 137.999C21.5119 138.131 21.5163 138.269 21.4895 138.403C21.4628 138.537 21.4056 138.663 21.3225 138.771C21.2394 138.879 21.1325 138.967 21.0102 139.027C20.8878 139.087 20.7532 139.119 20.6168 139.119C20.4804 139.119 20.3458 139.087 20.2235 139.027C20.1011 138.967 19.9942 138.879 19.9111 138.771C19.828 138.663 19.7708 138.537 19.7441 138.403C19.7173 138.269 19.7217 138.131 19.7568 137.999C19.7217 137.868 19.7173 137.729 19.7441 137.596C19.7708 137.462 19.828 137.336 19.9111 137.228C19.9942 137.12 20.1011 137.032 20.2235 136.972C20.3458 136.912 20.4804 136.88 20.6168 136.88C20.7532 136.88 20.8878 136.912 21.0102 136.972C21.1325 137.032 21.2394 137.12 21.3225 137.228C21.4056 137.336 21.4628 137.462 21.4895 137.596C21.5163 137.729 21.5119 137.868 21.4768 137.999ZM39.4768 179.909C39.4768 180.909 37.8268 180.909 37.8268 179.909C37.8268 178.909 39.4368 178.999 39.4368 179.999L39.4768 179.909ZM35.0968 160.309C34.5568 161.979 32.5468 160.809 32.5768 159.449C32.5768 158.249 34.2468 157.449 34.8768 158.599C35.0382 158.858 35.1384 159.15 35.1695 159.454C35.2007 159.757 35.1622 160.063 35.0568 160.349L35.0968 160.309ZM180.537 120.089C180.532 119.801 180.447 119.519 180.291 119.275C180.135 119.032 179.915 118.837 179.654 118.711C179.394 118.586 179.104 118.535 178.817 118.565C178.529 118.594 178.256 118.703 178.027 118.879C172.399 115.585 167.56 111.1 163.847 105.739C164.118 105.428 164.305 105.052 164.389 104.647C164.473 104.243 164.452 103.823 164.327 103.429C164.231 103.124 164.058 102.848 163.824 102.629C163.59 102.411 163.303 102.257 162.992 102.182C162.68 102.108 162.355 102.115 162.047 102.204C161.74 102.293 161.46 102.46 161.237 102.689C156.424 96.1793 152.985 88.7591 151.127 80.8794C151.314 80.6668 151.429 80.3998 151.454 80.1174C151.48 79.8349 151.414 79.5518 151.267 79.3094C151.156 79.059 150.967 78.8514 150.728 78.718C150.489 78.5846 150.214 78.5326 149.942 78.5699C149.671 78.6071 149.42 78.7317 149.226 78.9246C149.032 79.1176 148.906 79.3685 148.867 79.6394C148.803 79.867 148.803 80.1076 148.865 80.3356C148.927 80.5636 149.049 80.7706 149.22 80.9346C149.39 81.0986 149.601 81.2135 149.831 81.2671C150.061 81.3208 150.302 81.3112 150.527 81.2394C152.369 89.21 155.865 96.705 160.787 103.239C160.682 103.409 160.604 103.595 160.557 103.789C159.287 103.179 152.977 101.179 152.317 101.359C152.037 101.439 152.167 101.779 152.317 101.819C155.078 102.582 157.79 103.514 160.437 104.609C160.493 104.916 160.618 105.205 160.802 105.456C160.987 105.706 161.226 105.912 161.501 106.056C161.777 106.201 162.082 106.281 162.393 106.29C162.704 106.299 163.013 106.237 163.297 106.109C167.857 112.589 172.527 116.959 177.567 119.469C177.459 119.712 177.413 119.978 177.434 120.243C177.454 120.507 177.54 120.763 177.684 120.986C177.828 121.209 178.025 121.393 178.258 121.521C178.49 121.649 178.751 121.717 179.017 121.719C179.229 121.73 179.44 121.693 179.637 121.614C179.833 121.534 180.01 121.412 180.155 121.257C180.299 121.102 180.409 120.917 180.475 120.715C180.54 120.514 180.562 120.3 180.537 120.089ZM178.317 120.589C178.231 120.463 178.18 120.316 178.168 120.163C178.156 120.01 178.185 119.857 178.25 119.719C178.316 119.58 178.417 119.461 178.542 119.374C178.668 119.286 178.814 119.233 178.967 119.219C179.207 119.227 179.434 119.327 179.602 119.499C179.769 119.67 179.864 119.9 179.867 120.139C179.867 120.322 179.808 120.499 179.699 120.644C179.59 120.79 179.436 120.896 179.261 120.947C179.086 120.998 178.899 120.991 178.729 120.926C178.559 120.861 178.414 120.743 178.317 120.589ZM162.997 105.529C162.688 105.629 162.354 105.622 162.05 105.51C161.745 105.397 161.487 105.186 161.317 104.909C161.223 104.687 161.185 104.445 161.204 104.205C161.224 103.965 161.302 103.732 161.43 103.528C161.559 103.324 161.735 103.154 161.943 103.032C162.151 102.911 162.386 102.841 162.627 102.829C163.907 102.829 164.127 105.059 162.997 105.529ZM150.807 79.9994C150.818 80.0936 150.81 80.1891 150.782 80.2797C150.754 80.3704 150.706 80.454 150.644 80.525C150.581 80.5961 150.504 80.653 150.417 80.692C150.33 80.7309 150.237 80.7511 150.142 80.7511C150.047 80.7511 149.953 80.7309 149.867 80.692C149.78 80.653 149.703 80.5961 149.64 80.525C149.577 80.454 149.53 80.3704 149.502 80.2797C149.474 80.1891 149.465 80.0936 149.477 79.9994C149.465 79.9052 149.474 79.8097 149.502 79.719C149.53 79.6284 149.577 79.5448 149.64 79.4738C149.703 79.4027 149.78 79.3458 149.867 79.3068C149.953 79.2678 150.047 79.2477 150.142 79.2477C150.237 79.2477 150.33 79.2678 150.417 79.3068C150.504 79.3458 150.581 79.4027 150.644 79.4738C150.706 79.5448 150.754 79.6284 150.782 79.719C150.81 79.8097 150.818 79.9052 150.807 79.9994ZM166.757 161.369C166.784 161.299 166.786 161.222 166.763 161.151C166.739 161.079 166.691 161.019 166.627 160.979C166.127 160.669 165.307 161.189 165.167 161.779C165.507 161.809 166.547 161.769 166.757 161.369Z" fill="#4C2FB3"/>
<path d="M164.377 154.759C163.727 153.384 162.996 152.048 162.187 150.759C162.142 150.694 162.074 150.648 161.997 150.631C161.919 150.614 161.838 150.627 161.77 150.668C161.702 150.709 161.653 150.775 161.632 150.851C161.61 150.928 161.619 151.009 161.657 151.079C162.331 152.264 162.916 153.498 163.407 154.769C162.291 154.891 161.23 155.317 160.341 156.002C159.451 156.686 158.768 157.603 158.365 158.65C157.962 159.698 157.855 160.836 158.057 161.94C158.258 163.044 158.76 164.072 159.507 164.909C156.046 166.256 152.387 167.02 148.677 167.169C148.61 167.182 148.55 167.217 148.507 167.269C148.464 167.321 148.44 167.387 148.44 167.454C148.44 167.522 148.464 167.587 148.507 167.639C148.55 167.692 148.61 167.727 148.677 167.739C152.633 167.823 156.564 167.095 160.227 165.599C160.976 166.194 161.855 166.603 162.792 166.795C163.729 166.987 164.698 166.955 165.621 166.702C166.543 166.449 167.394 165.983 168.102 165.34C168.811 164.698 169.358 163.897 169.7 163.004C170.042 162.111 170.168 161.149 170.069 160.198C169.97 159.246 169.648 158.332 169.13 157.528C168.612 156.724 167.911 156.054 167.085 155.571C166.26 155.088 165.332 154.807 164.377 154.749V154.759ZM163.107 163.999C163.007 163.329 162.967 162.649 162.847 161.999H161.377C161.287 162.589 161.287 163.179 161.197 163.769C161.192 163.811 161.178 163.852 161.157 163.889C161.136 163.926 161.108 163.958 161.075 163.984C161.041 164.01 161.003 164.029 160.962 164.04C160.921 164.052 160.879 164.055 160.837 164.049C160.795 164.044 160.754 164.031 160.717 164.01C160.681 163.989 160.648 163.961 160.622 163.927C160.596 163.894 160.577 163.856 160.566 163.815C160.555 163.774 160.552 163.731 160.557 163.689C160.557 163.029 161.107 158.829 161.217 158.239C161.357 157.409 161.797 157.339 162.047 157.369C162.567 157.429 162.707 157.969 162.817 158.369C163.107 159.439 163.817 162.699 163.997 163.779C164.077 164.319 163.197 164.539 163.107 163.999ZM167.597 163.229C165.987 164.349 163.957 163.009 164.597 161.459C165.007 160.459 166.597 159.779 167.267 160.819C167.347 160.987 167.387 161.172 167.382 161.359C167.378 161.545 167.329 161.728 167.24 161.891C167.152 162.055 167.025 162.196 166.872 162.302C166.718 162.407 166.542 162.475 166.357 162.499C166.025 162.543 165.689 162.543 165.357 162.499C165.483 162.639 165.632 162.757 165.797 162.849C166.797 163.269 167.467 162.519 167.667 162.939C167.682 162.982 167.684 163.028 167.671 163.071C167.659 163.114 167.633 163.152 167.597 163.179V163.229Z" fill="#4C2FB3"/>
<path d="M161.897 158.429C161.747 159.189 161.577 160.549 161.497 161.179H162.687C162.577 160.669 162.287 159.239 162.087 158.459C162.057 158.329 161.917 158.299 161.897 158.429ZM75.2571 143.459C74.6571 143.099 73.3371 143.059 73.2571 143.849C73.1971 144.289 73.2571 146.049 73.2571 146.519C73.7134 146.506 74.162 146.399 74.5749 146.204C74.9878 146.01 75.3563 145.733 75.6571 145.389C75.7697 145.24 75.8491 145.069 75.8901 144.887C75.931 144.705 75.9327 144.516 75.8948 144.334C75.8569 144.151 75.7804 143.978 75.6705 143.828C75.5605 143.677 75.4196 143.551 75.2571 143.459Z" fill="#4C2FB3"/>
<path d="M92.3469 154.33C89.5828 153.317 86.8785 152.149 84.2469 150.83C84.7722 149.756 85.0809 148.59 85.1553 147.397C85.2298 146.204 85.0686 145.008 84.6809 143.877C84.2932 142.747 83.6867 141.704 82.8958 140.808C82.105 139.911 81.1454 139.18 80.0719 138.655C78.9983 138.129 77.8318 137.821 76.639 137.746C75.4461 137.672 74.2503 137.833 73.1197 138.221C71.9892 138.608 70.946 139.215 70.0499 140.006C69.1538 140.796 68.4222 141.756 67.8969 142.83C66.687 142.185 65.512 141.478 64.3769 140.71C64.0669 140.51 63.7769 140.98 64.0669 141.19C65.4169 142.19 66.5469 142.89 67.5969 143.53C64.0069 154.01 77.9569 160.72 83.8969 151.44C86.5037 152.92 89.2945 154.049 92.1969 154.8C92.2555 154.808 92.3153 154.796 92.3656 154.764C92.4159 154.733 92.4533 154.685 92.4714 154.628C92.4894 154.572 92.4868 154.511 92.464 154.456C92.4412 154.401 92.3997 154.357 92.3469 154.33ZM76.3469 146.33C75.5369 147.106 74.4682 147.555 73.3469 147.59V150.39C73.3469 150.504 73.3016 150.613 73.2209 150.694C73.1403 150.774 73.0309 150.82 72.9169 150.82C72.8029 150.82 72.6935 150.774 72.6128 150.694C72.5322 150.613 72.4869 150.504 72.4869 150.39C72.4869 149.91 72.3169 145.94 72.3069 145.62C72.3069 144.62 71.9269 142.91 73.3069 142.36C75.8469 141.29 78.2469 144.1 76.2969 146.32L76.3469 146.33ZM80.9469 149.33C80.8069 150.93 78.6569 151.62 77.3769 150.67C77.2857 150.598 77.2244 150.494 77.2048 150.38C77.1852 150.265 77.2088 150.147 77.2709 150.049C77.3331 149.951 77.4294 149.879 77.5413 149.848C77.6532 149.817 77.7728 149.828 77.8769 149.88C78.1664 150.074 78.5143 150.161 78.861 150.126C79.2077 150.091 79.5315 149.937 79.7769 149.69C80.0769 149.38 79.9569 148.76 79.4669 148.83C79.087 148.938 78.6909 148.979 78.2969 148.95C78.0972 148.903 77.9121 148.808 77.7582 148.672C77.6043 148.537 77.4865 148.365 77.4151 148.173C77.3438 147.981 77.3212 147.774 77.3494 147.571C77.3777 147.368 77.4558 147.175 77.5769 147.01C77.7457 146.771 77.9683 146.576 78.2267 146.439C78.4851 146.303 78.772 146.229 79.0642 146.224C79.3564 146.219 79.6456 146.283 79.9084 146.411C80.1712 146.539 80.4002 146.727 80.5769 146.96C80.8769 147.35 80.2569 147.82 79.9569 147.44C79.8171 147.277 79.6321 147.16 79.4256 147.103C79.219 147.046 79.0002 147.052 78.7969 147.12C77.9269 147.44 78.4769 148.3 79.0569 148.12C79.1869 148.08 81.0269 147.79 80.8969 149.29L80.9469 149.33ZM161.917 116.07C161.593 116.809 161.222 117.527 160.807 118.22C160.023 117.131 159.009 116.229 157.836 115.578C156.663 114.927 155.361 114.543 154.022 114.454C152.684 114.366 151.342 114.574 150.094 115.064C148.845 115.555 147.72 116.315 146.8 117.291C145.88 118.267 145.186 119.434 144.77 120.709C144.354 121.985 144.224 123.336 144.391 124.667C144.558 125.998 145.017 127.276 145.736 128.408C146.454 129.541 147.414 130.501 148.547 131.22C147.547 132.11 145.477 133.69 145.057 134.02L144.317 133.68C143.987 133.53 143.717 134.02 144.057 134.18C144.211 134.251 144.361 134.332 144.507 134.42C143.248 135.333 141.943 136.181 140.597 136.96C140.527 136.999 140.475 137.065 140.453 137.143C140.432 137.221 140.442 137.304 140.482 137.375C140.522 137.445 140.588 137.496 140.666 137.518C140.743 137.54 140.827 137.529 140.897 137.49C142.547 136.57 143.967 135.7 145.217 134.85C146.13 135.484 146.98 136.204 147.757 137C147.835 137.061 147.933 137.092 148.033 137.086C148.132 137.081 148.226 137.039 148.297 136.969C148.368 136.9 148.412 136.806 148.419 136.707C148.426 136.608 148.397 136.509 148.337 136.43C147.557 135.694 146.718 135.025 145.827 134.43C146.437 133.99 148.387 132.54 149.367 131.68C151.116 132.54 153.094 132.817 155.012 132.47C156.93 132.123 158.686 131.17 160.022 129.751C161.358 128.332 162.204 126.522 162.435 124.587C162.666 122.652 162.271 120.693 161.307 119C161.822 118.14 162.25 117.233 162.587 116.29C162.757 115.86 162.087 115.65 161.917 116.07ZM153.507 127.21C153.306 126.534 153.149 125.846 153.037 125.15L150.927 125.36C150.807 125.99 150.687 126.62 150.587 127.25C150.487 127.88 149.667 127.62 149.747 127.08C149.927 125.75 150.997 120.08 151.207 119.54C151.797 118.38 152.687 119.18 153.207 120.49C153.711 122.658 154.105 124.851 154.387 127.06C154.407 127.176 154.379 127.296 154.311 127.393C154.243 127.489 154.139 127.555 154.022 127.575C153.905 127.594 153.785 127.567 153.689 127.499C153.592 127.43 153.527 127.326 153.507 127.21ZM155.217 120.72C155.268 120.602 155.343 120.496 155.437 120.409C155.532 120.322 155.644 120.256 155.765 120.215C155.887 120.174 156.016 120.16 156.144 120.173C156.272 120.186 156.396 120.226 156.507 120.29C156.606 120.356 156.69 120.443 156.752 120.545C156.815 120.647 156.855 120.761 156.869 120.88C156.883 120.999 156.872 121.119 156.835 121.233C156.798 121.347 156.738 121.451 156.657 121.54C156.531 121.694 156.355 121.799 156.16 121.835C155.964 121.872 155.762 121.838 155.59 121.739C155.417 121.641 155.285 121.485 155.216 121.298C155.148 121.111 155.148 120.906 155.217 120.72ZM156.957 127.11C156.955 127.224 156.913 127.335 156.837 127.421C156.761 127.506 156.656 127.562 156.543 127.578C156.429 127.594 156.314 127.568 156.217 127.506C156.121 127.444 156.05 127.35 156.017 127.24C155.937 127.02 155.787 123.94 155.787 123.58C155.787 123.476 155.828 123.377 155.901 123.304C155.974 123.231 156.073 123.19 156.177 123.19C156.28 123.19 156.38 123.231 156.453 123.304C156.526 123.377 156.567 123.476 156.567 123.58C156.597 124.15 156.967 126.94 156.957 127.11Z" fill="#4C2FB3"/>
<path d="M151.127 124.369L152.867 124.179C152.693 122.96 152.398 121.761 151.987 120.599C151.757 121.599 151.337 123.379 151.127 124.369ZM54.7568 167.439C53.9168 167.939 54.6068 169.299 55.7568 168.789C55.7568 168.129 55.6968 167.639 55.6768 167.409C55.5322 167.34 55.3732 167.307 55.2131 167.312C55.053 167.317 54.8965 167.361 54.7568 167.439Z" fill="#4C2FB3"/>
<path d="M64.417 166.169C62.7618 166.428 61.0917 166.582 59.417 166.629C58.967 158.759 47.707 158.749 47.247 166.629C45.5097 166.462 43.7999 166.079 42.157 165.489C42.1262 165.474 42.0925 165.464 42.0579 165.461C42.0234 165.459 41.9887 165.463 41.9557 165.473C41.9227 165.484 41.8922 165.501 41.8658 165.524C41.8395 165.546 41.8178 165.574 41.802 165.604C41.7863 165.635 41.7767 165.669 41.774 165.703C41.7712 165.738 41.7753 165.773 41.786 165.806C41.7967 165.839 41.8137 165.869 41.8362 165.896C41.8587 165.922 41.8862 165.944 41.917 165.959C43.5833 166.842 45.409 167.382 47.287 167.549C47.4763 169.018 48.1939 170.366 49.3055 171.344C50.4171 172.321 51.8467 172.861 53.327 172.861C54.8073 172.861 56.2369 172.321 57.3485 171.344C58.4602 170.366 59.1777 169.018 59.367 167.549C61.1081 167.372 62.8376 167.095 64.547 166.719C64.6058 166.69 64.653 166.642 64.681 166.583C64.7089 166.524 64.7159 166.456 64.7008 166.393C64.6857 166.329 64.6494 166.272 64.5979 166.231C64.5464 166.191 64.4826 166.169 64.417 166.169ZM52.417 169.359C52.4034 169.427 52.3757 169.491 52.3357 169.547C52.2957 169.603 52.2442 169.65 52.1848 169.685C52.1253 169.72 52.0591 169.742 51.9906 169.75C51.9221 169.757 51.8527 169.75 51.787 169.729C51.487 169.639 51.537 169.469 51.057 168.789C50.907 169.039 50.757 169.299 50.617 169.559C50.5622 169.649 50.4751 169.714 50.3737 169.741C50.2724 169.768 50.1644 169.756 50.0721 169.706C49.9798 169.656 49.9102 169.572 49.8776 169.472C49.8451 169.373 49.852 169.264 49.897 169.169C50.087 168.809 50.277 168.439 50.487 168.079C50.2403 167.822 49.9652 167.594 49.667 167.399C49.5692 167.331 49.5013 167.227 49.477 167.11C49.4528 166.993 49.474 166.871 49.5364 166.769C49.5989 166.667 49.6978 166.593 49.8131 166.562C49.9284 166.53 50.0514 166.543 50.157 166.599C51.407 167.369 50.637 167.459 51.587 166.279C51.977 165.799 52.717 166.389 52.397 166.879C52.177 167.219 51.897 167.569 51.657 167.879C52.147 168.509 52.467 168.999 52.407 169.359H52.417ZM56.677 169.479C56.4642 169.671 56.2125 169.815 55.9391 169.902C55.6658 169.988 55.377 170.014 55.0925 169.979C54.808 169.944 54.5344 169.848 54.2902 169.698C54.0459 169.548 53.8368 169.347 53.677 169.109C53.4734 168.809 53.3654 168.454 53.3672 168.091C53.369 167.728 53.4805 167.374 53.687 167.075C53.8936 166.777 54.1856 166.548 54.5246 166.418C54.8637 166.289 55.234 166.265 55.587 166.349C55.5005 165.268 55.4705 164.184 55.497 163.099C55.4986 162.984 55.5427 162.873 55.6211 162.787C55.6995 162.702 55.8065 162.649 55.9217 162.638C56.0369 162.627 56.1522 162.658 56.2454 162.727C56.3386 162.796 56.4033 162.896 56.427 163.009C56.637 164.319 56.797 168.159 56.817 168.599C56.837 168.829 56.937 169.209 56.667 169.479H56.677ZM37.987 110.359C38.167 110.359 38.217 110.359 38.227 110.299C38.227 110.129 37.887 107.879 37.847 107.609C35.007 107.999 35.367 110.619 37.987 110.359Z" fill="#4C2FB3"/>
<path d="M45.057 100.879C43.8715 101.042 42.6962 101.272 41.537 101.569C40.6049 100.664 39.4683 99.9966 38.2236 99.6234C36.9789 99.2503 35.6626 99.1825 34.3861 99.4257C33.1096 99.669 31.9105 100.216 30.8903 101.021C29.87 101.826 29.0586 102.864 28.5248 104.049C27.9909 105.234 27.7503 106.53 27.8233 107.827C27.8963 109.125 28.2808 110.385 28.9441 111.503C29.6075 112.62 30.5302 113.561 31.6343 114.246C32.7384 114.932 33.9913 115.341 35.287 115.439C36.4153 118.616 38.3813 121.429 40.977 123.579C41.0007 123.602 41.0286 123.621 41.0592 123.633C41.0899 123.645 41.1226 123.651 41.1556 123.65C41.1885 123.65 41.2211 123.643 41.2514 123.63C41.2816 123.617 41.309 123.598 41.332 123.574C41.355 123.551 41.3731 123.523 41.3853 123.492C41.3975 123.462 41.4035 123.429 41.403 123.396C41.4026 123.363 41.3956 123.33 41.3826 123.3C41.3695 123.27 41.3507 123.242 41.327 123.219C39.1622 120.954 37.4092 118.328 36.147 115.459C37.6542 115.403 39.1158 114.927 40.3679 114.086C41.6201 113.246 42.6133 112.073 43.2362 110.699C43.8592 109.325 44.0873 107.805 43.8949 106.309C43.7025 104.814 43.0973 103.401 42.147 102.229C43.207 101.949 44.147 101.699 45.147 101.509C45.627 101.429 45.457 100.799 45.057 100.879ZM32.577 110.999V103.559C32.5924 103.46 32.6427 103.37 32.7188 103.305C32.7949 103.24 32.8918 103.204 32.992 103.204C33.0922 103.204 33.1891 103.24 33.2652 103.305C33.3413 103.37 33.3916 103.46 33.407 103.559C33.407 105.039 33.577 109.999 33.607 110.999C33.5725 111.109 33.5039 111.205 33.4113 111.273C33.3187 111.34 33.2069 111.377 33.092 111.377C32.9772 111.377 32.8653 111.34 32.7727 111.273C32.6801 111.205 32.6116 111.109 32.577 110.999ZM38.697 111.099C36.697 112.169 34.027 110.259 35.287 108.029C35.5633 107.632 35.9333 107.31 36.3642 107.09C36.795 106.87 37.2734 106.76 37.757 106.769C37.59 105.68 37.4898 104.581 37.457 103.479C37.4623 103.371 37.5057 103.268 37.5796 103.189C37.6534 103.109 37.753 103.058 37.8607 103.045C37.9684 103.032 38.0772 103.057 38.168 103.117C38.2589 103.176 38.3258 103.266 38.357 103.369C38.527 104.089 39.007 108.879 39.057 109.509C39.077 109.999 39.297 110.729 38.697 111.049V111.099Z" fill="#4C2FB3"/>
</svg>
