<svg width="154" height="154" viewBox="0 0 154 154" fill="none" xmlns="http://www.w3.org/2000/svg">
<path d="M33.5827 56.3874L33.8894 56.2035C33.6342 56.175 33.3776 56.2424 33.1693 56.3925C32.9611 56.5427 32.8161 56.7649 32.7625 57.016C32.7395 56.809 33.4294 56.4871 33.5827 56.3874ZM36.6719 58.4571C37.1472 59.2237 36.8789 59.4306 36.1584 59.6606C36.8559 59.7526 37.2085 59.4076 37.2009 59.0474C37.2009 58.4801 36.2273 57.2843 35.6678 56.832C35.9725 57.3917 36.3077 57.9342 36.6719 58.4571ZM33.7284 57.6062C33.5674 57.6982 33.6671 57.8285 33.8894 58.3345C33.8975 58.3582 33.9107 58.3799 33.9283 58.3979C33.9458 58.4159 33.9671 58.4297 33.9907 58.4384C34.0142 58.4471 34.0394 58.4504 34.0645 58.4481C34.0895 58.4458 34.1136 58.4379 34.1352 58.4251C34.1568 58.4123 34.1752 58.3948 34.1892 58.3739C34.2032 58.353 34.2123 58.3293 34.2159 58.3045C34.2195 58.2796 34.2176 58.2543 34.2101 58.2303C34.2027 58.2063 34.19 58.1843 34.173 58.1658L33.9507 57.6676C33.9403 57.6487 33.9263 57.6322 33.9094 57.6189C33.8926 57.6055 33.8732 57.5957 33.8525 57.59C33.8318 57.5843 33.8101 57.5828 33.7888 57.5856C33.7675 57.5884 33.7469 57.5954 33.7284 57.6062ZM36.8636 57.1157C36.9632 57.3073 37.2469 57.1157 37.1549 56.9547C37.0629 56.7937 37.0092 56.6251 36.9249 56.4718C36.8406 56.3184 36.5416 56.4718 36.6413 56.6404C36.7409 56.809 36.7946 56.9623 36.8636 57.1157ZM36.9632 60.5575C36.4245 60.8216 35.8061 60.8736 35.2308 60.7031C35.3328 60.8456 35.4701 60.9592 35.6292 61.0327C35.7883 61.1062 35.9638 61.1372 36.1384 61.1225C36.3131 61.1078 36.4809 61.048 36.6255 60.949C36.7701 60.8499 36.8865 60.715 36.9632 60.5575ZM143.13 52.3094L148.619 8.19443L131.28 6.04043L129.547 20.2983L128.873 20.2139L130.643 5.95611L113.549 3.83276C111.096 21.1491 111.633 16.1972 104.351 77.6822L121.644 79.8362C121.644 80.0738 121.537 80.7944 121.521 80.848L104.251 78.694C104.251 78.694 100.418 107.585 100.334 108.206C100.28 108.628 98.8698 108.053 135.649 113.212L143.038 53.0453L125.714 50.8989L125.806 50.1324L143.13 52.3094ZM106.443 62.8571C106.972 58.6258 108.153 49.1205 108.222 48.5916L125.277 50.715C124.749 54.977 123.56 64.5129 123.499 64.9805L106.443 62.8571ZM117.888 110.092L100.832 107.969L102.618 93.6111L119.674 95.7344C119.666 95.8188 117.873 110.207 117.888 110.115V110.092ZM136.776 97.6048C131.724 96.9763 120.831 95.5658 120.195 95.4815L121.981 81.124C144.641 83.9449 136.247 82.9484 138.646 83.2473C138.117 87.5324 136.837 97.1066 136.776 97.6278V97.6048ZM140.524 68.0697C139.995 72.3317 138.822 81.8676 138.761 82.4271C133.71 81.8062 122.717 80.3881 122.081 80.3115C122.61 76.0494 123.798 66.5136 123.867 65.954C128.911 66.6055 139.888 68.016 140.524 68.0927V68.0697ZM125.331 50.255L108.275 48.1394C108.812 43.8773 110 34.3415 110.061 33.7819L127.117 35.8976C125.96 45.2265 125.454 49.3275 125.331 50.255ZM127.247 35.085L110.169 32.9617L111.916 18.7038L129.011 20.6969C128.712 23.1345 127.247 35.1923 127.247 35.085ZM144.296 37.2697C139.252 36.6411 128.359 35.223 127.723 35.1463L129.501 20.8808L146.151 22.9965C145.645 27.2355 144.342 36.7408 144.273 37.2697H144.296ZM15.8065 58.0125C16.0791 57.5273 16.4529 57.1063 16.9026 56.7784C16.36 58.1323 16.2879 59.6293 16.698 61.0291C17.1081 62.4289 17.9765 63.6504 19.1639 64.4975C19.3709 64.6508 19.6009 64.3672 19.4936 64.1679C18.8777 62.8372 18.6876 61.3487 18.9493 59.9059C19.6299 61.1418 20.4758 62.279 21.4636 63.2864C21.6782 63.5163 22.0308 63.1637 21.8085 62.9414C20.8734 61.8836 21.042 59.7449 21.1416 58.4341C21.3639 55.5979 22.9737 54.6014 23.4413 52.9456C23.4579 52.8836 23.4495 52.8176 23.418 52.7617C23.3864 52.7058 23.3343 52.6645 23.2727 52.6467C21.5815 52.4572 19.8785 52.8816 18.474 53.8425C16.9409 54.7853 16.2204 56.2495 15.4078 57.7672C15.3951 57.8178 15.3988 57.8712 15.4184 57.9196C15.4381 57.968 15.4727 58.0088 15.5171 58.0362C15.5616 58.0635 15.6136 58.076 15.6657 58.0717C15.7177 58.0675 15.767 58.0467 15.8065 58.0125Z" fill="white"/>
<path d="M102.465 19.777C102.02 18.3742 100.732 14.9324 98.969 14.6334C97.7042 14.4188 97.6046 16.0055 97.4359 16.8564C95.9028 23.8627 89.4178 27.1205 84.4506 31.4208C80.9551 34.487 79.33 38.3581 77.8353 42.5971C77.0687 42.5128 76.3022 43.2181 75.7809 43.7546C73.0443 46.3916 70.6757 49.3275 68.1461 52.1254C65.7391 54.793 62.1976 57.1386 62.4889 61.0557C58.5412 64.8041 54.6471 68.6598 50.5921 72.8222C48.0625 69.4264 45.6402 67.372 40.9872 66.4598C39.5253 66.1612 38.0288 66.0683 36.5412 66.1839C36.2039 66.0229 35.8743 65.3713 35.7133 65.0417C35.5843 64.6926 35.4333 64.3521 35.2611 64.0222C35.9491 63.9786 36.5989 63.6904 37.0931 63.2097C38.688 63.5227 40.2193 64.1005 41.6234 64.9191C40.3816 60.2738 38.6262 48.4689 31.1217 49.2125C30.2248 49.2968 29.397 49.8334 28.5231 49.8487C28.3343 49.8465 28.1461 49.8697 27.9635 49.9177C22.5977 51.3895 22.268 57.7825 24.4374 61.9449C24.5503 62.1963 24.7118 62.4229 24.9126 62.6118C25.5412 63.133 30.1482 63.7156 30.2785 64.2828C30.8304 67.1267 30.0102 68.0236 28.1092 69.0508C24.8743 70.7602 22.2297 72.3623 19.6694 75.1219C14.5872 80.7177 14.1579 87.333 17.5614 94.1706C18.5119 96.064 20.6276 100.303 22.82 100.51C23.5777 100.513 24.323 100.317 24.9816 99.9428C25.0506 99.9428 25.5029 99.6131 25.5105 99.6208C25.9935 99.8891 27.3656 100.633 27.0436 101.085C26.8367 101.376 26.3384 101.085 26.1315 100.893C26.1048 100.873 26.0725 100.862 26.0391 100.861C26.0057 100.86 25.9729 100.869 25.9451 100.888C25.9173 100.906 25.8959 100.933 25.884 100.964C25.8721 100.995 25.8701 101.03 25.8785 101.062L26.1315 102.089C26.1928 102.35 26.4534 102.81 26.2924 103.07C26.1315 103.331 25.4262 102.135 25.3496 101.974C25.3242 101.93 25.2848 101.895 25.2376 101.876C25.1904 101.856 25.1381 101.853 25.0889 101.867C24.7517 101.966 25.0889 102.633 25.1809 102.833C25.1809 102.925 25.4799 103.599 25.3572 103.668C25.2346 103.737 25.0736 103.5 25.0276 103.446C24.744 103.086 24.675 102.219 24.3377 102.219C23.8625 102.219 24.5064 103.546 24.0234 103.308C23.8471 103.224 23.7398 102.894 23.6708 102.725C23.4652 102.022 23.3924 101.286 23.4562 100.556C23.3578 101.087 23.3192 101.627 23.3412 102.166C23.2172 102.272 23.1042 102.39 23.0039 102.518C16.3273 109.946 11.8583 114.622 7.97188 119.927C7.13634 121.069 4.24645 124.02 4.75237 125.569C5.38861 127.531 8.69244 125.569 9.64296 125.017C13.4757 122.886 16.8332 120.08 20.2367 117.351C30.9684 108.796 43.4632 98.1107 55.3907 86.9267C58.975 85.9506 62.3063 84.2118 65.1565 81.8292C66.7751 80.4367 68.2609 78.897 69.5948 77.2299C69.803 77.0292 69.9502 76.7737 70.0194 76.4929C70.0885 76.2122 70.0769 75.9176 69.9858 75.6431H70.7523C71.11 75.6542 71.4653 75.5817 71.79 75.4313C72.1147 75.2809 72.3998 75.0569 72.6227 74.7769C72.7147 74.5699 72.6227 74.3246 72.2471 74.294C72.3927 74.294 72.684 73.972 72.7607 73.8724C73.144 73.3818 72.8603 72.7532 72.2318 73.0062C71.9405 73.1288 72.1091 73.1212 72.2318 72.7456C72.2576 72.6684 72.2632 72.5859 72.248 72.506C72.2329 72.4261 72.1974 72.3514 72.1451 72.2891C72.0928 72.2268 72.0254 72.1789 71.9493 72.1501C71.8732 72.1213 71.791 72.1126 71.7105 72.1246C71.1413 72.2377 70.5861 72.4125 70.0548 72.6459C70.772 71.9873 71.4406 71.2777 72.0555 70.5226C72.5537 69.8863 73.4966 70.0856 74.2478 69.756C76.4555 68.8515 78.0805 66.4905 79.7133 64.8501C82.4192 62.1058 85.5851 59.6529 88.0687 56.717C88.521 56.1957 89.6018 55.1379 89.6018 54.2794C89.6018 54.2794 92.0624 53.2522 92.2541 53.1679C103.07 48.1853 106.282 31.6891 102.465 19.777ZM29.6423 61.5233C29.4735 61.6254 29.28 61.6794 29.0827 61.6794C28.8854 61.6794 28.6919 61.6254 28.5231 61.5233C27.3426 60.933 27.3656 59.3156 28.5231 59.7295C28.7684 59.8139 29.052 60.1588 29.2896 59.9672C29.5273 59.7755 29.443 59.3309 29.5733 59.101C30.1099 58.1428 32.2869 56.1804 31.9879 53.5741C33.139 53.3634 34.3244 53.4424 35.4374 53.8041C35.9988 54.1166 36.4428 54.6037 36.7022 55.1916C36.5285 55.0957 36.3245 55.071 36.1329 55.1224C35.9414 55.1739 35.7773 55.2976 35.675 55.4675C35.7517 55.4675 36.7022 55.1839 36.7482 55.2835C37.4198 56.4449 37.8962 57.7086 38.1586 59.0243C38.4806 61.7302 36.5335 63.7463 34.9774 63.7309C34.9486 63.7288 34.9197 63.7344 34.8937 63.7473C34.8678 63.7602 34.8459 63.7799 34.8302 63.8042C34.8145 63.8285 34.8056 63.8566 34.8046 63.8855C34.8035 63.9145 34.8103 63.9431 34.8241 63.9686L35.0771 64.4515C34.1266 65.8236 31.5126 65.9846 30.6924 65.5783C30.5774 64.0146 29.7956 61.3853 29.6116 61.5233H29.6423ZM26.7524 69.9553C28.2165 69.0891 30.1252 68.5602 30.5851 66.7895C31.4677 67.005 32.3827 67.0544 33.2834 66.9351C33.7606 66.9011 34.2248 66.7642 34.6443 66.534C35.0637 66.3038 35.4284 65.9856 35.7133 65.6013C35.7171 65.5631 35.7171 65.5246 35.7133 65.4863C35.8701 65.7159 36.0556 65.9246 36.2652 66.1072C36.3234 66.155 36.3849 66.1985 36.4492 66.2375C36.55 66.2795 36.6581 66.3011 36.7673 66.3011C36.8765 66.3011 36.9846 66.2795 37.0855 66.2375C36.9313 66.2731 36.7696 66.257 36.6255 66.1916C37.7472 66.1456 38.8705 66.2228 39.9754 66.4215C40.2745 69.9708 39.2838 73.5088 37.1851 76.3867C34.2009 73.7344 30.6825 71.753 26.8673 70.5762C26.492 70.5091 26.1133 70.4631 25.7328 70.4382C26.0625 70.2926 26.4151 70.1623 26.7217 69.9783L26.7524 69.9553ZM27.8715 97.1602C27.5802 97.4821 25.5719 99.3602 25.6715 99.6668L25.5259 99.6515C25.9298 99.1517 26.1942 98.554 26.2924 97.9191L30.9914 92.7525L31.7579 92.8522C30.7767 93.9483 30.5928 94.14 27.8409 97.1832L27.8715 97.1602ZM47.5259 75.9651C46.8973 74.0794 44.9656 70.4996 44.8046 70.7372C44.6436 70.9748 46.7133 74.0717 47.3496 76.103C43.2102 80.4034 33.0457 91.434 32.0186 92.5455C30.2372 92.4139 28.4747 92.0953 26.76 91.595C26.5471 89.6339 26.0967 87.706 25.4186 85.8536C26.8597 84.7574 29.2513 82.4041 29.1363 82.3044C29.0213 82.2048 26.714 84.7421 25.3036 85.7616C25.2943 85.7736 25.2892 85.7885 25.2892 85.8037C25.2892 85.819 25.2943 85.8338 25.3036 85.8459C26.0833 88.138 26.5223 90.5322 26.6067 92.9518C26.645 94.6306 26.6067 97.9344 25.4032 99.2912C25.0379 99.6116 24.6104 99.8532 24.1474 100.001C23.6845 100.149 23.196 100.199 22.7126 100.15C21.5168 99.8661 20.6966 98.425 20.0527 97.4898C17.7328 94.2395 16.3223 90.4289 15.967 86.4515C15.4841 79.7212 19.7154 74.3553 25.4262 70.6912C26.5136 70.7712 27.5729 71.0739 28.5384 71.5804C31.765 72.8817 34.7246 74.7656 37.2694 77.1379C38.4584 75.6412 39.3281 73.9169 39.8252 72.0712C40.3222 70.2255 40.4359 68.2975 40.1593 66.4062C45.0882 67.1727 47.6179 69.2271 50.3621 73.0215C49.4192 74.0104 48.4687 74.9839 47.5259 75.9651ZM77.6513 43.0724C77.2524 44.2001 77.0881 45.3974 77.1684 46.5909C76.9384 45.533 76.5704 43.1644 77.6589 43.0724H77.6513ZM69.6408 76.494C69.5488 76.678 68.422 77.9888 68.4833 77.9121C66.4038 80.5342 63.791 82.6846 60.8178 84.2208C59.3899 85.079 57.88 85.7929 56.3105 86.3518C55.659 86.5665 67.9391 74.9379 69.0813 73.7191C69.7558 76.3177 69.7558 76.2487 69.6408 76.494ZM71.9405 72.5463C71.9227 72.6371 71.8861 72.7233 71.8332 72.7992C71.5853 73.115 71.2747 73.376 70.921 73.5658C70.8817 73.5986 70.855 73.6441 70.8453 73.6944C70.8357 73.7447 70.8437 73.7968 70.868 73.8419C70.8924 73.8869 70.9315 73.9222 70.9789 73.9418C71.0263 73.9613 71.0789 73.9639 71.1279 73.949C72.4617 73.3818 72.5461 73.3358 72.6227 73.3205C72.6227 73.9107 71.2429 74.248 71.2736 74.5393C71.3043 74.8306 71.6492 74.6619 72.0401 74.5929C72.1091 74.5929 72.4387 74.5393 72.4541 74.5929C72.4694 74.6466 72.2164 74.9072 72.2854 74.8306C71.6492 75.3978 70.852 75.3135 69.9858 75.4055L69.4799 73.4355C69.4339 73.2515 69.2959 73.4354 69.7405 73.0062C69.7456 73.0287 69.7554 73.0499 69.7694 73.0683C69.7834 73.0867 69.8012 73.1018 69.8215 73.1127C69.8419 73.1236 69.8644 73.13 69.8874 73.1315C69.9105 73.133 69.9336 73.1294 69.9551 73.1212C71.4652 72.6076 71.7259 72.4543 71.9175 72.5463H71.9405ZM87.5474 56.6327C85.7001 58.6947 83.1168 60.9177 81.2464 62.6194C78.4332 65.1567 76.0645 69.0584 73.0366 69.641C71.8751 69.7447 70.7048 69.6038 69.601 69.2276C68.4973 68.8513 67.4846 68.2479 66.6283 67.4564C63.4088 64.1985 60.7105 60.3044 67.0269 54.0571C69.1809 51.9261 71.1586 49.6111 73.2053 47.3728C74.1252 46.3762 75.7579 44.1762 76.5858 43.54C76.4676 44.0653 76.434 44.6062 76.4861 45.1421C76.9537 51.9721 85.769 57.2919 88.6206 55.3832C88.2817 55.8222 87.9156 56.2395 87.5244 56.6327H87.5474ZM84.6192 54.678C85.7307 55.0306 86.3286 54.7776 87.4631 54.678C87.9364 54.6357 88.4071 54.5692 88.8736 54.4787C88.0994 55.8125 86.3286 55.4752 84.5962 54.678H84.6192ZM102.572 32.6857C102.097 32.6857 102.005 31.9728 101.621 31.6738C101.464 31.5812 101.282 31.5389 101.1 31.5526C100.917 31.5663 100.744 31.6354 100.602 31.7505C100.035 32.1644 99.6129 33.4215 97.8115 34.5407C97.0833 34.993 96.4394 35.0926 95.8952 34.3951C94.8373 33.0536 95.7955 31.2599 95.7495 29.7114C95.7644 29.309 95.6704 28.9101 95.4775 28.5566C95.2845 28.2032 94.9998 27.9083 94.6534 27.7031C93.7335 27.2738 92.3537 27.7874 91.8171 26.8522C91.2805 25.917 92.7447 25.2425 93.2582 24.7902C95.6192 22.7128 97.6582 20.0069 98.0185 16.8794C98.0027 16.6519 98.0379 16.4238 98.1214 16.2116C98.205 15.9994 98.3348 15.8086 98.5014 15.6529C99.153 15.2313 99.9119 16.0209 100.257 16.7261C101.56 19.4436 102.419 22.3525 102.802 25.3421C102.901 26.193 103.875 32.6397 102.549 32.6857H102.572Z" fill="white"/>
<path d="M75.6735 134.813C74.9265 134.451 74.1391 134.178 73.3278 134.001C72.8372 133.878 71.994 133.855 71.7487 133.341C71.4114 132.636 71.6414 131.525 71.6184 130.758C71.4344 123.66 68.8435 117.075 65.1334 111.104C65.1569 110.62 65.2158 110.138 65.3097 109.663C65.2331 106.972 62.8568 105.6 61.1627 103.891C58.733 101.343 56.4817 98.6302 54.4247 95.7728C54.1181 95.3589 50.9752 92.078 51.0825 91.6411C50.316 92.4077 37.07 104.419 26.0394 113.365C26.0394 119.061 22.8505 123.215 24.6749 125.883C26.8366 129.049 31.1752 126.649 34.4944 125.676C35.3529 138.186 34.4944 137.726 34.1035 142.448C33.8965 144.832 33.3369 147.17 34.824 149.301C34.8643 149.369 34.9227 149.425 34.9927 149.462C35.4644 149.44 35.9287 149.337 36.3648 149.155C36.2191 148.642 36.0505 148.128 35.9432 147.622C36.0352 147.998 38.5724 148.159 38.8944 148.19C39.5536 148.251 43.8846 148.105 42.8115 146.603C42.3209 145.921 39.5996 145.07 39.4003 144.978C42.5432 139.451 44.8428 132.215 46.0386 126.098C47.7595 125.994 49.4003 125.335 50.7146 124.219C51.0672 123.89 54.7313 119.467 54.7926 119.513C59.5759 122.732 64.6505 126.941 66.7585 132.307C68.0693 135.649 66.8581 136.323 69.748 138.623C70.024 138.838 71.2275 138.477 70.9975 138.033L70.6296 137.32C70.8289 137.688 73.3125 136.921 73.6421 136.806C74.3292 136.58 74.9819 136.26 75.5815 135.856C76.2714 135.357 76.0951 135.043 75.6735 134.813ZM42.9418 135.58C42.4719 136.214 41.811 136.682 41.0561 136.914C39.4846 137.442 36.5028 137.511 35.3453 136.017C35.3927 132.531 35.2443 129.045 34.9007 125.576C38.6414 124.549 41.24 126.496 45.6784 126.144C45.0154 129.35 44.0951 132.498 42.9265 135.557L42.9418 135.58ZM53.4282 111.05C48.8289 112.2 50.7453 115.029 45.8853 117.949C44.3522 118.869 43.0031 119.528 41.2017 119.114C39.1627 118.647 37.461 117.65 35.3223 118.309C33.4596 118.884 31.8498 120.164 29.8798 120.402C27.7028 120.655 26.3613 119.375 25.7404 117.558C25.8017 117.259 25.863 116.96 25.9167 116.661C25.9858 117.244 26.1772 117.805 26.4784 118.308C26.7796 118.812 27.1838 119.246 27.6644 119.582C29.4428 120.739 31.6198 119.528 33.4136 118.677C36.3111 117.29 37.4073 117.482 39.7299 118.279C42.2519 119.137 43.0721 119.145 45.1954 117.903C45.9943 117.462 46.7512 116.949 47.4568 116.37C48.6679 115.305 49.1202 113.771 50.1244 112.537C51.8491 110.383 54.808 110.521 57.1996 109.946C60.0895 109.249 61.8756 107.263 61.3237 104.251L61.7989 104.711C61.9025 105.904 61.5884 107.096 60.9102 108.083C60.2321 109.07 59.232 109.791 58.0811 110.123C56.571 110.575 54.9689 110.636 53.4282 111.019V111.05ZM68.5369 128.014C67.534 128.619 66.3579 128.873 65.1947 128.734C62.4004 125.001 58.948 121.808 55.0073 119.314C55.7633 118.487 56.6584 117.8 57.6519 117.282C60.3655 115.948 63.6846 115.343 65.0184 111.495C67.4407 115.542 69.932 120.494 70.7139 125.162C70.3369 126.334 69.5682 127.341 68.5369 128.014ZM70.1313 24.7213C72.8986 22.3603 76.808 18.8265 80.679 18.8572C76.7647 17.6262 72.5518 17.7341 68.7055 19.1638C66.4059 20.1143 60.3655 23.9164 62.1362 27.2203C63.7613 30.8154 68.6135 26.0628 70.1313 24.7213ZM68.5216 19.6621C72.1857 18.2823 75.6505 18.6886 79.2533 18.8265C75.6351 19.0182 72.6226 21.8467 70.001 24.0697C68.6442 25.2196 64.1599 30.1255 62.4275 27.1359C60.6261 23.9624 66.3292 20.4899 68.5216 19.6621ZM72.3006 32.5324V32.4865C69.6484 33.6669 66.9348 35.6446 66.4442 38.6955C66.2756 39.7457 66.3982 41.8307 67.9773 41.4857C69.1655 41.2251 69.7097 39.6844 70.1773 38.6955C71.0665 36.8098 71.8867 34.8628 72.5919 32.9081H72.5383C69.0811 38.8335 69.1578 40.7882 67.8317 41.1178C66.6895 41.3938 66.4749 39.8607 66.5285 39.0941C66.9578 36.0279 70.07 34.1959 72.3006 32.5324Z" fill="white"/>
</svg>
