<svg width="200" height="200" viewBox="0 0 200 200" fill="none" xmlns="http://www.w3.org/2000/svg">
<path fill-rule="evenodd" clip-rule="evenodd" d="M99.9021 84.8252C99.5997 84.3758 99.2206 83.9832 98.7821 83.6652C98.518 83.6709 98.2579 83.7317 98.0186 83.8436C97.7792 83.9555 97.5659 84.1161 97.3921 84.3152C97.2221 84.5552 97.4821 84.9352 97.6521 85.1952C97.8315 85.4757 98.0393 85.7371 98.2721 85.9752C98.5821 86.1852 99.0721 85.7852 99.4221 85.5252C99.7721 85.2652 100.032 85.0852 99.9021 84.8252ZM98.5521 85.2852C98.4021 85.0952 98.1221 84.7352 97.9921 84.5252C98.2016 84.2939 98.4442 84.0951 98.7121 83.9352C98.7121 83.9352 99.0821 84.5951 99.2121 84.8451C98.9421 85.0351 98.7221 85.1852 98.5521 85.2852ZM100.662 86.5652C100.542 86.4252 99.5721 86.8052 99.2821 87.2152C99.1121 87.4552 99.3621 87.8352 99.5421 88.1052C99.7143 88.3878 99.9227 88.6467 100.162 88.8752C100.217 88.9178 100.283 88.9423 100.352 88.9452C100.672 88.9452 101.582 88.2352 101.722 88.0752C101.768 88.0311 101.8 87.9739 101.813 87.9112C101.825 87.8486 101.818 87.7836 101.792 87.7252C101.486 87.2752 101.104 86.8826 100.662 86.5652ZM100.442 88.1852C100.239 87.9422 100.048 87.6885 99.8721 87.4252C100.087 87.1995 100.329 87.0013 100.592 86.8352C100.592 86.8352 100.972 87.5052 101.102 87.7552C100.792 87.9552 100.612 88.0852 100.442 88.1852ZM106.182 94.6051C108.492 92.9151 105.312 89.7652 103.522 92.0852C103.335 92.3962 103.237 92.7523 103.237 93.1152C103.237 93.478 103.335 93.8341 103.522 94.1451C103.814 94.5586 104.258 94.8393 104.757 94.9256C105.256 95.0118 105.768 94.8966 106.182 94.6051ZM103.882 92.7551C104.002 90.9951 106.942 91.5251 106.312 93.3851C106.207 93.6821 105.994 93.9287 105.715 94.0764C105.437 94.2241 105.114 94.2622 104.809 94.1831C104.504 94.1041 104.239 93.9136 104.068 93.6492C103.896 93.3849 103.83 93.0659 103.882 92.7551ZM100.452 84.4952C100.509 84.5326 100.574 84.5534 100.642 84.5552C100.972 84.5552 101.872 83.8552 102.012 83.6952C102.061 83.6504 102.093 83.5914 102.106 83.5266C102.119 83.4619 102.11 83.3948 102.082 83.3352C101.777 82.8908 101.398 82.5019 100.962 82.1852C100.699 82.1967 100.441 82.26 100.202 82.3715C99.9638 82.4831 99.7496 82.6406 99.5721 82.8352C99.4021 83.0752 99.6621 83.4652 99.8321 83.7152C100.008 83.998 100.216 84.2598 100.452 84.4952ZM100.892 82.4952C100.892 82.4952 101.262 83.1552 101.392 83.4052C101.032 83.6552 100.872 83.7551 100.732 83.8451C100.572 83.6451 100.302 83.2952 100.162 83.0852C100.368 82.8349 100.615 82.6218 100.892 82.4552V82.4952ZM103.902 86.5951C103.948 86.5508 103.979 86.4929 103.989 86.43C104 86.367 103.991 86.3023 103.962 86.2452C103.66 85.7958 103.281 85.4032 102.842 85.0852C102.579 85.0967 102.321 85.16 102.082 85.2715C101.844 85.3831 101.63 85.5406 101.452 85.7352C101.282 85.9752 101.552 86.3752 101.712 86.6252C101.894 86.9011 102.101 87.159 102.332 87.3952C102.39 87.432 102.454 87.4559 102.522 87.4652C102.862 87.4752 103.752 86.7551 103.902 86.5951ZM102.612 86.7052C102.413 86.4614 102.226 86.2078 102.052 85.9452C102.264 85.7162 102.506 85.5177 102.772 85.3552C102.772 85.3552 103.142 86.0152 103.272 86.2652C103.032 86.4652 102.772 86.6152 102.612 86.7552V86.7052ZM154.032 83.9052C153.922 83.9852 153.352 84.4052 152.812 84.9052C152.272 85.4052 150.552 87.0552 150.412 87.8052C150.402 87.9423 150.423 88.08 150.473 88.2081C150.523 88.3362 150.602 88.4513 150.702 88.5452C150.962 88.8252 151.992 89.7052 151.992 89.2852C151.967 89.2135 151.926 89.1486 151.872 89.0951C151.563 88.8003 151.297 88.4637 151.082 88.0951C150.902 87.7351 152.842 85.8951 154.232 84.0951C154.382 83.9651 154.182 83.7552 154.032 83.9052ZM151.292 90.8652C151.152 91.0652 151.012 91.4751 151.292 91.5051C151.292 91.5051 151.542 91.2151 151.852 91.1751C152.442 91.1751 152.412 92.0652 152.402 92.6652C152.402 92.8352 152.632 92.9052 152.672 92.7352C152.943 92.3593 153.065 91.8957 153.012 91.4352C152.812 90.5952 151.702 90.2452 151.292 90.8652ZM151.722 84.9252C151.844 84.9723 151.98 84.9705 152.101 84.9203C152.222 84.87 152.319 84.7751 152.372 84.6552L152.612 84.1052C152.666 83.9844 152.67 83.8472 152.623 83.7235C152.577 83.5998 152.483 83.4997 152.362 83.4452C152.303 83.4167 152.239 83.4003 152.174 83.397C152.108 83.3937 152.043 83.4035 151.981 83.4258C151.92 83.4482 151.864 83.4827 151.816 83.5272C151.768 83.5718 151.729 83.6255 151.702 83.6852L151.452 84.2652C151.426 84.3261 151.412 84.3917 151.412 84.4581C151.411 84.5245 151.424 84.5903 151.449 84.6517C151.474 84.7132 151.511 84.769 151.558 84.8159C151.605 84.8629 151.661 84.9 151.722 84.9252ZM155.522 86.9752C155.6 87.0228 155.691 87.0471 155.782 87.0452C156.262 87.0452 156.212 86.6152 156.472 86.3952C156.573 86.309 156.635 86.1863 156.646 86.054C156.656 85.9218 156.613 85.7909 156.527 85.6902C156.441 85.5894 156.318 85.527 156.186 85.5166C156.054 85.5063 155.923 85.549 155.822 85.6352C155.452 85.9452 155.032 86.6752 155.522 86.9752ZM83.5621 61.8552C90.2321 62.2852 106.132 61.4652 106.132 60.6852C106.042 25.3852 106.252 27.2152 105.842 27.1352C99.0421 25.8752 96.4121 25.3352 91.7821 25.9552C85.4721 26.8152 83.1221 28.4952 72.7821 28.7252C66.7821 28.8652 66.9421 28.5852 66.8921 28.8252C66.7221 29.6252 66.5721 63.7652 67.1821 64.3952C68.3421 65.5652 78.2121 61.5052 83.5621 61.8552ZM67.1321 28.9552C70.9427 29.1125 74.7593 29.0457 78.5621 28.7552C85.6521 28.1252 90.9021 25.6452 97.5621 26.3052C99.1821 26.4652 103.882 27.3052 105.502 27.6452V60.3852C104.212 60.5252 98.5921 61.0952 92.5021 61.2952C82.6521 61.6252 83.9521 60.6952 78.6221 61.7152C74.1021 62.5752 68.6221 64.3652 67.6221 63.9952C67.2221 61.8052 67.0321 30.4752 67.1321 28.9552Z" fill="#4C2FB3"/>
<path fill-rule="evenodd" clip-rule="evenodd" d="M80.1722 53.9451C82.1722 53.5951 95.5122 45.8651 96.3722 44.0851C96.4286 44.0045 96.4588 43.9085 96.4588 43.8101C96.4588 43.7117 96.4286 43.6157 96.3722 43.5351C95.3722 42.4551 80.9522 35.5351 79.3122 35.4851C78.3122 35.4851 78.8322 51.7751 79.5722 53.6051C79.6115 53.7266 79.6949 53.8289 79.806 53.8919C79.9171 53.9548 80.0478 53.9738 80.1722 53.9451ZM79.2722 35.7551C80.8522 35.8451 94.4522 42.8151 95.7722 43.8751C94.3222 45.7551 82.3222 52.8251 80.0322 53.3551C78.8122 49.7551 79.3722 35.7551 79.2722 35.7551ZM43.9222 36.9951C43.9109 37.1594 43.8909 37.3229 43.8622 37.4851C43.8493 37.5496 43.8494 37.616 43.8626 37.6803C43.8759 37.7447 43.9019 37.8058 43.9392 37.8599C43.9765 37.9141 44.0244 37.9601 44.0799 37.9954C44.1354 38.0306 44.1974 38.0543 44.2622 38.0651C44.3907 38.0887 44.5233 38.0612 44.6317 37.9883C44.7401 37.9154 44.8156 37.803 44.8422 37.6751C44.8823 37.4771 44.909 37.2767 44.9222 37.0751C44.9275 37.0094 44.9197 36.9434 44.8995 36.8807C44.8792 36.818 44.8468 36.76 44.8041 36.7098C44.7613 36.6597 44.7092 36.6185 44.6505 36.5885C44.5919 36.5585 44.5279 36.5404 44.4622 36.5351C44.3966 36.5299 44.3305 36.5376 44.2678 36.5579C44.2052 36.5781 44.1471 36.6106 44.097 36.6533C44.0468 36.696 44.0056 36.7482 43.9756 36.8068C43.9456 36.8655 43.9275 36.9294 43.9222 36.9951ZM44.1322 42.3651C44.1322 42.3651 43.2022 41.6151 43.1322 41.5351C43.0139 41.4634 42.9033 41.3796 42.8022 41.2851C42.8022 41.0851 42.3622 41.0351 42.6222 41.7551C42.8022 42.2551 43.7622 42.8851 44.2122 42.6051C44.2441 42.5945 44.2704 42.5717 44.2854 42.5417C44.3004 42.5117 44.3028 42.4769 44.2922 42.4451C44.2816 42.4133 44.2588 42.387 44.2288 42.372C44.1988 42.357 44.164 42.3545 44.1322 42.3651Z" fill="#4C2FB3"/>
<path fill-rule="evenodd" clip-rule="evenodd" d="M54.3424 87.5753C55.0924 86.9853 53.9524 83.3753 52.5224 79.0753C59.1524 81.4453 64.6624 82.4753 71.5224 81.1353C72.7824 81.3353 74.0024 81.5053 75.1424 81.6353C75.3424 81.6353 75.5824 81.3753 75.9024 80.7953C76.9152 81.4685 78.1347 81.7592 79.3424 81.6153C80.2624 81.3553 83.3424 79.7653 83.6024 78.9553C83.6345 78.8759 83.6504 78.791 83.6491 78.7054C83.6478 78.6199 83.6293 78.5354 83.5948 78.4571C83.5603 78.3788 83.5105 78.3082 83.4482 78.2495C83.386 78.1908 83.3126 78.1451 83.2324 78.1153C86.0324 77.4515 88.8713 76.9639 91.7324 76.6553C100.262 75.7153 115.792 78.5253 121.312 78.1553C129.012 77.6253 144.902 70.1553 145.562 68.3753C146.102 66.9353 148.912 8.87527 146.632 5.37527C146.545 5.23769 146.418 5.12972 146.268 5.06549C146.118 5.00126 145.952 4.98376 145.792 5.01527C142.562 5.10527 126.442 11.0753 120.432 11.3653C113.202 11.7553 99.2624 8.65527 90.6224 9.60527C78.1324 10.9953 72.6024 14.9553 63.7824 14.7553C53.1224 14.4653 44.7824 8.14527 34.5224 6.83527C28.1524 6.02527 19.3924 6.11527 13.8224 8.30527C13.2181 8.49171 12.6641 8.81315 12.2024 9.24527C11.4224 10.3353 11.7724 36.6053 11.7824 37.6453C11.4224 36.8853 10.7824 37.1253 10.4324 37.9053C9.74236 39.5853 9.95236 43.8453 9.92236 44.3953C9.49404 45.6627 9.13024 46.951 8.83236 48.2553H7.83236C7.78735 48.2555 7.74362 48.2703 7.70761 48.2973C7.6716 48.3243 7.64522 48.3621 7.63236 48.4053C5.63236 54.4653 2.96236 66.9553 7.45236 71.5553C8.87306 73.1113 10.7877 74.1287 12.8724 74.4353C12.9011 75.0171 13.0087 75.5924 13.1924 76.1453C13.6324 76.8453 15.1924 76.2553 17.8924 75.4353C16.8778 78.0319 15.9967 80.6787 15.2524 83.3653C14.9524 84.3653 13.4124 90.3053 13.7424 90.9653C14.0724 91.6253 15.0924 91.7053 15.7424 91.8653C13.838 103.994 13.4584 116.313 14.6124 128.535C14.6624 129.065 15.2024 129.535 16.1224 129.835C15.9324 139.655 17.5824 157.755 18.0324 158.265C18.183 158.369 18.3531 158.44 18.5324 158.475C18.5324 159.335 18.4824 160.825 18.5324 161.895C18.5139 161.954 18.5139 162.017 18.5324 162.075C18.5237 162.441 18.5989 162.803 18.7524 163.135C19.6324 164.265 26.9924 164.285 27.3624 163.995C27.5006 163.904 27.614 163.78 27.6925 163.634C27.771 163.489 27.8121 163.326 27.8121 163.16C27.8121 162.995 27.771 162.832 27.6925 162.686C27.614 162.54 27.5006 162.416 27.3624 162.325C26.8715 162.022 26.3524 161.768 25.8124 161.565C24.9341 161.224 24.0172 160.992 23.0824 160.875C23.0824 160.285 23.0824 159.445 23.1624 158.765C23.2666 158.771 23.3694 158.74 23.4533 158.678C23.5372 158.616 23.597 158.526 23.6224 158.425C24.1824 156.885 28.0124 138.255 29.3624 130.985C32.7924 130.985 36.4724 130.785 39.9524 130.535C40.6524 141.425 43.2324 156.825 43.5924 157.155C43.7604 157.258 43.9475 157.326 44.1424 157.355V159.985C44.1225 160.044 44.1225 160.107 44.1424 160.165C44.1337 160.531 44.2089 160.893 44.3624 161.225C45.2324 162.355 52.5924 162.375 52.9724 162.085C53.1106 161.994 53.224 161.87 53.3025 161.724C53.381 161.579 53.4221 161.416 53.4221 161.25C53.4221 161.085 53.381 160.922 53.3025 160.776C53.224 160.63 53.1106 160.506 52.9724 160.415C52.4837 160.108 51.9642 159.854 51.4224 159.655C50.5434 159.316 49.6268 159.085 48.6924 158.965V157.485C48.7742 157.467 48.8514 157.432 48.9186 157.382C48.9859 157.332 49.0417 157.269 49.0824 157.195C50.2724 154.285 52.0824 137.285 52.0824 129.195C53.4224 128.955 57.2124 128.255 57.9724 127.195C59.0324 125.585 55.5824 103.755 53.0324 88.5053C53.4865 88.2206 53.9239 87.9101 54.3424 87.5753ZM75.1224 81.1353C67.6924 80.2153 56.5324 77.8453 50.6124 73.3053C47.8924 64.6553 48.3624 62.0753 49.7124 52.6953C53.1924 55.8853 55.7124 59.6053 57.9524 62.3053C59.4324 64.0553 75.5424 75.9353 77.0924 77.3653C76.504 78.6564 75.8463 79.9149 75.1224 81.1353ZM29.1824 27.0253C29.4669 27.3735 29.8529 27.6242 30.2867 27.7425C30.7206 27.8609 31.1805 27.8408 31.6024 27.6853C31.5024 28.1453 31.5024 28.2653 31.6024 28.4353C30.817 28.8585 30.1343 29.4491 29.6024 30.1653C28.4624 32.0353 28.6324 31.7553 28.7124 32.7553C28.3794 32.9765 28.1028 33.2726 27.9049 33.6199C27.7069 33.9672 27.593 34.356 27.5724 34.7553C27.4944 35.4216 27.518 36.096 27.6424 36.7553C27.7199 37.1807 27.8907 37.5837 28.1424 37.9353C28.3308 38.2072 28.5741 38.4366 28.8565 38.6089C29.139 38.7811 29.4543 38.8923 29.7824 38.9353C29.7098 39.3656 29.7098 39.805 29.7824 40.2353C30.0882 41.5086 30.7881 42.653 31.7824 43.5053C32.1677 43.8171 32.6379 44.0059 33.1319 44.0469C33.626 44.0879 34.1209 43.9793 34.5524 43.7353C34.4524 44.2753 34.2924 45.1053 34.1424 45.9653C33.3406 45.9637 32.5393 46.0071 31.7424 46.0953C30.9524 45.3053 24.8324 46.2153 24.8324 48.2553C22.5568 49.4989 20.5079 51.1184 18.7724 53.0453C18.2524 42.4453 17.6524 23.4653 17.5724 23.4253C18.5724 22.9753 24.7224 22.5353 30.8324 23.1753C30.4677 23.3151 30.1348 23.5266 29.8533 23.7974C29.5718 24.0681 29.3475 24.3926 29.1937 24.7515C29.0398 25.1105 28.9596 25.4967 28.9576 25.8873C28.9557 26.2778 29.0321 26.6648 29.1824 27.0253ZM40.8124 26.2353C39.6124 26.7153 33.7424 28.3553 32.2924 28.3253C32.1024 28.0553 32.1124 28.1753 32.2224 27.7453C37.3324 27.0753 39.7424 24.3553 40.8124 26.2353ZM46.3924 36.2353C46.4724 36.8753 47.2424 39.3453 47.3124 40.0453C47.0824 40.2153 46.4124 40.2853 46.2324 40.4653C46.0484 40.9733 45.9406 41.5057 45.9124 42.0453C45.6024 43.9053 44.0524 44.3553 42.1724 44.4353C41.4324 44.4353 41.6724 44.4353 41.3624 47.2853C39.2461 46.5337 37.0268 46.1121 34.7824 46.0353C34.9724 44.9753 35.1024 44.3053 35.1824 43.8653C35.2611 44.012 35.3939 44.1223 35.5526 44.1727C35.7113 44.2231 35.8834 44.2097 36.0324 44.1353C36.7524 43.7653 36.5724 43.0053 36.2724 42.2653C35.6424 40.7153 36.0424 40.1053 35.7024 39.9153C35.2454 39.6491 34.8608 39.2748 34.5824 38.8253C34.0224 37.8253 34.5824 36.8253 35.2224 36.8253C36.4324 36.8253 36.4924 38.0853 36.8324 38.8253C37.3324 39.9753 38.6224 38.6653 38.4724 36.2553C38.6524 36.1353 39.4024 36.1953 39.7524 35.9553C40.1024 35.7153 40.2924 35.0453 40.5724 34.7153C40.9773 34.8802 41.4152 34.9481 41.8511 34.9133C42.287 34.8786 42.7087 34.7423 43.0824 34.5153C43.2748 34.3771 43.434 34.1976 43.5482 33.99C43.6624 33.7824 43.7287 33.5518 43.7424 33.3153C43.9448 33.452 44.1789 33.5347 44.4224 33.5553C44.9345 33.5401 45.4213 33.3289 45.7824 32.9653C46.061 33.1844 46.3187 33.4287 46.5524 33.6953C46.9124 35.4553 46.3224 35.6653 46.3924 36.2253V36.2353ZM27.6624 46.5753C28.8551 46.3185 30.0834 46.2711 31.2924 46.4353C31.8513 47.6213 32.8264 48.5608 34.0324 49.0753C31.9324 50.5453 27.4224 49.7553 27.6624 46.5753ZM31.8924 46.4053C35.8272 45.9959 39.7983 46.6883 43.3624 48.4053C40.7724 50.2453 37.7024 49.8853 34.7424 48.7153C33.5459 48.3122 32.5344 47.4923 31.8924 46.4053ZM41.9624 47.4953C42.0524 46.6953 42.1224 45.8453 42.1924 45.0353C44.3824 44.9253 46.1324 44.2953 46.4824 42.1253C46.4824 41.8753 46.6024 41.1253 46.6524 40.8453C48.0424 40.3653 48.0224 40.5253 47.5724 38.8453C47.5724 38.9453 46.8924 36.5553 46.8324 36.0553C46.9634 35.7783 47.0446 35.4804 47.0724 35.1753C47.3224 35.3153 47.6224 35.0253 47.7624 34.5953C48.1624 33.3053 47.1924 32.8953 47.2024 32.4353C47.3204 31.857 47.2894 31.2583 47.1124 30.6953C47.0325 30.2109 46.8468 29.7501 46.5685 29.3456C46.2902 28.9411 45.9262 28.603 45.5024 28.3553C45.3224 28.2653 44.8124 28.0753 44.7724 28.0353C44.4224 27.6753 44.3824 26.6953 42.5624 26.3553C42.0824 26.2653 41.5624 26.3553 41.3524 26.2653C41.2297 25.9235 40.9977 25.6318 40.6924 25.4353C40.1324 25.0753 40.0624 25.3153 40.2724 25.0853C45.9024 26.4353 53.2724 28.3353 57.0224 29.3253C56.9724 31.6353 56.5424 49.8653 55.9524 59.2553C54.0975 56.7764 52.026 54.4673 49.7624 52.3553C50.0224 50.5653 45.1024 47.0953 43.6224 48.2253C43.0824 47.9453 42.5224 47.7553 41.9624 47.4953ZM49.2724 52.1353C49.0124 53.5753 48.8424 54.3853 48.5524 56.3653C47.7998 56.4593 47.0358 56.3426 46.3456 56.0284C45.6553 55.7141 45.0657 55.2146 44.6424 54.5853C44.3871 53.6074 44.4836 52.5709 44.915 51.657C45.3464 50.743 46.0852 50.0098 47.0024 49.5853C48.2524 50.4053 49.3724 51.5353 49.2724 52.1353ZM50.0324 73.7553C47.7524 74.5553 44.2524 73.5153 44.5224 70.8053C44.5482 69.8059 44.9608 68.8554 45.6733 68.1541C46.3858 67.4528 47.3427 67.0553 48.3424 67.0453C48.7816 69.3114 49.3457 71.5515 50.0324 73.7553ZM78.5224 72.9953C78.5924 73.4153 78.8124 75.4053 78.8224 75.9953C78.8224 76.1553 78.8224 76.0953 78.6824 76.1353C78.2736 76.2374 77.8597 76.3176 77.4424 76.3753C77.2624 75.4353 77.2224 75.0653 76.9424 73.6153C78.2224 73.0653 78.3324 73.0653 78.5524 72.9853L78.5224 72.9953ZM82.7824 78.9953C81.6856 79.8668 80.47 80.5773 79.1724 81.1053C78.0959 81.2528 77.0006 81.0457 76.0524 80.5153C76.3024 80.0353 76.6024 79.4053 76.9724 78.6353C77.2724 78.7253 77.4924 78.6353 77.8324 78.3753C78.4524 77.9353 79.5924 77.1453 79.2024 77.8853C78.9224 78.4153 78.4324 78.7953 78.5824 79.1553C78.7324 79.5153 79.2124 79.3953 79.5824 79.3453C80.5592 79.1848 81.5246 78.961 82.4724 78.6753C82.6324 78.6253 83.3224 78.5353 82.8124 78.9853L82.7824 78.9953ZM87.1024 74.2853C87.1024 74.4453 87.1024 74.3853 86.9524 74.4153C86.5355 74.4836 86.1146 74.5237 85.6924 74.5353C85.6024 73.6153 85.5724 72.9753 85.4424 71.7553C85.9744 71.5834 86.5151 71.4398 87.0624 71.3253C87.1324 71.7553 87.1624 73.7553 87.1324 74.2753L87.1024 74.2853ZM96.0324 73.5953C96.0324 73.7553 96.0324 73.6953 95.8724 73.7153C95.4527 73.7403 95.032 73.7403 94.6124 73.7153V70.9253C95.9724 70.6553 96.0924 70.6753 96.2624 70.6453C96.3124 71.0953 96.1624 73.0553 96.0324 73.5953ZM105.522 74.2553C105.522 74.4053 105.522 74.3553 105.342 74.3453C104.923 74.3256 104.506 74.2788 104.092 74.2053C104.152 73.6053 104.332 72.4153 104.432 71.4353C105.782 71.3253 105.812 71.3653 106.112 71.3453C106.092 71.7553 105.712 73.7553 105.562 74.2553H105.522ZM125.112 74.5353C125.112 74.6853 125.112 74.6353 124.952 74.6553C124.534 74.6995 124.113 74.7195 123.692 74.7153C123.692 73.8353 123.692 73.2453 123.582 71.9253C125.082 71.5553 124.972 71.6253 125.222 71.5653C125.272 72.0253 125.212 73.9753 125.152 74.5353H125.112ZM133.812 72.1453C133.812 72.3053 133.812 72.2453 133.662 72.2753C133.249 72.3551 132.832 72.4119 132.412 72.4453C132.342 71.9753 132.222 70.7953 132.062 69.6653C133.402 69.2253 133.512 69.2353 133.672 69.1753C133.762 69.6053 133.872 71.5853 133.852 72.1453H133.812ZM141.102 68.8653C141.102 68.9753 141.102 68.9353 140.982 68.9553C140.613 69.0265 140.238 69.0733 139.862 69.0953C139.752 68.2853 139.742 67.9253 139.572 66.6553C140.043 66.482 140.524 66.3384 141.012 66.2253C141.092 66.6353 141.162 68.3853 141.142 68.8653H141.102ZM145.882 53.7553C139.602 56.7553 137.062 59.9653 129.112 61.4053C125.695 62.0861 122.17 62.0144 118.782 61.1953C118.032 57.9353 118.182 29.1953 118.252 28.1353C127.692 29.5353 146.772 22.4953 146.872 22.4653C146.762 32.2153 146.322 44.3953 145.882 53.7553ZM12.0324 17.1553C16.2124 16.5753 22.9024 14.6553 30.3224 15.3453C41.3224 16.3453 49.5124 22.0453 61.0224 22.9753C73.7624 23.9753 78.8924 19.7753 92.2724 18.7753C101.442 18.0853 113.542 20.8353 120.972 20.8853C127.032 20.8853 141.132 17.4453 146.972 16.2353V22.1653C146.872 22.1653 126.132 29.3653 118.132 27.4853C118.132 27.4853 117.802 27.4853 117.782 27.7753C117.712 28.9253 117.412 59.7153 118.372 61.5253C118.398 61.5777 118.435 61.6243 118.48 61.6621C118.524 61.6999 118.576 61.7282 118.632 61.7453C122.132 62.6102 125.779 62.6887 129.312 61.9753C137.222 60.5353 139.922 57.3253 145.942 54.3753C145.792 57.3753 145.652 60.1053 145.522 62.3053C138.522 65.1053 130.322 68.4853 122.622 69.1053C116.752 69.5853 100.152 67.2453 90.9524 67.9253C80.9524 68.6753 76.1824 70.7053 70.4224 71.5653C57.9124 62.1853 58.7224 62.7553 56.5424 59.9553C57.1324 50.9553 57.5424 32.8453 57.6224 29.0753C57.6243 29.0091 57.6035 28.9442 57.5635 28.8915C57.5235 28.8387 57.4666 28.8012 57.4024 28.7853C53.0324 27.6453 46.5924 26.0553 40.5624 24.6253C40.676 24.4071 40.7147 24.1576 40.6724 23.9153C40.6228 23.6057 40.4866 23.3165 40.2796 23.0812C40.0725 22.8458 39.8031 22.6739 39.5024 22.5853C39.6099 22.422 39.6672 22.2308 39.6672 22.0353C39.6672 21.8398 39.6099 21.6486 39.5024 21.4853C39.2824 21.1431 38.9536 20.8849 38.569 20.7525C38.1844 20.62 37.7664 20.621 37.3824 20.7553C35.7624 18.6053 31.9824 19.9453 31.2124 21.8853C30.4424 23.8253 33.3024 22.5353 24.4124 22.6353C23.1324 22.6353 18.2224 22.8153 17.4124 23.3453C17.2824 23.4253 18.1924 51.0853 18.3124 53.6953C17.4116 54.7266 16.6019 55.8341 15.8924 57.0053C15.5997 54.071 14.9757 51.1792 14.0324 48.3853C14.0324 48.3153 14.0324 48.2753 13.6624 48.2553C13.4264 47.0988 13.2528 45.9304 13.1424 44.7553C15.4224 42.3753 14.6624 41.3253 13.6724 41.6353C13.2381 41.8551 12.7866 42.039 12.3224 42.1853C12.0324 36.0153 11.9624 22.9453 12.0324 17.1553ZM10.3624 44.5953C10.4324 44.4953 10.6724 36.5453 11.2524 37.9253C11.6924 38.9853 11.6424 42.1953 11.7424 42.3853C12.2224 43.3853 13.5024 42.1553 14.0224 42.1353C14.2824 42.4653 13.0224 44.0353 12.7124 44.3953C12.4024 44.7553 12.7124 45.2653 13.3324 48.2453H9.16236C9.57236 46.9053 10.1724 44.9753 10.3624 44.5953ZM13.4924 73.9553C11.3317 73.8001 9.31616 72.8102 7.87236 71.1953C3.54236 66.8053 6.19236 54.5353 8.03236 48.6853H13.7024C14.6513 51.5696 15.2719 54.5518 15.5524 57.5753C15.5572 57.6162 15.5751 57.6544 15.6035 57.6842C15.6319 57.714 15.6692 57.7337 15.7098 57.7405C15.7504 57.7473 15.7921 57.7407 15.8287 57.7217C15.8652 57.7027 15.8946 57.6724 15.9124 57.6353C18.0524 53.8836 21.1607 50.7753 24.9124 48.6353C25.2437 54.908 24.1639 61.1752 21.7524 66.9753C20.1824 70.6253 19.2724 74.2253 13.4924 73.9553ZM23.2924 63.8253C24.1112 63.886 24.8907 64.201 25.5218 64.7263C26.1529 65.2516 26.6041 65.961 26.8124 66.7553C27.8924 70.5053 23.4624 71.7553 20.9024 70.3153C21.819 68.198 22.6169 66.0313 23.2924 63.8253ZM17.2924 78.6253C21.2924 79.9753 20.9424 86.4453 15.2924 85.4153C15.8424 83.4753 16.3924 81.4453 17.3324 78.6253H17.2924ZM14.3324 90.7553C14.4849 89.1597 14.776 87.5804 15.2024 86.0353C21.4724 87.3053 22.3324 79.7653 17.4224 78.3953C18.2789 75.7716 19.3353 73.2174 20.5824 70.7553C21.7838 71.4155 23.186 71.6113 24.5224 71.3053C29.6024 70.1453 27.6724 63.5753 23.3724 63.5353C24.9038 58.6268 25.4909 53.4724 25.1024 48.3453C25.0524 47.5253 26.1024 46.9553 27.3924 46.6053C27.3586 46.8909 27.3586 47.1796 27.3924 47.4653C27.6024 50.1853 32.3924 51.4653 34.8424 49.2153C36.7299 49.9101 38.7524 50.1599 40.7524 49.9453C41.9431 49.7398 43.0618 49.2339 44.0024 48.4753C44.4624 48.1253 45.6324 48.5953 46.7624 49.3153C45.7869 49.6743 44.9832 50.3887 44.5124 51.3153C44.2115 51.8411 44.0224 52.4233 43.9571 53.0256C43.8917 53.6279 43.9513 54.2371 44.1324 54.8153C44.5987 55.5528 45.2637 56.1439 46.0508 56.5207C46.8379 56.8975 47.7154 57.0446 48.5824 56.9453C48.0863 60.064 47.9989 63.234 48.3224 66.3753C47.5896 66.3549 46.8654 66.5363 46.2288 66.8996C45.5922 67.2629 45.0676 67.7941 44.7124 68.4353C42.1624 72.7253 46.5224 75.5253 50.2724 73.9153C51.4724 77.5753 54.3524 86.0253 53.9824 87.0453C52.7491 88.1143 51.3238 88.9389 49.7824 89.4753C49.6712 88.7831 49.3921 88.1288 48.9695 87.5695C48.5469 87.0101 47.9936 86.5629 47.3582 86.2669C46.7227 85.9709 46.0244 85.8351 45.3243 85.8714C44.6243 85.9077 43.9438 86.1151 43.3424 86.4753C41.4124 87.7353 40.9824 90.5853 41.5824 91.6853C38.0492 92.2607 34.4809 92.5948 30.9024 92.6853C31.6424 86.6853 22.2124 85.8453 22.4524 92.6853C19.6684 92.427 16.9348 91.7772 14.3324 90.7553ZM49.1524 89.7553C46.7725 90.6123 44.3188 91.2483 41.8224 91.6553V91.5953C41.6806 91.019 41.6616 90.4194 41.7667 89.8354C41.8718 89.2513 42.0986 88.6959 42.4324 88.2053C42.8392 87.5685 43.4331 87.0733 44.1326 86.7876C44.8321 86.5018 45.6029 86.4396 46.3392 86.6095C47.0755 86.7793 47.7412 87.1728 48.2448 87.7361C48.7485 88.2993 49.0655 89.0047 49.1524 89.7553ZM30.2424 92.6953C27.9424 92.6953 25.4324 92.6953 22.6924 92.6353C22.6576 91.601 23.0123 90.5914 23.6864 89.8062C24.3605 89.021 25.3048 88.5175 26.3324 88.3953C26.8836 88.3812 27.4315 88.4861 27.9386 88.7027C28.4457 88.9193 28.9002 89.2426 29.2712 89.6506C29.6422 90.0586 29.921 90.5418 30.0886 91.0671C30.2561 91.5925 30.3086 92.1478 30.2424 92.6953ZM24.8424 161.825C24.8027 161.913 24.7406 161.989 24.6624 162.045C22.7815 162.068 20.901 161.971 19.0324 161.755C18.9524 160.755 18.8824 159.375 18.8324 158.515C20.1381 158.724 21.4607 158.807 22.7824 158.765C22.4824 161.345 22.5524 161.195 22.8824 161.295C24.1124 161.755 23.9424 161.495 24.8424 161.825ZM23.0324 158.155C21.5314 158.213 20.0287 158.102 18.5524 157.825C17.9524 153.825 16.4724 137.735 16.4824 129.945C18.9524 130.745 23.6724 131.035 29.0024 130.945C27.4024 138.325 23.4624 156.865 23.0324 158.155ZM50.4324 159.915C50.3899 160.001 50.3283 160.077 50.2524 160.135C48.3719 160.164 46.4915 160.074 44.6224 159.865C44.5624 159.155 44.5124 158.215 44.4724 157.425C45.7384 157.629 47.0248 157.676 48.3024 157.565C48.1024 159.365 48.1424 159.295 48.4724 159.405C49.6524 159.755 49.5124 159.585 50.4124 159.915H50.4324ZM48.5024 156.915C47.0116 157.109 45.4984 157.038 44.0324 156.705C43.3624 153.975 41.0324 139.615 40.2724 130.535C44.7524 130.215 48.8924 129.745 51.7524 129.265C51.5524 137.205 49.4924 154.235 48.4824 156.885L48.5024 156.915ZM57.5024 126.795C55.2924 129.975 15.6924 132.135 15.3224 128.515C14.1717 116.367 14.5345 104.124 16.4024 92.0653C25.0424 94.6053 44.3024 93.6253 52.5224 88.8753C55.0324 104.175 58.3424 125.465 57.4424 126.755L57.5024 126.795Z" fill="#4C2FB3"/>
<path fill-rule="evenodd" clip-rule="evenodd" d="M37.7522 79.6451C37.8386 78.9981 37.7793 78.34 37.5786 77.7188C37.3779 77.0977 37.0409 76.5293 36.5922 76.0551C36.1558 75.5617 35.6062 75.1815 34.9904 74.9473C34.3747 74.7131 33.7114 74.6319 33.0573 74.7106C32.4033 74.7892 31.7782 75.0255 31.2356 75.399C30.693 75.7726 30.2491 76.2723 29.9422 76.8551C29.6046 77.4047 29.3896 78.0207 29.3119 78.661C29.2342 79.3013 29.2957 79.9508 29.4922 80.5651C31.0922 83.6151 37.2122 83.3551 37.7522 79.6451ZM30.3722 77.0951C30.6408 76.5807 31.0307 76.1396 31.5083 75.8098C31.9858 75.4801 32.5365 75.2717 33.1127 75.2028C33.6889 75.1338 34.2732 75.2064 34.815 75.4141C35.3568 75.6219 35.8398 75.9586 36.2222 76.3951C36.6153 76.8172 36.9091 77.3217 37.0822 77.8719C37.2552 78.4221 37.303 79.0041 37.2222 79.5751C36.7622 82.7651 31.3022 82.9951 29.9122 80.3251C29.7619 79.7841 29.7252 79.2179 29.8044 78.662C29.8836 78.1061 30.0769 77.5727 30.3722 77.0951ZM41.1122 61.3851C41.2048 60.7318 41.1486 60.0659 40.9477 59.4374C40.7468 58.8088 40.4065 58.2337 39.9522 57.7551C39.5165 57.2613 38.9675 56.8805 38.3523 56.6456C37.7371 56.4106 37.074 56.3284 36.42 56.4061C35.7661 56.4838 35.1407 56.719 34.5977 57.0916C34.0546 57.4642 33.6101 57.9629 33.3022 58.5451C29.7622 64.9351 40.3922 66.4051 41.1122 61.3851ZM33.7322 58.8351C34.0008 58.3207 34.3907 57.8796 34.8683 57.5498C35.3458 57.2201 35.8965 57.0117 36.4727 56.9428C37.0489 56.8738 37.6332 56.9464 38.175 57.1541C38.7168 57.3619 39.1998 57.6986 39.5822 58.1351C39.9772 58.556 40.2722 59.0604 40.4453 59.611C40.6184 60.1615 40.6652 60.744 40.5822 61.3151C40.1222 64.5051 34.6622 64.7251 33.2722 62.0651C33.122 61.5241 33.0852 60.9579 33.1644 60.402C33.2436 59.8461 33.4369 59.3127 33.7322 58.8351ZM168.792 105.195C166.841 103.824 164.765 102.639 162.592 101.655C162.742 100.455 163.302 93.4951 162.892 92.8651C162.762 92.6751 162.732 92.8651 162.892 92.4851C163.212 92.7117 163.58 92.8596 163.968 92.9169C164.355 92.9743 164.751 92.9394 165.122 92.8151C165.47 93.2798 165.984 93.5916 166.556 93.6849C167.129 93.7781 167.715 93.6456 168.192 93.3151C169.702 92.5151 172.322 89.3951 171.532 87.1851C171.232 86.3551 171.012 86.8851 171.842 86.3151C172.508 85.7374 173.022 85.0063 173.342 84.1851C173.749 83.413 173.916 82.5368 173.822 81.6691C173.727 80.8014 173.376 79.9817 172.812 79.3151C171.983 78.3033 170.839 77.5991 169.562 77.3151C169.164 77.206 168.76 77.1192 168.352 77.0551C168.132 75.7351 169.122 73.3451 165.492 71.3751C164.348 70.8311 163.04 70.7417 161.832 71.1251C160.452 71.5151 160.832 72.1251 160.582 71.3951C159.492 68.5451 155.872 66.5151 153.422 68.0051C152.72 68.4203 152.123 68.9917 151.677 69.675C151.231 70.3583 150.949 71.1351 150.852 71.9451C150.885 72.7778 151.09 73.5948 151.452 74.3451C147.252 74.8751 147.882 81.0451 151.532 80.8951C150.776 82.6208 150.168 84.4071 149.712 86.2351C149.282 88.4751 148.962 90.9951 150.002 93.0351C150.454 93.8502 151.085 94.5525 151.847 95.0893C152.609 95.6261 153.483 95.9837 154.402 96.1351C153.902 97.0851 153.402 98.0351 153.072 98.7651C144.942 97.1351 127.232 101.865 125.562 103.315C125.262 103.575 125.392 103.805 125.562 104.315C124.397 104.645 123.215 104.915 122.022 105.125C118.197 100.544 113.97 96.3138 109.392 92.4851C109.512 90.2351 107.862 87.6451 106.022 87.1551C104.022 83.9651 101.742 80.7851 101.172 80.4451C100.602 80.1051 95.9122 83.1451 95.6122 83.7551C95.5122 83.9451 95.6122 84.1051 95.7722 84.4351C96.7122 86.2451 101.022 93.3151 102.952 96.0651C104.536 99.9325 106.474 103.645 108.742 107.155C108.091 107.233 107.446 107.357 106.812 107.525C99.3322 109.455 92.7522 114.245 87.4722 119.465C81.3822 125.465 75.8022 133.575 73.8722 137.535C73.7722 137.725 73.6922 137.875 73.7822 138.045C74.0111 138.479 74.2648 138.9 74.5422 139.305L73.9522 140.165C72.2222 138.835 66.7122 134.865 64.9522 136.235C63.3722 136.885 62.3722 137.035 64.5322 140.855C65.9122 143.275 69.6922 147.405 72.1022 148.595C73.6622 149.355 74.5322 147.875 74.2422 147.285C75.7181 146.484 77.0915 145.507 78.3322 144.375L79.3322 145.625C79.3918 145.691 79.4739 145.733 79.5626 145.742C79.6513 145.752 79.7402 145.728 79.8122 145.675C91.6022 136.675 105.892 125.325 107.152 125.895C109.482 126.955 117.972 140.515 120.712 142.555C120.743 142.576 120.764 142.609 120.77 142.645C120.777 142.682 120.768 142.72 120.747 142.75C120.726 142.781 120.694 142.801 120.657 142.808C120.62 142.815 120.583 142.806 120.552 142.785C117.392 140.615 108.802 127.525 106.912 126.545C105.252 127.035 100.042 131.135 90.6422 137.825C85.9022 151.825 84.2222 169.375 84.6422 170.495C84.7322 170.705 85.1722 170.955 85.8122 171.215C85.6922 172.305 85.5722 173.425 85.4822 174.395C83.6322 175.575 77.9322 179.485 78.6522 181.575C78.7222 183.235 78.4922 184.275 82.8622 183.575C85.5922 183.105 88.5122 181.575 90.8622 180.265C91.2522 180.055 91.3922 178.555 91.4122 177.755C91.9628 176.225 92.2994 174.627 92.4122 173.005C93.0644 173.18 93.7469 173.211 94.4122 173.095C94.8722 172.865 96.5422 169.975 98.6522 166.025C96.6522 173.835 94.2922 184.355 95.0822 185.325C95.3237 185.657 95.6716 185.897 96.0682 186.005C96.4647 186.112 96.8861 186.08 97.2622 185.915C98.4122 185.425 103.942 166.055 105.372 160.255C109.552 161.255 116.832 162.995 124.922 164.845C121.262 177.705 118.172 190.645 118.832 191.495C119.064 191.827 119.405 192.068 119.796 192.176C120.187 192.283 120.603 192.251 120.972 192.085C121.532 191.845 125.972 178.715 130.362 166.085C142.362 168.785 154.922 171.455 161.222 172.325C162.222 180.515 164.052 193.505 165.222 194.205C165.565 194.433 165.976 194.535 166.386 194.495C166.796 194.455 167.18 194.275 167.472 193.985C168.162 193.295 167.072 179.985 166.202 171.685C169.682 168.245 176.582 156.925 182.492 146.455C183.802 159.035 187.342 189.455 188.672 191.805C188.838 191.999 189.049 192.149 189.285 192.243C189.522 192.337 189.779 192.372 190.032 192.345C190.45 192.32 190.843 192.138 191.132 191.835C192.042 190.935 188.132 150.235 186.952 141.755C189.162 141.675 190.952 141.585 192.132 141.465C193.642 141.315 193.952 137.335 192.572 136.915C191.121 136.535 189.638 136.284 188.142 136.165C190.622 131.495 192.382 127.935 192.772 126.795C192.852 126.555 192.922 126.295 192.772 126.125C192.262 125.787 191.716 125.509 191.142 125.295C193.432 120.425 194.922 117.095 194.982 116.885C196.032 112.915 172.742 106.335 168.792 105.195ZM70.6622 138.615C70.0598 139.969 69.3121 141.253 68.4322 142.445L67.4322 141.245C68.3541 140.29 68.9523 139.069 69.1422 137.755C69.6522 138.035 70.1622 138.325 70.6622 138.615ZM68.6022 137.505C68.4004 138.699 67.8548 139.807 67.0322 140.695C64.2722 137.025 64.6022 135.555 68.6022 137.505ZM72.3422 148.265C70.2322 147.125 65.4322 142.025 64.2222 138.585C64.1422 138.365 63.9222 137.655 64.0822 137.495C64.2259 137.382 64.3839 137.287 64.5522 137.215C64.4922 138.495 65.9422 140.445 66.7322 141.435C68.2022 143.265 71.1522 146.825 73.5122 147.435C73.6771 147.469 73.8473 147.469 74.0122 147.435C74.2222 147.755 73.5322 148.915 72.3422 148.265ZM73.6722 146.855C72.3822 146.505 70.5122 144.785 68.8722 142.955C69.7918 141.68 70.4915 140.261 70.9422 138.755C72.2622 139.545 73.4122 140.335 73.8722 140.685C73.8975 140.704 73.9263 140.717 73.9569 140.724C73.9875 140.731 74.0193 140.732 74.0502 140.727C74.0811 140.721 74.1106 140.709 74.1367 140.692C74.1629 140.674 74.1852 140.652 74.2022 140.625C74.2022 140.625 74.4522 140.205 74.7822 139.685C75.7822 141.065 77.0722 142.785 78.1422 144.105C76.4622 145.355 74.2622 147.025 73.6722 146.855ZM82.8722 177.095C83.9345 178.117 84.8833 179.25 85.7022 180.475L84.2322 180.975C83.65 179.806 82.7163 178.847 81.5622 178.235C82.0322 177.805 82.4822 177.415 82.8722 177.095ZM81.1322 178.635C82.1678 179.245 83.0129 180.131 83.5722 181.195C79.3622 182.525 77.8322 181.835 81.1322 178.635ZM90.7722 179.895C87.5822 181.395 83.9522 183.155 80.6322 183.125C80.4122 183.125 79.6322 183.125 79.5622 182.885C79.5051 182.714 79.4715 182.536 79.4622 182.355C80.9122 182.945 84.0322 181.785 85.5322 181.255C87.2622 180.665 89.9222 179.635 91.1922 178.255C91.1352 178.82 90.9936 179.373 90.7722 179.895ZM91.0022 177.515C90.1822 178.655 88.0022 179.635 86.3422 180.245C85.4515 178.967 84.3688 177.833 83.1322 176.885C85.8922 174.685 86.0222 174.885 86.0422 174.605C86.0422 174.605 86.1322 173.025 86.2522 171.395C88.1704 172.034 90.1278 172.548 92.1122 172.935C91.961 174.504 91.5977 176.044 91.0322 177.515H91.0022ZM185.002 110.835C183.282 110.595 181.802 110.835 181.052 111.645C180.702 112.045 179.652 113.645 178.152 116.055C176.1 112.126 173.241 108.674 169.762 105.925C175.562 107.565 181.032 109.325 185.032 110.835H185.002ZM153.082 99.2851C153.292 99.2851 153.082 99.2851 154.752 96.1151C154.932 95.7451 153.752 95.9951 152.132 94.8851C149.282 92.9851 149.512 89.6951 150.212 86.3451C150.721 84.4386 151.39 82.5786 152.212 80.7851C153.087 80.4248 153.877 79.8867 154.532 79.2051C159.482 81.7451 161.382 81.2051 162.262 81.5651C162.064 82.0494 161.806 82.5064 161.492 82.9251C161.492 82.9251 162.012 86.2551 161.262 87.7951C160.952 88.4251 162.102 88.7451 162.632 88.4151C162.893 88.2147 163.131 87.9867 163.342 87.7351C165.202 87.4351 165.342 88.3651 164.432 89.5351C163.302 90.9451 162.522 91.0051 162.432 91.6951C162.382 92.2151 161.342 93.1951 162.242 93.3251C162.297 96.1647 162.157 99.0048 161.822 101.825C161.812 101.899 161.825 101.974 161.862 102.039C161.898 102.104 161.954 102.155 162.022 102.185C162.622 102.435 163.262 102.725 163.882 103.035C161.132 106.765 157.572 110.305 152.882 109.195C148.192 108.085 148.812 103.295 151.022 99.0151C151.714 99.0615 152.402 99.1517 153.082 99.2851ZM150.582 99.1151C149.702 100.835 148.512 103.835 149.032 106.245C149.632 108.995 152.312 110.065 155.032 109.955C158.532 109.815 160.692 107.885 162.842 105.485C163.482 104.755 164.122 103.995 164.622 103.305C175.692 108.985 181.302 122.455 181.132 124.995C179.132 126.155 167.342 126.305 164.992 126.335C164.334 123.905 163.827 121.437 163.472 118.945C163.472 118.908 163.457 118.872 163.431 118.846C163.405 118.82 163.369 118.805 163.332 118.805C163.295 118.805 163.259 118.82 163.233 118.846C163.207 118.872 163.192 118.908 163.192 118.945C163.46 121.551 163.897 124.136 164.502 126.685C164.582 127.005 164.972 126.915 166.262 126.915L166.442 127.345C159.292 128.175 155.172 128.345 149.272 131.265C145.862 127.885 142.622 124.525 137.572 120.265C135.643 118.494 133.577 116.879 131.392 115.435C133.244 112.517 135.353 109.769 137.692 107.225C137.832 107.105 137.642 106.895 137.502 107.015C134.809 109.263 132.574 112.01 130.922 115.105C129.982 113.005 126.822 105.825 126.172 103.775C127.882 102.695 142.032 98.5951 150.582 99.1151ZM158.662 151.395C160.092 148.585 161.792 145.395 163.662 142.105C168.982 142.105 174.452 142.005 179.242 141.925C176.722 146.365 174.062 151.075 171.682 155.235C167.332 153.855 162.922 152.565 158.662 151.395ZM171.302 155.835C167.692 162.135 164.792 167.075 164.172 167.735C162.512 167.735 147.042 164.215 132.222 160.835C134.222 155.135 136.062 149.945 137.362 146.615C148.232 149.195 161.292 152.625 171.302 155.835ZM158.902 142.155L163.132 142.105C162.562 143.165 162.002 144.215 161.462 145.265C160.712 144.335 159.852 143.285 158.902 142.155ZM139.312 142.155C138.392 142.315 138.312 141.375 131.552 160.725L126.942 159.665C132.632 140.125 134.672 138.485 134.942 138.485C135.802 137.275 165.462 135.605 182.392 136.375L179.602 141.295C164.732 141.495 143.032 141.425 139.312 142.115V142.155ZM178.652 135.695C164.652 135.425 145.022 136.435 137.652 137.555C134.732 137.315 137.722 135.345 140.492 134.915C142.592 134.595 144.862 134.685 145.322 134.455C147.722 133.255 148.692 130.125 166.862 127.885C167.292 127.825 167.012 127.345 166.862 126.955C171.017 127.002 175.169 126.768 179.292 126.255C179.693 128.637 179.89 131.049 179.882 133.465C179.724 134.311 179.292 135.08 178.652 135.655V135.695ZM106.152 87.6951C106.578 87.8186 106.975 88.0265 107.318 88.3066C107.662 88.5866 107.945 88.933 108.152 89.3251C108.513 90.0925 108.73 90.9195 108.792 91.7651C108.162 90.6951 107.702 89.8251 107.572 89.7051C107.222 89.3551 104.662 89.5851 103.992 88.7051C103.322 87.8251 105.122 87.3951 106.152 87.6551V87.6951ZM96.0922 83.9751C97.2022 82.6851 101.092 80.4451 101.092 80.6951C101.582 81.0251 103.522 84.0051 105.362 87.0551C103.922 87.0551 102.712 87.9251 103.502 89.0551C104.292 90.1851 106.152 90.0551 107.142 90.2251C107.861 91.3523 108.492 92.5323 109.032 93.7551C108.032 94.3251 104.892 96.2051 104.162 96.5651C102.952 95.1451 96.4122 84.6951 96.0922 83.9751ZM109.402 107.125C107.278 103.997 105.434 100.688 103.892 97.2351C104.092 97.3151 104.282 97.2351 104.542 97.0751C105.542 96.5551 108.642 94.7251 109.542 94.1951C109.932 93.9551 109.622 93.3551 109.412 92.8851C115.232 97.5851 121.662 105.645 121.852 105.705C123.209 105.583 124.549 105.322 125.852 104.925C126.772 107.375 128.852 112.145 129.852 114.385C122.832 109.675 115.722 106.595 109.402 107.125ZM111.232 141.305C120.232 143.255 126.672 144.625 131.232 145.215C129.822 149.005 128.172 154.095 126.552 159.525C115.972 157.105 106.762 154.995 104.642 154.595C107.962 147.965 110.922 141.955 111.232 141.305ZM96.9722 185.305C96.741 185.39 96.4885 185.399 96.2523 185.328C96.0161 185.258 95.8091 185.113 95.6622 184.915C95.2822 183.575 97.8122 171.975 99.5822 164.355C100.402 162.805 101.262 161.135 102.132 159.445L104.992 160.155C103.492 165.755 97.8822 183.985 96.9722 185.305ZM120.692 191.545C120.46 191.631 120.206 191.638 119.97 191.566C119.733 191.494 119.527 191.346 119.382 191.145C119.232 189.145 122.062 177.065 125.382 164.955L129.692 165.955C125.632 177.845 121.502 190.095 120.692 191.545ZM166.992 193.545C166.811 193.712 166.579 193.811 166.333 193.828C166.088 193.844 165.844 193.776 165.642 193.635C164.772 192.505 162.852 180.285 161.722 172.395C165.092 172.835 165.192 172.625 165.722 172.155C166.432 180.155 167.272 192.295 167.032 193.525L166.992 193.545ZM190.632 191.415C190.454 191.568 190.23 191.659 189.996 191.673C189.761 191.688 189.528 191.625 189.332 191.495C188.172 189.435 184.332 158.045 182.862 145.905C183.642 144.515 184.402 143.145 185.132 141.815H186.672C187.562 149.465 190.932 188.645 190.632 191.395V191.415ZM192.432 137.535C193.162 137.755 192.882 140.755 192.122 140.835C190.682 140.975 188.372 141.075 185.502 141.155C186.342 139.615 187.142 138.155 187.882 136.745C189.419 136.862 190.942 137.12 192.432 137.515V137.535ZM192.182 126.535C191.182 129.975 170.062 168.735 164.922 171.955C162.812 173.285 106.722 160.225 102.262 159.205C103.012 157.755 103.772 156.275 104.502 154.815C123.502 159.205 163.302 168.895 164.442 168.335C165.752 167.685 187.712 127.905 189.502 125.415C190.422 125.713 191.318 126.081 192.182 126.515V126.535ZM194.332 116.705C193.088 119.497 191.818 122.277 190.522 125.045C190.132 124.895 189.782 124.775 189.592 124.725C189.508 124.685 189.413 124.674 189.321 124.692C189.229 124.71 189.146 124.756 189.082 124.825C188.702 125.245 186.082 129.825 182.682 135.825C181.602 135.775 180.462 135.735 179.282 135.715C179.811 135.095 180.157 134.34 180.282 133.535C180.462 132.455 179.982 128.815 179.592 126.195C180.872 125.945 181.722 125.625 181.792 125.195C182.062 123.785 179.362 118.285 178.552 116.765C180.142 114.215 181.262 112.515 181.552 112.125C183.822 109.515 194.702 114.685 194.332 116.685V116.705Z" fill="#4C2FB3"/>
</svg>
