<svg width="200" height="200" viewBox="0 0 200 200" fill="none" xmlns="http://www.w3.org/2000/svg">
<path d="M152.89 84.1115C152.47 84.1115 152.47 84.8915 152.89 84.8915C153.89 84.8915 167.82 84.6615 168.99 84.4315C169.096 84.4155 169.194 84.3617 169.264 84.2801C169.334 84.1984 169.373 84.0942 169.373 83.9865C169.373 83.8787 169.334 83.7745 169.264 83.6929C169.194 83.6112 169.096 83.5575 168.99 83.5415C165.32 83.0615 156.93 84.0315 152.89 84.1115ZM158.47 104.531C158.01 104.531 158.09 105.301 158.53 105.321C161.79 105.431 166.87 105.261 170.2 105.111C170.81 105.111 170.88 104.111 170.2 104.111C166.47 104.131 162.21 104.181 158.47 104.531ZM158.9 70.0415C158.803 70.0457 158.711 70.0849 158.641 70.1519C158.57 70.219 158.527 70.3092 158.519 70.4058C158.51 70.5024 158.537 70.5989 158.594 70.6772C158.651 70.7555 158.735 70.8103 158.83 70.8315C160.62 71.0515 166.43 71.2815 168.18 70.5415C168.269 70.4971 168.342 70.4247 168.387 70.3353C168.432 70.246 168.446 70.1444 168.428 70.0461C168.41 69.9478 168.36 69.8581 168.287 69.7905C168.213 69.7229 168.119 69.6811 168.02 69.6715C165.7 69.5315 161.98 70.2715 158.9 70.0415ZM147.48 89.3615C155.92 89.2415 165.48 88.6515 174 87.8715C174.53 87.8715 174.48 86.8715 173.93 86.8715C165.55 87.0815 155.76 87.6315 147.43 88.4915C147.314 88.4981 147.206 88.5503 147.129 88.6366C147.053 88.7228 147.013 88.8361 147.02 88.9515C147.026 89.0668 147.079 89.1749 147.165 89.2517C147.251 89.3286 147.364 89.3681 147.48 89.3615ZM159.58 44.8215C161.93 44.6415 164.28 44.5015 166.58 44.2215C167.24 44.1515 167.07 43.2215 166.42 43.2215C164.08 43.4015 161.74 43.7015 159.42 43.9715C158.88 44.0315 159.03 44.8615 159.58 44.8215ZM145.86 65.6815C145.36 65.6815 145.34 66.5315 145.86 66.5715C151.513 66.8348 157.178 66.4388 162.74 65.3915C163.37 65.2815 163.27 64.2815 162.63 64.3915C157.091 65.336 151.478 65.7678 145.86 65.6815ZM164.47 49.6115C165.34 49.8215 165.47 48.4015 164.67 48.5415C160.767 49.1742 156.811 49.4188 152.86 49.2715C152.33 49.2715 152.21 50.0415 152.75 50.1015C156.66 50.494 160.606 50.329 164.47 49.6115ZM142.81 88.8915C142.03 88.5915 138.43 89.0915 137.42 89.2015C136.93 89.2015 136.91 89.9915 137.42 89.9815L141.51 89.8515C143.4 89.7815 143.39 89.1215 142.81 88.8915ZM146.94 132.161C146.1 131.961 140.13 132.411 139.15 132.471C138.63 132.471 138.73 133.271 139.25 133.261C140.31 133.261 146.12 133.261 147.04 132.971C147.45 132.831 147.31 132.241 146.94 132.161ZM139.14 127.931C141.95 128.061 148.91 128.181 151.72 127.511C151.785 127.511 151.85 127.497 151.91 127.47C151.97 127.443 152.023 127.403 152.067 127.354C152.111 127.305 152.144 127.248 152.164 127.185C152.184 127.123 152.19 127.057 152.183 126.991C152.176 126.926 152.156 126.863 152.123 126.806C152.09 126.749 152.046 126.7 151.992 126.661C151.939 126.623 151.879 126.596 151.815 126.582C151.75 126.568 151.684 126.568 151.62 126.581C147.51 126.581 143.7 127.271 139.26 127.091C138.73 127.071 138.59 127.901 139.14 127.931ZM148.84 110.151C149.44 110.041 149.39 109.151 148.76 109.151C144.32 109.601 143.39 109.711 138.84 109.891C138.4 109.891 138.35 110.651 138.84 110.681C142.182 110.903 145.539 110.725 148.84 110.151ZM155 103.861C149.56 104.061 143.91 104.981 138.23 105.181C138.128 105.197 138.036 105.249 137.969 105.326C137.902 105.404 137.865 105.504 137.865 105.606C137.865 105.709 137.902 105.809 137.969 105.886C138.036 105.964 138.128 106.016 138.23 106.031C142.94 106.031 150.52 105.811 155.11 104.791C155.206 104.749 155.285 104.677 155.337 104.586C155.389 104.495 155.41 104.39 155.398 104.286C155.386 104.182 155.34 104.085 155.269 104.008C155.197 103.932 155.103 103.88 155 103.861ZM173.53 129.711C173.45 129.711 167.96 130.161 167.02 130.131C166.931 130.147 166.849 130.192 166.787 130.258C166.726 130.324 166.687 130.408 166.677 130.498C166.666 130.588 166.686 130.679 166.731 130.757C166.777 130.835 166.846 130.896 166.93 130.931C168.05 131.141 172.77 131.221 173.74 130.401C173.789 130.348 173.823 130.282 173.839 130.211C173.855 130.14 173.852 130.066 173.831 129.997C173.809 129.927 173.771 129.864 173.718 129.814C173.665 129.764 173.6 129.729 173.53 129.711ZM175.3 107.901C168.37 108.351 160.63 108.611 153.73 109.201C153.19 109.201 153.29 110.011 153.81 110.041C157.54 110.151 170.81 109.471 175.39 108.891C175.455 108.886 175.519 108.868 175.577 108.838C175.635 108.808 175.687 108.767 175.729 108.717C175.771 108.666 175.802 108.608 175.821 108.545C175.84 108.483 175.847 108.417 175.84 108.351C175.827 108.221 175.763 108.1 175.662 108.016C175.561 107.931 175.431 107.89 175.3 107.901ZM149.27 85.1615C149.402 85.1615 149.53 85.1088 149.623 85.015C149.717 84.9213 149.77 84.7941 149.77 84.6615C149.77 84.5289 149.717 84.4017 149.623 84.3079C149.53 84.2142 149.402 84.1615 149.27 84.1615C144.96 84.2715 140.61 84.3015 136.27 84.6315C136.176 84.6522 136.093 84.7041 136.033 84.7787C135.973 84.8532 135.941 84.9459 135.941 85.0415C135.941 85.137 135.973 85.2297 136.033 85.3043C136.093 85.3788 136.176 85.4307 136.27 85.4515C140.63 85.5315 144.96 85.3015 149.27 85.1615ZM166.32 125.531C164.8 125.531 159.32 125.921 158.02 126.151C157.6 126.221 157.54 126.911 158.02 126.931C159.43 127.001 164.88 126.651 166.46 126.511C167.07 126.531 166.94 125.531 166.32 125.531ZM163.4 131.141L150.83 131.941C150.26 131.941 150.4 132.811 150.96 132.781C153.4 132.671 161.25 132.361 163.45 132.061C163.94 132.001 163.95 131.141 163.4 131.141ZM154.4 44.2215C150.71 43.8015 139.13 44.5015 135.2 44.9015C134.66 44.9515 134.62 45.7915 135.2 45.7415C141.66 45.3215 147.95 45.1815 154.41 45.2015C154.523 45.1774 154.624 45.1151 154.696 45.025C154.768 44.935 154.807 44.8227 154.805 44.7074C154.804 44.592 154.763 44.4806 154.689 44.3921C154.615 44.3035 154.513 44.2432 154.4 44.2215ZM155.47 71.2115C156.1 71.1215 155.87 70.2115 155.24 70.2115C148.803 70.9448 142.328 71.2788 135.85 71.2115C135.756 71.2265 135.67 71.2745 135.608 71.3469C135.547 71.4193 135.513 71.5113 135.513 71.6065C135.513 71.7016 135.547 71.7937 135.608 71.8661C135.67 71.9385 135.756 71.9865 135.85 72.0015C142.4 72.317 148.966 72.0526 155.47 71.2115ZM148.68 50.2715C148.746 50.2652 148.809 50.246 148.868 50.2149C148.926 50.1838 148.978 50.1415 149.019 50.0903C149.061 50.0392 149.093 49.9803 149.112 49.9169C149.13 49.8536 149.137 49.7872 149.13 49.7215C149.124 49.6557 149.104 49.5918 149.073 49.5335C149.042 49.4752 149 49.4236 148.949 49.3818C148.897 49.3399 148.839 49.3086 148.775 49.2897C148.712 49.2708 148.645 49.2646 148.58 49.2715C144.17 49.8215 139.99 49.8415 135.64 50.2215C135.18 50.2715 135.13 51.0215 135.64 51.0415C140 51.112 144.359 50.8546 148.68 50.2715ZM136.29 66.1015C135.79 66.1015 135.78 66.8915 136.35 66.9115C138.144 67.0805 139.949 67.1273 141.75 67.0515C141.831 67.0152 141.9 66.9563 141.948 66.8818C141.996 66.8072 142.022 66.7203 142.022 66.6315C142.022 66.5426 141.996 66.4557 141.948 66.3812C141.9 66.3066 141.831 66.2477 141.75 66.2115C141.57 66.1115 137.21 66.1015 136.29 66.1015ZM123.81 71.8615C124.39 71.8615 126.54 68.3015 127.75 67.0815C128.19 66.6415 127.47 65.9015 127.02 66.3215C125.744 67.4716 124.64 68.7984 123.74 70.2615L121.21 67.9315C120.69 67.4515 120.02 68.2715 120.5 68.7615C120.98 69.2515 123.07 71.8615 123.81 71.8615ZM116.97 55.5315C121.07 55.7715 125.33 55.6915 129.83 55.7215C130.15 55.7215 130.34 54.8315 129.83 44.2115C129.83 43.4415 129.76 42.8715 129.75 42.6615C129.752 42.6305 129.748 42.5994 129.738 42.57C129.728 42.5407 129.711 42.514 129.69 42.4915C129.4 42.1815 127.51 42.2015 123.26 42.3115C116.11 42.4815 115.32 42.4315 115.32 42.8415C115.29 42.9215 115.74 55.4115 116.97 55.5315ZM117.25 54.7915C116.75 52.1215 116.39 46.4815 116.08 43.3215C118.99 43.4915 125.62 43.1615 128.96 43.0815C128.96 43.0815 129.14 51.9715 129.22 54.8415C125.3 54.7515 121.21 54.6015 117.21 54.7415L117.25 54.7915Z" fill="#4C2FB3"/>
<path d="M131.209 74.4715C132.049 74.1415 131.069 64.8215 130.929 62.3715C130.922 62.3211 130.897 62.2749 130.859 62.2415C130.259 61.7215 117.569 62.4115 116.929 62.4615C116.289 62.5115 116.929 65.9915 117.039 68.3615C117.269 74.2615 117.539 74.7715 117.839 74.8115C120.019 75.1215 129.209 75.2515 131.209 74.4715ZM117.539 63.2815C121.869 63.0015 126.259 62.9815 130.159 62.9615C130.259 65.3015 130.419 71.8915 130.619 73.6715C126.543 74.093 122.442 74.21 118.349 74.0215C118.519 72.5315 117.689 64.9715 117.539 63.2815ZM125.679 88.5315L127.999 86.4315C128.067 86.3172 128.096 86.1844 128.084 86.0522C128.072 85.9199 128.018 85.795 127.93 85.6951C127.843 85.5953 127.726 85.5257 127.596 85.4964C127.467 85.467 127.331 85.4793 127.209 85.5315C126.259 86.1166 125.397 86.8338 124.649 87.6615L122.569 85.7415C122.456 85.6368 122.307 85.5811 122.153 85.5867C121.999 85.5923 121.854 85.6588 121.749 85.7715C121.644 85.8842 121.589 86.0339 121.594 86.1877C121.6 86.3415 121.666 86.4868 121.779 86.5915L123.779 88.5915C121.979 90.4915 121.189 91.6815 121.369 92.2215C121.549 92.7615 122.199 92.5215 122.369 92.2815C123.069 91.4215 123.859 90.4415 124.709 89.5315C125.552 90.4515 126.487 91.2826 127.499 92.0115C127.603 92.0386 127.713 92.037 127.817 92.0069C127.921 91.9768 128.014 91.9193 128.088 91.8405C128.162 91.7617 128.213 91.6645 128.236 91.559C128.259 91.4536 128.253 91.3439 128.219 91.2415C127.466 90.2546 126.615 89.3466 125.679 88.5315ZM126.209 45.6615C124.612 47.0585 123.307 48.7578 122.369 50.6615C121.616 49.7598 120.748 48.9597 119.789 48.2815C119.199 47.8715 118.439 48.6515 119.019 49.0915C120.16 50.0997 121.226 51.1892 122.209 52.3515C122.469 52.6215 122.719 52.4815 122.939 52.1915C124.028 50.0698 125.371 48.0886 126.939 46.2915C127.419 45.7615 126.729 45.1715 126.209 45.6615ZM125.889 110.952C126.409 110.592 128.389 106.772 129.539 105.472C129.989 104.972 129.209 104.282 128.699 104.812C127.33 106.222 126.156 107.809 125.209 109.532L122.879 107.532C122.369 107.102 121.689 107.872 122.219 108.382C122.749 108.892 125.029 111.692 125.889 110.952ZM133.519 123.772C133.139 123.022 119.459 123.772 119.329 123.772C119.299 123.775 119.271 123.786 119.246 123.804C119.222 123.821 119.202 123.844 119.189 123.872C118.729 124.612 119.189 136.642 119.519 137.762C119.909 139.122 133.169 137.992 133.829 138.052C133.849 138.056 133.869 138.056 133.889 138.051C133.909 138.047 133.928 138.038 133.944 138.026C133.96 138.014 133.974 137.998 133.983 137.98C133.993 137.962 133.998 137.942 133.999 137.922C134.209 136.392 133.569 123.872 133.519 123.772ZM119.969 124.502C123.969 124.672 128.699 124.422 132.759 124.412C132.819 126.082 133.179 135.882 133.229 137.202C128.789 137.402 125.059 137.332 120.329 137.202C120.379 135.532 120.029 126.022 119.969 124.532V124.502Z" fill="#4C2FB3"/>
<path d="M124.799 130.981C125.509 130.981 129.139 131.231 129.429 131.071C129.506 131.028 129.571 130.967 129.62 130.895C129.669 130.822 129.701 130.738 129.713 130.651C129.724 130.564 129.715 130.475 129.687 130.392C129.659 130.309 129.612 130.233 129.549 130.171C129.019 129.611 125.669 129.731 125.109 129.841C124.349 129.981 124.209 130.271 124.229 130.491C124.256 130.625 124.326 130.746 124.43 130.835C124.533 130.923 124.663 130.975 124.799 130.981ZM126.149 101.631C122.869 101.691 119.419 101.811 118.849 101.851C118.629 101.851 118.399 102.041 118.369 104.121C118.369 106.611 118.799 114.501 119.799 114.571C121.799 114.721 132.139 114.761 133.469 114.661C133.679 114.661 133.849 114.661 133.469 109.461C133.259 106.781 132.789 101.911 132.789 101.911C132.749 101.711 132.729 101.531 126.149 101.631ZM132.039 102.511C132.279 106.241 132.409 110.061 132.809 113.811H120.089C119.699 110.201 119.439 106.481 119.159 102.661L132.039 102.511ZM121.209 96.0015C125.269 96.0015 132.059 95.4515 132.119 95.4215C132.759 95.0915 132.119 86.0615 131.909 82.2015C131.909 81.5115 128.379 81.5015 125.449 81.6115C124.169 81.6115 117.809 81.9515 117.829 82.8615C118.169 96.2515 118.089 95.6015 118.339 95.7415C119.275 95.9856 120.245 96.0735 121.209 96.0015ZM119.099 95.0015C118.869 91.0615 118.789 86.8815 118.629 83.0015C122.782 82.6326 126.951 82.4924 131.119 82.5815C131.119 83.9515 131.389 93.0615 131.559 94.5815C130.079 94.6815 120.649 94.7515 119.129 95.0115L119.099 95.0015Z" fill="#4C2FB3"/>
<path d="M194.209 110.802C191.589 39.5315 192.689 40.1315 192.209 39.7115C191.529 39.0715 186.279 39.4915 184.989 39.5615L184.449 28.6315C184.475 28.5656 184.485 28.4945 184.477 28.4241C184.469 28.3537 184.445 28.2862 184.406 28.2274C184.366 28.1685 184.313 28.1199 184.251 28.0858C184.189 28.0518 184.12 28.0331 184.049 28.0315C163.049 27.7715 141.439 29.1615 119.769 30.6315C113.929 31.0415 107.859 31.4015 101.919 32.0315C101.864 32.0226 101.807 32.0261 101.753 32.0418C101.699 32.0575 101.649 32.085 101.607 32.1224C101.565 32.1597 101.532 32.2059 101.51 32.2576C101.487 32.3093 101.477 32.3653 101.479 32.4215C102.579 59.1215 105.779 102.282 111.309 150.072C111.369 150.622 115.929 150.142 120.029 149.872C120.083 151.048 120.295 152.212 120.659 153.332C121.259 154.092 195.439 149.492 195.349 146.332C195.029 134.462 194.599 122.442 194.209 110.802ZM188.589 141.982C162.289 145.982 138.639 147.102 112.229 149.382C106.999 104.072 104.849 72.9915 102.229 32.7315C110.349 32.2515 140.379 29.4915 183.759 28.9215C184.839 57.9915 188.859 138.782 188.559 141.982H188.589ZM63.0593 73.2315C62.3793 73.2315 62.3893 74.5515 62.7093 75.0515C62.7463 75.1247 62.8038 75.1855 62.8749 75.2264C62.946 75.2673 63.0275 75.2864 63.1093 75.2815C63.7193 75.2115 63.6893 73.3015 63.0593 73.2315ZM59.4893 79.0115C59.9193 79.1215 61.0793 79.1915 61.3493 78.7915C61.7293 78.2315 60.6993 73.1515 60.5693 72.7915C60.5426 72.7181 60.4906 72.6565 60.4227 72.6178C60.3548 72.5791 60.2753 72.5657 60.1984 72.5801C60.1216 72.5945 60.0524 72.6358 60.0031 72.6965C59.9538 72.7571 59.9277 72.8334 59.9293 72.9115C59.9293 73.8215 60.3393 76.9115 60.4993 78.2015L59.4993 78.2615C59.4262 78.2927 59.3637 78.3444 59.3195 78.4104C59.2752 78.4764 59.2511 78.5538 59.25 78.6333C59.249 78.7127 59.271 78.7908 59.3135 78.8579C59.356 78.9251 59.4171 78.9785 59.4893 79.0115ZM62.2093 71.3615C62.5053 71.2805 62.8166 71.2727 63.1163 71.3389C63.416 71.4051 63.695 71.5433 63.9293 71.7415C64.3193 72.0915 65.0693 71.4215 63.9993 70.7415C63.2293 70.2215 61.4293 70.0415 61.6193 70.9615C61.6503 71.0896 61.728 71.2016 61.837 71.2755C61.9461 71.3495 62.0789 71.3802 62.2093 71.3615Z" fill="#4C2FB3"/>
<path d="M91.5294 107.712C85.0994 101.372 73.5294 93.9217 63.1294 92.4417C63.3016 91.8472 63.3016 91.2161 63.1294 90.6216C63.9211 89.9599 64.6569 89.2342 65.3294 88.4517C66.7594 86.7717 66.7294 85.1317 64.6894 85.9617C66.6894 81.5417 66.6894 71.9617 65.9694 66.5817C69.3194 68.6717 74.9694 66.6617 74.2794 62.5817C78.8294 63.9517 81.7894 54.9117 76.0094 53.2817C76.8194 46.4417 68.0594 45.4517 65.3794 49.4417C63.8694 45.0317 56.9294 47.3517 57.4294 50.8117C54.2994 47.4517 47.5394 48.6217 46.5994 52.8117C43.7694 50.2417 39.0994 51.3317 39.5094 55.1217C35.0294 53.0417 32.6594 58.4017 36.1394 60.1217C33.9094 61.3217 33.9794 66.2617 37.3994 66.2617C37.3994 69.5617 39.3994 77.1217 44.3494 81.2617C44.8794 85.8917 43.9294 88.2616 42.2794 92.5516C25.9594 95.0316 13.5694 107.762 8.00941 123.552C1.66941 141.552 4.67941 158.552 23.4694 162.132C23.4303 164.534 23.1489 166.926 22.6294 169.272C22.62 169.36 22.6429 169.449 22.6938 169.522C22.7447 169.595 22.8202 169.647 22.9064 169.669C22.9927 169.691 23.084 169.681 23.1635 169.641C23.243 169.601 23.3055 169.534 23.3394 169.452C24.0088 167.122 24.3718 164.715 24.4194 162.292C28.9462 162.964 33.5707 162.259 37.6908 160.266C41.8109 158.274 45.2357 155.088 47.5194 151.122C50.4142 152.221 53.3689 153.156 56.3694 153.922C65.8094 156.592 78.1194 159.242 89.7794 156.082C89.5494 161.672 89.2294 166.152 88.7294 170.602C88.7294 171.042 89.3394 171.172 89.4094 170.732C89.7994 168.392 90.7694 158.122 90.7094 155.812C98.1294 153.532 103.089 148.382 104.309 141.692C106.439 130.352 101.639 117.622 91.5294 107.712ZM49.0594 64.6417C49.3194 67.5617 49.0594 69.6417 48.1694 70.9917C47.8394 71.4817 47.3394 71.9917 46.9094 71.9917C46.5794 71.6317 44.4194 69.3917 42.3794 70.7017C41.0494 71.5717 40.9894 73.2617 42.2494 75.4617C43.15 76.7979 43.7942 78.2899 44.1494 79.8617C40.3194 75.7017 39.1494 71.8017 38.2694 66.2117C39.2859 66.0283 40.2138 65.5152 40.9094 64.7517C42.6594 67.3517 46.9394 66.8317 49.0594 64.6417ZM42.8594 71.3617C44.2094 70.5317 45.4594 71.5317 46.5994 72.5317C47.2694 73.1217 48.3694 72.2917 48.8894 71.5317C50.2494 69.6517 50.1294 66.5317 49.9494 64.9717C50.92 65.8961 52.209 66.4117 53.5494 66.4117C54.8898 66.4117 56.1788 65.8961 57.1494 64.9717C57.3494 67.8517 63.3894 68.5116 64.9794 66.1216C65.7094 71.1216 66.0594 81.9317 63.6394 86.4617C61.6394 87.3417 57.0894 89.3517 54.8294 88.4617C52.8894 87.6917 51.9094 84.7317 49.6494 83.4617C48.1294 82.6217 46.8294 83.5716 47.8894 85.2716C50.5694 89.5316 50.3294 91.1517 48.2094 95.5317C46.3514 95.0253 44.6138 94.1514 43.0994 92.9617C45.2994 89.8117 45.8994 84.1917 45.3494 80.4517C44.8594 77.1217 44.3494 77.3217 43.0294 74.8617C42.4194 73.8517 41.8794 71.9817 42.8594 71.3617ZM59.7294 91.5317C59.6496 91.5686 59.5862 91.6336 59.551 91.7141C59.5158 91.7947 59.5113 91.8854 59.5384 91.9691C59.5654 92.0527 59.6222 92.1236 59.6979 92.1683C59.7736 92.213 59.8631 92.2284 59.9494 92.2117C60.8069 92.0584 61.6198 91.7169 62.3294 91.2117C62.387 92.1441 62.1414 93.0702 61.6294 93.8517C61.4494 94.1017 61.7694 94.8517 62.4194 93.9217C62.3694 96.6817 60.9594 100.092 58.2494 101.432C56.4127 101.1 54.6647 100.391 53.1157 99.3493C51.5667 98.308 50.2503 96.9571 49.2494 95.3816C52.2494 90.2417 49.6094 86.3817 48.7294 84.7817C48.2394 83.8617 48.4894 83.7217 49.2894 84.2417C51.1794 85.4417 52.8394 88.7917 54.6694 89.2417C58.1194 90.0717 62.3694 87.9917 64.4494 87.0617C65.5294 86.5717 66.1594 86.2416 64.8594 87.8716C63.1194 90.0216 62.1294 90.4717 59.7294 91.5317ZM17.4094 134.212C17.3732 134.293 17.3676 134.385 17.3935 134.47C17.4194 134.555 17.4751 134.628 17.5505 134.675C17.6258 134.723 17.7157 134.741 17.8037 134.728C17.8916 134.714 17.9718 134.669 18.0294 134.602C26.7994 120.782 41.3094 111.192 48.7794 96.4017C49.9394 98.9817 54.8994 102.302 57.9594 102.302C57.9594 104.792 57.7094 107.752 57.4494 110.592C54.4494 109.902 46.3394 107.362 44.8794 104.042C44.7094 103.632 44.0494 103.912 44.2094 104.322C45.5794 108.032 54.0394 111.012 57.3594 111.642C56.6581 119.114 55.2689 126.505 53.2094 133.722C51.6994 139.122 49.7594 145.652 46.9594 150.482C44.7272 154.453 41.3116 157.628 37.1888 159.566C33.066 161.504 28.4413 162.107 23.9594 161.292C5.49941 158.052 2.71941 141.402 8.98941 123.812C14.8494 107.332 27.6794 95.7317 42.4794 93.5317C44.0882 94.7179 45.8468 95.6863 47.7094 96.4116C40.2094 110.882 25.9094 120.382 17.4094 134.212ZM54.0694 134.142C63.7866 130.047 74.111 127.577 84.6294 126.832C87.6294 126.632 90.6294 126.642 93.6294 126.642C94.0694 126.642 94.0794 125.922 93.6294 125.922C91.5893 125.78 89.5433 125.743 87.4994 125.812C87.0094 121.812 79.7994 110.142 77.3494 106.912C77.2867 106.852 77.2048 106.818 77.1185 106.814C77.0323 106.81 76.9476 106.837 76.8797 106.89C76.8118 106.944 76.7654 107.019 76.7488 107.104C76.7322 107.189 76.7466 107.277 76.7894 107.352C81.6994 114.232 85.6694 122.992 86.4594 125.852C77.6694 126.182 64.1094 128.262 54.3494 133.042C55.2694 129.672 58.8294 115.772 58.9094 102.042C61.6594 100.812 63.6194 96.3616 63.3894 93.3716C73.7579 95.733 83.2675 100.926 90.8594 108.372C99.7694 117.102 105.229 128.372 103.549 140.622C102.659 147.622 97.6894 153.042 90.2694 155.012C77.4794 158.512 64.3194 155.472 51.6894 151.552C50.4667 151.14 49.2213 150.8 47.9594 150.532C50.5152 145.276 52.5612 139.788 54.0694 134.142Z" fill="#4C2FB3"/>
<path d="M53.5795 69.7615C53.8379 69.3796 54.1826 69.0639 54.5856 68.8398C54.9886 68.6157 55.4387 68.4895 55.8995 68.4715C56.6295 68.4715 56.5895 67.3715 55.8995 67.4715C55.3055 67.534 54.7337 67.7313 54.2276 68.0484C53.7216 68.3656 53.2947 68.7942 52.9795 69.3015C52.7195 69.7115 53.2995 70.1615 53.5795 69.7615ZM55.9395 72.5315C55.5295 72.8615 55.5595 74.5315 56.1795 74.5315C56.3213 74.5167 56.4539 74.4543 56.5556 74.3544C56.6573 74.2545 56.7222 74.123 56.7395 73.9815C56.9695 73.1115 56.3795 72.2215 55.9395 72.5315ZM55.0595 80.7915C55.0408 80.7133 54.9984 80.6428 54.9381 80.5896C54.8778 80.5365 54.8026 80.5032 54.7227 80.4945C54.6428 80.4857 54.5621 80.5019 54.4917 80.5407C54.4213 80.5796 54.3647 80.6392 54.3295 80.7115C54.2295 80.8515 54.0395 81.2815 54.4595 82.1515C54.7446 82.7438 55.2367 83.2112 55.8428 83.4654C56.4489 83.7197 57.1272 83.7432 57.7495 83.5315C57.8338 83.498 57.9028 83.4348 57.9436 83.3538C57.9843 83.2727 57.9938 83.1796 57.9704 83.092C57.9469 83.0044 57.8921 82.9284 57.8164 82.8786C57.7406 82.8287 57.6492 82.8084 57.5595 82.8215C56.1395 83.1015 55.3195 82.2015 55.0595 80.7915Z" fill="#4C2FB3"/>
</svg>
