<svg width="200" height="200" viewBox="0 0 200 200" fill="none" xmlns="http://www.w3.org/2000/svg">
<path d="M181.289 51.1837C181.179 50.4337 181.099 50.1837 180.159 49.7537C176.229 48.1237 161.509 47.8937 157.259 47.8437C157.274 47.0269 157.085 46.2191 156.709 45.4937C155.119 43.8837 144.949 44.0737 142.789 43.6337C142.589 43.6337 142.609 43.6337 142.559 43.4537C142.049 42.2037 141.919 38.0137 141.089 36.5537C139.539 33.8137 133.659 32.2437 130.029 34.8337C128.156 34.2693 126.155 34.2973 124.299 34.9137C123.298 35.321 122.398 35.9418 121.663 36.7329C120.927 37.524 120.373 38.4662 120.039 39.4937C119.474 41.3837 119.168 43.3415 119.129 45.3137C117.279 45.9237 107.639 46.6437 106.529 48.0837C106.255 48.5039 106.074 48.9779 105.999 49.4737C99.1988 49.9837 99.9288 50.0737 99.8488 49.8337C97.3088 41.9237 88.1588 34.0137 88.1588 34.0137C87.9488 33.8237 87.7388 34.0137 87.2788 34.2137C86.7557 32.7275 86.0857 31.2971 85.2788 29.9437C85.298 29.6101 85.1849 29.2822 84.964 29.0314C84.7431 28.7805 84.4322 28.6269 84.0988 28.6037C84.9988 27.5337 83.4988 25.8237 81.4388 27.2337C81.0888 26.7237 80.7188 26.2337 80.3388 25.6937C80.565 25.5493 80.7703 25.3743 80.9488 25.1737C81.1588 24.7937 79.9488 25.1737 87.1388 23.8237C88.4688 23.5537 94.3388 22.3637 95.1388 22.1037C95.2294 22.0927 95.3136 22.051 95.3773 21.9855C95.441 21.92 95.4803 21.8347 95.4888 21.7437C96.8888 20.9737 95.3288 16.8137 94.7288 15.3337C97.2188 12.9237 96.7288 10.3337 94.6188 9.58375C93.6463 9.2861 92.6147 9.23796 91.6188 9.44375C90.6729 7.80984 89.3872 6.39803 87.8488 5.30375C86.7188 4.68375 85.8488 5.06375 85.5888 5.65375C85.3288 6.24375 75.7088 17.6537 75.5888 17.7237C73.7688 18.2437 71.0788 19.3837 70.1888 21.0537C68.1288 24.9637 72.1288 29.7637 76.0288 28.2437L76.7388 28.0137C77.1588 28.6237 77.6788 29.3137 78.1388 29.9237C78.0513 30.0838 77.9777 30.2511 77.9188 30.4237C77.8088 30.7837 77.0788 31.7437 77.5588 32.7037C78.0388 33.6637 81.3588 36.0037 82.3588 36.6337L82.1488 36.7437C82.0793 36.7726 82.0238 36.8274 81.994 36.8964C81.9641 36.9654 81.9622 37.0434 81.9888 37.1137C82.5688 38.8137 85.6988 46.9537 84.1788 46.6337C81.9588 46.1537 76.4688 44.0037 69.7888 41.8237C66.1188 40.6237 63.6588 39.4637 60.3888 38.7037C60.1488 37.1337 59.8788 36.6337 59.6388 35.3637C60.7182 34.9036 61.632 34.1258 62.2588 33.1337C62.6188 32.5337 62.1988 32.7737 62.9588 32.9237C63.2055 32.9972 63.471 32.9727 63.7001 32.8554C63.9292 32.7381 64.1042 32.5369 64.1888 32.2937C65.0888 32.6037 65.9488 32.0937 65.7488 31.0437C66.3888 31.0437 67.5688 31.0437 67.7488 29.9337C68.0188 28.5937 66.3588 28.1237 65.9388 27.6237C65.1824 26.684 64.6367 25.5927 64.3388 24.4237C63.3388 21.2237 62.5588 15.8237 60.7988 13.7737C60.2478 13.1644 59.5704 12.6827 58.8139 12.3625C58.0574 12.0422 57.24 11.8911 56.419 11.9197C55.598 11.9482 54.7931 12.1558 54.0607 12.5279C53.3283 12.9 52.686 13.4275 52.1788 14.0737C51.5424 13.7133 50.8726 13.4152 50.1788 13.1837C49.3285 13.045 48.4588 13.0836 47.6242 13.297C46.7896 13.5103 46.0081 13.894 45.3288 14.4237C42.0488 17.2137 43.7388 22.0137 41.5288 27.1637C40.8388 28.7637 37.3988 32.2137 39.9188 33.5237C40.1788 33.604 40.4558 33.6119 40.7201 33.5467C40.9843 33.4815 41.2258 33.3457 41.4188 33.1537C41.4433 33.4124 41.5181 33.6637 41.6388 33.8937C41.9386 34.2527 42.327 34.5273 42.7654 34.6904C43.2038 34.8535 43.6772 34.8995 44.1388 34.8237C44.425 34.7291 44.6829 34.564 44.8888 34.3437C44.9559 34.5514 45.0766 34.7377 45.2388 34.8837C46.0588 35.5337 47.0588 35.4737 47.9188 34.1737C48.0525 34.3626 48.2376 34.5091 48.452 34.5959C48.6665 34.6828 48.9013 34.7063 49.1288 34.6637V37.9737C48.5788 38.0437 48.0288 38.1137 47.4788 38.2137C47.4325 38.2046 47.385 38.2046 47.3388 38.2137C41.3046 39.0996 35.6492 41.6913 31.0388 45.6837C26.4218 49.6105 22.6375 54.4217 19.9088 59.8337C17.4988 65.1337 17.7588 67.0937 18.5888 70.8337C19.0997 72.9846 20.0798 74.9959 21.4588 76.7237C22.9788 78.7837 25.3288 81.2637 28.7288 84.9337C29.5388 85.8037 30.5588 86.9337 31.4188 87.7937C30.9588 89.8937 27.7088 102.584 27.8988 105.154C27.8988 105.414 28.1388 105.724 28.6588 105.944C30.362 106.452 32.1225 106.745 33.8988 106.814C33.3088 128.044 34.8188 155.894 36.6888 176.564C36.6124 176.59 36.5437 176.635 36.4888 176.694C36.1686 177.576 36.1686 178.542 36.4888 179.424C36.6188 179.694 36.8688 179.674 37.4888 179.724C37.4888 181.004 37.5988 182.484 37.6788 183.774C37.4546 183.948 37.253 184.15 37.0788 184.374C37.0088 184.534 36.9988 184.484 37.4488 187.104C37.1399 187.952 36.9024 188.826 36.7388 189.714C36.6455 190.377 36.5888 191.044 36.5688 191.714C36.5666 192.073 36.6786 192.423 36.8888 192.714C38.1548 193.703 39.5733 194.48 41.0888 195.014C42.7811 194.745 44.3795 194.057 45.7388 193.014C45.9075 192.862 46.0368 192.672 46.1152 192.46C46.1937 192.247 46.2189 192.018 46.1888 191.794C46.1281 190.157 45.8489 188.536 45.3588 186.974C45.5586 186.118 45.6659 185.243 45.6788 184.364C45.6188 184.174 45.5088 184.084 44.9688 183.734C45.0988 182.494 45.2188 181.094 45.3088 179.864H46.5588C47.3488 179.814 47.1088 178.434 47.1488 177.334C47.1488 176.944 46.7688 176.804 46.4088 176.724L55.8888 115.624C56.5788 119.424 58.2088 128.924 58.1988 132.804C58.1988 133.744 55.7888 164.744 55.1988 172.864C55.1038 172.886 55.017 172.934 54.9488 173.004C54.5939 173.859 54.5204 174.804 54.7388 175.704C54.8488 176.004 55.1288 176.004 55.5488 176.074C55.3988 177.474 55.2588 178.974 55.1488 180.424C54.7488 180.424 54.6288 180.524 54.4988 180.894C54.1088 182.014 53.7088 185.984 54.4088 187.084C54.8788 187.814 70.7288 190.844 74.9288 188.994C75.7688 188.614 75.7288 187.754 75.5888 186.844C75.3488 185.204 68.5888 182.954 66.5888 181.974C66.3988 181.874 66.4388 181.904 66.3588 181.754C65.3588 179.934 65.0788 179.164 64.7888 179.024C64.4996 178.94 64.1954 178.923 63.8988 178.974C63.8288 178.284 63.7588 177.614 63.6788 176.854C63.8454 176.883 64.0169 176.858 64.1688 176.784C64.5888 176.484 64.5488 175.224 64.6488 174.384C64.6607 174.269 64.6285 174.155 64.5588 174.064C64.0188 173.274 63.5588 176.594 68.9488 157.764C68.7688 159.864 67.2888 176.664 67.8088 177.494C67.9588 177.704 68.2488 177.714 68.6088 177.744C75.2388 178.414 159.449 181.524 166.519 181.604C167.729 181.604 171.519 181.684 171.879 181.444C175.239 179.404 182.739 61.6937 181.289 51.1837ZM106.739 48.2737C107.739 46.9237 118.389 46.3237 119.419 45.7337C119.475 45.7083 119.524 45.6678 119.559 45.6167C119.595 45.5655 119.615 45.5057 119.619 45.4437C119.667 43.4996 119.984 41.5715 120.559 39.7137C120.878 38.7676 121.402 37.9035 122.094 37.1827C122.785 36.462 123.627 35.9024 124.559 35.5437C127.269 34.5437 131.879 35.4237 133.209 37.8237C134.039 39.2937 134.059 44.3837 134.909 45.0937C135.759 45.8037 147.559 45.5637 148.909 46.9437C148.991 47.1078 149.048 47.283 149.079 47.4637C149.387 49.6448 149.363 51.8598 149.009 54.0337C146.279 55.1237 112.789 56.6237 107.549 56.0337C106.809 55.9537 106.749 56.0337 106.549 55.2937C106.059 53.7437 105.859 49.4537 106.739 48.2737ZM80.9588 29.8437C81.0288 29.2637 80.7688 29.5337 81.3288 29.6537C81.2493 29.794 81.2049 29.9515 81.1994 30.1126C81.1939 30.2737 81.2275 30.4338 81.2972 30.5792C81.367 30.7245 81.4708 30.8509 81.5999 30.9475C81.7291 31.044 81.8796 31.1079 82.0388 31.1337C81.9446 31.266 81.8875 31.4211 81.8734 31.5828C81.8593 31.7446 81.8888 31.9072 81.9588 32.0537C82.1988 32.5537 82.5388 32.6237 83.0488 32.6837C82.8503 32.9091 82.571 33.0471 82.2714 33.0677C81.9718 33.0883 81.6762 32.9898 81.4488 32.7937C81.3588 32.7037 80.9188 32.1637 80.3388 31.4437C80.6333 30.9488 80.8428 30.4079 80.9588 29.8437ZM84.5288 29.4637C84.5986 29.5029 84.6598 29.5559 84.7085 29.6195C84.7572 29.6831 84.7925 29.756 84.8121 29.8336C84.8318 29.9113 84.8354 29.9921 84.8228 30.0712C84.8102 30.1503 84.7816 30.226 84.7388 30.2937C84.3068 30.2482 83.8702 30.2787 83.4488 30.3837C82.9988 30.4837 82.2088 30.5537 82.0188 30.2537C81.7388 29.7737 83.7888 28.9537 84.5288 29.4637ZM82.4188 27.5337C83.5088 27.0837 84.1288 27.8437 83.9388 28.2537C83.2393 28.7064 82.4219 28.9429 81.5888 28.9337C81.5433 28.9329 81.4986 28.9227 81.4573 28.9038C81.416 28.8849 81.379 28.8576 81.3488 28.8237C81.1288 28.6137 81.2788 28.3937 81.4688 28.1937C81.7429 27.918 82.0647 27.6944 82.4188 27.5337ZM80.6688 24.4637C79.4388 22.6737 76.4488 18.6937 75.9688 17.9237L85.4988 6.92375C85.8388 9.92375 89.1188 15.4237 90.7488 17.9237C90.8023 17.9913 90.8758 18.0403 90.9588 18.0637C91.8672 19.4238 92.9882 20.6291 94.2788 21.6337C93.4988 21.7337 83.4888 23.9037 80.6688 24.4637ZM94.3688 10.2837C94.6214 10.3716 94.8531 10.5108 95.0494 10.6925C95.2456 10.8741 95.4022 11.0945 95.5093 11.3396C95.6163 11.5847 95.6715 11.8492 95.6715 12.1167C95.6714 12.3842 95.616 12.6487 95.5088 12.8937C94.9688 14.3837 93.5088 15.5037 92.1888 16.4437C91.8288 16.7137 91.4788 16.9637 91.1888 17.1537C89.8402 15.235 88.6177 13.2308 87.5288 11.1537C89.5688 10.5437 92.5088 9.52375 94.3688 10.2837ZM75.8088 27.5637C72.5588 28.8337 69.2088 24.7037 70.8088 21.3737C71.5188 19.8737 74.0988 18.6337 75.6688 18.0737C76.0788 18.8237 79.5388 24.0137 80.1288 24.9437C78.7833 25.9642 77.3355 26.8423 75.8088 27.5637ZM77.2988 27.6737C78.1688 27.1837 79.1988 26.5237 80.0088 25.9537C80.3388 26.4837 80.6788 27.0637 81.0088 27.5937C80.8335 27.7295 80.6944 27.9064 80.6037 28.1087C80.513 28.311 80.4735 28.5326 80.4888 28.7537C80.2156 28.6101 79.9048 28.5543 79.5988 28.5937C79.1949 28.6754 78.8373 28.9078 78.5988 29.2437L77.2988 27.6737ZM80.7388 34.7537C78.5488 32.8437 78.3488 32.9937 78.1388 32.4137C77.9288 31.8337 78.5288 30.9837 78.6588 30.6237C78.8788 29.9837 79.5788 29.0137 80.1588 29.4237C80.5488 29.6937 79.9988 31.2537 79.8588 31.5737C79.8044 31.658 79.7607 31.7487 79.7288 31.8437C80.0989 32.361 80.4961 32.8584 80.9188 33.3337C81.153 33.5398 81.4322 33.6883 81.7341 33.7672C82.0359 33.8461 82.3521 33.8532 82.6572 33.7881C82.9623 33.723 83.248 33.5874 83.4914 33.3922C83.7347 33.197 83.929 32.9475 84.0588 32.6637L84.5388 32.5637C84.5784 32.5543 84.6133 32.5309 84.6372 32.4979C84.6611 32.4649 84.6723 32.4243 84.6688 32.3837C84.6688 32.1237 84.0888 32.3837 83.3088 32.1037C82.9688 32.0037 82.7488 31.9737 82.6688 31.7637C82.4888 31.3337 84.0688 30.9837 84.5588 30.9937C84.6899 30.9782 84.8228 30.9887 84.9498 31.0247C85.0768 31.0608 85.1954 31.1216 85.2988 31.2037C85.3988 31.2937 86.8288 33.9437 87.0188 34.3837L82.7388 36.3837C82.1688 36.0137 81.4188 35.3737 80.7388 34.7537ZM84.0688 47.1137C84.1698 47.1459 84.2763 47.1573 84.3819 47.1474C84.4875 47.1374 84.59 47.1064 84.6834 47.056C84.7767 47.0056 84.8589 46.9369 84.9251 46.8541C84.9913 46.7712 85.0402 46.6759 85.0688 46.5737C85.5688 45.0737 83.6188 39.9537 82.6688 37.1437L87.8988 34.6837C89.1088 35.7737 96.8988 42.9237 99.1288 50.0637C100.409 54.0637 99.9188 58.0637 95.3688 60.9537C91.8722 63.0579 87.8079 64.0224 83.7388 63.7137C79.6654 63.456 75.6716 62.4669 71.9488 60.7937C72.0988 58.6437 72.0488 53.8537 72.4188 51.2637C72.4222 51.2225 72.4105 51.1814 72.3858 51.1481C72.3611 51.1149 72.3251 51.0918 72.2846 51.0832C72.2441 51.0746 72.2019 51.0811 72.1658 51.1014C72.1297 51.1218 72.1023 51.1546 72.0888 51.1937C71.8015 52.0644 71.5874 52.9575 71.4488 53.8637C71.1792 56.2245 71.1457 58.6063 71.3488 60.9737C71.2688 61.1337 71.1488 60.2937 72.6388 74.4237C72.6388 74.5937 78.2188 98.9737 78.0688 102.264C76.0688 103.344 64.5788 104.544 62.0688 104.594C61.2788 102.664 56.9388 89.5937 56.2588 87.5137C60.2588 67.6837 56.9688 80.8137 62.7588 68.7637C64.7864 64.5259 66.5954 60.1869 68.1788 55.7637C68.5627 54.7447 68.8702 53.6985 69.0988 52.6337C69.1788 52.4537 69.2888 52.2637 69.0988 52.0537L66.5388 48.6037C69.2588 41.7337 69.1688 42.1037 69.1588 41.9337C75.6088 44.1437 81.8088 46.6037 84.0688 47.1137ZM72.1888 61.8237C74.3567 62.7432 76.6113 63.4434 78.9188 63.9137C78.0688 69.6837 77.0888 77.4837 76.0588 86.3137C72.6588 70.1537 73.8888 78.7637 72.1888 61.8237ZM41.3988 166.434C41.0988 174.144 41.3988 173.804 41.0688 173.814C41.0254 173.814 40.9836 173.797 40.952 173.768C40.9203 173.738 40.9013 173.697 40.8988 173.654C40.5088 164.914 41.5588 148.334 43.6488 107.134H44.0288C43.3588 122.584 41.4688 164.544 41.3988 166.434ZM48.0888 49.3337C45.6162 46.5383 43.3407 43.5745 41.2788 40.4637C43.1835 39.748 45.1574 39.2319 47.1688 38.9237C47.8288 40.4437 49.8288 46.0337 50.3888 47.6137L48.1088 49.3637L48.0888 49.3337ZM49.2788 38.7637C51.1988 40.7637 55.1988 44.4337 57.9888 44.6937C57.6988 45.1637 55.8688 48.1337 55.5088 48.5637C54.4388 48.2137 49.9988 42.8937 49.2188 41.9737C48.9088 41.1437 48.3888 39.7237 48.0488 38.9137L49.2788 38.7637ZM45.6788 54.2837V54.1837C45.6788 54.1437 47.7388 50.5437 47.9388 50.1837C48.0288 50.0137 47.7188 50.2937 50.5388 47.9837C55.2788 61.4237 55.1188 62.7637 57.5388 71.7637C44.2188 52.1737 45.7388 54.1837 45.6788 54.2837ZM56.4488 47.9437C56.6444 48.6577 56.909 49.351 57.2388 50.0137C57.4388 50.2337 56.8588 52.3637 55.9088 61.9337C54.1938 55.7358 52.1679 49.628 49.8388 43.6337C50.6388 44.5037 54.1988 48.4137 55.2888 48.8337C55.3566 48.8774 55.4363 48.8989 55.5169 48.8953C55.5975 48.8917 55.675 48.8632 55.7388 48.8137C55.8488 48.6937 56.1088 48.3437 56.4288 47.8937L56.4488 47.9437ZM58.9788 73.8037C60.3088 67.8037 63.1688 53.4437 63.4788 47.3537L65.8788 48.9337C68.7388 52.9337 68.4788 52.4737 68.4588 52.6537C68.0888 54.7837 61.5188 70.3937 58.9588 73.7537L58.9788 73.8037ZM65.7388 48.2837L63.5288 46.9237C63.7855 44.8329 63.9324 42.73 63.9688 40.6237C65.3588 41.0937 66.7988 41.6237 68.1488 42.2137C67.9088 42.7837 66.1888 47.1337 65.7388 48.2837ZM61.8188 54.0137C61.5196 52.589 61.1254 51.1859 60.6388 49.8137C60.6888 49.5937 60.8988 48.6237 61.0288 48.0137C61.2596 48.2724 61.5032 48.5194 61.7588 48.7537C62.0088 48.9737 62.2088 49.1037 62.4788 48.9737C62.2688 50.6537 62.0588 52.2537 61.8188 54.0137ZM63.1188 40.3337C63.1083 42.6743 62.9547 45.012 62.6588 47.3337C62.4788 47.6937 62.3288 47.9837 62.2188 48.1737C61.0484 47.0551 59.9401 45.8734 58.8988 44.6337C60.6688 44.1437 60.6888 41.3937 60.5088 39.5537C61.4188 39.7737 62.2888 40.0137 63.1188 40.2937V40.3337ZM50.8988 33.3337C50.9588 33.1637 50.8988 33.2137 51.0488 33.2437C51.6569 33.308 52.2691 33.1692 52.7901 32.849C53.311 32.5288 53.7114 32.0453 53.9288 31.4737C54.1541 30.4896 54.0881 29.461 53.7388 28.5137C53.589 28.0662 53.472 27.6083 53.3888 27.1437C52.8888 25.1437 51.6688 23.1937 52.2288 21.2337C52.3639 20.7005 52.7018 20.2411 53.1707 19.9535C53.6395 19.6658 54.2022 19.5726 54.7388 19.6937C55.0114 19.7921 55.2756 19.9125 55.5288 20.0537C56.3788 20.4937 56.9888 20.8137 57.3888 20.4137C57.3888 20.4137 58.5988 19.2237 59.7488 19.5337C60.2088 19.7137 61.2888 22.0037 61.5288 23.2537C61.3484 23.0131 61.0843 22.8489 60.7888 22.7937C59.9688 22.6937 59.3988 23.3637 59.5188 23.5637C60.1879 23.7136 60.8871 23.6507 61.5188 23.3837C61.8617 25.2671 62.0191 27.1796 61.9888 29.0937C61.525 28.7926 61.0148 28.5696 60.4788 28.4337C60.0731 28.4201 59.6696 28.4987 59.2988 28.6637C58.9003 28.5634 58.4891 28.523 58.0788 28.5437C56.9288 28.7637 55.9788 30.0137 55.3988 30.5437C55.1388 30.7837 54.9488 31.4437 55.3988 31.7237C55.8488 32.0037 56.4988 31.4937 56.6988 31.2637C57.5235 30.4356 58.4204 29.6826 59.3788 29.0137C60.2059 29.5603 61.0603 30.0643 61.9388 30.5237C61.8249 31.0117 61.7878 31.5144 61.8288 32.0137C61.5948 32.6018 61.2384 33.1333 60.7832 33.5729C60.3281 34.0126 59.7845 34.3503 59.1888 34.5637C59.1103 34.5885 59.0376 34.6289 58.9751 34.6824C58.9126 34.736 58.8616 34.8017 58.8251 34.8755C58.7887 34.9493 58.7676 35.0297 58.7631 35.1119C58.7585 35.1941 58.7707 35.2764 58.7988 35.3537C58.9988 36.6037 59.9588 39.2137 59.6688 41.8437C59.5788 42.6637 59.3188 43.6937 58.4988 43.7837C56.0988 44.0537 51.6388 39.9237 49.9488 38.1837V34.3937C50.3979 34.152 50.7378 33.7478 50.8988 33.2637V33.3337ZM49.7388 24.8137C49.9067 25.8736 50.0168 26.9419 50.0688 28.0137C49.4988 28.2137 48.7388 27.4637 48.5988 26.9337C48.2788 25.8337 48.5588 25.1337 49.7388 24.8137ZM28.7388 105.014C28.6188 102.624 31.5788 90.8837 32.1488 88.4437C32.4268 88.7426 32.7686 88.975 33.1488 89.1237C33.2353 89.1335 33.3227 89.1167 33.3995 89.0756C33.4763 89.0345 33.5388 88.9711 33.5788 88.8937C33.6488 88.7937 33.8888 88.4137 34.2388 87.8937C34.529 88.507 34.9367 89.0574 35.4388 89.5137C33.9488 90.7337 33.6288 90.6437 33.7588 90.8837C33.778 90.9202 33.8106 90.9479 33.8497 90.9609C33.8888 90.974 33.9315 90.9714 33.9688 90.9537C38.2288 89.0737 40.4088 85.6637 40.6588 80.8937C40.6619 80.8544 40.6504 80.8152 40.6264 80.7838C40.6024 80.7524 40.5676 80.731 40.5288 80.7237C40.1888 80.7237 40.4288 81.5437 39.3188 84.3237C38.8187 83.8259 38.204 83.4585 37.5288 83.2537C37.6622 83.079 37.8093 82.9152 37.9688 82.7637C38.1988 82.7037 38.3288 82.4737 38.1988 82.1437C37.8688 81.2737 35.8188 77.7237 35.2988 76.8337C35.3044 76.7772 35.3044 76.7203 35.2988 76.6637C35.3588 75.2737 35.6888 72.8137 35.9988 70.1637C36.5969 64.9591 36.874 59.7225 36.8288 54.4837C36.7556 52.9622 36.4729 51.4581 35.9888 50.0137C35.9795 49.9713 35.9537 49.9343 35.9171 49.9109C35.8806 49.8874 35.8362 49.8795 35.7938 49.8887C35.7513 49.898 35.7143 49.9238 35.6909 49.9604C35.6674 49.9969 35.6595 50.0413 35.6688 50.0837C35.9788 52.2837 36.1388 61.0037 36.1388 61.2037C35.2088 62.6137 30.7988 68.5937 30.8188 69.5237C30.9236 70.0834 31.0983 70.6276 31.3388 71.1437C31.3388 71.4037 30.7288 69.7837 34.7788 77.3037C35.3088 78.3037 36.9388 81.3037 37.3688 82.2437C35.8122 84.1548 34.3729 86.1585 33.0588 88.2437C30.8088 86.4437 24.0588 78.8437 22.1388 76.2437C20.8267 74.6089 19.8942 72.703 19.4088 70.6637C18.878 68.9435 18.7212 67.1296 18.9488 65.3437C19.9488 58.8937 26.4688 50.6137 31.5488 46.3437C34.3486 43.9415 37.5242 42.0158 40.9488 40.6437C41.5188 41.6437 42.7088 43.3637 43.9488 45.1437C47.5988 50.2337 47.6188 49.4637 47.3988 49.8437C46.8588 50.8437 45.2188 53.4637 44.9588 54.0537C44.8188 54.3837 43.6588 52.9037 57.7588 73.9237C57.3088 76.3637 52.3688 103.734 51.3388 106.024C49.5988 106.714 30.4688 106.484 28.7388 105.014ZM35.6488 89.3337C35.2418 88.7532 34.9373 88.1072 34.7488 87.4237C35.2855 86.3994 35.9184 85.4284 36.6388 84.5237C37.0688 83.9537 37.0488 83.8937 37.3388 83.9137C37.9893 84.0056 38.6093 84.2488 39.1488 84.6237C38.3887 86.4722 37.1746 88.0991 35.6188 89.3537L35.6488 89.3337ZM34.5488 75.5337C33.9388 74.5337 31.6988 70.3037 31.6388 69.5337C32.0588 68.4137 34.2888 65.0337 36.2488 61.7937C36.0188 65.2537 34.9388 71.1537 34.5188 75.5537L34.5488 75.5337ZM45.3088 191.794C45.3086 191.942 45.2884 192.09 45.2488 192.234C45.231 192.271 45.2033 192.302 45.1688 192.324C44.1404 193.112 42.9785 193.708 41.7388 194.084C41.0588 194.294 41.0488 194.314 39.5588 193.624C38.7477 193.269 37.9625 192.858 37.2088 192.394C36.9688 192.174 36.9388 191.454 36.9388 191.134C37.6294 191.764 38.3912 192.311 39.2088 192.764C40.6288 193.534 41.5988 193.674 43.7688 192.664C44.3079 192.422 44.8234 192.131 45.3088 191.794ZM44.4288 179.944C44.3388 181.054 44.2388 182.194 44.1388 183.214C43.2957 182.695 42.4168 182.237 41.5088 181.844C40.6488 181.624 39.1088 182.684 38.3888 183.214C38.3088 182.434 38.2288 181.454 38.0788 179.754C39.2088 179.814 40.5488 179.844 41.6788 179.854C44.7388 179.884 44.4488 179.794 44.4288 179.944ZM46.2388 178.944C46.1388 178.944 37.3288 179.094 36.9688 179.064C36.6813 178.361 36.6082 177.588 36.7588 176.844C36.8961 176.807 37.0368 176.783 37.1788 176.774C40.2234 176.792 43.2634 177.012 46.2788 177.434C46.304 177.961 46.2906 178.489 46.2388 179.014V178.944ZM62.7388 176.764C62.8088 177.524 62.8688 178.314 62.9388 179.084C62.5975 179.141 62.2626 179.232 61.9388 179.354C61.1688 179.764 61.8288 181.184 61.5788 181.504C60.6388 181.394 57.4488 180.504 55.7588 180.394C55.8188 179.044 55.8988 177.394 55.9688 176.124C57.9488 176.404 60.8388 176.634 62.7388 176.764ZM74.7388 187.214C74.7388 187.614 74.8188 188.044 74.5188 188.214C71.0288 189.764 56.1788 187.364 54.7288 186.774C54.5904 186.457 54.5092 186.119 54.4888 185.774C60.0088 186.704 70.2888 189.324 74.7388 187.214ZM63.5588 176.014C63.4588 176.014 55.4188 175.504 55.1388 175.454C55.0282 174.941 54.9812 174.418 54.9988 173.894C54.9878 173.663 55.0324 173.433 55.1288 173.224C56.3388 173.014 62.4988 174.224 63.7188 174.514C63.6936 175.016 63.6401 175.517 63.5588 176.014ZM68.4988 133.014C67.8688 136.014 61.6388 166.664 60.6188 171.334C60.6052 171.373 60.5778 171.406 60.5417 171.426C60.5057 171.446 60.4634 171.453 60.4229 171.444C60.3824 171.436 60.3464 171.413 60.3217 171.379C60.297 171.346 60.2853 171.305 60.2888 171.264C61.1088 167.034 66.9988 136.064 67.6788 132.834C67.9988 131.324 65.3088 107.784 64.9888 105.264H65.5188C66.9788 114.704 68.8088 131.484 68.4988 133.014ZM171.179 180.844C166.949 181.174 69.2688 177.074 68.3888 176.964C68.1788 174.334 69.7388 156.534 69.9688 153.904C71.5688 148.234 74.6188 137.104 75.5188 131.254C76.2988 126.144 74.9288 114.704 74.2488 109.544C74.4488 107.684 74.6388 105.834 74.8388 103.994C75.9919 103.822 77.1267 103.544 78.2288 103.164C78.5288 103.024 78.8288 102.834 78.8588 102.514C79.0488 100.734 76.8588 90.3937 76.5288 88.6037C77.6288 78.8637 78.7388 70.2737 79.5888 64.0137C85.1588 65.0137 90.9688 64.6637 95.7888 61.6037C100.429 58.6637 101.179 54.6037 100.069 50.5437C101.919 50.3637 103.869 50.1937 105.889 50.0337C105.669 51.6437 105.709 55.5337 106.559 56.2037C108.169 57.4837 146.149 55.9737 149.289 54.7237C149.443 54.6701 149.574 54.5639 149.659 54.4237C150.139 53.5037 150.099 49.6537 149.959 48.2137C153.069 48.2137 178.959 48.0137 180.809 50.5037C182.899 53.3237 174.449 180.524 171.179 180.794V180.844Z" fill="white"/>
<path d="M101.549 107.374C101.439 106.684 101.209 106.554 100.829 106.444C98.8288 105.864 87.2188 105.204 86.2388 105.864C85.2588 106.524 83.3288 114.194 84.0088 116.574C84.0732 116.711 84.1663 116.833 84.2819 116.932C84.3975 117.03 84.5328 117.102 84.6788 117.144C87.0488 118.144 98.4988 119.074 99.7388 118.374C100.979 117.674 101.839 109.264 101.549 107.374ZM99.7388 116.924C99.6556 117.199 99.5344 117.462 99.3788 117.704C98.5788 118.154 86.1188 117.484 84.6388 116.374C83.9688 114.144 85.6388 106.674 86.4288 106.124C87.2188 105.574 99.5088 106.624 100.789 107.194C101.199 108.864 100.349 115.014 99.7388 116.924ZM97.2888 125.574C96.2888 124.804 83.2888 124.184 82.2888 124.824C81.2888 125.464 79.3788 133.094 80.0588 135.534C80.1248 135.67 80.2184 135.791 80.3338 135.889C80.4491 135.988 80.5837 136.061 80.7288 136.104C83.1188 137.104 92.9988 137.854 95.3088 137.474C95.4598 137.468 95.6075 137.428 95.7409 137.357C95.8742 137.286 95.9898 137.186 96.0788 137.064C97.0688 135.694 98.3388 126.424 97.2888 125.574ZM95.4288 136.654C94.6088 137.114 82.2188 136.444 80.6888 135.324C80.0188 133.094 81.6888 125.624 82.4788 125.074C83.2688 124.524 95.6688 125.614 96.8288 126.144C97.3288 128.014 96.0888 136.284 95.4288 136.654ZM94.9688 144.074C93.9688 143.314 80.9688 142.684 79.9688 143.324C78.9688 143.964 77.0588 151.584 77.7388 154.014C77.8032 154.151 77.8963 154.273 78.0119 154.372C78.1275 154.47 78.2628 154.542 78.4088 154.584C80.7988 155.584 90.6788 156.334 92.9888 155.954C93.1406 155.947 93.2889 155.906 93.4223 155.833C93.5557 155.76 93.6708 155.658 93.7588 155.534C94.7388 154.214 96.0288 144.934 94.9688 144.074ZM93.4588 154.384C93.4588 154.504 93.2088 155.104 93.0988 155.154C92.2788 155.614 79.8888 154.934 78.3588 153.824C77.6988 151.604 79.3588 144.134 80.1488 143.574C80.9388 143.014 93.2188 144.074 94.5088 144.644C94.9088 146.264 94.1388 152.274 93.4588 154.384Z" fill="white"/>
<path d="M96.539 109.194C94.749 110.894 93.159 112.864 91.999 113.604C91.589 113.874 91.379 113.964 90.999 113.764C90.3798 113.373 89.8541 112.851 89.459 112.234C89.4362 112.205 89.4042 112.185 89.3684 112.177C89.3325 112.169 89.2951 112.174 89.2623 112.19C89.2295 112.207 89.2033 112.234 89.1882 112.267C89.173 112.301 89.1698 112.338 89.179 112.374C89.5146 113.174 90.0649 113.866 90.769 114.374C91.0246 114.506 91.3133 114.561 91.5995 114.531C91.8857 114.5 92.1568 114.387 92.379 114.204C93.195 113.638 93.9316 112.965 94.569 112.204C95.3472 111.311 96.0718 110.373 96.739 109.394C96.7607 109.384 96.7795 109.368 96.794 109.349C96.8085 109.33 96.8182 109.308 96.8222 109.284C96.8263 109.26 96.8246 109.236 96.8173 109.213C96.8101 109.19 96.7974 109.169 96.7804 109.153C96.7635 109.136 96.7427 109.123 96.7198 109.116C96.6969 109.108 96.6727 109.107 96.649 109.111C96.6254 109.115 96.603 109.124 96.5839 109.139C96.5647 109.153 96.5494 109.172 96.539 109.194ZM92.609 128.144C90.449 130.194 88.399 132.794 87.449 132.834C87.1535 132.777 86.8798 132.638 86.659 132.434C85.599 131.564 85.599 130.974 85.339 131.124C85.32 131.132 85.3029 131.145 85.289 131.16C85.275 131.176 85.2643 131.194 85.2578 131.214C85.2512 131.233 85.2488 131.254 85.2507 131.275C85.2527 131.296 85.2589 131.316 85.269 131.334C85.639 132.194 86.519 133.524 87.459 133.544C88.659 133.544 90.619 131.324 91.329 130.434C92.039 129.544 92.559 128.724 92.839 128.344C92.8655 128.313 92.8789 128.274 92.876 128.233C92.8732 128.193 92.8545 128.155 92.824 128.129C92.7935 128.102 92.7537 128.089 92.7134 128.092C92.6731 128.095 92.6355 128.113 92.609 128.144ZM90.279 146.644C88.159 148.644 86.059 151.294 85.129 151.324C84.8277 151.276 84.5484 151.136 84.329 150.924C83.259 150.054 83.329 149.474 83.009 149.614C82.9905 149.624 82.9743 149.638 82.9612 149.655C82.9481 149.672 82.9385 149.691 82.9329 149.711C82.9274 149.732 82.9259 149.753 82.9287 149.774C82.9314 149.795 82.9383 149.816 82.949 149.834C83.309 150.694 84.189 152.024 85.139 152.044C86.339 152.044 88.299 149.824 88.999 148.934C89.699 148.044 90.239 147.224 90.509 146.844C90.649 146.694 90.419 146.494 90.279 146.644ZM167.189 112.684C163.959 112.494 111.409 110.284 108.079 110.144C108.045 110.153 108.014 110.173 107.992 110.201C107.971 110.229 107.959 110.263 107.959 110.299C107.959 110.334 107.971 110.369 107.992 110.397C108.014 110.425 108.045 110.445 108.079 110.454C111.469 110.674 164.989 112.934 167.199 112.994C167.233 112.984 167.263 112.963 167.284 112.934C167.305 112.906 167.316 112.871 167.315 112.835C167.313 112.799 167.3 112.765 167.278 112.738C167.255 112.711 167.224 112.692 167.189 112.684ZM163.259 131.644C160.029 131.454 107.479 129.244 104.149 129.094C104.125 129.088 104.101 129.087 104.077 129.092C104.053 129.097 104.03 129.108 104.011 129.123C103.992 129.137 103.976 129.157 103.966 129.179C103.955 129.2 103.949 129.225 103.949 129.249C103.949 129.273 103.955 129.297 103.966 129.319C103.976 129.341 103.992 129.36 104.011 129.375C104.03 129.39 104.053 129.401 104.077 129.406C104.101 129.411 104.125 129.41 104.149 129.404C107.539 129.624 161.049 131.884 163.259 131.954C163.293 131.945 163.324 131.925 163.346 131.897C163.368 131.869 163.379 131.834 163.379 131.799C163.379 131.763 163.368 131.729 163.346 131.701C163.324 131.673 163.293 131.653 163.259 131.644ZM160.929 150.144C157.699 149.954 105.149 147.744 101.819 147.594C101.785 147.603 101.754 147.623 101.732 147.651C101.711 147.679 101.699 147.713 101.699 147.749C101.699 147.784 101.711 147.819 101.732 147.847C101.754 147.875 101.785 147.895 101.819 147.904C105.199 148.124 158.719 150.384 160.929 150.444C160.969 150.444 161.007 150.428 161.035 150.4C161.063 150.372 161.079 150.334 161.079 150.294C161.079 150.254 161.063 150.216 161.035 150.188C161.007 150.16 160.969 150.144 160.929 150.144ZM166.739 119.764C163.509 119.584 110.959 117.364 107.639 117.224C107.615 117.218 107.591 117.217 107.567 117.222C107.543 117.227 107.52 117.238 107.501 117.253C107.482 117.267 107.466 117.287 107.456 117.309C107.445 117.33 107.439 117.355 107.439 117.379C107.439 117.403 107.445 117.427 107.456 117.449C107.466 117.471 107.482 117.49 107.501 117.505C107.52 117.52 107.543 117.531 107.567 117.536C107.591 117.541 107.615 117.54 107.639 117.534C111.019 117.754 164.539 120.014 166.749 120.074C166.783 120.064 166.813 120.043 166.834 120.014C166.855 119.986 166.866 119.951 166.865 119.915C166.863 119.879 166.85 119.845 166.828 119.818C166.805 119.791 166.774 119.772 166.739 119.764ZM162.829 138.724C159.599 138.534 107.049 136.324 103.719 136.184C103.519 136.184 103.499 136.474 103.719 136.494C107.109 136.714 160.629 138.964 162.839 139.034C162.873 139.024 162.903 139.003 162.924 138.974C162.945 138.946 162.956 138.911 162.955 138.875C162.953 138.839 162.94 138.805 162.918 138.778C162.895 138.751 162.864 138.732 162.829 138.724ZM160.499 157.224C157.279 157.034 104.729 154.824 101.399 154.674C101.357 154.674 101.316 154.691 101.286 154.721C101.256 154.751 101.239 154.791 101.239 154.834C101.239 154.876 101.256 154.917 101.286 154.947C101.316 154.977 101.357 154.994 101.399 154.994C104.789 155.204 158.299 157.464 160.509 157.534C160.543 157.524 160.573 157.503 160.594 157.474C160.615 157.446 160.626 157.411 160.625 157.375C160.623 157.339 160.61 157.305 160.588 157.278C160.565 157.251 160.534 157.232 160.499 157.224ZM110.339 97.9539C110.649 97.7739 110.789 97.2039 110.879 96.8239C112.199 91.4739 113.719 66.9739 113.399 65.5939C113.372 65.5018 113.32 65.4188 113.249 65.3539C112.679 64.8339 109.529 64.7739 108.439 64.7439C102.729 64.6039 89.439 65.0339 89.289 65.1739C88.919 65.6239 83.409 94.9739 84.089 96.9639C84.769 98.9539 107.979 99.2839 110.339 97.9539ZM84.739 96.6939C84.7317 96.5874 84.7317 96.4805 84.739 96.3739C84.7475 96.4059 84.7663 96.4342 84.7925 96.4544C84.8188 96.4746 84.8509 96.4855 84.884 96.4855C84.9171 96.4855 84.9493 96.4746 84.9755 96.4544C85.0017 96.4342 85.0205 96.4059 85.029 96.3739C85.4551 94.7325 86.2952 93.2278 87.469 92.0039C88.8122 90.5029 90.5417 89.3994 92.469 88.8139C93.341 89.9446 94.2899 91.0138 95.309 92.0139C95.539 92.1839 95.809 92.0139 96.089 91.8839C97.089 94.4139 96.609 91.1439 96.089 97.8839C94.599 97.8339 86.029 97.5039 84.739 96.6939ZM96.029 85.0139C95.4711 84.7925 94.9701 84.4482 94.5633 84.0068C94.1565 83.5654 93.8543 83.0381 93.679 82.4639C93.5727 82.0275 93.5057 81.5824 93.479 81.1339C93.826 81.5926 94.3098 81.929 94.8606 82.0945C95.4114 82.26 96.0006 82.2459 96.5429 82.0544C97.0851 81.8629 97.5524 81.5038 97.8771 81.0291C98.2018 80.5544 98.3671 79.9887 98.349 79.4139H98.529C98.2588 80.325 98.1405 81.2744 98.179 82.2239C98.1833 82.3641 98.221 82.5013 98.289 82.6239C98.589 83.0039 98.889 82.9939 99.399 82.9139C99.4391 82.9118 99.4772 82.8956 99.5064 82.8682C99.5357 82.8407 99.5543 82.8038 99.559 82.7639C99.559 82.5339 99.159 82.6339 98.879 82.3539C98.879 82.0139 98.989 80.8639 98.999 80.5739C98.999 79.3139 98.749 79.4539 99.109 79.4539C99.0399 79.9425 99.108 80.4407 99.3058 80.8928C99.5036 81.3449 99.8232 81.7331 100.229 82.0139C100.715 82.3298 101.286 82.4895 101.865 82.4716C102.444 82.4537 103.004 82.2591 103.469 81.9139C103.469 82.0439 103.369 82.1939 103.289 82.3939C103.016 83.294 102.476 84.0894 101.739 84.6739C100.569 85.4939 99.819 85.2039 99.899 85.7539C100.019 86.5439 100.289 87.1039 100.459 88.2739C99.5814 88.8024 98.7365 89.3834 97.929 90.0139C97.1569 89.2985 96.3421 88.6306 95.489 88.0139C95.889 85.9239 96.589 85.2639 96.029 85.0139ZM99.259 78.8039C99.2278 78.8891 99.2011 78.9759 99.179 79.0639C99.0504 78.9775 98.899 78.9314 98.744 78.9314C98.5891 78.9314 98.4376 78.9775 98.309 79.0639C98.2888 78.7723 98.2049 78.4886 98.0632 78.2329C97.9216 77.9772 97.7256 77.7557 97.489 77.5839C96.862 77.1834 96.133 76.9717 95.389 76.9739C94.8596 76.9498 94.341 77.1286 93.939 77.4739C94.2213 76.18 94.9821 75.0405 96.069 74.2839C97.949 73.1139 100.869 73.3439 102.069 75.2039C102.339 75.5794 102.542 75.999 102.669 76.4439C102.735 76.7843 102.829 77.1188 102.949 77.4439C102.733 77.3534 102.503 77.2993 102.269 77.2839C100.969 77.1939 99.579 77.5039 99.259 78.8239V78.8039ZM96.739 81.2939C96.4947 81.4184 96.2279 81.4928 95.9545 81.5128C95.681 81.5328 95.4063 81.498 95.1464 81.4105C94.8865 81.3229 94.6468 81.1844 94.4412 81.0029C94.2356 80.8215 94.0682 80.6009 93.949 80.3539C93.609 79.0739 94.139 77.6339 95.399 77.6239C99.209 77.4939 98.069 80.8039 96.739 81.2939ZM102.279 77.9239C103.539 78.0639 103.899 79.5639 103.439 80.8039C103.293 81.0345 103.102 81.2339 102.878 81.3905C102.655 81.5471 102.402 81.6579 102.135 81.7165C101.868 81.775 101.593 81.7802 101.324 81.7317C101.055 81.6832 100.799 81.582 100.569 81.4339C99.279 80.8139 98.419 77.3839 102.259 77.9239H102.279ZM104.279 78.9239L104.529 78.7839C105.099 79.2139 105.199 79.9439 104.229 80.7839C104.394 80.2075 104.411 79.5988 104.279 79.0139V78.9239ZM92.449 78.4439C92.5293 78.3657 92.6369 78.322 92.749 78.322C92.8611 78.322 92.9687 78.3657 93.049 78.4439C93.0967 78.4865 93.1558 78.5143 93.219 78.5239C93.0487 79.0707 93.0144 79.6508 93.119 80.2139C92.409 79.7839 91.839 79.0939 92.449 78.4839V78.4439ZM99.949 91.4439C99.471 91.1191 99.0135 90.7651 98.579 90.3839L101.499 88.0139C101.729 88.1839 102.359 88.6539 102.699 88.9439C101.039 90.4339 100.339 91.1439 99.949 91.4739V91.4439ZM97.229 90.3039C96.7085 90.6441 96.1711 90.9578 95.619 91.2439C95.339 90.9539 92.969 88.3439 92.969 88.3439C93.359 88.0839 94.099 87.6639 94.359 87.5239L97.229 90.3039ZM99.739 98.0139C99.7351 96.4126 99.537 94.8176 99.149 93.2639C99.809 91.9739 99.449 92.2639 99.829 92.3539C99.8793 92.3766 99.9339 92.3883 99.989 92.3883C100.044 92.3883 100.099 92.3766 100.149 92.3539C101.143 91.5117 102.073 90.5958 102.929 89.6139C106.339 91.1239 109.029 93.6139 109.929 97.2939C109.659 98.0139 100.629 98.0139 99.739 98.0139ZM89.519 65.4239C92.029 65.3539 110.429 64.8739 112.769 65.8139C112.999 67.8139 111.229 92.5639 110.139 96.6039C109.209 93.1039 106.649 90.6039 103.349 89.0539C103.499 88.7239 103.139 88.5239 101.579 87.6639C101.555 87.6488 101.527 87.6408 101.499 87.6408C101.471 87.6408 101.443 87.6488 101.419 87.6639L101.029 87.9039C100.879 86.9039 100.729 86.6139 100.599 85.9039C101.204 85.7539 101.772 85.4801 102.266 85.0997C102.76 84.7193 103.169 84.2407 103.469 83.6939C103.837 83.044 104.116 82.3478 104.299 81.6239C105.549 80.7639 106.239 79.5639 105.299 78.4039C105.569 77.9839 105.759 77.6439 105.559 77.1939C105.644 77.0656 105.698 76.9194 105.717 76.7668C105.736 76.6142 105.72 76.4592 105.669 76.3139C105.621 76.1151 105.547 75.9234 105.449 75.7439C105.551 75.5782 105.617 75.3933 105.645 75.2008C105.672 75.0082 105.66 74.8121 105.608 74.6246C105.556 74.4371 105.467 74.2621 105.345 74.1107C105.223 73.9592 105.071 73.8343 104.899 73.7439C104.94 73.5002 104.919 73.2502 104.839 73.0165C104.759 72.7828 104.622 72.5727 104.44 72.4051C104.259 72.2375 104.038 72.1176 103.799 72.0563C103.56 71.995 103.309 71.9942 103.069 72.0539C102.983 71.8267 102.834 71.6289 102.639 71.4839C102.478 71.3483 102.292 71.2458 102.091 71.1823C101.89 71.1188 101.679 71.0956 101.469 71.1139C100.709 71.1739 101.029 71.4139 100.869 71.0239C100.786 70.8363 100.642 70.6825 100.46 70.588C100.279 70.4934 100.07 70.4638 99.869 70.5039C99.5483 70.5268 99.2418 70.6453 98.989 70.8439C98.6895 70.5959 98.3129 70.4603 97.924 70.4603C97.5352 70.4603 97.1585 70.5959 96.859 70.8439C96.709 71.0039 96.789 70.9639 96.659 70.9139C96.3311 70.8292 95.987 70.8292 95.659 70.9139C95.4625 70.957 95.2787 71.0454 95.1224 71.1722C94.9662 71.2989 94.8417 71.4605 94.759 71.6439C94.597 71.6143 94.431 71.6143 94.269 71.6439C93.9435 71.7613 93.651 71.9553 93.416 72.2093C93.1811 72.4634 93.0106 72.7702 92.919 73.1039C92.9139 73.1805 92.9139 73.2573 92.919 73.3339C92.7315 73.4423 92.5511 73.5625 92.379 73.6939C92.1909 73.9199 92.0674 74.1926 92.0216 74.4831C91.9758 74.7736 92.0095 75.071 92.119 75.3439C91.8874 75.5082 91.7154 75.7434 91.629 76.0139C91.5769 76.3558 91.6328 76.7054 91.789 77.0139C91.8479 77.0973 91.9113 77.1775 91.979 77.2539L91.879 77.3739C91.8138 77.548 91.8138 77.7398 91.879 77.9139C91.7118 78.1094 91.5952 78.3429 91.5394 78.594C91.4836 78.8451 91.4903 79.106 91.559 79.3539C91.7865 79.97 92.1986 80.5008 92.739 80.8739C92.739 81.1039 92.739 81.4939 92.829 81.8739C92.9251 82.6624 93.222 83.4129 93.6913 84.0538C94.1605 84.6946 94.7864 85.2042 95.509 85.5339C95.2761 86.1885 95.0824 86.8563 94.929 87.5339C94.499 87.2139 94.439 87.1339 94.329 87.1939C92.739 87.8239 92.329 88.0139 92.329 88.1939C88.199 89.5239 85.329 93.2839 84.769 96.1939C84.799 91.7839 89.059 66.9339 89.519 65.4239ZM171.999 82.1539C171.859 82.0039 122.199 81.6939 122.099 81.7039C122.057 81.7039 122.016 81.7208 121.986 81.7508C121.956 81.7808 121.939 81.8215 121.939 81.8639C121.939 81.7639 121.559 86.3739 122.069 86.6739C123.419 87.4339 167.359 88.1639 171.349 87.7739C171.522 87.7762 171.692 87.7198 171.829 87.6139C172.559 86.8639 172.539 82.6139 171.999 82.1539ZM122.129 82.0139H122.189C122.189 82.0139 122.139 82.0639 122.129 82.0139ZM171.329 87.0139C169.049 87.3039 124.699 86.9139 122.329 86.3639C122.189 84.9173 122.189 83.4605 122.329 82.0139L171.579 82.8439C171.767 84.237 171.682 85.6532 171.329 87.0139ZM172.119 73.7639C171.979 73.6139 122.319 73.3039 122.219 73.3139C122.177 73.3163 122.138 73.3339 122.109 73.3634C122.079 73.3929 122.061 73.4323 122.059 73.4739C122.059 73.3739 121.669 77.9839 122.189 78.2839C123.619 79.1039 167.689 79.7539 171.469 79.3839C171.642 79.3862 171.812 79.3298 171.949 79.2239C172.679 78.4739 172.649 74.2239 172.119 73.7639ZM122.249 73.6239H122.309C122.369 73.6239 122.259 73.6839 122.249 73.6239ZM171.449 78.6239C169.299 78.9139 124.839 78.5239 122.449 77.9639C122.314 76.5204 122.314 75.0674 122.449 73.6239L171.699 74.4539C171.882 75.8439 171.797 77.2559 171.449 78.6139V78.6239ZM172.229 65.7039C172.15 65.6403 172.05 65.6083 171.949 65.6139C171.949 65.6139 122.809 65.2339 122.509 65.2439C122.359 65.2439 122.149 65.2439 122.159 65.4139C122.159 65.3139 121.779 69.9239 122.289 70.2239C123.529 70.9239 171.289 71.9339 172.049 71.1639C172.809 70.3939 172.739 66.1639 172.229 65.7039ZM122.349 65.5639H122.409C122.469 65.5639 122.359 65.6139 122.349 65.5639ZM171.549 70.5639C169.259 70.8539 124.699 70.4439 122.549 69.9039C122.394 68.4623 122.374 67.0093 122.489 65.5639L171.739 66.3939C171.945 67.7799 171.88 69.1925 171.549 70.5539V70.5639ZM130.669 96.3239C131.259 95.9939 131.319 95.4739 131.039 95.1439C130.247 94.6355 129.358 94.2952 128.429 94.1439C128.341 93.2519 128.024 92.3977 127.509 91.6639C126.509 90.7639 125.859 92.8239 125.509 94.1139C124.669 94.1839 122.819 94.4239 122.679 95.2539C122.679 95.5439 122.879 95.7239 123.139 95.8539C123.729 96.0906 124.333 96.2877 124.949 96.4439C124.149 97.2839 122.349 99.2339 123.469 99.4439C124.109 99.5839 125.809 98.5639 126.619 98.3839C127.369 98.8039 128.989 100.114 129.619 99.6739C130.249 99.2339 129.349 97.8139 128.839 96.8439C129.462 96.7217 130.075 96.5478 130.669 96.3239ZM140.219 96.7739C140.819 96.4539 140.879 95.9339 140.589 95.6039C139.804 95.0875 138.918 94.7464 137.989 94.6039C137.901 93.7088 137.584 92.8514 137.069 92.1139C136.069 91.2239 135.419 93.2839 135.069 94.5739C134.229 94.6439 132.379 94.8739 132.239 95.7139C132.189 95.9939 132.439 96.1839 132.699 96.3139C133.287 96.545 133.888 96.742 134.499 96.9039C133.709 97.7339 131.899 99.6939 133.019 99.9039C133.659 100.044 135.409 99.0139 136.169 98.9039C136.959 99.3439 138.549 100.624 139.169 100.184C139.789 99.7439 138.899 98.3239 138.399 97.3539C139.023 97.2215 139.633 97.0272 140.219 96.7739ZM150.169 97.1439C150.759 96.8139 150.819 96.2939 150.539 95.9739C149.749 95.46 148.86 95.1192 147.929 94.9739C147.845 94.0808 147.528 93.2255 147.009 92.4939C146.009 91.5939 145.359 93.6539 145.009 94.9439C144.169 95.0239 142.319 95.2539 142.189 96.0839C142.189 96.3739 142.389 96.5639 142.649 96.6839C143.235 96.9244 143.836 97.1249 144.449 97.2839C143.659 98.1139 141.849 100.074 142.969 100.284C143.609 100.424 145.309 99.4039 146.119 99.2239C146.869 99.6539 148.489 100.954 149.119 100.514C149.749 100.074 148.839 98.6539 148.339 97.6839C148.964 97.5579 149.576 97.3772 150.169 97.1439ZM160.549 97.5339C161.149 97.2139 161.199 96.6839 160.919 96.3639C160.129 95.85 159.24 95.5092 158.309 95.3639C158.222 94.4731 157.909 93.6193 157.399 92.8839C156.399 91.9839 155.739 94.0539 155.399 95.3339C154.559 95.4139 152.709 95.6439 152.579 96.4839C152.529 96.7639 152.779 96.9539 153.039 97.0839C153.627 97.315 154.228 97.512 154.839 97.6739C154.049 98.5039 152.239 100.464 153.359 100.674C153.989 100.814 155.739 99.7839 156.509 99.6139C157.269 100.044 158.869 101.344 159.509 100.904C160.149 100.464 159.239 99.0439 158.739 98.0739C159.358 97.9505 159.964 97.7697 160.549 97.5339ZM157.829 97.8839C157.829 98.2539 158.729 99.4739 158.949 100.264C158.769 100.184 158.519 100.024 158.319 99.9139C156.719 99.0639 156.779 98.7839 156.119 99.0139C155.609 99.1939 153.919 100.104 153.469 100.184C153.569 99.8566 153.725 99.5488 153.929 99.2739C155.029 97.6439 155.569 97.6239 154.879 97.2739C154.221 97.0801 153.589 96.8046 152.999 96.4539C153.179 95.9939 154.999 95.8639 155.619 95.8539C155.969 95.8539 155.849 95.5839 156.409 94.2639C156.535 93.9367 156.703 93.6274 156.909 93.3439C157.098 93.6194 157.234 93.9281 157.309 94.2539C157.679 95.5239 157.479 95.8739 157.899 95.9639C158.717 96.126 159.511 96.395 160.259 96.7639C160.102 96.8781 159.926 96.9628 159.739 97.0139C158.499 97.3839 157.799 97.3439 157.829 97.8839ZM170.819 96.2339C170.126 95.93 169.406 95.6923 168.669 95.5239C168.57 94.8941 168.403 94.2771 168.169 93.6839C167.749 92.6839 167.069 92.4939 166.529 93.3939C166.186 94.0633 165.914 94.7673 165.719 95.4939C165.039 95.5416 164.367 95.6726 163.719 95.8839C163.149 96.1039 162.659 96.5639 162.969 96.9639C163.624 97.3988 164.364 97.6917 165.139 97.8239C164.543 98.4404 164.004 99.1098 163.529 99.8239C163.069 100.624 163.349 101.114 164.359 100.824C165.129 100.584 166.229 99.9939 166.809 99.8239C167.309 100.104 168.809 101.234 169.519 101.204C169.591 101.207 169.663 101.195 169.73 101.169C169.798 101.143 169.859 101.103 169.91 101.052C169.962 101.002 170.003 100.941 170.03 100.875C170.057 100.808 170.07 100.736 170.069 100.664C169.882 99.8167 169.543 99.0103 169.069 98.2839C169.693 98.1617 170.306 97.9843 170.899 97.7539C171.539 97.3939 171.739 96.7039 170.819 96.2339ZM168.419 97.6939C167.679 98.0439 168.949 99.2039 169.299 100.474C168.839 100.264 167.179 99.2339 167.059 99.1839C166.519 98.9539 165.259 99.8939 164.129 100.284L163.829 100.394C164.239 99.4774 164.804 98.6384 165.499 97.9139C165.889 97.4839 163.759 97.1739 163.349 96.7039C163.429 96.4939 163.969 96.3439 164.179 96.2939C165.639 95.9539 166.129 96.2939 166.259 95.8739C166.494 95.0745 166.83 94.3083 167.259 93.5939C167.645 94.305 167.88 95.088 167.949 95.8939C168.009 96.3139 168.359 96.1439 169.779 96.6439C170.073 96.7323 170.355 96.8566 170.619 97.0139C170.269 97.2739 168.919 97.4539 168.419 97.6939ZM126.789 44.5339C127.87 44.6212 128.943 44.292 129.789 43.6139C132.299 41.3739 128.789 37.1139 125.309 39.4039C122.589 41.1939 124.249 44.4339 126.789 44.5339ZM125.679 40.0139C126.359 39.5166 127.204 39.3016 128.039 39.4139C128.456 39.4746 128.853 39.6307 129.2 39.8701C129.547 40.1094 129.834 40.4256 130.039 40.7939C130.719 42.7439 128.909 43.9139 126.809 43.7939C124.979 43.6939 123.679 41.3839 125.679 40.0139ZM40.879 88.5439C40.679 88.4639 40.879 88.5439 39.439 90.0039C37.999 91.4639 36.659 92.2639 36.789 92.5039C36.919 92.7439 38.129 92.1439 38.329 92.0339C38.9716 91.6313 39.5512 91.1359 40.049 90.5639C40.399 90.1539 41.249 88.7039 40.879 88.5439ZM56.319 24.3039C56.369 24.0639 55.699 23.8539 55.209 23.9139C54.129 24.0539 53.679 24.9139 53.909 25.0639C54.7516 24.9578 55.568 24.7003 56.319 24.3039ZM58.739 28.0139C59.0226 28.1219 59.3296 28.1529 59.629 28.1039C59.7625 28.0784 59.8909 28.0311 60.009 27.9639C60.1293 27.9086 60.2295 27.8174 60.2958 27.7027C60.362 27.5881 60.3911 27.4558 60.379 27.3239C60.379 26.4039 59.099 24.3739 58.759 24.5939C58.639 24.6639 58.669 24.7139 58.859 25.3439C58.9808 25.7748 59.1346 26.1959 59.319 26.6039C59.4248 26.8424 59.5085 27.0901 59.569 27.3439C59.3615 27.5357 59.0993 27.658 58.819 27.6939C58.798 27.6887 58.7762 27.6876 58.7547 27.6908C58.7333 27.694 58.7127 27.7014 58.6942 27.7125C58.6756 27.7236 58.6594 27.7383 58.6465 27.7557C58.6336 27.7731 58.6243 27.7929 58.619 27.8139C58.6138 27.8349 58.6127 27.8568 58.6159 27.8782C58.6191 27.8996 58.6265 27.9202 58.6376 27.9388C58.6487 27.9573 58.6634 27.9735 58.6808 27.9864C58.6982 27.9993 58.718 28.0087 58.739 28.0139ZM58.399 31.8739C58.4659 32.0269 58.5655 32.1633 58.6908 32.2735C58.8162 32.3837 58.9642 32.4651 59.1244 32.5118C59.2847 32.5586 59.4532 32.5695 59.6182 32.544C59.7831 32.5184 59.9404 32.457 60.079 32.3639C60.1171 32.3483 60.1481 32.3195 60.1665 32.2827C60.1849 32.2459 60.1894 32.2037 60.179 32.1639C60.099 31.9339 59.899 32.2239 59.389 31.9339C59.2834 31.8698 59.1953 31.7805 59.1325 31.6741C59.0697 31.5677 59.0341 31.4474 59.029 31.3239C59.0347 31.1945 59.068 31.0677 59.1266 30.9522C59.1853 30.8366 59.2679 30.735 59.369 30.6539C59.4599 30.6058 59.5612 30.5806 59.664 30.5806C59.7669 30.5806 59.8681 30.6058 59.959 30.6539C60.119 30.7839 60.299 30.5339 60.139 30.4139C59.179 29.3039 57.829 30.7139 58.399 31.8739ZM60.739 74.6739C60.5043 74.6782 60.2744 74.7406 60.0698 74.8556C59.8651 74.9705 59.6921 75.1343 59.5663 75.3325C59.4405 75.5306 59.3658 75.7569 59.3488 75.9909C59.3318 76.225 59.3731 76.4597 59.469 76.6739C60.129 78.0039 62.399 77.5139 62.359 76.0739C62.3505 75.8735 62.3011 75.677 62.2139 75.4964C62.1266 75.3158 62.0033 75.155 61.8515 75.0239C61.6998 74.8927 61.5228 74.794 61.3315 74.7339C61.1401 74.6737 60.9385 74.6533 60.739 74.6739ZM61.609 76.3839C61.5972 76.4818 61.5662 76.5763 61.5179 76.6622C61.4695 76.748 61.4047 76.8235 61.3272 76.8844C61.2496 76.9452 61.1609 76.9901 61.066 77.0167C60.9711 77.0432 60.8719 77.0507 60.774 77.0389C60.6762 77.0271 60.5816 76.9961 60.4958 76.9478C60.4099 76.8994 60.3344 76.8346 60.2736 76.7571C60.2128 76.6795 60.1678 76.5908 60.1413 76.4959C60.1148 76.401 60.1072 76.3018 60.119 76.2039C60.119 76.1125 60.1372 76.0219 60.1725 75.9375C60.2078 75.8532 60.2595 75.7766 60.3246 75.7124C60.3898 75.6482 60.467 75.5976 60.5519 75.5635C60.6368 75.5295 60.7276 75.5126 60.819 75.5139C60.9342 75.5015 61.0506 75.5159 61.1592 75.5561C61.2679 75.5962 61.3657 75.6609 61.4452 75.7452C61.5246 75.8295 61.5834 75.931 61.6171 76.0418C61.6507 76.1526 61.6582 76.2697 61.639 76.3839H61.609ZM60.469 81.4539C60.2334 81.4557 60.002 81.5165 59.7959 81.6308C59.5898 81.745 59.4156 81.9091 59.2893 82.108C59.163 82.307 59.0886 82.5344 59.0728 82.7695C59.057 83.0046 59.1004 83.2399 59.199 83.4539C59.849 84.7639 62.129 84.3039 62.089 82.8539C62.0791 82.654 62.0288 82.4582 61.941 82.2783C61.8533 82.0984 61.73 81.9382 61.5785 81.8073C61.4271 81.6765 61.2507 81.5777 61.06 81.5169C60.8693 81.4562 60.6682 81.4347 60.469 81.4539ZM61.339 83.1639C61.3421 83.2719 61.3222 83.3793 61.2805 83.479C61.2388 83.5786 61.1764 83.6683 61.0973 83.7419C61.0183 83.8155 60.9245 83.8714 60.8221 83.906C60.7197 83.9405 60.6112 83.9528 60.5037 83.942C60.3962 83.9313 60.2923 83.8977 60.1988 83.8436C60.1053 83.7895 60.0244 83.7161 59.9615 83.6283C59.8986 83.5405 59.8551 83.4402 59.834 83.3343C59.8129 83.2284 59.8146 83.1191 59.839 83.0139C59.8416 82.83 59.9166 82.6545 60.0475 82.5254C60.1785 82.3963 60.3551 82.3239 60.539 82.3239C60.6492 82.3175 60.7595 82.3351 60.8622 82.3756C60.9649 82.4161 61.0576 82.4785 61.1337 82.5585C61.2099 82.6384 61.2677 82.734 61.3031 82.8386C61.3386 82.9431 61.3508 83.0542 61.339 83.1639ZM56.269 25.6539C56.269 25.8139 56.329 25.9739 56.389 26.3139C56.3999 26.3791 56.4236 26.4414 56.4587 26.4973C56.4938 26.5533 56.5396 26.6017 56.5936 26.6398C56.6475 26.6779 56.7084 26.705 56.7729 26.7194C56.8373 26.7339 56.904 26.7354 56.969 26.7239C57.0985 26.7018 57.2142 26.6297 57.2909 26.523C57.3676 26.4163 57.3993 26.2837 57.379 26.1539C57.379 25.9739 57.289 25.7239 57.269 25.5439C57.2544 25.4113 57.1878 25.2899 57.0837 25.2065C56.9796 25.123 56.8466 25.0843 56.714 25.0989C56.5814 25.1135 56.46 25.1802 56.3766 25.2843C56.2931 25.3883 56.2544 25.5213 56.269 25.6539ZM60.589 25.5239C60.606 25.6414 60.665 25.7487 60.7551 25.826C60.8452 25.9032 60.9603 25.9451 61.079 25.9439C61.1515 25.9432 61.2229 25.927 61.2886 25.8965C61.3544 25.866 61.4128 25.8218 61.4601 25.7669C61.5074 25.7121 61.5425 25.6477 61.563 25.5782C61.5835 25.5088 61.589 25.4357 61.579 25.3639C61.499 24.9239 61.479 24.8739 61.459 24.7539C61.4431 24.6213 61.3752 24.5005 61.2701 24.4179C61.1651 24.3354 61.0316 24.298 60.899 24.3139C60.7664 24.3298 60.6456 24.3978 60.563 24.5028C60.4805 24.6078 60.4431 24.7413 60.459 24.8739C60.489 25.0139 60.529 25.1739 60.589 25.5239ZM75.499 89.8339C75.619 89.9539 75.809 89.7739 75.689 89.6539C73.269 86.7439 72.689 83.8039 73.119 80.1239C73.1245 80.1046 73.1255 80.0842 73.1218 80.0644C73.1181 80.0446 73.1099 80.026 73.0978 80.0099C73.0857 79.9939 73.07 79.9808 73.052 79.9719C73.034 79.9629 73.0141 79.9582 72.994 79.9582C72.9739 79.9582 72.954 79.9629 72.936 79.9719C72.918 79.9808 72.9023 79.9939 72.8902 80.0099C72.8781 80.026 72.8699 80.0446 72.8662 80.0644C72.8625 80.0842 72.8635 80.1046 72.869 80.1239C71.849 83.8339 72.559 87.1739 75.499 89.8339Z" fill="white"/>
<path d="M95.9387 79.0138C95.8075 78.9998 95.6761 79.0381 95.573 79.1206C95.47 79.203 95.4038 79.3228 95.3887 79.4538V80.1138C95.3887 80.2464 95.4413 80.3736 95.5351 80.4674C95.6289 80.5612 95.7561 80.6138 95.8887 80.6138C96.0213 80.6138 96.1485 80.5612 96.2422 80.4674C96.336 80.3736 96.3887 80.2464 96.3887 80.1138V79.5838C96.3985 79.5166 96.3944 79.448 96.3768 79.3824C96.3592 79.3167 96.3284 79.2554 96.2863 79.202C96.2442 79.1487 96.1917 79.1045 96.1319 79.0721C96.0721 79.0397 96.0064 79.0199 95.9387 79.0138ZM101.409 80.6838C101.473 80.6922 101.539 80.6877 101.601 80.6706C101.664 80.6534 101.722 80.624 101.774 80.584C101.825 80.5439 101.868 80.4941 101.899 80.4375C101.931 80.3808 101.951 80.3184 101.959 80.2538V79.6038C101.959 79.4712 101.906 79.3441 101.812 79.2503C101.718 79.1565 101.591 79.1038 101.459 79.1038C101.327 79.1064 101.201 79.1599 101.108 79.2531C101.015 79.3463 100.961 79.472 100.959 79.6038V80.1338C100.952 80.1996 100.958 80.266 100.977 80.3293C100.996 80.3926 101.027 80.4516 101.069 80.5027C101.111 80.5538 101.162 80.5962 101.221 80.6273C101.279 80.6584 101.343 80.6776 101.409 80.6838ZM97.2487 84.1038C98.0664 84.3634 98.936 84.4149 99.7787 84.2538C99.8787 84.2538 99.8687 84.0938 99.7787 84.1038L99.1487 84.0138C98.5264 83.9622 97.9009 83.9622 97.2787 84.0138C97.1787 83.9338 97.1487 84.0938 97.2487 84.1038Z" fill="white"/>
</svg>
