<svg width="154" height="154" viewBox="0 0 154 154" fill="none" xmlns="http://www.w3.org/2000/svg">
<path d="M114.607 92.1447C115.688 91.1865 116.776 90.1747 116.554 88.772C116.44 88.0227 116.036 87.3481 115.43 86.8935C114.823 86.439 114.062 86.241 113.311 86.3421L109.08 67.3551C109.394 67.7384 109.433 67.8763 109.64 67.8763C109.691 67.8764 109.742 67.8639 109.787 67.8398C109.832 67.8158 109.871 67.7809 109.9 67.7384C111.112 66.0467 112.198 64.2687 113.15 62.4186C114.883 59.6591 111.962 58.1414 110.352 60.8856C110.223 60.423 109.998 59.9928 109.692 59.623C109.385 59.2532 109.005 58.9521 108.574 58.7393C108.118 58.578 107.62 58.578 107.164 58.7393L96.3016 10.0416C95.8273 7.95144 94.5456 6.13367 92.7362 4.98486C90.9268 3.83604 88.7364 3.44942 86.643 3.90935C57.3991 10.3942 38.68 14.3725 36.7943 14.8094C32.3406 15.8519 29.1288 24.7743 30.1253 29.0899L39.3009 70.1069C39.2459 70.0614 39.1768 70.0366 39.1054 70.0366C39.0341 70.0366 38.9649 70.0614 38.91 70.1069C31.6277 75.4267 26.5915 83.9045 24.1999 92.413C20.5358 105.314 23.234 120.008 27.9176 132.518C28.8955 135.309 30.3108 137.928 32.1107 140.275C32.2946 140.513 32.6779 140.221 32.5169 139.976C29.3894 135.224 27.979 131.153 26.3079 125.297C23.3183 115.194 22.0919 104.417 24.5218 94.13C28.6229 77.4733 39.0096 71.1801 39.4082 70.5975L42.735 85.5372C39.6916 88.8821 37.2184 92.7043 35.4145 96.8512C35.2688 97.1808 35.5678 97.3264 35.7441 96.9662C38.6049 91.0553 42.7011 85.8274 47.7559 81.6356C50.4772 79.4203 53.4131 77.1973 56.7706 76.5918C58.1522 76.3324 59.5789 76.4679 60.8869 76.9827C66.1148 79.1137 64.4131 84.7783 61.5615 89.6611C54.8465 101.159 54.1873 102.355 53.2521 104.938C51.3587 110.702 53.2521 115.67 54.172 121.434C56.326 134.557 51.2667 138.949 50.2242 140.444C49.8103 141.049 50.2932 141.164 50.4849 141.003C52.037 139.673 53.2442 137.988 54.0033 136.09L55.5901 143.226C55.8222 144.274 56.2587 145.266 56.8748 146.144C57.4908 147.023 58.2741 147.771 59.1799 148.347C60.0857 148.922 61.0961 149.313 62.1533 149.497C63.2105 149.681 64.2936 149.655 65.3406 149.42L114.055 138.566C118.11 137.631 122.947 130.778 121.912 125.573C121.881 124.454 122.418 127.167 114.607 92.1447ZM45.5559 82.655L32.5246 24.2607C32.1236 22.4775 32.4079 20.6087 33.321 19.0254C34.2341 17.4421 35.7092 16.26 37.4535 15.7139C37.7448 15.6143 86.2751 4.68355 86.7887 4.56857C87.7366 4.3575 88.7168 4.33572 89.6731 4.50449C90.6294 4.67326 91.543 5.02925 92.3614 5.55203C93.1797 6.0748 93.8868 6.75406 94.4419 7.55082C94.9971 8.34757 95.3894 9.24613 95.5963 10.1949L106.504 59.1226C106.203 59.3663 105.973 59.6867 105.837 60.0501C104.933 62.0967 106.696 64.289 108.06 66.0827L112.606 86.48C112.11 86.6379 111.653 86.8992 111.265 87.2466C111.211 85.4146 110.46 83.7588 108.743 83.6515L107.363 77.4426C108.275 75.2963 108.651 74.6141 108.95 72.9201C109.037 72.4543 109.01 71.9744 108.873 71.5208C108.736 71.0672 108.492 70.6533 108.161 70.3137C107.831 69.9742 107.423 69.719 106.974 69.5696C106.524 69.4202 106.045 69.3811 105.577 69.4554L93.312 14.2652C92.8895 12.4302 91.759 10.8366 90.1666 9.83153C88.5743 8.82647 86.6492 8.49145 84.811 8.89946L42.1601 18.3508C40.3262 18.7751 38.7338 19.906 37.729 21.4978C36.7243 23.0896 36.3883 25.0135 36.7943 26.8516L48.6681 80.1255C47.526 80.9227 46.5295 81.7582 45.5559 82.655ZM59.0242 75.8253C55.3601 75.4343 52.1253 77.5576 49.1971 79.6579L37.3845 26.706C37.0189 25.0423 37.3275 23.3015 38.2427 21.8648C39.1579 20.4281 40.6051 19.4126 42.2674 19.0407C88.4521 8.7155 85.3016 9.37471 86.3364 9.36705C87.8035 9.3647 89.2271 9.86459 90.3707 10.7836C91.5142 11.7026 92.3087 12.9853 92.6221 14.4185L104.887 69.6087C102.848 70.1529 101.683 72.3835 101.414 74.2079C100.058 72.3299 97.5357 71.525 96.0486 73.3494C95.7106 73.9249 95.5493 74.587 95.5848 75.2535C95.6202 75.9199 95.8508 76.5613 96.2479 77.0977C96.8223 77.9114 97.4578 78.6801 98.1489 79.3973L94.1092 80.5624C93.8256 76.5611 91.6946 69.3711 87.4709 63.5224C86.7386 62.395 85.7775 61.4339 84.65 60.7016C86.0252 59.4332 87.1782 57.9434 88.0611 56.2941C88.0968 56.2323 88.1109 56.1604 88.1013 56.0897C88.0917 56.019 88.0588 55.9535 88.008 55.9035C87.9571 55.8535 87.891 55.8218 87.8202 55.8134C87.7493 55.805 87.6777 55.8204 87.6165 55.8571C87.4479 55.9644 87.2639 56.0641 87.0876 56.1561C87.3214 55.8009 87.5021 55.4136 87.6242 55.0063C87.636 54.9527 87.6335 54.897 87.617 54.8447C87.6006 54.7924 87.5707 54.7452 87.5304 54.708C87.4901 54.6708 87.4407 54.6448 87.3873 54.6326C87.3338 54.6204 87.2781 54.6224 87.2256 54.6383C86.4591 54.9526 85.8228 54.1401 85.6235 53.3276C85.0486 50.936 85.6235 49.9242 84.2361 47.0114C85.4236 45.0384 86.1568 42.8258 86.3824 40.5342C86.5203 40.0285 86.4961 39.4924 86.3134 39.0011C86.185 38.7832 85.9891 38.613 85.7554 38.5162C85.5217 38.4194 85.2629 38.4012 85.0179 38.4645C83.1769 38.7894 81.3943 39.3862 79.7287 40.2352C79.974 38.2959 80.273 36.4639 80.3343 34.6242C81.6375 34.0493 85.2632 32.4013 84.5043 29.3122C84.1134 27.6948 81.9057 25.6635 80.158 26.1771C80.2523 25.1561 79.9921 24.1338 79.4211 23.2822C78.8501 22.4306 78.0032 21.8017 77.0228 21.5012C75.9185 21.2563 74.7641 21.3846 73.7404 21.8659C72.7167 22.3472 71.8816 23.1544 71.3657 24.1611C70.5858 23.2643 69.6412 22.5253 68.5831 21.9841C67.7849 21.6453 66.9128 21.5181 66.051 21.6146C65.1892 21.7111 64.3669 22.0282 63.6634 22.5352C62.9599 23.0422 62.399 23.722 62.0348 24.509C61.6707 25.2959 61.5156 26.1635 61.5845 27.0279C59.0779 26.4607 56.2723 28.147 56.4103 30.8606C56.4302 31.4797 56.6039 32.0841 56.9157 32.6194C57.2275 33.1547 57.6676 33.6039 58.1964 33.9267C58.9106 34.2244 59.6527 34.4503 60.4117 34.6012C60.8328 34.7456 61.2133 34.9886 61.5213 35.3099C61.8294 35.6313 62.056 36.0217 62.1824 36.4486C62.9589 38.5788 63.5739 40.7645 64.0221 42.9871C64.0221 43.0637 64.1524 42.8338 63.4702 43.562C62.9336 43.043 62.3512 42.5735 61.7301 42.1592C61.0479 41.5997 60.427 41.1014 59.7908 40.6262C55.7051 37.4527 55.5594 43.7459 57.3531 47.7702C57.9288 49.1248 58.704 50.3857 59.6528 51.5109C59.6068 51.7332 59.5761 51.9632 59.5455 52.1854C59.2082 52.0705 58.7789 52.6837 58.6946 53.0286C58.68 53.0751 58.6766 53.1243 58.6848 53.1723C58.6931 53.2203 58.7126 53.2657 58.7418 53.3047C58.771 53.3436 58.8091 53.375 58.8529 53.3964C58.8966 53.4177 58.9449 53.4283 58.9936 53.4272H59.4228C59.3182 54.4995 59.2823 55.5774 59.3155 56.6543C59.3692 57.8501 59.3155 60.6633 58.1504 60.7629C58.0973 60.7614 58.045 60.7761 58.0005 60.8051C57.9561 60.8342 57.9215 60.8761 57.9015 60.9252C57.8815 60.9744 57.877 61.0285 57.8886 61.0804C57.9002 61.1322 57.9273 61.1792 57.9664 61.2152C58.2689 61.4731 58.6008 61.6943 58.9552 61.8744H58.25C58.2024 61.8733 58.1554 61.8857 58.1145 61.9101C58.0736 61.9345 58.0404 61.97 58.0188 62.0125C57.9972 62.0549 57.988 62.1026 57.9923 62.1501C57.9966 62.1975 58.0142 62.2428 58.043 62.2807C60.197 64.8639 63.4089 65.753 66.8277 66.1133C66.5517 67.4777 65.9462 69.647 64.9957 70.7815C64.6529 71.127 64.2503 71.4075 63.8075 71.6093C61.7455 72.1076 60.7413 74.6755 61.7838 76.7758C60.9423 76.2657 60.0013 75.9417 59.0242 75.8253ZM91.0584 91.4395C89.6632 93.8387 88.4981 94.2067 85.7922 94.5593L68.9281 96.9585C67.0577 97.2958 60.3427 98.2923 60.8716 96.4909C61.4082 95.1495 64.4437 91.4242 65.218 90.4737C64.7887 93.7391 66.0995 95.0728 69.25 94.5209C86.1141 91.4548 85.3476 91.9531 85.6772 91.3705C86.3057 91.4931 86.7733 90.8799 87.2103 90.3357C87.9411 89.2998 88.6067 88.2195 89.2033 87.1009C89.732 86.2296 90.086 85.2637 90.2458 84.2571C91.8367 83.9481 93.4659 83.8886 95.0751 84.0808C95.1372 84.1347 95.186 84.2021 95.2179 84.2778C95.2498 84.3536 95.2639 84.4357 95.259 84.5177C95.0981 84.924 95.604 83.6132 91.066 91.4395H91.0584ZM95.512 85.4529C95.7064 86.622 95.4308 87.8205 94.7455 88.7873L92.1469 93.1795C91.6003 94.3378 90.8904 95.4116 90.0388 96.3683C89.4791 96.8246 88.7897 97.0928 88.0688 97.1348C87.4402 97.2268 65.7392 99.9403 65.7392 99.9403C62.7957 100.454 61.4465 100.354 60.8486 97.5871C62.7803 98.7369 67.9085 97.5027 85.6925 95.1802C88.4138 94.8275 90.0235 94.5133 91.5259 91.8151L95.512 85.4529ZM71.5496 82.632C71.7141 82.7456 71.8658 82.8767 72.0019 83.023C71.5799 83.4035 71.2112 83.8393 70.9058 84.3184C70.9017 84.3385 70.9017 84.3593 70.9057 84.3794C70.9097 84.3996 70.9176 84.4187 70.929 84.4358C70.9404 84.4529 70.955 84.4676 70.9721 84.479C70.9891 84.4904 71.0083 84.4984 71.0284 84.5024C71.0485 84.5064 71.0693 84.5064 71.0894 84.5024C71.1095 84.4985 71.1287 84.4906 71.1458 84.4792C71.1629 84.4678 71.1775 84.4531 71.189 84.4361C71.2004 84.419 71.2083 84.3999 71.2124 84.3797C71.5289 84.0096 71.8777 83.6684 72.2549 83.3603C72.417 83.6259 72.5605 83.9025 72.6841 84.1881C72.6228 84.2724 72.5845 84.3031 72.5845 84.3567C72.5824 84.3819 72.5853 84.4073 72.593 84.4313C72.6008 84.4554 72.6132 84.4777 72.6296 84.4969C72.646 84.5161 72.666 84.5319 72.6885 84.5434C72.711 84.5549 72.7356 84.5618 72.7608 84.5637C72.9294 84.5637 73.1824 84.0041 74.2939 83.0306C74.3706 83.1303 74.4166 83.2223 74.5469 83.2223C74.575 83.2234 74.6031 83.2186 74.6293 83.2082C74.6554 83.1977 74.679 83.1818 74.6986 83.1615C74.7182 83.1412 74.7332 83.117 74.7427 83.0905C74.7522 83.064 74.756 83.0357 74.7538 83.0076C74.7395 82.9086 74.7084 82.8127 74.6618 82.724C74.9155 82.5029 75.1963 82.3148 75.4974 82.1645C75.6625 82.3663 75.8064 82.5846 75.9267 82.816C75.4534 83.2927 75.0177 83.8052 74.6235 84.3491C74.6001 84.3778 74.5879 84.414 74.5891 84.451C74.5904 84.488 74.6049 84.5233 74.6302 84.5504C74.6554 84.5775 74.6896 84.5945 74.7264 84.5984C74.7632 84.6022 74.8002 84.5927 74.8305 84.5714C74.9378 84.5714 75.0451 84.2571 76.149 83.2299C76.19 83.3796 76.2756 83.5132 76.3943 83.6132C75.4974 84.5714 74.7385 85.5295 75.1064 86.871C75.165 87.0984 75.2684 87.3118 75.4105 87.4987C75.5527 87.6857 75.7308 87.8423 75.9343 87.9594C75.9997 88.3033 76.1962 88.6082 76.4823 88.8099C76.7684 89.0115 77.1216 89.0941 77.4674 89.0402C77.9265 88.9787 78.3662 88.8164 78.7552 88.565C79.7057 89.1936 80.5796 88.2584 81.1622 87.6912C81.9206 86.9326 82.6083 86.1064 83.2165 85.2229C83.5998 84.671 83.4695 84.809 83.5538 84.832C83.7685 84.8933 83.8375 84.5177 84.6193 83.6592C84.7158 83.8529 84.8369 84.0332 84.9796 84.1958C85.005 84.2374 85.046 84.2673 85.0934 84.2788C85.1408 84.2903 85.1909 84.2825 85.2326 84.2571C85.2743 84.2317 85.3041 84.1908 85.3156 84.1433C85.3271 84.0959 85.3193 84.0458 85.2939 84.0041C85.1934 83.7712 85.0674 83.5501 84.9183 83.3449C85.1674 83.0618 85.4448 82.805 85.7462 82.5784C85.8966 82.8004 86.0298 83.0336 86.1448 83.2759C85.6313 83.7969 85.1834 84.3787 84.811 85.0083C84.7343 85.2459 85.1099 85.2996 85.1099 85.0926C85.473 84.5753 85.8864 84.0951 86.3441 83.6592C86.505 83.9735 86.62 84.2878 86.8347 84.1958C86.8862 84.1672 86.9269 84.1224 86.9505 84.0684C86.974 84.0143 86.9791 83.954 86.965 83.8968C86.9166 83.6826 86.8446 83.4743 86.7503 83.2759C87.2885 82.8247 87.8599 82.4147 88.4597 82.0495C86.6112 84.2447 85.5032 86.9676 85.2939 89.8298C85.3095 90.1652 85.2941 90.5013 85.2479 90.8339V90.8952C85.0563 91.3322 84.3357 91.3398 84.2361 91.3552C83.9218 91.3552 85.1023 91.2019 69.6716 93.8617C67.9162 94.1607 66.2528 94.2067 65.9385 92.482C65.4632 89.1552 67.3336 84.7707 71.5496 82.632ZM72.0249 82.4251C72.459 82.2025 72.9202 82.0375 73.397 81.9345C71.9253 82.7854 72.6228 82.908 72.0556 82.4251H72.0249ZM73.7573 82.3024C74.2096 82.8543 74.0716 82.3024 72.9908 83.7358C72.9044 83.4876 72.7746 83.2566 72.6075 83.0536C72.9587 82.7573 73.3449 82.5051 73.7573 82.3024ZM74.1866 82.0801C74.491 81.9745 74.7818 81.8329 75.0528 81.6586C75.2138 81.8272 75.2214 81.6586 74.5085 82.2181C74.3016 82.3714 74.4549 82.3638 74.1866 82.0801ZM77.2528 82.2564C77.3218 82.4021 77.2528 82.3714 77.3601 82.4864C77.2298 82.655 76.8542 83.1226 76.7085 83.2529C76.6642 83.1117 76.6051 82.9755 76.5322 82.8467C76.6549 82.7854 76.7622 82.6704 77.2834 82.2564H77.2528ZM76.2869 82.4481C76.2321 82.3405 76.168 82.2379 76.0953 82.1415C76.0329 82.0638 75.9664 81.9896 75.896 81.9192C76.1601 81.7799 76.4313 81.6545 76.7085 81.5436C76.8132 81.6355 76.9106 81.7355 76.9998 81.8425C76.7625 82.0329 76.5348 82.235 76.3176 82.4481H76.2869ZM84.627 82.9463C84.833 82.5831 85.0148 82.2067 85.1712 81.8195L85.4625 82.2335C85.1497 82.4432 84.8727 82.702 84.6423 83L84.627 82.9463ZM86.1064 82.3024C86.4437 82.0878 86.5127 82.0572 86.7503 81.8885C87.0876 81.8885 87.4326 81.8885 87.7775 81.9422C86.0834 82.954 86.8883 83.2836 86.1371 82.3024H86.1064ZM88.9427 84.9776C88.8974 84.9114 88.8285 84.865 88.7502 84.8478C88.6718 84.8307 88.5898 84.8443 88.5211 84.8856C88.3831 84.993 88.3831 85.0236 87.9845 85.5755C87.9002 85.4835 87.8158 85.4069 87.7392 85.3149C87.7086 85.2747 87.6639 85.2475 87.6141 85.239C87.5643 85.2304 87.5131 85.2411 87.4709 85.2689C87.2409 85.4222 87.5169 85.7595 87.6855 86.0354C87.5476 86.2501 87.4096 86.4724 87.2946 86.687C87.2687 86.722 87.2537 86.7639 87.2514 86.8074C87.2491 86.8509 87.2596 86.8941 87.2817 86.9316C87.3037 86.9692 87.3363 86.9994 87.3754 87.0186C87.4145 87.0378 87.4584 87.0451 87.5016 87.0396C87.5016 87.0396 87.6165 87.0396 87.6395 86.9859C88.2451 86.3727 87.8542 86.4034 88.4061 86.7866C88.4724 86.8278 88.5512 86.8441 88.6284 86.8326C88.2604 87.5072 86.5357 90.6193 85.8305 90.9259C85.8491 87.7025 87.046 84.5972 89.1956 82.1951C89.1968 82.2215 89.2043 82.2471 89.2177 82.2698C89.2311 82.2926 89.2498 82.3117 89.2723 82.3254C89.3489 82.4787 89.4256 82.632 89.4946 82.793C89.7595 84.0329 89.5255 85.3272 88.843 86.3957C88.843 86.2961 88.7894 86.2884 88.4138 86.0048C88.9197 85.4069 89.1343 85.2229 88.9733 84.9776H88.9427ZM89.3336 81.4056C89.2929 81.3779 89.2448 81.3631 89.1956 81.3631C89.1464 81.3631 89.0983 81.3779 89.0577 81.4056C87.8736 81.2246 86.674 81.1656 85.4779 81.2293C87.6447 76.4452 88.0651 71.0528 86.666 65.9907C86.6554 65.9504 86.6371 65.9126 86.6119 65.8795C86.5867 65.8463 86.5552 65.8184 86.5193 65.7974C86.4834 65.7764 86.4436 65.7627 86.4024 65.7571C86.3611 65.7514 86.3192 65.754 86.2789 65.7645C86.2386 65.7751 86.2009 65.7935 86.1677 65.8187C86.1345 65.8439 86.1067 65.8753 86.0857 65.9113C86.0647 65.9472 86.051 65.9869 86.0453 66.0282C86.0397 66.0694 86.0422 66.1114 86.0528 66.1516C86.8398 69.1992 86.9928 72.3758 86.5023 75.4849C86.0118 78.5939 84.8882 81.5692 83.2012 84.2264C82.5097 85.245 81.7598 86.2227 80.9552 87.1546C80.5413 87.6375 80.135 88.3197 79.1002 88.0591C79.0216 88.0162 78.9572 87.9512 78.915 87.8722C78.8728 87.7933 78.8546 87.7037 78.8625 87.6145C78.9315 86.894 79.2688 86.848 79.4068 85.9588C79.4068 85.908 79.3866 85.8592 79.3507 85.8233C79.3147 85.7873 79.266 85.7672 79.2152 85.7672C79.1643 85.7672 79.1156 85.7873 79.0796 85.8233C79.0437 85.8592 79.0235 85.908 79.0235 85.9588C78.8667 86.2876 78.6874 86.6052 78.4869 86.9093C78.3793 87.0955 78.3121 87.3024 78.2896 87.5163C78.2672 87.7303 78.29 87.9465 78.3566 88.1511L78.004 88.3274C77.1761 88.7183 76.6242 88.427 76.4709 87.9288C76.103 86.7407 77.5671 85.7365 77.5211 85.4682C77.5172 85.4346 77.5045 85.4026 77.4842 85.3755C77.4639 85.3484 77.4368 85.3271 77.4057 85.3139C77.3745 85.3006 77.3404 85.2959 77.3068 85.3001C77.2732 85.3043 77.2414 85.3174 77.2145 85.3379C76.571 85.7746 76.1143 86.4364 75.9343 87.1929C75.1678 86.2424 75.9343 84.947 76.7009 84.2034C81.1545 79.9109 81.6911 73.1884 79.7671 67.3398C79.7287 67.1405 79.3915 67.1865 79.4298 67.3398C80.4646 72.1076 80.7099 76.7374 78.303 81.007C76.4804 80.9154 74.6537 81.0596 72.8681 81.4363C70.6605 82.0648 71.588 82.4174 71.5727 81.099C71.9287 78.0156 71.5694 74.8916 70.5225 71.9696C70.3922 71.6093 70.0625 71.7856 70.1392 72.0616C70.2976 72.5726 70.4356 73.1092 70.5531 73.6713C70.3908 74.3621 70.1886 75.0429 69.9476 75.7103C69.6525 76.5667 69.0755 77.2976 68.3111 77.7836C67.5466 78.2695 66.6399 78.4817 65.7392 78.3855C65.8852 78.3463 66.0213 78.2769 66.1389 78.1819C66.2564 78.0868 66.3526 77.9681 66.4214 77.8336C66.4805 77.8655 66.546 77.8838 66.6131 77.8872C67.0577 77.8872 67.7629 77.1207 68.0312 76.8064C68.2427 76.4744 68.3499 76.0867 68.339 75.6932C68.328 75.2997 68.1995 74.9185 67.9699 74.5988C67.6538 73.8843 67.266 73.2037 66.8124 72.5675C66.83 72.5206 66.83 72.4688 66.8124 72.4219C66.3837 71.9271 65.8001 71.5921 65.1566 71.4714C66.4981 70.2986 67.211 67.7843 67.4563 66.0597C73.2437 66.4736 79.9817 64.8409 84.3204 61.0312C84.7283 61.3589 85.1149 61.7122 85.4779 62.089C87.9922 64.6262 91.7253 71.1418 93.1434 78.4161C93.2047 78.7227 93.519 80.4244 93.6493 80.7157C92.1162 81.1526 90.951 81.4823 89.8165 81.9038C89.7045 81.7063 89.5501 81.5361 89.3643 81.4056H89.3336ZM60.3197 61.8591C60.243 61.5295 59.7754 61.7518 58.7099 61.0312C60.3657 60.0117 59.6451 55.9951 59.8598 53.3199C60.6263 53.3199 61.3929 53.2356 62.1594 53.1359C62.1677 53.7549 62.3203 54.3633 62.6051 54.9129C62.8899 55.4625 63.299 55.938 63.7998 56.3017C63.4472 56.3017 63.0946 56.2327 62.7497 56.2251C62.4047 56.2174 61.3162 56.2251 61.2166 56.4627C61.2054 56.4867 61.1993 56.5128 61.1987 56.5392C61.1981 56.5657 61.203 56.592 61.2131 56.6165C61.2232 56.641 61.2382 56.6631 61.2573 56.6815C61.2764 56.6999 61.299 56.7141 61.3239 56.7233C62.2345 56.7076 63.1453 56.7383 64.0528 56.8153C64.9836 56.939 65.9036 57.1337 66.8047 57.3979C66.8494 57.3979 66.8923 57.3801 66.924 57.3485C66.9556 57.3168 66.9734 57.274 66.9734 57.2292C66.9734 57.1845 66.9556 57.1416 66.924 57.11C66.8923 57.0784 66.8494 57.0606 66.8047 57.0606L66.6514 57.0069C67.6139 56.8886 68.5011 56.4261 69.1492 55.7047C69.7973 54.9834 70.1626 54.0519 70.1775 53.0823C70.2933 53.0744 70.4092 53.0954 70.5148 53.1436C70.6611 54.0402 71.1082 54.8603 71.7824 55.4691C72.4567 56.0779 73.3181 56.4391 74.2249 56.4934C74.2038 56.5104 74.1881 56.5333 74.1799 56.5592C74.1717 56.5851 74.1714 56.6129 74.1789 56.639C74.2556 56.7846 74.4396 56.639 74.7768 56.4857C75.7229 56.4175 76.614 56.0154 77.2911 55.3512C78.9929 54.5847 79.8974 54.2474 81.0089 53.7108C81.2465 53.6572 81.0625 53.2739 80.8939 53.3659C75.6047 55.2362 78.9775 55.1366 78.4103 51.8328C81.3692 51.8328 82.3044 50.959 84.2974 48.8587C84.9106 51.2809 84.5657 54.2244 86.1218 55.1289C86.3346 55.2627 86.5837 55.327 86.8347 55.3129C86.5942 55.8359 86.2313 56.2934 85.7768 56.6467C85.7181 56.6901 85.6758 56.7522 85.657 56.8228C85.6383 56.8934 85.6441 56.9683 85.6735 57.0352C85.7029 57.1021 85.7542 57.157 85.819 57.1908C85.8837 57.2247 85.9581 57.2355 86.0298 57.2216C86.3531 57.1313 86.6705 57.0212 86.9803 56.8919C85.8652 58.687 84.4126 60.2489 82.703 61.4911C74.0639 67.4547 62.0904 65.9753 58.8249 62.3113C59.2627 62.3075 59.6992 62.2613 60.1281 62.1733C60.1951 62.157 60.2529 62.1147 60.2888 62.0558C60.3248 61.9969 60.3359 61.9261 60.3197 61.8591ZM68.5908 22.766C69.5839 23.3888 70.4586 24.183 71.174 25.1116C71.2196 25.1584 71.2766 25.1925 71.3394 25.2105C71.4022 25.2285 71.4686 25.2299 71.5321 25.2144C71.5956 25.1989 71.6539 25.1672 71.7014 25.1222C71.7488 25.0773 71.7837 25.0208 71.8026 24.9583C72.1834 23.9896 72.8927 23.1855 73.8062 22.6867C74.7198 22.1879 75.7797 22.026 76.8005 22.2294C77.729 22.5033 78.5113 23.1335 78.9767 23.9823C79.442 24.8311 79.5525 25.8296 79.2841 26.7596C79.2624 26.8397 79.2672 26.9248 79.2979 27.0019C79.3287 27.079 79.3836 27.1441 79.4545 27.1873C79.5254 27.2306 79.6084 27.2496 79.691 27.2416C79.7737 27.2336 79.8515 27.1989 79.9127 27.1429C80.7942 26.3764 82.0667 27.2885 82.4347 27.5798C82.8379 27.8571 83.1748 28.2201 83.4213 28.6428C83.6678 29.0656 83.8177 29.5376 83.8604 30.025C83.8604 32.2557 81.4075 33.3211 79.7747 34.034C79.7166 34.0666 79.6686 34.1146 79.6361 34.1728C79.6036 34.231 79.5879 34.297 79.5908 34.3636C79.5371 36.4102 79.2075 38.5335 78.9622 40.6032C78.1956 40.9941 77.8967 41.1627 77.8967 41.1627C77.8248 41.1424 77.7554 41.1141 77.6897 41.0784C77.7817 40.4345 78.3106 36.9085 78.2876 36.2569C78.2725 36.2109 78.2432 36.1709 78.204 36.1425C78.1648 36.1141 78.1176 36.0988 78.0692 36.0988C78.0207 36.0988 77.9735 36.1141 77.9343 36.1425C77.8951 36.1709 77.8658 36.2109 77.8507 36.2569C77.705 36.7858 77.3371 40.8561 77.3294 40.9021C76.3418 40.4504 75.2888 40.158 74.2096 40.0359C74.2709 39.4227 74.4012 30.071 74.4012 29.7414C74.4012 29.6188 74.2786 29.6265 74.2019 29.6265C74.1727 29.6264 74.1446 29.6374 74.1232 29.6574C74.1019 29.6773 74.0889 29.7046 74.0869 29.7338C73.7113 33.7427 73.627 38.7405 73.6807 39.9823H73.4507C71.5734 39.738 69.6649 39.9591 67.8932 40.6262C67.8012 39.7217 67.1267 36.2263 66.6437 34.08C66.6437 33.9037 66.3294 33.8424 66.3294 34.08C66.3261 34.0977 66.3261 34.1159 66.3294 34.1337C66.912 37.3531 67.234 40.0513 67.3873 40.8255C66.276 41.3187 65.243 41.9721 64.3211 42.7648C64.0147 41.01 63.6156 39.2726 63.1253 37.56C61.9448 33.4898 60.588 34.172 58.8786 33.5664C58.4372 33.3797 58.0457 33.0921 57.7356 32.7268C57.4255 32.3614 57.2053 31.9285 57.0927 31.4626C56.9802 30.9968 56.9784 30.5111 57.0875 30.0444C57.1967 29.5778 57.4136 29.1432 57.7211 28.7756C58.2243 28.2007 58.8979 27.8014 59.6438 27.6359C60.3898 27.4705 61.169 27.5475 61.8681 27.8558C62.1211 27.9554 62.3357 27.7025 62.3051 27.4418C62.1475 26.6376 62.2206 25.8053 62.5158 25.0408C62.811 24.2764 63.3163 23.6109 63.9734 23.1213C64.6306 22.6317 65.4127 22.3378 66.2297 22.2736C67.0467 22.2093 67.8652 22.3774 68.5908 22.7583V22.766ZM77.4214 41.3927L77.2221 41.4923C77.1766 41.5312 77.1469 41.5854 77.1386 41.6446C77.1302 41.7038 77.1438 41.7641 77.1768 41.814C77.2097 41.8639 77.2598 41.9001 77.3176 41.9157C77.3753 41.9313 77.4368 41.9252 77.4904 41.8986C79.461 40.7991 81.5456 39.9175 83.7071 39.2694C84.282 39.1161 85.5775 38.6255 85.8765 39.2004C85.8808 39.2693 85.8808 39.3385 85.8765 39.4074C85.0441 39.4328 84.2404 39.7168 83.5768 40.2199L79.5371 42.5195C79.2228 42.7035 79.7364 43.0331 79.7747 42.7495C79.7747 42.6728 79.5908 42.8108 84.5733 40.1586C84.6883 40.0973 85.7538 39.576 85.9071 40.0283C85.3476 44.6811 83.9754 45.9612 83.2625 47.3946C83.2316 47.4515 83.2229 47.5178 83.2382 47.5807C83.2534 47.6436 83.2916 47.6986 83.3451 47.7349C83.3987 47.7712 83.4638 47.7863 83.5279 47.7773C83.592 47.7682 83.6504 47.7357 83.6918 47.6859C83.7378 47.6323 83.7685 47.5709 83.8145 47.5173C83.9073 47.7118 83.9892 47.9114 84.0598 48.1152C80.6103 51.7025 81.2005 50.5221 78.3183 51.4879C78.0709 50.5365 77.482 49.7095 76.6639 49.1646C75.8458 48.6196 74.8557 48.3949 73.8825 48.5332C72.9092 48.6716 72.021 49.1633 71.3871 49.9147C70.7533 50.6661 70.4182 51.6244 70.4458 52.607C70.3422 52.5585 70.2304 52.5299 70.1162 52.5227C69.9892 51.5626 69.5176 50.6814 68.7893 50.0431C68.0609 49.4048 67.1255 49.0529 66.157 49.0529C65.1885 49.0529 64.253 49.4048 63.5247 50.0431C62.7963 50.6814 62.3248 51.5626 62.1977 52.5227C61.4312 52.63 60.6646 52.6607 59.8981 52.699C60.196 50.2488 61.0281 47.8937 62.3357 45.8002C67.5943 37.3991 77.3294 41.3927 77.4214 41.3927ZM76.8159 55.1059C75.2828 55.8725 75.2828 56.0028 74.5162 56.0028C73.696 56.0125 72.8983 55.734 72.2623 55.216C71.6263 54.6979 71.1923 53.9731 71.0359 53.1679C70.8795 52.3627 71.0107 51.5281 71.4065 50.8096C71.8023 50.0912 72.4377 49.5344 73.2019 49.2363C73.9662 48.9383 74.8108 48.9179 75.5885 49.1787C76.3662 49.4394 77.0278 49.9649 77.4579 50.6634C77.8879 51.3619 78.0592 52.1892 77.9419 53.001C77.8246 53.8128 77.4261 54.5578 76.8159 55.1059ZM69.6639 53.4349C69.5659 54.3213 69.1321 55.1364 68.4517 55.7128C67.7712 56.2893 66.8958 56.5831 66.0053 56.5341C65.1149 56.485 64.2771 56.0967 63.6641 55.449C63.0511 54.8013 62.7095 53.9434 62.7095 53.0516C62.7095 52.1599 63.0511 51.302 63.6641 50.6543C64.2771 50.0066 65.1149 49.6183 66.0053 49.5692C66.8958 49.5201 67.7712 49.814 68.4517 50.3904C69.1321 50.9668 69.5659 51.782 69.6639 52.6684C69.158 53.0516 69.2117 53.7262 69.6486 53.4656L69.6639 53.4349ZM62.0904 45.5626C61.4159 44.4128 60.0131 42.7188 59.3998 41.8833C58.7866 41.0478 58.457 40.5418 57.6444 40.6262C57.4605 40.6262 57.4375 40.7871 57.5065 40.8638C57.7211 41.1167 57.9357 40.4575 58.8403 41.7683C59.5546 42.651 60.2199 43.5722 60.8333 44.5278C61.9754 46.1835 62.0291 45.6316 61.6842 46.1835C61.3266 45.6282 60.8489 45.1601 60.2864 44.8139C59.7239 44.4676 59.0909 44.252 58.434 44.1829C58.3837 44.1817 58.3346 44.1983 58.2953 44.2297C58.256 44.2611 58.2289 44.3053 58.2189 44.3546C58.2088 44.4039 58.2164 44.4552 58.2403 44.4994C58.2642 44.5437 58.3029 44.5782 58.3497 44.5968C59.6061 44.8083 60.7292 45.5047 61.4772 46.5361L61.3085 46.8274C60.9797 46.5014 60.565 46.2754 60.1127 46.1758C59.6063 46.0747 59.0944 46.0031 58.5796 45.9612C58.5321 45.9571 58.4847 45.9702 58.446 45.9981C58.4073 46.026 58.3798 46.0669 58.3687 46.1133C58.3576 46.1597 58.3634 46.2085 58.3853 46.2509C58.4071 46.2934 58.4434 46.3266 58.4876 46.3445C59.3768 46.6818 60.312 46.4135 61.1552 47.203C61.0326 47.4253 60.9176 47.6553 60.818 47.8852C60.4464 47.9249 60.088 48.0453 59.7678 48.2378C59.1775 48.5214 59.4305 48.9124 59.6988 48.7744C59.9655 48.6105 60.2547 48.4865 60.5573 48.4065C60.2286 49.2178 59.9721 50.0566 59.7908 50.913C57.0925 47.5709 56.349 43.2937 57.0925 40.9098C57.1442 40.6746 57.2847 40.4685 57.4846 40.3343C57.6845 40.2 57.9284 40.1481 58.1657 40.1892C58.6176 40.3384 59.0329 40.5814 59.3845 40.9021C62.1901 43.1327 61.8681 43.0944 63.1483 43.9146C62.7313 44.4199 62.3762 44.9731 62.0904 45.5626ZM62.5044 77.1054C62.5201 77.0503 62.5201 76.9918 62.5044 76.9367C60.9713 73.1884 63.8228 70.8735 66.1761 72.5445C66.1225 72.7591 66.5058 73.357 66.6361 73.5333C67.9775 75.8866 67.9085 76.1012 66.7664 77.09C66.6207 77.2127 66.5747 77.2357 66.5441 77.2127C66.4561 77.1188 66.386 77.0097 66.3371 76.8907C65.6855 75.7103 65.5706 75.3577 65.3483 75.4497C65.3199 75.4592 65.2944 75.4758 65.2742 75.4979C65.254 75.5201 65.2398 75.547 65.2329 75.5761C65.226 75.6053 65.2266 75.6357 65.2347 75.6645C65.2428 75.6934 65.2582 75.7197 65.2793 75.7409C65.3559 75.8099 65.1566 75.5953 65.7545 77.021C66.0842 77.7876 66.1455 77.412 65.7545 77.6726C65.149 78.0022 64.6814 78.0329 64.2214 76.2162C64.2036 76.1675 64.1699 76.1262 64.1257 76.099C64.0815 76.0719 64.0294 76.0605 63.9779 76.0667C63.9264 76.073 63.8785 76.0964 63.842 76.1333C63.8055 76.1702 63.7825 76.2183 63.7768 76.2698C63.7176 76.8113 63.8565 77.3559 64.1678 77.8029C63.9923 77.938 63.7875 78.0299 63.5699 78.0712C63.282 77.682 62.9198 77.3538 62.5044 77.1054ZM63.9608 78.6384C64.1282 78.5914 64.2863 78.5162 64.4284 78.4161C67.372 79.7882 70.0089 77.9409 70.8291 75.1967C71.1293 77.1029 71.1963 79.0386 71.0284 80.961C70.9493 81.3634 70.9493 81.7774 71.0284 82.1798C68.9988 83.2368 67.3525 84.9046 66.3218 86.9476C65.2833 87.212 64.2598 87.5318 63.2556 87.9058C64.712 84.9546 65.7085 81.4056 63.9608 78.6308V78.6384ZM62.857 88.703C66.5134 87.4535 65.1566 87.8598 66.0765 87.5455C65.7742 88.233 65.543 88.9496 65.3866 89.6841C63.5771 91.6152 61.9597 93.7178 60.5573 95.962C60.4183 96.1537 60.3432 96.3844 60.3427 96.6212C60.3391 96.6297 60.3373 96.6388 60.3373 96.6481C60.3373 96.6573 60.3391 96.6664 60.3427 96.6749C60.322 97.8341 60.6711 98.9698 61.3392 99.9173C61.6603 100.206 62.0386 100.423 62.4494 100.555C62.8602 100.687 63.2942 100.731 63.7232 100.684C64.5587 100.684 62.1901 100.898 87.9232 97.8094C90.2228 97.702 91.1197 96.4526 92.2312 94.4213C92.9287 93.1412 95.4583 88.9253 95.512 88.8486C95.9246 88.1819 96.1773 87.4289 96.2505 86.6483C96.3236 85.8677 96.2152 85.0808 95.9336 84.3491C95.9398 84.2268 95.9213 84.1044 95.8792 83.9894C95.8371 83.8744 95.7723 83.7691 95.6886 83.6796C95.6049 83.5902 95.504 83.5186 95.392 83.469C95.28 83.4194 95.1592 83.3928 95.0367 83.3909C93.4613 83.202 91.8661 83.2563 90.3071 83.5519C90.3055 83.0702 90.2091 82.5936 90.0235 82.1491C91.9859 81.6662 92.6298 81.4363 98.6012 79.7806C100.19 81.3734 101.872 82.8708 103.637 84.2648C103.667 84.3045 103.706 84.3366 103.751 84.3588C103.795 84.381 103.844 84.3925 103.894 84.3925C103.944 84.3925 103.993 84.381 104.038 84.3588C104.082 84.3366 104.121 84.3045 104.151 84.2648C105.155 82.2718 106.083 80.3248 106.911 78.4545L108.068 83.6439C107.677 83.7245 107.311 83.8973 107 84.148C106.69 84.3987 106.443 84.7199 106.282 85.0849C105.584 86.434 105.768 88.1511 105.929 89.6458C105.929 89.9294 106.42 94.9425 106.619 96.7975C106.623 96.8897 106.663 96.9766 106.731 97.0397C106.798 97.1028 106.887 97.1369 106.98 97.1348C108.242 96.5528 109.46 95.8763 110.621 95.1112L114.883 114.236C115.248 115.9 114.94 117.641 114.025 119.077C113.109 120.514 111.662 121.529 110 121.901L67.349 131.406C65.6846 131.765 63.9459 131.453 62.5105 130.537C61.0752 129.622 60.0592 128.177 59.6835 126.516L54.5936 103.673C55.866 100.469 61.0786 92.022 62.857 88.703ZM121.161 126.002C121.146 127.65 120.571 129.243 119.53 130.521C118.489 131.798 117.045 132.684 115.435 133.031L66.6897 143.893C64.7938 144.305 62.8118 143.953 61.1742 142.912C59.5366 141.872 58.3756 140.227 57.9434 138.336C55.9504 129.452 55.4981 127.16 55.4981 127.16C55.5374 126.027 55.4758 124.893 55.3141 123.772C54.6012 116.712 51.903 111.507 54.1106 104.907L59.0242 126.723C59.4281 128.557 60.5418 130.157 62.1219 131.173C63.702 132.188 65.6199 132.537 67.4563 132.142L110.138 122.645C111.973 122.222 113.566 121.092 114.572 119.5C115.577 117.907 115.912 115.982 115.504 114.144L111.188 94.7816C112.146 94.13 113.066 93.4248 113.955 92.6813C121.927 128.294 121.176 124.454 121.153 126.002H121.161Z" fill="white"/>
<path d="M89.685 128.777C89.0426 129.387 88.5768 130.159 88.3367 131.012C88.0965 131.864 88.091 132.766 88.3206 133.622C88.5331 134.557 89.0553 135.393 89.8025 135.994C90.5496 136.595 91.478 136.926 92.4369 136.933C93.3808 136.939 94.2939 136.597 95.0012 135.972C95.7084 135.347 96.16 134.483 96.2695 133.545C96.3808 132.684 96.2813 131.808 95.9795 130.994C95.6778 130.179 95.1828 129.45 94.5372 128.869C93.8757 128.271 93.0201 127.932 92.1283 127.915C91.2365 127.898 90.3687 128.204 89.685 128.777ZM93.5177 136.189C89.685 137.439 87.5464 132.809 89.685 129.735C90.173 129.161 90.8553 128.786 91.6019 128.683C92.3484 128.58 93.1068 128.755 93.7323 129.176C95.9936 130.785 96.5148 135.193 93.5177 136.205V136.189ZM80.8929 43.6002C81.7054 43.019 82.6251 42.6047 83.5988 42.3814C84.1277 42.2895 84.3116 42.2511 84.3653 42.0978C84.3678 42.0486 84.3519 42.0002 84.3208 41.9619C84.2896 41.9237 84.2454 41.8984 84.1967 41.8909C82.9333 41.9464 81.7316 42.4522 80.8086 43.3166C80.7873 43.3381 80.7722 43.3649 80.7648 43.3943C80.7574 43.4236 80.7581 43.4544 80.7667 43.4834C80.7753 43.5124 80.7916 43.5386 80.8138 43.5591C80.836 43.5797 80.8633 43.5939 80.8929 43.6002ZM84.2043 43.6922C83.6545 43.5388 83.0774 43.5101 82.5151 43.6082C81.9528 43.7064 81.4196 43.9288 80.9542 44.2594C80.925 44.2825 80.9043 44.3146 80.8953 44.3508C80.8862 44.3869 80.8894 44.425 80.9043 44.4591C80.9191 44.4932 80.9449 44.5215 80.9775 44.5395C81.0101 44.5574 81.0478 44.5641 81.0846 44.5584C81.7639 44.1801 82.5299 43.9846 83.3075 43.9912C83.8671 43.9912 84.235 44.1675 84.3117 43.9222C84.3267 43.8774 84.324 43.8285 84.304 43.7857C84.284 43.7429 84.2483 43.7094 84.2043 43.6922ZM81.2992 44.9187C81.2724 44.9131 81.2448 44.9136 81.2182 44.9201C81.1917 44.9266 81.1669 44.9389 81.1457 44.9561C81.1245 44.9734 81.1074 44.9951 81.0957 45.0198C81.084 45.0445 81.0779 45.0715 81.0779 45.0988C81.0779 45.1261 81.084 45.1531 81.0957 45.1778C81.1074 45.2025 81.1245 45.2242 81.1457 45.2415C81.1669 45.2587 81.1917 45.271 81.2182 45.2775C81.2448 45.284 81.2724 45.2845 81.2992 45.2789C81.7859 45.3253 82.2503 45.5058 82.6406 45.8002C82.6653 45.8232 82.6966 45.8378 82.7301 45.8421C82.7635 45.8464 82.7975 45.84 82.8272 45.8239C82.8568 45.8078 82.8807 45.7828 82.8953 45.7524C82.91 45.722 82.9147 45.6878 82.9089 45.6545C82.7107 45.4217 82.4638 45.2352 82.1857 45.108C81.9076 44.9809 81.605 44.9163 81.2992 44.9187ZM74.799 57.2828C76.6693 56.2173 78.1487 56.2097 79.5515 55.8034C79.7815 55.8034 79.7278 55.3895 79.5515 55.4201C77.8139 55.5535 76.1339 56.103 74.6534 57.0222C74.4157 57.1295 74.569 57.4284 74.799 57.2828ZM60.8711 58.5552C62.7466 57.946 64.7359 57.7704 66.6891 58.0417C66.9037 58.0417 66.9421 57.7197 66.6508 57.6584C64.6811 57.2008 62.617 57.3806 60.7562 58.172C60.5569 58.2103 60.6795 58.5552 60.8711 58.5552Z" fill="white"/>
<path d="M62.9792 60.1879C64.0664 59.5907 65.2368 59.1592 66.4516 58.9078C66.703 59.3511 67.0746 59.7144 67.5235 59.9558C67.9724 60.1971 68.4803 60.3068 68.9888 60.2722C69.1193 60.6861 69.3702 61.0517 69.7093 61.3224C69.9953 61.5786 70.3465 61.7509 70.7242 61.8202C71.1018 61.8896 71.4913 61.8532 71.8496 61.7153C72.208 61.5774 72.5213 61.3431 72.755 61.0385C72.9887 60.7338 73.1337 60.3705 73.174 59.9886C73.7054 59.9446 74.2128 59.7484 74.6356 59.4235C75.0584 59.0986 75.3786 58.6587 75.5579 58.1566C79.199 58.0186 79.6282 58.0493 81.2533 57.8653C81.5062 57.8653 81.4832 57.4744 81.2533 57.4437C79.3855 57.4283 77.5188 57.5358 75.6653 57.7657C75.6851 57.7056 75.7005 57.6441 75.7112 57.5817C75.7274 57.5418 75.7348 57.499 75.7328 57.456C75.7309 57.413 75.7197 57.3709 75.7 57.3327C75.6803 57.2944 75.6526 57.2609 75.6188 57.2343C75.585 57.2077 75.5458 57.1888 75.504 57.1787C75.4621 57.1687 75.4186 57.1678 75.3764 57.1761C75.3342 57.1844 75.2943 57.2018 75.2594 57.2269C75.2245 57.2521 75.1954 57.2845 75.1742 57.3219C75.153 57.3593 75.14 57.4009 75.1363 57.4437C75.1212 57.5797 75.0903 57.7135 75.0444 57.8423C74.8527 57.8423 74.5615 57.8423 74.5768 58.0493C74.5921 58.2563 74.7684 58.1873 74.9064 58.1873C74.7627 58.4751 74.5601 58.7296 74.3119 58.9342C74.0637 59.1389 73.7753 59.2892 73.4653 59.3754C72.4995 59.59 71.7559 58.9998 71.1657 57.5894C72.0779 56.3476 71.6563 55.88 71.1657 56.0563C71.0047 56.11 71.1657 56.0946 70.3379 56.0946C69.51 56.0946 69.418 56.8228 70.0543 57.3977L70.4145 57.6967C70.2459 58.7008 69.8703 59.7663 68.8201 59.7893C68.4573 59.7814 68.101 59.691 67.7783 59.525C67.4556 59.359 67.1749 59.1217 66.9575 58.8312L67.2564 58.7775C67.4557 58.7775 67.5707 58.4096 67.1261 58.4096C65.5641 58.4043 64.0394 58.8867 62.7645 59.7893C62.7384 59.8034 62.7152 59.8225 62.6964 59.8456C62.6777 59.8686 62.6636 59.8951 62.6551 59.9236C62.6465 59.9521 62.6437 59.9819 62.6467 60.0115C62.6497 60.0411 62.6585 60.0698 62.6726 60.0959C62.6867 60.1221 62.7058 60.1452 62.7288 60.164C62.7518 60.1828 62.7783 60.1969 62.8068 60.2054C62.8353 60.214 62.8652 60.2168 62.8947 60.2138C62.9243 60.2108 62.953 60.202 62.9792 60.1879ZM70.8438 58.1796C70.9823 58.5842 71.2119 58.9515 71.5149 59.2532C71.818 59.5549 72.1863 59.7829 72.5915 59.9196C72.5915 60.0346 72.5915 60.1496 72.5455 60.2569C72.453 60.4943 72.3043 60.7059 72.1123 60.8734C71.9203 61.0409 71.6906 61.1595 71.4429 61.219C71.1951 61.2785 70.9366 61.2772 70.6894 61.2151C70.4423 61.153 70.2138 61.032 70.0236 60.8625C69.7898 60.6679 69.6015 60.4246 69.4717 60.1496C69.8444 59.9589 70.1645 59.6795 70.4038 59.336C70.6431 58.9924 70.7942 58.5953 70.8438 58.1796ZM63.1555 48.9966C63.4161 48.9966 63.4698 48.5597 64.2439 48.0767C64.626 47.8755 65.0264 47.7113 65.4397 47.5862C65.7617 47.3869 65.6237 46.8196 64.8725 46.9883L64.5046 47.1262C63.8267 47.4376 63.2828 47.9814 62.9715 48.6593C62.9555 48.6932 62.9477 48.7303 62.9488 48.7678C62.9498 48.8052 62.9597 48.8419 62.9777 48.8747C62.9956 48.9076 63.0211 48.9358 63.052 48.957C63.0829 48.9781 63.1183 48.9917 63.1555 48.9966ZM75.4506 46.375C75.6441 46.3712 75.8372 46.3918 76.0255 46.4364C76.4388 46.5478 76.8376 46.7073 77.2136 46.9116C77.9802 46.9116 76.884 45.7542 75.5119 45.7235C75.2397 45.6965 74.967 45.7701 74.7454 45.9305C74.3545 46.329 74.9141 46.5054 75.4506 46.375ZM68.1686 91.7307C68.2387 91.7193 68.3025 91.6834 68.3485 91.6293C68.3945 91.5752 68.4198 91.5066 68.4198 91.4355C68.4198 91.3645 68.3945 91.2958 68.3485 91.2418C68.3025 91.1877 68.2387 91.1518 68.1686 91.1404C68.0985 91.1518 68.0347 91.1877 67.9887 91.2418C67.9426 91.2958 67.9174 91.3645 67.9174 91.4355C67.9174 91.5066 67.9426 91.5752 67.9887 91.6293C68.0347 91.6834 68.0985 91.7193 68.1686 91.7307ZM70.3379 92.1446C70.408 92.1332 70.4717 92.0973 70.5178 92.0432C70.5638 91.9892 70.5891 91.9205 70.5891 91.8495C70.5891 91.7785 70.5638 91.7098 70.5178 91.6557C70.4717 91.6016 70.408 91.5657 70.3379 91.5544C70.2306 91.5544 70.0083 91.6847 70.0543 91.907C70.0692 91.9721 70.105 92.0305 70.1562 92.0734C70.2074 92.1163 70.2712 92.1413 70.3379 92.1446ZM72.6375 90.8951C72.7018 90.8843 72.7602 90.851 72.8023 90.8012C72.8445 90.7514 72.8676 90.6883 72.8676 90.623C72.8676 90.5578 72.8445 90.4946 72.8023 90.4448C72.7602 90.395 72.7018 90.3617 72.6375 90.3509C72.5731 90.3617 72.5147 90.395 72.4726 90.4448C72.4305 90.4946 72.4073 90.5578 72.4073 90.623C72.4073 90.6883 72.4305 90.7514 72.4726 90.8012C72.5147 90.851 72.5731 90.8843 72.6375 90.8951ZM73.7259 92.3745C73.7951 92.3745 73.8613 92.3471 73.9102 92.2982C73.9591 92.2493 73.9865 92.183 73.9865 92.1139C73.9865 92.0448 73.9591 91.9785 73.9102 91.9296C73.8613 91.8808 73.7951 91.8533 73.7259 91.8533C73.6568 91.8533 73.5905 91.8808 73.5416 91.9296C73.4928 91.9785 73.4653 92.0448 73.4653 92.1139C73.4653 92.183 73.4928 92.2493 73.5416 92.2982C73.5905 92.3471 73.6568 92.3745 73.7259 92.3745ZM76.5544 90.2129C76.5544 90.1458 76.5278 90.0815 76.4803 90.0341C76.4329 89.9866 76.3686 89.96 76.3015 89.96C76.2344 89.96 76.17 89.9866 76.1226 90.0341C76.0752 90.0815 76.0485 90.1458 76.0485 90.2129C76.0485 90.28 76.0752 90.3444 76.1226 90.3918C76.17 90.4392 76.2344 90.4659 76.3015 90.4659C76.3686 90.4659 76.4329 90.4392 76.4803 90.3918C76.5278 90.3444 76.5544 90.28 76.5544 90.2129ZM78.6011 91.9836C78.6501 91.9706 78.6935 91.9418 78.7244 91.9016C78.7554 91.8614 78.7721 91.8121 78.7721 91.7613C78.7721 91.7106 78.7554 91.6613 78.7244 91.6211C78.6935 91.5809 78.6501 91.552 78.6011 91.539C78.5666 91.5389 78.5325 91.5468 78.5015 91.5621C78.4706 91.5774 78.4437 91.5997 78.4228 91.6272C78.402 91.6547 78.3879 91.6867 78.3816 91.7206C78.3752 91.7545 78.3769 91.7895 78.3864 91.8226C78.3986 91.8699 78.4265 91.9115 78.4655 91.9408C78.5045 91.97 78.5523 91.9852 78.6011 91.9836ZM83.1849 91.2554C83.2922 91.2554 83.4532 91.1481 83.4072 90.9718C83.3612 90.7955 83.2539 90.7802 83.1849 90.8032C83.1321 90.8129 83.0843 90.8409 83.05 90.8822C83.0156 90.9235 82.9968 90.9755 82.9968 91.0293C82.9968 91.083 83.0156 91.1351 83.05 91.1764C83.0843 91.2177 83.1321 91.2456 83.1849 91.2554ZM84.1661 89.4004C84.2352 89.4004 84.3015 89.3729 84.3504 89.3241C84.3992 89.2752 84.4267 89.2089 84.4267 89.1398C84.4267 89.0707 84.3992 89.0044 84.3504 88.9555C84.3015 88.9066 84.2352 88.8792 84.1661 88.8792C84.097 88.8792 84.0307 88.9066 83.9818 88.9555C83.9329 89.0044 83.9055 89.0707 83.9055 89.1398C83.9055 89.2089 83.9329 89.2752 83.9818 89.3241C84.0307 89.3729 84.097 89.4004 84.1661 89.4004ZM80.7857 90.4505C80.8548 90.4505 80.9211 90.4231 80.97 90.3742C81.0188 90.3253 81.0463 90.2591 81.0463 90.1899C81.0463 90.1208 81.0188 90.0545 80.97 90.0056C80.9211 89.9568 80.8548 89.9293 80.7857 89.9293C80.7166 89.9293 80.6503 89.9568 80.6014 90.0056C80.5525 90.0545 80.5251 90.1208 80.5251 90.1899C80.5251 90.2591 80.5525 90.3253 80.6014 90.3742C80.6503 90.4231 80.7166 90.4505 80.7857 90.4505ZM67.0571 93.3404C67.0985 93.3403 67.1393 93.3308 67.1766 93.3128C67.2138 93.2948 67.2465 93.2686 67.2723 93.2362C67.2981 93.2038 67.3162 93.166 67.3254 93.1257C67.3346 93.0853 67.3346 93.0434 67.3254 93.0031C67.3205 92.9526 67.2996 92.9049 67.2657 92.8672C67.2318 92.8294 67.1867 92.8035 67.137 92.7932C67.0873 92.7829 67.0356 92.7888 66.9895 92.81C66.9434 92.8313 66.9053 92.8667 66.8808 92.9111C66.8563 92.9495 66.8414 92.9931 66.8374 93.0385C66.8333 93.0838 66.8402 93.1294 66.8575 93.1715C66.8748 93.2136 66.9019 93.2509 66.9367 93.2803C66.9714 93.3097 67.0127 93.3303 67.0571 93.3404ZM80.0421 119.701L67.885 122.239C67.1213 122.399 66.4478 122.845 66.0016 123.486C65.5554 124.126 65.3701 124.912 65.4834 125.684C65.5968 126.456 66.0003 127.156 66.6117 127.641C67.2232 128.126 67.9965 128.36 68.7741 128.294C69.1114 128.294 68.1226 128.363 81.2456 125.68C81.6733 125.64 82.0877 125.51 82.462 125.299C82.8363 125.088 83.1621 124.801 83.4183 124.456C83.6745 124.111 83.8554 123.717 83.9492 123.297C84.0431 122.878 84.0477 122.444 83.963 122.023C83.8782 121.602 83.7059 121.203 83.4571 120.853C83.2084 120.502 82.8889 120.208 82.5192 119.989C82.1496 119.771 81.738 119.632 81.3113 119.582C80.8846 119.533 80.4522 119.573 80.0421 119.701ZM81.1076 124.975L68.9888 127.512C68.4083 127.594 67.8184 127.452 67.3396 127.114C66.8608 126.775 66.5293 126.267 66.4128 125.692C66.2963 125.118 66.4037 124.52 66.7129 124.022C67.0222 123.524 67.51 123.163 68.0766 123.013C77.1753 121.089 79.6589 120.552 80.3411 120.43C80.9257 120.357 81.5163 120.505 81.9971 120.845C82.4779 121.186 82.8141 121.694 82.9396 122.269C83.0495 122.867 82.9186 123.483 82.5753 123.985C82.2321 124.486 81.7044 124.831 81.1076 124.944V124.975Z" fill="white"/>
<path d="M79.4912 122.438C78.5407 122.561 74.8077 124.078 69.0664 124.914C68.8441 124.914 68.8671 125.274 69.0664 125.274C70.8984 125.274 78.0348 123.741 79.6522 122.86C79.691 122.828 79.7188 122.785 79.7317 122.737C79.7446 122.688 79.7419 122.637 79.7241 122.591C79.7063 122.544 79.6742 122.504 79.6324 122.477C79.5906 122.449 79.5412 122.436 79.4912 122.438ZM104.25 114.78C101.414 115.777 101.337 119.824 104.204 120.391C104.588 120.454 104.98 120.437 105.356 120.342C105.733 120.247 106.086 120.076 106.393 119.838C106.701 119.601 106.957 119.303 107.144 118.963C107.332 118.623 107.448 118.248 107.485 117.862C108.029 116.137 105.998 114.297 104.25 114.78ZM104.84 119.931C104.532 119.958 104.221 119.917 103.93 119.811C103.638 119.705 103.374 119.537 103.155 119.318C102.936 119.098 102.767 118.834 102.661 118.543C102.555 118.251 102.514 117.941 102.541 117.632C102.702 116.206 103.982 114.918 105.346 115.332C108.221 116.359 106.895 119.763 104.871 119.931H104.84Z" fill="white"/>
<path d="M104.135 116.75C103.919 116.766 103.715 116.858 103.56 117.011C103.269 117.448 103.491 117.777 103.921 117.777C103.859 118.383 103.79 119.119 104.327 119.15C104.511 119.15 105.308 118.996 105.737 118.904C105.788 118.909 105.839 118.902 105.888 118.886C105.936 118.869 105.98 118.843 106.018 118.808C106.055 118.773 106.085 118.731 106.105 118.685C106.126 118.638 106.136 118.587 106.136 118.536C106.136 118.276 106.136 118.705 106.052 117.617C106.266 117.617 106.366 117.517 106.374 117.341L106.328 116.873C106.327 116.84 106.319 116.807 106.305 116.777C106.292 116.746 106.272 116.719 106.248 116.696C106.224 116.674 106.195 116.656 106.164 116.644C106.133 116.632 106.1 116.627 106.067 116.628C105.86 116.628 105.553 116.666 105.553 116.666C105.553 116.666 105.891 116.559 105.937 116.321C105.952 116.264 105.952 116.203 105.936 116.146C105.919 116.089 105.888 116.037 105.845 115.996C105.802 115.955 105.748 115.927 105.69 115.914C105.632 115.901 105.572 115.904 105.515 115.922C105.386 115.993 105.272 116.088 105.18 116.202C105.088 116.317 105.019 116.448 104.979 116.589C104.427 115.585 103.568 116.206 104.135 116.75ZM105.538 117.632C105.538 117.984 105.592 118.13 105.622 118.398C105.339 118.398 104.626 118.613 104.358 118.651C104.349 118.608 104.349 118.564 104.358 118.521V117.754C104.747 117.682 105.142 117.641 105.538 117.632ZM97.8343 115.654C95.5346 115.401 94.0015 117.731 94.6377 119.839C94.8781 120.436 95.2976 120.944 95.8385 121.293C96.3793 121.642 97.015 121.814 97.658 121.786C101.184 121.556 101.491 116.007 97.8343 115.654ZM99.3674 120.453C98.8964 120.949 98.2477 121.239 97.5636 121.257C96.8795 121.276 96.2159 121.022 95.7186 120.552C95.316 120.145 95.0591 119.615 94.9875 119.047C94.9158 118.478 95.0336 117.902 95.3225 117.407C95.6114 116.913 96.0553 116.527 96.5855 116.31C97.1158 116.092 97.7029 116.056 98.2559 116.206C98.6728 116.34 99.0487 116.578 99.3483 116.898C99.648 117.217 99.8615 117.607 99.9688 118.032C100.076 118.457 100.074 118.902 99.9618 119.325C99.8499 119.748 99.6321 120.137 99.329 120.453H99.3674ZM109.34 115.907L110.528 116.444C110.168 117.065 109.838 117.685 109.547 118.276C109.513 118.332 109.502 118.399 109.517 118.463C109.532 118.527 109.572 118.582 109.628 118.617C109.684 118.651 109.751 118.662 109.815 118.647C109.879 118.632 109.934 118.592 109.969 118.536C110.329 117.992 110.735 117.402 111.126 116.712C111.533 116.919 111.67 116.965 112.429 117.279C112.591 117.382 112.785 117.42 112.974 117.387C113.012 117.375 113.046 117.355 113.075 117.328C113.104 117.301 113.126 117.267 113.139 117.23C113.153 117.192 113.157 117.153 113.153 117.113C113.148 117.074 113.134 117.036 113.112 117.003C112.935 116.781 112.92 116.812 111.425 116.237C111.801 115.585 112.529 114.635 112.015 114.474C111.64 114.359 111.249 115.24 110.812 116.007L109.532 115.486C109.233 115.317 109.064 115.792 109.34 115.907ZM80.8782 109.507C79.3911 109.714 76.9151 110.396 72.3771 111.285C65.8385 112.573 66.0454 112.396 63.8684 112.987C63.8212 112.999 63.7796 113.027 63.7498 113.066C63.7201 113.105 63.704 113.152 63.704 113.201C63.704 113.25 63.7201 113.298 63.7498 113.336C63.7796 113.375 63.8212 113.403 63.8684 113.416C65.2789 113.416 78.3179 110.817 80.9855 110.059C81.0506 110.037 81.1056 109.992 81.1401 109.932C81.1747 109.873 81.1865 109.803 81.1734 109.736C81.1603 109.668 81.1231 109.608 81.0688 109.566C81.0145 109.524 80.9468 109.503 80.8782 109.507ZM87.6928 103.888C89.9925 103.459 92.4837 103.121 94.7911 102.57C95.0824 102.57 95.0594 102.056 94.7911 102.087C90.3604 102.531 63.1862 108.004 62.7799 108.686C62.2663 109.522 68.7974 107.314 87.6928 103.888ZM100.456 104.348C99.5053 103.727 98.4015 104.294 97.7883 105.191C96.7151 107.115 97.0984 108.916 97.8649 110.994C97.7883 110.994 64.3207 117.647 64.267 117.762C64.2134 117.877 64.267 118.053 64.4203 118.053C66.5744 118.053 95.3966 112.297 98.0719 111.523C98.2932 112.1 98.5492 112.663 98.8384 113.209C98.8686 113.26 98.9111 113.302 98.9621 113.331C99.0131 113.361 99.0708 113.377 99.1297 113.378C99.4977 113.378 102.717 111.162 103.468 110.626C104.557 109.859 105.676 109.016 105.845 107.667C106.136 105.291 103.008 104.739 101.452 106.134C101.367 105.431 101.009 104.79 100.456 104.348ZM45.4866 21.3173C45.0283 21.048 44.5056 20.9079 43.9741 20.9118C43.4425 20.9156 42.922 21.0634 42.4676 21.3392C42.0133 21.6151 41.6421 22.0089 41.3936 22.4788C41.145 22.9486 41.0283 23.477 41.0559 24.0078C41.031 24.041 41.0176 24.0813 41.0176 24.1228C41.0176 24.1642 41.031 24.2046 41.0559 24.2377C41.4222 24.6874 41.9019 25.0312 42.4455 25.2335C42.9891 25.4358 43.5768 25.4893 44.148 25.3885C44.7191 25.2877 45.2531 25.0362 45.6946 24.6601C46.1361 24.284 46.4691 23.7968 46.6594 23.2489C46.8664 23.0803 46.7437 22.8657 46.713 22.766C46.5092 22.1414 46.069 21.6214 45.4866 21.3173ZM41.3932 24.0614C41.416 23.5563 41.5796 23.0676 41.8654 22.6504C42.1511 22.2333 42.5478 21.9043 43.0106 21.7005C41.9988 22.4671 42.313 24.621 43.5242 24.8356C42.742 24.8532 41.9817 24.577 41.3932 24.0614ZM44.2754 24.713C44.5527 24.5053 44.7699 24.2276 44.9046 23.9084C45.0392 23.5892 45.0867 23.2399 45.042 22.8963C45.0175 22.5844 44.9072 22.2854 44.7231 22.0324C44.5391 21.7794 44.2886 21.5823 43.9995 21.4629C44.4465 21.465 44.8833 21.5973 45.2563 21.8437C45.6294 22.0901 45.9225 22.4399 46.0998 22.8503C45.971 23.2813 45.741 23.6753 45.429 23.9993C45.1169 24.3233 44.7319 24.568 44.3061 24.713H44.2754ZM49.4036 20.2901C49.3893 20.2266 49.3529 20.1703 49.301 20.131C49.2491 20.0917 49.185 20.0721 49.12 20.0755C48.6371 20.0755 49.005 20.658 48.3535 22.4441C48.3396 22.4884 48.3411 22.536 48.3576 22.5794C48.3741 22.6228 48.4048 22.6593 48.4446 22.6832C48.4843 22.7071 48.531 22.7169 48.577 22.711C48.6231 22.7052 48.6658 22.6841 48.6984 22.651C48.8674 22.3641 49.0013 22.0578 49.097 21.7389C49.235 22.4517 49.3806 23.1416 49.5263 23.8008C49.5353 23.8401 49.552 23.8772 49.5754 23.91C49.5988 23.9428 49.6285 23.9707 49.6626 23.992C49.6968 24.0134 49.7348 24.0278 49.7746 24.0344C49.8143 24.0411 49.855 24.0398 49.8942 24.0308C49.9335 24.0217 49.9706 24.005 50.0034 23.9816C50.0362 23.9582 50.0641 23.9286 50.0854 23.8944C50.1068 23.8603 50.1212 23.8222 50.1278 23.7825C50.1345 23.7428 50.1333 23.7021 50.1242 23.6628C49.9096 22.559 49.6643 21.4629 49.4036 20.2901ZM54.1869 22.3827C53.4893 22.5054 53.0524 22.5897 52.5082 22.7353C53.0564 22.0352 53.3678 21.1789 53.3974 20.2901C53.3767 20.0438 53.2812 19.8097 53.1236 19.6192C52.966 19.4287 52.7539 19.291 52.5158 19.2246C52.2937 19.1443 52.0523 19.1338 51.824 19.1946C51.5957 19.2554 51.3915 19.3846 51.2388 19.5648C51.0861 19.7451 50.9922 19.9677 50.9697 20.2029C50.9472 20.438 50.9973 20.6744 51.113 20.8803C51.1667 21.1026 51.5423 20.8803 51.4887 20.75C51.4212 20.5647 51.4203 20.3617 51.486 20.1757C51.5517 19.9897 51.68 19.8324 51.8489 19.7305C52.0214 19.6595 52.2139 19.6538 52.3903 19.7145C52.5666 19.7751 52.7149 19.898 52.8071 20.0602C52.8688 20.3218 52.8748 20.5936 52.8246 20.8577C52.7744 21.1218 52.6692 21.3724 52.5158 21.5932C51.8029 23.0036 51.2893 23.1263 51.596 23.4482C51.6294 23.4844 51.672 23.5106 51.7194 23.5242C51.7667 23.5377 51.8168 23.5379 51.8643 23.5249C52.7063 23.4086 53.5389 23.2319 54.3556 22.996C54.4178 22.9591 54.4661 22.9028 54.4932 22.8358C54.5203 22.7688 54.5246 22.6947 54.5054 22.625C54.4863 22.5552 54.4447 22.4938 54.3871 22.45C54.3296 22.4062 54.2592 22.3826 54.1869 22.3827ZM57.5521 21.5932C57.6626 21.2729 57.6688 20.9258 57.5696 20.6017C57.4704 20.2777 57.2711 19.9934 57.0002 19.7898C56.7293 19.5862 56.4008 19.4738 56.062 19.4687C55.7231 19.4635 55.3914 19.5659 55.1144 19.7612C55.0651 19.5331 54.9713 19.3169 54.8385 19.125C55.427 19.0516 56.0009 18.8887 56.5402 18.6421C56.6116 18.6284 56.678 18.5955 56.732 18.5468C56.786 18.4982 56.8258 18.4357 56.8468 18.3661C56.8591 18.3078 56.8531 18.2472 56.8298 18.1923C56.8065 18.1375 56.767 18.0912 56.7165 18.0595C56.5019 17.9292 56.2489 18.1055 56.0803 18.1745C53.0141 19.3473 54.7158 18.4428 54.6545 20.3438C54.6559 20.4025 54.6761 20.4592 54.712 20.5056C54.7478 20.5521 54.7976 20.5859 54.854 20.6022C54.9105 20.6184 54.9706 20.6162 55.0257 20.596C55.0808 20.5757 55.128 20.5384 55.1604 20.4894C55.1793 20.4704 55.1926 20.4465 55.1988 20.4204C55.3513 20.2105 55.5782 20.0667 55.8332 20.0183C56.0881 19.9698 56.352 20.0205 56.5709 20.1598C56.7189 20.2682 56.8364 20.4129 56.9121 20.58C56.9877 20.7471 57.019 20.9308 57.0028 21.1135C56.9866 21.2962 56.9235 21.4717 56.8197 21.6229C56.7158 21.774 56.5746 21.8958 56.4099 21.9765C56.0188 22.1233 55.5974 22.1708 55.1834 22.1145C54.9535 22.1145 54.8461 22.3521 54.9995 22.4901C55.216 22.642 55.4657 22.7401 55.7277 22.7762C55.9898 22.8124 56.2567 22.7855 56.5063 22.6978C56.7559 22.6101 56.981 22.4641 57.1628 22.272C57.3447 22.0799 57.4781 21.8472 57.5521 21.5932ZM58.3569 20.4511C58.8428 20.3947 59.3225 20.2947 59.7904 20.1521C59.8014 20.6726 59.8865 21.1888 60.0434 21.6852C60.0739 21.7292 60.1161 21.7638 60.1651 21.7854C60.2141 21.807 60.2681 21.8146 60.3212 21.8075C60.3743 21.8004 60.4244 21.7787 60.466 21.745C60.5075 21.7112 60.539 21.6667 60.5569 21.6162C60.6014 21.0632 60.5416 20.5068 60.3806 19.9758C60.6651 19.9356 60.9316 19.8131 61.1472 19.6232C61.1756 19.587 61.1943 19.5441 61.2013 19.4986C61.2083 19.453 61.2035 19.4065 61.1874 19.3634C61.1712 19.3202 61.1442 19.282 61.109 19.2523C61.0737 19.2227 61.0315 19.2026 60.9862 19.194C60.051 19.0713 60.35 19.7995 60.1047 18.5961C60.1047 18.5331 60.0796 18.4726 60.0351 18.4281C59.9905 18.3835 59.9301 18.3585 59.867 18.3585C59.804 18.3585 59.7436 18.3835 59.699 18.4281C59.6544 18.4726 59.6294 18.5331 59.6294 18.5961C59.6294 18.7187 59.6294 18.6651 59.6831 19.4546C59.4071 19.5312 59.1618 19.6232 58.9165 19.7229C58.6712 19.8225 59.1005 18.8874 59.1925 17.6839C59.1931 17.644 59.1796 17.6052 59.1544 17.5743C59.1291 17.5434 59.0937 17.5225 59.0545 17.5153C58.7785 17.4616 58.7709 17.7529 58.219 20.0832C58.19 20.1504 58.1882 20.2263 58.2139 20.2949C58.2396 20.3635 58.2909 20.4194 58.3569 20.4511Z" fill="white"/>
<path d="M62.8574 20.6274C64.5361 20.6274 64.9194 17.8449 63.2943 16.6645C62.4741 16.0742 61.6616 16.2199 61.2937 17.178C60.8338 18.4735 61.5236 20.6274 62.8574 20.6274ZM63.2637 17.5613C63.9152 18.3892 63.7466 19.7306 63.003 20.0065C62.2595 20.2825 61.631 19.079 61.6923 17.9982C61.7919 16.5188 62.7118 16.7948 63.2867 17.5307L63.2637 17.5613Z" fill="white"/>
<path d="M66.1071 19.9298C67.9851 19.9298 68.4067 16.787 66.751 15.6985C66.5991 15.5822 66.4229 15.5016 66.2355 15.4628C66.0481 15.424 65.8544 15.4279 65.6687 15.4743C65.4831 15.5207 65.3103 15.6084 65.1632 15.7308C65.0162 15.8533 64.8986 16.0073 64.8193 16.1814C64.6144 16.4844 64.4927 16.836 64.4667 17.2009C64.1754 18.3967 64.85 19.9298 66.1071 19.9298ZM65.0723 16.6337C65.1156 16.5103 65.1843 16.3973 65.2741 16.3021C65.3638 16.2069 65.4725 16.1316 65.5931 16.081C65.7138 16.0305 65.8437 16.0058 65.9745 16.0085C66.1052 16.0113 66.234 16.0415 66.3524 16.0971C67.5559 16.8636 67.3182 19.7151 65.6318 19.1632C65.3892 18.9925 65.1956 18.761 65.0705 18.492C64.9453 18.223 64.8931 17.9258 64.9189 17.6302C64.9136 17.2918 64.9654 16.9548 65.0723 16.6337ZM68.5141 18.619C68.6597 18.619 68.3454 18.619 69.3803 18.4657C69.9322 18.3814 69.8479 18.3967 70.6374 18.2357C70.9127 18.2243 71.1788 18.1338 71.404 17.9751C71.4672 17.9106 71.5026 17.8239 71.5026 17.7337C71.5026 17.6434 71.4672 17.5567 71.404 17.4922C71.22 17.3082 70.7601 17.3772 70.5224 17.4922C69.6869 17.6762 69.8019 17.6455 69.2806 17.7911C69.6748 17.172 69.9359 16.4777 70.0472 15.7522C70.1468 14.9856 69.5029 14.3034 68.8743 14.5181C68.7481 14.5543 68.636 14.6284 68.553 14.7302C68.47 14.8321 68.4202 14.9569 68.4102 15.0878C68.4002 15.2188 68.4304 15.3497 68.497 15.463C68.5635 15.5763 68.6631 15.6665 68.7824 15.7215C69.204 15.9055 69.227 15.3919 69.0583 15.3689C69.0206 15.3584 68.9877 15.335 68.9653 15.3028C68.9429 15.2706 68.9324 15.2317 68.9357 15.1926C68.9357 14.9243 69.1963 14.9397 69.3419 15.07C69.9628 15.6755 68.9433 17.4079 68.2994 18.1361C68.2706 18.1801 68.2532 18.2306 68.249 18.283C68.2447 18.3354 68.2537 18.388 68.275 18.4361C68.2964 18.4841 68.3295 18.5261 68.3712 18.558C68.413 18.59 68.4621 18.6109 68.5141 18.619ZM72.1092 16.5877C72.3775 16.5877 72.3008 16.4344 72.6688 15.162C73.2054 17.4615 73.236 17.6072 73.512 17.7375C73.5536 17.7698 73.6049 17.7874 73.6576 17.7874C73.7103 17.7874 73.7616 17.7698 73.8033 17.7375C74.0026 17.4692 73.9182 17.3466 73.4047 15.5376C72.9754 14.0428 72.9754 13.9662 72.6841 13.9585C72.6298 13.9613 72.5782 13.9826 72.5377 14.0189C72.4973 14.0551 72.4705 14.1042 72.4618 14.1578C72.3161 14.8707 72.1245 15.5682 71.9022 16.3424C71.903 16.4009 71.9241 16.4573 71.9618 16.5021C71.9996 16.5468 72.0516 16.5771 72.1092 16.5877ZM96.2402 99.465L97.2444 100.431C97.482 100.73 98.0722 101.328 98.4478 101.328C98.8234 101.328 99.2144 100.799 99.4903 100.385C100.191 99.5824 100.728 98.65 101.069 97.6406C101.414 95.8546 99.1607 94.4672 98.0492 96.8741C97.2137 95.5557 94.0478 95.9466 94.7071 97.6406C95.0706 98.3588 95.5953 98.9832 96.2402 99.465ZM122.203 47.6935C121.949 47.5275 121.649 47.4483 121.346 47.4676C121.043 47.487 120.755 47.6039 120.524 47.8008C119.974 48.3644 119.58 49.062 119.382 49.8245C118.966 50.7877 118.603 51.7729 118.294 52.7756C118.148 53.3965 118.493 53.3965 118.631 53.2815C119.996 53.3888 124.534 52.3464 124.434 50.8133C124.356 50.4525 124.142 50.1355 123.837 49.9285C123.531 49.7214 123.157 49.6402 122.793 49.7018C122.906 49.3463 122.909 48.9655 122.804 48.6078C122.699 48.2502 122.49 47.9319 122.203 47.6935ZM122.027 73.2266C123.115 71.7472 124.104 69.9919 123.897 67.9836C123.877 67.4553 123.74 66.9381 123.496 66.469C123.252 65.9999 122.907 65.5905 122.487 65.2701C121.521 64.6952 120.425 65.523 119.689 66.0826C115.964 68.8881 114.806 73.6636 113.764 77.7568C113.549 78.623 113.319 79.5122 113.189 80.386C112.706 82.0494 114.009 82.3944 115.12 82.4863C118.409 82.7393 123.223 80.8766 126.55 79.9415C128.159 79.4892 130.858 78.7303 130.812 76.3848C130.781 73.8015 126.182 71.41 122.027 73.2266ZM117.734 46.6434C117.763 46.6814 117.8 46.7123 117.842 46.7336C117.885 46.7549 117.932 46.766 117.98 46.766C118.027 46.766 118.074 46.7549 118.117 46.7336C118.159 46.7123 118.196 46.6814 118.225 46.6434C120.464 43.3554 122.467 39.9127 124.219 36.3412C125.637 33.2751 123.913 29.3274 120.685 30.025C119.367 30.3316 118.225 31.3511 117.297 33.0528C116.982 31.9854 116.272 31.0781 115.312 30.5156C112.131 28.7219 108.505 32.1713 110.26 35.3524C112.301 39.3958 114.809 43.1855 117.734 46.6434ZM65.9231 52.3387C65.9289 52.5531 65.9572 52.7664 66.0074 52.9749C66.0534 53.4348 66.1148 53.9254 66.5747 53.9254C66.6351 53.9234 66.6945 53.9096 66.7496 53.8846C66.8046 53.8596 66.8542 53.8241 66.8955 53.7799C66.9368 53.7358 66.969 53.6839 66.9902 53.6274C67.0115 53.5708 67.0213 53.5106 67.0193 53.4502C66.9469 53.0347 66.8366 52.6267 66.6897 52.2314C66.6523 52.1537 66.5913 52.09 66.5154 52.0493C66.4394 52.0086 66.3525 51.9932 66.2672 52.0051C66.1819 52.017 66.1026 52.0558 66.0407 52.1158C65.9789 52.1757 65.9377 52.2538 65.9231 52.3387ZM74.7155 51.0969C74.6328 51.0345 74.5301 51.0047 74.4269 51.0132C74.3237 51.0217 74.2272 51.0679 74.1559 51.1429C73.8263 51.2962 73.7726 53.0899 74.5008 53.0899C74.6119 53.0933 74.7205 53.0563 74.8064 52.9859C74.8924 52.9154 74.9499 52.8162 74.9684 52.7066C74.9684 52.3617 74.9224 52.4 74.9224 52.17C74.9224 51.3575 74.8611 51.2119 74.7155 51.0969ZM99.0534 117.57C98.7085 116.934 97.8039 117.134 97.5203 117.793C97.4474 117.699 97.356 117.621 97.2518 117.563C97.1476 117.506 97.0328 117.47 96.9143 117.459C96.7959 117.447 96.6764 117.46 96.5631 117.496C96.4498 117.533 96.3452 117.592 96.2555 117.67C96.127 117.786 96.0251 117.929 95.9569 118.088C95.8886 118.247 95.8555 118.42 95.8598 118.593C95.8642 118.766 95.9059 118.936 95.9822 119.092C96.0584 119.247 96.1673 119.385 96.3015 119.494C96.7614 119.822 97.2517 120.104 97.7656 120.338C97.8457 120.391 97.9381 120.422 98.0339 120.43C98.2485 120.43 98.3405 120.085 98.4248 119.924C98.9461 118.858 99.291 118.299 99.0534 117.57ZM89.3336 119.632C89.4639 120.399 89.5789 121.257 89.6325 121.51L91.089 121.173C91.1963 121.173 91.2039 121.227 90.8207 119.356C90.3171 119.399 89.819 119.492 89.3336 119.632Z" fill="white"/>
<path d="M89.4104 117.617C88.8553 117.835 88.3698 118.2 88.0054 118.672C87.641 119.145 87.4113 119.707 87.3407 120.299C87.2763 120.674 87.294 121.058 87.3926 121.425C87.4913 121.792 87.6685 122.133 87.912 122.424C88.1555 122.716 88.4595 122.951 88.8029 123.114C89.1464 123.276 89.521 123.362 89.9009 123.365C90.4901 123.34 91.0627 123.162 91.5634 122.851C92.0642 122.539 92.4763 122.104 92.7601 121.587C93.6186 119.579 91.7176 116.973 89.4104 117.617ZM91.7099 121.281V121.388C91.5413 121.802 91.296 121.84 89.9393 122.078L89.7246 122.116C89.6441 122.142 89.559 122.152 89.4746 122.144C89.3902 122.136 89.3084 122.111 89.2341 122.07C89.1737 122.03 89.1235 121.977 89.0876 121.915C89.0516 121.852 89.0309 121.782 89.0271 121.71C89.0271 121.633 89.0271 121.411 88.9658 121.127C88.8787 120.621 88.83 120.108 88.8201 119.594C88.7895 119.497 88.7895 119.393 88.8201 119.295C88.8465 119.235 88.8866 119.181 88.9371 119.138C88.9876 119.096 89.0473 119.066 89.1114 119.05C89.6806 118.9 90.2594 118.79 90.8438 118.72C90.9456 118.719 91.0453 118.75 91.1281 118.809C91.2109 118.869 91.2725 118.953 91.3037 119.05C91.4493 119.77 91.5336 120.223 91.595 120.522C91.6772 120.766 91.7161 121.023 91.7099 121.281Z" fill="white"/>
</svg>
