<svg width="200" height="200" viewBox="0 0 200 200" fill="none" xmlns="http://www.w3.org/2000/svg">
<path d="M136.048 30.0607C136.042 30.0477 136.033 30.0366 136.022 30.0287C136.01 30.0209 135.997 30.0167 135.983 30.0167C135.969 30.0167 135.955 30.0209 135.943 30.0287C135.932 30.0366 135.923 30.0477 135.918 30.0607C135.918 30.6807 135.018 31.0607 135.268 31.7607C135.378 32.0607 135.788 32.2707 136.018 31.9707C136.026 31.9559 136.03 31.9395 136.031 31.9226C136.032 31.9057 136.029 31.8889 136.022 31.8734C136.015 31.858 136.005 31.8442 135.992 31.8334C135.979 31.8225 135.964 31.8147 135.948 31.8107H135.838C135.358 31.8107 135.358 31.4707 135.898 30.8107C135.979 30.7061 136.036 30.5838 136.062 30.4535C136.088 30.3233 136.083 30.1887 136.048 30.0607ZM138.168 29.0507C138.228 29.2107 138.488 29.1607 138.518 29.0007C138.517 28.6632 138.474 28.3271 138.388 28.0007C138.388 27.9636 138.373 27.928 138.347 27.9017C138.32 27.8755 138.285 27.8607 138.248 27.8607C138.21 27.8607 138.175 27.8755 138.149 27.9017C138.122 27.928 138.108 27.9636 138.108 28.0007C138.042 28.3504 138.063 28.7108 138.168 29.0507ZM133.608 28.2807C133.608 28.5907 133.608 29.2007 133.918 29.3907C133.932 29.3989 133.949 29.4035 133.966 29.4043C133.983 29.4051 133.999 29.402 134.015 29.3952C134.03 29.3884 134.044 29.3782 134.055 29.3653C134.066 29.3523 134.074 29.3371 134.078 29.3207C134.028 28.9826 133.955 28.6484 133.858 28.3207C133.838 28.1307 133.608 28.1207 133.608 28.2807ZM132.648 27.0707C132.629 27.1012 132.623 27.1378 132.632 27.1725C132.64 27.2072 132.662 27.2371 132.693 27.2557C132.723 27.2743 132.76 27.28 132.794 27.2715C132.829 27.2631 132.859 27.2412 132.878 27.2107C133.028 27.0107 133.878 26.4207 133.978 26.2107C133.991 26.1949 133.999 26.1758 134.002 26.1556C134.005 26.1353 134.002 26.1146 133.993 26.0959C133.985 26.0772 133.972 26.0612 133.955 26.0497C133.938 26.0382 133.918 26.0316 133.898 26.0307C133.348 26.0207 132.868 26.6407 132.648 27.0707ZM138.268 25.7607C138.768 25.8207 139.028 26.2207 139.268 26.6007C139.284 26.6298 139.31 26.6524 139.341 26.665C139.372 26.6776 139.407 26.6795 139.439 26.6703C139.471 26.6611 139.499 26.6413 139.519 26.6142C139.539 26.5871 139.549 26.5542 139.548 26.5207C139.548 25.8707 138.838 25.4707 138.248 25.4607C138.068 25.4507 138.078 25.7407 138.268 25.7607ZM148.268 59.5707C150.418 59.4407 152.528 58.8307 154.678 58.6407C154.848 58.6407 154.848 58.3507 154.678 58.3707C152.508 58.5622 150.359 58.9471 148.258 59.5207L148.268 59.5707ZM137.918 60.0007C138.078 60.0007 138.008 59.7307 137.848 59.7507C135.618 60.1007 133.378 60.5007 131.158 60.9207C131.098 60.9207 131.158 61.0307 131.158 61.0307C133.428 60.7207 135.688 60.3907 137.918 60.0007ZM104.938 117.001L88.9975 105.901L85.9775 110.931L107.208 124.971L124.988 92.0607L119.868 89.6607L104.938 117.001Z" fill="white"/>
<path d="M131.928 77.6508C131.658 76.9708 131.528 77.0608 130.808 76.9108C129.618 76.6508 128.418 76.4208 127.218 76.1808C123.498 75.4308 119.848 74.1808 116.218 73.1808C112.547 72.1963 108.96 70.9258 105.488 69.3808C104.488 68.9408 103.568 68.5108 102.648 67.9908C102.098 67.6708 100.958 66.6708 100.348 66.7108C99.9979 66.7108 100.168 66.7108 99.7679 67.0508C99.0179 67.7508 98.2879 68.4408 97.4979 69.0508C94.4079 71.458 91.1195 73.599 87.6679 75.4508C82.3607 78.6684 76.8337 81.5088 71.1279 83.9508C71.0882 83.9616 71.0531 83.985 71.0279 84.0175C71.0027 84.0499 70.9886 84.0897 70.9879 84.1308C70.4759 90.0682 71.0313 96.0493 72.6279 101.791C74.1184 107.581 75.9108 113.288 77.9979 118.891C81.7179 129.061 87.2679 138.511 95.4779 145.621C104.048 153.051 111.478 154.351 111.548 154.281C114.555 151.992 117.31 149.391 119.768 146.521C125.464 140.167 129.903 132.79 132.848 124.781C134.644 119.792 135.77 114.586 136.198 109.301C136.758 102.301 135.758 95.3908 134.548 88.4608C134.064 84.7741 133.186 81.15 131.928 77.6508ZM134.568 117.651C133.214 124.237 130.647 130.513 126.998 136.161C117.808 149.701 111.518 153.891 111.418 153.961C102.132 150.814 94.025 144.912 88.1779 137.041C85.4161 133.409 83.0431 129.498 81.0979 125.371C78.9541 120.557 77.1139 115.614 75.5879 110.571C73.9275 105.757 72.6403 100.822 71.7379 95.8108C71.2998 93.1471 71.0957 90.4501 71.1279 87.7508C71.1279 87.1108 71.2479 84.3308 71.2379 84.3408C71.3379 84.1708 78.6879 81.0308 81.7879 79.2708C85.9979 76.8308 90.3579 74.5708 94.3979 71.8108C96.1674 70.6409 97.8395 69.33 99.3979 67.8908C99.9579 67.3708 100.178 67.1008 100.938 67.4108C101.468 67.6208 104.608 69.4108 105.708 69.8608C110.126 71.7235 114.679 73.2479 119.328 74.4208C121.758 75.1108 124.188 75.9008 126.658 76.4208C128.222 76.6651 129.772 76.999 131.298 77.4208C131.868 77.7808 133.008 82.3308 133.298 83.5308C133.838 86.0108 134.238 88.5308 134.668 91.0108C136.178 99.9308 136.588 108.761 134.568 117.671V117.651ZM65.6479 36.5108C65.6329 36.5275 65.6228 36.548 65.6189 36.5701C65.615 36.5922 65.6173 36.6149 65.6256 36.6357C65.634 36.6566 65.6479 36.6746 65.666 36.6879C65.6841 36.7012 65.7055 36.7091 65.7279 36.7108C65.9108 36.6878 66.0809 36.6046 66.2113 36.4742C66.3417 36.3438 66.4249 36.1738 66.4479 35.9908C66.4479 35.8208 65.8379 35.0708 65.7379 34.7308C65.7318 34.7132 65.7203 34.6979 65.7051 34.687C65.6898 34.6762 65.6716 34.6704 65.6529 34.6704C65.6342 34.6704 65.616 34.6762 65.6008 34.687C65.5855 34.6979 65.574 34.7132 65.5679 34.7308C65.4779 35.0208 66.1579 35.8408 66.1179 36.0608C66.0779 36.2808 65.7979 36.3608 65.6479 36.5108ZM67.4879 33.2708C67.3928 33.5952 67.3522 33.9331 67.3679 34.2708C67.3679 34.5608 67.8179 34.5608 67.8279 34.2708C67.8732 33.9335 67.8354 33.5902 67.7179 33.2708C67.7069 33.2499 67.6903 33.2324 67.6701 33.2201C67.6498 33.2079 67.6266 33.2014 67.6029 33.2014C67.5792 33.2014 67.556 33.2079 67.5358 33.2201C67.5155 33.2324 67.4989 33.2499 67.4879 33.2708ZM63.4179 33.2408C63.3251 33.5677 63.3251 33.9139 63.4179 34.2408C63.4179 34.4508 63.8179 34.4208 63.7979 34.2408C63.7779 34.0608 63.7279 33.6208 63.6879 33.3108C63.6972 33.275 63.6919 33.237 63.6731 33.2051C63.6544 33.1732 63.6237 33.1501 63.5879 33.1408C63.5521 33.1315 63.5141 33.1369 63.4822 33.1556C63.4503 33.1744 63.4272 33.205 63.4179 33.2408ZM62.5679 32.9608C62.7279 32.7508 63.5679 32.0908 63.6879 31.9008C63.7083 31.881 63.7217 31.8551 63.726 31.827C63.7303 31.7989 63.7252 31.7701 63.7116 31.7452C63.698 31.7202 63.6766 31.7004 63.6506 31.6888C63.6247 31.6771 63.5956 31.6743 63.5679 31.6808C63.0345 31.877 62.588 32.2562 62.3079 32.7508C62.1979 32.9108 62.4479 33.1008 62.5679 32.9608ZM67.2879 31.8008C67.6514 31.9837 67.9879 32.2159 68.2879 32.4908C68.3075 32.5108 68.3326 32.5245 68.36 32.53C68.3875 32.5356 68.4159 32.5328 68.4418 32.5221C68.4676 32.5113 68.4896 32.4931 68.505 32.4697C68.5203 32.4463 68.5283 32.4188 68.5279 32.3908C68.5279 32.1308 67.5279 31.5508 67.2579 31.5708C67.2334 31.5809 67.213 31.5987 67.1997 31.6216C67.1864 31.6445 67.1811 31.6711 67.1845 31.6974C67.1879 31.7236 67.1999 31.748 67.2186 31.7667C67.2373 31.7854 67.2617 31.7974 67.2879 31.8008ZM62.6279 38.1008H62.5379C62.5379 38.7408 63.9579 40.0408 65.8479 39.2308C65.9379 39.2308 65.8479 39.0408 65.7779 39.0708C65.2222 39.302 64.6031 39.3315 64.0278 39.1544C63.4526 38.9772 62.9574 38.6046 62.6279 38.1008ZM24.3179 122.571C21.0079 122.901 17.6179 122.381 14.3179 122.791C14.3179 122.791 14.2479 122.851 14.2479 122.881C13.9862 125.608 14.0399 128.356 14.4079 131.071C14.41 131.096 14.4181 131.119 14.4317 131.14C14.4452 131.161 14.4638 131.178 14.4856 131.19C14.5074 131.202 14.5318 131.208 14.5566 131.208C14.5815 131.209 14.606 131.202 14.6279 131.191C17.8479 131.361 21.2179 131.251 24.4479 131.101C24.5379 131.101 24.5779 130.901 24.5779 130.881C24.6748 128.15 24.6213 125.416 24.4179 122.691C24.4193 122.676 24.4178 122.662 24.4135 122.648C24.4092 122.634 24.4022 122.621 24.3929 122.61C24.3836 122.599 24.3722 122.59 24.3593 122.583C24.3465 122.576 24.3324 122.572 24.3179 122.571ZM14.6179 125.461C14.6179 124.621 14.6179 123.781 14.5579 122.931C17.7232 123.093 20.8953 123.07 24.0579 122.861C23.9795 123.835 23.9561 124.814 23.9879 125.791C20.8723 125.521 17.7444 125.421 14.6179 125.491V125.461ZM14.8279 130.851C14.6779 129.181 14.6579 127.521 14.6379 125.851C16.1179 125.851 17.6379 125.911 19.0779 125.951C18.9576 127.523 19.0484 129.103 19.3479 130.651C17.8374 130.587 16.3241 130.664 14.8279 130.881V130.851ZM19.8279 130.681C19.8279 129.791 19.5979 126.611 19.4679 125.921C20.9579 125.921 23.9779 126.171 23.9879 126.171C23.9879 127.691 24.1379 129.221 24.1679 130.721C22.7779 130.821 21.3079 130.751 19.8579 130.711L19.8279 130.681Z" fill="white"/>
<path d="M194.318 129.271C194.111 127.894 193.432 126.632 192.398 125.701C191.148 124.751 189.488 124.911 188.018 124.961C185.818 125.031 181.288 125.461 181.288 125.451C180.528 123.321 179.858 121.141 178.978 119.071C178.373 117.308 177.112 115.847 175.458 114.991C173.838 114.291 166.238 114.831 162.718 115.151C165.368 106.391 165.508 94.2806 165.508 91.9406C165.875 91.6934 166.191 91.3776 166.438 91.0106C167.228 89.7006 166.678 87.6805 166.558 86.2705C166.218 82.4405 166.008 78.5505 165.468 74.7405C166.489 73.7012 167.382 72.5429 168.128 71.2906C170.548 67.2206 170.558 62.6905 169.438 58.1805C168.318 53.6705 165.158 50.1805 161.608 47.1205C158.081 43.9181 153.7 41.8093 148.998 41.0505C148.514 40.2053 147.955 39.4054 147.328 38.6605L146.448 39.1705C146.448 37.8205 145.888 32.0406 145.888 32.0406C146.708 31.8206 148.328 29.4505 148.578 27.7105C148.697 26.0152 148.401 24.3164 147.714 22.7617C147.028 21.2071 145.971 19.8438 144.638 18.7905C140.938 15.7905 133.638 17.2005 132.028 18.4205C131.585 18.7696 131.074 19.0213 130.528 19.1592C129.982 19.2971 129.413 19.318 128.858 19.2205C128.858 19.2205 130.198 20.5605 129.378 20.8105C128.558 21.0605 127.998 19.7005 127.998 19.7005C127.808 22.4205 128.898 23.1005 128.898 23.1005C132.488 26.9605 135.198 23.8705 135.198 23.8705C135.198 23.8705 135.568 22.6705 139.428 23.5405C139.925 23.6115 140.401 23.7868 140.826 24.0549C141.25 24.323 141.613 24.6779 141.891 25.0963C142.169 25.5147 142.355 25.9871 142.437 26.4824C142.519 26.9778 142.495 27.4849 142.368 27.9705L142.858 28.1705C143.042 27.9028 143.249 27.6518 143.478 27.4205C145.658 25.9105 146.218 28.2005 146.218 28.2005C146.658 30.0605 144.368 30.6005 144.368 30.6005C144.428 33.1805 143.958 33.6005 143.958 33.6005C142.098 35.8305 140.208 33.4105 140.208 33.4105C139.79 32.9295 139.264 32.5552 138.672 32.3186C138.081 32.0821 137.442 31.9902 136.808 32.0505C134.448 32.1505 134.808 32.9006 133.808 33.6306C133.178 34.0906 132.538 33.5705 132.148 33.1405C132.148 32.2905 131.808 28.9605 131.618 28.1405V25.2305C130.917 25.0259 130.278 24.6515 129.758 24.1405C128.758 27.1405 130.888 28.0605 131.478 28.2705C131.548 29.1805 131.218 36.1105 132.478 38.7105C132.815 39.4335 133.325 40.0619 133.964 40.54C134.602 41.018 135.349 41.3308 136.138 41.4506C136.028 42.0406 135.918 43.0206 135.898 43.2906C133.438 43.6506 131.448 45.2306 129.538 46.7206C127.246 48.4716 125.12 50.4299 123.188 52.5705C119.706 56.3492 117.441 61.0878 116.688 66.1705L113.258 65.1705C113.307 64.9507 113.331 64.7259 113.328 64.5005C113.325 64.0982 113.2 63.706 112.971 63.3754C112.741 63.0448 112.418 62.7911 112.042 62.6475C111.666 62.5038 111.255 62.4769 110.864 62.5702C110.472 62.6635 110.118 62.8728 109.848 63.1705C109.65 63.444 109.508 63.753 109.428 64.0806C109.428 64.0806 103.688 61.5406 100.818 60.3106C100.208 59.916 99.4675 59.7794 98.7577 59.9305C97.6592 60.5184 96.6846 61.3129 95.8876 62.2705V62.2105C94.8876 60.9805 92.6877 61.0805 92.3677 62.8705C92.3054 63.3929 92.3885 63.9223 92.6077 64.4006C92.1077 64.7706 91.6076 65.1606 91.0276 65.5406C89.6276 62.0806 88.2976 58.4706 86.0276 55.5406C84.1412 53.0319 81.8658 50.8409 79.2877 49.0505C75.751 46.5308 71.4882 45.2352 67.1476 45.3605L66.8876 44.7305C66.8876 44.3205 66.8076 43.9105 66.7576 43.5105C70.0076 43.7805 71.6976 38.8905 71.6976 38.8905C71.8121 39.7352 71.7265 40.595 71.4476 41.4006C71.4476 41.4006 74.7477 36.6605 72.7977 28.7905C70.8477 20.9205 63.7976 22.5705 63.7976 22.5705C55.4276 17.7205 51.0776 26.4105 51.0776 26.4105C45.9776 38.7505 55.0776 43.9105 55.0776 43.9105C54.1976 43.2505 54.4776 41.7705 54.4776 41.7705C54.9342 42.4155 55.5317 42.948 56.2248 43.3274C56.9179 43.7069 57.6883 43.9234 58.4776 43.9605C58.4776 44.2705 58.3676 44.6105 58.3376 44.9605L58.1276 45.7006C49.4176 48.7706 41.7476 54.4205 38.7576 63.4805C37.3376 67.7705 37.2476 72.2306 39.4076 76.3006C41.2224 79.6038 44.2141 82.1029 47.7876 83.3006C47.7444 83.8863 47.8365 84.4741 48.0567 85.0186C48.2769 85.563 48.6194 86.0496 49.0576 86.4406C48.3776 86.7506 46.6276 88.0106 45.6276 93.0106C45.2176 95.0706 44.4576 98.6706 43.6276 102.581C39.2576 99.1606 32.8376 93.9405 32.7376 94.0205C23.3576 101.571 5.04765 117.491 5.04765 117.511C5.02772 117.527 5.01308 117.549 5.0056 117.573C4.99812 117.598 4.99813 117.624 5.00563 117.649C5.01313 117.674 5.02778 117.695 5.04773 117.712C5.06767 117.728 5.09201 117.738 5.11765 117.741C6.62765 117.871 8.11765 117.961 9.66765 118.011C9.66765 127.301 10.4476 146.011 10.4876 146.011H6.99765C6.92773 147.579 6.98793 149.152 7.17765 150.711C14.0776 150.711 40.0676 150.531 49.3176 150.351C49.6176 154.761 49.9876 160.061 49.9876 160.061C49.3776 160.301 46.7576 161.861 45.9376 162.221C44.8376 162.701 43.9376 163.291 44.0776 164.621C44.1244 164.673 44.1826 164.714 44.2476 164.741C47.8519 165.011 51.4753 164.87 55.0476 164.321C55.1268 164.295 55.1942 164.242 55.2376 164.171C55.5227 163.16 55.5227 162.091 55.2376 161.081L59.7076 142.481C60.3676 139.851 62.7976 129.361 63.3976 126.771C65.9175 126.755 68.4346 126.602 70.9377 126.311C71.9377 129.371 74.7377 141.071 75.8577 143.571C76.9777 146.071 77.0977 147.101 77.1177 147.111C79.9677 147.911 82.3277 148.921 85.7477 146.111C85.7782 146.08 85.8195 146.063 85.8626 146.063C85.9058 146.063 85.9472 146.08 85.9777 146.111C86.0082 146.141 86.0253 146.182 86.0253 146.226C86.0253 146.269 86.0082 146.31 85.9777 146.341C83.9177 148.551 79.5676 148.841 77.0876 147.181L81.4377 159.971C81.1646 161.249 81.1646 162.572 81.4377 163.851C81.4377 163.931 87.9777 163.851 91.1877 163.761C91.2877 163.761 91.3677 163.561 91.3677 163.541C91.3966 163.043 91.2759 162.549 91.021 162.121C90.766 161.693 90.3887 161.352 89.9377 161.141C89.3577 160.811 86.7477 159.561 86.0477 159.211V144.371C87.2961 146.015 88.6703 147.559 90.1577 148.991C93.5774 152.097 97.2576 154.904 101.158 157.381C104.658 159.731 108.348 162.061 112.418 163.271C112.498 163.271 123.178 156.411 128.848 147.961V151.811C129.299 152.275 129.859 152.619 130.478 152.811C130.558 153.64 130.685 154.465 130.858 155.281C129.398 156.281 127.148 157.801 126.768 159.621C126.72 159.788 126.708 159.963 126.732 160.135C126.756 160.307 126.816 160.473 126.908 160.621C126.388 163.111 131.998 162.621 133.198 162.461C134.758 162.251 140.198 161.941 139.278 159.151C139.278 159.151 139.568 155.651 138.588 155.041C138.677 154.233 138.677 153.418 138.588 152.611C139.988 152.311 140.968 152.011 140.968 152.011L142.208 121.011C144.518 132.911 153.918 152.931 153.918 152.931C154.64 153.036 155.368 153.089 156.098 153.091C156.38 153.781 156.715 154.45 157.098 155.091C156.328 155.821 152.388 159.581 154.508 160.871C154.968 163.331 158.838 161.961 160.268 161.351C161.168 160.971 166.628 158.351 164.898 156.921C164.898 156.921 163.608 153.811 163.168 153.641C163.082 152.822 162.9 152.017 162.628 151.241C163.144 150.917 163.623 150.538 164.058 150.111C164.058 150.111 163.058 144.341 162.058 138.541C167.298 138.692 172.542 138.38 177.728 137.611C177.798 137.611 177.848 137.511 177.858 137.441C177.858 136.101 177.948 134.681 178.988 133.701C179.918 132.942 181.032 132.442 182.218 132.251C185.378 131.571 186.738 133.691 187.538 136.361C187.538 136.431 192.488 136.131 194.888 136.221C195.018 136.221 195.068 135.941 195.068 135.911C195.054 133.677 194.802 131.451 194.318 129.271ZM135.998 23.2605C134.658 24.0305 132.948 22.8805 132.538 21.5705C132.538 21.5005 132.618 21.4505 132.658 21.5205C132.978 22.1005 134.258 23.5805 135.918 22.9705C135.998 22.9205 136.108 23.1905 135.998 23.2605ZM159.868 46.1605C163.368 48.8205 167.048 52.2205 168.568 56.4405C170.088 60.6605 170.508 65.9106 168.418 70.0806C166.396 73.8498 163.201 76.8581 159.318 78.6506C154.872 80.6955 150.031 81.7401 145.138 81.7105C145.112 81.7005 145.083 81.7005 145.058 81.7105C144.123 79.8127 143.025 77.9992 141.778 76.2906C147.389 72.708 153.187 69.4267 159.148 66.4605C159.171 66.4465 159.19 66.4254 159.2 66.4003C159.211 66.3751 159.214 66.3472 159.208 66.3205C158.597 64.2622 158.192 62.1486 157.998 60.0105C157.998 59.9205 157.848 59.9105 157.848 60.0105C157.894 61.7199 158.122 63.4194 158.528 65.0806C158.728 65.9406 159.208 66.0806 158.468 66.5106C157.028 67.2606 147.638 72.2506 144.468 74.1906C144.328 72.4906 143.858 64.5905 143.878 64.5705C145.248 62.2805 150.438 52.8405 151.878 50.5705C151.889 50.5594 151.898 50.5462 151.904 50.5316C151.91 50.517 151.913 50.5013 151.913 50.4855C151.913 50.4698 151.91 50.4541 151.904 50.4395C151.898 50.4249 151.889 50.4117 151.878 50.4006C151.271 49.4125 150.542 48.5053 149.708 47.7006C150.822 46.8324 152.029 46.0911 153.308 45.4905C153.418 45.4905 153.548 45.4005 153.468 45.2805C152.649 43.9639 151.69 42.74 150.608 41.6306C153.966 42.4825 157.109 44.0254 159.838 46.1605H159.868ZM139.468 80.9006C137.578 82.5906 137.468 81.6205 137.418 81.3105C138.119 80.9377 138.768 80.4737 139.348 79.9305C139.348 79.9305 139.288 79.7705 139.238 79.8105C138.828 80.0905 136.538 82.0206 136.538 80.8706C137.282 79.9471 138.142 79.1236 139.098 78.4205C138.958 78.1505 138.458 78.4205 138.328 76.7505C138.958 77.2277 139.727 77.4842 140.518 77.4806C140.992 77.5049 141.462 77.3865 141.868 77.1405C142.232 77.9002 142.647 78.6351 143.108 79.3405C142.478 79.9461 141.81 80.5106 141.108 81.0305C140.478 81.4705 139.108 82.5605 138.308 82.0305C138.769 81.7262 139.21 81.3922 139.628 81.0305C139.648 80.9705 139.498 80.8506 139.438 80.9006H139.468ZM150.348 41.5705C150.718 42.1805 152.728 44.6605 153.238 45.3605C151.855 45.8097 150.614 46.613 149.638 47.6905L151.738 50.4405C149.078 55.0105 145.948 59.4405 143.868 64.3505C144.595 56.6422 146.178 49.0388 148.588 41.6805L148.948 41.3005L150.348 41.5705ZM147.278 38.8905C147.688 39.6705 148.278 40.3306 148.708 41.1306C147.368 42.5306 145.888 43.7506 144.478 45.1306C143.949 43.9154 143.277 42.7674 142.478 41.7105C144.183 40.9703 145.794 40.0304 147.278 38.9105V38.8905ZM141.698 41.1205C144.848 40.4305 145.638 36.4106 145.838 33.9506C145.838 34.4506 146.038 37.9505 146.188 39.2105C146.182 39.2336 146.182 39.2575 146.188 39.2805L142.298 41.5705C141.867 42.3604 141.499 43.1829 141.198 44.0305C140.861 43.1394 140.46 42.2739 139.998 41.4405C140.568 41.3705 141.118 41.2705 141.698 41.1405V41.1205ZM141.068 44.4805C141.064 44.5016 141.064 44.5231 141.068 44.5441C141.073 44.565 141.081 44.5848 141.093 44.6025C141.105 44.6201 141.121 44.6352 141.139 44.6469C141.157 44.6586 141.177 44.6666 141.198 44.6705C141.219 44.6745 141.24 44.6743 141.261 44.6698C141.282 44.6654 141.302 44.657 141.32 44.6449C141.337 44.6328 141.352 44.6174 141.364 44.5995C141.376 44.5816 141.384 44.5616 141.388 44.5406C141.688 43.6306 142.128 42.7505 142.388 41.8405C142.943 43.0609 143.613 44.2261 144.388 45.3205C145.769 44.3277 147.069 43.2277 148.278 42.0305C144.988 49.3005 143.748 59.7005 143.558 63.1205C142.758 60.1205 139.188 47.9005 137.868 44.9305C138.204 45.1405 138.583 45.2705 138.978 45.3106C139.228 44.8806 139.698 42.2405 139.978 41.5105C139.998 41.6605 140.838 43.9105 141.068 44.5005V44.4805ZM136.438 35.8205C136.655 35.8846 136.883 35.9025 137.107 35.8731C137.331 35.8438 137.547 35.7678 137.74 35.65C137.933 35.5323 138.099 35.3754 138.228 35.1895C138.357 35.0035 138.445 34.7927 138.488 34.5705C138.488 34.4405 138.758 34.5105 138.738 34.6405C138.448 36.4705 136.738 36.3305 136.408 35.8905C136.388 35.8805 136.408 35.8405 136.438 35.8405V35.8205ZM136.378 41.4805C137.515 41.6448 138.67 41.6448 139.808 41.4805C139.35 42.6252 138.989 43.8059 138.728 45.0105C138.428 44.8105 136.668 43.7905 136.128 43.4305C136.138 43.4105 136.338 42.2005 136.378 41.5005V41.4805ZM135.998 43.5705C136.467 44.0098 136.983 44.3955 137.538 44.7206C138.408 48.0506 142.538 60.6606 143.348 63.7206C142.098 61.9406 135.428 54.7205 133.758 52.5805C134.241 51.5046 134.655 50.399 134.998 49.2705C134.122 48.9311 133.214 48.6831 132.288 48.5305C133.291 47.1023 134.089 45.5404 134.658 43.8905C135.068 43.7505 135.998 43.5705 135.998 43.5705ZM116.908 66.1906C117.791 61.195 120.037 56.5406 123.398 52.7405C125.01 50.9277 126.773 49.2551 128.668 47.7405C130.364 46.1693 132.311 44.8918 134.428 43.9605C133.558 45.4505 132.728 47.2305 131.778 48.6905C131.698 48.8205 133.848 49.2305 134.708 49.5305C134.518 49.8505 133.658 52.0705 133.408 52.6705C133.408 52.7405 142.008 62.3706 143.578 64.5806C143.448 66.1206 144.338 74.3005 144.348 74.3105C143.418 74.8805 142.428 75.5306 141.538 76.1506C141.458 76.1506 141.758 76.6806 141.848 76.8706C141.477 77.0552 141.071 77.1575 140.658 77.1705C140.768 75.0405 140.578 72.5705 138.758 71.1705C137.959 70.5961 137.018 70.2503 136.038 70.1705C134.448 69.9705 132.858 69.8806 131.268 69.6506C130.588 69.5506 129.898 69.4306 129.218 69.3006V69.2405C128.665 66.1833 128.451 63.0747 128.578 59.9706C128.578 59.8906 128.448 59.8606 128.428 59.9706C128.059 63.0702 128.207 66.2096 128.868 69.2606C124.798 68.4906 120.868 67.3305 116.868 66.1805L116.908 66.1906ZM109.658 64.1906C109.752 63.7177 110.02 63.297 110.408 63.0105C110.711 62.8162 111.068 62.723 111.427 62.7446C111.787 62.7662 112.13 62.9013 112.408 63.1306C112.712 63.3914 112.931 63.7378 113.037 64.1248C113.142 64.5117 113.128 64.9214 112.998 65.3006C112.858 65.7706 112.108 67.1606 111.508 66.0506C111.544 65.9695 111.574 65.8859 111.598 65.8006C111.695 65.3683 111.769 64.931 111.818 64.4905C111.698 64.8905 111.628 65.3205 111.488 65.7105C111.456 65.8343 111.399 65.95 111.32 66.05C111.241 66.15 111.141 66.232 111.028 66.2906C110.708 66.4006 110.468 66.1505 110.348 65.8805C110.541 65.2808 110.658 64.6594 110.698 64.0305C110.64 64.6901 110.464 65.3337 110.178 65.9305C109.978 66.2905 109.598 66.3305 109.468 65.9305C109.443 65.795 109.443 65.6561 109.468 65.5205C109.482 65.0683 109.545 64.6189 109.658 64.1805V64.1906ZM95.4777 62.1905C95.5677 62.2805 95.6476 62.3805 95.7376 62.4905C95.7384 62.5058 95.7436 62.5204 95.7524 62.5328C95.7613 62.5452 95.7735 62.5549 95.7877 62.5606C95.9969 62.8279 96.1592 63.1289 96.2676 63.4506C96.3976 63.8506 96.6676 64.8405 95.8376 64.4505C95.5872 64.0963 95.3097 63.762 95.0077 63.4506C94.9477 63.4506 95.0077 63.4506 95.0077 63.4506C95.1877 63.7706 96.6177 65.7406 95.0077 65.3006C94.8542 64.8367 94.6093 64.4083 94.2877 64.0406C94.2699 64.0281 94.2487 64.0217 94.227 64.0223C94.2053 64.023 94.1845 64.0307 94.1676 64.0442C94.1507 64.0577 94.1386 64.0764 94.1332 64.0974C94.1278 64.1184 94.1294 64.1405 94.1376 64.1605C94.3376 64.6205 95.4576 66.3405 94.1376 65.8805C93.386 65.437 92.8344 64.7206 92.5976 63.8805C92.4442 63.5049 92.431 63.0866 92.5606 62.702C92.6901 62.3175 92.9537 61.9924 93.3031 61.7861C93.6525 61.5799 94.0645 61.5062 94.4638 61.5786C94.863 61.651 95.2229 61.8647 95.4777 62.1805V62.1905ZM56.6476 40.0705C57.1299 40.0691 57.6073 40.1658 58.0509 40.355C58.4945 40.5441 58.8949 40.8216 59.2276 41.1705C59.0476 39.7305 56.8676 37.6805 56.8676 37.6805C54.3176 37.7405 54.8676 35.2206 54.8676 35.2206C54.9828 34.955 55.1603 34.7211 55.3851 34.5387C55.6099 34.3564 55.8754 34.2309 56.159 34.173C56.4426 34.1151 56.736 34.1265 57.0143 34.2061C57.2926 34.2858 57.5476 34.4314 57.7576 34.6306C57.7576 34.9406 58.2976 36.3605 59.0776 36.4205C59.8576 36.4805 59.5776 37.3005 59.5776 37.3005C59.5776 37.3005 60.1576 36.5506 59.5776 36.1306C58.9976 35.7106 58.9476 34.6205 58.9476 34.6205C62.2276 34.3205 64.5376 26.4305 64.5376 26.4305C65.3776 30.8005 70.1177 30.8805 70.1177 30.8805C70.1254 33.4743 69.9718 36.0659 69.6577 38.6405C69.5215 39.4202 69.1287 40.132 68.5417 40.6629C67.9546 41.1938 67.207 41.5132 66.4176 41.5705C66.4176 41.5705 66.4176 44.1905 66.5576 44.9205C65.4681 45.8608 64.0768 46.3781 62.6376 46.3781C61.1985 46.3781 59.8072 45.8608 58.7176 44.9205V43.9205C59.1818 43.9528 59.648 43.9327 60.1076 43.8605C57.3076 43.3105 56.6476 40.0705 56.6476 40.0705ZM58.1876 45.9205C59.1876 47.7805 64.8576 48.9206 67.1876 45.5406C68.29 45.5477 69.39 45.6413 70.4777 45.8205C69.7077 53.7505 57.9776 54.0305 55.1876 47.2405C56.1576 46.7805 57.1676 46.3505 58.1876 45.9205ZM40.6276 77.5705C35.2776 69.8105 39.2376 59.3606 45.4876 53.3806C48.2441 50.8584 51.4136 48.8288 54.8576 47.3806C55.9976 51.0106 60.5276 52.8306 64.0976 52.3806C65.7937 52.2211 67.3846 51.4882 68.6081 50.3029C69.8316 49.1176 70.6145 47.5507 70.8277 45.8605C73.6892 46.3602 76.4144 47.4537 78.8277 49.0705C81.3674 50.7846 83.6159 52.8947 85.4876 55.3205C87.9076 58.3905 89.2777 62.1106 90.7177 65.7206C88.3077 67.3906 85.4777 69.1405 82.5777 70.7805C82.0777 70.4005 80.9376 69.3905 80.7076 69.1805C80.7839 66.2183 80.1531 63.2805 78.8677 60.6105H78.7676C80.8276 65.7006 80.2576 69.9605 80.3476 71.9605C75.0676 74.8005 69.9676 77.0705 67.3476 77.6305C67.3476 77.6305 67.3476 77.4805 67.2676 77.4605C63.0776 76.0705 50.5876 71.6206 50.5676 71.6206C50.8262 69.9473 50.9964 68.2617 51.0776 66.5705C51.0776 66.5705 50.9976 66.5705 50.9976 66.6305C50.5676 68.2805 50.5076 70.0706 50.2376 71.7606C50.2326 71.7911 50.2365 71.8225 50.2489 71.8509C50.2613 71.8793 50.2817 71.9035 50.3076 71.9205C55.7476 74.2705 61.4876 75.9205 67.1276 77.7105C67.2601 79.6176 67.1729 81.5335 66.8676 83.4205C57.9976 84.2305 46.5276 86.1205 40.6276 77.5705ZM82.2676 70.9605C81.7076 71.2805 81.1377 71.5905 80.5777 71.8905C80.6377 71.1405 80.6777 70.3506 80.6877 69.5406C81.1632 70.0678 81.6928 70.5438 82.2676 70.9605ZM67.4576 79.1305C67.7898 79.2714 68.1469 79.3439 68.5076 79.3439C68.8684 79.3439 69.2255 79.2714 69.5576 79.1305C70.2976 78.7405 70.6676 77.9306 71.3376 77.4406C71.3816 77.9872 71.233 78.5319 70.9176 78.9806C70.8476 79.0706 70.9176 79.1805 71.0576 79.1705C71.7376 79.2705 73.1476 79.0006 73.6376 79.4006C74.3276 79.9506 71.8676 80.1905 71.2376 80.2705C71.1376 80.2705 71.1676 80.4306 71.2376 80.4406C72.0155 80.4359 72.7879 80.3111 73.5276 80.0705C74.1176 81.5705 71.6277 81.2306 71.1577 81.4006C71.1376 81.4071 71.1202 81.4198 71.1079 81.4369C71.0955 81.454 71.0889 81.4745 71.0889 81.4956C71.0889 81.5166 71.0955 81.5371 71.1079 81.5542C71.1202 81.5713 71.1376 81.584 71.1577 81.5905C71.7404 81.6304 72.3259 81.59 72.8977 81.4706C73.4277 82.7206 68.5376 83.7006 67.3076 82.0406C67.4438 81.0769 67.494 80.1031 67.4576 79.1305ZM52.1876 97.5705C52.1876 97.5105 52.3176 97.5705 52.3076 97.5705C52.0576 101.371 49.6576 116.831 48.9276 120.741C48.9276 120.851 48.7476 120.801 48.7676 120.741C49.2876 116.881 51.4276 101.411 52.1876 97.5705ZM44.2376 122.901C45.2825 123.424 46.3577 123.885 47.4576 124.281C47.4576 124.571 47.5176 124.971 47.5476 125.421C45.0676 125.181 42.7076 125.671 40.2376 125.501C40.2376 124.611 40.1676 122.971 40.1676 122.971C40.8376 122.951 42.7276 122.911 44.2376 122.931V122.901ZM44.9676 125.781H47.4976C47.5876 126.991 47.6876 128.651 47.7876 130.431C46.9 130.306 46.0016 130.275 45.1076 130.341C45.1557 128.83 45.119 127.317 44.9976 125.811L44.9676 125.781ZM44.7176 130.331C44.6076 130.331 41.7176 130.331 40.4076 130.391C40.4076 129.191 40.2376 126.151 40.2376 125.831C41.716 125.93 43.1993 125.93 44.6776 125.831C44.5002 127.336 44.5136 128.858 44.7176 130.361V130.331ZM5.83765 117.491C14.8376 109.631 23.5576 102.171 32.7576 94.4905C36.1676 97.4905 39.9276 100.171 43.5876 102.901C42.4576 108.151 41.2176 113.901 40.4976 117.211C31.2876 117.371 11.4676 117.571 5.83765 117.491ZM7.53765 150.421C7.60129 149.022 7.51412 147.62 7.27765 146.241C10.6276 146.641 40.7376 146.301 48.9976 146.171C49.0576 147.171 49.1576 148.521 49.2576 150.001C39.9976 150.001 14.3576 150.241 7.53765 150.421ZM30.4176 136.961C32.2475 136.817 34.0847 136.794 35.9176 136.891C35.9176 136.891 35.9176 144.371 36.0776 145.991L30.6076 146.081C30.5276 142.951 30.6076 140.071 30.4176 136.961ZM54.9576 163.961C49.3976 164.911 46.1076 164.361 44.3576 164.471C44.2876 164.021 45.0276 162.991 45.3576 162.741C45.6876 162.491 49.9976 160.431 49.9976 160.431C51.3476 162.881 54.1376 161.701 54.9976 161.271C55.2233 162.167 55.2233 163.105 54.9976 164.001L54.9576 163.961ZM58.4676 146.391C55.0276 147.901 51.6176 146.951 48.8876 144.501L48.9676 145.741L36.4476 145.941C36.5955 142.818 36.5053 139.689 36.1776 136.581C36.1776 136.581 31.9376 136.011 30.0476 136.511C29.9876 136.511 30.0976 142.911 30.1776 146.041L11.1776 145.971C11.1776 145.971 10.8376 127.261 10.3076 117.971C14.5676 118.101 31.7576 117.771 40.4476 117.591L39.9176 120.021C40.9993 121.026 42.2099 121.884 43.5176 122.571C42.3359 122.446 41.1416 122.527 39.9876 122.811C39.9812 122.833 39.9812 122.858 39.9876 122.881C39.7777 125.478 39.8179 128.09 40.1076 130.681C40.1076 130.681 40.1776 130.801 40.2276 130.801C41.4676 130.881 46.4576 130.651 47.9176 130.861C48.1476 134.991 48.4176 139.661 48.6776 141.261C48.6776 141.261 48.9676 144.391 49.0176 144.421C50.4276 145.421 53.9076 148.211 58.4176 146.221C58.5076 146.151 58.5976 146.381 58.4676 146.431V146.391ZM59.3176 142.511C54.9976 143.571 50.1976 141.731 48.9976 141.191C48.5976 138.271 48.3576 127.001 47.7476 124.401C52.6605 126.047 57.8169 126.848 62.9976 126.771C62.2176 129.271 59.8676 139.841 59.3176 142.571V142.511ZM57.8376 108.511C57.8446 108.488 57.8586 108.469 57.8775 108.455C57.8964 108.441 57.9192 108.433 57.9426 108.433C57.9661 108.433 57.9889 108.441 58.0078 108.455C58.0267 108.469 58.0407 108.488 58.0476 108.511C58.0476 111.951 58.1576 115.401 58.0476 118.841C58.0476 118.941 57.8876 118.941 57.8776 118.841C57.7276 115.451 57.8276 112.001 57.8376 108.571V108.511ZM65.4676 87.1906C63.2276 87.3106 52.4676 87.8106 49.3776 86.2906H49.3276C48.5405 85.4803 48.0658 84.4175 47.9876 83.2906C48.4076 83.4406 48.8476 83.5706 49.2776 83.6906C54.6676 85.1006 60.2776 84.2705 65.7076 83.7805C65.5541 84.9276 65.474 86.0833 65.4676 87.2405V87.1906ZM76.2376 143.681C75.2376 140.811 72.3177 129.001 71.1077 126.231C72.1077 126.111 74.2376 125.741 74.9876 125.611C75.9876 127.701 77.1877 129.721 78.2877 131.751C79.3877 133.781 80.5576 135.961 81.7676 138.011C82.7676 139.661 83.7676 141.281 84.8776 142.841C81.5276 145.191 77.5576 144.171 76.2376 143.731V143.681ZM90.7477 163.311C87.5777 163.381 85.0577 163.631 81.7477 163.451C81.5126 162.356 81.4753 161.228 81.6376 160.121C84.7376 162.691 85.9777 159.351 85.9777 159.351C86.6677 159.991 90.7177 161.861 90.7477 163.361V163.311ZM130.628 152.811C132.878 153.471 136.048 153.041 138.268 152.581C138.168 153.411 138.818 156.401 135.148 156.821C130.568 157.411 130.828 153.641 130.628 152.861V152.811ZM133.708 161.921C132.438 162.131 127.398 162.921 127.048 160.791C127.427 161.045 127.871 161.187 128.328 161.201C130.068 161.341 138.438 159.821 138.908 159.261C139.438 161.471 135.078 161.751 133.708 161.971V161.921ZM138.908 159.041C138.378 159.531 131.498 160.751 130.078 160.861C128.658 160.971 126.158 161.191 127.208 159.021C127.428 158.585 127.708 158.181 128.038 157.821C128.451 158.23 128.888 158.614 129.348 158.971C129.468 159.051 129.588 158.911 129.528 158.791C129.214 158.285 128.763 157.88 128.228 157.621C128.518 157.321 128.848 157.021 129.178 156.741C129.378 156.901 130.088 157.681 130.308 157.811C130.33 157.824 130.356 157.83 130.382 157.828C130.408 157.826 130.433 157.817 130.454 157.8C130.474 157.784 130.489 157.762 130.497 157.737C130.505 157.712 130.505 157.686 130.498 157.661C130.276 157.175 129.895 156.78 129.418 156.541L130.148 155.951C130.678 156.291 131.148 156.711 131.668 157.071C131.738 157.071 131.828 157.071 131.778 156.971C131.383 156.477 130.885 156.078 130.318 155.801C130.516 155.639 130.723 155.489 130.938 155.351C131.38 155.928 131.951 156.395 132.605 156.714C133.258 157.033 133.978 157.196 134.705 157.189C135.433 157.182 136.149 157.006 136.796 156.675C137.444 156.344 138.006 155.866 138.438 155.281C139.158 156.041 138.908 158.441 138.908 159.091V159.041ZM140.658 118.831C139.898 128.401 128.758 146.971 128.758 146.971V147.211C122.998 155.571 115.348 160.571 112.378 162.961C108.198 161.711 104.438 159.281 100.848 156.861C96.9846 154.387 93.3531 151.569 89.9977 148.441C86.8049 145.176 84.0669 141.497 81.8577 137.501C79.5377 133.501 77.5777 129.321 75.1577 125.411C74.1577 123.271 66.2876 105.251 65.8776 87.2206C65.969 86.0895 65.9857 84.9537 65.9276 83.8205L66.8676 83.7405C66.9298 83.7011 66.9759 83.6409 66.9976 83.5705C67.1102 83.1631 67.197 82.7489 67.2576 82.3306C67.7912 82.703 68.401 82.9518 69.0427 83.0591C69.6845 83.1663 70.342 83.1292 70.9677 82.9505C71.6977 82.7905 73.4976 82.4505 73.1276 81.3405C73.2412 81.2979 73.3487 81.2407 73.4476 81.1705C73.552 81.1172 73.6418 81.0392 73.7092 80.9433C73.7766 80.8474 73.8196 80.7365 73.8343 80.6202C73.8491 80.5039 73.8353 80.3857 73.794 80.276C73.7528 80.1663 73.6854 80.0683 73.5976 79.9905C73.9576 79.8105 74.1176 79.5605 73.8376 79.2105C73.6876 79.0858 73.5131 78.9937 73.3254 78.9403C73.1377 78.8869 72.9409 78.8734 72.7477 78.9006C72.2126 78.8937 71.6777 78.9271 71.1477 79.0005C71.5077 78.5005 71.6976 76.7806 71.2076 77.0806C70.7591 77.4275 70.3677 77.8425 70.0477 78.3105C69.2977 79.1705 68.4276 79.0805 67.4076 78.9205C67.4076 78.5705 67.4076 78.2205 67.3176 77.9205C69.3308 77.6655 71.2836 77.0597 73.0876 76.1305C75.4276 75.1305 86.7776 69.9005 92.6976 64.7405C92.8526 65.0903 93.0784 65.4041 93.3606 65.6622C93.6429 65.9204 93.9755 66.1173 94.3376 66.2405C94.9976 66.3905 95.1176 66.0105 95.0176 65.5305C95.0889 65.5821 95.1715 65.6159 95.2586 65.6289C95.3456 65.642 95.4344 65.6339 95.5177 65.6055C95.601 65.5771 95.6762 65.5291 95.7371 65.4656C95.798 65.4021 95.8428 65.3249 95.8677 65.2405C95.9425 65.0338 95.9425 64.8073 95.8677 64.6005C96.2277 64.7905 96.4876 64.8205 96.5976 64.3905C96.6343 64.0419 96.6 63.6893 96.4969 63.3542C96.3938 63.0191 96.224 62.7083 95.9977 62.4405C96.7077 61.8805 97.3676 61.2706 98.0676 60.7006C99.4976 59.5606 101.248 60.8905 102.678 61.5005C104.858 62.4405 109.318 64.3505 109.348 64.3105C109.284 64.5774 109.237 64.8479 109.208 65.1206C109.208 65.4906 108.998 66.2005 109.478 66.3905C109.788 66.5105 110.018 66.3305 110.178 66.0305C110.207 66.1301 110.258 66.2216 110.329 66.2978C110.399 66.374 110.486 66.4328 110.583 66.4697C110.68 66.5065 110.784 66.5203 110.887 66.5101C110.99 66.4998 111.09 66.4658 111.178 66.4105C111.253 66.3614 111.321 66.3007 111.378 66.2306C111.648 66.6706 112.148 66.9106 112.558 66.5106C112.883 66.1985 113.117 65.8047 113.238 65.3706C118.322 67.1476 123.529 68.5513 128.818 69.5705C131.328 70.0405 133.888 70.1305 136.398 70.5705C139.778 71.1405 140.508 74.1905 140.398 77.1705C140.154 77.1575 139.912 77.1172 139.678 77.0506C139.16 76.8903 138.653 76.7 138.158 76.4806C138.158 76.4806 138.098 76.4806 138.098 76.5406C137.997 76.9364 138.028 77.3544 138.188 77.7306C138.278 78.0239 138.474 78.2733 138.738 78.4305C138.145 78.7392 137.619 79.1604 137.188 79.6705C136.898 79.9705 136.088 80.6705 136.188 81.1705C136.288 81.6705 136.808 81.5305 137.188 81.4205C137.147 81.5098 137.13 81.6079 137.137 81.7057C137.145 81.8035 137.177 81.8978 137.231 81.9797C137.285 82.0616 137.359 82.1285 137.446 82.1741C137.533 82.2197 137.63 82.2426 137.728 82.2405H138.038C138.658 82.9405 139.558 82.3605 140.188 81.9505L141.018 81.4205C141.018 83.8105 141.388 86.2105 141.608 88.5905C141.768 90.4205 141.848 92.2805 142.088 94.1105C142.568 107.851 141.408 109.331 140.658 118.881V118.831ZM142.428 94.0406C142.298 92.0406 142.018 90.0406 141.848 88.0406C141.648 85.7706 141.568 83.4505 141.208 81.2005C141.98 80.7061 142.689 80.1184 143.318 79.4505C143.828 80.2605 144.368 81.0505 144.848 81.8205C144.983 81.9036 145.132 81.9612 145.288 81.9905C145.108 83.9905 146.078 91.6805 146.438 94.4205C144.498 94.3605 143.058 94.1805 142.428 94.0905V94.0406ZM146.628 94.4406C146.418 91.6606 145.878 83.9905 145.628 81.9905C152.688 81.8805 160.188 79.9305 165.278 74.8805C165.388 78.0005 166.358 87.3405 166.408 88.8805C166.48 89.3573 166.43 89.8445 166.264 90.2972C166.098 90.7498 165.821 91.1534 165.458 91.4706C159.158 94.5706 151.438 94.7605 146.628 94.4905V94.4406ZM160.628 160.701C159.018 161.431 155.778 162.851 154.698 160.821C155.263 160.87 155.832 160.815 156.378 160.661C159.369 160.084 162.196 158.855 164.658 157.061C165.748 158.251 161.258 160.441 160.578 160.751L160.628 160.701ZM164.558 156.811C162.242 158.538 159.565 159.718 156.728 160.261C155.838 160.441 154.408 160.791 154.228 159.601C154.257 159.16 154.417 158.739 154.688 158.391C154.798 158.191 154.928 158.001 155.058 157.811C155.419 158.003 155.733 158.273 155.978 158.601C156.088 158.681 156.188 158.531 156.148 158.431C155.926 158.066 155.593 157.782 155.198 157.621C155.388 157.361 155.588 157.111 155.788 156.861C156.498 157.151 156.688 157.711 156.898 157.861C157.108 158.011 157.078 157.861 157.048 157.751C156.796 157.29 156.413 156.914 155.948 156.671L156.458 156.051C157.218 156.521 157.458 157.131 157.678 157.341C157.768 157.411 157.948 157.341 157.898 157.211C157.631 156.635 157.204 156.149 156.668 155.811L157.198 155.151C158.378 157.151 162.918 156.151 163.088 153.851C163.658 154.805 164.133 155.813 164.508 156.861L164.558 156.811ZM162.358 151.251C162.558 151.991 164.008 155.141 160.138 155.841C157.448 156.331 156.418 153.121 156.358 152.991C158.453 152.948 160.503 152.366 162.308 151.301L162.358 151.251ZM187.998 135.951C187.528 135.741 187.528 135.341 187.358 134.951C187.133 134.302 186.834 133.681 186.468 133.101C184.818 130.901 181.468 131.501 179.338 132.701C178.808 133.018 178.358 133.455 178.025 133.975C177.692 134.496 177.484 135.086 177.418 135.701C177.406 135.968 177.379 136.236 177.338 136.501C177.148 137.171 176.998 137.151 176.278 137.241C175.348 137.361 166.928 137.941 162.168 138.081C161.418 133.701 160.678 129.361 160.358 127.591C159.882 125.599 159.804 123.533 160.128 121.511C161.341 119.695 162.262 117.701 162.858 115.601C165.968 115.391 172.858 114.791 174.618 115.251C176.808 115.851 177.978 117.711 178.788 119.691C179.598 121.671 180.218 123.871 180.918 125.841C180.918 125.921 181.128 125.961 181.158 125.961C182.898 125.961 184.678 125.711 186.418 125.631C188.158 125.551 190.498 124.891 191.978 125.991C193.061 127.002 193.737 128.375 193.878 129.851C194.224 131.781 194.391 133.739 194.378 135.701C192.618 135.641 188.278 136.081 187.998 135.951Z" fill="white"/>
<path d="M185.168 141.071C185.507 140.801 185.787 140.465 185.991 140.084C186.196 139.702 186.321 139.283 186.358 138.852C186.396 138.42 186.345 137.986 186.209 137.575C186.073 137.164 185.855 136.785 185.568 136.461C184.952 135.69 184.093 135.149 183.132 134.926C182.17 134.702 181.161 134.81 180.268 135.231C178.208 136.451 178.828 139.021 179.768 140.321C180.848 141.801 183.688 142.071 185.168 141.071ZM180.428 135.571C181.03 135.278 181.7 135.156 182.367 135.217C183.033 135.279 183.67 135.522 184.208 135.921C185.608 136.831 186.488 138.991 185.208 140.371C184.208 141.441 181.788 141.371 180.678 140.521C178.538 138.911 179.318 136.111 180.428 135.571Z" fill="white"/>
<path d="M182.998 138.571C183.181 138.384 183.284 138.133 183.284 137.871C183.284 137.609 183.181 137.358 182.998 137.171C182.812 136.996 182.567 136.899 182.313 136.899C182.058 136.899 181.813 136.996 181.628 137.171C181.534 137.249 181.458 137.346 181.403 137.455C181.348 137.564 181.317 137.684 181.31 137.806C181.304 137.927 181.322 138.049 181.365 138.164C181.407 138.278 181.473 138.383 181.558 138.471C181.644 138.574 181.751 138.659 181.871 138.721C181.991 138.782 182.122 138.818 182.257 138.828C182.391 138.837 182.526 138.819 182.653 138.775C182.781 138.731 182.898 138.661 182.998 138.571ZM182.588 137.381C182.663 137.41 182.731 137.456 182.784 137.517C182.838 137.577 182.877 137.649 182.897 137.727C182.918 137.805 182.92 137.887 182.902 137.966C182.885 138.045 182.849 138.118 182.798 138.181C181.788 139.251 181.198 136.921 182.568 137.361L182.588 137.381ZM173.788 118.691C171.788 117.151 168.008 118.211 165.878 118.851C165.856 118.853 165.835 118.864 165.821 118.88C165.806 118.897 165.798 118.919 165.798 118.941C165.978 121.291 166.528 123.791 166.898 126.121C166.898 126.121 173.168 125.331 176.278 125.341C176.358 125.341 176.508 125.341 176.498 125.231C176.208 122.991 175.698 120.171 173.788 118.691ZM167.178 125.691C166.848 123.531 166.708 121.301 166.278 119.151C168.388 118.751 171.888 117.621 173.698 119.251C175.278 120.661 175.638 122.941 175.938 124.931C174.478 124.931 168.638 125.471 167.178 125.711V125.691ZM183.938 145.031C181.038 143.281 177.018 143.871 173.938 145.031C172.319 145.622 170.798 146.455 169.428 147.501C168.358 148.331 167.358 149.301 167.578 150.751C167.578 150.971 169.228 156.221 169.258 156.231C171.928 157.941 175.888 157.831 178.848 157.121C180.493 156.732 182.068 156.091 183.518 155.221C184.813 154.415 185.875 153.284 186.598 151.941C186.598 151.941 186.338 148.611 186.328 148.531C186.243 147.797 185.98 147.096 185.564 146.486C185.148 145.877 184.59 145.377 183.938 145.031ZM168.688 148.721C169.936 147.41 171.455 146.386 173.138 145.721C176.358 144.291 180.958 143.811 183.628 145.381C185.358 146.381 186.518 148.491 185.248 150.381C184.182 151.65 182.803 152.619 181.248 153.191C178.098 154.601 173.728 155.731 170.538 153.861C168.828 152.861 167.178 150.571 168.688 148.721ZM182.858 155.071C181.569 155.779 180.19 156.307 178.758 156.641C175.766 157.428 172.597 157.189 169.758 155.961C169.758 155.961 169.008 153.721 168.638 152.621C169.328 153.446 170.195 154.103 171.175 154.545C172.156 154.987 173.223 155.201 174.298 155.171C177.809 155.081 181.216 153.954 184.088 151.931C184.865 151.435 185.48 150.722 185.858 149.881C185.948 150.521 186.028 151.831 186.028 151.881C185.28 153.212 184.185 154.315 182.858 155.071Z" fill="white"/>
<path d="M175.187 152.811L174.887 153.341C174.777 153.541 175.087 153.721 175.197 153.521L175.537 152.931C175.874 153.032 176.23 153.054 176.577 152.995C176.924 152.936 177.253 152.798 177.537 152.591C177.707 152.461 177.537 152.201 177.317 152.301C176.84 152.567 176.284 152.656 175.747 152.551C176.327 151.551 176.947 150.641 177.577 149.721C177.807 149.721 178.037 149.721 178.277 149.781C178.728 149.852 179.189 149.781 179.597 149.579C180.006 149.376 180.341 149.052 180.557 148.651C180.695 148.289 180.714 147.893 180.614 147.52C180.513 147.147 180.298 146.814 179.997 146.571L179.847 146.471L180.187 145.951C180.193 145.943 180.198 145.935 180.2 145.926C180.203 145.917 180.204 145.908 180.203 145.898C180.202 145.889 180.199 145.88 180.195 145.872C180.191 145.864 180.185 145.856 180.177 145.851C180.17 145.845 180.162 145.84 180.153 145.838C180.144 145.835 180.135 145.834 180.125 145.835C180.116 145.836 180.107 145.839 180.099 145.843C180.091 145.847 180.083 145.853 180.077 145.861C179.917 146.021 179.757 146.181 179.607 146.351C179.074 146.199 178.514 146.167 177.968 146.259C177.421 146.351 176.902 146.563 176.447 146.881C176.357 146.941 176.447 147.101 176.527 147.061C177.036 146.83 177.575 146.672 178.127 146.591C178.526 146.543 178.93 146.574 179.317 146.681C178.594 147.526 177.926 148.418 177.317 149.351C176.267 149.241 175.057 149.161 174.317 150.131C174.151 150.351 174.04 150.609 173.995 150.882C173.949 151.154 173.97 151.434 174.055 151.697C174.14 151.96 174.288 152.198 174.485 152.392C174.682 152.586 174.923 152.73 175.187 152.811ZM179.637 146.741C179.891 146.826 180.103 147.001 180.234 147.234C180.366 147.467 180.406 147.74 180.347 148.001C180.087 149.341 178.927 149.451 177.847 149.361C178.447 148.491 179.047 147.621 179.637 146.741ZM175.997 149.621C176.33 149.583 176.665 149.583 176.997 149.621C176.407 150.531 175.857 151.471 175.327 152.391C173.507 151.571 174.567 149.791 175.997 149.621ZM65.0674 172.181C64.7265 171.276 64.172 170.467 63.4512 169.823C62.7304 169.179 61.8646 168.718 60.9274 168.481C58.1419 167.769 55.206 167.919 52.5074 168.911C50.1674 169.651 46.5074 171.721 47.2474 174.741C47.3374 175.381 48.5674 179.981 48.6374 179.981C51.0174 182.421 55.0574 182.351 58.1674 181.981C60.9274 181.611 64.8474 180.601 65.9274 177.641C65.747 175.833 65.4666 174.037 65.0874 172.261C65.0928 172.254 65.0966 172.247 65.0986 172.239C65.1005 172.231 65.1005 172.223 65.0985 172.215C65.0965 172.207 65.0927 172.2 65.0873 172.194C65.0819 172.188 65.0751 172.183 65.0674 172.181ZM47.8774 172.571C48.8607 170.996 50.3985 169.847 52.1874 169.351C54.9563 168.298 57.9794 168.109 60.8574 168.811C62.7974 169.261 65.2574 171.171 64.8574 173.431C64.5174 175.521 62.8574 176.431 61.0674 177.121C57.806 178.551 54.1319 178.729 50.7474 177.621C48.6474 176.801 46.5774 174.961 47.8774 172.571ZM57.6774 181.641C56.1175 181.846 54.5374 181.846 52.9774 181.641C51.4766 181.363 50.0519 180.77 48.7974 179.901C48.7974 179.901 48.2574 177.361 47.9474 176.151C49.4874 178.061 52.8174 178.571 54.9974 178.571C56.8306 178.568 58.6499 178.254 60.3774 177.641C61.8525 177.255 63.2072 176.505 64.3174 175.461C64.6442 175.089 64.8955 174.658 65.0574 174.191C65.1974 175.321 65.6274 177.551 65.6274 177.551C63.7474 180.271 60.8474 181.221 57.6774 181.571V181.641Z" fill="white"/>
<path d="M54.338 176.471L54.108 176.831C54.038 176.941 54.208 177.081 54.288 176.971L54.578 176.581C54.9843 176.755 55.425 176.835 55.8668 176.814C56.3085 176.793 56.7397 176.672 57.128 176.461C57.278 176.371 57.188 176.111 57.008 176.171C56.2989 176.446 55.5189 176.482 54.788 176.271C55.378 175.381 56.688 173.031 56.838 172.811C57.738 172.911 58.698 172.941 59.258 172.101C59.3942 171.956 59.4924 171.78 59.5439 171.588C59.5954 171.397 59.5985 171.195 59.5529 171.002C59.5073 170.809 59.4145 170.63 59.2827 170.481C59.1509 170.333 58.9844 170.219 58.798 170.151L58.988 169.881C59.058 169.791 58.918 169.701 58.838 169.771L58.548 170.051C58.134 169.891 57.6882 169.832 57.2468 169.877C56.8055 169.922 56.381 170.071 56.008 170.311C55.928 170.381 56.008 170.481 56.118 170.441C56.6227 170.226 57.1708 170.134 57.718 170.171C57.9232 170.185 58.1253 170.228 58.318 170.301C57.6984 170.97 57.1489 171.7 56.678 172.481C56.2157 172.376 55.7412 172.336 55.268 172.361C54.8165 172.409 54.3869 172.58 54.0255 172.855C53.6642 173.13 53.385 173.498 53.218 173.921C53.0366 174.408 53.0521 174.947 53.2611 175.423C53.4702 175.899 53.8564 176.275 54.338 176.471ZM58.588 170.471C59.458 171.021 59.208 172.271 57.778 172.541C57.5325 172.576 57.2834 172.576 57.038 172.541C57.528 171.811 58.058 171.131 58.588 170.441V170.471ZM56.498 172.811C55.818 173.921 55.218 175.081 54.498 176.181C54.2741 176.062 54.078 175.898 53.9228 175.698C53.7676 175.498 53.6568 175.267 53.598 175.021C53.128 173.081 54.998 172.631 56.498 172.781V172.811ZM36.558 155.191C33.962 153.825 30.9805 153.377 28.098 153.921C25.688 154.191 21.698 155.531 21.878 158.601C21.878 159.221 22.118 163.941 22.178 163.961C23.988 166.761 27.808 167.541 30.888 167.791C33.708 168.021 37.888 167.891 39.588 165.141L39.858 159.671C39.701 158.716 39.3202 157.813 38.7465 157.034C38.1729 156.255 37.4229 155.624 36.558 155.191ZM39.318 165.061C36.968 167.261 34.018 167.641 30.888 167.391C29.3103 167.301 27.7508 167.009 26.248 166.521C24.7781 165.942 23.451 165.051 22.358 163.911C22.358 163.911 22.358 161.321 22.288 160.081C23.438 162.331 26.728 163.521 28.948 163.951C30.6889 164.284 32.4728 164.328 34.228 164.081C35.7243 163.991 37.1762 163.538 38.458 162.761C38.86 162.459 39.1997 162.082 39.458 161.651C39.348 162.781 39.318 165.061 39.318 165.061ZM39.538 160.481C38.948 162.581 37.118 163.221 35.188 163.601C31.7086 164.38 28.0646 163.864 24.938 162.151C23.078 161.051 21.228 158.981 22.738 156.801C23.3139 156.089 24.0263 155.499 24.8335 155.066C25.6406 154.633 26.5261 154.366 27.438 154.281C30.4844 153.654 33.6529 154.066 36.438 155.451C38.068 156.271 40.118 158.451 39.538 160.481Z" fill="white"/>
<path d="M34.1975 156.32L34.3675 156.17C34.4475 156.1 34.3675 155.97 34.2475 156.02L34.0075 156.18C33.6078 155.97 33.1695 155.842 32.7191 155.806C32.2686 155.77 31.8156 155.826 31.3875 155.97C31.3686 155.98 31.3536 155.996 31.3451 156.015C31.3367 156.034 31.3353 156.056 31.3413 156.076C31.3473 156.097 31.3602 156.114 31.3777 156.126C31.3953 156.138 31.4165 156.143 31.4375 156.14C32.1987 156.016 32.9794 156.099 33.6975 156.38C33.0057 156.871 32.3628 157.427 31.7775 158.04L31.2075 157.96C30.7347 157.816 30.2354 157.78 29.7469 157.857C29.2585 157.933 28.7937 158.119 28.3875 158.4C28.1303 158.592 27.9231 158.843 27.7832 159.132C27.6434 159.42 27.5749 159.738 27.5838 160.059C27.5926 160.379 27.6784 160.693 27.8339 160.974C27.9895 161.254 28.2102 161.493 28.4775 161.67L28.1775 161.98C28.0675 162.08 28.2275 162.23 28.3475 162.14L28.6875 161.83C29.0412 162.101 29.4568 162.28 29.8968 162.35C30.3368 162.419 30.7873 162.379 31.2075 162.23C31.2397 162.213 31.265 162.185 31.279 162.151C31.293 162.117 31.2949 162.079 31.2843 162.044C31.2738 162.009 31.2514 161.978 31.221 161.958C31.1906 161.937 31.1541 161.927 31.1175 161.93C30.3909 162.017 29.6547 161.892 28.9975 161.57C29.8075 160.78 31.6675 158.63 31.8775 158.43C32.5145 158.56 33.1735 158.533 33.7975 158.35C34.0846 158.275 34.3314 158.091 34.4861 157.838C34.6409 157.584 34.6915 157.28 34.6275 156.99C34.5638 156.725 34.4123 156.489 34.1975 156.32ZM28.7275 161.41C28.5481 161.31 28.3908 161.175 28.2649 161.012C28.1391 160.849 28.0473 160.663 27.995 160.464C27.9428 160.266 27.9311 160.058 27.9607 159.855C27.9904 159.651 28.0607 159.456 28.1675 159.28C28.7175 158.17 29.8175 158.12 30.8875 158.28L31.4675 158.37C30.5275 159.35 29.6675 160.42 28.7275 161.41ZM33.1075 158.1C32.8049 158.131 32.5001 158.131 32.1975 158.1C32.7675 157.57 33.3675 157.1 33.9575 156.55C34.0648 156.634 34.1501 156.742 34.2059 156.866C34.2617 156.989 34.2863 157.125 34.2775 157.26C34.2675 157.94 33.6275 158.06 33.1075 158.1Z" fill="white"/>
</svg>
