<svg width="200" height="200" viewBox="0 0 200 200" fill="none" xmlns="http://www.w3.org/2000/svg">
<path d="M60.7634 26.1051C60.708 26.1214 60.6612 26.1588 60.6331 26.2094C60.605 26.2599 60.598 26.3194 60.6134 26.3751C60.6134 26.5751 60.7034 26.5151 61.9334 26.5851C62.9934 26.6451 63.9334 26.6951 64.3934 26.6951H64.6734C64.7142 26.6842 64.7514 26.6628 64.7813 26.6329C64.8111 26.6031 64.8326 26.5659 64.8434 26.5251C64.8543 26.4849 64.8544 26.4425 64.8439 26.4022C64.8334 26.3618 64.8126 26.3249 64.7834 26.2951C64.4734 25.9851 60.7934 26.0951 60.7634 26.1051ZM59.3834 20.1451C59.3084 21.3273 59.3084 22.513 59.3834 23.6951C59.3834 23.8151 59.3134 24.2551 59.6334 24.2551C59.6981 24.2552 59.7602 24.2302 59.8068 24.1855C59.8534 24.1407 59.8809 24.0797 59.8834 24.0151C59.963 22.7263 59.963 21.4339 59.8834 20.1451C59.8834 20.0788 59.8571 20.0152 59.8102 19.9683C59.7633 19.9215 59.6997 19.8951 59.6334 19.8951C59.5671 19.8951 59.5036 19.9215 59.4567 19.9683C59.4098 20.0152 59.3834 20.0788 59.3834 20.1451ZM54.9134 25.6251C54.8612 25.6496 54.8177 25.6896 54.7891 25.7398C54.7604 25.7899 54.748 25.8476 54.7534 25.9051C54.7534 26.2951 55.1934 26.2551 55.8034 26.3251C56.3639 26.3758 56.9214 26.4559 57.4734 26.5651C57.5261 26.562 57.5764 26.5422 57.6172 26.5087C57.658 26.4753 57.6871 26.4297 57.7004 26.3787C57.7137 26.3276 57.7105 26.2737 57.6913 26.2245C57.6721 26.1754 57.6379 26.1336 57.5934 26.1051C56.7347 25.7908 55.8279 25.6284 54.9134 25.6251ZM58.9134 27.7251C58.3534 30.3051 58.2634 30.7751 58.6534 30.7751C59.0434 30.7751 59.0034 30.6151 59.4534 27.8651C59.4534 27.5151 58.9134 27.3751 58.9134 27.7251ZM67.3034 10.1151C66.2334 11.8251 67.6434 14.5551 69.7734 14.1151C70.3793 14.0384 70.9388 13.7508 71.3539 13.3028C71.7689 12.8548 72.0131 12.2751 72.0434 11.6651C72.2734 9.25512 68.6834 7.91512 67.3034 10.1151ZM67.9134 12.7051C67.7191 12.4144 67.5929 12.0835 67.5444 11.7372C67.4959 11.3909 67.5264 11.038 67.6334 10.7051C68.2734 8.70512 71.2334 9.23512 71.5434 11.1651C71.7534 12.3351 69.2634 14.7851 67.9134 12.7051ZM18.7734 36.0851C18.7175 36.087 18.6634 36.105 18.6175 36.137C18.5716 36.169 18.5359 36.2136 18.5148 36.2654C18.4937 36.3172 18.4879 36.3739 18.4983 36.4289C18.5088 36.4839 18.5348 36.5346 18.5734 36.5751C19.0934 37.1351 20.9234 40.4151 21.9734 41.3851C22.4534 40.9951 25.4234 36.1051 25.2434 35.8351C23.1012 36.1413 20.933 36.225 18.7734 36.0851ZM24.6134 36.2551C23.9109 37.8341 23.003 39.3136 21.9134 40.6551L19.3734 36.6551C21.1295 36.7164 22.887 36.5822 24.6134 36.2551ZM10.5934 123.505C10.66 123.505 10.7241 123.48 10.7734 123.435C10.8019 123.408 10.8245 123.375 10.84 123.339C10.8555 123.303 10.8634 123.264 10.8634 123.225C10.8634 123.186 10.8555 123.147 10.84 123.111C10.8245 123.075 10.8019 123.042 10.7734 123.015C10.0949 122.46 9.32286 122.03 8.49345 121.745C8.41338 121.751 8.33842 121.787 8.28345 121.845C8.25464 121.888 8.23926 121.938 8.23926 121.99C8.23926 122.042 8.25464 122.092 8.28345 122.135C8.28345 122.195 8.39345 122.245 9.03345 122.585C9.52676 122.814 9.99579 123.092 10.4334 123.415C10.4734 123.464 10.5306 123.496 10.5934 123.505ZM10.9134 125.845C10.1838 126.852 9.59819 127.956 9.17345 129.125C9.16812 129.176 9.17998 129.227 9.20716 129.271C9.23434 129.314 9.27527 129.348 9.32345 129.365H9.41345C9.44933 129.364 9.48449 129.355 9.51587 129.337C9.54724 129.32 9.57388 129.295 9.59345 129.265L10.0534 128.415C10.4934 127.615 11.0534 126.515 11.3434 126.205C11.3955 126.15 11.4244 126.076 11.4244 126C11.4244 125.924 11.3955 125.851 11.3434 125.795C11.3224 125.753 11.2887 125.718 11.2471 125.695C11.2055 125.673 11.1579 125.663 11.1109 125.669C11.0638 125.674 11.0196 125.694 10.9843 125.726C10.9489 125.757 10.9242 125.799 10.9134 125.845ZM15.2634 119.465C15.3065 119.419 15.3343 119.36 15.3432 119.298C15.3522 119.235 15.3418 119.172 15.3134 119.115C15.2742 119.054 15.2141 119.009 15.1441 118.989C15.0742 118.968 14.9994 118.974 14.9334 119.005C14.2449 119.747 13.7021 120.612 13.3334 121.555C13.3293 121.587 13.3317 121.62 13.3407 121.652C13.3496 121.683 13.3648 121.712 13.3854 121.737C13.406 121.763 13.4315 121.783 13.4604 121.799C13.4893 121.814 13.521 121.823 13.5534 121.825C13.6136 121.829 13.6731 121.81 13.7208 121.774C13.7686 121.737 13.8015 121.684 13.8134 121.625C14.1287 120.981 14.5144 120.374 14.9634 119.815C15.1834 119.585 15.2434 119.505 15.2634 119.465ZM15.0234 124.575C14.9913 124.567 14.9577 124.564 14.9247 124.569C14.8917 124.573 14.86 124.584 14.8312 124.601C14.8024 124.618 14.7772 124.64 14.757 124.666C14.7368 124.693 14.722 124.723 14.7134 124.755C14.7049 124.787 14.7028 124.821 14.7072 124.854C14.7116 124.887 14.7225 124.919 14.7392 124.947C14.756 124.976 14.7782 125.001 14.8046 125.022C14.8311 125.042 14.8613 125.057 14.8934 125.065C15.1034 125.125 18.1234 125.995 18.3534 125.995C18.3985 125.99 18.4412 125.972 18.4766 125.944C18.512 125.916 18.5386 125.878 18.5534 125.835C18.5662 125.789 18.5643 125.741 18.5482 125.696C18.5321 125.651 18.5025 125.612 18.4634 125.585C18.3134 125.475 15.0634 124.585 15.0234 124.575ZM183.273 69.8351C183.245 69.7991 183.208 69.7704 183.167 69.7512C183.125 69.7321 183.079 69.7232 183.033 69.7251C182.994 69.7251 182.955 69.7363 182.921 69.7576C182.887 69.7788 182.86 69.8092 182.843 69.8451C181.843 71.4251 179.723 75.0451 179.503 75.4251C179.453 75.4592 179.414 75.5088 179.395 75.5666C179.375 75.6244 179.374 75.6871 179.393 75.7451C179.405 75.7971 179.434 75.8435 179.476 75.8763C179.518 75.9091 179.57 75.9264 179.623 75.9251C187.253 75.2151 187.003 75.2951 187.093 75.0751C187.183 74.8551 187.303 75.3351 183.273 69.8351ZM186.353 74.7651L180.123 75.3351C180.923 74.0451 182.293 71.7551 182.893 70.7451C182.973 70.6151 183.033 70.5051 183.083 70.4351C184.743 72.6851 185.843 74.1451 186.353 74.7651ZM189.843 58.9751C189.36 58.6029 188.772 58.391 188.162 58.3689C187.553 58.3469 186.951 58.5157 186.442 58.852C185.933 59.1882 185.541 59.6751 185.322 60.2446C185.103 60.8141 185.067 61.4378 185.219 62.0287C185.372 62.6196 185.705 63.1481 186.172 63.5406C186.639 63.9331 187.217 64.1699 187.826 64.2179C188.434 64.266 189.042 64.1229 189.565 63.8087C190.088 63.4945 190.5 63.0247 190.743 62.4651C190.949 61.8589 190.974 61.2058 190.814 60.5859C190.654 59.966 190.317 59.4062 189.843 58.9751ZM186.083 62.7051C185.759 62.2628 185.593 61.7241 185.612 61.1759C185.632 60.6277 185.835 60.1019 186.19 59.6836C186.545 59.2652 187.03 58.9786 187.568 58.87C188.105 58.7614 188.664 58.8372 189.153 59.0851C189.673 59.4247 190.072 59.92 190.293 60.5003C190.514 61.0805 190.546 61.7158 190.383 62.3151C190.196 62.7083 189.909 63.0459 189.552 63.2948C189.194 63.5437 188.778 63.6953 188.345 63.7346C187.911 63.774 187.474 63.6998 187.078 63.5192C186.681 63.3387 186.339 63.0582 186.083 62.7051ZM153.093 74.1351C151.563 75.7251 153.193 79.2551 155.763 78.5351C156.274 78.3793 156.725 78.0711 157.056 77.6519C157.387 77.2326 157.581 76.7223 157.614 76.1892C157.647 75.6562 157.516 75.1259 157.239 74.6695C156.961 74.213 156.551 73.8521 156.063 73.6351C155.576 73.4099 155.031 73.3372 154.501 73.4264C153.971 73.5156 153.481 73.7626 153.093 74.1351ZM157.223 75.8251C157.258 76.2813 157.158 76.7375 156.936 77.1374C156.713 77.5373 156.379 77.8633 155.973 78.0751C153.693 79.2351 152.143 76.0751 153.103 74.6051C153.374 74.2126 153.762 73.9156 154.211 73.7568C154.661 73.5979 155.149 73.5853 155.606 73.7206C156.063 73.856 156.466 74.1324 156.756 74.5104C157.047 74.8884 157.21 75.3486 157.223 75.8251ZM150.973 70.4851C150.923 70.5651 150.973 70.6851 151.083 70.6551C155.583 69.2351 155.413 69.3151 155.403 69.1751C154.603 59.9551 149.553 52.4051 149.333 52.4851C145.513 53.7351 145.463 53.6151 145.553 53.8051C148.071 59.1084 149.893 64.7148 150.973 70.4851ZM149.443 53.0351C154.173 61.0351 154.703 67.2751 154.833 68.7551C153.553 69.1651 152.643 69.4551 151.383 69.9251C150.288 64.4191 148.476 59.0803 145.993 54.0451C149.553 52.8151 149.333 52.8451 149.443 53.0351ZM103.783 79.3551C108.643 79.7651 129.723 80.2151 131.783 80.2351C135.323 80.2351 138.973 79.2351 139.523 75.7051C139.743 74.2651 140.523 63.5251 140.393 61.7051C139.963 55.2851 137.583 50.7651 126.393 49.2751C119.843 48.4051 102.563 47.9251 97.2034 51.7351C94.4434 53.7351 94.7634 57.7951 94.6834 60.8451C94.6354 64.4383 94.8392 68.0304 95.2934 71.5951C95.9134 77.0151 97.5034 78.8251 103.783 79.3551ZM123.423 69.0251C123.412 69.0557 123.392 69.0822 123.365 69.1008C123.338 69.1194 123.306 69.1294 123.273 69.1294C123.241 69.1294 123.209 69.1194 123.182 69.1008C123.155 69.0822 123.135 69.0557 123.123 69.0251C123.098 67.4582 123.179 65.8913 123.363 64.3351C123.363 64.2151 123.603 64.1951 123.633 64.3351C123.669 65.9014 123.599 67.4683 123.423 69.0251ZM121.913 58.1551C122.653 58.2051 125.913 58.4951 126.303 58.6251C126.443 58.6751 126.493 58.9351 126.303 58.9651C125.923 58.9651 122.613 58.5851 121.873 58.4751C121.653 58.4451 121.703 58.1451 121.913 58.1551ZM106.453 70.7851C106.465 70.7545 106.485 70.7281 106.512 70.7094C106.539 70.6908 106.571 70.6808 106.603 70.6808C106.636 70.6808 106.668 70.6908 106.695 70.7094C106.722 70.7281 106.742 70.7545 106.753 70.7851C106.862 71.7812 106.889 72.7846 106.833 73.7851C111.043 73.7851 115.223 74.5551 119.433 74.4951C119.493 73.8151 119.553 73.1551 119.653 72.4951C119.653 72.2751 120.043 72.3351 120.033 72.4951C120.033 73.2251 119.923 73.9451 119.843 74.6651C119.843 74.7208 119.821 74.7742 119.782 74.8136C119.743 74.853 119.689 74.8751 119.633 74.8751C117.453 74.8751 108.793 74.1551 106.633 74.1951C106.576 74.1927 106.521 74.1687 106.481 74.128C106.44 74.0872 106.416 74.0327 106.413 73.9751C106.347 72.9123 106.36 71.8459 106.453 70.7851ZM102.453 67.4051C102.443 67.4311 102.425 67.4534 102.402 67.4691C102.379 67.4848 102.351 67.4932 102.323 67.4932C102.295 67.4932 102.268 67.4848 102.245 67.4691C102.222 67.4534 102.204 67.4311 102.193 67.4051C101.971 65.9327 101.918 64.4397 102.033 62.9551C102.033 62.8151 102.283 62.8551 102.293 62.9551C102.283 63.7551 102.553 67.0651 102.443 67.4051H102.453ZM105.453 56.7151C105.483 56.7286 105.509 56.7503 105.526 56.7778C105.544 56.8053 105.554 56.8374 105.554 56.8701C105.554 56.9029 105.544 56.9349 105.526 56.9624C105.509 56.9899 105.483 57.0117 105.453 57.0251C103.86 57.5173 102.237 57.908 100.593 58.1951C99.6334 57.8251 105.223 56.6751 105.433 56.7151H105.453ZM172.403 183.585C172.403 183.665 172.613 183.745 172.633 183.665C173.273 181.584 174.364 179.67 175.828 178.059C177.292 176.448 179.093 175.18 181.103 174.345C182.232 173.912 183.397 173.577 184.583 173.345C186.523 172.995 174.913 172.965 172.403 183.585ZM169.163 179.315C169.852 176.793 171.442 174.611 173.631 173.183C175.821 171.755 178.458 171.179 181.043 171.565C181.133 171.565 181.153 171.415 181.043 171.395C177.143 170.525 170.503 171.845 168.953 179.245C168.913 179.315 169.143 179.385 169.163 179.315Z" fill="#4C2FB3"/>
<path d="M191.914 179.315C192.804 179.115 193.694 178.945 194.594 178.815C194.874 178.815 194.734 178.575 191.974 175.275C193.504 174.855 193.754 174.905 193.584 174.715C186.994 167.775 174.214 159.095 173.874 159.115C166.194 159.455 157.134 163.805 155.614 171.385C153.298 170.077 150.763 169.199 148.134 168.795C149.551 164.206 149.509 159.29 148.014 154.725C157.494 146.725 158.914 138.545 159.074 138.235C176.074 133.585 179.124 125.905 176.454 114.235C174.531 105.953 170.281 98.3923 164.204 92.4452C164.134 85.8552 165.004 72.8452 160.504 59.2852C151.994 33.6052 132.194 29.8152 131.654 29.7252C131.117 29.6503 130.575 29.6202 130.034 29.6352C141.414 12.8352 119.944 8.43516 113.884 15.3652C110.424 19.3652 112.714 25.0652 115.394 29.8352C112.184 30.3152 102.394 32.4352 94.8438 42.9552C86.9138 54.0552 85.9638 69.3652 86.5738 84.3952C82.2638 81.3152 81.7737 81.0352 81.8437 81.3952C82.0337 82.2252 82.7537 85.4951 82.9837 86.2751L79.2237 83.9252C79.1337 83.8652 79.0437 83.9252 79.0537 84.0552C79.3837 85.7552 79.7637 87.4352 80.1237 89.1252C78.6272 88.5526 77.1018 88.0586 75.5537 87.6452C76.7137 90.0952 81.9938 100.965 85.8838 108.955C78.3238 108.545 76.8137 98.9552 72.4637 94.0852C70.9449 92.3603 68.9461 91.1278 66.7229 90.5453C64.4997 89.9627 62.1532 90.0567 59.9837 90.8152C58.2937 88.1052 55.3137 88.9952 55.1137 90.8152C53.4537 88.3652 51.1137 87.5252 48.1837 87.3352C45.5582 83.4537 43.1769 79.4126 41.0537 75.2352C41.042 75.2143 41.0243 75.1975 41.0029 75.1868C40.9815 75.1761 40.9574 75.1721 40.9337 75.1752C36.4037 76.0152 23.3837 78.3652 23.4037 78.3952C23.9037 79.5052 24.2437 80.3252 23.5737 81.3952C22.7037 82.7852 21.4037 81.3952 21.2737 81.1452C18.5737 76.7752 36.3837 109.445 36.4837 109.435C42.4837 109.275 55.9637 107.145 56.5437 107.005C56.923 106.938 57.2792 106.776 57.579 106.535C57.8788 106.293 58.1125 105.979 58.2583 105.623C58.4041 105.266 58.4572 104.879 58.4127 104.496C58.3682 104.114 58.2275 103.749 58.0037 103.435L55.2737 98.9252C55.4375 98.6542 55.578 98.3698 55.6937 98.0752C56.2537 99.7752 59.2337 100.505 60.6237 97.8652C63.6237 97.8652 65.9337 100.205 67.2337 102.775C69.9237 108.125 72.4638 124.715 87.8538 123.485C89.1529 123.422 90.4346 123.159 91.6537 122.705C92.9837 131.255 96.3938 147.285 103.874 151.705C102.614 154.805 102.484 159.315 102.874 162.635C105.244 185.435 128.184 187.795 138.774 180.635C145.704 185.365 148.494 190.285 148.894 190.135C149.674 189.815 150.434 189.455 151.224 189.135C159.874 185.735 166.224 187.215 168.754 188.015C169.902 188.435 171.018 188.936 172.094 189.515C172.102 189.967 172.254 190.404 172.528 190.763C172.801 191.123 173.181 191.386 173.614 191.515C175.614 192.065 176.944 189.835 176.274 188.705C179.344 186.705 186.704 184.705 194.844 185.305C195.234 185.255 194.914 185.025 191.914 179.315ZM194.294 178.585C187.584 179.495 177.084 183.245 174.294 189.385C176.294 182.385 184.704 177.385 191.714 175.385C191.714 175.365 193.454 177.515 194.324 178.585H194.294ZM168.564 160.365C170.314 159.905 171.814 159.735 173.564 159.365C185.724 167.995 184.764 167.185 193.084 174.595C189.62 175.364 186.313 176.717 183.304 178.595C178.594 181.395 175.064 184.435 173.834 189.745C169.004 182.175 161.494 176.395 155.954 171.675C157.554 166.145 161.144 162.315 168.594 160.365H168.564ZM157.564 138.085C151.154 137.325 145.224 128.265 148.474 126.085C150.35 125.691 152.184 125.122 153.954 124.385C153.194 128.305 160.084 136.445 164.574 135.795C162.298 136.714 159.962 137.479 157.584 138.085H157.564ZM119.564 129.085C118.194 129.825 116.344 128.395 118.024 125.335C119.514 122.615 123.954 119.495 124.694 123.095C124.537 123.033 124.372 122.993 124.204 122.975C123.881 123.078 123.573 123.219 123.284 123.395C118.474 125.845 119.834 128.925 119.624 129.045L119.564 129.085ZM117.324 121.685C115.144 121.995 114.444 123.025 112.324 122.325C111.356 121.995 110.509 121.382 109.894 120.565C107.624 118.135 107.634 114.795 107.314 112.505C109.449 112.552 111.585 112.489 113.714 112.315C113.533 114.277 113.922 116.249 114.834 117.995C116.164 120.295 120.044 122.065 121.484 120.715C121.492 120.98 121.55 121.241 121.654 121.485C121.115 121.741 120.596 122.038 120.104 122.375C118.707 123.466 117.664 124.944 117.104 126.625C116.091 125.4 115.169 124.103 114.344 122.745C114.554 122.745 116.834 121.985 117.344 121.825C117.368 121.83 117.393 121.826 117.413 121.813C117.434 121.8 117.448 121.779 117.454 121.755C117.459 121.731 117.455 121.706 117.442 121.686C117.428 121.665 117.408 121.65 117.384 121.645L117.324 121.685ZM131.264 87.5352C131.264 88.2452 131.384 88.7552 131.364 89.4652C128.144 90.4052 104.824 97.7552 104.084 98.0152C112.746 93.5112 121.882 89.9829 131.324 87.4952L131.264 87.5352ZM104.374 97.4551C111.442 91.7505 119.563 87.4898 128.274 84.9152C128.274 85.9152 128.484 86.7652 128.504 87.7852C120.207 90.2641 112.151 93.4872 104.434 97.4152L104.374 97.4551ZM109.374 112.215C109.374 112.115 105.424 98.4751 105.244 98.0951L133.914 90.7652C134.034 94.2352 134.694 115.485 134.744 117.475C134.644 117.475 121.404 120.475 121.394 120.575C120.931 120.789 120.424 120.892 119.914 120.875C118.322 120.655 116.848 119.913 115.724 118.765C114.997 117.832 114.471 116.759 114.18 115.612C113.889 114.466 113.84 113.272 114.034 112.105C114.084 111.915 114.224 112.045 109.404 112.175L109.374 112.215ZM106.994 97.4052C107.654 97.1752 132.844 89.5152 133.534 89.3252C133.534 89.7452 133.684 89.9852 133.664 90.4052C125.564 92.6352 107.374 97.3052 107.024 97.3652L106.994 97.4052ZM104.434 98.2652C104.183 98.4632 103.896 98.6093 103.589 98.6949C103.281 98.7806 102.96 98.8041 102.643 98.7641C102.327 98.724 102.021 98.6212 101.745 98.4617C101.469 98.3022 101.227 98.0892 101.034 97.8352C101.053 97.8196 101.069 97.7998 101.079 97.7772C101.09 97.7547 101.095 97.73 101.094 97.7051C101.204 97.7751 102.364 98.4251 102.844 98.7051C103.393 98.5908 103.934 98.4404 104.464 98.2552L104.434 98.2652ZM104.994 98.1452C105.114 99.1452 109.054 112.145 109.084 112.225C108.342 112.167 107.597 112.2 106.864 112.325C107.044 116.465 108.124 121.035 111.984 122.535C112.434 123.895 110.034 124.825 108.894 122.535C108.464 121.635 101.794 100.275 101.084 98.1652C101.331 98.4464 101.637 98.6706 101.979 98.8223C102.322 98.974 102.693 99.0496 103.068 99.0439C103.442 99.0382 103.811 98.9513 104.149 98.7892C104.486 98.6272 104.785 98.3938 105.024 98.1052L104.994 98.1452ZM124.214 123.085C124.214 123.085 127.944 124.635 128.324 124.765C126.774 124.885 122.594 129.885 125.494 133.455C125.014 133.155 120.264 130.115 119.924 129.315C118.854 126.695 122.814 123.695 124.244 123.045L124.214 123.085ZM130.294 125.395C130.891 125.608 131.507 125.765 132.134 125.865C129.214 126.705 127.134 133.505 130.734 136.195C128.967 135.437 127.259 134.548 125.624 133.535C123.764 130.475 126.314 123.585 130.324 125.355L130.294 125.395ZM132.674 125.995C134.23 126.342 135.807 126.592 137.394 126.745C134.084 127.855 133.504 135.585 137.244 138.345C135.234 137.872 133.264 137.24 131.354 136.455C127.914 133.515 129.314 126.255 132.704 125.955L132.674 125.995ZM137.614 126.765C139.069 126.905 140.532 126.955 141.994 126.915C139.114 130.555 142.374 137.155 145.574 139.435C142.987 139.363 140.412 139.048 137.884 138.495C134.364 136.155 134.014 127.725 137.644 126.725L137.614 126.765ZM142.214 126.915C144.214 126.849 146.204 126.611 148.164 126.205C145.164 128.595 150.484 137.405 157.114 138.205C153.447 139.086 149.684 139.496 145.914 139.425C139.144 132.795 141.854 127.465 142.244 126.875L142.214 126.915ZM165.444 135.445C160.394 136.725 154.534 127.965 154.184 126.315C154.07 125.675 154.047 125.022 154.114 124.375C155.851 123.694 157.435 122.675 158.774 121.375C159.294 127.905 170.104 132.115 173.054 130.635C171.124 133.425 165.504 135.395 165.474 135.405L165.444 135.445ZM173.754 129.845C173.4 130.199 172.969 130.466 172.494 130.625C170.054 131.355 160.154 127.625 158.924 121.195C160.078 119.795 160.776 118.074 160.924 116.265C163.254 121.535 174.464 123.395 176.654 119.015C177.064 124.105 175.814 127.375 173.784 129.805L173.754 129.845ZM174.144 108.715C173.144 111.405 167.144 114.005 161.144 111.525C160.964 111.445 160.924 111.685 161.004 111.725C166.634 114.325 173.074 112.195 174.254 109.105C175.388 112.105 176.156 115.231 176.544 118.415C175.494 122.685 164.634 121.775 160.884 116.135C161.103 113.597 160.6 111.049 159.434 108.785C159.944 108.215 164.494 103.335 171.124 102.355C172.298 104.382 173.317 106.495 174.174 108.675L174.144 108.715ZM171.044 102.155C168.768 102.411 166.566 103.122 164.57 104.246C162.574 105.369 160.824 106.882 159.424 108.695C158.73 107.303 157.856 106.009 156.824 104.845C156.894 104.385 156.934 103.925 157.024 103.465C158.024 98.4652 163.114 94.0752 166.234 95.2552C168.052 97.3904 169.672 99.6865 171.074 102.115L171.044 102.155ZM165.934 94.9052C161.934 93.3352 156.714 100.055 156.714 104.725C155.831 103.757 154.878 102.855 153.864 102.025C151.664 94.4451 156.934 90.0952 159.864 89.1252C162.076 90.8388 164.119 92.7609 165.964 94.8652L165.934 94.9052ZM150.224 99.7552C150.224 99.8152 152.614 101.455 153.644 102.265C152.584 105.265 145.554 105.265 145.874 96.6952C146.284 85.7652 154.714 83.0852 157.334 84.4952C157.916 84.7814 158.372 85.272 158.616 85.8733C158.859 86.4746 158.873 87.1445 158.654 87.7552C158.514 87.6652 156.724 86.4552 155.934 86.0052C154.177 87.0562 152.699 88.5138 151.624 90.2552C150.737 91.6518 150.154 93.2194 149.913 94.8562C149.672 96.4929 149.778 98.1621 150.224 99.7552ZM150.674 99.6152C150.574 99.5552 148.094 92.4152 156.074 86.3352C157.384 87.2052 158.454 87.9752 159.694 88.9352C153.974 90.7752 151.624 97.5751 153.644 101.775C152.701 100.993 151.709 100.271 150.674 99.6152ZM112.914 22.0752C110.854 10.3452 133.984 9.88516 132.834 22.2352C132.454 26.3352 129.464 29.5552 127.374 32.8952C125.454 35.9652 124.844 36.2052 123.514 36.4752C124.264 34.3652 126.574 25.8052 127.214 23.6352C127.238 23.5874 127.242 23.5322 127.225 23.4815C127.208 23.4309 127.171 23.389 127.124 23.3652C127.076 23.3413 127.021 23.3374 126.97 23.3542C126.919 23.3711 126.878 23.4074 126.854 23.4552C126.664 24.0752 126.484 24.6952 126.314 25.3252C125.094 23.6052 126.004 24.5652 124.074 26.0452C122.674 24.7952 122.474 24.1352 122.204 24.5152C121.785 25.1279 121.299 25.6914 120.754 26.1952C119.524 26.3952 118.914 24.7252 118.844 24.5252C118.774 24.3252 118.484 24.4652 118.524 24.5852C118.564 24.7052 121.684 36.2052 121.834 36.5852C119.114 36.4752 113.604 26.0852 112.914 22.0752ZM123.134 36.9052C126.134 36.6252 127.934 32.8252 128.314 32.2552C130.164 33.0452 130.014 37.9652 125.144 39.2552C118.424 41.0052 114.384 35.5152 117.674 33.3252C119.784 36.1352 120.074 37.1852 123.124 36.9052H123.134ZM122.184 36.6252C122.184 36.1852 119.814 27.5352 119.274 26.0352C120.704 27.2352 121.334 26.4652 122.414 24.9352C122.774 25.3152 123.954 26.6052 124.164 26.4452C124.742 26.0129 125.231 25.473 125.604 24.8552L126.224 25.6852C125.834 27.1152 123.224 36.5352 123.224 36.5452C122.875 36.5909 122.525 36.6176 122.174 36.6252H122.184ZM94.9138 44.6752C103.614 31.2152 115.734 30.9052 115.914 30.7452C116.402 31.5873 116.947 32.3958 117.544 33.1652C114.454 34.4352 116.094 41.8252 125.154 39.8952C130.824 38.6852 130.564 32.6552 128.544 31.8952C129.014 31.1952 129.544 30.5052 129.974 29.8152C140.114 31.6952 153.364 41.3652 159.404 57.8752C163.354 68.6752 163.904 80.4552 163.724 91.9852C162.165 90.4773 160.493 89.09 158.724 87.8352C159.574 88.0852 159.484 83.0152 154.604 83.6952C151.962 84.2071 149.623 85.7279 148.084 87.9352C146.405 90.3235 145.421 93.1311 145.244 96.0452C144.484 105.155 152.484 106.045 153.864 102.465C160.594 107.885 161.864 114.585 159.734 119.095C156.734 125.465 141.984 129.625 124.974 123.095C125.027 122.862 125.025 122.62 124.97 122.388C124.914 122.156 124.806 121.939 124.654 121.755C123.934 120.755 122.874 120.905 121.774 121.355C121.677 121.121 121.629 120.869 121.634 120.615C124.074 120.235 134.934 117.855 135.104 117.795C135.274 117.735 135.204 117.675 135.204 117.635C135.114 114.085 134.434 92.3651 134.414 90.3852C134.464 90.2652 134.414 90.0752 134.204 90.1352L134.024 90.1952C134.024 88.1952 134.434 88.4851 131.714 89.2751C131.714 87.0951 131.864 86.7752 131.564 86.8552C130.664 87.0852 129.774 87.3252 128.884 87.5852C128.884 86.5852 128.724 85.5152 128.684 84.4752C128.683 84.4574 128.678 84.44 128.67 84.4243C128.661 84.4087 128.649 84.3951 128.635 84.3845C128.621 84.374 128.604 84.3668 128.586 84.3634C128.569 84.3601 128.551 84.3607 128.534 84.3652C119.21 86.9609 110.586 91.6113 103.294 97.9752C103.194 98.0352 94.3638 90.0952 87.0938 84.7552C87.5538 71.1652 87.1237 56.7552 94.9138 44.6752ZM82.1637 81.8451C88.0137 85.6251 100.744 96.5652 101.914 97.6152L83.3537 86.3451C83.2237 85.5051 82.3337 82.5951 82.1637 81.8451ZM79.5237 84.4652C85.9937 88.3852 100.264 97.1352 100.314 97.1752C97.3138 95.7352 80.9737 89.4052 80.6737 89.2952C80.3337 87.6452 79.9137 86.1052 79.5237 84.4652ZM76.0837 88.0251C79.3337 89.3451 100.764 97.9152 100.794 97.9152C102.074 102.285 108.304 122.685 108.904 123.385C108.514 123.265 91.3138 117.535 90.6438 117.385C90.6038 117.255 76.1437 88.1251 76.0837 88.0251ZM21.9137 82.1652C23.0337 82.6152 24.3337 81.4552 24.2037 79.9652C25.9137 83.2552 36.8037 104.055 37.5437 106.105C37.6137 106.285 37.6437 106.235 39.1037 105.965C39.1984 106.329 39.2032 106.71 39.1177 107.077C39.0322 107.443 38.859 107.783 38.6131 108.067C38.3671 108.351 38.0557 108.572 37.7056 108.709C37.3556 108.846 36.9775 108.896 36.6037 108.855C34.9137 105.155 22.9837 83.8352 21.9137 82.1652ZM56.4637 106.545C55.7137 106.745 40.9037 108.895 37.8137 109.045C38.1299 108.955 38.4237 108.8 38.6759 108.589C38.9281 108.379 39.133 108.117 39.2773 107.822C39.4217 107.526 39.5022 107.204 39.5136 106.875C39.5251 106.547 39.4672 106.22 39.3437 105.915C39.5537 105.915 55.4037 102.995 56.9037 103.175C58.2237 103.325 58.7537 105.935 56.4837 106.545H56.4637ZM57.1237 102.675C56.5637 102.435 38.9537 105.475 37.8937 105.675C36.5637 102.105 24.0437 78.7952 23.8937 78.5752C28.4337 77.8352 39.5237 75.6952 40.7737 75.4752C42.8287 79.5484 45.1469 83.4834 47.7137 87.2552C46.1137 87.1752 44.0437 87.3152 42.1437 87.1052C42.1066 87.1052 42.071 87.1199 42.0447 87.1462C42.0185 87.1724 42.0037 87.208 42.0037 87.2452C42.1837 89.0052 42.1837 90.7852 42.3737 92.5452C42.3737 92.6652 42.6237 92.6852 42.6437 92.6852C45.4837 92.7552 48.4237 91.7952 51.2237 92.7652C51.8537 93.9752 56.9637 102.405 57.1437 102.675H57.1237ZM51.7237 93.0352C51.9443 93.1574 52.1305 93.3333 52.265 93.5465C52.3996 93.7597 52.4783 94.0035 52.4937 94.2552C52.0837 93.5852 51.8037 93.1252 51.7437 93.0352H51.7237ZM55.0837 98.5852L52.6137 94.4952C53.6137 91.2052 46.1237 92.1451 42.7737 92.2751C42.6037 90.5851 42.5637 89.2752 42.3937 87.5552C45.3137 87.8352 48.2937 87.3352 51.1137 88.2652C55.3137 89.6552 57.2637 93.8652 55.1037 98.5852H55.0837ZM60.5637 96.6652C59.8937 99.6652 56.8837 100.155 55.7537 97.7852C56.178 96.7036 56.356 95.5411 56.2747 94.3821C56.1934 93.2232 55.8549 92.0969 55.2837 91.0852C55.2837 90.9852 56.2837 88.8552 57.9737 89.4652C60.3237 90.2552 61.0537 94.5652 60.5837 96.6652H60.5637ZM61.1037 97.5951C60.9572 97.5851 60.8102 97.5851 60.6637 97.5951C61.4637 95.8251 60.9437 92.5952 60.0237 90.9152C63.3237 89.8952 63.6937 96.0051 61.1237 97.5951H61.1037ZM61.4837 97.5951C63.2837 96.6751 63.9137 91.6951 61.3137 90.5951C63.4237 90.1851 65.1137 90.0452 65.6637 91.8352C66.3937 94.1652 65.2037 97.5952 62.8437 97.9952C62.4154 97.8132 61.9648 97.6888 61.5037 97.6252L61.4837 97.5951ZM65.2537 99.5951C64.6531 98.9919 63.9571 98.4918 63.1937 98.1152C66.0437 98.1152 67.1937 91.9752 64.8437 90.4352C66.2698 90.5973 67.6515 91.0319 68.9137 91.7152C71.7937 94.3352 67.6237 100.575 65.2737 99.5951H65.2537ZM65.4237 99.8052C67.3537 100.805 71.9037 95.4252 69.4837 92.0352C71.1912 93.1137 72.62 94.5802 73.6537 96.3152C73.7099 96.6461 73.7466 96.98 73.7637 97.3151C73.7637 100.725 70.2837 102.745 67.0337 101.905C66.5875 101.146 66.0539 100.441 65.4437 99.8052H65.4237ZM67.1037 102.055C67.9138 102.384 68.7961 102.495 69.6624 102.377C70.5288 102.259 71.349 101.915 72.0411 101.381C72.7333 100.847 73.2733 100.14 73.6071 99.3319C73.941 98.5238 74.057 97.6422 73.9437 96.7751C74.8537 98.2651 75.6137 99.8451 76.4437 101.385C76.4166 101.819 76.3598 102.25 76.2737 102.675C75.5237 105.575 71.9137 107.345 68.5637 105.365C68.1872 104.22 67.7052 103.112 67.1237 102.055H67.1037ZM68.6237 105.525C71.9037 108.125 76.5537 105.525 76.6237 101.805C77.2761 103.047 78.0428 104.225 78.9137 105.325C78.9137 111.475 72.5637 112.095 69.8537 109.095C69.2637 107.375 69.0737 106.725 68.6437 105.525H68.6237ZM69.9937 109.335C73.3937 113.625 79.6637 110.245 79.1837 105.595C79.9334 106.502 80.8089 107.297 81.7837 107.955C83.1737 113.545 76.3337 116.735 72.1537 113.895C71.3217 112.434 70.6061 110.909 70.0137 109.335H69.9937ZM72.3937 114.335C77.0537 117.605 83.3937 113.135 82.0337 108.175C82.9069 108.723 83.8904 109.071 84.9137 109.195C86.4737 116.755 80.2837 120.775 76.9137 119.735C75.1188 118.172 73.5978 116.32 72.4137 114.255L72.3937 114.335ZM77.2037 120.025C82.7237 121.415 86.9437 113.755 85.1137 109.275C85.4099 109.3 85.7076 109.3 86.0037 109.275C87.2437 111.815 88.3237 114.025 89.0837 115.565C89.0797 117.086 88.6768 118.579 87.9153 119.895C87.1537 121.211 86.0601 122.304 84.7437 123.065C81.9593 122.917 79.3077 121.828 77.2237 119.975L77.2037 120.025ZM85.0537 123.025C86.3776 122.355 87.4771 121.313 88.2178 120.027C88.9584 118.741 89.308 117.267 89.2237 115.785C90.3637 118.105 89.9937 117.685 91.0037 118.015C91.1737 119.435 91.3638 120.845 91.5738 122.255C89.4692 122.892 87.2688 123.152 85.0738 123.025H85.0537ZM106.354 147.255C105.928 144.918 105.989 142.518 106.534 140.205C108.044 134.985 113.184 131.575 116.414 136.895C116.754 137.465 117.084 138.055 117.414 138.655C111.354 139.835 106.444 147.125 106.354 147.255ZM118.424 147.015C107.554 157.555 113.974 170.295 116.814 173.315C115.164 171.625 105.424 158.005 118.364 146.865C118.404 146.825 118.494 146.945 118.424 147.005V147.015ZM116.914 136.725C116.26 135.409 115.13 134.39 113.754 133.875C110.054 132.875 104.394 137.245 105.954 147.875C105.654 148.325 104.404 150.465 104.124 151.085C94.5737 144.945 93.1938 125.625 91.9238 118.315C95.9238 119.645 110.794 124.375 111.224 124.315C111.608 124.258 111.955 124.054 112.192 123.746C112.429 123.439 112.537 123.051 112.494 122.665C113.026 122.822 113.58 122.89 114.134 122.865C115.063 124.286 116.064 125.658 117.134 126.975C116.997 127.472 117.044 128.001 117.267 128.466C117.489 128.931 117.871 129.3 118.344 129.505C118.588 129.61 118.857 129.642 119.119 129.6C119.381 129.557 119.625 129.441 119.824 129.265C120.584 131.265 129.184 135.815 131.294 136.715C139.841 140.313 149.348 140.94 158.294 138.495C154.584 151.965 140.194 161.275 133.074 161.865C122.644 162.715 122.634 154.075 122.184 151.385C121.342 146.216 119.556 141.247 116.914 136.725ZM124.834 166.175C123.304 164.175 122.694 161.635 124.414 159.765C126.284 162.055 128.984 162.765 131.914 162.475C133.748 162.395 135.562 162.058 137.304 161.475C137.517 162.786 137.442 164.127 137.084 165.405C134.614 171.025 127.914 170.085 124.824 166.175H124.834ZM151.834 188.245C150.833 188.621 149.875 189.101 148.974 189.675C147.274 187.215 145.044 185.405 142.884 183.195C140.484 180.755 135.564 178.035 132.884 176.805L131.584 176.085C132.904 175.555 136.964 173.935 138.004 173.455C146.004 178.595 148.454 183.245 148.884 183.195C158.964 182.355 167.154 185.085 172.074 188.845C164.434 184.865 155.764 186.615 151.794 188.255L151.834 188.245ZM169.914 187.035C160.594 180.865 149.274 182.905 149.114 182.715C146.061 178.991 142.415 175.795 138.324 173.255C138.331 173.241 138.334 173.226 138.334 173.21C138.334 173.195 138.331 173.179 138.324 173.165C136.824 172.137 135.206 171.294 133.504 170.655C136.665 169.332 140.06 168.658 143.487 168.672C146.914 168.686 150.303 169.387 153.454 170.735C154.214 171.055 154.694 171.395 155.454 171.655C155.454 171.655 160.774 176.155 163.214 178.335C167.029 181.707 170.459 185.49 173.444 189.615C172.352 188.645 171.17 187.781 169.914 187.035ZM172.394 189.535L174.084 190.475C174.644 189.91 175.235 189.376 175.854 188.875C175.897 189.103 175.895 189.337 175.848 189.564C175.801 189.791 175.709 190.007 175.579 190.199C175.448 190.39 175.282 190.555 175.088 190.682C174.894 190.809 174.677 190.897 174.449 190.94C174.221 190.983 173.987 190.982 173.76 190.934C173.533 190.887 173.317 190.796 173.125 190.665C172.934 190.535 172.769 190.368 172.642 190.174C172.515 189.98 172.427 189.763 172.384 189.535H172.394ZM174.234 189.995C174.779 188.82 175.508 187.74 176.394 186.795C179.694 183.335 186.904 180.475 191.714 179.375C192.714 181.195 193.624 183.025 194.544 184.865C187.914 184.085 177.534 185.885 174.224 189.995H174.234ZM27.5737 153.255C27.5581 153.248 27.541 153.244 27.5237 153.244C27.5065 153.244 27.4894 153.248 27.4737 153.255C27.4667 153.269 27.463 153.285 27.463 153.3C27.463 153.316 27.4667 153.331 27.4737 153.345C27.4709 153.365 27.4723 153.386 27.4781 153.405C27.4838 153.424 27.4936 153.442 27.5069 153.457C27.5202 153.473 27.5367 153.485 27.5551 153.493C27.5735 153.501 27.5935 153.505 27.6137 153.505L30.8737 153.625C35.8737 153.825 44.3537 154.145 45.4337 154.145C45.4609 154.137 45.4848 154.121 45.5018 154.098C45.5188 154.076 45.528 154.048 45.528 154.02C45.528 153.992 45.5188 153.964 45.5018 153.942C45.4848 153.919 45.4609 153.903 45.4337 153.895C44.0537 153.795 38.4337 153.575 28.5637 153.235L27.5737 153.255ZM39.9137 151.255L43.8137 151.365C43.8316 151.367 43.8496 151.364 43.8666 151.358C43.8835 151.352 43.8991 151.343 43.9122 151.331C43.9254 151.319 43.9358 151.304 43.943 151.287C43.9501 151.271 43.9538 151.253 43.9537 151.235C43.9551 151.217 43.9528 151.198 43.947 151.181C43.9412 151.163 43.932 151.147 43.9199 151.133C43.9078 151.119 43.8931 151.108 43.8766 151.1C43.8601 151.091 43.8421 151.086 43.8237 151.085C39.8237 150.765 31.3837 150.575 26.3137 150.455H25.9137C23.9137 150.455 22.4137 150.375 21.9137 150.345C21.8889 150.344 21.8642 150.349 21.8417 150.36C21.8191 150.37 21.7993 150.386 21.7837 150.405C21.7715 150.428 21.7651 150.454 21.7651 150.48C21.7651 150.506 21.7715 150.532 21.7837 150.555C21.7954 150.577 21.8125 150.597 21.8335 150.611C21.8545 150.624 21.8786 150.633 21.9037 150.635C26.0137 150.855 34.6837 151.075 39.9137 151.255Z" fill="#4C2FB3"/>
<path d="M87.5535 161.045C92.4635 157.205 91.0935 152.725 88.1835 151.885C89.6435 150.885 89.8235 150.805 89.6635 150.565C89.6369 150.525 89.5965 150.497 89.5502 150.486C89.5039 150.475 89.4551 150.482 89.4135 150.505C85.3235 150.915 84.0635 145.665 88.0035 142.455C88.0147 142.444 88.0235 142.431 88.0296 142.416C88.0357 142.401 88.0388 142.386 88.0388 142.37C88.0388 142.354 88.0357 142.339 88.0296 142.324C88.0235 142.309 88.0147 142.296 88.0035 142.285C88.0158 142.253 88.0158 142.217 88.0035 142.185C87.9832 142.161 87.9563 142.143 87.926 142.134C87.8958 142.125 87.8636 142.126 87.8335 142.135L79.0435 141.585C79.7535 141.165 79.9535 141.135 79.9835 140.815C80.0135 140.495 78.5735 139.765 79.2935 137.535C79.5619 136.589 79.9519 135.681 80.4535 134.835C83.1735 133.455 83.0935 133.425 83.0535 133.275C83.0323 133.2 82.9929 133.132 82.9388 133.076C82.8847 133.02 82.8176 132.978 82.7435 132.955C75.6735 132.455 51.8335 131.325 51.7435 131.395C35.7435 138.005 19.5535 145.905 18.7435 146.585C16.8835 148.105 16.5335 151.125 16.5535 152.195C5.91349 160.375 5.83349 160.495 5.36349 161.405C5.01101 162.108 4.91106 162.912 5.08038 163.68C5.2497 164.448 5.67801 165.135 6.29349 165.625C8.79349 167.475 11.5735 165.535 13.9735 168.265C14.402 168.734 14.7155 169.296 14.8891 169.907C15.0627 170.518 15.0916 171.161 14.9735 171.785C10.8735 173.855 8.09349 174.335 8.73349 174.785C13.2535 176.495 11.9735 181.345 8.06349 182.455C8.0242 182.464 7.98924 182.487 7.96423 182.519C7.93922 182.55 7.92562 182.59 7.92562 182.63C7.92562 182.67 7.93922 182.71 7.96423 182.741C7.98924 182.773 8.0242 182.795 8.06349 182.805C8.22349 182.805 54.0635 186.385 57.6735 186.715C58.9538 186.876 60.2541 186.725 61.4635 186.275C62.1735 185.975 84.5135 171.275 85.7735 170.415C87.7735 169.065 89.7735 167.335 90.1435 164.795C90.3235 163.325 89.5335 161.825 87.5535 161.045ZM9.73349 174.825C9.83349 174.825 60.5435 178.825 60.7335 178.905C61.1057 178.979 61.4583 179.13 61.7684 179.349C62.0784 179.568 62.3391 179.849 62.5335 180.175C63.6335 182.485 62.2835 185.625 58.5335 186.315C57.4635 186.255 15.3535 182.965 8.91349 182.495C12.3635 180.885 13.2235 176.835 9.73349 174.825ZM12.6335 166.755C51.8035 169.525 57.4435 169.755 57.6335 169.755C58.5002 169.983 59.2813 170.46 59.8808 171.126C60.4803 171.792 60.8721 172.619 61.008 173.505C61.144 174.391 61.0182 175.297 60.6461 176.113C60.274 176.928 59.6718 177.617 58.9135 178.095C57.5335 177.995 18.8435 175.095 13.3635 174.665C16.0435 173.125 16.2335 168.665 12.6335 166.755ZM79.4135 140.755C78.5635 141.255 53.9135 155.865 53.1535 156.255C51.5135 156.345 49.7935 154.535 50.3635 151.815C51.1735 147.945 52.3635 148.335 79.9535 134.985C78.8535 136.865 77.6835 139.465 79.4135 140.725V140.755ZM53.6835 147.165H53.6235C22.9935 147.165 20.5035 146.295 18.3135 147.585C19.3135 146.215 19.1535 146.585 37.6235 138.235C45.0335 134.875 50.7735 132.235 51.6235 131.885C59.3135 132.535 78.6935 133.205 82.1535 133.385C79.3435 134.755 55.0035 146.425 53.6835 147.135V147.165ZM31.3535 147.525C37.8635 147.705 45.9535 147.925 53.0135 147.665C49.9235 149.275 48.3235 154.375 51.7335 156.455C23.6035 155.785 19.1535 157.555 17.3935 154.325C16.9609 153.484 16.7803 152.536 16.8735 151.595C17.6135 146.705 18.3435 147.155 31.3535 147.495V147.525ZM20.7435 156.525C20.9835 156.645 51.7435 156.945 53.0135 156.945C53.1435 156.945 68.7235 147.655 78.3535 141.945C79.1235 142.035 85.5735 142.375 87.2835 142.435C84.3935 144.325 60.3835 159.585 58.3635 161.365C50.0735 160.775 9.60349 159.925 9.49349 159.925C8.36094 159.85 7.2288 160.078 6.21349 160.585C6.90349 159.895 13.5435 154.835 16.4635 152.585C16.7235 155.255 18.9135 156.835 20.7435 156.535V156.525ZM88.6435 151.005C85.5235 153.005 60.9135 168.735 59.7635 169.455C58.1335 168.825 56.9635 168.085 56.7635 165.885C56.3435 161.355 59.6935 161.255 86.9135 143.045C83.8235 146.255 85.3635 150.875 88.6435 151.015V151.005ZM60.4635 177.255C62.1535 174.905 61.6335 171.115 58.8435 169.755C59.8435 169.755 58.3035 171.075 73.2835 161.335C79.3735 157.485 86.8035 152.785 87.7635 152.125C88.3361 152.259 88.8639 152.54 89.2952 152.939C89.7265 153.339 90.0464 153.844 90.2235 154.405C91.4835 158.235 86.9735 161.075 83.6235 163.355C78.1235 167.125 64.2735 175.185 60.4635 177.255ZM58.3935 169.345C30.5835 167.505 8.71349 166.145 7.82349 165.925C7.32584 165.85 6.854 165.654 6.44872 165.356C6.04345 165.058 5.71693 164.665 5.49737 164.212C5.27782 163.759 5.17184 163.26 5.18859 162.757C5.20533 162.254 5.3443 161.762 5.59349 161.325C5.96349 161.435 5.59349 160.325 9.49349 160.265C11.3635 160.265 53.0235 161.425 58.0535 161.615C55.4435 164.375 56.0635 167.965 58.3935 169.385V169.345ZM12.4835 174.575C11.3835 174.505 10.4835 174.465 9.63349 174.425C10.9335 173.955 13.6335 172.825 14.7135 172.265C14.2829 173.295 13.4894 174.131 12.4835 174.615V174.575ZM59.7935 178.155C69.179 173.023 78.2943 167.413 87.1035 161.345C87.6935 161.675 89.4935 162.765 89.6535 163.865C89.8835 165.435 88.7035 167.065 88.1835 167.695C87.4535 168.585 63.5035 184.485 62.0535 185.405C61.5255 185.737 60.9434 185.974 60.3335 186.105C64.0035 184.615 64.9635 178.985 59.7935 178.195V178.155Z" fill="#4C2FB3"/>
</svg>
