<svg width="248" height="248" viewBox="0 0 248 248" fill="none" xmlns="http://www.w3.org/2000/svg">
<path fill-rule="evenodd" clip-rule="evenodd" d="M214.346 98.5549C214.545 98.9641 215.301 99.0881 215.797 99.1749C219.839 99.8941 237.361 100.266 239.047 98.8153C240.523 97.5753 239.704 77.3137 238.266 76.4953C236.406 75.3917 216.119 75.1809 214.706 76.3093C213.677 77.1649 213.032 95.6905 214.346 98.5549ZM215.016 76.5697C216.144 75.6273 235.959 76.3341 237.745 77.2021C238.7 79.7565 239.32 95.8021 238.39 98.0837C236.877 99.1253 218.339 99.0881 215.103 98.0837C213.838 95.0457 214.309 77.1649 215.016 76.5697ZM165.031 74.3997C164.54 75.2409 163.876 75.9686 163.083 76.5349C162.29 77.1013 161.386 77.4934 160.431 77.6857C160.402 77.6782 160.371 77.6775 160.341 77.6836C160.312 77.6898 160.284 77.7026 160.26 77.7211C160.236 77.7397 160.217 77.7635 160.204 77.7906C160.19 77.8178 160.183 77.8476 160.183 77.8779C160.183 77.9081 160.19 77.938 160.204 77.9651C160.217 77.9923 160.236 78.0161 160.26 78.0346C160.284 78.0531 160.312 78.066 160.341 78.0721C160.371 78.0783 160.402 78.0776 160.431 78.0701C162.613 78.6405 165.453 76.6565 165.453 74.4741C165.463 74.4182 165.45 74.3606 165.418 74.3141C165.385 74.2676 165.335 74.2359 165.279 74.2261C165.223 74.2162 165.166 74.229 165.119 74.2615C165.073 74.2941 165.041 74.3438 165.031 74.3997ZM154.901 63.3017V64.5417C154.901 64.7061 154.966 64.8638 155.082 64.9801C155.198 65.0964 155.356 65.1617 155.521 65.1617C155.684 65.1585 155.84 65.0922 155.955 64.9766C156.071 64.861 156.137 64.7051 156.141 64.5417V63.3017C156.141 63.1372 156.075 62.9795 155.959 62.8633C155.843 62.747 155.685 62.6817 155.521 62.6817C155.356 62.6817 155.198 62.747 155.082 62.8633C154.966 62.9795 154.901 63.1372 154.901 63.3017ZM167.263 64.4797C167.263 64.6441 167.329 64.8018 167.445 64.9181C167.561 65.0344 167.719 65.0997 167.883 65.0997C168.048 65.0997 168.205 65.0344 168.322 64.9181C168.438 64.8018 168.503 64.6441 168.503 64.4797V62.9421C168.503 62.7776 168.438 62.6199 168.322 62.5037C168.205 62.3874 168.048 62.3221 167.883 62.3221C167.719 62.3221 167.561 62.3874 167.445 62.5037C167.329 62.6199 167.263 62.7776 167.263 62.9421C167.214 63.4753 167.263 64.0953 167.263 64.4797Z" fill="#4C2FB3"/>
<path fill-rule="evenodd" clip-rule="evenodd" d="M239.158 154.181C239.077 154.043 238.962 153.928 238.824 153.847C237.757 153.326 231.954 153.586 230.751 153.636C230.962 121.111 213.825 100.824 188.951 95.0086C184.388 93.9422 184.375 93.8678 184.251 93.9422L183.408 91.6234C185.789 91.549 187.736 89.7138 189.918 90.0858C191.567 90.3586 192.398 91.8218 194.022 92.4418C196.775 93.4834 201.673 91.8838 203.174 89.2674C203.943 87.9034 203.26 86.4898 203.744 85.5474C204.612 84.791 207.08 83.5758 207.786 82.6954C209.237 80.885 209.299 76.8302 208.642 74.6354C207.456 72.1517 205.839 69.8974 203.868 67.9766C201.724 65.9102 199.822 63.6053 198.201 61.107C196.205 57.1266 196.13 51.621 194.481 47.467C192.664 43.7163 189.85 40.5376 186.347 38.2786C182.926 35.8622 178.801 34.6457 174.617 34.819C170.711 35.067 169.185 36.7286 167.362 37.299C165.54 37.8694 165.155 37.299 162.192 38.601C161.015 39.3179 159.967 40.2275 159.092 41.2918C158.72 41.6886 158.744 41.7134 158.112 41.7382C157.431 41.687 156.747 41.687 156.066 41.7382C154.905 41.9959 153.795 42.4442 152.78 43.065C145.873 47.2066 147.733 55.5394 145.129 61.665C143.356 65.8314 138.421 69.8366 137.999 74.189C137.85 76.1902 138.28 78.1921 139.239 79.955C142.252 85.2498 146.58 81.0958 148.824 84.3322C149.531 85.349 150.064 86.341 151.379 86.5394C153.053 86.7626 155.334 85.4358 156.698 84.4562C156.985 84.7903 157.31 85.09 157.666 85.349C158.874 86.1639 160.173 86.8379 161.534 87.3578L158.385 91.7598C152.482 91.0902 143.418 92.9998 137.578 94.7978C137.367 93.3098 135.532 81.0214 134.143 80.4262C132.221 79.583 112.046 81.9266 110.818 83.2534C109.913 84.2206 111.538 102.635 113.298 105.387C113.559 105.809 114.452 105.821 114.948 105.834C112.046 107.818 109.244 109.827 108.239 110.558C107.458 107.855 103.354 93.5578 101.841 91.2142C101.407 90.5322 101.01 90.5446 99.0137 91.2142C97.8758 85.5365 96.4353 79.9237 94.6985 74.3998C95.3497 73.3292 95.8701 72.1844 96.2485 70.9898C96.7106 69.0977 96.7781 67.1307 96.4469 65.2114C97.9597 65.7198 106.999 68.1998 108.462 67.4806C108.856 67.2002 109.147 66.7999 109.293 66.3398C110.893 62.843 113.633 50.9018 113.844 47.1198C113.931 46.6355 113.848 46.1361 113.608 45.7062C112.158 44.1934 92.6401 38.5762 90.9909 39.3202C89.9865 39.779 87.2709 48.6946 86.9857 49.7486C84.6173 57.697 85.8201 55.9486 84.5057 56.4074C82.9929 56.9406 81.6909 60.1274 81.1577 61.603C80.6245 63.0786 80.0665 65.0626 80.6989 66.2282C80.4421 66.7022 80.3388 67.2443 80.4032 67.7796C80.4676 68.3149 80.6966 68.817 81.0585 69.2166C80.6642 69.6561 80.4071 70.2015 80.319 70.7854C80.2308 71.3693 80.3155 71.9662 80.5625 72.5026C80.9221 73.631 83.1665 74.375 84.2825 74.6974C83.4014 77.0718 82.6684 79.4986 82.0877 81.9638C81.0986 85.7891 80.308 89.6631 79.7193 93.5702C79.3525 95.4688 79.2316 97.4067 79.3597 99.3362L77.3261 100.254C77.2479 100.29 77.1817 100.347 77.1355 100.42C77.0893 100.493 77.065 100.577 77.0657 100.663C77.0657 100.663 77.4501 115.692 82.3977 128.179C88.3745 143.294 98.2077 148.353 113.174 142.699C113.309 143.886 113.601 145.049 114.042 146.159C114.266 146.555 115.022 146.63 115.53 146.679C119.933 146.824 124.339 146.687 128.724 146.27L132.444 169.83C131.44 172.732 120.044 205.79 120.205 208.865C120.205 209.188 120.329 209.436 120.862 209.684C124.148 211.209 155.285 215.276 156.463 211.879C156.76 211.048 157.48 205.753 157.616 204.749L175.137 202.814L191.84 203.918C192.02 205.59 192.318 207.248 192.733 208.878C192.882 209.25 193.055 209.448 193.489 209.411C195.138 209.25 203.93 207.663 206.36 207.204C215.685 205.443 215.475 205.294 215.202 204.377C214.544 202.207 208.444 185.281 206.063 177.382C209.546 177.753 213.058 177.753 216.541 177.382C216.579 177.516 216.649 177.639 216.747 177.738C216.844 177.838 216.965 177.912 217.099 177.952C219.368 178.783 239.642 177.63 241.304 175.968C242.804 174.641 240.287 156.066 239.158 154.181ZM91.0157 39.8534C91.1521 39.6426 91.1025 39.5558 92.1937 39.717C96.7445 40.3618 111.624 45.1606 112.914 46.289C113.162 49.1286 109.479 64.7154 108.028 66.6002C106.974 66.9598 99.9809 65.1742 98.9021 64.889C90.6933 62.7438 91.0157 62.409 89.1433 61.975C88.1761 61.6402 88.0769 61.6278 88.1017 61.4914C88.1048 61.4607 88.1192 61.4322 88.1421 61.4116C88.165 61.391 88.1948 61.3796 88.2257 61.3798C89.3417 61.3798 92.3301 61.293 93.0617 60.425C93.2232 60.2485 93.3437 60.0385 93.4146 59.81C93.4855 59.5815 93.5051 59.3402 93.4719 59.1032C93.4388 58.8663 93.3537 58.6396 93.2227 58.4394C93.0918 58.2392 92.9182 58.0704 92.7145 57.945C91.1208 57.3065 89.4552 56.8651 87.7545 56.6306C87.2461 56.5314 86.6261 56.3578 86.0061 56.2834C86.8617 52.4146 89.6889 41.9118 91.0157 39.8534ZM80.3641 98.927V97.005C80.4757 94.649 81.6041 88.4614 81.9389 86.7626C82.4845 84.0098 82.6085 83.3898 84.1957 77.413C84.1957 77.2518 85.1505 74.5858 85.1505 74.5858C85.1676 74.5395 85.1747 74.4901 85.1712 74.4409C85.1677 74.3916 85.1537 74.3437 85.1303 74.3003C85.1068 74.2569 85.0743 74.219 85.0351 74.1891C84.9958 74.1592 84.9506 74.138 84.9025 74.127C84.7661 74.127 81.5421 73.3334 81.1825 72.3042C80.8229 71.275 80.7485 70.035 81.6537 69.4894C81.687 69.4652 81.7141 69.4335 81.7328 69.3969C81.7515 69.3603 81.7612 69.3197 81.7612 69.2786C81.7612 69.2374 81.7515 69.1969 81.7328 69.1603C81.7141 69.1236 81.687 69.0919 81.6537 69.0678C81.2574 68.7424 80.9908 68.2859 80.9021 67.7809C80.8133 67.276 80.9084 66.7559 81.1701 66.315C81.4553 65.7322 79.9301 66.0174 81.7405 61.8386C82.1993 60.8094 83.7493 57.6474 84.8033 57.3002C85.7366 57.2091 86.6786 57.3147 87.5685 57.6102C89.1227 57.855 90.6505 58.2452 92.1317 58.7758C92.2259 58.8264 92.3071 58.8981 92.3691 58.9853C92.431 59.0725 92.472 59.1728 92.4888 59.2784C92.5056 59.384 92.4978 59.4921 92.4659 59.5942C92.4341 59.6963 92.3791 59.7896 92.3053 59.867C91.7605 60.1757 91.1637 60.3817 90.5445 60.4746C86.6385 61.2434 87.3329 60.3878 86.8245 61.7146C85.3323 61.6271 83.8407 61.8948 82.4721 62.4958C81.9389 62.6074 82.1621 62.9546 82.5465 62.8926C84.2078 62.3481 85.9847 62.2582 87.6925 62.6322C88.6834 62.8133 89.652 63.1001 90.5817 63.4878C91.4248 63.8303 92.1733 64.3704 92.7641 65.0626C92.8696 65.3249 92.9089 65.6092 92.8787 65.8903C92.8484 66.1714 92.7494 66.4407 92.5905 66.6746C92.2929 67.1334 90.8545 66.8234 90.3089 66.6746C89.5649 66.4514 88.7837 66.2654 88.0521 66.0298C87.0229 65.7074 87.1345 65.6206 86.8121 65.6454C85.6748 65.8065 84.5624 66.1106 83.5013 66.5506C83.4713 66.554 83.4424 66.5643 83.417 66.5805C83.3915 66.5968 83.3701 66.6187 83.3544 66.6445C83.3387 66.6703 83.3291 66.6993 83.3263 66.7294C83.3235 66.7595 83.3276 66.7898 83.3383 66.8181C83.349 66.8463 83.3661 66.8717 83.3881 66.8924C83.4101 66.9131 83.4366 66.9284 83.4655 66.9373C83.4944 66.9462 83.5249 66.9484 83.5547 66.9437C83.5846 66.939 83.6129 66.9275 83.6377 66.9102C84.5873 66.6424 85.558 66.4557 86.5393 66.3522C87.0973 66.3522 86.7377 66.3522 88.1389 66.9102C88.7713 67.1458 89.3789 67.3318 90.0485 67.555C90.4792 67.7026 90.9237 67.8064 91.3753 67.865C92.1689 68.609 92.7393 70.345 91.6729 70.655C91.2539 70.7272 90.8229 70.6755 90.4329 70.5062C87.5933 69.5762 89.5153 68.9066 83.3525 70.1714C83.3021 70.1776 83.2559 70.2029 83.2236 70.2422C83.1913 70.2814 83.1753 70.3315 83.1789 70.3822C83.1789 70.7046 83.3897 70.5062 86.7997 70.3822C87.212 70.3407 87.6274 70.3407 88.0397 70.3822C89.1061 70.9278 90.6933 71.8578 91.9209 71.4982C93.4213 71.0146 93.3717 69.353 92.4045 68.1378C92.0573 67.7162 92.0201 67.8402 92.3177 67.7906C92.5353 67.767 92.7457 67.6986 92.9356 67.5898C93.1255 67.4809 93.2909 67.334 93.4213 67.1582C93.7149 66.7531 93.8792 66.2687 93.8925 65.7685C93.9057 65.2684 93.7674 64.7759 93.4957 64.3558L95.5789 64.9758C95.9913 66.8964 95.9574 68.886 95.4797 70.7914C95.3468 71.2565 95.1725 71.7089 94.9589 72.143C94.0537 74.0526 93.7189 74.1146 93.8305 74.4742C95.5536 80.077 96.9734 85.7685 98.0837 91.5242C93.4089 93.161 84.8405 96.9306 80.3641 98.927ZM178.485 185.095C183.792 185.318 195.2 185.727 200.433 185.566C200.074 187.128 199.85 188.12 199.788 188.343C197.296 188.343 181.188 185.553 178.485 185.095ZM202.442 184.462C199.119 185.243 155.979 183.557 152.284 181.982C152.668 179.205 156.289 163.593 157.021 160.406C160.275 161.402 163.661 161.904 167.065 161.894C168.305 162.539 170.351 163.655 171.578 164.238C171.442 165.292 171.107 167.784 171.851 168.528C172.595 169.272 189.72 175.559 204.736 177.32C204.13 179.749 203.364 182.135 202.442 184.462ZM156.624 154.615C156.053 154.442 155.525 154.151 155.074 153.76C154.752 153.413 154.863 152.359 155.074 151.863C155.189 151.622 155.394 151.435 155.644 151.342C155.947 151.21 156.27 151.131 156.599 151.106C156.698 151.104 156.793 151.072 156.873 151.014C156.952 150.956 157.012 150.875 157.045 150.782C157.077 150.689 157.08 150.588 157.054 150.493C157.027 150.398 156.973 150.313 156.897 150.251C156.172 149.64 155.666 148.808 155.458 147.882C155.458 147.2 155.719 146.493 156.81 145.873C158.05 145.973 161.77 149.048 163.494 147.275C165.217 145.501 163.184 141.347 165.106 141C167.028 140.653 167.995 146.431 168.33 147.064C169.446 149.234 172.446 150.784 174.158 152.569C173.124 156.266 172.296 160.016 171.678 163.804C169.198 162.477 167.363 161.324 167.176 161.324C164.585 161.237 157.629 160.518 155.818 158.67C155.496 158.421 155.276 158.064 155.198 157.665C155.121 157.265 155.191 156.851 155.396 156.5C155.528 156.267 155.706 156.063 155.919 155.901C156.133 155.739 156.377 155.622 156.636 155.558C156.743 155.532 156.837 155.471 156.904 155.384C156.971 155.298 157.007 155.191 157.005 155.082C157.004 154.972 156.965 154.867 156.896 154.782C156.827 154.697 156.731 154.639 156.624 154.615ZM170.438 113.323C168.134 113.103 165.82 113.012 163.506 113.051C163.208 113.051 162.96 113.199 162.874 113.485C162.663 114.278 159.154 140.07 158.98 141.335C158.236 128.935 157.467 115.878 156.897 106.305C161.212 113.187 161.584 113.869 162.266 113.385C164.566 111.494 166.74 109.457 168.776 107.285C169.148 108.661 169.743 110.905 170.438 113.323ZM181.784 108.971C180.94 107.731 180.11 106.491 179.8 106.032L183.805 95.951L181.784 108.971ZM184.673 94.7358C189.363 95.7029 193.936 97.1704 198.313 99.113C198.127 99.6958 195.734 107.012 192.869 115.741C191.555 115.58 184.028 114.663 181.709 114.415L184.673 94.7358ZM179.601 107.409L181.56 110.36L180.94 114.328L179.018 114.08C179.304 111.389 179.502 108.835 179.601 107.409ZM213.838 120.491C213.822 122.105 213.664 123.715 213.367 125.302C209.113 124.211 172.012 115.084 168.243 117.229C166.358 118.321 160.158 143.765 159.563 146.059L159.117 145.836C161.076 132.06 163.68 113.993 163.68 113.943C167.908 113.46 208.642 118.073 213.838 120.491ZM192.2 146.419C189.422 146.233 178.398 145.687 176.08 147.225C175.72 147.473 175.571 147.523 174.294 152.111C172.645 150.362 169.88 148.713 168.95 146.766C168.528 145.911 167.846 139.661 164.957 140.145C161.063 140.802 166.036 148.825 160.282 146.345C160.654 144.77 166.755 118.507 168.454 117.539C172.05 115.493 211.271 125.475 216.231 126.877C215.946 129.902 212.3 146.047 211.63 148.998C205.209 147.764 198.721 146.903 192.2 146.419ZM173.104 59.681C173.798 60.1522 173.773 61.2806 173.649 62.099C172.781 67.6418 167.226 71.0022 163.37 65.695C162.489 64.455 161.807 60.5118 162.402 59.6438C162.799 59.1354 165.998 59.1106 166.643 59.1106C167.834 59.123 172.484 59.309 173.054 59.681H173.104ZM158.335 60.5738C158.335 62.905 157.554 66.7738 155.483 67.8898C152.148 69.6258 148.762 66.873 148.676 63.2894C148.549 61.9811 148.611 60.6613 148.862 59.371L148.986 59.309C148.787 58.9618 157.504 58.8502 158.286 59.6314C158.312 59.945 158.312 60.2602 158.286 60.5738H158.335ZM162.65 87.5686C164.796 88.1886 168.255 87.891 169.917 86.1922C169.952 86.1553 169.971 86.1065 169.971 86.0558C169.971 86.005 169.952 85.9562 169.917 85.9194C169.632 85.5722 169.917 86.2418 166.693 86.7254C163.469 87.209 161.522 86.7254 158.261 84.605C156.762 83.2278 155.639 81.4907 155 79.5582C153.665 76.2876 152.829 72.8349 152.52 69.3158C153.687 69.5069 154.884 69.3109 155.93 68.7578C156.944 68.1644 157.731 67.2474 158.162 66.1538C157.743 67.4642 157.4 68.7972 157.132 70.1466C157.074 70.3193 157.066 70.5049 157.107 70.6823C157.149 70.8597 157.239 71.0221 157.368 71.151C158.226 71.675 159.235 71.8936 160.232 71.771C160.262 71.7785 160.292 71.7792 160.322 71.773C160.352 71.7669 160.379 71.7541 160.403 71.7355C160.427 71.717 160.447 71.6932 160.46 71.666C160.473 71.6389 160.48 71.609 160.48 71.5788C160.48 71.5485 160.473 71.5187 160.46 71.4915C160.447 71.4644 160.427 71.4406 160.403 71.4221C160.379 71.4035 160.352 71.3907 160.322 71.3845C160.292 71.3784 160.262 71.3791 160.232 71.3866C159.497 71.3047 158.787 71.068 158.149 70.6922C157.864 70.4938 157.988 70.6178 158.075 70.2086C158.162 69.7994 159.774 63.8846 159.86 63.5126C160.245 63.5126 161.708 63.3142 161.708 62.9546C161.708 62.595 160.542 62.4958 160.108 62.5206C160.108 62.3594 160.183 62.223 160.22 62.099C160.24 62.0497 160.239 61.9945 160.218 61.9457C160.197 61.8968 160.158 61.8583 160.108 61.8386C160.059 61.8188 160.004 61.8195 159.955 61.8405C159.906 61.8614 159.868 61.9009 159.848 61.9502C159.414 62.7934 159.712 62.4834 159.129 62.6322C159.353 61.4857 159.353 60.3067 159.129 59.1602C158.422 58.069 154.169 58.317 152.78 58.4038C153.487 54.2498 156.24 52.2038 157.926 48.8806C158.399 48.1092 159.028 47.4459 159.774 46.9338C160.146 46.8346 160.877 47.7646 161.324 47.9878C161.77 48.211 162.192 49.4386 162.564 49.8602C163.733 51.192 165.081 52.3562 166.569 53.3198C167.809 54.2002 169.743 54.3366 170.587 55.465C170.943 56.4245 171.115 57.4425 171.095 58.4658C169.495 58.3666 162.824 58.2674 162.03 59.4082C161.311 60.3258 161.621 64.517 162.675 66.129C165.329 70.1466 169.408 70.3946 172.595 66.7738C172.938 66.3464 173.229 65.8803 173.463 65.385C175.844 69.105 177.716 71.3246 177.803 75.6894C177.902 81.2198 176.34 90.3834 182.329 91.5366L183.358 94.3762C178.398 106.851 178.659 106.069 178.659 106.193C178.659 106.317 178.423 109.913 177.989 114.03C175.608 113.782 173.389 113.571 171.417 113.41C171.269 112.902 169.421 106.33 169.458 106.193C169.644 105.573 168.714 104.358 167.995 103.279C165.298 99.3746 162.353 95.6469 159.178 92.1194L162.65 87.5686ZM158.286 92.4542C158.496 92.7766 167.424 102.597 168.516 106.206C166.51 108.429 164.342 110.502 162.03 112.406C161.2 111.315 158.955 107.719 156.822 104.358C156.438 97.873 156.178 93.3594 156.116 92.417C156.81 92.3674 157.591 92.4046 158.236 92.4542H158.286ZM114.005 104.854C112.592 102.374 110.632 86.2542 111.091 83.7742C111.091 83.551 111.091 83.4766 112.133 83.1914C116.572 82.0382 132.146 80.7114 133.783 81.2694C135.023 83.6874 137.739 99.4726 137.094 101.903C135.829 102.92 117.651 105.487 113.956 104.854H114.005ZM114.873 145.65C113.447 142.848 112.393 124.88 113.1 124.198C114.154 123.181 133.944 122.313 135.817 123.045C137.057 125.649 138.818 141.645 138.086 143.815C136.4 145.08 117.8 146.32 114.824 145.65H114.873ZM143.182 124.868C144.075 124.632 150.3 123.045 151.044 122.599C151.577 122.289 152.185 123.293 141.756 94.6738C142.996 93.533 153.834 92.0698 155.545 92.603C155.545 93.285 157.17 122.227 158.447 145.452C157.839 145.154 156.959 144.695 156.401 145.005C154.07 146.245 153.921 148.304 155.644 150.313C155.323 150.392 155.024 150.545 154.772 150.76C154.52 150.975 154.322 151.247 154.194 151.553C153.995 152.018 153.91 152.524 153.947 153.029C153.984 153.534 154.141 154.022 154.404 154.454C154.694 154.731 155.024 154.961 155.384 155.136C155.014 155.384 154.721 155.733 154.541 156.141C154.378 156.492 154.282 156.87 154.256 157.257L143.182 124.868ZM174.046 202.033L157.852 203.831C157.926 203.236 159.749 188.864 160.332 183.991C163.704 184.289 167.772 184.549 172.124 184.785C172.843 193.725 174.108 199.9 173.996 202.033H174.046ZM174.902 201.934C175.075 199.107 172.744 184.933 172.732 184.809L173.972 184.871C178.188 185.653 189.05 187.575 190.228 187.773C190.625 191.766 191.617 201.066 191.852 202.975C173.364 201.785 175.36 201.884 174.84 201.934H174.902ZM240.696 175.398C239.456 176.39 221.24 178.051 217.483 177.233C216.033 174.418 215.003 156.463 215.71 155.781C216.777 154.752 236.567 153.909 238.415 154.628C239.58 157.219 241.378 173.277 240.647 175.398H240.696Z" fill="#4C2FB3"/>
<path fill-rule="evenodd" clip-rule="evenodd" d="M114.898 166.284C114.799 165.837 114.662 165.193 114.303 165.044C113.063 164.3 104.891 164.151 103.44 164.126C103.118 158.211 102.548 151.379 101.618 149.544C101.01 148.304 60.9333 148.18 59.5569 148.167C59.6561 141.496 59.6685 131.328 59.5569 124.607C61.3053 124.607 70.0349 124.607 71.2377 123.615C72.7753 122.375 71.7461 105.821 71.0517 102.535C70.9525 102.089 70.8037 101.444 70.4565 101.295C68.6461 100.217 48.3349 99.9562 46.8965 101.109C46.1401 101.742 45.8549 109.492 45.8177 110.471C42.9781 110.471 25.4197 110.112 19.1453 110.261V100.13C20.7697 100.13 30.3053 100.39 31.5453 99.3487C33.0457 98.1087 32.5497 77.847 31.1237 77.0286C29.6977 76.2102 20.7945 75.9499 19.2569 75.9127C19.2569 74.1519 19.1205 69.7127 19.1081 69.6011C24.8493 69.3903 39.9773 69.8738 46.2145 69.8738C46.2145 71.8206 46.1029 78.7523 46.9213 80.5255C47.1197 80.947 47.8761 81.071 48.3721 81.1578C52.3153 81.8522 69.8985 82.2615 71.6221 80.7983C73.3457 79.3351 72.1429 60.797 71.1385 58.8006C71.0719 58.6571 70.9694 58.5333 70.8409 58.441C68.9685 57.3375 48.6821 57.201 47.2809 58.255C46.4749 58.937 46.2021 67.8154 46.1773 68.8818C39.8409 68.8818 24.9361 68.3983 19.0337 68.6091C19.0337 66.2159 18.9097 63.7978 18.9097 61.417C20.6705 61.417 31.3097 61.2558 32.6365 60.0902C33.9633 58.9246 32.6365 40.1386 31.5701 38.105C31.5038 37.9609 31.3958 37.84 31.2601 37.7578C29.3753 36.7038 9.08888 37.0262 7.70008 38.1918C6.64608 39.1094 6.46008 57.6474 7.87368 60.5118C7.97107 60.6718 8.11963 60.7941 8.29528 60.8591C9.70888 61.4543 16.3057 61.4666 17.8557 61.4666C17.8557 67.0094 18.1037 71.5107 18.1533 75.9375C16.9133 75.9375 8.45648 75.7514 7.51408 76.5079C6.57168 77.2643 5.43088 95.7898 6.74528 98.8278C6.93128 99.237 7.68768 99.3858 8.18368 99.4726C11.47 99.9472 14.7836 100.208 18.1037 100.254V118.556C16.9257 118.556 8.85328 118.407 7.94808 119.139C7.04288 119.871 5.85248 138.421 7.16688 141.459C7.35288 141.881 8.10928 142.017 8.60528 142.116C12.6229 142.885 30.1317 143.555 31.8553 142.116C33.5789 140.678 32.6861 122.09 31.7437 120.119C31.6766 119.972 31.5744 119.844 31.4461 119.747C30.0945 118.928 20.6953 118.655 19.0461 118.618V111.451C25.4693 111.29 42.3085 111.649 45.7061 111.662C45.7061 113.757 45.5077 121.656 46.4005 123.578C46.4815 123.745 46.6237 123.874 46.7973 123.938C48.3969 124.669 56.7173 124.818 58.4161 124.831C58.5773 131.576 58.5649 141.769 58.4161 148.391C41.7505 148.304 24.4649 148.477 20.9805 149.184C20.6085 149.259 20.0009 149.383 19.9761 149.903C19.9761 149.903 19.3065 160.617 18.9965 164.3C17.8929 164.3 10.6389 164.3 9.79568 165.044C8.95248 165.788 8.02248 184.363 9.38648 187.364C9.57248 187.773 10.3289 187.909 10.8249 187.996C14.7805 188.691 32.3513 189.1 34.0749 187.637C35.7985 186.173 34.5833 167.598 33.5913 165.639C33.641 165.521 33.657 165.391 33.6373 165.264C33.6175 165.137 33.563 165.018 33.4797 164.92C32.0537 164.064 21.8733 163.99 20.1869 163.977C20.4845 160.257 21.1293 149.903 21.1293 149.903C25.3701 148.663 95.9137 148.812 100.849 150.065C101.605 151.875 102.089 158.087 102.486 164.027C101.246 164.027 91.8217 163.953 90.8421 164.771C89.8625 165.589 89.1185 184.202 90.4329 187.091C90.5199 187.258 90.6658 187.386 90.8421 187.451C93.0369 188.443 113.336 188.889 115.121 187.364C115.428 186.992 115.607 186.531 115.63 186.049C116.212 182.28 115.704 170.004 114.898 166.284ZM47.5413 58.4038C48.6449 57.4862 68.4353 58.1434 70.2705 59.0362C70.731 60.9934 70.9968 62.9912 71.0641 65.0006C63.1157 64.1946 52.3773 64.8146 46.8965 65.0006C46.9213 64.2566 47.1197 58.7014 47.5413 58.3666V58.4038ZM46.8841 65.6827C55.9113 65.9679 66.6249 65.4967 71.1013 65.5462C71.2377 67.7411 71.7213 78.0206 70.9153 79.9178C69.9977 80.5502 62.7685 80.6618 61.6649 80.6742C58.9989 80.6742 50.2073 80.6742 47.6281 79.9302C46.7353 77.7602 46.8221 68.1254 46.8841 65.6454V65.6827ZM8.02248 38.291C9.12608 37.3238 28.9537 37.5098 30.7641 38.291C31.1709 39.6732 31.4287 41.0949 31.5329 42.5318C23.5228 42.2957 15.5067 42.7104 7.56368 43.7718C7.57608 43.3254 7.66288 38.6134 8.02248 38.291ZM8.67968 59.805C7.67528 57.5606 7.53888 47.1198 7.56368 44.1934C8.60528 44.0694 31.1237 42.9534 31.5825 42.9534C31.8553 45.4334 32.8225 57.0027 31.9545 59.1727C30.2929 60.3755 11.6309 60.611 8.67968 59.805ZM7.82408 76.5822C8.95248 75.677 28.7305 76.6567 30.5533 77.5742C30.9588 79.4246 31.1831 81.31 31.2229 83.2038C31.3469 83.2038 13.6893 82.5094 7.10488 82.7202C7.14208 81.9886 7.43968 76.8798 7.82408 76.5822ZM31.1981 141.062C29.8341 141.955 11.5441 141.843 7.92328 140.69C7.03048 138.471 7.30328 128.29 7.42728 125.699C7.55128 125.699 24.5021 127.013 31.5949 126.182C31.7189 128.451 32.0537 139.128 31.1981 141.05V141.062ZM30.9005 120.156C31.3042 122.011 31.5325 123.9 31.5825 125.798C31.7065 125.798 14.0861 125.103 7.45208 125.302C7.50734 123.309 7.71879 121.323 8.08448 119.362C8.17128 119.114 8.08448 119.065 9.20048 118.941C13.6397 118.445 29.3133 119.35 30.9005 120.143V120.156ZM7.56368 98.0962C6.68328 95.8766 6.95608 85.7706 7.08008 83.117C7.22888 83.117 24.1301 84.4314 31.2477 83.6006C31.3717 85.8822 31.7189 96.4966 30.8509 98.4806C29.1769 99.5718 10.5521 99.051 7.56368 98.0962ZM33.7525 172.062C33.9013 174.369 34.3725 184.623 33.5665 186.57C32.2521 187.488 13.8877 187.674 10.2793 186.57C9.38648 184.413 9.47328 174.703 9.53528 172.112C17.5333 172.422 24.7997 172.062 33.7525 172.062ZM32.9217 165.689C33.3804 167.642 33.6503 169.635 33.7277 171.641C25.8413 170.847 14.7309 171.479 9.54768 171.715C9.54768 170.934 9.78328 165.391 10.1925 165.056C11.3085 164.139 31.0865 164.796 32.9217 165.689ZM47.1197 101.271C48.2605 100.316 68.0509 101.035 69.8489 101.903C70.3205 103.939 70.5946 106.015 70.6673 108.103C65.2857 107.818 51.8937 106.962 46.4873 107.632C46.5493 106.925 46.7601 101.605 47.1197 101.271ZM47.2437 122.76C46.3385 120.59 46.4377 110.67 46.5121 108.078C48.2605 107.905 60.9085 108.698 66.7861 108.649C68.2865 108.649 69.6381 108.587 70.7293 108.549C70.8657 110.757 71.3245 120.838 70.5309 122.747C68.9065 123.901 50.2569 123.715 47.2437 122.76ZM91.0529 165.056C92.1689 164.139 111.947 164.796 113.794 165.689C114.249 167.647 114.515 169.644 114.588 171.653C106.776 170.859 95.4673 171.492 90.4205 171.653C90.4329 170.996 90.6437 165.428 91.0529 165.093V165.056ZM114.439 186.57C113.088 187.488 94.7233 187.674 91.1521 186.57C90.2469 184.425 90.3337 174.679 90.4081 172.099C98.7533 172.422 105.015 172.099 114.613 172.099C114.762 174.381 115.233 184.673 114.439 186.607V186.57Z" fill="#4C2FB3"/>
</svg>
