<svg width="200" height="200" viewBox="0 0 200 200" fill="none" xmlns="http://www.w3.org/2000/svg">
<path fill-rule="evenodd" clip-rule="evenodd" d="M124.196 14.0427C125.826 14.9727 128.196 16.3027 130.276 16.0427C130.533 15.9978 130.776 15.8946 130.986 15.7408C131.197 15.587 131.369 15.3869 131.49 15.1558C131.611 14.9248 131.677 14.6691 131.683 14.4084C131.689 14.1478 131.636 13.8892 131.526 13.6527C130.946 12.4349 130.073 11.3801 128.986 10.5827V10.3327C130.986 9.70265 133.716 8.64265 132.816 6.75265C132.577 6.21265 132.156 5.77378 131.626 5.51265C129.426 4.44265 126.426 5.23265 124.226 5.81265C122.326 6.32265 120.546 6.58265 119.936 8.12265C118.766 10.9127 121.326 12.4027 124.196 14.0427ZM131.836 6.44265C133.536 8.01265 130.676 9.05265 129.606 9.44265C129.436 9.50006 129.262 9.54354 129.086 9.57265C129.123 8.90575 128.959 8.24303 128.615 7.67058C128.271 7.09814 127.762 6.64243 127.156 6.36265C126.591 6.25399 126.02 6.1772 125.446 6.13265C127.176 5.78265 130.536 5.23265 131.836 6.44265ZM125.786 13.5727C126.468 13.5801 127.134 13.3599 127.677 12.9471C128.22 12.5342 128.61 11.952 128.786 11.2927C129.66 11.9475 130.375 12.792 130.876 13.7627C131.146 14.3027 131.026 15.3727 130.246 15.4027C128.086 15.3143 126 14.5946 124.246 13.3327C124.752 13.4541 125.267 13.5344 125.786 13.5727ZM105.246 51.5127C105.943 51.7169 106.615 52.0022 107.246 52.3627C107.264 52.3797 107.286 52.393 107.309 52.4017C107.333 52.4105 107.358 52.4145 107.383 52.4136C107.408 52.4126 107.433 52.4068 107.455 52.3963C107.478 52.3859 107.499 52.371 107.516 52.3527C107.533 52.3343 107.546 52.3127 107.555 52.2892C107.564 52.2657 107.568 52.2407 107.567 52.2156C107.566 52.1905 107.56 52.1659 107.55 52.1431C107.539 52.1203 107.524 52.0997 107.506 52.0827C107.109 51.4738 106.538 50.9996 105.866 50.7227C105.297 50.4729 104.682 50.3439 104.061 50.3439C103.439 50.3439 102.825 50.4729 102.256 50.7227L101.996 50.8727C101.126 51.5527 103.426 50.9827 105.246 51.5127ZM82.7858 79.9026C83.4414 79.4509 83.8966 78.7627 84.0558 77.9827C84.0626 77.8373 84.0212 77.6938 83.938 77.5745C83.8548 77.4551 83.7345 77.3666 83.5958 77.3226C82.9858 77.1926 82.1158 77.9326 81.8658 78.8626C81.7058 79.4926 82.0258 80.4226 82.7858 79.9026ZM76.2458 90.1126C76.9541 89.7463 77.4921 89.1187 77.7458 88.3626C77.7705 88.2201 77.7476 88.0734 77.6808 87.9451C77.6139 87.8169 77.5068 87.7141 77.3758 87.6526C76.7858 87.4426 75.8258 88.0627 75.4658 88.9627C75.2158 89.5727 75.4158 90.5426 76.2458 90.1126ZM123.516 83.5026C123.415 83.4244 123.287 83.3894 123.161 83.4054C123.034 83.4213 122.919 83.4869 122.841 83.5877C122.763 83.6884 122.728 83.8162 122.744 83.9428C122.759 84.0693 122.825 84.1844 122.926 84.2626C123.207 84.4912 123.516 84.6827 123.846 84.8326C123.904 84.8563 123.967 84.8682 124.03 84.8677C124.093 84.8671 124.155 84.8542 124.213 84.8296C124.271 84.805 124.324 84.7692 124.368 84.7242C124.412 84.6793 124.447 84.6261 124.471 84.5676C124.494 84.5092 124.506 84.4467 124.506 84.3837C124.505 84.3206 124.492 84.2583 124.468 84.2003C124.443 84.1422 124.407 84.0896 124.362 84.0454C124.317 84.0012 124.264 83.9663 124.206 83.9426C123.958 83.8255 123.726 83.6777 123.516 83.5026ZM120.136 79.7027C120.079 79.7302 120.029 79.7688 119.988 79.8162C119.947 79.8635 119.915 79.9187 119.896 79.9783C119.876 80.038 119.869 80.101 119.874 80.1635C119.879 80.2261 119.897 80.287 119.926 80.3427C120.076 80.6527 120.236 80.9327 120.386 81.2027C120.455 81.298 120.557 81.3645 120.672 81.3895C120.788 81.4145 120.908 81.3962 121.011 81.3381C121.113 81.28 121.191 81.1862 121.229 81.0745C121.267 80.9628 121.262 80.8412 121.216 80.7327C121.066 80.4727 120.916 80.2027 120.776 79.9127C120.718 79.8006 120.619 79.7158 120.499 79.6765C120.379 79.6373 120.249 79.6466 120.136 79.7027ZM118.546 76.6926C118.59 76.8017 118.672 76.8908 118.777 76.9431C118.883 76.9954 119.003 77.0073 119.117 76.9765C119.23 76.9457 119.329 76.8743 119.393 76.7759C119.457 76.6775 119.483 76.5589 119.466 76.4426C119.376 76.1426 119.296 75.8427 119.226 75.5327C119.214 75.4681 119.189 75.4065 119.153 75.3519C119.117 75.2972 119.07 75.2506 119.015 75.2149C118.959 75.1792 118.898 75.1552 118.833 75.1444C118.768 75.1335 118.702 75.136 118.638 75.1518C118.574 75.1675 118.515 75.1962 118.462 75.236C118.41 75.2757 118.367 75.3258 118.335 75.3831C118.303 75.4403 118.283 75.5035 118.276 75.5688C118.269 75.6341 118.276 75.7001 118.296 75.7626C118.376 76.0826 118.456 76.3926 118.546 76.6926ZM116.996 70.4726C116.87 70.4853 116.755 70.547 116.674 70.6443C116.594 70.7417 116.555 70.8668 116.566 70.9927C116.566 71.2227 116.646 71.7227 116.676 71.9927C116.682 72.0555 116.701 72.1164 116.731 72.1718C116.761 72.2272 116.802 72.276 116.852 72.3151C116.901 72.3543 116.958 72.3832 117.019 72.3999C117.08 72.4167 117.143 72.421 117.206 72.4127C117.33 72.3952 117.442 72.33 117.519 72.231C117.595 72.132 117.63 72.007 117.616 71.8827C117.616 71.6427 117.536 71.1927 117.516 70.9527C117.515 70.8865 117.5 70.8214 117.473 70.7611C117.446 70.7007 117.407 70.6465 117.358 70.6017C117.31 70.5568 117.253 70.5223 117.19 70.5001C117.128 70.4779 117.062 70.4686 116.996 70.4726ZM117.436 67.3827C117.526 67.0927 117.616 66.8227 117.716 66.5427C117.738 66.4869 117.749 66.4273 117.748 66.3672C117.748 66.3071 117.735 66.2478 117.71 66.1928C117.686 66.1378 117.651 66.0882 117.607 66.047C117.564 66.0057 117.512 65.9737 117.456 65.9527C117.343 65.91 117.218 65.9134 117.108 65.962C116.997 66.0106 116.91 66.1006 116.866 66.2127C116.746 66.5127 116.646 66.8127 116.556 67.1227C116.531 67.2362 116.55 67.355 116.609 67.4551C116.669 67.5551 116.763 67.6291 116.875 67.662C116.986 67.6949 117.106 67.6844 117.21 67.6326C117.314 67.5808 117.395 67.4915 117.436 67.3827ZM109.226 56.9827C109.337 57.0296 109.463 57.0307 109.575 56.9858C109.687 56.9408 109.777 56.8535 109.826 56.7427C109.946 56.4727 110.066 56.2027 110.206 55.9427C110.262 55.8352 110.274 55.7096 110.239 55.5935C110.203 55.4773 110.123 55.38 110.016 55.3227C109.908 55.2686 109.783 55.2582 109.668 55.2936C109.552 55.329 109.455 55.4074 109.396 55.5127C109.246 55.8027 109.106 56.0827 108.986 56.3827C108.939 56.4941 108.938 56.6196 108.983 56.7319C109.028 56.8442 109.115 56.9343 109.226 56.9827ZM103.876 54.3127C103.988 54.0394 104.115 53.7724 104.256 53.5127C104.29 53.4591 104.313 53.3991 104.323 53.3364C104.332 53.2736 104.329 53.2095 104.313 53.1481C104.297 53.0867 104.268 53.0293 104.229 52.9795C104.189 52.9297 104.14 52.8887 104.084 52.8589C104.028 52.8291 103.966 52.8113 103.903 52.8065C103.839 52.8017 103.776 52.8101 103.716 52.8311C103.656 52.8521 103.601 52.8853 103.555 52.9286C103.508 52.9719 103.471 53.0244 103.446 53.0827C103.296 53.3727 103.156 53.6527 103.036 53.9427C103.007 53.9985 102.989 54.0597 102.984 54.1226C102.98 54.1855 102.988 54.2486 103.009 54.3081C103.03 54.3676 103.063 54.4222 103.105 54.4685C103.148 54.5148 103.2 54.5518 103.258 54.5772C103.316 54.6026 103.378 54.6159 103.441 54.6162C103.504 54.6166 103.566 54.6039 103.624 54.5791C103.682 54.5543 103.734 54.5179 103.778 54.472C103.821 54.4262 103.854 54.3719 103.876 54.3127ZM121.376 61.8227C121.328 61.7824 121.272 61.7523 121.212 61.734C121.152 61.7158 121.089 61.7097 121.026 61.7162C120.964 61.7227 120.903 61.7417 120.848 61.772C120.793 61.8023 120.745 61.8433 120.706 61.8927C120.506 62.1527 120.306 62.4027 120.116 62.6727C120.058 62.7762 120.041 62.8972 120.068 63.0126C120.094 63.1279 120.162 63.2295 120.259 63.2977C120.356 63.3659 120.474 63.3959 120.592 63.3821C120.709 63.3682 120.818 63.3115 120.896 63.2227C121.076 62.9827 121.256 62.7327 121.456 62.4827C121.494 62.4341 121.522 62.3785 121.539 62.319C121.555 62.2595 121.56 62.1974 121.553 62.1361C121.545 62.0748 121.526 62.0156 121.495 61.9618C121.465 61.908 121.424 61.8607 121.376 61.8227ZM124.776 58.4827C124.732 58.4382 124.68 58.4029 124.622 58.3788C124.565 58.3547 124.503 58.3423 124.441 58.3423C124.378 58.3423 124.317 58.3547 124.259 58.3788C124.202 58.4029 124.15 58.4382 124.106 58.4827L123.376 59.1227C123.331 59.1664 123.296 59.2185 123.272 59.2761C123.248 59.3336 123.235 59.3953 123.235 59.4577C123.235 59.52 123.248 59.5817 123.272 59.6393C123.296 59.6968 123.331 59.7489 123.376 59.7927C123.42 59.8371 123.472 59.8724 123.529 59.8965C123.587 59.9206 123.648 59.933 123.711 59.933C123.773 59.933 123.835 59.9206 123.892 59.8965C123.95 59.8724 124.002 59.8371 124.046 59.7927L124.756 59.1727C124.805 59.13 124.844 59.0778 124.872 59.0192C124.9 58.9605 124.915 58.8968 124.917 58.832C124.919 58.7672 124.907 58.7027 124.883 58.6426C124.859 58.5825 124.822 58.528 124.776 58.4827ZM127.956 55.5427C127.696 55.7127 127.426 55.8927 127.166 56.0827C127.062 56.1543 126.992 56.264 126.969 56.3878C126.947 56.5116 126.974 56.6392 127.046 56.7427C127.117 56.8461 127.227 56.9168 127.351 56.9393C127.475 56.9619 127.602 56.9343 127.706 56.8627L128.486 56.3327C128.547 56.3025 128.602 56.2595 128.645 56.2066C128.689 56.1537 128.72 56.0921 128.738 56.026C128.756 55.9599 128.759 55.8907 128.748 55.8231C128.737 55.7556 128.711 55.6912 128.673 55.6343C128.635 55.5775 128.585 55.5294 128.527 55.4934C128.468 55.4574 128.403 55.4343 128.335 55.4256C128.267 55.417 128.198 55.4229 128.133 55.4431C128.067 55.4633 128.007 55.4972 127.956 55.5427ZM132.086 53.0827L131.246 53.5427C131.184 53.5691 131.128 53.6084 131.082 53.658C131.036 53.7075 131.001 53.7663 130.979 53.8303C130.957 53.8943 130.949 53.9622 130.956 54.0296C130.962 54.0969 130.983 54.1621 131.016 54.2209C131.049 54.2798 131.095 54.3309 131.149 54.371C131.204 54.4111 131.266 54.4392 131.332 54.4535C131.398 54.4678 131.466 54.468 131.532 54.4541C131.599 54.4402 131.661 54.4124 131.716 54.3727C131.986 54.2127 132.266 54.0627 132.536 53.9227C132.592 53.8932 132.641 53.853 132.682 53.8043C132.722 53.7557 132.752 53.6996 132.771 53.6392C132.789 53.5788 132.796 53.5153 132.79 53.4524C132.784 53.3895 132.766 53.3284 132.736 53.2727C132.707 53.2166 132.666 53.1671 132.617 53.127C132.568 53.0869 132.512 53.0571 132.451 53.0394C132.391 53.0217 132.327 53.0163 132.264 53.0238C132.201 53.0312 132.141 53.0512 132.086 53.0827ZM135.926 52.2527L136.796 51.8727C136.906 51.8179 136.99 51.7231 137.032 51.6078C137.075 51.4925 137.071 51.3655 137.022 51.2529C136.974 51.1402 136.884 51.0504 136.771 51.002C136.658 50.9536 136.531 50.9503 136.416 50.9927L135.536 51.3827C135.435 51.443 135.36 51.5382 135.324 51.6504C135.289 51.7625 135.296 51.8837 135.344 51.991C135.392 52.0983 135.478 52.1842 135.585 52.2325C135.692 52.2807 135.814 52.2879 135.926 52.2527ZM139.626 50.0627C139.685 50.1729 139.786 50.2556 139.905 50.2929C140.025 50.3303 140.154 50.3194 140.266 50.2627L141.116 49.8127C141.227 49.7514 141.309 49.6487 141.345 49.5269C141.381 49.4051 141.367 49.2741 141.306 49.1627C141.243 49.0534 141.14 48.9727 141.019 48.9373C140.898 48.9019 140.768 48.9146 140.656 48.9727L139.826 49.4227C139.716 49.4821 139.633 49.5824 139.596 49.7019C139.558 49.8215 139.569 49.951 139.626 50.0627ZM143.876 46.9827C143.773 47.057 143.703 47.1684 143.681 47.2934C143.658 47.4184 143.685 47.5472 143.756 47.6527C143.828 47.7549 143.938 47.8247 144.061 47.8471C144.185 47.8695 144.312 47.8428 144.416 47.7727C144.686 47.5927 144.946 47.4027 145.206 47.2127C145.291 47.1325 145.343 47.0243 145.354 46.9081C145.365 46.7919 145.333 46.6758 145.264 46.5815C145.196 46.4871 145.095 46.421 144.981 46.3954C144.867 46.3699 144.748 46.3867 144.646 46.4427C144.396 46.6427 144.136 46.8227 143.876 46.9827ZM148.266 43.4527L147.576 44.0927C147.495 44.1806 147.449 44.2957 147.449 44.4153C147.448 44.5349 147.492 44.6504 147.572 44.7393C147.652 44.8281 147.763 44.8839 147.882 44.8956C148.001 44.9073 148.12 44.8742 148.216 44.8027L148.916 44.1427C148.961 44.1 148.998 44.0488 149.023 43.992C149.049 43.9353 149.063 43.874 149.065 43.8118C149.066 43.7496 149.056 43.6876 149.034 43.6294C149.012 43.5712 148.979 43.518 148.936 43.4727C148.893 43.4274 148.842 43.3909 148.785 43.3654C148.728 43.3398 148.667 43.3258 148.605 43.3239C148.543 43.322 148.481 43.3325 148.423 43.3545C148.364 43.3766 148.311 43.41 148.266 43.4527ZM150.886 41.3827C150.934 41.4229 150.99 41.453 151.05 41.4713C151.11 41.4896 151.173 41.4956 151.236 41.4891C151.298 41.4826 151.359 41.4636 151.414 41.4333C151.469 41.403 151.517 41.362 151.556 41.3127C151.766 41.0627 151.966 40.8127 152.166 40.5527C152.203 40.5035 152.231 40.4473 152.247 40.3875C152.262 40.3277 152.266 40.2653 152.258 40.204C152.25 40.1426 152.229 40.0836 152.198 40.0301C152.167 39.9767 152.125 39.93 152.076 39.8927C151.975 39.8176 151.85 39.7841 151.725 39.799C151.6 39.8138 151.486 39.876 151.406 39.9727C151.216 40.2227 151.026 40.4727 150.826 40.7127C150.746 40.8099 150.708 40.9346 150.719 41.0599C150.73 41.1852 150.79 41.3011 150.886 41.3827ZM153.626 37.4927C153.737 37.5533 153.868 37.5674 153.99 37.5318C154.112 37.4962 154.215 37.4138 154.276 37.3027C154.426 37.0227 154.576 36.7327 154.716 36.4427C154.745 36.3864 154.762 36.3249 154.766 36.2619C154.771 36.1989 154.762 36.1356 154.742 36.0759C154.721 36.0162 154.689 35.9612 154.647 35.9142C154.604 35.8673 154.553 35.8293 154.496 35.8027C154.44 35.7741 154.38 35.7571 154.317 35.7527C154.255 35.7484 154.193 35.7567 154.134 35.7773C154.075 35.7979 154.02 35.8303 153.974 35.8725C153.928 35.9146 153.891 35.9657 153.866 36.0227L153.436 36.8527C153.406 36.9071 153.387 36.9669 153.381 37.0286C153.374 37.0903 153.38 37.1527 153.397 37.2122C153.415 37.2718 153.444 37.3272 153.484 37.3753C153.523 37.4234 153.571 37.4633 153.626 37.4927ZM155.496 33.1227C155.619 33.1502 155.748 33.1292 155.856 33.064C155.964 32.9988 156.043 32.8945 156.076 32.7727C156.146 32.4527 156.216 32.1327 156.276 31.7727C156.297 31.6484 156.269 31.5208 156.198 31.4165C156.127 31.3122 156.019 31.2392 155.896 31.2127C155.77 31.1921 155.641 31.2213 155.537 31.2941C155.432 31.3669 155.36 31.4776 155.336 31.6027C155.286 31.9027 155.216 32.2027 155.146 32.5027C155.125 32.5663 155.117 32.6337 155.123 32.7005C155.13 32.7672 155.15 32.8319 155.183 32.8903C155.216 32.9488 155.261 32.9996 155.315 33.0396C155.369 33.0796 155.43 33.1079 155.496 33.1227ZM155.526 27.9827C155.53 28.0453 155.546 28.1066 155.574 28.1629C155.602 28.2192 155.64 28.2693 155.688 28.3103C155.736 28.3513 155.791 28.3824 155.851 28.4017C155.91 28.421 155.973 28.4281 156.036 28.4227C156.161 28.4124 156.278 28.3532 156.36 28.2578C156.443 28.1624 156.484 28.0384 156.476 27.9127C156.476 27.5827 156.406 27.2527 156.366 26.9127C156.357 26.8506 156.336 26.791 156.305 26.7371C156.273 26.6833 156.23 26.6363 156.18 26.5991C156.13 26.5618 156.072 26.535 156.012 26.5201C155.951 26.5053 155.888 26.5027 155.826 26.5127C155.701 26.5325 155.589 26.5997 155.512 26.7003C155.436 26.8009 155.401 26.9271 155.416 27.0527C155.466 27.3527 155.496 27.6527 155.526 27.9827ZM154.386 23.5327C154.44 23.6481 154.538 23.7378 154.657 23.7827C154.777 23.8275 154.909 23.8239 155.026 23.7727C155.139 23.7184 155.226 23.6222 155.269 23.5045C155.312 23.3868 155.307 23.2569 155.256 23.1427C155.116 22.8427 154.966 22.5427 154.806 22.2527C154.745 22.1426 154.643 22.0613 154.522 22.0266C154.401 21.9919 154.271 22.0067 154.161 22.0677C154.051 22.1287 153.969 22.2309 153.935 22.3518C153.9 22.4728 153.915 22.6026 153.976 22.7127C154.126 22.9827 154.256 23.2627 154.386 23.5327ZM151.786 19.7627C151.829 19.8073 151.881 19.843 151.938 19.8676C151.995 19.8923 152.057 19.9055 152.119 19.9064C152.181 19.9073 152.243 19.896 152.301 19.8731C152.358 19.8501 152.411 19.816 152.456 19.7727C152.5 19.7293 152.536 19.6776 152.561 19.6205C152.585 19.5634 152.599 19.5019 152.6 19.4397C152.601 19.3775 152.589 19.3157 152.566 19.2579C152.543 19.2001 152.509 19.1473 152.466 19.1027C152.246 18.8727 152.016 18.6427 151.766 18.4227C151.72 18.3806 151.666 18.3481 151.608 18.3268C151.549 18.3056 151.487 18.2961 151.425 18.2989C151.362 18.3017 151.301 18.3167 151.245 18.3431C151.189 18.3695 151.138 18.4067 151.096 18.4527C151.054 18.4986 151.021 18.5524 151 18.611C150.979 18.6695 150.969 18.7316 150.972 18.7939C150.975 18.8561 150.99 18.9171 151.016 18.9736C151.043 19.03 151.08 19.0806 151.126 19.1227L151.786 19.7627ZM147.366 16.3727C147.636 16.5327 147.906 16.6927 148.166 16.8627C148.219 16.9021 148.28 16.9301 148.344 16.9449C148.408 16.9598 148.475 16.9612 148.54 16.949C148.605 16.9368 148.667 16.9114 148.722 16.8742C148.776 16.837 148.823 16.7889 148.858 16.733C148.893 16.677 148.917 16.6144 148.927 16.549C148.936 16.4836 148.933 16.4169 148.916 16.353C148.898 16.2891 148.868 16.2295 148.827 16.1778C148.786 16.1261 148.734 16.0835 148.676 16.0527L147.846 15.5527C147.737 15.4903 147.608 15.4732 147.486 15.505C147.365 15.5368 147.26 15.6149 147.196 15.7227C147.133 15.8317 147.116 15.9608 147.148 16.0824C147.18 16.2039 147.258 16.3081 147.366 16.3727ZM143.146 14.3227L144.016 14.6927C144.131 14.735 144.258 14.7317 144.371 14.6833C144.484 14.6349 144.574 14.5451 144.622 14.4325C144.671 14.3198 144.675 14.1928 144.632 14.0775C144.59 13.9622 144.506 13.8674 144.396 13.8127L143.506 13.4427C143.447 13.4081 143.38 13.3867 143.312 13.3799C143.244 13.3731 143.175 13.381 143.11 13.4031C143.045 13.4252 142.985 13.461 142.935 13.508C142.885 13.555 142.846 13.6123 142.82 13.6758C142.794 13.7393 142.782 13.8077 142.785 13.8763C142.787 13.9449 142.805 14.0121 142.836 14.0734C142.867 14.1347 142.91 14.1887 142.964 14.2317C143.017 14.2747 143.079 14.3057 143.146 14.3227ZM138.686 12.7927L139.596 13.0727C139.716 13.107 139.846 13.0927 139.956 13.0329C140.066 12.9731 140.149 12.8725 140.186 12.7527C140.206 12.6936 140.214 12.6311 140.209 12.569C140.204 12.5069 140.186 12.4464 140.157 12.3912C140.128 12.336 140.088 12.2873 140.04 12.248C139.992 12.2087 139.936 12.1797 139.876 12.1627L138.956 11.8827C138.896 11.8643 138.833 11.858 138.771 11.8642C138.709 11.8704 138.649 11.889 138.594 11.9188C138.539 11.9486 138.49 11.989 138.451 12.0378C138.412 12.0865 138.383 12.1426 138.366 12.2027C138.347 12.2624 138.341 12.3252 138.347 12.3874C138.354 12.4496 138.372 12.5099 138.402 12.5649C138.432 12.6198 138.472 12.6682 138.521 12.7074C138.57 12.7465 138.626 12.7755 138.686 12.7927ZM134.096 11.6427L135.026 11.8527C135.149 11.8796 135.278 11.8569 135.385 11.7896C135.491 11.7222 135.567 11.6155 135.596 11.4927C135.611 11.4315 135.613 11.3681 135.603 11.3061C135.592 11.2441 135.57 11.1847 135.536 11.1316C135.503 11.0784 135.459 11.0326 135.407 10.9967C135.356 10.9608 135.297 10.9356 135.236 10.9227L134.296 10.7127C134.18 10.7037 134.065 10.7371 133.972 10.8065C133.879 10.876 133.814 10.9768 133.79 11.0903C133.765 11.2038 133.783 11.3224 133.839 11.4239C133.895 11.5255 133.987 11.6032 134.096 11.6427Z" fill="white"/>
<path fill-rule="evenodd" clip-rule="evenodd" d="M179.626 69.6426C178.922 68.2416 177.864 67.0488 176.558 66.1823C175.251 65.3158 173.74 64.8058 172.176 64.7026C168.796 64.4926 167.606 64.5326 158.556 64.4926V61.8826C158.556 61.8826 164.136 61.3026 165.036 61.2326C164.984 59.5764 164.817 57.9258 164.536 56.2926C164.536 56.2326 164.216 56.1726 164.006 56.1726C164.346 56.1726 159.526 55.8926 154.006 55.8726C153.938 55.8647 153.87 55.8704 153.805 55.8893C153.739 55.9082 153.679 55.9399 153.626 55.9826C153.446 56.1726 153.466 55.5726 153.506 64.4926C147.584 64.2936 141.656 64.4672 135.756 65.0126C133.841 65.1264 132.047 65.9841 130.756 67.4026C128.877 69.5997 127.712 72.317 127.416 75.1926C126.946 78.1126 125.286 93.4426 125.586 95.2726C120.239 99.4662 115.94 104.844 113.026 110.983C111.926 113.323 111.496 115.433 112.026 117.273C111.078 116.826 110.066 116.532 109.026 116.403C109.026 116.403 108.916 116.113 108.866 115.903C108.626 114.903 110.456 114.963 111.296 115.653C111.386 115.753 111.536 115.653 111.446 115.513C110.256 113.783 107.376 114.903 108.816 116.393C107.546 116.333 107.186 117.053 107.706 117.943C106.956 118.283 107.126 119.133 107.706 119.763C108.706 120.763 109.846 120.763 109.706 120.363C109.692 120.317 109.662 120.279 109.621 120.255C109.58 120.231 109.532 120.223 109.486 120.233C108.836 120.393 107.546 119.063 107.826 118.603C108.106 118.143 111.826 118.673 111.566 121.323C111.406 123.643 104.996 122.083 104.196 116.603C104.196 116.483 104.136 116.443 103.946 116.253C103.756 116.063 103.176 115.473 102.456 114.773C103.771 113.308 105.247 111.996 106.856 110.863C107.142 111.668 107.669 112.367 108.366 112.863C108.47 112.911 108.581 112.942 108.696 112.953C109.708 113.138 110.739 113.198 111.766 113.133C111.789 113.137 111.814 113.136 111.837 113.13C111.86 113.125 111.882 113.115 111.902 113.101C111.921 113.087 111.938 113.07 111.951 113.049C111.963 113.029 111.972 113.006 111.976 112.983C111.98 112.959 111.979 112.935 111.974 112.911C111.968 112.888 111.958 112.866 111.944 112.847C111.93 112.827 111.913 112.81 111.892 112.798C111.872 112.785 111.849 112.777 111.826 112.773C110.844 112.39 109.814 112.141 108.766 112.033C108.236 111.577 107.745 111.078 107.296 110.543C107.806 110.183 108.606 109.543 108.196 109.053C103.425 103.483 99.6981 97.0968 97.1958 90.2026C97.6158 84.2026 97.1958 75.2026 94.4458 69.7026C95.3658 69.8526 97.0058 70.0926 97.8058 69.7026C97.9904 69.617 98.1409 69.4719 98.2334 69.2906C98.3258 69.1094 98.3549 68.9023 98.3158 68.7026C99.7925 69.1476 101.377 69.0735 102.806 68.4926C108.026 65.7926 113.016 55.4926 114.146 48.1526C114.626 48.1026 115.146 47.8826 114.916 47.2926C114.806 47.0226 114.276 47.0626 114.326 46.7426C114.376 46.4226 115.636 46.2426 115.116 45.6326C114.852 45.4466 114.552 45.3172 114.236 45.2526C113.656 44.9226 114.166 44.5926 114.236 44.5726C114.306 44.5526 114.536 44.5026 114.626 44.3326C114.671 44.1792 114.671 44.0161 114.626 43.8626C114.556 43.3226 113.626 43.7026 113.386 43.3826C112.836 42.7426 114.806 42.5326 113.966 41.8826C113.516 41.5326 112.476 42.2026 112.186 41.6826C111.896 41.1626 113.416 40.5726 112.466 39.9026C111.796 39.4426 110.866 40.7626 110.466 39.9726C110.276 39.6226 110.826 39.3526 110.926 39.1026C110.959 38.9795 110.961 38.85 110.932 38.7259C110.902 38.6018 110.841 38.4872 110.756 38.3926C110.656 38.2626 110.306 38.3126 110.176 38.3926C109.846 38.5726 109.326 39.2026 108.886 38.8626C108.226 38.3526 109.426 37.9926 108.816 37.4326C108.744 37.3438 108.655 37.2691 108.556 37.2126C108.116 36.9926 107.786 37.2826 107.436 37.4826C107.696 37.5626 107.166 37.6226 107.436 37.4826C107.186 37.3926 107.526 37.1826 107.576 37.0426C107.601 36.9184 107.58 36.7891 107.515 36.68C107.45 36.5709 107.347 36.4898 107.226 36.4526C106.706 36.2726 106.456 37.1626 105.826 36.7926C105.586 36.6526 105.826 36.4326 105.916 36.3026C105.96 36.2314 105.987 36.1514 105.997 36.0684C106.006 35.9853 105.997 35.9012 105.97 35.822C105.944 35.7428 105.9 35.6705 105.842 35.6101C105.784 35.5497 105.714 35.5028 105.636 35.4726C104.636 35.1926 104.336 36.5726 103.386 36.1826C102.676 35.8826 104.036 34.8526 103.126 34.5926C102.726 34.4726 102.516 34.6526 102.246 34.9626C101.976 35.2726 101.946 35.6226 101.486 35.6826C100.566 35.8126 101.106 34.9126 100.986 34.6026C100.866 34.2926 100.606 34.2826 100.316 34.3226C99.4758 34.4426 99.8658 35.5126 99.2158 35.6026C98.5658 35.6926 98.9458 34.6926 98.3658 34.8126C97.6358 34.9626 98.6858 35.8126 97.9058 35.9826C97.1258 36.1526 97.7458 34.8626 96.9058 35.0526C96.0658 35.2426 96.5358 36.2726 95.9058 36.4826C95.2758 36.6926 95.7458 35.8426 95.2358 35.9126C94.2358 36.0426 94.5858 36.9126 94.3358 37.0826C93.8058 37.3426 93.9058 36.3326 93.3358 36.4026C92.1958 36.5626 92.6758 37.5626 92.3358 38.2126C92.0958 38.6726 91.5158 37.8526 91.2058 38.2826C90.8958 38.7126 91.4258 39.0826 91.2058 39.5126C91.0858 39.7626 90.6658 39.1926 90.1158 39.7326C89.5658 40.2726 89.7558 40.8026 89.8358 41.3826C89.9458 42.2526 88.8358 41.4526 88.6658 41.9726C88.5358 42.2926 89.3058 42.8926 89.0158 43.1126C88.7258 43.3326 88.6458 42.9326 88.1158 43.2726C87.5858 43.6126 87.5758 44.0026 87.9558 44.4526C88.1258 44.6526 88.4758 44.7826 88.2758 45.1826C88.0758 45.5826 87.6258 45.0726 87.2758 45.4926C86.8358 46.1126 88.1758 45.9726 87.8758 46.5626C87.5758 47.1526 86.8158 47.1026 86.8158 47.1026C86.2158 47.9526 87.4058 48.3226 87.8158 48.7626C88.2258 49.2026 87.2058 49.4526 87.1858 49.8226C87.1858 50.6026 87.7858 50.5726 87.9558 50.7726C88.1258 50.9726 87.4858 51.0226 87.6058 51.5426C87.6767 51.7238 87.8027 51.8782 87.9659 51.984C88.1292 52.0899 88.3215 52.1418 88.5158 52.1326C88.442 52.2049 88.387 52.2942 88.3558 52.3926L71.6858 47.6126C57.1258 43.2926 36.7358 52.6126 35.2058 66.1126C28.2058 71.5026 20.2058 84.4826 18.8358 91.2026C16.1058 101.383 16.5658 109.523 19.2558 116.703C22.2558 124.803 30.2558 143.493 30.2558 143.493C30.2558 143.493 16.8758 174.983 17.7758 186.163C17.7758 186.823 17.0358 193.603 17.0258 193.703C18.5658 193.923 25.7258 194.853 28.5258 194.963C30.0358 195.125 31.5626 194.919 32.9758 194.363C34.1258 193.733 32.7158 191.483 32.4158 191.093C30.2358 188.233 27.4958 188.533 24.5758 188.653V188.473C27.4251 188.479 30.2694 188.235 33.0758 187.743C34.0158 187.373 51.6758 171.513 57.5858 154.363C59.5858 148.453 56.4558 125.243 57.1458 125.093C58.1458 124.883 62.3558 147.803 59.0558 155.153C58.4925 156.324 57.8406 157.451 57.1058 158.523C57.1058 158.523 55.9458 159.793 54.6658 177.633C54.6658 177.733 53.0858 187.283 53.0658 187.383C53.0458 187.483 68.4258 190.863 69.2458 188.773C69.4441 187.902 69.3497 186.99 68.9773 186.178C68.6049 185.367 67.9752 184.7 67.1858 184.283C65.1858 182.713 63.3958 182.903 61.1258 182.823C61.2358 182.403 61.4058 181.823 61.6058 181.073C64.082 181.105 66.549 180.768 68.9258 180.073C71.6858 175.363 77.6958 160.713 77.9258 143.973C78.1058 131.343 69.6958 112.913 68.4058 110.163C72.7761 105.869 76.4351 100.907 79.2458 95.4626C83.2458 107.323 91.8258 114.693 100.246 116.673C100.308 116.688 100.373 116.691 100.437 116.68C100.5 116.67 100.561 116.647 100.616 116.613C100.986 116.203 101.616 115.433 102.086 114.973C102.436 115.373 103.176 116.243 103.506 116.653C104.066 122.973 111.876 125.003 112.366 121.463C112.882 121.024 113.258 120.443 113.446 119.793C114.883 121.12 116.64 122.053 118.545 122.5C120.45 122.946 122.438 122.892 124.316 122.343C127.295 121.474 130.004 119.86 132.186 117.653C134.316 115.653 144.046 103.253 145.036 100.883L156.486 100.203V184.323C155.066 180.883 153.131 177.679 150.746 174.823C150.71 174.783 150.662 174.757 150.609 174.748C150.556 174.739 150.502 174.748 150.455 174.773C150.408 174.798 150.371 174.839 150.349 174.887C150.328 174.936 150.323 174.991 150.336 175.043C150.336 175.043 151.836 179.673 152.756 182.623C151.607 181.201 150.357 179.864 149.016 178.623C148.976 178.59 148.926 178.571 148.874 178.569C148.822 178.567 148.771 178.581 148.729 178.611C148.686 178.64 148.654 178.682 148.637 178.731C148.62 178.78 148.62 178.833 148.636 178.883C148.636 178.883 150.146 182.763 150.716 184.423C150.076 183.893 146.606 181.063 146.006 181.613C145.964 181.656 145.941 181.713 145.941 181.773C145.941 181.832 145.964 181.89 146.006 181.933C146.976 182.923 147.834 184.016 148.566 185.193C150.166 187.873 149.316 188.593 149.896 188.583C149.96 188.58 150.021 188.553 150.066 188.506C150.111 188.459 150.136 188.397 150.136 188.333C150.036 187.124 149.637 185.959 148.976 184.943C147.556 182.563 146.316 181.883 147.516 182.623C148.747 183.447 149.932 184.339 151.066 185.293C151.096 185.309 151.129 185.319 151.163 185.322C151.197 185.325 151.231 185.321 151.263 185.31C151.295 185.298 151.325 185.28 151.349 185.257C151.374 185.233 151.393 185.204 151.406 185.173C151.439 185.058 151.439 184.937 151.406 184.823C151.186 184.063 150.106 181.233 149.526 179.703C154.136 184.173 153.046 184.973 153.686 185.163C153.72 185.171 153.756 185.173 153.791 185.167C153.826 185.161 153.859 185.147 153.888 185.127C153.917 185.108 153.942 185.082 153.961 185.052C153.979 185.021 153.991 184.988 153.996 184.953C153.996 184.663 151.766 177.703 151.266 176.163C153.266 178.823 155.736 182.733 156.456 185.973V189.833H160.626V187.683C162.425 184.015 165.559 181.174 169.386 179.743C169.286 179.853 163.936 185.323 164.486 187.343C164.5 187.408 164.54 187.466 164.596 187.503C164.651 187.54 164.72 187.555 164.786 187.543C165.466 187.403 167.176 183.993 173.786 182.173C172.926 182.913 171.466 184.173 171.076 184.423C169.926 185.263 168.006 187.543 167.976 188.263C167.972 188.306 167.981 188.349 168.003 188.387C168.024 188.424 168.057 188.454 168.096 188.473C168.246 188.563 168.336 188.473 168.486 188.373C169.376 187.743 172.756 185.373 173.846 185.523C173.366 186.233 172.056 187.713 172.076 189.023C172.087 189.077 172.117 189.125 172.159 189.16C172.202 189.195 172.256 189.214 172.311 189.214C172.366 189.214 172.42 189.195 172.462 189.16C172.505 189.125 172.535 189.077 172.546 189.023C172.546 187.633 174.366 185.883 174.396 185.473C174.426 185.063 174.006 185.063 173.716 185.063C172.476 185.063 169.836 186.873 168.826 187.573C170.406 185.173 172.036 184.453 174.666 182.043C174.936 181.793 174.776 181.583 174.606 181.563C174.166 181.513 169.766 182.273 165.096 186.693C166.586 182.303 169.936 180.393 170.246 179.453C170.306 179.263 170.166 179.093 169.796 179.143C166.076 179.613 162.936 183.053 161.006 186.283V99.9826C161.906 99.9826 180.696 98.5026 180.696 98.5026C180.839 98.4932 180.973 98.4323 181.074 98.3311C181.175 98.2299 181.236 98.0954 181.246 97.9526L182.246 82.8126C182.246 78.3526 181.786 73.4726 179.626 69.6426ZM25.3558 189.503L24.6258 193.063L17.8558 192.333C18.1758 190.333 18.2858 189.333 18.3958 187.853C20.1628 188.222 21.9609 188.423 23.7658 188.453C23.6458 188.903 23.5258 189.153 23.7658 189.373C24.0058 189.593 24.0258 189.503 25.3558 189.503ZM96.8258 67.3126C96.5494 67.3278 96.2723 67.3278 95.9958 67.3126C95.8958 67.3126 92.6158 66.9126 92.5158 66.9126C92.0158 66.9126 91.7958 67.6826 92.5858 67.8226C94.5858 68.1726 96.3458 68.1826 96.5858 68.2526C97.9058 68.6026 97.9958 69.2526 95.9058 69.1826C93.8158 69.1126 90.7758 68.3226 90.3958 68.5026C89.5219 68.8865 88.6879 69.3554 87.9058 69.9026C87.5242 68.1287 86.7784 66.4534 85.7158 64.9826C86.3058 64.7826 88.4158 64.4226 88.4158 64.4226C88.4679 64.4168 88.5165 64.394 88.5545 64.3579C88.5924 64.3218 88.6174 64.2743 88.6258 64.2226C88.7776 63.3231 89.0222 62.4417 89.3558 61.5926C89.5258 61.2126 89.8858 60.4926 90.3558 60.4926C90.4958 60.4926 90.4658 60.9426 90.4558 61.0826C90.249 62.117 89.9717 63.1361 89.6258 64.1326C89.6135 64.1896 89.6144 64.2487 89.6286 64.3052C89.6427 64.3618 89.6697 64.4144 89.7074 64.4588C89.7451 64.5033 89.7925 64.5385 89.846 64.5617C89.8995 64.5849 89.9576 64.5955 90.0158 64.5926C91.6759 64.4046 93.3451 64.3078 95.0158 64.3026C95.5858 64.3026 97.4858 64.4226 97.6058 64.9826C97.6658 65.2526 97.5458 65.2926 97.2658 65.3526C95.7205 65.4788 94.1666 65.4554 92.6258 65.2826C92.5233 65.2676 92.4187 65.287 92.3282 65.3376C92.2378 65.3882 92.1666 65.4674 92.1258 65.5626C92.1258 65.5626 92.0558 66.1026 92.5258 66.1626C94.6158 66.4226 95.7058 66.1626 96.8658 66.5126C97.1358 66.5926 97.7258 66.8026 97.7058 67.0426C97.6858 67.2826 97.0558 67.2926 96.8258 67.3126ZM103.296 63.6926C103.288 63.6985 103.279 63.7028 103.269 63.7053C103.26 63.7077 103.25 63.7083 103.24 63.7069C103.23 63.7055 103.221 63.7022 103.213 63.6972C103.204 63.6921 103.197 63.6855 103.191 63.6776C103.185 63.6698 103.181 63.6608 103.178 63.6512C103.176 63.6417 103.175 63.6318 103.177 63.622C103.178 63.6123 103.181 63.6029 103.186 63.5944C103.191 63.5859 103.198 63.5785 103.206 63.5726C103.337 63.4545 103.448 63.3161 103.536 63.1626C104.066 62.1626 101.446 62.2626 100.336 62.2626C100.321 62.2569 100.307 62.2467 100.298 62.2333C100.289 62.2199 100.284 62.204 100.284 62.1876C100.284 62.1713 100.289 62.1554 100.298 62.142C100.307 62.1285 100.321 62.1183 100.336 62.1126C103.866 61.4426 104.686 62.8426 103.296 63.6926ZM88.3558 52.6926C88.3912 52.748 88.44 52.7935 88.4977 52.825C88.5554 52.8565 88.6201 52.8729 88.6858 52.8726C89.2358 52.8726 89.1558 53.2026 89.1658 53.2626C89.2558 53.5626 88.9258 53.7826 89.2358 54.0426C89.5458 54.3026 89.9158 53.9026 90.2358 54.0426C90.2958 54.0426 90.4058 54.6426 90.6258 54.7026C90.8458 54.7626 93.1658 55.9026 92.2758 54.4926C89.9158 50.7926 93.9458 48.7526 96.0558 53.0526C96.2358 53.3926 97.7358 44.2526 97.7358 44.2526C108.806 42.7726 113.116 46.5626 113.666 47.6726C113.256 49.68 112.691 51.6526 111.976 53.5726C111.71 53.3491 111.399 53.1874 111.063 53.0992C110.728 53.011 110.377 52.9985 110.036 53.0626C109.683 53.1296 109.344 53.2582 109.036 53.4426C108.989 53.4559 108.95 53.487 108.927 53.5292C108.903 53.5714 108.898 53.6212 108.911 53.6676C108.924 53.714 108.955 53.7533 108.997 53.7767C109.04 53.8002 109.089 53.8059 109.136 53.7926C109.446 53.7926 109.966 53.8526 110.066 53.8626C110.686 53.8626 111.456 54.0026 111.586 54.6026C110.299 58.1206 108.466 61.4141 106.156 64.3626C106.226 64.0626 106.286 63.7526 106.336 63.4426C106.516 62.3326 106.156 60.7226 103.956 59.6726C105.286 60.1426 106.086 60.4226 106.796 59.3726C107.896 57.7426 108.616 53.3726 108.646 53.2126C108.654 53.1903 108.657 53.1666 108.656 53.143C108.655 53.1194 108.649 53.0962 108.638 53.0748C108.628 53.0535 108.614 53.0344 108.596 53.0185C108.579 53.0027 108.558 52.9905 108.536 52.9826C108.514 52.9748 108.49 52.9713 108.466 52.9726C108.443 52.9739 108.419 52.9798 108.398 52.99C108.377 53.0002 108.358 53.0145 108.342 53.0321C108.326 53.0498 108.314 53.0703 108.306 53.0926C107.246 55.3126 106.756 57.7526 106.046 58.8726C105.806 59.2526 105.676 59.2726 105.046 59.1726C102.956 58.8726 102.796 58.7926 102.746 59.0326C102.747 59.1118 102.779 59.1872 102.836 59.2426L102.656 59.1826C97.1658 57.6326 93.1858 62.0626 93.2858 63.5126C92.1258 63.5826 91.0458 63.7126 90.4358 63.7826C90.8258 62.4426 91.6658 59.7826 90.2558 59.8526C88.8458 59.9226 88.3458 62.6426 88.1558 63.9826C87.2646 64.1782 86.3889 64.4389 85.5358 64.7626C85.0258 63.9826 85.1358 64.0326 84.6258 64.0626C83.2092 61.7508 82.5388 59.0588 82.7058 56.3526C82.8749 54.75 83.5073 53.2314 84.5258 51.9826L88.3558 52.6926ZM84.1458 51.7726C83.3253 52.5696 82.6971 53.5431 82.309 54.6191C81.9209 55.6951 81.783 56.8454 81.9058 57.9826C82.0164 60.1743 82.818 62.2746 84.1958 63.9826H83.3758C81.1658 62.3626 80.3758 55.0726 83.2858 51.4426L84.1458 51.7726ZM71.5158 48.2026L82.9158 51.4626C79.3458 54.9926 80.1558 62.0626 82.8258 64.1426C77.2158 64.3926 73.0658 64.4726 68.3758 65.5126C72.0558 63.2326 72.9358 58.8526 72.5858 54.5126C72.5858 54.4649 72.5669 54.4191 72.5331 54.3854C72.4994 54.3516 72.4536 54.3326 72.4058 54.3326C72.3581 54.3326 72.3123 54.3516 72.2785 54.3854C72.2448 54.4191 72.2258 54.4649 72.2258 54.5126C71.9358 58.9126 71.0858 62.7426 67.6258 65.2926C66.4758 66.1426 67.0458 65.7426 63.6958 66.7726C63.6494 66.7872 63.6107 66.8196 63.5882 66.8628C63.5657 66.9059 63.5612 66.9562 63.5758 67.0026C63.5904 67.049 63.6228 67.0878 63.666 67.1103C63.7091 67.1328 63.7594 67.1372 63.8058 67.1226C71.4558 64.8926 74.8058 65.0326 84.7558 64.6926C86.5558 67.4926 87.1858 68.5226 87.6258 72.5126C85.8358 74.4426 79.5558 78.5126 76.2958 80.3226C64.9458 86.5626 51.6158 89.8126 42.4758 80.7526C22.9558 61.4426 52.3058 42.7226 71.5158 48.2026ZM85.9658 74.9126C85.4458 76.3226 82.3058 83.6626 81.0758 85.4126C75.3858 93.5026 73.7358 93.9826 73.6258 94.1026C72.6437 94.1759 71.6606 93.9751 70.7858 93.5226C73.4558 89.9826 77.6258 86.9826 81.2358 78.3026C83.0358 77.1326 84.7358 75.8926 85.9658 74.9126ZM61.7058 183.723L60.7058 187.253L54.1658 186.103C54.6043 184.192 54.9381 182.259 55.1658 180.313C57.017 180.706 58.8961 180.953 60.7858 181.053C60.0758 183.233 60.0058 183.243 60.1758 183.483C60.3458 183.723 60.6258 183.633 61.7058 183.723ZM100.296 115.783C97.6262 115.061 95.088 113.92 92.7758 112.403C86.5388 108.273 81.8774 102.16 79.5458 95.0526C81.4284 91.3677 82.9973 87.5308 84.2358 83.5826C84.2544 83.5269 84.2501 83.4661 84.2238 83.4136C84.1976 83.3611 84.1515 83.3212 84.0958 83.3026C84.0401 83.2841 83.9793 83.2884 83.9268 83.3146C83.8743 83.3409 83.8344 83.3869 83.8158 83.4426C80.0649 93.4837 74.461 102.731 67.2958 110.703C57.7958 117.993 31.0558 111.783 19.1558 91.7026C20.4558 86.4326 28.7458 72.7026 35.1558 66.7026C34.8258 71.3026 36.7258 76.3426 41.8358 81.4026C52.3458 91.7926 68.1958 86.7126 80.6258 78.6826C76.7958 86.6826 72.5358 89.6026 69.7758 93.3726C69.7425 93.4158 69.7181 93.4651 69.704 93.5178C69.69 93.5705 69.6866 93.6254 69.694 93.6794C69.7015 93.7334 69.7196 93.7854 69.7474 93.8323C69.7752 93.8792 69.8121 93.9201 69.8558 93.9526C70.828 94.6369 72.0121 94.9525 73.1958 94.8426C73.6201 94.7544 74.0197 94.5734 74.3658 94.3126C76.6637 92.4366 78.6544 90.2132 80.2658 87.7226C82.9578 83.6413 85.0366 79.1873 86.4358 74.5026C87.0921 73.9989 87.7044 73.4402 88.2658 72.8326C88.3175 72.7564 88.3389 72.6637 88.3258 72.5726C88.2258 71.6926 88.1158 70.9526 87.9858 70.2926C88.8314 69.7898 89.714 69.3519 90.6258 68.9826C91.1058 68.9826 92.6258 69.3826 93.9958 69.6226C93.9058 69.4026 97.5758 76.2926 96.3758 90.2126C96.3758 90.7126 100.036 101.063 107.276 109.383C104.662 111.18 102.313 113.334 100.296 115.783ZM154.436 56.8526C156.176 56.6126 163.786 56.6226 163.966 56.6326C164.076 57.7326 164.396 60.6826 164.396 60.6826L157.656 61.2326V75.0426C157.102 74.7873 156.495 74.6686 155.886 74.6964C155.277 74.7243 154.684 74.8979 154.156 75.2026C154.356 66.9826 154.446 57.1526 154.436 56.8526ZM153.786 78.3426C153.851 77.5853 154.184 76.876 154.726 76.3426C154.757 76.3138 154.798 76.2978 154.841 76.2978C154.883 76.2978 154.924 76.3138 154.956 76.3426C154.685 76.9536 154.464 77.5857 154.296 78.2326C154.296 78.7726 154.656 80.8526 154.166 80.0526C153.825 79.5521 153.689 78.9402 153.786 78.3426ZM135.536 89.3426L136.366 89.4126C136.465 89.4343 136.554 89.4914 136.614 89.5734C136.675 89.6555 136.704 89.7567 136.695 89.8584C136.687 89.96 136.641 90.055 136.568 90.1257C136.494 90.1964 136.398 90.238 136.296 90.2426L135.456 90.1726C135.363 90.1445 135.282 90.085 135.228 90.0043C135.174 89.9235 135.15 89.8265 135.159 89.7298C135.169 89.6331 135.211 89.5426 135.28 89.4738C135.349 89.4051 135.439 89.3622 135.536 89.3526V89.3426ZM128.756 74.2826C129.836 68.7026 135.226 67.1526 134.616 67.6026C131.106 70.2526 130.476 71.5526 129.486 74.6026C129.066 75.8826 128.406 83.8026 127.986 83.8026C127.726 83.8126 128.086 77.7826 128.756 74.2826ZM132.136 89.7126L131.306 89.5526C131.253 89.5415 131.202 89.5199 131.157 89.4893C131.112 89.4586 131.074 89.4194 131.044 89.3739C131.015 89.3284 130.994 89.2775 130.984 89.2241C130.974 89.1707 130.975 89.1158 130.986 89.0626C130.997 89.0094 131.019 88.959 131.049 88.9141C131.08 88.8692 131.119 88.8309 131.165 88.8011C131.21 88.7714 131.261 88.751 131.314 88.7409C131.368 88.7309 131.423 88.7315 131.476 88.7426L132.286 88.9026C132.393 88.9225 132.488 88.9843 132.55 89.0743C132.612 89.1643 132.636 89.2752 132.616 89.3826C132.596 89.49 132.534 89.5852 132.444 89.647C132.354 89.7089 132.243 89.7325 132.136 89.7126ZM127.566 87.5826L128.326 87.8726C128.429 87.9098 128.514 87.9865 128.561 88.0859C128.607 88.1852 128.613 88.2992 128.576 88.4026C128.539 88.5061 128.462 88.5905 128.363 88.6374C128.263 88.6843 128.149 88.6898 128.046 88.6526L127.256 88.3626C127.157 88.3186 127.078 88.2379 127.037 88.1374C126.996 88.0369 126.996 87.9245 127.036 87.8236C127.076 87.7228 127.154 87.6414 127.252 87.5964C127.351 87.5515 127.463 87.5466 127.566 87.5826ZM112.486 121.153C112.496 120.566 112.342 119.989 112.039 119.487C111.737 118.984 111.299 118.578 110.776 118.313C109.9 117.814 108.877 117.641 107.886 117.823C107.804 117.65 107.756 117.463 107.746 117.273C107.746 116.893 108.016 116.793 108.406 116.783C109.761 116.886 111.076 117.289 112.256 117.963C112.482 118.502 112.793 119.001 113.176 119.443C113.141 120.073 112.898 120.674 112.486 121.153ZM131.626 116.983C127.076 121.243 121.196 123.473 115.846 120.323C112.196 118.183 112.106 115.113 113.846 111.323C116.736 104.953 121.706 98.6626 125.696 95.5426C125.756 95.5426 144.826 100.543 144.826 100.543C143.466 103.383 133.256 115.503 131.626 116.983ZM139.626 89.5426H140.446C140.545 89.558 140.635 89.6083 140.7 89.6844C140.765 89.7605 140.801 89.8574 140.801 89.9576C140.801 90.0578 140.765 90.1547 140.7 90.2308C140.635 90.3069 140.545 90.3572 140.446 90.3726H139.626C139.541 90.3455 139.467 90.2921 139.415 90.2202C139.362 90.1483 139.334 90.0616 139.334 89.9726C139.334 89.8836 139.362 89.7969 139.415 89.725C139.467 89.6531 139.541 89.5998 139.626 89.5726V89.5426ZM144.626 90.1926L143.796 90.2626C143.695 90.2561 143.599 90.2131 143.527 90.1416C143.455 90.0701 143.411 89.975 143.404 89.8738C143.397 89.7726 143.426 89.6721 143.487 89.591C143.548 89.5099 143.637 89.4537 143.736 89.4326L144.556 89.3626C144.67 89.3533 144.783 89.3897 144.87 89.4638C144.957 89.5379 145.012 89.6436 145.021 89.7576C145.03 89.8717 144.994 89.9847 144.92 90.0719C144.846 90.1591 144.74 90.2133 144.626 90.2226V90.1926ZM181.016 82.6926L180.086 97.3126C178.476 97.4326 145.086 100.413 145.086 100.413C145.196 99.7326 146.936 67.8426 138.506 65.3326C140.796 65.3326 147.316 65.2126 153.426 64.8426C153.426 68.2826 153.666 75.3726 153.666 75.4726C153.056 75.9561 152.611 76.6159 152.391 77.3618C152.17 78.1077 152.185 78.9036 152.433 79.6407C152.682 80.3778 153.151 81.0204 153.779 81.4807C154.406 81.9411 155.159 82.1967 155.937 82.2129C156.715 82.229 157.478 82.0048 158.124 81.5709C158.77 81.137 159.266 80.5144 159.544 79.7882C159.823 79.062 159.871 78.2675 159.682 77.5131C159.492 76.7586 159.075 76.081 158.486 75.5726V64.9826C160.126 65.0426 168.856 65.3726 172.036 65.6626C173.433 65.7791 174.777 66.2582 175.932 67.0527C177.088 67.8472 178.016 68.9295 178.626 70.1926C181.436 75.2926 181.056 82.7226 181.056 82.7226L181.016 82.6926Z" fill="white"/>
</svg>
