<svg width="200" height="200" viewBox="0 0 200 200" fill="none" xmlns="http://www.w3.org/2000/svg">
<path d="M114.774 40.5367C116.474 40.4867 116.774 38.4067 115.774 37.2667C115.574 37.0784 115.338 36.9334 115.08 36.8404C114.821 36.7475 114.547 36.7088 114.273 36.7266C113.999 36.7444 113.732 36.8184 113.487 36.944C113.243 37.0696 113.028 37.2441 112.854 37.4567C111.644 38.8867 112.444 41.0167 114.774 40.5367ZM115.294 37.9767C115.874 38.7167 115.844 39.9767 114.734 40.1967C113.844 40.1967 113.084 39.8967 113.084 39.0067C113.094 37.7667 114.524 37.0167 115.294 38.0167V37.9767ZM123.114 40.3567C124.814 40.3067 125.114 38.2267 124.114 37.0867C123.919 36.8898 123.684 36.7371 123.424 36.6388C123.165 36.5406 122.888 36.499 122.611 36.517C122.334 36.535 122.064 36.6122 121.82 36.7432C121.576 36.8742 121.362 37.0561 121.194 37.2767C119.994 38.6967 120.774 40.8367 123.114 40.3567ZM123.634 37.7967C124.214 38.5367 124.174 39.7967 123.074 40.0167C122.184 40.0167 121.424 39.7167 121.424 38.8267C121.424 37.5867 122.864 36.8067 123.634 37.7967Z" fill="#4C2FB3"/>
<path d="M128.954 51.0768C157.584 48.7368 148.834 18.4468 123.504 19.0768C95.0438 19.8668 86.4938 54.5568 128.954 51.0768ZM105.224 27.0168C113.324 19.0168 129.474 17.1368 139.224 24.6168C150.154 32.9568 148.934 49.0968 128.884 50.7268C117.994 51.6068 110.534 49.7968 105.984 46.7868C98.4938 41.8268 98.9438 33.2468 105.224 27.0168Z" fill="#4C2FB3"/>
<path d="M130.844 40.0165C132.544 40.0165 132.894 37.8865 131.844 36.7465C131.644 36.5583 131.408 36.4132 131.15 36.3203C130.891 36.2274 130.617 36.1886 130.343 36.2065C130.069 36.2243 129.802 36.2983 129.557 36.4239C129.313 36.5495 129.098 36.724 128.924 36.9365C127.714 38.3765 128.534 40.4965 130.844 40.0165ZM131.364 37.4565C131.944 38.1965 131.904 39.4565 130.804 39.6865C129.924 39.6865 129.154 39.3765 129.154 38.4865C129.164 37.2565 130.594 36.4665 131.364 37.4565ZM96.9941 108.807C97.5841 108.497 98.8741 107.157 98.6741 106.527C99.0541 105.527 104.944 86.7165 106.564 80.6465C106.809 80.009 106.924 79.3291 106.904 78.6465C106.794 78.4265 106.614 78.4065 106.394 78.3965L87.3341 78.6965C87.0241 64.3065 85.6141 23.8865 84.0141 10.5965C84.2941 10.5965 84.6041 10.5965 84.6941 10.2565C85.0341 9.01653 85.3241 6.80653 84.3641 5.96653C82.0241 3.91653 6.8641 5.76653 5.9041 6.11653C4.9441 6.46653 4.9041 9.27653 5.0841 10.4765C5.0841 10.7665 5.5741 10.8765 5.8541 10.9465C4.0541 22.4365 5.7641 102.147 7.3441 109.027C7.4241 109.367 7.5341 109.697 7.8241 109.767C8.4817 109.924 9.15029 110.031 9.8241 110.087C10.9041 118.497 18.2841 120.087 26.7641 118.737C34.7248 117.388 42.2948 114.317 48.9441 109.737C55.2141 109.517 48.6441 109.797 60.3341 109.847C63.8441 109.827 95.3141 109.717 96.9941 108.807ZM49.8241 103.337C51.8241 103.337 54.3641 103.597 55.8241 105.087C56.1041 105.377 56.8241 106.247 56.4741 106.427C55.5541 106.917 50.9441 106.747 49.6941 106.767L49.8241 103.337ZM49.6341 107.097L51.0741 107.247C51.09 107.794 51.2485 108.329 51.5341 108.797L49.5341 108.867L49.6341 107.097ZM106.044 79.2565C105.364 82.3765 98.9241 103.337 98.0441 106.067C90.3541 105.747 78.8541 106.187 63.3041 106.617C63.9941 104.287 70.5141 82.0165 71.3041 79.8465C71.3541 79.7465 105.944 79.2565 106.044 79.2565ZM5.4741 10.3965C5.2241 8.72653 5.6241 6.58653 6.0241 6.39653C6.5941 6.18653 80.2741 5.05653 83.8241 6.59653C84.0713 6.93874 84.1947 7.35487 84.1741 7.77653C84.2014 8.45045 84.1272 9.12465 83.9541 9.77653C83.8641 9.77653 27.6141 11.1465 20.9541 11.1365C19.2541 11.1365 6.7141 11.1765 5.4741 10.3965ZM9.8941 34.5065C9.8341 33.9765 9.7741 32.3565 9.7241 30.2065C11.8341 30.9365 23.3241 30.9565 25.5641 30.9565C27.1941 30.9565 55.7341 30.3165 60.3741 30.1265C62.0041 30.0665 78.3741 29.2465 80.0441 29.0465C80.0754 30.4277 80.0353 31.8095 79.9241 33.1865C79.8641 33.1865 36.3341 34.8765 30.7241 34.9865C28.7141 35.0165 11.6541 35.4065 9.8941 34.5065ZM79.9541 23.7865C31.3341 24.8865 11.4241 25.5565 9.6541 24.7865V19.4065C13.6541 20.4065 49.8441 19.5465 52.9941 19.4665C56.3941 19.3665 77.6241 18.4665 79.7941 18.3165C79.8441 20.1065 79.9141 22.0165 79.9541 23.7865ZM9.6541 25.1865C13.0141 26.2965 50.8541 25.3465 53.1241 25.2765C56.5441 25.1865 78.1241 24.2265 79.9641 24.1365C79.9641 25.7665 80.0341 27.3265 80.0441 28.7065C47.7141 29.5265 12.3341 31.0165 9.7141 29.8465C9.7141 28.4465 9.7141 26.8565 9.6541 25.1865ZM79.7141 18.0165C44.8741 18.8065 11.7141 19.7965 9.5941 19.0965V14.5465C13.4641 15.6065 50.2341 14.6965 52.9741 14.6165C56.2441 14.5265 75.9741 13.6165 79.4341 13.4865C79.6041 14.7665 79.7141 16.3265 79.7141 18.0165ZM79.4541 13.1365C37.5941 14.1365 11.5141 14.8965 9.6441 14.2065C9.6441 13.4165 9.6441 12.2065 9.7641 11.3965C23.9941 12.2665 55.5741 11.3065 79.2541 10.7565C79.3741 11.4165 79.4441 12.4465 79.4941 13.1265L79.4541 13.1365ZM8.1641 109.017C6.6441 104.237 4.4941 22.7465 6.1641 11.0165C7.24738 11.1892 8.33882 11.306 9.4341 11.3665C9.0941 15.2365 9.0941 33.0165 9.3241 34.6565C9.34168 34.7333 9.37586 34.8053 9.42423 34.8675C9.4726 34.9297 9.53399 34.9806 9.6041 35.0165C10.4736 35.3029 11.3792 35.4645 12.2941 35.4965C12.0657 38.978 12.1628 42.4731 12.5841 45.9365C9.3741 46.3165 9.0741 51.2665 13.4041 50.4965C16.5141 50.3665 15.8341 45.9665 12.9641 45.9165C13.189 42.4507 13.0785 38.9711 12.6341 35.5265C16.3041 35.7965 22.9741 35.8365 30.7441 35.7365C36.3541 35.6565 79.0741 34.0965 79.8141 34.0365C80.2041 34.0365 80.5841 34.0365 80.6841 33.6765C81.3141 31.3565 80.4341 13.2965 80.1241 10.7265L83.2741 10.6465C84.8341 23.9165 86.1641 63.2765 86.4941 78.7265C83.3441 78.7765 71.7241 78.9365 71.0041 79.1265C70.8041 79.1865 70.7341 79.3365 70.6341 79.5965C70.2841 80.5265 69.5141 83.1965 69.2341 84.1565C64.5724 80.4038 59.2609 77.5396 53.5641 75.7065C53.6644 75.1367 53.7945 74.5726 53.9541 74.0165C55.1453 73.973 56.3042 73.6177 57.315 72.9859C58.3258 72.3542 59.153 71.4682 59.7141 70.4165C60.9241 68.4165 61.7141 65.2665 61.6341 60.3165C61.7168 60.3412 61.8045 60.344 61.8886 60.3247C61.9727 60.3054 62.0504 60.2647 62.1141 60.2065C62.5034 59.895 62.841 59.5237 63.1141 59.1065C63.604 57.2596 63.4597 55.3016 62.7041 53.5465C61.9241 51.2465 61.5741 49.6665 59.7041 47.6465C58.2511 46.0411 56.3123 44.9558 54.1841 44.5565C52.3042 44.39 50.4098 44.5284 48.5741 44.9665C47.7493 45.212 46.9789 45.6125 46.3041 46.1465C45.8947 46.4923 45.5553 46.9132 45.3041 47.3865C44.8141 48.0665 43.6641 48.1165 42.7741 48.5465C40.9631 49.719 39.6189 51.4877 38.9741 53.5465C38.525 54.833 38.2886 56.184 38.2741 57.5465C37.5341 56.7265 36.3641 55.7665 35.3741 56.2465C34.3841 56.7265 33.4541 60.0165 33.4641 61.6165C33.4741 63.2165 34.0841 63.2065 35.5441 63.2065C34.8788 63.7638 34.3256 64.4425 33.9141 65.2065C33.2341 66.2765 33.2641 66.3465 32.1441 66.8065C31.5741 67.0465 31.0541 67.1465 31.0541 67.5765C31.0524 67.6632 31.0776 67.7482 31.1262 67.82C31.1747 67.8918 31.2443 67.9467 31.3254 67.9774C31.4064 68.0081 31.495 68.0129 31.5789 67.9913C31.6628 67.9696 31.738 67.9226 31.7941 67.8565L32.4641 67.5865C32.945 67.4457 33.3884 67.1993 33.762 66.8654C34.1357 66.5316 34.4302 66.1186 34.6241 65.6565C35.4641 64.3365 36.0441 63.5265 37.6241 63.1965C36.7858 63.7717 36.0959 64.5375 35.6109 65.431C35.1259 66.3245 34.8597 67.3202 34.8341 68.3365C33.3541 69.3965 31.1641 71.2265 30.3941 72.8665C29.6241 74.5065 29.1341 76.9665 30.5141 77.7965C23.4848 81.1802 17.8626 86.9191 14.6241 94.0165C11.8841 98.4165 9.3641 104.117 9.7341 109.327C9.20517 109.254 8.68094 109.15 8.1641 109.017ZM12.8641 46.7165C13.3031 46.7075 13.7309 46.8557 14.0702 47.1345C14.4094 47.4132 14.6378 47.8041 14.7141 48.2365C15.0241 49.5965 13.8441 50.6165 12.0041 49.9865C10.1641 49.3565 10.9841 46.8165 12.8641 46.7465V46.7165ZM38.1741 58.9265C38.3776 59.9152 38.8205 60.8389 39.4641 61.6165C39.4735 61.7163 39.4735 61.8168 39.4641 61.9165C37.8263 62.2961 36.1388 62.4143 34.4641 62.2665C34.3221 61.8898 34.2909 61.4804 34.3741 61.0865C34.4751 59.6577 34.8882 58.2685 35.5841 57.0165C36.3141 56.6465 37.7141 58.2165 38.1741 58.9265ZM40.0341 76.0165C43.1641 76.1365 43.2641 72.3065 43.8941 72.0165C44.6203 71.5684 45.1912 70.9079 45.5293 70.1243C45.8674 69.3408 45.9563 68.4723 45.7841 67.6365C45.7841 67.4565 44.6041 65.0065 44.4641 64.5765C44.0341 63.2965 42.8141 62.0465 43.9841 60.8665C44.7141 60.0165 45.3941 61.0165 45.8741 62.0165C45.9011 62.0872 45.9455 62.1499 46.0032 62.1988C46.0609 62.2477 46.13 62.2814 46.2041 62.2965C46.8741 62.4165 47.7341 60.9065 48.4141 60.5765C49.6163 60.1074 50.7265 59.4304 51.6941 58.5765C52.4241 57.8565 52.9241 56.3865 53.7541 55.9765C55.2947 55.3649 56.8792 54.8701 58.4941 54.4965C58.8441 55.6165 58.2641 55.7465 60.8241 59.1965C60.9741 59.3965 61.0841 59.6965 61.2241 59.9365C61.2286 60.0198 61.2286 60.1033 61.2241 60.1865C61.3741 65.1065 60.4241 68.1865 59.2241 70.1865C58.678 71.1622 57.8767 71.9709 56.906 72.5258C55.9353 73.0807 54.8319 73.361 53.7141 73.3365C53.6398 73.3308 53.5657 73.3505 53.504 73.3922C53.4422 73.434 53.3965 73.4954 53.3741 73.5665C53.3741 73.5665 53.0241 74.7765 52.8941 75.4765C52.7341 76.3265 52.8941 76.2665 53.7341 76.5765C55.8241 77.271 57.8569 78.1269 59.8141 79.1365C58.7893 82.1175 57.29 84.9134 55.3741 87.4165C54.9541 87.9265 53.7741 89.9965 52.9741 89.7365C51.0841 89.0965 40.6441 79.5565 37.9741 76.4965L37.7141 76.2065C38.4831 76.0982 39.2577 76.0348 40.0341 76.0165ZM17.4541 90.4265C17.4248 90.4357 17.3934 90.4357 17.3641 90.4265C17.3887 90.4496 17.4204 90.4637 17.4541 90.4665V90.4265ZM26.6241 117.877C21.5041 118.677 14.7941 118.657 12.0541 114.267C7.9341 107.707 12.2041 97.9665 16.6341 91.6165C16.8241 91.3365 17.3141 90.6165 17.5341 90.3965C21.9757 83.4753 28.858 78.4778 36.8141 76.3965C38.2241 78.3965 50.3941 89.7465 52.7441 90.5365C54.1941 91.0165 55.3141 88.8565 56.0441 87.9365C58.0145 85.359 59.5451 82.4734 60.5741 79.3965C63.5848 80.8961 66.4246 82.7167 69.0441 84.8265C67.8999 88.7769 66.7899 92.737 65.7141 96.7065C65.4841 95.1282 65.0154 93.5939 64.3241 92.1565C64.3065 92.1181 64.2753 92.0876 64.2365 92.071C64.1977 92.0543 64.1541 92.0527 64.1142 92.0664C64.0743 92.0802 64.0409 92.1082 64.0206 92.1452C64.0002 92.1822 63.9943 92.2255 64.0041 92.2665C64.1111 93.5081 64.3491 94.735 64.7141 95.9265C64.8907 96.5392 65.1216 97.1349 65.4041 97.7065C64.1541 102.187 63.1041 105.967 62.9141 106.637C56.4541 106.827 57.0941 106.847 57.1541 106.747C57.5641 106.067 56.8541 105.137 56.3041 104.577C55.6511 103.987 54.886 103.535 54.0543 103.248C53.2227 102.961 52.3417 102.845 51.4641 102.907C50.9226 102.907 50.3816 102.941 49.8441 103.007L49.9041 101.827C49.9089 101.742 49.8861 101.658 49.8392 101.588C49.7923 101.518 49.7238 101.465 49.6441 101.437C44.8941 99.7665 37.4541 98.2565 31.7141 98.6065C32.6137 95.9116 33.1616 93.1118 33.3441 90.2765C33.3476 90.2353 33.3359 90.1941 33.3112 90.1609C33.2865 90.1277 33.2505 90.1046 33.21 90.096C33.1695 90.0874 33.1272 90.0939 33.0911 90.1142C33.0551 90.1346 33.0277 90.1674 33.0141 90.2065C32.1314 92.9386 31.5709 95.7644 31.3441 98.6265C28.3828 98.7257 25.511 99.6657 23.0641 101.337C23.0487 101.351 23.0364 101.369 23.028 101.389C23.0197 101.409 23.0153 101.43 23.0153 101.452C23.0153 101.473 23.0197 101.494 23.028 101.514C23.0364 101.534 23.0487 101.552 23.0641 101.567C23.4641 102.107 25.0641 98.9565 33.5341 99.0965C38.8338 99.3512 44.07 100.361 49.0841 102.097L48.7141 108.847C42.1092 113.461 34.5659 116.558 26.6241 117.917V117.877Z" fill="#4C2FB3"/>
<path d="M83.3139 95.6669C85.4344 95.822 87.5634 95.822 89.6839 95.6669C89.7413 95.6629 89.7971 95.6463 89.8474 95.6182C89.8976 95.5901 89.941 95.5513 89.9745 95.5045C90.008 95.4576 90.0306 95.4039 90.0409 95.3473C90.0512 95.2907 90.0488 95.2325 90.0339 95.1769C89.9539 94.2569 88.0939 91.5369 87.4139 90.8269C87.0739 90.4669 86.9739 90.4769 86.6239 90.8269C85.3391 92.0856 84.2078 93.492 83.2539 95.0169C83.1339 95.2769 83.0939 95.5269 83.3139 95.6669ZM86.9939 90.8269C87.4563 91.3437 87.8496 91.9185 88.1639 92.5368C88.6486 93.3568 89.0699 94.2126 89.4239 95.0969C88.5239 95.0969 84.8639 95.2069 83.8539 95.0969C84.8053 93.6059 85.8543 92.1795 86.9939 90.8269ZM94.7139 55.5769C96.3215 55.4424 97.853 54.8333 99.1139 53.8269C100.403 52.9364 101.532 51.8341 102.454 50.5669C102.674 50.2269 102.184 50.1469 102.174 50.4069C100.578 51.7749 98.8871 53.0281 97.1139 54.1569C96.3568 54.6423 95.5355 55.0193 94.6739 55.2769C94.6481 55.2947 94.6278 55.3192 94.6152 55.3479C94.6025 55.3765 94.598 55.4081 94.6021 55.4391C94.6063 55.4701 94.6189 55.4994 94.6386 55.5237C94.6583 55.548 94.6844 55.5664 94.7139 55.5769ZM102.164 50.4269C102.173 50.4816 102.201 50.5314 102.244 50.5669C102.217 50.555 102.194 50.5354 102.178 50.5105C102.162 50.4856 102.153 50.4565 102.154 50.4269H102.164ZM55.0439 67.6669C55.0312 67.7093 55.0357 67.755 55.0562 67.7942C55.0768 67.8334 55.1118 67.8631 55.1539 67.8769C55.3939 67.9969 55.7439 68.1969 56.1539 68.3469C56.9039 68.6469 57.6539 68.6368 57.8939 67.8668C58.0191 67.0818 58.0191 66.2819 57.8939 65.4969C57.8062 64.7436 57.6352 64.0024 57.3839 63.2869C57.3759 63.2418 57.3504 63.2017 57.3129 63.1754C57.2754 63.1492 57.229 63.1389 57.1839 63.1469C57.1388 63.1548 57.0987 63.1803 57.0724 63.2179C57.0462 63.2554 57.0359 63.3018 57.0439 63.3469V64.9069C57.1258 65.8183 57.1258 66.7354 57.0439 67.6468C57.0439 67.7368 56.9439 67.7569 56.8639 67.7669C55.9839 67.8569 55.1439 67.3569 55.0439 67.6669ZM54.4739 63.6069C54.4783 63.421 54.5052 63.2363 54.5539 63.0569C54.5808 63.0083 54.5979 62.9548 54.6041 62.8997C54.6104 62.8445 54.6058 62.7886 54.5904 62.7352C54.5751 62.6818 54.5494 62.6319 54.5149 62.5885C54.4803 62.545 54.4375 62.5088 54.3889 62.4819C54.3403 62.4549 54.2869 62.4378 54.2317 62.4316C54.1765 62.4253 54.1206 62.4299 54.0672 62.4453C54.0138 62.4606 53.9639 62.4863 53.9205 62.5209C53.877 62.5555 53.8408 62.5983 53.8139 62.6469C53.6832 62.9638 53.6185 63.3041 53.6239 63.6469C53.6436 63.7482 53.6991 63.8391 53.7804 63.9029C53.8616 63.9666 53.963 63.9991 54.0662 63.9942C54.1693 63.9893 54.2672 63.9475 54.3421 63.8764C54.417 63.8053 54.4637 63.7096 54.4739 63.6069ZM60.0339 63.5969C60.044 63.5211 60.0327 63.444 60.0013 63.3743C59.9699 63.3046 59.9196 63.2451 59.8562 63.2025C59.7927 63.1598 59.7186 63.1358 59.6422 63.133C59.5658 63.1302 59.4902 63.1489 59.4239 63.1869C59.0539 63.3769 59.2139 63.8869 59.2139 64.1869C59.2139 64.2982 59.2581 64.4051 59.3369 64.4838C59.4156 64.5626 59.5225 64.6068 59.6339 64.6068C59.7453 64.6068 59.8521 64.5626 59.9308 64.4838C60.0096 64.4051 60.0539 64.2982 60.0539 64.1869C60.0372 63.9906 60.0306 63.7937 60.0339 63.5969ZM53.2039 60.4369C53.6418 60.3839 54.0856 60.411 54.5139 60.5169C55.5139 60.7069 55.5139 60.8669 55.6039 60.7069C55.6939 60.5469 55.0739 59.9469 54.7639 59.7969C54.2327 59.5771 53.6495 59.5147 53.0839 59.6169C52.4839 59.7269 51.6139 60.2769 51.7339 60.5069C51.8539 60.7369 51.8539 60.5469 53.2039 60.4369ZM59.6539 61.3369L59.9739 61.4469C60.0739 61.4469 60.7039 61.6069 60.7739 61.5169C60.8439 61.4269 60.5139 60.8369 60.2439 60.6769C59.3939 60.1769 58.5739 60.7669 58.7039 61.0369C59.0146 61.1547 59.3318 61.2549 59.6539 61.3369ZM55.3639 70.4569C55.1134 70.4139 54.8728 70.3258 54.6539 70.1969C54.3839 70.0635 54.1346 69.8917 53.9139 69.6868C53.5239 69.3568 53.1239 69.0469 53.0439 68.9569C53.0202 68.9243 52.9858 68.9012 52.9466 68.8916C52.9075 68.8821 52.8663 68.8867 52.8303 68.9047C52.7943 68.9227 52.7658 68.9529 52.75 68.9899C52.7342 69.0269 52.732 69.0684 52.7439 69.1068C52.9639 70.4368 54.3739 71.3668 55.4439 70.7868C55.7139 70.7468 55.5839 70.4069 55.3639 70.4569ZM190.914 95.0169C191.184 95.0169 191.504 95.0169 191.594 94.6769C191.934 93.4469 192.224 91.2269 191.264 90.3869C188.894 88.3269 113.754 90.1769 112.804 90.5269C111.854 90.8769 111.804 93.6769 111.984 94.8769C111.984 95.1669 112.474 95.2868 112.754 95.3568C111.294 104.687 112.284 150.907 112.564 161.037C110.074 159.327 103.014 154.757 100.044 154.277C99.4939 154.197 100.044 152.007 98.6139 151.277C98.4088 151.173 98.1713 151.152 97.9514 151.219C97.7314 151.286 97.5459 151.436 97.4339 151.637C97.1149 152.166 96.8566 152.73 96.6639 153.317C96.4339 153.517 95.5939 153.447 95.2939 153.417C93.1139 153.187 90.7839 152.417 90.1639 153.567C90.0519 153.807 90.0159 154.075 90.0606 154.336C90.1053 154.597 90.2285 154.838 90.4139 155.027C91.4839 156.027 95.8139 157.247 96.9539 157.727C97.9539 159.657 103.604 174.657 113.284 181.137C113.344 182.467 113.804 193.227 114.474 194.017C115.364 195.017 129.864 194.747 131.084 194.857C139.084 195.527 173.214 193.367 193.144 192.857C193.334 192.857 193.604 192.707 193.764 192.267C195.924 186.107 192.534 108.537 190.914 95.0169ZM112.364 94.7969C112.124 93.1269 112.514 90.9869 112.914 90.7969C113.314 90.6069 186.914 89.4369 190.714 90.9969C190.963 91.338 191.087 91.7549 191.064 92.1769C191.09 92.8502 191.02 93.5238 190.854 94.1769C190.764 94.1769 134.514 95.5468 127.854 95.5368C126.344 95.5768 113.554 95.6169 112.364 94.8369V94.7969ZM181.824 167.687C183.824 171.267 186.484 179.687 187.644 183.637C184.164 183.947 170.884 185.247 168.714 185.717C168.614 185.717 168.714 185.887 168.314 183.717C168.094 182.507 167.134 178.587 167.084 178.387C166.594 176.497 166.374 175.937 166.084 174.877C166.07 174.838 166.043 174.805 166.007 174.785C165.971 174.764 165.929 174.758 165.888 174.766C165.847 174.775 165.811 174.798 165.787 174.831C165.762 174.864 165.75 174.906 165.754 174.947C165.874 175.947 166.004 177.107 166.204 178.127C166.204 178.227 169.554 192.847 169.584 192.947C166.424 193.097 133.284 194.777 130.354 194.047C130.644 190.817 131.024 187.967 131.414 185.567C131.414 185.467 135.184 166.077 135.234 165.847C135.244 165.806 135.238 165.763 135.217 165.726C135.197 165.689 135.164 165.66 135.124 165.647C135.084 165.633 135.04 165.635 135.001 165.651C134.963 165.668 134.931 165.698 134.914 165.737C133.616 169.112 132.873 172.675 132.714 176.287C131.384 174.817 120.424 162.677 119.714 161.387C123.483 158.101 127.707 155.377 132.254 153.297C136.504 151.309 141.051 150.033 145.714 149.517C145.163 149.875 144.704 150.358 144.374 150.927C144.004 151.757 144.914 153.017 145.794 153.337C151.644 155.477 156.424 154.017 159.074 151.027C159.654 150.377 159.624 150.237 159.644 149.857C169.344 152.547 176.514 158.017 181.824 167.727V167.687ZM170.314 192.607C169.814 190.607 169.634 189.207 169.104 186.537C169.424 186.487 185.894 184.537 187.824 184.307C188.623 186.815 189.218 189.383 189.604 191.987C186.994 192.117 172.894 192.957 170.314 192.607ZM145.814 138.277C146.685 135.201 148.035 132.282 149.814 129.627C151.504 130.107 153.294 130.107 154.984 129.627C154.844 130.287 155.534 130.627 156.184 130.847C156.036 131.081 155.936 131.342 155.889 131.615C155.843 131.888 155.851 132.167 155.914 132.437C155.957 132.689 156.058 132.928 156.209 133.134C156.36 133.341 156.557 133.51 156.784 133.627C157.117 133.791 157.475 133.896 157.844 133.937C157.655 134.28 157.556 134.665 157.556 135.057C157.556 135.449 157.655 135.834 157.844 136.177C158.025 136.461 158.267 136.7 158.554 136.877C158.383 137.036 158.235 137.217 158.114 137.417C157.494 138.637 157.164 140.697 158.474 141.147C158.695 141.213 158.934 141.189 159.138 141.08C159.342 140.972 159.495 140.787 159.564 140.567C159.974 139.697 160.704 139.397 161.074 140.247C161.554 141.337 159.634 142.387 159.124 143.247C158.884 143.637 158.414 144.117 158.694 144.687C158.804 144.917 158.764 144.687 158.774 145.207C158.874 150.337 159.034 149.847 158.464 150.487C156.024 153.207 151.574 154.567 146.074 152.547C145.827 152.436 145.608 152.27 145.435 152.062C145.262 151.854 145.138 151.61 145.074 151.347C145.074 151.267 145.124 151.197 145.194 151.107C145.825 150.433 146.545 149.847 147.334 149.367C147.644 149.137 147.714 148.987 147.884 148.367C148.054 147.747 148.114 147.167 148.234 146.807C148.794 145.137 144.164 145.197 145.814 138.277ZM155.644 118.817C155.161 118.543 154.613 118.408 154.058 118.428C153.504 118.447 152.966 118.62 152.504 118.927C149.574 119.037 119.364 120.277 116.794 118.927C116.724 118.397 116.664 116.787 116.624 114.627C118.734 115.367 130.224 115.377 132.464 115.387C134.084 115.387 162.624 114.747 167.274 114.557C169.344 114.467 186.484 113.557 186.944 113.467C186.973 114.848 186.93 116.23 186.814 117.607C186.814 117.607 169.764 118.297 155.644 118.817ZM186.854 108.237C139.044 109.317 118.334 109.997 116.544 109.237V103.857C120.544 104.857 156.734 104.007 159.894 103.917C163.294 103.817 184.514 102.917 186.684 102.777C186.714 104.557 186.804 106.427 186.854 108.237ZM116.554 109.637C119.904 110.737 157.724 109.787 160.014 109.727C163.444 109.627 185.014 108.667 186.864 108.577C186.864 110.207 186.934 111.777 186.944 113.147C157.714 113.927 119.254 115.497 116.614 114.287C116.584 112.897 116.564 111.297 116.554 109.637ZM186.654 102.447C148.304 103.317 118.654 104.227 116.524 103.537V98.9869C120.384 100.047 157.154 99.1269 159.904 99.0469C162.494 98.9769 183.904 98.1169 186.364 97.9369C186.494 99.2269 186.584 100.777 186.654 102.447ZM186.394 97.5669C147.794 98.4469 118.534 99.3569 116.584 98.6369C116.584 97.8469 116.584 96.6369 116.704 95.8269C130.924 96.6969 162.604 95.7369 186.184 95.1869C186.264 95.8769 186.344 96.8869 186.394 97.5669ZM113.084 95.4669C114.167 95.6361 115.259 95.7496 116.354 95.8069C115.984 99.6969 115.994 117.447 116.224 119.097C116.236 119.176 116.268 119.25 116.317 119.313C116.366 119.376 116.43 119.426 116.504 119.457C117.369 119.747 118.272 119.912 119.184 119.947C118.941 123.425 119.042 126.918 119.484 130.377C116.274 130.767 115.964 135.707 120.294 134.947C123.394 134.807 122.754 130.407 119.854 130.357C120.085 126.891 119.974 123.411 119.524 119.967C126.714 120.497 140.194 120.127 147.404 119.897C146.924 120.193 146.498 120.568 146.144 121.007C144.484 122.927 145.944 126.377 147.634 128.237C148.074 128.718 148.604 129.109 149.194 129.387C146.194 133.797 142.564 141.327 146.194 145.257C146.658 145.645 147.086 146.073 147.474 146.537C147.314 147.057 147.154 148.157 146.954 148.637C146.684 148.827 146.754 148.797 146.614 148.807C141.536 149.279 136.582 150.65 131.984 152.857C127.37 155 123.103 157.821 119.324 161.227C119.194 161.357 119.224 161.487 120.694 163.227L117.814 165.137C116.413 163.793 114.893 162.578 113.274 161.507C112.934 151.217 111.714 104.927 113.084 95.4669ZM119.764 131.197C120.195 131.187 120.615 131.33 120.95 131.601C121.285 131.872 121.513 132.253 121.594 132.677C121.914 134.037 120.734 135.067 118.894 134.427C117.054 133.787 117.884 131.257 119.764 131.197ZM103.624 169.137C101.382 165.413 99.4228 161.525 97.7639 157.507C97.6039 157.177 97.5839 157.107 96.9339 156.867C94.9741 156.285 93.0645 155.546 91.2239 154.657C91.1133 154.587 91.0124 154.503 90.9239 154.407C90.7839 153.987 90.9239 153.927 91.2139 153.867C92.5239 153.637 95.2139 154.537 96.5739 154.247C96.7868 154.234 96.9899 154.153 97.1536 154.016C97.3174 153.88 97.4331 153.694 97.4839 153.487C97.5539 153.307 98.0139 151.907 98.2639 152.027C99.3339 152.567 98.5039 154.857 99.9339 155.077C103.344 155.567 115.664 163.337 117.604 165.597C117.641 165.634 117.692 165.654 117.744 165.654C117.796 165.654 117.846 165.634 117.884 165.597L120.884 163.507C123.634 166.847 129.814 173.867 132.624 177.037C132.404 177.797 127.044 182.927 124.354 183.337C115.464 184.707 108.364 176.837 103.624 169.137ZM115.064 193.497C114.584 192.027 114.134 183.237 114.064 181.677C117.136 183.679 120.841 184.473 124.464 183.907C126.824 183.507 130.784 179.907 132.384 178.007C131.085 183.266 130.176 188.614 129.664 194.007C122.564 194.137 117.334 194.017 115.064 193.497ZM192.944 192.087L190.454 192.157C190.624 189.527 185.314 172.357 182.554 167.327C177.134 157.477 169.824 151.827 159.644 149.097C159.644 148.307 159.644 147.487 159.514 145.277C159.692 145.278 159.869 145.24 160.031 145.165C160.194 145.091 160.338 144.982 160.454 144.847C160.79 145.108 161.185 145.283 161.604 145.357C163.154 145.627 165.664 144.097 165.474 142.777C166.276 142.799 167.066 142.571 167.734 142.127C168.884 141.407 170.224 139.867 170.054 138.597C169.884 137.327 169.484 138.067 170.464 137.437C171.423 136.767 172.1 135.766 172.364 134.627C172.484 133.891 172.457 133.138 172.285 132.412C172.114 131.686 171.801 131.002 171.364 130.397C171.209 130.184 171.001 130.017 170.76 129.911C170.519 129.806 170.255 129.766 169.994 129.797C169.894 129.797 169.914 129.867 170.234 129.247C170.334 129.08 170.405 128.897 170.444 128.707C170.491 128.035 170.389 127.362 170.145 126.734C169.901 126.107 169.522 125.541 169.034 125.077C168.738 124.769 168.358 124.557 167.941 124.466C167.525 124.375 167.09 124.41 166.694 124.567C166.694 124.567 166.254 124.757 166.114 124.797C166.114 124.437 166.164 123.937 166.114 123.797C166.043 123.259 165.848 122.745 165.544 122.296C165.24 121.846 164.836 121.473 164.364 121.207C163.226 120.778 161.971 120.778 160.834 121.207C160.539 120.457 159.985 119.836 159.274 119.457C159.924 119.457 186.474 118.457 187.134 118.457C187.223 118.452 187.308 118.42 187.378 118.364C187.448 118.309 187.499 118.233 187.524 118.147C188.114 116.007 187.364 98.4869 186.974 95.1469L190.124 95.0669C191.994 110.597 194.844 186.227 192.944 192.087Z" fill="#4C2FB3"/>
<path d="M148.814 134.587L149.274 133.937C149.338 133.845 149.363 133.732 149.343 133.623C149.323 133.513 149.261 133.416 149.169 133.352C149.078 133.288 148.965 133.264 148.855 133.283C148.745 133.303 148.648 133.365 148.584 133.457L148.114 134.107C148.051 134.2 148.027 134.314 148.047 134.425C148.068 134.535 148.132 134.633 148.224 134.697C148.317 134.761 148.432 134.785 148.542 134.764C148.653 134.743 148.751 134.68 148.814 134.587ZM149.424 139.157C149.604 139.287 149.794 139.007 149.604 138.877C148.994 138.327 148.684 138.047 148.544 137.877C148.404 137.707 148.484 137.747 148.544 137.637C148.734 137.187 149.544 136.207 150.774 134.337C150.804 134.302 150.818 134.258 150.814 134.213C150.81 134.168 150.789 134.126 150.754 134.097C150.72 134.068 150.675 134.053 150.63 134.057C150.585 134.061 150.544 134.082 150.514 134.117C149.823 134.665 149.196 135.289 148.644 135.977C147.034 138.017 147.554 138.277 149.424 139.157ZM152.354 136.677C152.444 136.457 152.624 136.167 152.734 135.927C152.757 135.876 152.77 135.822 152.772 135.766C152.774 135.711 152.765 135.655 152.745 135.603C152.726 135.551 152.696 135.504 152.658 135.463C152.621 135.423 152.575 135.39 152.524 135.367C152.474 135.344 152.419 135.331 152.364 135.329C152.308 135.327 152.253 135.336 152.201 135.356C152.149 135.375 152.101 135.405 152.061 135.443C152.02 135.481 151.987 135.526 151.964 135.577C151.864 135.797 151.694 136.067 151.574 136.357C151.553 136.408 151.543 136.463 151.543 136.518C151.543 136.574 151.554 136.628 151.576 136.68C151.597 136.731 151.628 136.777 151.667 136.816C151.707 136.855 151.753 136.886 151.804 136.907C151.856 136.928 151.911 136.939 151.966 136.938C152.021 136.938 152.076 136.927 152.127 136.906C152.178 136.884 152.225 136.853 152.264 136.814C152.303 136.775 152.333 136.728 152.354 136.677ZM148.994 142.637C149.304 142.687 149.621 142.663 149.92 142.567C150.219 142.472 150.491 142.307 150.714 142.087C150.917 141.854 151.052 141.571 151.104 141.267C151.122 141.248 151.134 141.225 151.141 141.201C151.148 141.176 151.15 141.15 151.146 141.125C151.141 141.1 151.131 141.076 151.117 141.055C151.102 141.034 151.083 141.017 151.06 141.004C151.038 140.992 151.013 140.985 150.987 140.984C150.962 140.982 150.936 140.987 150.913 140.996C150.889 141.006 150.868 141.021 150.851 141.04C150.834 141.06 150.821 141.082 150.814 141.107C150.467 141.384 150.079 141.607 149.664 141.767C149.23 141.879 148.783 141.93 148.334 141.917C148.314 141.904 148.29 141.896 148.266 141.893C148.242 141.89 148.217 141.893 148.194 141.9C148.17 141.908 148.149 141.92 148.131 141.937C148.113 141.953 148.099 141.974 148.089 141.996C148.08 142.019 148.075 142.043 148.076 142.068C148.077 142.092 148.083 142.116 148.094 142.138C148.105 142.16 148.12 142.179 148.139 142.195C148.159 142.21 148.181 142.221 148.204 142.227C148.43 142.427 148.701 142.568 148.994 142.637ZM154.474 169.107C152.284 167.407 149.884 168.057 148.004 170.107C146.474 166.947 143.644 165.977 140.214 168.637C135.044 172.637 144.014 183.837 145.214 184.227C145.317 184.267 145.432 184.267 145.534 184.227C145.964 183.997 156.054 178.577 156.534 173.287C156.595 172.47 156.437 171.651 156.074 170.916C155.712 170.181 155.16 169.556 154.474 169.107Z" fill="#4C2FB3"/>
</svg>
