<svg width="200" height="200" viewBox="0 0 200 200" fill="none" xmlns="http://www.w3.org/2000/svg">
<path d="M17.6083 158.416C13.6723 158.954 9.93729 159.57 6.49129 160.274C6.08529 160.357 5.68829 160.52 5.30629 160.688C5.05129 160.8 4.97029 161 5.00929 161.196C5.13429 161.834 10.4903 160.945 18.7273 159.884C18.3323 159.446 17.9573 158.955 17.6083 158.416Z" fill="#4C2FB3"/>
<path d="M194.168 158.354C193.667 158.309 178.21 157.221 155.972 156.25C155.923 156.843 155.867 157.406 155.798 157.942C172.169 158.632 185.714 159.319 194.257 159.506C195.33 159.529 195.187 158.446 194.168 158.354Z" fill="#4C2FB3"/>
<path d="M86.6932 50.5621C87.3942 50.5921 95.3932 41.1411 97.8152 37.8061C98.7142 36.5671 98.6512 36.0161 97.2672 37.2841C94.1102 40.1761 84.8782 50.4841 86.6932 50.5621Z" fill="#4C2FB3"/>
<path d="M30.9537 44.7281C30.6157 44.6331 30.2447 44.9661 30.5647 45.2841C30.5857 45.3051 43.6787 56.8612 44.5807 56.8312C47.1677 56.7462 31.2247 44.8041 30.9537 44.7281Z" fill="#4C2FB3"/>
<path d="M60.3154 31.8011C60.3204 34.2591 61.2144 43.2851 62.0384 47.3871C62.3274 48.8271 63.1894 48.7211 63.1894 47.6551C63.2994 47.6471 61.9944 36.3331 61.1454 32.3671C60.7604 30.5701 60.3134 30.7221 60.3154 31.8011Z" fill="#4C2FB3"/>
<path d="M37.3533 77.9551C31.7763 76.9011 28.1733 76.4121 26.4023 76.3171C24.6033 76.2201 24.6293 76.9261 26.4643 77.4591C28.3343 78.0021 32.0813 78.3791 37.4163 79.1951C39.7033 79.5451 40.1013 78.4751 37.3533 77.9551Z" fill="#4C2FB3"/>
<path d="M191.404 145.056C191.359 140.332 188.824 134.688 187.757 133.013C187.521 132.643 185.249 129.113 184.701 128.582C183.903 127.809 184.986 126.963 184.215 125.78C183.793 125.132 184.673 124.969 184.599 123.775C184.505 122.26 183.347 122.672 183.552 122.156C183.92 121.227 184.243 121.306 186.228 118.184C186.867 117.179 187.358 116.3 186.576 115.586C184.321 113.527 184.202 114.698 183.989 114.033C183.06 111.133 180.443 110.169 178.511 111.297C178.248 111.451 178.22 111.216 178.037 110.839C177.385 109.49 175.983 108.352 174.382 108.341C172.781 108.33 172.619 109.243 172.29 108.73C170.459 105.871 165.776 106.687 165.238 110.652C165.175 111.119 165.07 110.993 163.713 111.3C162.033 111.679 160.892 111.701 161.279 112.874C161.933 114.858 162.657 116.959 163.643 118.668C163.866 119.054 163.373 118.963 163.014 119.522C162.282 120.661 163.265 121.077 162.702 121.285C161.288 121.807 161.841 122.712 161.453 122.865C161.436 122.872 159.888 123.626 157.673 124.987C157.482 134.789 157.04 143.477 156.428 150.107C156.051 154.186 156.052 157.357 155.47 159.811C155.963 160.144 156.459 160.446 156.952 160.714C161.485 163.173 167.264 164.155 172.421 164.163C179.407 164.174 183.198 163.301 188.113 157.619C190.097 155.325 190.981 151.897 191.312 148.841C191.605 146.133 191.426 147.473 191.403 145.054L191.404 145.056ZM182.08 112.795C183.31 114.125 183.209 115.513 183.31 116.442C183.362 116.918 182.968 116.875 181.723 117.098C179.994 116.971 179.163 116.521 177.532 115.511C177.285 115.359 177.205 115.282 177.305 114.9C177.952 112.419 180.476 111.062 182.08 112.795ZM172.142 111.642C172.341 110.758 172.87 110.132 173.673 109.745C175.767 108.738 177.069 111.419 177.371 111.867C177.641 112.268 176.856 112.392 176.301 114.237C176.222 114.5 176.01 114.403 175.441 113.982C172.646 111.918 171.974 112.387 172.142 111.642ZM166.624 110.181C168.275 106.303 172.074 109.246 171.586 109.89C170.927 110.759 171.104 111.668 170.562 111.492C167.396 110.463 166.032 111.573 166.624 110.181ZM172.881 154.407C172.31 154.412 172.87 155.025 172.059 156.401C171.679 157.047 170.83 157.032 170.479 156.374C170.254 155.953 170.065 155.514 170.233 155.017C170.751 153.481 169.034 154.985 166.023 151.704C165.214 150.823 165.922 149.573 166.93 149.99C167.625 150.278 168.177 151.227 170.137 152.004C172.116 152.788 175.176 152.385 176.573 150.776C177.117 150.15 177.227 148.766 176.692 148.002C174.734 145.205 170.904 146.724 168.162 143.762C165.148 140.506 168.366 136.389 172.523 135.852C172.986 135.792 172.687 135.517 173.016 134.013C173.335 132.552 175.476 132.785 175.216 134.381C174.934 136.116 174.978 136.144 175.309 136.267C180.315 138.127 179.074 141.576 177.873 140.523C177.444 140.148 176.743 138.372 174.022 137.894C172.219 137.578 170.656 138.082 169.489 139.542C168.754 140.462 168.748 141.352 169.534 142.269C171.775 144.886 176.818 143.322 178.773 147.66C178.99 148.142 178.947 148.355 178.947 149.164C179.162 152.339 175.85 154.382 172.881 154.408V154.407ZM163.918 124.741C163.338 124.28 162.463 123.292 162.818 122.642C163.092 122.139 162.856 122.408 163.351 121.869C164.069 122.61 163.888 122.793 165.617 123.842C169.236 126.038 173.085 126.64 177.31 126.917C182.339 127.248 183.257 125.677 183.427 126.212C184.741 130.36 169.703 129.338 163.918 124.741ZM182.32 125.206C175.715 127.369 160.907 122.598 164.283 119.767C164.387 119.68 164.46 119.688 164.555 119.773C167.797 122.681 175.683 125.04 182.114 123.48C183.214 123.213 183.036 122.779 183.422 123.132C183.97 123.631 183.422 124.845 182.32 125.206Z" fill="#4C2FB3"/>
<path d="M48.5288 126.639C45.6968 124.801 44.8768 124.939 44.8478 124.391C44.8118 123.686 44.4338 123.352 43.7668 123.125C43.1528 122.917 44.1828 122.755 43.4948 121.362C43.2438 120.855 42.5938 120.886 42.7958 120.572C43.3788 119.665 44.2358 117.573 44.5968 116.539C45.6488 113.527 46.0168 113.744 41.5188 112.884C41.3088 112.843 41.3278 112.782 41.2198 112.282C40.4248 108.629 36.8348 108.031 34.8948 109.819C34.1728 110.484 34.1538 110.877 33.8948 110.702C33.1138 110.177 31.7898 109.972 30.5838 110.534C29.1438 111.206 28.6598 112.276 28.1968 113.179C26.9988 112.661 27.2858 112.837 26.9648 112.759C25.4308 112.382 23.4288 113.24 22.5848 115.633C22.4058 116.141 22.4088 115.977 21.8518 116.147C20.6838 116.505 19.0738 117.689 19.6278 118.787C21.8438 123.177 23.6878 123.752 22.6268 124.352C21.6528 124.903 21.7218 126.09 22.3298 127.03C22.6258 127.488 22.0748 127.438 22.0108 128.336C21.9068 129.816 22.3848 129.653 21.9828 130.154C12.0498 142.55 14.1598 155.289 19.0478 160.225C23.2828 164.502 25.8908 165.979 33.5208 165.979C33.5248 166.068 42.6578 165.925 47.7328 163.428C48.9158 162.846 49.8908 162.309 50.7198 161.794C49.0548 157.024 48.5918 147.189 48.5288 126.639ZM34.8978 111.423C36.1418 109.48 38.6458 109.728 39.5498 111.357C39.7748 111.763 40.2848 112.708 39.8238 112.759C39.5198 112.793 39.6728 112.68 37.0558 113.063C35.7838 113.249 35.6988 113.549 35.5398 113.095C34.9808 111.508 34.7388 111.672 34.8988 111.424L34.8978 111.423ZM29.0968 113.763C30.7598 110.12 33.9808 111.193 34.3708 113.511C34.4578 114.029 34.4908 113.681 32.6418 114.792C32.0708 115.135 30.4858 116.168 30.4648 116.185C30.1518 116.428 30.1848 115.873 29.7488 115.023C29.2738 114.099 28.9738 114.033 29.0968 113.763ZM29.1438 116.66C29.1968 116.904 29.4048 116.976 29.1458 117.161C27.7968 118.124 26.6058 118.877 24.7008 118.854C24.1698 118.848 23.1548 118.822 23.1698 118.287C23.3298 112.48 28.3138 112.825 29.1448 116.66H29.1438ZM23.4838 124.929C24.5588 125.626 27.8848 125.926 29.1638 125.84C30.9608 125.72 33.3778 125.62 37.3428 124.215C38.5768 123.778 40.8938 122.692 41.8948 121.615C42.0968 121.398 42.1788 121.56 42.3838 121.774C44.8228 124.335 31.9108 129.071 24.3508 127.097C22.3818 126.583 22.6688 124.4 23.4838 124.929ZM41.1528 155.599C40.5138 156.104 41.2638 157.523 41.5648 158.398C42.0538 159.819 39.8508 160.596 39.3178 159.22C38.2138 156.37 39.9418 157.094 36.7728 157.84C35.1948 158.211 32.0408 157.78 31.3988 156.317C30.6048 154.505 34.9158 155.384 36.2908 155.132C41.2368 154.223 42.3118 150.136 39.2668 149.338C36.7158 148.669 32.2858 149.981 30.2528 146.885C29.6708 145.999 29.2718 144.207 29.8148 142.501C30.5208 140.286 32.2698 139.378 32.9028 138.96C33.2848 138.708 33.1928 138.898 32.3508 136.356C31.9498 135.146 33.7878 134.354 34.3368 135.47C34.7098 136.231 34.6148 136.273 35.2308 137.825C35.5198 137.766 35.8068 137.7 36.0948 137.647C41.8708 136.58 41.8448 141.57 39.8438 140.81C39.2578 140.587 38.2908 139.408 36.1738 140.005C33.6738 140.71 31.3428 142.303 31.7898 144.875C32.3068 147.849 38.1508 145.249 41.6108 147.613C44.5778 149.64 43.8478 153.47 41.1528 155.599ZM43.7208 124.986C43.4598 125.997 42.2468 126.898 41.3308 127.416C37.2958 129.7 34.4298 130.081 29.8208 130.6C29.5938 130.625 29.3598 130.604 29.1308 130.604L29.1288 130.619C25.4268 130.455 24.8908 130.539 23.3108 129.455C22.7728 129.086 22.9118 127.706 23.2998 127.938C26.1968 129.664 33.2188 128.267 34.4548 128.08C35.6908 127.893 37.3708 127.483 40.0858 126.08C42.9728 124.587 42.9958 123.354 43.2658 123.803C43.8458 124.767 43.7858 124.733 43.7208 124.986Z" fill="#4C2FB3"/>
<path d="M156.428 150.109C155.738 157.577 156.314 162 152.265 164.556C151.572 164.993 150.06 165.357 149.984 165.561C149.74 166.211 148.387 167.968 148.217 168.182C147.562 169.007 147.185 168.849 144.392 169.051C144.367 169.051 139.375 169.304 136.943 168.96C135.263 168.722 135.643 166.406 134.808 166.411C134.018 166.416 118.405 166.712 118.377 166.713C117.899 166.717 117.476 168.104 115.835 169.166C114.452 170.06 114.346 169.945 106.026 169.905C101.536 169.883 101.768 169.64 100.784 167.263C100.597 166.811 100.807 166.981 97.4637 166.957C96.8987 166.953 95.5437 169.302 94.0607 169.385C85.2207 169.878 84.6107 169.53 84.0887 168.572C83.4207 167.347 83.5277 167.147 83.0397 167.151C76.4447 167.206 76.5737 166.951 76.2107 167.548C75.4737 168.761 74.3017 169.97 72.8827 169.918C64.5227 169.612 60.8947 170.36 60.3177 168.457C59.6967 166.41 59.7547 166.539 59.4387 166.522C48.8107 165.962 48.3177 167.017 48.5637 103.682C48.6307 86.3252 50.2947 70.5102 50.3497 70.1682C51.4487 63.3712 53.4587 62.8852 57.7367 62.3412C78.6747 59.6812 122.947 61.1192 144.034 62.0392C151.631 62.3712 155.501 63.0332 156.132 70.8322C158.486 99.9332 158.065 132.381 156.427 150.11L156.428 150.109ZM88.3167 62.1152C88.3167 62.1722 63.6727 62.3812 56.0177 63.8382C52.0327 64.5962 51.4087 66.1362 50.6847 83.9242C49.2317 119.611 50.2757 149.606 51.1097 156.469C52.2727 166.04 52.4497 164.969 65.7057 165.447C80.4657 165.98 123.011 166.137 127.206 164.491C131.488 162.811 131.303 160.842 131.611 157.981C133.401 141.344 134.223 103.227 132.633 78.6232C131.603 62.6892 135.688 62.1152 88.3167 62.1152ZM154.63 156.313C158.155 118.965 155.048 73.4292 155.361 76.6742C154.543 68.1762 155.469 64.2862 147.853 63.4882C141.747 62.8482 126.887 62.5532 126.73 62.7832C133.567 65.0002 133.303 67.1752 134.002 75.4222C136.905 109.675 133.814 154.596 132.654 159.927C131.441 165.5 127.227 165.36 128.699 165.367C152.422 165.464 153.815 164.955 154.631 156.312L154.63 156.313Z" fill="#4C2FB3"/>
<path d="M121.735 70.1221C125.943 71.4241 123.989 76.0931 125.025 91.5571C125.337 96.2091 125.517 129.803 123.942 152.307C123.432 159.59 119.73 157.123 110.27 158.146C109.818 158.195 79.1029 158.804 67.2039 158.118C57.5529 157.562 56.8459 158.426 56.5179 149.686C56.0789 137.979 55.0269 76.1601 57.9009 71.5091C59.4599 68.9861 63.5489 70.1981 72.9709 69.1151C75.9979 68.7671 117.101 68.6881 121.735 70.1221ZM122.924 72.2861C122.296 69.7141 111.62 70.8101 101.183 70.2241C95.9749 69.9311 64.8569 69.9671 59.7989 71.2441C58.2679 71.6311 58.5759 72.9541 58.3039 75.1581C57.8269 79.0241 55.4639 155.329 59.3469 156.324C65.3069 157.851 119.443 157.292 121.56 156.029C124.561 154.238 124.107 77.1331 122.924 72.2861Z" fill="#4C2FB3"/>
<path d="M102.707 116.767C103.017 125.751 95.7446 135.961 83.0196 136.25C73.4066 136.468 63.0836 128.319 63.7526 115.437C64.2476 105.905 72.8646 97.4053 83.5506 97.5023C94.7526 97.6043 103.045 107.297 102.707 116.767ZM101.469 116.688C99.3406 90.8163 63.4166 95.1423 65.0806 118.196C65.8366 128.674 75.7726 136.032 85.7126 134.47C95.0706 132.999 101.273 125.52 101.469 116.688Z" fill="#4C2FB3"/>
<path d="M108.762 80.1711C113.613 80.0631 119.003 84.2341 118.513 90.3051C118.143 94.8891 113.923 98.5391 109.165 98.2271C104.771 97.9391 99.4411 93.8031 99.9701 88.2911C100.458 83.2081 104.907 79.9181 108.762 80.1711ZM116.308 88.3701C116.308 86.7111 115.959 87.5551 115.318 87.6031C114.609 87.6571 114.483 86.8701 114.961 86.5431C115.526 86.1561 115.937 86.2741 115.732 85.8611C114.944 84.2781 114.864 84.3001 114.583 84.6121C113.919 85.3501 112.889 84.8671 113.321 84.1401C113.61 83.6541 114.179 83.6241 113.824 83.2931C113.357 82.8571 112.832 82.5101 112.25 82.2461C111.88 82.0781 111.974 83.6521 111.039 83.3421C110.527 83.1721 110.599 82.4751 110.863 82.0191C110.982 81.8131 110.942 81.6601 110.742 81.6111C108.578 81.0821 109.15 81.3181 108.949 82.2061C108.819 82.7841 108.301 82.7121 108.082 82.3421C107.724 81.7351 108.101 81.2731 107.64 81.3591C106.157 81.6351 106.285 81.6031 106.391 82.0581C106.57 82.8251 106.619 83.5761 105.843 83.2561C105.157 82.9731 105.212 82.0561 104.79 82.3411C103.469 83.2291 103.546 83.2691 103.79 83.5371C104.505 84.3241 104.009 85.4001 102.868 84.3171C102.749 84.2041 102.651 84.2111 102.562 84.3361C100.938 86.6281 101.849 86.0661 102.407 86.7281C102.604 86.9621 102.556 87.4181 102.127 87.4161C101.171 87.4121 101.102 87.0741 101.124 89.2551C101.127 89.5081 101.232 89.5911 101.515 89.6371C101.963 89.7111 102.51 90.1181 102.101 90.4041C101.56 90.7831 101.022 90.4041 102.099 92.3581C102.36 92.8321 102.551 92.3341 103.178 92.2031C103.942 92.0431 104.057 92.4871 103.656 92.9781C103.252 93.4731 102.927 93.5581 103.108 93.7211C104.417 94.9041 104.418 95.0141 104.61 94.6581C104.718 94.4561 105.011 93.5241 105.759 93.9381C106.231 94.1991 105.89 94.7661 105.68 95.2651C105.537 95.6051 105.669 95.6131 106.655 95.9151C107.231 96.0911 106.933 95.7531 107.167 95.0631C107.286 94.7121 107.907 94.5421 108.144 95.1711C108.37 95.7701 107.842 96.1871 108.371 96.2051C109.781 96.2551 109.727 96.1431 109.58 95.7361C109.013 94.1641 110.497 93.7271 110.663 95.7061C110.69 96.0331 110.901 95.9081 111.842 95.5301C112.654 95.2031 111.575 95.1011 111.621 94.3321C111.656 93.7521 112.409 93.7521 112.643 94.1221C112.897 94.5241 112.955 94.9991 113.208 94.7781C114.584 93.5761 114.688 93.5401 114.3 93.3211C113.418 92.8241 113.659 91.9361 114.389 91.9741C115.22 92.0181 115.239 92.8711 115.693 91.6941C116.157 90.4921 116.228 90.4911 115.82 90.3711C114.251 89.9071 114.962 88.8821 115.712 89.0051C116.177 89.0811 116.308 89.4151 116.308 88.3701Z" fill="#4C2FB3"/>
<path d="M91.8206 105.658C98.1906 110.722 99.2816 120.443 92.2496 127.206C85.1216 134.062 71.1046 130.666 68.8516 119.345C66.3486 106.769 81.3296 97.3193 91.8206 105.658ZM84.1126 112.147C84.0956 112.689 83.9856 112.68 84.3206 112.833C85.4656 113.355 86.5206 114.585 86.6636 116.006C86.8666 118.026 86.0326 118.123 86.5316 118.538C93.4116 124.251 92.6066 124.481 93.1476 123.759C98.5916 116.5 94.3326 105.61 84.5756 104.288C83.9316 104.201 84.3786 103.806 84.1126 112.147ZM70.1916 116.858C70.3426 118.642 71.0116 122.04 71.5046 121.849C71.7696 121.747 73.5126 120.357 77.0656 118.531C78.6436 117.72 78.5976 117.794 78.5696 117.486C78.3946 115.545 78.8126 113.921 80.7846 112.97C81.5456 112.603 80.8916 106.11 81.2416 104.523C81.4736 103.472 70.3036 106.05 70.1926 116.857L70.1916 116.858ZM90.2436 126.605C90.6046 126.324 90.6146 126.814 87.1006 122.625C84.8786 119.977 84.9636 119.902 84.6816 120.097C84.0506 120.534 82.9106 120.815 81.5786 120.558C80.2236 120.297 80.1316 119.551 79.6906 119.908C73.2866 125.091 72.9876 124.49 73.5646 125.116C77.8816 129.796 85.5836 130.229 90.2446 126.605H90.2436ZM79.9676 116.465C79.7106 119.87 85.3506 120.154 85.3536 116.505C85.3566 112.888 79.6236 113.168 79.9676 116.465Z" fill="#4C2FB3"/>
<path d="M104.395 88.8191C104.225 85.5121 108.513 82.9301 111.43 85.7631C113.772 88.0381 112.403 92.2031 109.172 92.6851C105.941 93.1671 104.151 90.5231 104.395 88.8191ZM107.352 85.7601C103.444 87.0601 105.785 92.9861 109.569 91.5861C113.428 90.1591 111.493 84.3821 107.352 85.7601Z" fill="#4C2FB3"/>
<path d="M82.6286 117.784C80.8526 117.79 80.8446 115.208 82.5926 115.237C84.3956 115.267 84.2006 117.779 82.6286 117.784Z" fill="#4C2FB3"/>
</svg>
