<svg width="154" height="154" viewBox="0 0 154 154" fill="none" xmlns="http://www.w3.org/2000/svg">
<path d="M54.2482 115.056C55.526 114.604 56.8351 114.245 58.1652 113.983L58.3261 114.573C58.3441 114.643 58.3866 114.704 58.4457 114.744C58.5048 114.785 58.5767 114.803 58.6481 114.796L63.9141 114.182C65.3629 110.879 68.0227 105.873 68.0611 105.797C68.0227 104.547 68.0611 103.497 68.0611 102.301C65.0486 103.42 59.4759 105.544 56.5631 106.9C56.4972 106.943 56.4463 107.005 56.4175 107.078C56.3886 107.15 56.3832 107.231 56.4021 107.307C56.4021 107.307 56.4558 107.498 56.5248 107.774C55.099 107.774 50.8295 107.567 49.8023 108.541C49.6426 108.763 49.5641 109.034 49.58 109.307C49.5187 110.365 50.0476 118.582 50.8908 120.997C51.3277 122.262 52.2475 122.124 52.8761 120.913C53.6036 119.089 54.0706 117.171 54.2635 115.217C54.2635 115.118 54.2405 115.125 54.2482 115.056ZM53.3667 108.196C54.3018 108.119 54.5931 108.134 56.6014 108.073C56.9617 109.438 57.7052 112.243 58.0885 113.676C56.7361 113.886 55.4012 114.196 54.0949 114.604C53.6878 112.49 53.4444 110.347 53.3667 108.196Z" fill="white"/>
<path d="M124.801 41.1089C124.993 40.8406 124.747 40.4957 124.54 40.2274C125.127 39.6244 125.777 39.0872 126.48 38.6254C127.666 38.0343 128.75 37.258 129.692 36.3258C130.083 35.9195 130.819 35.084 130.543 34.5934C130.267 34.1028 129.776 34.0722 129.109 34.3558C129.398 34.0524 129.634 33.7026 129.807 33.321C130.021 32.7231 129.515 32.2402 128.419 32.6847C128.818 32.0485 128.91 31.3816 128.235 31.0597C127.691 30.7991 126.894 31.42 126.434 31.8262C125.531 32.6153 124.683 33.4656 123.897 34.3711C123.414 33.3593 122.647 32.1942 121.689 32.5621C120.731 32.93 121.474 34.5781 121.965 35.4749L120.225 36.6784C119.962 36.5364 119.665 36.4701 119.366 36.4867C117.389 36.824 108.305 43.7381 107.385 43.7381C106.68 43.7381 96.6074 38.909 87.8994 37.5139C87.8826 37.4617 87.8514 37.4152 87.8093 37.38C87.7673 37.3447 87.7161 37.3221 87.6618 37.3146C86.1429 37.0554 84.603 36.9399 83.0625 36.9696C83.0158 36.9728 82.9703 36.9861 82.9293 37.0086C82.8882 37.0311 82.8526 37.0623 82.8248 37.1H82.1809C82.0276 36.4791 81.4604 35.0457 81.2611 34.4938C81.7823 34.0415 82.5029 33.8115 82.8785 33.0833C83.5684 31.7342 83.5377 29.3887 83.3461 27.8863C84.2123 27.227 84.2353 26.1692 84.036 25.0884C83.9593 24.6515 83.7217 23.6627 83.3538 23.4174C83.1468 23.2794 82.7099 23.4174 82.3343 23.5554C81.9586 22.6815 81.9586 23.0801 82.112 22.7275C82.1831 22.565 82.2247 22.3911 82.2346 22.2139C82.6409 22.3366 83.4841 21.5241 83.1928 20.4509C83.0402 20.0667 82.8529 19.6973 82.6332 19.3471C82.7405 19.0865 82.9705 18.7722 82.2499 17.814C81.9396 17.4793 81.5367 17.2445 81.0924 17.1395H80.7398C80.4856 16.7702 80.1121 16.4996 79.682 16.373C79.0327 16.2074 78.3444 16.3038 77.7656 16.6413C77.6123 16.7562 77.4897 16.9095 77.3363 17.0169C76.9897 16.8064 76.592 16.6951 76.1865 16.6951C75.781 16.6951 75.3833 16.8064 75.0367 17.0169C74.8338 17.0965 74.6491 17.2163 74.4936 17.3691C74.3382 17.5219 74.2152 17.7045 74.1322 17.906C73.7566 17.7764 73.3581 17.7266 72.9622 17.7595C72.5662 17.7925 72.1815 17.9077 71.8325 18.0977C70.5083 18.8157 69.5178 20.0236 69.0729 21.4627C69.0606 21.6797 69.0606 21.8973 69.0729 22.1143H68.9886C67.8388 21.9456 66.3747 24.6745 67.5475 26.7978C67.6855 27.0507 67.8618 27.2884 68.0304 27.5643C68.521 28.3308 68.3294 28.5608 69.4256 29.496C69.7475 29.7719 69.8012 29.7489 70.0005 29.9176C70.1998 30.0862 70.1231 30.0019 70.2381 30.4311C70.3008 30.684 70.413 30.9219 70.5683 31.1311C70.7235 31.3403 70.9188 31.5167 71.1426 31.6499C71.2241 32.3997 71.5438 33.1036 72.0548 33.6582C72.2167 33.8393 72.4054 33.9944 72.6144 34.1182C72.6708 34.1499 72.7337 34.1683 72.7984 34.1718C73.0283 35.5976 73.312 37.4526 73.4346 38.2421L72.7524 38.61C71.8598 38.9692 70.9917 39.3866 70.1538 39.8595C70.0881 39.905 70.0416 39.9733 70.0235 40.0511C69.2109 40.4804 68.4444 40.8866 68.0074 41.1472C61.921 44.7576 44.6353 68.5584 44.459 69.6468C44.4396 69.7092 44.4396 69.7761 44.459 69.8385C44.7068 70.2338 45.0087 70.5924 45.3559 70.904C45.2489 71.0991 45.1203 71.2817 44.9726 71.4482C43.4395 72.4523 41.1399 73.9471 39.9057 75.2808C39.8192 75.358 39.7542 75.4564 39.7173 75.5663C39.6804 75.6763 39.6728 75.7939 39.6952 75.9077C39.7177 76.0215 39.7694 76.1274 39.8453 76.2151C39.9212 76.3028 40.0186 76.3691 40.128 76.4076C40.358 76.4843 40.3963 76.4613 41.8911 75.6411C41.4803 76.0014 41.1443 76.439 40.9022 76.9289C40.8026 77.3505 41.1859 77.5958 41.6688 77.5191C41.9405 77.4479 42.1992 77.334 42.4353 77.1818C42.2971 77.3953 42.2235 77.6442 42.2235 77.8985C42.2235 78.1529 42.2971 78.4018 42.4353 78.6153C43.2019 79.5811 45.2102 76.538 46.2681 75.7868C46.6973 76.331 47.2799 77.6034 48.2074 77.2662C49.0123 76.9672 48.1308 75.1965 48.2074 74.683C48.5194 74.3835 48.8524 74.1068 49.204 73.8551C49.7953 74.2936 50.4714 74.6043 51.1893 74.7673C52.4541 74.7673 65.6541 61.445 66.6583 60.3795C66.298 63.7676 64.4813 78.3086 64.8646 81.1371C65.0409 82.4172 68.1148 82.6012 69.4102 82.6702C69.0193 91.8686 68.7587 105.804 68.6897 105.95C66.6583 110.327 66.1064 111.522 65.4242 112.849C64.1824 115.225 58.9545 123.994 58.3642 125.987C58.2799 126.301 58.2722 126.424 58.6019 127.006C57.6141 128.045 56.6972 129.149 55.8576 130.31C55.436 131.077 57.2451 138.221 58.5252 140.75C58.8165 141.317 59.2918 142.191 59.928 142.168C61.8444 142.099 61.8367 135.216 61.783 133.292C61.7827 133.233 61.761 133.175 61.7217 133.131C62.0691 132.612 62.448 132.116 62.8562 131.644C63.0999 131.812 63.3562 131.96 63.6228 132.088C63.8834 132.203 64.1747 132.004 64.3893 131.828C66.9419 129.82 80.7092 112.665 83.6604 104.57C85.0018 100.875 86.7879 95.7702 87.2938 92.1522C87.6031 89.8646 87.6314 87.5478 87.3782 85.2534C87.3782 85.2209 87.3911 85.1897 87.4141 85.1667C87.4371 85.1437 87.4683 85.1308 87.5008 85.1308C87.5333 85.1308 87.5645 85.1437 87.5875 85.1667C87.6105 85.1897 87.6234 85.2209 87.6234 85.2534C88.0073 87.5609 88.0821 89.9093 87.8457 92.2365C87.2785 97.2573 83.3154 107.72 81.1998 111.568C83.0241 111.231 86.7342 110.495 88.528 109.959C94.5071 108.142 100.026 102.723 100.509 96.6364C100.665 93.7691 100.665 90.8955 100.509 88.0282C100.457 84.07 99.9429 80.1314 98.976 76.2927C100.601 75.4112 102.088 74.3763 102.571 73.4258C103.606 71.3945 100.869 59.7049 100.272 56.4242C103.545 56.7845 109.118 57.436 111.716 55.4047C114.69 53.0131 121.114 46.283 124.801 41.1089ZM61.3691 132.87C59.9893 132.035 58.0576 130.049 57.7663 128.493C58.0806 128.095 58.4102 127.727 58.7168 127.313C59.7557 128.898 61.0509 130.3 62.5496 131.46C62.1286 131.906 61.7344 132.377 61.3691 132.87ZM122.31 35.6895C122.349 35.6642 122.378 35.6247 122.389 35.5791C122.401 35.5335 122.394 35.4852 122.371 35.4443C122.103 34.946 121.298 33.1907 121.858 32.9914C122.18 32.8687 122.463 33.068 122.701 33.3363C123.064 33.7966 123.346 34.3149 123.536 34.8694C123.551 34.9144 123.577 34.9548 123.612 34.9861C123.647 35.0175 123.691 35.0386 123.737 35.0473C123.784 35.0559 123.832 35.0518 123.876 35.0353C123.92 35.0188 123.959 34.9906 123.989 34.9537C124.755 34.1028 126.549 32.1635 127.561 31.6423C128.327 31.2437 128.511 31.9795 126.633 33.6966C126.202 34.0255 125.787 34.376 125.391 34.7467C125.37 34.7768 125.358 34.813 125.358 34.8502C125.358 34.8874 125.37 34.9236 125.391 34.9537C125.391 35.153 125.552 35.3753 125.828 35.1683C126.495 34.5834 127.199 34.0431 127.936 33.5509C128.313 33.2835 128.75 33.1148 129.209 33.0603C128.979 33.7655 126.84 35.6819 126.656 35.8965C126.598 35.9488 126.562 36.0219 126.557 36.1001C126.552 36.1783 126.578 36.2553 126.63 36.3146C126.681 36.3739 126.753 36.4106 126.831 36.417C126.909 36.4234 126.987 36.3989 127.047 36.3488C127.898 35.7969 129.385 34.5091 129.899 34.7007C130.412 34.8923 128.887 36.3181 128.504 36.6554C126.304 38.564 126.871 37.3376 124.326 39.9285C123.218 38.715 121.946 37.6623 120.547 36.801L122.31 35.6895ZM89.0032 72.3527C88.8729 71.2949 88.712 70.1528 88.5126 68.9646L88.8423 68.5277C90.3754 66.5577 90.8353 63.4226 90.6896 60.9621C91.5099 64.5571 92.1614 68.0908 92.6597 71.6015L89.0032 72.3527ZM77.6046 46.1067C75.5886 44.5736 72.3461 41.9291 70.4604 40.1201L73.5266 38.587C76.3421 41.2169 78.7523 44.2495 80.6785 47.5861C83.6237 52.9965 85.8085 58.7873 87.1712 64.7947L76.2402 49.3338L77.666 46.375C77.6848 46.3294 77.6891 46.2791 77.6781 46.2311C77.6671 46.183 77.6414 46.1395 77.6046 46.1067ZM82.7865 37.4142C82.8325 37.4986 83.3614 38.6254 84.1663 40.5953C84.1663 40.6797 84.0207 42.596 83.9517 43.2705C82.9733 42.8827 82.0506 42.3672 81.2074 41.7375C81.3761 41.0706 82.135 38.0428 82.1886 37.3606L82.7865 37.4142ZM80.0653 45.6468C80.1189 45.5088 80.1726 45.3248 80.2339 45.1102L80.7475 45.3785C81.0388 45.5701 80.9238 44.9876 81.1844 46.6739C81.1844 46.9575 81.2611 47.2718 81.2764 47.6168C80.9238 46.9805 80.4869 46.2983 80.0729 45.6468H80.0653ZM79.636 45.0029C78.1878 42.9489 76.5393 41.0436 74.7147 39.3152L80.4869 41.8218C80.2646 42.3507 79.9426 43.9681 79.6437 45.0029H79.636ZM85.5308 49.4948C84.7642 47.4021 84.174 45.0642 83.8827 44.451C83.9 44.2597 83.9 44.0673 83.8827 43.8761C83.9936 43.9174 84.1097 43.9432 84.2276 43.9527C84.3016 43.9536 84.3733 43.9277 84.4297 43.8798C84.486 43.8319 84.5232 43.7652 84.5343 43.6921C84.5956 43.4392 84.6952 42.1591 84.7106 41.8754C86.9405 47.5052 88.802 53.2741 90.2834 59.1454C85.9524 49.9317 86.6193 52.5992 85.5384 49.4948H85.5308ZM91.8701 64.1278C90.1224 55.7496 87.0485 45.3018 83.5531 37.5599C84.8367 37.5606 86.1184 37.6631 87.3858 37.8665C88.0374 43.6921 87.4931 43.4928 87.9301 43.7228C88.367 43.9527 90.9963 45.0106 91.3872 45.1715C91.3489 45.7618 91.9008 62.6408 91.8778 64.1278H91.8701ZM83.0471 23.908C83.4467 24.78 83.5877 25.7484 83.4534 26.6981C83.391 26.9399 83.2627 27.1595 83.0829 27.3327C82.9031 27.5059 82.6787 27.6257 82.4348 27.679C82.1909 27.7322 81.937 27.7167 81.7013 27.6342C81.4657 27.5517 81.2576 27.4055 81.1001 27.2117C80.7343 26.4412 80.4591 25.631 80.2799 24.7971C80.4869 24.5289 82.6945 23.9923 83.0471 23.908ZM72.4994 31.5733C72.2194 31.4458 71.9328 31.3332 71.6409 31.236C71.4449 31.1555 71.2701 31.0311 71.1296 30.8725C70.9892 30.714 70.8869 30.5253 70.8307 30.3211C70.7744 30.1168 70.7657 29.9024 70.8052 29.6943C70.8446 29.4862 70.9312 29.2899 71.0583 29.1204C71.5412 28.7141 71.9782 28.7371 72.3768 29.3427C72.6297 29.8102 72.6221 29.8486 72.737 29.8946C72.77 29.9091 72.8057 29.9164 72.8418 29.916C72.8778 29.9156 72.9134 29.9076 72.946 29.8923C72.9787 29.8771 73.0077 29.855 73.0312 29.8277C73.0546 29.8003 73.0719 29.7682 73.082 29.7336C73.1956 29.2538 73.2138 28.7564 73.1357 28.2695C73.0437 27.7406 73.0283 25.395 73.0437 25.3184C73.2676 25.4364 73.5191 25.492 73.7719 25.4794C75.1593 25.4257 75.4353 24.7128 75.9872 24.1303C76.6235 24.1916 76.7538 24.4982 77.4743 24.1303C77.8117 23.9383 78.1212 23.7011 78.3942 23.425C78.6145 23.5152 78.8273 23.6229 79.0304 23.747C79.4898 23.9679 80.008 24.0358 80.5088 23.9406C81.0096 23.8454 81.4667 23.5922 81.813 23.2181C81.8973 23.3791 81.974 23.54 82.043 23.7087C81.3386 23.9272 80.6754 24.2614 80.0806 24.6975C79.9503 24.8585 80.1419 25.7323 80.1879 25.9393C79.5458 26.0201 78.9244 26.2202 78.3559 26.5295C78.2409 26.1309 77.9879 25.3874 77.5893 25.1804C77.4694 25.1437 77.3413 25.1437 77.2214 25.1804C76.5315 25.2877 74.0555 26.0313 73.7566 26.4375C73.4959 26.7211 74.2395 28.9134 74.4695 29.2737C75.351 30.6381 77.9343 30.2395 78.4172 28.6451C78.5368 28.11 78.5368 27.5552 78.4172 27.0201C78.6395 27.0201 79.3064 26.7825 79.383 26.7595C79.912 27.9476 80.0653 28.0166 80.6785 29.2967C80.5942 29.3657 80.4562 29.4806 80.3412 29.5573C79.797 29.9176 79.682 29.8562 79.7127 30.0095C79.7216 30.04 79.7413 30.0661 79.7681 30.083C79.7949 30.1 79.827 30.1065 79.8583 30.1015C80.18 30.0556 80.4944 29.968 80.7935 29.8409C80.9725 29.7741 81.1201 29.6429 81.2074 29.473C81.4221 28.9901 80.2339 27.1734 79.7663 26.6291C79.8583 26.6291 80.0729 26.4758 80.2339 26.3915C80.4485 27.25 80.5942 27.9246 81.4221 28.2619C81.6613 28.3522 81.9163 28.3933 82.1719 28.3828C82.4274 28.3722 82.6782 28.3103 82.9092 28.2005C83.0318 29.5496 83.0088 31.7419 82.3649 32.9377C82.0353 33.5586 81.2228 33.7962 80.7015 34.3098C80.5482 34.4554 80.6478 34.6624 80.7015 34.8847C81.5524 37.2533 81.5677 37.2456 81.5217 37.5522C81.2961 38.8248 80.981 40.0799 80.5789 41.3082C80.3872 41.2239 78.2332 40.0818 74.0172 38.4414C73.8869 37.5752 73.1893 32.953 72.967 32.1022C72.9823 31.8032 72.944 31.7342 72.4994 31.5349V31.5733ZM77.8653 28.4458C77.62 29.2813 76.4625 29.6416 75.6346 29.4117C74.8067 29.1817 74.7531 28.7601 74.3621 27.7636C74.1789 27.3829 74.0524 26.9775 73.9865 26.5602C74.2395 26.2842 77.0067 25.717 77.3517 25.6633C77.8355 26.491 78.017 27.4609 77.8653 28.4075V28.4458ZM47.8702 74.4683C47.5789 74.7519 47.9698 75.6794 48.0311 76.4843C48.0311 76.5533 48.0311 76.8522 47.9851 76.8752C47.5635 77.0132 47.1726 76.377 46.935 75.9937C46.6973 75.6105 46.4597 75.0892 46.0841 75.2272C45.3176 75.5875 43.5392 77.9484 42.8416 78.1937C42.489 77.5191 44.505 75.5951 44.574 75.4878C44.6036 75.4385 44.6191 75.3821 44.6188 75.3246C44.6185 75.2671 44.6025 75.2109 44.5725 75.1619C44.5425 75.1129 44.4996 75.073 44.4485 75.0467C44.3974 75.0204 44.34 75.0086 44.2827 75.0126C44.1447 75.0126 44.0527 75.1352 43.8381 75.3268C43.1853 75.964 42.438 76.4966 41.6228 76.9059C42.362 76.0579 43.153 75.2566 43.9914 74.5066C44.0328 74.4641 44.062 74.4111 44.0757 74.3533C44.0757 74.3533 43.9148 73.9471 43.6005 74.1081C43.1559 74.3533 40.9942 75.6028 40.312 75.9247C40.22 75.8634 40.2737 75.7714 40.312 75.6794C41.3928 74.3533 43.7691 72.7436 45.2256 71.7241C45.3965 71.5481 45.5388 71.3464 45.6472 71.1262C46.6559 72.0647 47.7319 72.9281 48.8667 73.7095C48.5171 73.9387 48.1841 74.1923 47.8702 74.4683ZM65.7078 81.4361C65.5391 81.3288 65.4165 81.2291 65.3935 81.0911C64.9719 77.9637 67.3175 60.2415 67.2792 59.544C67.2792 59.5031 67.271 59.4625 67.2552 59.4248C67.2393 59.3871 67.216 59.353 67.1867 59.3244C67.1574 59.2958 67.1227 59.2734 67.0846 59.2585C67.0465 59.2435 67.0058 59.2363 66.9649 59.2374C66.574 59.2374 67.2639 59.2374 57.498 68.589C56.8541 69.1946 51.9329 73.9011 51.1127 74.2154C49.9858 74.131 45.7468 70.7507 45.0569 69.6852C46.3907 66.987 62.5649 44.7883 68.1607 41.3925C68.59 41.1319 69.3259 40.7256 70.1308 40.2964C70.4091 40.5589 70.7091 40.7973 71.0276 41.0093C72.806 42.6956 75.282 44.7959 77.16 46.375L75.6959 49.2801C75.6737 49.3186 75.662 49.3622 75.662 49.4066C75.662 49.451 75.6737 49.4946 75.6959 49.5331C87.5851 66.5884 87.4088 66.3968 87.4855 66.3968C88.2476 70.3379 88.7216 74.3293 88.9036 78.3393C88.9036 79.4201 88.9036 79.3281 88.9496 79.2515C88.9956 79.1748 88.9496 79.3051 88.9496 79.3051C87.0945 81.3288 68.7357 83.2144 65.7078 81.4361ZM108.083 56.0409C104.61 56.5238 100.685 55.8033 99.9266 55.7726C99.5049 53.7292 98.6644 51.7952 97.4583 50.0926C97.4399 50.0678 97.4128 50.0509 97.3824 50.0452C97.352 50.0395 97.3206 50.0455 97.2945 50.062C97.2683 50.0784 97.2493 50.1042 97.2413 50.134C97.2333 50.1639 97.2369 50.1956 97.2513 50.223C97.6959 51.1275 99.183 55.0291 99.551 55.9796C99.436 56.3475 103.016 71.1492 102.004 73.1422C101.099 74.9436 95.8332 77.2125 93.9322 77.8641C93.5563 73.5967 92.9421 69.3537 92.0924 65.155C92.3531 62.9474 92.0158 49.8244 91.9161 44.9722C91.9132 44.9158 91.8944 44.8614 91.8618 44.8153C91.8293 44.7692 91.7843 44.7332 91.7322 44.7116L88.2903 43.2629C88.2747 41.4413 88.1596 39.6219 87.9454 37.8128C96.5384 39.2999 106.55 44.2134 107.385 44.221C108.596 44.221 117.596 37.3223 119.458 37.0463C120.286 36.916 123.843 40.0204 124.257 40.879C120.623 45.9534 114.238 52.6222 111.279 54.9295C110.326 55.5668 109.226 55.9494 108.083 56.0409Z" fill="white"/>
<path d="M77.076 26.9128C77.0665 26.8624 77.0471 26.8145 77.019 26.7716C76.9909 26.7288 76.9546 26.6919 76.9123 26.6631C76.8699 26.6343 76.8223 26.6141 76.7722 26.6036C76.722 26.5932 76.6703 26.5928 76.6199 26.6023C76.5696 26.6119 76.5217 26.6313 76.4788 26.6594C76.436 26.6875 76.3991 26.7237 76.3703 26.7661C76.3414 26.8084 76.3212 26.856 76.3108 26.9062C76.3004 26.9564 76.2999 27.0081 76.3095 27.0584C76.4628 27.8249 76.4935 28.0012 76.8307 28.0012C76.8945 28.0015 76.9573 27.9858 77.0135 27.9556C77.0696 27.9254 77.1174 27.8817 77.1524 27.8285C77.1874 27.7752 77.2086 27.714 77.214 27.6505C77.2194 27.587 77.2089 27.5231 77.1834 27.4647C77.1604 27.342 77.0914 26.9818 77.076 26.9128ZM79.4217 31.9872C79.9199 32.1329 80.3952 31.8952 80.3799 31.7726C80.3645 31.6499 80.3799 31.7113 79.7053 31.4583C79.253 31.2897 78.7548 30.6918 78.5785 30.7838C78.4022 30.8757 78.6705 31.3663 78.7318 31.4583C78.8958 31.7071 79.1388 31.8934 79.4217 31.9872ZM93.4419 24.7052C92.4377 28.9134 91.7018 32.4855 91.5792 33.1983C91.4977 33.5085 91.4821 33.8323 91.5332 34.1488C91.9394 35.015 97.1903 36.7244 97.8572 36.3871C98.5241 36.0498 100.257 32.1482 102.273 28.1239C103.508 28.1634 104.743 28.0734 105.96 27.8556C107.24 27.6207 108.487 27.2267 109.67 26.6828C112.261 25.487 115.097 20.3666 115.48 17.7911C115.768 14.9948 115.175 12.1785 113.786 9.73483C107.355 -1.41819 88.49 4.58374 90.0231 16.9709C90.4609 19.8053 91.6403 22.4736 93.4419 24.7052ZM98.1178 33.8345C98.1178 33.9572 97.9799 33.9419 97.3513 33.8345C96.0656 33.673 94.8208 33.2754 93.6795 32.6618C93.1429 32.3705 92.9973 32.3092 93.0509 32.1788C93.1046 32.0485 93.2196 32.0945 94.0475 32.3245C94.1241 32.3245 96.5004 33.091 97.1826 33.3286C98.0642 33.7272 98.1178 33.7272 98.1178 33.8345ZM97.9799 21.3631C98.7984 21.4055 99.6141 21.2366 100.349 20.8725C101.031 21.2032 101.769 21.4034 102.526 21.4627C101.238 23.862 98.6238 28.7525 97.7806 31.3587L94.5304 30.4618C95.2969 28.5762 96.991 24.1609 97.9645 21.3631H97.9799ZM97.7116 20.7269C97.1394 20.6404 96.6113 20.3687 96.2084 19.9533C95.8054 19.5379 95.5499 19.0018 95.4809 18.4273C95.2663 16.8942 96.2475 15.1772 97.7269 15.5835C98.6544 15.8364 98.7694 16.5723 98.6084 17.4998C98.4705 18.1743 97.9722 19.8684 97.6962 20.6962L97.7116 20.7269ZM99.7966 18.8872C99.8784 18.3856 100.067 17.9073 100.349 17.4845C100.483 17.2539 100.679 17.0656 100.914 16.941C101.15 16.8163 101.416 16.7603 101.682 16.7792C102.25 16.9479 102.495 18.021 102.027 18.6956C101.578 19.2919 101.018 19.7967 100.379 20.1826C100.159 20.0535 99.984 19.8602 99.8771 19.6287C99.7702 19.3971 99.7368 19.1383 99.7813 18.8872H99.7966ZM92.752 9.1446C96.1861 5.013 102.648 3.37262 107.316 5.07432C109.852 5.94482 111.986 7.7074 113.319 10.0338C114.64 12.3591 115.205 15.038 114.936 17.6991C114.583 20.083 111.87 25.0348 109.486 26.1309C107.306 27.1251 104.928 27.6076 102.533 27.5413C102.273 27.5413 101.997 27.5413 101.897 27.7253C101.445 28.6451 100.617 30.4235 99.8042 32.0945C99.2432 31.8236 98.6613 31.598 98.0642 31.42C98.9534 28.8751 101.759 23.8773 103.093 21.4551C104.248 21.5541 105.41 21.3534 106.466 20.8725C106.751 20.7224 106.987 20.4941 107.147 20.2143C107.307 19.9346 107.384 19.615 107.369 19.2931C107.353 18.9712 107.247 18.6604 107.061 18.397C106.875 18.1337 106.618 17.9288 106.32 17.8064C105.132 17.2238 104.066 18.6189 103.445 19.7917C103.277 20.0983 103.085 20.4586 102.87 20.8648C102.25 20.8241 101.639 20.6977 101.054 20.4893C101.637 20.0796 102.154 19.5833 102.587 19.0175C102.83 18.651 102.953 18.2182 102.939 17.7789C102.925 17.3395 102.775 16.9152 102.51 16.5646C102.302 16.3228 102.013 16.1652 101.697 16.1215C101.38 16.0777 101.059 16.1508 100.793 16.327C100.256 16.6568 99.8261 17.1346 99.5541 17.703C99.2822 18.2713 99.18 18.9061 99.26 19.5311C99.3433 19.8839 99.5334 20.2024 99.8042 20.4433C99.3014 20.6515 98.7617 20.7558 98.2175 20.7499C98.5241 19.8454 99.0224 18.2127 99.1527 17.5458C99.2344 17.1656 99.2525 16.7744 99.2063 16.3883C99.147 16.0568 98.9932 15.7495 98.7634 15.5034C98.5336 15.2573 98.2375 15.0828 97.9109 15.0009C96.0482 14.472 94.676 16.534 94.9443 18.4579C95.0201 19.1474 95.316 19.7941 95.7882 20.3022C96.2604 20.8103 96.8838 21.1528 97.5659 21.2788C96.5847 24.0383 95.0516 28.4918 94.2851 30.3928L92.5987 29.9559C93.6795 24.5289 93.8098 24.6592 93.6565 24.5902C91.9148 22.3696 90.8004 19.7226 90.4293 16.9249C90.2487 15.5377 90.3621 14.1279 90.7623 12.7875C91.1625 11.447 91.8404 10.2058 92.752 9.1446ZM103.392 20.9108C103.928 19.9373 105.001 17.8064 106.044 18.3276C106.252 18.4116 106.434 18.551 106.569 18.7307C106.704 18.9103 106.788 19.1235 106.811 19.3471C106.795 20.6962 104.695 20.9338 103.361 20.9108H103.392ZM132.735 24.2912C133.659 23.748 134.75 23.5625 135.801 23.77C136.956 23.7907 138.06 24.2524 138.885 25.0606C139.71 25.8687 140.195 26.962 140.24 28.1162C139.545 27.7133 138.733 27.5617 137.94 27.687C136.016 27.8556 133.502 28.8981 133.839 30.7531C134.115 32.2862 136.139 32.0792 137.672 31.6653C139.205 31.2513 140.424 30.5001 140.738 29.0207C142.601 30.3775 143.038 32.7537 143.114 35.0763C143.114 35.1089 143.127 35.1401 143.15 35.1631C143.173 35.1861 143.204 35.199 143.237 35.199C143.269 35.199 143.301 35.1861 143.324 35.1631C143.347 35.1401 143.36 35.1089 143.36 35.0763C143.413 32.4778 142.946 29.9329 140.822 28.4535C140.844 27.788 140.731 27.125 140.489 26.5046C140.247 25.8842 139.882 25.3193 139.415 24.8442C138.949 24.369 138.391 23.9935 137.775 23.7404C137.159 23.4872 136.498 23.3617 135.832 23.3714C134.768 23.216 133.683 23.4384 132.766 24C132.482 24.1379 132.613 24.3449 132.735 24.2912ZM139.726 29.7873C138.86 30.9217 136.407 31.512 135.273 31.3203C134.851 31.2513 134.506 31.075 134.414 30.6381C134.138 29.1051 136.783 28.2695 138.362 28.2159C139.005 28.1666 139.646 28.331 140.186 28.6835C140.128 29.0842 139.97 29.4639 139.726 29.7873ZM129.224 15.3305C130.045 14.3187 129.493 12.5557 127.201 12.548C126.312 12.548 125.882 13.4525 125.944 14.3187C126.082 16.3806 128.404 16.3193 129.224 15.3305ZM126.48 14.2804C126.48 13.7744 126.718 13.1152 127.247 13.1229C128.481 13.1229 129.048 13.6978 129.048 14.334C129.017 15.7828 126.381 16.534 126.48 14.2804ZM126.166 101.182C119.428 98.4914 116.3 111.515 110.797 122.706C110.762 123.177 110.777 123.649 110.843 124.117C110.843 125.289 110.973 133.054 111.655 133.936C111.839 134.288 112.613 133.936 112.974 133.713C116.033 131.819 118.917 129.654 121.59 127.244C121.612 127.218 121.63 127.187 121.64 127.155C121.651 127.122 121.654 127.087 121.651 127.052C123.077 125.021 128.42 114.443 129.715 109.139C130.62 105.383 129.723 102.585 126.166 101.182ZM128.573 110.917C124.966 110.455 121.478 109.316 118.293 107.559C120.087 104.164 122.302 100.293 125.959 101.749C130.029 103.367 129.945 106.716 128.573 110.894V110.917ZM115.817 130.847C115.582 130.649 115.325 130.48 115.051 130.341C114.015 129.814 112.818 129.699 111.701 130.019C111.624 129.107 111.188 123.174 111.188 123.12C116.929 125.22 115.158 124.308 120.846 127.137C120.248 127.704 118.002 129.275 115.817 130.831V130.847ZM119.773 108.663C120.52 109.072 121.288 109.443 122.073 109.775C120.316 112.535 118.763 115.419 117.427 118.406C116.139 121.096 116.185 121.081 114.875 124.017C114.108 123.772 113.342 123.542 112.575 123.312C113.403 121.664 119.29 109.614 119.773 108.648V108.663ZM115.174 124.094C117.665 119.625 120.202 114.067 122.379 109.874C123.146 110.196 123.912 110.457 124.679 110.687C124.273 111.453 123.084 113.492 122.77 114.083C122.456 114.673 119.305 120.882 119.083 121.357C118.73 122.124 117.765 124.262 117.466 124.944C116.684 124.599 115.932 124.339 115.143 124.078L115.174 124.094ZM117.742 125.044C118.209 124.193 120.133 120.621 120.371 120.161C120.731 119.448 124.748 111.239 124.97 110.764C125.675 110.963 126.419 111.131 126.894 111.223C125.491 115.056 121.452 122.438 119.995 126.079C118.669 125.458 118.37 125.305 117.711 125.029L117.742 125.044ZM118.209 107.782L119.581 108.548C116.816 113.257 114.407 118.166 112.376 123.235L111.226 122.882C115.679 113.393 115.886 112.151 118.178 107.766L118.209 107.782ZM121.367 126.746L120.21 126.194C121.459 123.741 125.369 117.448 127.155 111.277C127.584 111.354 128.006 111.423 128.412 111.476C126.442 116.732 124.077 121.832 121.337 126.73L121.367 126.746ZM97.3513 131.72C97.6568 131.468 97.8752 131.125 97.9756 130.741C98.076 130.358 98.0534 129.952 97.9109 129.582C97.8458 129.048 97.6009 128.552 97.2164 128.175C96.8319 127.799 96.3307 127.565 95.7953 127.511C95.2599 127.458 94.7223 127.588 94.2708 127.881C93.8194 128.174 93.4811 128.611 93.3116 129.122C92.3304 128.486 91.2649 127.811 90.2454 127.167C91.0119 126.148 93.2656 126.6 93.4955 127.436C93.5006 127.468 93.5184 127.497 93.545 127.517C93.5716 127.536 93.6048 127.544 93.6374 127.539C93.6699 127.534 93.6991 127.516 93.7185 127.49C93.7379 127.463 93.7459 127.43 93.7408 127.397C93.6259 126.063 90.8509 125.282 89.7318 126.853C88.7429 126.247 87.5165 125.512 86.4893 124.952C87.3708 124.185 89.3408 124.615 89.5555 125.412C89.5656 125.439 89.585 125.462 89.6103 125.476C89.6357 125.491 89.6653 125.495 89.6938 125.49C89.7224 125.484 89.748 125.469 89.7662 125.446C89.7844 125.423 89.7939 125.395 89.7931 125.366C89.6935 124.124 87.1255 123.289 85.9604 124.653C85.4722 124.38 84.9588 124.154 84.4273 123.979C84.3302 123.938 84.2235 123.927 84.1201 123.946C84.0167 123.965 83.921 124.014 83.8447 124.086C81.9053 126.5 75.3666 132.771 72.3464 133.499C72.2705 133.51 72.1989 133.542 72.1389 133.589C72.0789 133.637 72.0326 133.7 72.0046 133.772C71.9766 133.843 71.968 133.921 71.9795 133.997C71.9911 134.073 72.0225 134.144 72.0705 134.204C72.7337 134.877 73.4932 135.448 74.3241 135.898C73.5576 136.665 72.9597 137.354 72.5151 137.853C72.2851 138.098 72.1625 142.789 72.3618 143.824C72.3914 143.925 72.4568 144.012 72.5457 144.069C73.5116 144.729 85.9527 150.11 87.2252 149.389C88.076 148.906 98.2328 138.336 98.3938 138.014C98.6391 137.508 98.5548 134.135 98.5394 132.786C98.4781 132.38 97.7192 131.943 97.3513 131.72ZM72.8217 141.846V140.137C76.0029 141.67 83.2851 144.798 86.0447 145.671C86.7499 145.901 86.8112 145.871 87.1792 145.671C89.2872 144.322 96.7304 135.936 98.0948 134.656V136.274C93.9555 140.421 86.9262 147.687 86.7959 147.273C86.037 147.227 73.4809 142.153 72.8217 141.846ZM97.1597 129.137C97.4352 129.602 97.5833 130.13 97.5889 130.67C97.5863 130.842 97.5441 131.011 97.4657 131.164C97.3872 131.317 97.2746 131.449 97.1367 131.552C96.4928 131.123 95.2739 130.325 93.8328 129.39C94.6224 127.834 96.3778 127.811 97.129 129.137H97.1597ZM72.6301 134.043C75.8956 133.077 82.0969 127.098 84.182 124.507C84.6838 124.647 85.1675 124.845 85.6231 125.098C84.8565 126.523 85.6767 128.087 85.968 127.865C86.129 127.742 85.8377 127.696 85.7917 126.945C85.7721 126.396 85.8963 125.852 86.152 125.366C87.2098 125.918 88.4516 126.638 89.5018 127.244C88.8579 128.677 89.6321 130.095 89.9004 129.888C90.1687 129.682 89.7778 129.728 89.7318 128.976C89.7131 128.484 89.8075 127.993 90.0077 127.543C91.0886 128.179 92.1924 128.838 93.2043 129.459C93.0483 129.841 92.9864 130.255 93.0238 130.666C93.0611 131.077 93.1966 131.473 93.4189 131.82C93.429 131.833 93.4415 131.844 93.4558 131.852C93.4701 131.861 93.4859 131.866 93.5023 131.868C93.5187 131.87 93.5353 131.869 93.5512 131.865C93.5672 131.861 93.5821 131.853 93.5952 131.843C93.6083 131.833 93.6193 131.821 93.6275 131.806C93.6357 131.792 93.6411 131.776 93.6432 131.76C93.6453 131.743 93.6442 131.727 93.6399 131.711C93.6356 131.695 93.6283 131.68 93.6182 131.667C93.4804 131.362 93.4124 131.031 93.419 130.697C93.4257 130.363 93.5068 130.034 93.6565 129.735C95.4426 130.824 96.8837 131.736 97.3283 132.035C97.244 132.111 89.2489 139.225 86.5276 141.34C84.7415 140.873 75.3666 136.22 72.6301 134.043ZM72.9213 138.313C76.3938 139.846 84.2816 143.402 86.0983 143.747C86.4126 143.809 86.5353 143.832 87.1332 143.356C89.6858 141.31 97.9875 132.625 98.0642 132.717C98.0679 132.74 98.0679 132.763 98.0642 132.786V134.319C96.3548 135.691 86.8496 145.671 86.6962 145.196C85.9297 145.196 73.4733 140.114 72.837 139.83C72.8217 139.508 72.8907 138.65 72.9213 138.313ZM86.8802 148.875C86.1137 149.312 74.4391 144.568 72.8753 143.602C72.8166 143.113 72.7885 142.622 72.791 142.13C76.1485 143.786 85.9144 147.91 86.8112 147.871C88.122 147.802 97.3896 137.37 98.0489 136.642C98.0564 137.033 98.0179 137.424 97.9339 137.807C97.8036 138.06 87.3861 148.592 86.8802 148.875ZM23.3716 105.666C23.4252 106.486 23.4635 107.199 23.4635 107.866C23.4635 107.968 23.5039 108.065 23.5758 108.137C23.6477 108.209 23.7452 108.249 23.8468 108.249C23.9485 108.249 24.046 108.209 24.1178 108.137C24.1897 108.065 24.2301 107.968 24.2301 107.866C24.2301 107.153 24.1918 106.448 24.1381 105.612C24.131 105.511 24.0838 105.416 24.0069 105.349C23.93 105.282 23.8296 105.249 23.728 105.256C23.6263 105.263 23.5317 105.31 23.4648 105.387C23.398 105.464 23.3644 105.564 23.3716 105.666ZM140.171 90.2972C140.121 90.3001 140.072 90.313 140.027 90.3351C139.982 90.3572 139.942 90.3881 139.909 90.426C139.876 90.4638 139.851 90.5079 139.835 90.5555C139.82 90.6032 139.814 90.6535 139.818 90.7035C139.864 91.4087 139.91 92.1675 139.91 92.9034C139.91 93.005 139.951 93.1025 140.022 93.1744C140.094 93.2463 140.192 93.2867 140.293 93.2867C140.395 93.2867 140.493 93.2463 140.564 93.1744C140.636 93.1025 140.677 93.005 140.677 92.9034C140.677 92.1369 140.631 91.3703 140.577 90.6498C140.574 90.5997 140.561 90.5508 140.539 90.5058C140.517 90.4608 140.486 90.4207 140.448 90.3878C140.41 90.355 140.366 90.33 140.319 90.3145C140.271 90.2989 140.221 90.293 140.171 90.2972ZM21.3862 103.757C21.4878 103.757 21.5853 103.717 21.6572 103.645C21.7291 103.573 21.7695 103.476 21.7695 103.374C21.7695 103.273 21.7291 103.175 21.6572 103.103C21.5853 103.031 21.4878 102.991 21.3862 102.991C20.4587 102.991 19.6844 103.06 18.9179 103.045C18.8155 103.045 18.7172 103.085 18.6441 103.156C18.571 103.228 18.529 103.326 18.527 103.428C18.527 103.529 18.5673 103.627 18.6392 103.699C18.7111 103.771 18.8086 103.811 18.9102 103.811C19.6998 103.826 20.566 103.796 21.3862 103.757ZM137.794 88.0283C136.875 88.0283 136.1 88.0819 135.326 88.0896C135.225 88.0896 135.127 88.13 135.055 88.2018C134.983 88.2737 134.943 88.3712 134.943 88.4728C134.943 88.5745 134.983 88.672 135.055 88.7439C135.127 88.8157 135.225 88.8561 135.326 88.8561C136.154 88.8561 137.013 88.8561 137.84 88.7948C137.942 88.7887 138.037 88.7425 138.105 88.6663C138.172 88.5901 138.207 88.4902 138.201 88.3885C138.195 88.2869 138.148 88.1918 138.072 88.1243C137.996 88.0567 137.896 88.0222 137.794 88.0283ZM23.1646 99.0203C23.2106 99.7255 23.2566 100.484 23.2566 101.22C23.2585 101.321 23.2995 101.418 23.371 101.489C23.4425 101.561 23.5388 101.602 23.6398 101.604C23.7415 101.604 23.839 101.563 23.9109 101.491C23.9827 101.419 24.0231 101.322 24.0231 101.22C24.0231 100.454 23.9771 99.6872 23.9311 98.9667C23.924 98.865 23.8768 98.7703 23.7999 98.7035C23.723 98.6367 23.6227 98.6031 23.521 98.6102C23.4194 98.6173 23.3247 98.6645 23.2579 98.7414C23.191 98.8183 23.1575 98.9187 23.1646 99.0203ZM140.47 86.2576C140.47 85.491 140.424 84.7245 140.37 84.004C140.363 83.9023 140.316 83.8077 140.239 83.7408C140.162 83.674 140.062 83.6404 139.96 83.6475C139.858 83.6547 139.764 83.7019 139.697 83.7788C139.63 83.8557 139.596 83.956 139.604 84.0576C139.65 84.7628 139.696 85.5217 139.696 86.2576C139.696 86.3592 139.736 86.4567 139.808 86.5286C139.88 86.6005 139.977 86.6408 140.079 86.6408C140.181 86.6409 140.279 86.6007 140.353 86.5291C140.426 86.4574 140.468 86.3599 140.47 86.2576ZM28.8217 103.658C28.8721 103.656 28.9215 103.644 28.9673 103.623C29.013 103.602 29.0542 103.572 29.0883 103.535C29.1225 103.498 29.1491 103.454 29.1664 103.407C29.1838 103.36 29.1917 103.31 29.1897 103.259C29.1819 103.159 29.1365 103.065 29.0626 102.997C28.9887 102.929 28.8917 102.891 28.7911 102.891C27.8635 102.93 27.0893 102.96 26.3151 102.945C26.2135 102.945 26.116 102.985 26.0441 103.057C25.9722 103.129 25.9318 103.227 25.9318 103.328C25.9318 103.43 25.9722 103.527 26.0441 103.599C26.116 103.671 26.2135 103.711 26.3151 103.711C27.1353 103.727 27.9938 103.696 28.8217 103.658ZM145.23 87.9286C144.463 87.9669 143.613 87.9899 142.762 87.9899C142.711 87.9879 142.661 87.9961 142.613 88.014C142.566 88.0319 142.523 88.0593 142.486 88.0944C142.45 88.1295 142.421 88.1716 142.401 88.2182C142.381 88.2648 142.371 88.3149 142.371 88.3655C142.371 88.4679 142.411 88.5662 142.483 88.6393C142.554 88.7124 142.652 88.7545 142.754 88.7565C143.628 88.7565 144.333 88.7565 145.261 88.6951C145.311 88.6932 145.36 88.6813 145.406 88.6602C145.452 88.6391 145.493 88.6092 145.527 88.5721C145.561 88.5351 145.588 88.4917 145.605 88.4444C145.623 88.3971 145.631 88.3469 145.629 88.2965C145.619 88.1969 145.573 88.1042 145.5 88.0363C145.426 87.9684 145.33 87.9301 145.23 87.9286ZM11.2064 80.9455C11.3061 81.0222 32.9228 77.8181 33.8503 77.2508C33.9017 77.2134 33.9427 77.1635 33.9695 77.1058C33.9963 77.0482 34.008 76.9847 34.0036 76.9212C34.0036 75.9324 32.7081 66.6497 32.0872 64.3348C32.0106 64.0512 31.9339 63.7676 31.7576 63.6679C30.5848 62.9627 9.9186 66.8567 8.68445 67.6539C8.65101 67.6736 8.62211 67.7002 8.59965 67.7319C8.5772 67.7636 8.56169 67.7997 8.55414 67.8378C8.29351 68.7653 10.5395 80.4856 11.2064 80.9455ZM9.02174 68.0218C10.4935 67.3549 29.251 63.9209 31.3973 64.1892C31.9186 65.5306 33.3137 75.3575 33.4057 76.7986C32.3402 77.1129 11.4977 80.6926 11.421 80.7079C11.3444 80.7232 11.3367 80.8152 11.1757 80.3323C10.5012 78.3087 8.98341 69.7542 9.02174 68.0218Z" fill="white"/>
<path d="M35.536 77.9331C35.5777 77.8556 35.5963 77.7678 35.5896 77.6801C35.5896 76.4613 33.842 62.9321 33.2211 61.8513C33.1724 61.7716 33.1035 61.7062 33.0214 61.6618C32.9392 61.6173 32.8468 61.5954 32.7535 61.5983C30.1856 61.284 8.52345 65.5153 7.0977 66.5041C6.8984 66.6421 6.92906 66.987 6.95206 67.3549C7.0747 69.3709 9.25165 82.6319 10.0182 82.5552C10.1025 82.5552 10.0718 82.4939 9.87254 82.9002C8.67675 85.3607 6.40782 93.2407 6.45381 94.8274C6.45381 95.4943 6.60712 96.3605 7.26634 96.3145C11.9958 95.7319 35.1834 92.0526 41.8522 90.6805C42.1128 90.6268 42.2815 90.3892 42.2738 89.9983C42.1951 89.347 41.9976 88.7156 41.6912 88.1356C40.7561 86.3802 36.8774 79.4278 35.536 77.9331ZM10.0642 82.3176C9.46628 81.5511 7.26634 68.3438 7.43497 66.8797C9.12134 66.0058 30.4922 61.8743 32.7305 62.2115C33.3437 63.8979 34.9304 76.0781 35.0301 77.5421C32.3166 78.4773 13.5289 81.5128 10.0642 82.3176ZM10.4014 82.5476C11.0453 82.3866 32.9758 78.7149 34.9841 78.186C36.0802 79.2055 41.032 88.0129 41.354 88.7641C36.9541 89.5307 10.8537 93.8922 7.01338 94.4748C7.06704 92.1522 9.45095 84.0347 10.4014 82.5476Z" fill="white"/>
<path d="M13.2835 90.4966C13.9504 90.3969 28.1009 88.6952 33.2138 87.3078C33.2453 87.2997 33.2723 87.2794 33.2889 87.2513C33.3054 87.2233 33.3101 87.1899 33.302 87.1584C33.2938 87.1268 33.2735 87.0999 33.2455 87.0833C33.2175 87.0668 33.184 87.0621 33.1525 87.0702C32.1483 87.2772 19.8988 88.9099 13.2682 90.259C13.2499 90.2557 13.231 90.2566 13.2131 90.2617C13.1952 90.2667 13.1787 90.2758 13.1648 90.2882C13.1509 90.3006 13.14 90.316 13.133 90.3332C13.1259 90.3504 13.1229 90.369 13.1241 90.3876C13.1253 90.4061 13.1307 90.4242 13.1399 90.4404C13.1491 90.4565 13.1619 90.4704 13.1772 90.4809C13.1926 90.4914 13.2102 90.4983 13.2286 90.501C13.247 90.5037 13.2658 90.5022 13.2835 90.4966ZM23.6243 37.1614C23.3379 37.8081 23.0972 38.4741 22.9037 39.1544C22.8923 39.2635 22.9224 39.373 22.988 39.461C23.7623 40.6261 31.696 49.5715 33.7657 50.8286C34.0494 51.0049 34.3866 51.1276 34.5936 50.8746C36.0971 49.0039 38.0592 47.5541 40.2891 46.6664C42.104 46.0243 44.0068 45.6649 45.9309 45.6009C47.464 45.4629 47.7323 45.3096 48.3225 44.3055C49.0188 42.984 49.9426 41.7955 51.0514 40.7947C52.4654 39.5585 54.0347 38.5123 55.7197 37.6826C55.7956 37.6397 55.8549 37.5725 55.8882 37.492C55.9215 37.4114 55.927 37.3221 55.9037 37.238C55.6446 36.5787 55.3019 35.9553 54.8842 35.383C55.1601 35.2911 55.4668 35.2067 55.4668 34.9308C55.4668 34.1643 48.7825 24.4906 46.9274 22.6663C46.7358 22.4747 46.4598 22.2217 46.2068 22.237C42.3741 22.4517 38.641 26.0697 36.4793 29.2278C34.0034 29.1358 32.4013 28.9135 29.5804 30.1016C27.5889 30.9469 25.7935 32.1943 24.3065 33.7657C24.0765 34.0033 22.5128 35.659 22.4898 35.7893C22.4668 35.9196 22.5128 35.9196 23.6243 37.1614ZM54.2863 36.9468C51.0898 37.491 49.0507 40.1509 47.5483 43.0407C46.8814 44.3285 46.9427 44.3898 46.2375 44.3744C45.0043 44.3046 43.7673 44.3508 42.5427 44.5124C41.6446 44.6467 40.7615 44.8674 39.9058 45.1716C37.9588 45.8615 35.7281 48.0691 34.54 49.7095C34.5147 49.7432 34.4826 49.7713 34.4458 49.7917C34.409 49.8122 34.3682 49.8247 34.3262 49.8283C34.2843 49.8319 34.242 49.8266 34.2022 49.8127C34.1624 49.7989 34.126 49.7767 34.0954 49.7478C31.6041 47.1799 27.1964 42.6727 24.9811 40.0819C24.8738 39.9669 25.0577 39.7983 25.165 39.9209C26.5985 41.454 30.3009 45.1256 34.2717 49.1193C35.6131 47.4099 37.6828 45.3403 39.7295 44.6197C40.8456 44.2216 42.0069 43.9641 43.1866 43.8532C44.2914 43.7693 45.401 43.7693 46.5058 43.8532C46.9581 43.332 49.1964 37.4143 54.271 36.7551C54.2858 36.766 54.298 36.7801 54.3067 36.7964C54.3153 36.8127 54.3202 36.8307 54.3209 36.8491C54.3217 36.8675 54.3182 36.8859 54.3109 36.9028C54.3036 36.9197 54.2925 36.9347 54.2786 36.9468H54.2863ZM46.1992 22.8579C47.7323 23.9311 53.972 33.1678 54.7845 34.7851C53.3746 35.2319 52.0134 35.82 50.7218 36.5405C49.4987 37.1536 48.4277 38.0319 47.587 39.1113C46.7463 40.1907 46.1569 41.4441 45.8619 42.7801C43.11 38.3035 39.2696 33.3747 36.717 29.749C36.8703 29.6494 41.1783 23.1569 46.1992 22.8579ZM29.749 30.5232C32.5469 29.3964 34.0954 29.6571 36.4103 29.7567C38.71 33.6813 42.8417 39.2157 45.5629 42.8414C43.0513 42.2471 40.4083 42.6106 38.1504 43.8609C36.7936 44.6274 35.1379 46.4671 34.1183 47.6092C32.6466 46.4287 24.1532 37.3837 22.7887 35.8506C24.8891 33.4744 26.8285 31.6884 29.749 30.4926V30.5232ZM15.7211 50.0161C15.5317 49.8832 15.3077 49.808 15.0764 49.7999C14.8451 49.7917 14.6164 49.8509 14.418 49.9701C14.2736 50.0345 14.1432 50.1268 14.0344 50.2416C13.9256 50.3564 13.8405 50.4915 13.7839 50.6392C13.7273 50.7869 13.7004 50.9443 13.7046 51.1024C13.7088 51.2605 13.7442 51.4162 13.8086 51.5607C13.873 51.7051 13.9653 51.8355 14.0801 51.9443C14.1949 52.0531 14.33 52.1382 14.4777 52.1948C14.6254 52.2514 14.7828 52.2783 14.9409 52.2741C15.099 52.2698 15.2547 52.2345 15.3992 52.1701C15.63 52.1196 15.8399 52.0002 16.0013 51.8277C16.1626 51.6552 16.2677 51.4377 16.3027 51.2041C16.3376 50.9704 16.3007 50.7317 16.1968 50.5196C16.093 50.3074 15.9271 50.1318 15.7211 50.0161ZM15.2152 51.5492C14.6786 51.7178 14.3567 51.5492 14.2264 51.2886C13.9811 50.7443 14.2877 49.9088 15.0849 50.1541C15.6445 50.3611 16.0968 51.3039 15.2152 51.5875V51.5492ZM54.7002 14.9397C54.9225 15.3919 55.9574 15.2233 56.4096 15.0776C56.6473 15.001 56.8006 14.9167 56.8236 14.6867C56.8925 14.1118 56.9692 9.12937 56.7086 8.64645C56.6816 8.59582 56.6404 8.55426 56.5899 8.52698C56.5395 8.49971 56.4821 8.48794 56.425 8.49315C55.6071 8.49088 54.7934 8.6097 54.0103 8.84575C53.696 9.03738 54.4243 14.4338 54.7002 14.9397ZM54.1713 9.02972C54.8794 8.92842 55.5955 8.89505 56.31 8.93007C56.356 9.4973 56.2333 14.4108 56.2256 14.4874C55.9018 14.6035 55.556 14.6454 55.2138 14.6101C55.1601 14.4338 55.0682 13.9585 54.9532 13.3606C54.6154 11.932 54.3544 10.4863 54.1713 9.02972ZM14.9776 43.5466C15.0511 43.5843 15.1326 43.6039 15.2152 43.6039C15.2979 43.6039 15.3793 43.5843 15.4529 43.5466C15.749 43.3639 15.9839 43.097 16.1274 42.7801C16.1469 42.7293 16.1529 42.6744 16.1449 42.6207C16.1368 42.5669 16.1149 42.5162 16.0814 42.4734C15.7135 42.0365 11.6968 37.3837 11.2062 37.675C10.6038 38.0649 10.0323 38.5006 9.49676 38.9781C9.47518 38.9974 9.45788 39.021 9.446 39.0474C9.43412 39.0738 9.42791 39.1024 9.42777 39.1314C9.41244 39.53 13.8738 43.102 14.9776 43.5466ZM11.2982 37.8743C11.8577 38.2805 13.7434 40.6108 15.4912 42.6727C15.416 42.7911 15.3229 42.8972 15.2152 42.987C13.3777 41.811 11.6233 40.5099 9.96436 39.093C10.3802 38.6564 10.8259 38.2492 11.2982 37.8743ZM23.3407 20.9646C23.5093 17.9905 25.2417 16.6107 27.0508 16.2581C26.5372 18.1438 26.6215 20.5967 28.4842 20.9109C29.3734 21.0566 29.8103 20.5967 30.4542 20.0601C33.2062 17.7605 30.9832 15.4609 27.8786 15.6219C29.0361 12.4484 31.7114 9.86524 35.2605 9.78092C35.293 9.78092 35.3242 9.768 35.3472 9.745C35.3702 9.722 35.3832 9.6908 35.3832 9.65827C35.3832 9.62575 35.3702 9.59455 35.3472 9.57155C35.3242 9.54855 35.293 9.53563 35.2605 9.53563C31.4278 9.45897 28.4152 12.2185 27.2271 15.6679C25.1804 16.0205 23.149 17.5535 23.0954 20.9186C23.0923 20.9347 23.0925 20.9513 23.0959 20.9673C23.0993 20.9833 23.1058 20.9985 23.115 21.0121C23.1243 21.0256 23.1361 21.0372 23.1498 21.0461C23.1636 21.0551 23.1789 21.0612 23.195 21.0642C23.2111 21.0673 23.2277 21.0671 23.2437 21.0637C23.2597 21.0603 23.2749 21.0538 23.2885 21.0446C23.302 21.0353 23.3136 21.0235 23.3225 21.0098C23.3315 20.9961 23.3376 20.9807 23.3407 20.9646ZM27.7023 16.1661C28.8445 16.0895 30.5462 16.4421 31.0138 17.4769C31.2821 18.0671 31.0138 18.7953 30.0633 19.5925C29.8052 19.851 29.5109 20.0705 29.1894 20.2441C28.0396 20.7346 26.7671 19.3166 27.7023 16.1661ZM29.8947 124.577C29.1541 124.378 28.3813 124.33 27.6218 124.435C26.8623 124.539 26.1314 124.795 25.4721 125.186C24.8128 125.578 24.2385 126.097 23.783 126.714C23.3274 127.33 22.9998 128.032 22.8194 128.777C22.4789 130.325 22.7673 131.945 23.6212 133.281C24.4751 134.616 25.8246 135.558 27.3727 135.898C28.9209 136.239 30.5409 135.95 31.8764 135.096C33.2118 134.243 34.1534 132.893 34.494 131.345C34.6394 130.598 34.6356 129.83 34.4829 129.085C34.3301 128.34 34.0313 127.632 33.6038 127.003C33.1762 126.374 32.6283 125.836 31.9918 125.419C31.3552 125.003 30.6424 124.716 29.8947 124.577ZM32.2633 130.824C31.9557 132.05 31.2194 133.127 30.1875 133.858C29.1555 134.589 27.8961 134.926 26.6368 134.81C25.4809 134.358 24.5212 133.513 23.9267 132.424C23.3322 131.334 23.141 130.07 23.3866 128.854C23.6735 127.597 24.403 126.486 25.4417 125.723C26.4804 124.96 27.7591 124.597 29.0438 124.699C30.2112 125.181 31.171 126.06 31.7543 127.18C32.3376 128.301 32.507 129.591 32.2326 130.824H32.2633Z" fill="white"/>
<path d="M40.1057 126.761C39.4384 126.531 38.7232 126.475 38.0284 126.6C37.7404 125.94 37.386 125.311 36.9706 124.722C37.4688 124.27 38.8333 123.013 38.5037 122.422C37.3306 121.019 35.9379 119.816 34.3796 118.858C33.7289 118.494 33.0125 118.262 32.2716 118.176C31.781 118.245 30.6159 120.154 30.3552 120.583C30.1866 120.583 29.5887 120.391 29.5427 120.368C29.5427 119.816 29.3817 117.823 28.8835 117.593C28.3263 117.388 27.7477 117.247 27.1587 117.172C26.6145 117.087 21.7162 117.984 21.3559 118.643C21.1183 119.088 21.6702 120.767 21.8312 121.234C21.4178 121.462 21.0208 121.718 20.643 122.001C19.8765 122.545 20.0835 122.522 19.9455 122.461C19.7787 122.381 19.6001 122.329 19.4166 122.307C18.8042 121.948 18.0863 121.813 17.3852 121.924C16.68 122.154 15.0166 125.941 14.7483 126.914C14.6605 127.16 14.6367 127.424 14.6793 127.681C14.8633 128.187 16.0897 128.593 16.6033 128.754C16.4615 129.74 16.4615 130.742 16.6033 131.728C15.9288 131.912 14.526 132.326 14.6026 133.016C14.6793 133.706 16.473 138.259 17.2166 138.619C17.6239 138.847 18.0743 138.987 18.539 139.031C19.0036 139.074 19.4723 139.02 19.9148 138.872C20.1641 138.748 20.4048 138.607 20.6354 138.451C20.942 138.681 21.2639 138.888 21.5936 139.087C21.3559 139.677 20.827 140.996 20.9957 141.593C21.08 141.908 21.3329 142.007 21.6856 142.138C22.6591 142.49 27.9023 143.747 28.6995 143.609C28.9984 143.563 29.1594 143.249 29.2514 142.95C29.4217 142.27 29.5219 141.574 29.5504 140.873C29.944 140.834 30.3355 140.775 30.7232 140.697C30.9599 141.113 31.2628 141.489 31.62 141.808C32.011 142.084 32.3406 141.946 32.7852 141.662C32.9998 141.938 33.3218 142.322 33.6667 142.36C34.5329 142.46 38.1127 139.087 38.4807 138.397C38.7873 137.822 37.6681 136.795 37.1699 136.343C37.7089 135.532 38.132 134.649 38.427 133.721C38.9799 133.804 39.5394 133.835 40.0981 133.813C40.351 133.813 40.6423 133.721 40.7496 133.483C41.2172 132.418 41.0793 128.378 40.7496 127.351C40.7037 127.052 40.3587 126.853 40.1057 126.761ZM40.2897 127.466C40.5503 128.463 40.6347 132.226 40.2514 133.2C39.5886 133.265 38.9199 133.234 38.266 133.108C38.1962 133.096 38.1245 133.111 38.0649 133.149C38.0053 133.187 37.9622 133.246 37.9441 133.315C37.6388 134.351 37.1649 135.33 36.5413 136.212C36.4969 136.271 36.4768 136.344 36.4854 136.417C36.494 136.49 36.5305 136.557 36.5873 136.603C37.1251 137.029 37.5821 137.549 37.9364 138.136C37.5531 138.765 34.5559 141.509 33.7281 141.739C33.6054 141.739 33.2681 141.279 33.1838 141.156C32.9006 140.731 32.6446 140.288 32.4173 139.83C32.3841 139.764 32.3271 139.712 32.2577 139.685C32.1882 139.658 32.1111 139.658 32.0416 139.685C29.8186 140.52 28.9754 140.03 28.9754 140.582C28.9764 141.408 28.8418 142.229 28.5768 143.011C26.7754 142.816 25.0014 142.42 23.2876 141.831C23.3704 141.013 23.5989 140.216 23.9622 139.478C24.1922 138.964 23.2723 139.11 21.5552 137.362C21.5 137.311 21.4274 137.283 21.3521 137.283C21.2768 137.283 21.2042 137.311 21.149 137.362C20.3824 137.991 19.3859 138.604 19.1866 138.504C18.7957 138.313 16.9943 134.227 16.8869 133.399C17.4322 133.019 18.0511 132.758 18.7037 132.633C18.7733 132.613 18.8334 132.569 18.8728 132.508C18.9123 132.448 18.9285 132.375 18.9183 132.303C18.7304 131.218 18.7304 130.108 18.9183 129.022C18.93 128.955 18.916 128.887 18.879 128.83C18.842 128.773 18.7848 128.732 18.719 128.716C18.1411 128.564 17.5848 128.34 17.0633 128.049C16.8946 127.926 16.9099 127.934 16.9253 127.804C17.4214 126.014 18.2171 124.322 19.2786 122.798C19.6925 122.683 20.8117 123.503 21.195 123.795C21.235 123.833 21.2886 123.855 21.3444 123.855C21.4002 123.855 21.4539 123.833 21.4939 123.795C21.8461 123.429 22.2254 123.091 22.6284 122.783C23.7936 121.901 24.1078 122.016 24.0082 121.71C23.6558 120.94 23.4579 120.11 23.4256 119.264C23.5444 119.166 23.6792 119.088 23.8242 119.034C24.5399 118.751 25.2751 118.521 26.0242 118.345C26.9322 118.091 27.8654 117.94 28.8068 117.892C28.9678 117.961 29.1134 118.659 29.1517 118.873C29.4354 120.406 29.2437 120.721 29.466 120.744C31.6507 120.958 32.0953 121.564 32.2486 121.296C32.6737 120.552 33.1691 119.852 33.7281 119.203C33.889 119.042 33.8814 118.965 34.3643 119.241C35.807 120.184 37.0992 121.339 38.197 122.668C38.312 122.867 37.3155 123.925 36.5873 124.546C36.3343 124.768 36.6946 124.868 37.3538 126.125C38.0131 127.382 37.8598 127.735 38.2124 127.658C38.8921 127.495 39.5917 127.431 40.2897 127.466ZM146.679 63.4149C145.072 62.7586 143.387 62.3129 141.666 62.0888C140.409 61.8895 138.929 61.6902 137.68 61.5293C138.883 59.8276 142.448 55.5197 143.046 54.4695C143.214 54.1859 142.892 53.7873 142.655 53.5497C141.321 52.1239 138.745 51.5874 136.768 51.2808C135.633 51.0968 130.896 50.5142 130.091 50.8975C129.125 51.3574 121.981 62.0888 121.766 63.7215C121.766 63.9975 121.858 64.1048 122.127 64.2045C123.253 64.6184 128.336 65.2623 129.47 65.5306C127.937 68.2134 121.122 77.2815 120.456 78.5616C120.295 78.8835 120.394 79.0751 120.586 79.1365C121.276 79.4103 121.986 79.6307 122.709 79.7957C122.985 79.88 123.591 79.5044 124.472 78.9678C128.428 76.5916 145.399 65.3849 146.702 63.9362C146.738 63.9022 146.766 63.8608 146.785 63.815C146.804 63.7691 146.812 63.7197 146.81 63.6703C146.808 63.6208 146.795 63.5725 146.772 63.5284C146.75 63.4843 146.718 63.4456 146.679 63.4149ZM130.206 72.6133C123.69 76.9135 121.49 78.1706 121.414 78.2243C122.464 76.6223 128.987 67.6845 130.106 65.5459C130.126 65.5046 130.136 65.4594 130.136 65.4138C130.135 65.3681 130.125 65.323 130.105 65.2819C130.085 65.2408 130.057 65.2046 130.021 65.176C129.985 65.1474 129.944 65.1271 129.899 65.1166C129.133 64.8407 123.552 64.2428 122.234 63.7752C122.403 62.3495 129.363 51.572 130.206 51.1428C131.049 50.7135 139.228 51.687 140.761 52.7832C139.957 54.3545 135.511 59.8582 134.79 61.1383C134.644 61.399 134.598 61.6519 134.882 61.7209C135.166 61.7899 142.371 62.6331 143.943 63.1466C142.026 64.7487 132.352 71.1722 130.206 72.5826V72.6133ZM81.0319 25.7476C81.0319 25.8166 81.0778 25.9009 81.1928 26.3455C81.223 26.442 81.2893 26.523 81.378 26.5716C81.4666 26.6201 81.5705 26.6325 81.6681 26.6061C81.7657 26.5777 81.848 26.5116 81.8968 26.4225C81.9457 26.3334 81.9572 26.2285 81.9287 26.1309C81.8521 25.8319 81.7831 25.579 81.7371 25.4563C81.6924 25.3722 81.618 25.3076 81.5284 25.2754C81.4387 25.2431 81.3403 25.2453 81.2522 25.2817C81.1641 25.3181 81.0928 25.386 81.052 25.4721C81.0113 25.5582 81.0041 25.6565 81.0319 25.7476Z" fill="white"/>
</svg>
