<svg width="200" height="200" viewBox="0 0 200 200" fill="none" xmlns="http://www.w3.org/2000/svg">
<path d="M170.12 178.687C131.957 185.215 88.7004 192.616 48.4104 183.052C41.0334 181.275 31.5224 178.529 23.3804 173.025C14.4984 167.104 8.59139 161.253 6.59139 150.394C4.92839 141.2 6.79739 131.011 11.8554 121.703C16.8094 112.427 24.3004 104.511 31.4434 96.8313C31.5338 96.7341 31.582 96.605 31.5772 96.4723C31.5724 96.3396 31.5151 96.2143 31.4179 96.1239C31.3207 96.0334 31.1915 95.9853 31.0589 95.9901C30.9262 95.9949 30.8008 96.0521 30.7104 96.1494C23.4564 103.916 15.9944 111.831 10.9744 121.229C5.81039 130.729 3.90439 141.155 5.60739 150.574C7.66739 161.743 13.9814 167.96 22.8244 173.855C39.8614 185.371 69.8584 188.627 90.7384 188.627C117.949 188.627 145.22 183.961 170.29 179.673C170.421 179.651 170.538 179.578 170.614 179.47C170.691 179.361 170.722 179.227 170.699 179.096C170.677 178.966 170.604 178.849 170.496 178.772C170.387 178.696 170.253 178.665 170.122 178.687H170.12Z" fill="white"/>
<path d="M184.053 171.354C147.453 176.854 105.975 183.087 67.1141 173.913C60.9641 172.453 54.5811 170.54 49.5661 166.464C41.3061 159.724 40.6781 150.446 47.8381 141.011C56.4441 129.87 68.2511 121.787 78.6431 115.086C78.7486 115.011 78.8213 114.899 78.846 114.772C78.8707 114.646 78.8454 114.514 78.7756 114.406C78.7057 114.298 78.5966 114.22 78.4711 114.19C78.3456 114.16 78.2134 114.18 78.1021 114.246C67.6401 120.992 55.7491 129.132 47.0441 140.403C39.5101 150.33 40.1981 160.111 48.9341 167.24C54.1071 171.44 60.6181 173.398 66.8841 174.885C105.262 183.947 145.745 178.121 184.201 172.342C184.328 172.317 184.44 172.244 184.514 172.139C184.588 172.034 184.619 171.904 184.6 171.777C184.581 171.649 184.513 171.534 184.411 171.455C184.31 171.377 184.181 171.34 184.053 171.354Z" fill="white"/>
<path d="M175.547 176.136C151.668 179.827 127.59 182.098 103.441 182.936C93.3535 183.234 83.2571 182.845 73.2223 181.77C57.5793 179.965 42.2933 174.399 32.3343 166.882C27.1499 162.968 23.5851 157.285 22.3183 150.914C18.3003 130.457 40.9373 110.319 47.9703 104.633C48.0696 104.548 48.1319 104.428 48.144 104.298C48.156 104.168 48.1168 104.039 48.0347 103.937C47.9526 103.836 47.8342 103.771 47.7047 103.755C47.5751 103.74 47.4447 103.776 47.3413 103.856C40.1973 109.629 17.2113 130.101 21.3413 151.107C22.6552 157.717 26.3529 163.614 31.7313 167.677C41.8313 175.297 57.2953 180.936 73.1113 182.761C83.1942 183.837 93.3385 184.229 103.474 183.933C127.663 183.094 151.781 180.82 175.701 177.125C175.832 177.104 175.95 177.032 176.028 176.925C176.107 176.818 176.139 176.684 176.119 176.553C176.098 176.422 176.027 176.304 175.92 176.226C175.812 176.148 175.678 176.115 175.547 176.136Z" fill="white"/>
<path d="M10.6012 133.074C10.5886 133.145 10.592 133.219 10.611 133.29C10.63 133.36 10.6642 133.426 10.7111 133.481C10.7581 133.537 10.8168 133.582 10.8829 133.613C10.9491 133.644 11.0212 133.66 11.0942 133.66C12.4042 133.66 10.2812 130.853 17.8812 120.16C23.2188 112.529 29.2838 105.434 35.9912 98.9745C36.0865 98.8817 36.1411 98.7548 36.1429 98.6217C36.1447 98.4887 36.0935 98.3604 36.0007 98.265C35.9079 98.1697 35.781 98.1151 35.6479 98.1133C35.5149 98.1115 35.3865 98.1627 35.2912 98.2555C28.5397 104.759 22.435 111.901 17.0632 119.584C14.3672 123.378 11.4912 127.946 10.6012 133.074Z" fill="white"/>
<path d="M35.2648 155.805C36.7648 162.166 42.1978 168.251 50.1838 172.505C56.6448 175.944 63.6918 177.641 71.5688 179.354C71.6341 179.372 71.7022 179.376 71.7691 179.366C71.836 179.356 71.9002 179.333 71.9579 179.298C72.0155 179.263 72.0655 179.216 72.1047 179.161C72.1439 179.106 72.1715 179.044 72.1859 178.978C72.2003 178.912 72.2012 178.844 72.1885 178.777C72.1758 178.711 72.1498 178.648 72.112 178.592C72.0742 178.536 72.0255 178.488 71.9688 178.451C71.912 178.415 71.8484 178.39 71.7818 178.378C63.9818 176.678 57.0018 175.001 50.6538 171.622C42.9228 167.507 37.6678 161.661 36.2378 155.583C33.1248 142.092 43.1238 126.34 54.1128 118.368C54.1682 118.331 54.2154 118.282 54.2518 118.226C54.2881 118.17 54.3128 118.107 54.3243 118.041C54.3358 117.975 54.334 117.907 54.3189 117.842C54.3038 117.777 54.2758 117.715 54.2365 117.661C54.1971 117.607 54.1473 117.561 54.09 117.527C54.0327 117.492 53.969 117.469 53.9027 117.46C53.8364 117.45 53.7689 117.454 53.7041 117.471C53.6394 117.488 53.5788 117.518 53.5258 117.559C42.2768 125.713 32.0538 141.894 35.2648 155.805Z" fill="white"/>
<path d="M50.1668 131.594C50.2592 131.689 50.3857 131.744 50.5182 131.746C50.6508 131.748 50.7787 131.697 50.8738 131.604C63.1339 119.619 77.3143 109.771 92.8268 102.468C92.9335 102.405 93.0126 102.304 93.0488 102.185C93.085 102.066 93.0757 101.938 93.0227 101.826C92.9696 101.713 92.8767 101.625 92.7619 101.577C92.6471 101.53 92.5188 101.526 92.4018 101.568C76.7881 108.916 62.5156 118.828 50.1768 130.891C50.083 130.984 50.0293 131.109 50.0274 131.241C50.0255 131.372 50.0756 131.499 50.1668 131.594Z" fill="white"/>
<path d="M95.0311 64.5996C100.343 66.8346 108.085 55.0656 107.697 46.3196C107.442 40.5906 103.55 38.9086 99.2441 42.7636C92.8781 48.4596 89.5781 62.3036 95.0311 64.5996Z" fill="white"/>
<path d="M195.826 56.1235C195.304 52.138 194.006 48.2933 192.006 44.8065C190.476 42.109 188.488 39.6981 186.131 37.6815C186.423 37.2645 185.764 35.9735 185.6 35.6815C184.107 33.0295 180.309 30.6645 174.709 27.3985C166.975 22.8405 159.035 17.6985 150.597 14.8145C141.163 11.5885 132.263 10.3985 124.119 11.2835C120.919 11.6835 112.211 12.3195 105.513 17.1045C97.0833 23.1265 98.3133 22.5545 97.9393 22.5455C93.0393 22.4655 88.2393 24.3975 83.2623 28.5055C78.8973 32.1055 75.6343 35.0645 70.7913 39.8055C62.4793 48.1135 59.9263 53.5135 56.0463 64.5345C52.2463 68.7505 48.5083 72.9875 44.8323 77.2455C40.1133 82.7145 39.3323 90.6545 38.2323 97.6885C38.2176 97.7845 38.2312 97.8828 38.2715 97.9713C38.3118 98.0597 38.377 98.1345 38.4591 98.1865C38.5412 98.2385 38.6367 98.2654 38.7339 98.264C38.8311 98.2626 38.9257 98.2328 39.0063 98.1785L46.5623 99.5065C47.0492 100.048 47.6908 100.427 48.4003 100.592C50.7343 101.092 53.7123 102.181 56.0803 101.128C61.2573 102.071 84.0223 105.912 90.8263 107.185C90.9279 107.203 91.0326 107.19 91.1263 107.146C91.4193 107.283 90.6323 107.546 101.374 102.846C101.522 106.756 102.874 109.518 104.85 109.92C106.366 110.383 107.952 110.577 109.534 110.493C112.366 110.369 114.891 106.61 115.534 101.552C115.758 99.9299 115.738 98.2829 115.473 96.6665L151.471 80.8855C150.3 87.1495 151.447 92.0295 154.476 93.6045C157.166 94.9024 159.935 96.0296 162.766 96.9795C163.181 97.0629 163.602 97.1067 164.025 97.1105C168.771 97.1105 174.369 91.7955 177.782 83.8315C179.301 80.4514 180.114 76.7967 180.17 73.0915C180.708 73.443 181.316 73.6741 181.952 73.769C182.587 73.864 183.236 73.8205 183.853 73.6415C187.628 71.3815 190.978 66.5585 193.313 63.9915C195.915 61.2435 196.263 59.5185 195.826 56.1235ZM133.777 38.4035C136.417 36.9125 138.054 35.8515 140.829 35.2325C146.845 34.4325 153.823 37.3125 159.376 39.7665C167.302 43.2085 175.567 47.1905 182.324 52.9815C183.46 53.8798 184.513 54.8785 185.47 55.9655C185.47 55.9795 185.481 55.9925 185.487 56.0055C186.879 58.7925 185.123 61.5865 183.05 63.9305L133.777 38.4035ZM91.9653 50.1035C98.6063 34.3195 111.206 29.1745 111.819 43.0355C111.865 47.918 110.86 52.7533 108.873 57.2135C106.304 63.3205 100.111 72.7215 94.1363 72.3385C86.7543 71.8665 88.5913 58.1325 91.9653 50.1015V50.1035ZM45.7413 98.3465L39.8003 97.3035C40.5819 96.4752 41.4541 95.7372 42.4003 95.1035C42.5563 95.0035 42.6593 94.8885 42.8003 94.2245C42.9373 93.5825 43.1093 92.4245 43.4003 90.2515C43.8011 86.3778 45.0721 82.6449 47.1183 79.3315C48.4403 77.2555 50.5333 75.2845 52.8993 75.9175C53.2203 76.039 53.5128 76.2256 53.7583 76.4655C46.7973 76.3865 42.1513 91.7425 45.7413 98.3465ZM61.1193 81.4465C59.9572 82.5361 58.7234 83.5467 57.4263 84.4715C57.4133 84.2255 57.3363 83.5205 57.3143 83.2715C58.2143 82.4805 59.3473 81.5545 60.6143 80.5485C60.7263 80.7315 61.0233 81.2505 61.1193 81.4475V81.4465ZM97.7603 26.7925C100.374 24.0475 105.599 20.6235 109.277 21.4025C110.746 21.8738 111.987 22.8747 112.759 24.2105C107.175 21.7825 99.0023 26.0325 95.0983 30.8105C94.7523 31.2338 94.419 31.6671 94.0983 32.1105C95.1476 30.2257 96.3738 28.445 97.7603 26.7925ZM120.613 44.7795C120.733 45.3494 120.823 45.9252 120.882 46.5045C120.788 46.4575 116.423 44.3045 114.297 43.4525C114.801 41.4697 114.955 39.4142 114.752 37.3785C115.229 37.6465 115.696 37.9245 116.146 38.2075C116.111 39.3711 116.002 40.5314 115.821 41.6815C115.619 43.0965 118 44.0445 120.613 44.7795ZM187.004 58.3305C187.321 58.9746 187.475 59.6864 187.454 60.4039C187.432 61.1213 187.235 61.8226 186.88 62.4465C185.001 65.8095 182.008 68.4965 179.107 71.0875L178.138 69.1495C181.759 67.1485 186.864 62.3225 187.004 58.3305ZM190.954 49.9975C173.805 33.8765 151.341 26.2785 136.161 26.9045C129.33 27.1865 121.299 31.7335 119.818 32.8715C119.748 32.0421 119.641 31.2158 119.498 30.3925C123.758 27.3929 128.508 25.1595 133.535 23.7925C139.083 22.3214 144.927 22.395 150.435 24.0055C160.659 27.1515 172.381 33.3055 181.045 38.8855C191.356 45.5855 192.026 48.4115 192.885 48.8995C193.559 50.5424 194.082 52.243 194.448 53.9805C193.451 52.5148 192.278 51.1771 190.954 49.9975ZM191.363 45.7075C188.844 43.21 186.061 40.9931 183.063 39.0955C170.224 30.7325 160.531 26.4105 152.346 23.5775C140.61 19.5145 129.652 22.3025 119.292 29.3285C118.897 27.4595 118.328 25.6316 117.592 23.8685C121.992 21.6115 125.91 19.9005 129.484 18.4015C131.329 17.6034 133.281 17.0798 135.278 16.8475C143.378 16.1105 150.856 17.9695 160.298 23.0635C166.42 26.2865 172.125 29.6715 177.923 33.1505C183.557 36.4135 188.28 40.0865 191.363 45.7075ZM59.5053 58.1425C65.7283 51.4745 72.0583 44.1425 78.6913 37.9255C83.6213 32.9478 88.8329 28.2571 94.3003 23.8765C95.1403 23.7063 95.9922 23.601 96.8483 23.5615C84.5163 33.5435 68.4143 50.8785 57.8003 62.5915C58.3533 61.0665 58.9133 59.5835 59.5053 58.1425ZM46.8173 98.2045C45.4053 96.0045 45.0923 91.9045 46.0173 87.7775C47.3573 81.7995 50.5713 77.3925 53.1513 77.9455C55.4813 78.6125 55.4443 80.6955 55.4443 83.8455C55.4442 83.9413 55.4716 84.0352 55.5233 84.1159C55.575 84.1967 55.6488 84.2608 55.736 84.3008C55.8231 84.3407 55.9199 84.3547 56.0149 84.3412C56.1098 84.3277 56.1988 84.2872 56.2713 84.2245C56.4653 88.7055 54.9713 95.0165 51.8533 98.1935C49.8043 100.201 47.8743 99.8575 46.8173 98.2045ZM61.4083 79.9255C66.5883 75.8685 81.5643 64.9605 81.7363 64.8385C83.8913 63.3135 86.3423 61.5925 86.6283 58.9135C87.5463 49.9975 90.1743 38.4025 95.8713 31.4385C99.8063 26.6305 108.983 22.0665 113.702 25.9385C115.278 29.4294 116.114 33.2087 116.157 37.0385C114.136 35.8004 111.969 34.8179 109.705 34.1135C94.3103 29.9135 80.6393 68.4825 91.9773 73.2535C91.9903 73.2595 100.105 76.2535 101.657 76.5675C112.199 78.6805 123.962 57.7155 121.687 45.0675C122.663 45.3025 122.803 45.2305 122.917 45.1735C122.917 45.1735 129.78 40.7095 132.742 38.9935L158.18 52.1735L134.408 64.7965L121.091 59.3305C120.754 60.6281 120.254 61.878 119.603 63.0505L130.249 67.0045L81.0583 93.1255L63.7913 89.2605C63.6659 90.226 63.4883 91.1841 63.2593 92.1305L77.4493 95.0415L64.9763 101.664L57.3913 100.342C62.2963 96.6135 64.8373 85.4475 61.4083 79.9255ZM91.1263 106.241C91.0263 106.194 92.3993 106.441 66.5823 101.941L78.9913 95.3555L103.35 100.316C104.519 99.7845 105.582 99.3595 106.75 98.8285L82.5613 93.4595L131.5 67.4725L156.491 76.8265C157.873 76.1895 158.829 75.8705 159.998 75.3385L135.608 65.2915L159.258 52.7325L182.342 64.6915C180.848 66.2263 179.119 67.5146 177.221 68.5085C93.4533 105.22 91.2273 106.19 91.1263 106.241ZM102.364 102.407L103.216 102.034C103.387 103.455 104.054 105.177 105.464 105.177C106.943 105.177 108.378 103.065 108.726 100.343C108.812 100.094 108.852 99.8311 108.844 99.5675L110.288 98.9355C110.291 99.5885 110.258 100.241 110.188 100.89C109.763 104.22 108.436 107.178 106.809 108.426C106.367 108.809 105.792 109.001 105.209 108.96C103.6 108.79 102.422 106.053 102.364 102.407ZM152.591 80.3965L154.909 79.3805C154.317 82.9065 155.03 85.5335 156.839 86.3245C160.194 87.6905 163.839 82.7975 165.255 79.2345C165.876 77.6437 166.302 75.9836 166.523 74.2905L171.223 72.2325C170.813 74.984 170.068 77.6752 169.006 80.2465C165.464 88.6465 159.145 94.4125 155.206 92.8405C152.314 91.6315 151.272 86.6415 152.591 80.3965Z" fill="white"/>
<path d="M49.2143 93.8985C52.1783 94.5275 54.7713 88.0675 53.7983 83.9425C53.4713 82.5545 52.7833 81.6825 51.8613 81.4855C48.8413 80.8465 46.3173 87.3705 47.2773 91.4415C47.6053 92.8295 48.2913 93.7015 49.2143 93.8985Z" fill="white"/>
<path d="M183.739 79.6204C182.418 88.2144 179.961 94.1404 176.007 98.2694C171.617 102.855 163.913 105.754 157.685 102.425C157.568 102.363 157.431 102.35 157.304 102.388C157.177 102.427 157.071 102.514 157.008 102.631C156.946 102.748 156.932 102.886 156.971 103.013C157.01 103.139 157.097 103.246 157.214 103.308C163.606 106.724 171.795 104.115 176.73 98.9614C180.83 94.6764 183.373 88.5794 184.73 79.7724C184.74 79.7073 184.737 79.6409 184.721 79.577C184.706 79.513 184.678 79.4528 184.639 79.3997C184.6 79.3467 184.551 79.3018 184.494 79.2677C184.438 79.2335 184.376 79.2108 184.311 79.2009C184.246 79.1909 184.179 79.1938 184.115 79.2095C184.051 79.2252 183.991 79.2533 183.938 79.2923C183.885 79.3312 183.84 79.3802 183.806 79.4365C183.772 79.4928 183.749 79.5553 183.739 79.6204Z" fill="white"/>
<path d="M181.948 98.1914C181.836 98.1211 181.7 98.0982 181.571 98.1278C181.442 98.1574 181.33 98.2371 181.259 98.3494C172.359 112.508 150.75 110.922 144.199 95.2344C144.176 95.1712 144.14 95.1134 144.094 95.0644C144.047 95.0155 143.992 94.9764 143.93 94.9495C143.868 94.9226 143.802 94.9085 143.734 94.908C143.667 94.9075 143.6 94.9206 143.538 94.9466C143.476 94.9725 143.419 95.0108 143.372 95.0591C143.325 95.1074 143.288 95.1646 143.264 95.2275C143.24 95.2903 143.228 95.3575 143.231 95.4248C143.233 95.4922 143.249 95.5584 143.277 95.6194C150.083 111.925 172.684 113.875 182.107 98.8804C182.142 98.8248 182.166 98.7628 182.177 98.698C182.187 98.6332 182.185 98.567 182.171 98.503C182.156 98.439 182.129 98.3786 182.09 98.3251C182.052 98.2717 182.004 98.2262 181.948 98.1914Z" fill="white"/>
<path d="M118.05 107.913C117.923 107.877 117.786 107.892 117.67 107.956C117.554 108.02 117.468 108.127 117.431 108.254C116.921 110.178 115.882 111.921 114.433 113.285C112.984 114.65 111.182 115.582 109.231 115.976C105.231 116.591 101.124 113.899 100.446 110.215C100.435 110.151 100.41 110.089 100.374 110.034C100.338 109.979 100.292 109.931 100.238 109.894C100.184 109.857 100.123 109.83 100.058 109.817C99.994 109.803 99.9276 109.802 99.863 109.814C99.7983 109.826 99.7366 109.85 99.6814 109.886C99.6262 109.922 99.5786 109.968 99.5414 110.023C99.5041 110.077 99.4778 110.138 99.4641 110.202C99.4504 110.266 99.4495 110.333 99.4615 110.397C100.161 114.19 104.021 117.063 108.091 117.063C112.446 117.063 116.916 113.642 118.397 108.532C118.416 108.469 118.421 108.403 118.413 108.337C118.406 108.272 118.385 108.208 118.353 108.151C118.321 108.093 118.277 108.043 118.225 108.002C118.173 107.961 118.114 107.931 118.05 107.913Z" fill="white"/>
<path d="M111.464 119.937C109.773 120.597 107.94 120.807 106.143 120.546C104.347 120.285 102.65 119.561 101.217 118.447C99.7845 117.332 98.6662 115.864 97.9718 114.187C97.2774 112.51 97.0307 110.681 97.2559 108.88C97.2669 108.751 97.2275 108.622 97.1458 108.522C97.0642 108.421 96.9468 108.356 96.8182 108.341C96.6897 108.325 96.5601 108.36 96.4567 108.438C96.3533 108.516 96.2842 108.631 96.2639 108.759C96.0302 110.727 96.3087 112.723 97.0724 114.553C97.8362 116.382 99.0592 117.983 100.623 119.202C102.187 120.42 104.039 121.214 106 121.507C107.961 121.799 109.964 121.581 111.816 120.873C111.94 120.826 112.04 120.732 112.095 120.611C112.15 120.49 112.155 120.353 112.108 120.229C112.061 120.104 111.967 120.004 111.846 119.949C111.726 119.894 111.588 119.89 111.464 119.937Z" fill="white"/>
</svg>
