<svg width="154" height="154" viewBox="0 0 154 154" fill="none" xmlns="http://www.w3.org/2000/svg">
<path d="M130.858 126.477C127.931 127.419 124.845 127.768 121.782 127.504C118.846 127.32 115.535 127.244 113.12 125.35C113.12 125.312 113.028 125.35 113.066 125.404C115.366 127.282 118.432 127.443 121.284 127.658C124.427 127.895 128.006 128.041 130.912 126.6C130.973 126.562 130.927 126.477 130.858 126.477ZM128.091 103.773C128.091 103.673 127.922 103.642 127.907 103.773C127.776 104.539 125.86 104.922 125.216 105.091C123.402 105.555 121.522 105.703 119.659 105.528C118.769 105.451 116.171 105.444 116.186 103.995C116.186 103.995 116.125 103.949 116.109 103.995C115.91 104.922 116.792 105.283 117.551 105.444C120.316 106.026 123.183 105.921 125.898 105.137C126.519 104.922 128.114 104.6 128.091 103.773ZM71.0287 52.5223C70.63 52.5223 70.3081 53.2046 70.3081 54.0554C70.3081 54.9063 70.63 55.5885 71.0287 55.5885C71.4273 55.5885 71.7415 54.9063 71.7415 54.0554C71.7415 53.2046 71.4196 52.5223 71.0287 52.5223ZM55.2377 64.4802C54.9081 64.3499 54.4712 64.6565 54.2642 64.8865C53.7046 65.5304 54.3332 66.2892 55.0844 65.5687C55.3144 65.3464 55.6823 64.6565 55.2377 64.4802ZM55.1534 65.0628C55.0767 65.3771 54.6015 65.6837 54.4328 65.5994C54.0496 65.4231 54.5785 64.7102 54.9848 64.6949C55.1917 64.6795 55.1917 64.8788 55.1917 65.0628H55.1534ZM56.8321 109.2C57.0774 111.055 59.0781 111.967 60.6649 112.549C63.2478 113.479 65.894 114.222 68.5834 114.772C75.6846 116.405 83.0924 116.119 90.0468 113.944C91.7267 113.397 93.3332 112.645 94.83 111.706C95.9185 111.009 97.3213 110.05 97.1297 108.579C97.1297 108.456 96.915 108.441 96.915 108.579C96.915 110.296 95.0447 111.308 93.7262 112.036C89.8934 114.182 84.5276 115.255 80.1353 115.508C74.0029 115.853 68.1618 114.634 62.3436 112.925C60.4349 112.365 57.3151 111.492 56.9318 109.177C56.9088 109.138 56.8245 109.146 56.8321 109.2ZM77.3297 101.795C83.3548 102.186 90.1157 102.301 95.2593 98.6292C95.4356 98.5065 95.2593 98.2076 95.0907 98.3379C90.1771 101.879 83.807 101.872 78.0119 101.557C74.6939 101.415 71.3951 100.979 68.1541 100.254C65.2182 99.5643 61.4314 98.7211 59.5534 96.1456C59.5534 96.0919 59.4308 96.1456 59.4691 96.1916C61.1325 98.5755 64.2677 99.4493 66.9276 100.178C70.332 101.064 73.8169 101.606 77.3297 101.795ZM89.6865 36.5325C90.0253 36.4572 90.3345 36.2839 90.5757 36.0343C90.5452 36.2335 90.4858 36.4271 90.3994 36.6092C90.3994 36.6782 90.4684 36.7471 90.522 36.7012C90.644 36.5857 90.7305 36.4377 90.7712 36.2748C90.8119 36.1118 90.8053 35.9406 90.752 35.7813C90.7463 35.7623 90.7347 35.7457 90.7188 35.7338C90.7029 35.722 90.6836 35.7156 90.6638 35.7156C90.644 35.7156 90.6247 35.722 90.6089 35.7338C90.593 35.7457 90.5813 35.7623 90.5757 35.7813C90.4801 35.9537 90.3508 36.105 90.1953 36.2262C90.0399 36.3474 89.8616 36.4359 89.6712 36.4865C89.6252 36.4789 89.6405 36.5478 89.6865 36.5325ZM89.6405 34.2099C89.7015 33.9229 89.7196 33.6284 89.6941 33.3361C89.6941 33.3056 89.682 33.2763 89.6605 33.2548C89.6389 33.2332 89.6097 33.2211 89.5792 33.2211C89.5487 33.2211 89.5194 33.2332 89.4979 33.2548C89.4763 33.2763 89.4642 33.3056 89.4642 33.3361C89.4401 33.6281 89.4556 33.922 89.5102 34.2099C89.517 34.221 89.5266 34.2302 89.538 34.2365C89.5494 34.2429 89.5623 34.2462 89.5753 34.2462C89.5884 34.2462 89.6012 34.2429 89.6126 34.2365C89.624 34.2302 89.6336 34.221 89.6405 34.2099ZM86.8426 32.9988C86.7823 33.2508 86.7823 33.5134 86.8426 33.7653C86.8476 33.7807 86.8574 33.794 86.8705 33.8035C86.8835 33.813 86.8993 33.8181 86.9154 33.8181C86.9315 33.8181 86.9473 33.813 86.9604 33.8035C86.9734 33.794 86.9832 33.7807 86.9882 33.7653C87.0531 33.5139 87.0531 33.2502 86.9882 32.9988C86.9882 32.9605 86.8579 32.9605 86.8426 32.9988ZM87.5785 32.0253C87.4405 31.6497 86.8119 31.7494 86.7123 32.1096C86.8126 32.0106 86.945 31.9508 87.0856 31.941C87.2262 31.9311 87.3657 31.9719 87.4788 32.056C87.4829 32.0692 87.492 32.0802 87.5043 32.0867C87.5165 32.0932 87.5308 32.0945 87.544 32.0905C87.5572 32.0864 87.5682 32.0773 87.5747 32.065C87.5812 32.0528 87.5825 32.0385 87.5785 32.0253ZM89.5945 32.2399C89.7177 32.2364 89.8402 32.2592 89.9539 32.3068C90.0676 32.3544 90.1698 32.4256 90.2537 32.5159C90.2537 32.5159 90.3457 32.5159 90.338 32.4699C90.338 32.1403 89.8168 32.0713 89.5715 32.148C89.5655 32.1495 89.5598 32.1522 89.5548 32.1559C89.5498 32.1596 89.5455 32.1642 89.5423 32.1696C89.5391 32.1749 89.537 32.1808 89.5361 32.187C89.5352 32.1931 89.5355 32.1994 89.537 32.2054C89.5385 32.2115 89.5412 32.2172 89.5449 32.2222C89.5486 32.2272 89.5533 32.2314 89.5586 32.2346C89.5639 32.2378 89.5699 32.2399 89.576 32.2408C89.5822 32.2418 89.5885 32.2415 89.5945 32.2399ZM88.276 35.0224C88.2903 35.0224 88.3039 35.0168 88.314 35.0067C88.324 34.9967 88.3297 34.983 88.3297 34.9688C88.3297 34.9546 88.324 34.9409 88.314 34.9309C88.3039 34.9208 88.2903 34.9151 88.276 34.9151C88.0107 34.8362 87.7539 34.7309 87.5095 34.6009C87.9032 34.2084 88.138 33.6842 88.1687 33.1291H88.0844C88.0715 33.4079 87.9959 33.6802 87.8632 33.9258C87.7305 34.1713 87.5441 34.3837 87.3178 34.5472C87.3051 34.5546 87.2946 34.5653 87.2872 34.578C87.2799 34.5908 87.276 34.6053 87.276 34.62C87.276 34.6348 87.2799 34.6492 87.2872 34.662C87.2946 34.6748 87.3051 34.6854 87.3178 34.6928C87.4477 34.8086 87.5993 34.8974 87.7638 34.954C87.9283 35.0106 88.1024 35.0338 88.276 35.0224ZM90.6447 15.9512C90.6574 15.9659 90.6746 15.9761 90.6935 15.9805C90.7125 15.9848 90.7324 15.983 90.7503 15.9753C90.7682 15.9677 90.7832 15.9545 90.7931 15.9378C90.8031 15.921 90.8075 15.9016 90.8056 15.8822C90.5428 14.8253 90.0993 13.8217 89.4948 12.9157C89.4948 12.9055 89.4908 12.8958 89.4836 12.8886C89.4764 12.8814 89.4667 12.8774 89.4565 12.8774C89.4463 12.8774 89.4366 12.8814 89.4294 12.8886C89.4222 12.8958 89.4182 12.9055 89.4182 12.9157C89.7735 13.9483 90.1829 14.9616 90.6447 15.9512ZM95.5736 14.5637C95.6337 13.4492 95.6055 12.3317 95.4893 11.2217C95.4893 11.2013 95.4812 11.1818 95.4668 11.1675C95.4524 11.1531 95.4329 11.145 95.4126 11.145C95.3923 11.145 95.3728 11.1531 95.3584 11.1675C95.344 11.1818 95.336 11.2013 95.336 11.2217C95.2618 12.3353 95.2797 13.4531 95.3896 14.5637C95.3896 14.5881 95.3993 14.6115 95.4166 14.6288C95.4338 14.646 95.4572 14.6557 95.4816 14.6557C95.506 14.6557 95.5294 14.646 95.5466 14.6288C95.5639 14.6115 95.5736 14.5881 95.5736 14.5637ZM98.6475 15.3993C99.1972 14.5565 99.6547 13.6571 100.012 12.7164C100.012 12.6474 99.9276 12.6091 99.8893 12.6704C99.368 13.5136 98.9234 14.4104 98.4175 15.2613C98.4083 15.2908 98.4092 15.3226 98.4203 15.3515C98.4313 15.3804 98.4517 15.4048 98.4782 15.4207C98.5047 15.4366 98.5358 15.4432 98.5665 15.4393C98.5972 15.4354 98.6257 15.4213 98.6475 15.3993ZM101.231 18.3121C101.896 18.4047 102.573 18.3656 103.224 18.1971C103.323 18.1971 103.354 17.9825 103.224 17.9595C102.546 17.9055 101.864 17.9836 101.215 18.1894C101.207 18.1904 101.2 18.193 101.193 18.197C101.185 18.201 101.179 18.2064 101.174 18.2128C101.164 18.2258 101.16 18.2422 101.162 18.2584C101.164 18.2747 101.172 18.2895 101.185 18.2995C101.198 18.3096 101.214 18.3141 101.231 18.3121ZM92.7527 23.7621C92.2161 24.5286 92.3004 25.0652 93.1896 25.4178C93.1455 25.4669 93.1143 25.5262 93.0988 25.5903C93.0832 25.6544 93.0838 25.7214 93.1005 25.7852C93.1173 25.849 93.1496 25.9077 93.1945 25.9559C93.2395 26.0042 93.2958 26.0405 93.3583 26.0617C93.5254 26.1162 93.7069 26.1064 93.8671 26.034C94.0273 25.9617 94.1548 25.8322 94.2245 25.6708C95.2056 25.8088 95.6579 25.4868 95.5966 24.4137C97.4516 23.9997 99.0997 21.1482 98.3025 18.9023C98.1368 18.4492 97.8831 18.0333 97.5562 17.6785C97.2293 17.3237 96.8356 17.0369 96.3976 16.8346C95.9595 16.6323 95.4859 16.5186 95.0038 16.4998C94.5217 16.4811 94.0406 16.5577 93.5882 16.7254C90.7137 17.8215 90.9053 22.0068 92.7527 23.7621ZM93.6572 25.9237C93.3889 25.9774 93.09 25.7091 93.3046 25.4638C93.3813 25.4638 93.8872 25.6171 94.0711 25.6554C93.9531 25.7816 93.8056 25.8764 93.6419 25.9314L93.6572 25.9237ZM94.7687 25.4868C94.3918 25.5178 94.0123 25.4788 93.6495 25.3718C93.3122 25.3345 92.9967 25.1862 92.7527 24.9502C92.4997 24.567 92.6914 24.1837 92.837 23.8311C93.2165 24.1064 93.6479 24.3019 94.105 24.406C94.5622 24.5101 95.0356 24.5205 95.4969 24.4367C95.4969 24.4367 95.5429 25.3488 94.7534 25.4945L94.7687 25.4868ZM94.0482 16.8633C94.4963 16.7619 94.9601 16.7504 95.4127 16.8294C95.8653 16.9085 96.2977 17.0766 96.6848 17.324C97.072 17.5714 97.4062 17.8932 97.6681 18.2707C97.93 18.6482 98.1143 19.0739 98.2105 19.5232C98.5631 21.3399 97.5053 23.6241 95.8189 24.1224C91.3882 25.5098 89.8475 17.8905 94.0482 16.8633Z" fill="#4C2FB3"/>
<path d="M93.7341 23.6548C93.8184 22.8882 93.9564 22.1217 94.102 21.3552C94.1887 21.5151 94.2556 21.685 94.3013 21.8611C94.3042 21.8719 94.3096 21.882 94.3172 21.8902C94.3248 21.8985 94.3343 21.9048 94.3449 21.9086C94.3554 21.9124 94.3668 21.9135 94.3779 21.9119C94.389 21.9103 94.3996 21.906 94.4086 21.8994C94.5773 21.7844 94.7459 21.6695 94.8992 21.5468C94.8992 21.7154 94.8992 21.9224 94.9605 22.0144C94.9699 22.0198 94.9804 22.0226 94.9912 22.0226C95.002 22.0226 95.0125 22.0198 95.0219 22.0144C95.1744 21.9566 95.3148 21.8708 95.4358 21.7614C95.4358 21.8151 95.3898 22.1677 95.6121 22.2444C95.3361 22.7273 95.0679 23.2255 94.7612 23.6854C94.7612 23.7238 94.7612 23.7621 94.8226 23.6854C95.5409 22.8447 96.1347 21.905 96.5856 20.8953C96.5856 20.8339 96.5319 20.8186 96.5013 20.8569C96.1885 21.2796 95.9043 21.7226 95.6504 22.183C95.4511 22.1217 95.5431 21.5851 95.5124 21.5928C95.4818 21.6005 95.1905 21.8228 95.1138 21.8151C95.0372 21.8074 95.0372 21.4855 95.0449 21.3782C95.0469 21.3676 95.0458 21.3566 95.0415 21.3467C95.0373 21.3368 95.0301 21.3284 95.021 21.3226C95.0119 21.3168 95.0013 21.3139 94.9905 21.3142C94.9797 21.3145 94.9693 21.3181 94.9605 21.3245C94.7716 21.4356 94.5898 21.5585 94.4163 21.6924C94.3599 21.4965 94.269 21.3123 94.148 21.1482C94.2017 20.8646 94.263 20.581 94.3167 20.2974H94.2477C93.9171 21.3932 93.7265 22.5264 93.6804 23.6701C93.6728 23.6931 93.7264 23.6931 93.7341 23.6548Z" fill="#4C2FB3"/>
<path d="M132.782 124.944C131.235 122.972 129.88 120.857 128.735 118.628C128.028 116.986 127.546 115.256 127.301 113.485C126.832 111.308 126.651 109.078 126.765 106.854C127.746 106.662 129.118 106.371 129.524 105.367C129.652 104.986 129.659 104.574 129.542 104.19C129.425 103.805 129.191 103.466 128.873 103.221C127.899 102.454 126.144 102.539 124.963 102.577C125.032 102.531 127.524 100.883 126.427 97.1115C126.169 96.1954 125.633 95.3819 124.893 94.7833C124.153 94.1848 123.246 93.8305 122.296 93.7694C120.464 93.6391 118.241 94.7429 117.574 96.5443C117.124 97.6304 117.061 98.8379 117.394 99.9651C117.728 101.092 118.438 102.071 119.406 102.738C117.781 102.738 114.201 103.129 114.707 105.152C114.952 106.18 116.692 106.685 117.719 106.946C117.95 108.957 117.981 110.985 117.811 113.002C116.83 112.067 108.482 105.336 108.482 105.336H95.911L95.8037 105.244C96.9969 103.792 97.7897 102.054 98.1033 100.201C98.1781 99.3756 98.0804 98.5441 97.8165 97.7589C97.5526 96.9737 97.1282 96.2521 96.5702 95.6397C96.1892 94.3983 96.1181 93.0824 96.3633 91.8071C96.9688 88.9249 100.357 87.6678 100.541 81.3746C100.609 78.9854 100.493 76.5945 100.196 74.2229C101.409 73.8958 102.563 73.3783 103.615 72.6898C105.615 71.3992 107.093 69.4408 107.785 67.1631C109.019 62.564 105.907 58.7313 105.317 58.0338C105.868 57.5908 106.236 56.9605 106.351 56.2631C106.338 55.3822 106.201 54.5075 105.945 53.6645C105.651 52.2507 105.257 50.8598 104.765 49.5023C107.287 47.3811 109.698 45.1295 111.986 42.7568C112.113 42.8513 112.252 42.9287 112.399 42.9868C112.269 56.1251 112.767 94.2983 112.913 100.247C112.913 100.362 113.197 100.346 113.189 100.247C112.775 81.1906 112.545 62.1424 112.706 43.0864C113.061 43.1521 113.429 43.0964 113.748 42.9281C114.068 42.7599 114.322 42.489 114.469 42.1589C115.65 42.8794 119.674 45.225 120.502 45.7233C120.443 46.104 120.491 46.4935 120.639 46.8491C120.787 47.2047 121.029 47.5128 121.341 47.7397C121.652 47.9666 122.02 48.1035 122.404 48.1355C122.787 48.1675 123.173 48.0933 123.517 47.921C123.862 47.7487 124.152 47.4851 124.357 47.1588C124.562 46.8325 124.673 46.4562 124.678 46.0711C124.683 45.686 124.583 45.3068 124.387 44.9751C124.191 44.6433 123.908 44.3718 123.568 44.1902C125.4 41.745 133.886 30.0171 134.652 28.9209C134.43 46.5051 134.944 93.3095 135.12 99.1428C135.125 99.1563 135.134 99.1681 135.145 99.1764C135.157 99.1846 135.171 99.1891 135.185 99.1891C135.2 99.1891 135.213 99.1846 135.225 99.1764C135.237 99.1681 135.246 99.1563 135.25 99.1428C135.013 78.4465 134.813 31.4428 134.836 28.622C135.066 28.2847 135.296 27.9398 135.511 27.5948C135.588 27.4645 135.404 27.3189 135.304 27.4339C135.204 27.5488 134.99 27.8095 134.836 28.0011C134.836 25.1803 134.836 22.3671 134.89 19.5693C134.89 19.5156 134.767 19.5079 134.767 19.5693C134.706 22.4667 134.698 25.3719 134.66 28.2694C133.794 29.3885 125.14 41.538 123.353 44.0982C122.844 43.8919 122.273 43.8945 121.766 44.1053C121.258 44.3162 120.853 44.7184 120.64 45.225C119.781 44.7498 115.742 42.4962 114.561 41.8676C114.616 41.6098 114.609 41.3426 114.54 41.0881C114.472 40.8335 114.344 40.5987 114.168 40.4029C113.992 40.207 113.771 40.0557 113.525 39.9612C113.279 39.8667 113.014 39.8318 112.752 39.8593C112.752 39.0468 112.974 25.5175 113.028 19.5693C113.028 19.5156 112.905 19.5003 112.905 19.5693C112.645 26.353 112.537 33.1598 112.445 39.9513C112.196 40.0407 111.973 40.1896 111.795 40.385C111.616 40.5803 111.488 40.8163 111.422 41.0724C111.355 41.3285 111.352 41.5969 111.413 41.8544C111.474 42.1119 111.597 42.3506 111.771 42.5498C110.79 43.5157 106.098 47.7852 104.68 49.2493C104.42 48.5364 104.144 47.8236 103.845 47.126C103.078 45.2404 102.22 43.2934 100.633 41.9596C99.5678 41.1829 98.4055 40.549 97.1758 40.0739C97.6366 40.1679 98.1158 40.1002 98.5326 39.8823C98.9539 39.6521 99.3201 39.333 99.6058 38.9471C99.6594 38.8628 99.5674 38.7785 99.4831 38.7938C97.1298 39.1618 97.8427 35.8427 97.3061 34.4706C97.0838 33.9187 96.7082 33.2825 96.0643 33.4741C96.1055 33.2892 96.0997 33.0969 96.0475 32.9148C95.9952 32.7327 95.8983 32.5666 95.7654 32.4316C95.9261 32.062 95.992 31.6581 95.9572 31.2566C95.9224 30.855 95.788 30.4685 95.566 30.132C94.9375 29.3655 93.6573 29.4115 92.5765 28.3077C91.7103 27.4262 90.9591 26.629 89.6713 26.422C89.2059 26.3307 88.7251 26.3572 88.2726 26.4991C87.8201 26.641 87.4102 26.8938 87.0803 27.2346C87.0803 24.5747 87.0343 22.2598 87.0803 19.5693C87.0836 19.5611 87.0848 19.5523 87.0839 19.5436C87.0829 19.5349 87.0799 19.5265 87.0749 19.5193C87.07 19.512 87.0634 19.506 87.0557 19.5019C87.0479 19.4978 87.0393 19.4957 87.0305 19.4957C87.0217 19.4957 87.0131 19.4978 87.0054 19.5019C86.9976 19.506 86.991 19.512 86.9861 19.5193C86.9812 19.5265 86.9781 19.5349 86.9772 19.5436C86.9762 19.5523 86.9774 19.5611 86.9807 19.5693C86.7891 22.1847 86.7891 24.8107 86.9807 27.4262C86.7186 27.8639 86.6095 28.3763 86.6705 28.8828C86.7316 29.3893 86.9594 29.8612 87.318 30.224C86.3751 31.9257 85.6929 34.0567 86.3598 35.95C86.5315 36.4588 86.7909 36.9335 87.1263 37.3528C87.1263 37.805 87.0803 39.6524 87.0803 40.7025C86.1393 40.9698 85.1574 41.0633 84.1828 40.9785C82.895 39.6677 81.9675 38.7402 81.9521 38.7249C81.9427 38.7054 81.928 38.689 81.9097 38.6775C81.8914 38.6661 81.8702 38.66 81.8486 38.66C81.827 38.66 81.8059 38.6661 81.7876 38.6775C81.7693 38.689 81.7546 38.7054 81.7451 38.7249C81.5305 39.66 81.3465 40.5875 81.2086 41.5304C79.2385 41.8293 77.1688 40.2962 75.8427 38.9855C74.5462 37.7255 73.4455 36.2786 72.5772 34.6929C72.5672 34.6801 72.5544 34.6698 72.5398 34.6627C72.5251 34.6557 72.5091 34.652 72.4929 34.652C72.4767 34.652 72.4606 34.6557 72.446 34.6627C72.4314 34.6698 72.4186 34.6801 72.4086 34.6929L72.0406 35.0532C72.1125 34.6905 72.1074 34.3168 72.0255 33.9563C71.9436 33.5958 71.7869 33.2565 71.5654 32.9605C71.465 32.8257 71.3272 32.7233 71.1691 32.6661C71.011 32.6089 70.8396 32.5993 70.6762 32.6386C70.6148 32.2017 70.2776 29.8178 69.7026 29.9481C69.4037 30.0094 69.557 30.6533 69.5647 30.8143C69.6039 31.5644 69.6858 32.3117 69.81 33.0525C69.7169 33.1467 69.617 33.2338 69.511 33.3131C69.4311 33.0587 69.3121 32.8182 69.1584 32.6003C69.1067 32.5211 69.0363 32.4559 68.9534 32.4104C68.8705 32.365 68.7777 32.3407 68.6831 32.3397C68.3689 32.3397 68.3075 32.5926 68.3382 32.8379C68.1159 32.7459 67.8476 32.9682 67.9702 33.3591C67.9293 33.345 67.8857 33.3403 67.8427 33.3456C67.7997 33.3509 67.7585 33.366 67.7223 33.3896C67.686 33.4133 67.6557 33.445 67.6335 33.4822C67.6114 33.5195 67.5981 33.5613 67.5946 33.6044C67.5993 33.9723 67.7415 34.325 67.9932 34.5933C68.043 34.6709 68.0793 34.7565 68.1006 34.8462C68.1006 35.766 69.2274 37.0155 70.2239 36.7932C69.8943 37.0998 69.0817 37.6287 69.0128 38.0886C68.9438 38.5486 69.3654 39.1311 69.5263 39.4761C70.4201 41.4513 71.6641 43.2484 73.1981 44.7804C73.7821 45.4726 74.47 46.0699 75.2371 46.5511C71.814 47.2753 68.5192 48.5105 65.4636 50.2152C64.996 50.4604 64.5208 50.7134 64.0608 50.9817C64.3061 40.7792 64.4441 17.2927 64.2525 19.4159C63.9995 21.8305 63.8692 45.294 63.8615 51.089C59.7519 53.4097 55.9723 56.2714 52.6239 59.5975C50.7995 61.4142 49.1668 63.1312 49.3967 65.8677C49.5951 68.0381 50.6152 70.0508 52.2483 71.494C55.0845 73.9776 59.2469 74.1079 61.4469 72.7435C62.3898 72.1686 62.98 71.1644 63.7926 70.4439C64.522 69.7797 65.404 69.3057 66.3605 69.0641C67.2623 69.0082 68.1671 69.1067 69.0357 69.3554L70.6455 69.639C69.7857 75.7119 67.4917 81.4927 63.9535 86.5027C61.7995 89.4079 58.1201 93.0182 57.7061 96.6286C57.3612 99.6334 59.0706 102.929 60.8643 105.352C60.3867 105.353 59.9118 105.423 59.4539 105.559C55.8971 105.559 51.865 105.505 48.3159 105.766V105.275C48.3574 105.034 48.3377 104.786 48.2587 104.554C48.1797 104.323 48.0439 104.115 47.8636 103.949C46.9693 103.421 46.2435 102.65 45.771 101.726C43.9696 98.6599 43.5173 95.5938 43.318 92.106C44.2532 91.9144 45.0964 91.5388 45.219 90.7876C45.38 89.7605 43.1953 89.4002 42.2908 89.3772C42.3368 89.3235 44.8818 86.5564 41.8769 84.1495C41.4308 83.8378 40.8812 83.7114 40.3438 83.7969C40.3898 80.8227 40.4128 77.7259 40.4434 74.7518C40.7889 74.7814 41.1355 74.7094 41.4406 74.5446C41.7456 74.3798 41.9959 74.1294 42.1605 73.8243C44.5291 75.2194 49.665 77.4883 49.665 77.5266C49.6613 77.9634 49.8123 78.3873 50.0915 78.7232C50.3706 79.0591 50.7597 79.2853 51.1897 79.3615C51.6198 79.4378 52.0629 79.3592 52.4406 79.1398C52.8182 78.9204 53.1058 78.5742 53.2525 78.1629C54.8546 78.5078 62.0065 80.2248 63.9842 80.7997C63.9842 81.2596 63.8922 84.7473 63.9842 86.0045C63.9842 86.0289 63.9939 86.0523 64.0111 86.0695C64.0284 86.0868 64.0518 86.0964 64.0762 86.0964C64.1006 86.0964 64.124 86.0868 64.1412 86.0695C64.1585 86.0523 64.1682 86.0289 64.1682 86.0045C64.3476 84.2217 64.3861 82.4276 64.2831 80.6387C65.6783 79.5196 67.2574 78.5921 68.6065 77.4193C68.6831 77.335 68.6065 77.2124 68.4762 77.2583C66.9306 78.1153 65.5139 79.1863 64.2678 80.4395C64.2678 79.7649 64.0685 72.3832 63.8309 71.1951H63.7619C63.6546 72.3985 63.9459 79.8339 63.9459 80.4548C61.9758 79.8186 54.8699 78.1552 53.3061 77.9329C53.419 77.4551 53.3374 76.9521 53.0794 76.5345C52.8213 76.1169 52.4079 75.819 51.9302 75.7061C51.4524 75.5933 50.9494 75.6749 50.5318 75.9329C50.1142 76.1909 49.8162 76.6043 49.7034 77.082C48.4385 76.5455 43.4866 74.1769 42.2525 73.556C42.332 73.2913 42.349 73.0117 42.3021 72.7392C42.2552 72.4668 42.1457 72.209 41.9822 71.9861C41.8187 71.7632 41.6057 71.5812 41.36 71.4546C41.1143 71.328 40.8425 71.2602 40.5661 71.2564C40.6657 58.7696 40.5124 24.3217 40.4358 19.5922C40.4358 19.5309 40.3131 19.5386 40.3131 19.5922C40.3591 36.2566 40.3131 70.7045 40.3131 71.2641C39.9742 71.2994 39.6526 71.431 39.386 71.6432C39.1194 71.8554 38.9192 72.1394 38.8088 72.4617C38.6984 72.7841 38.6825 73.1312 38.7629 73.4623C38.8434 73.7934 39.0169 74.0945 39.2629 74.3302C37.3159 76.4382 31.2985 83.4136 30.1717 84.7244C29.8872 84.4829 29.5334 84.3379 29.1612 84.3103C28.789 84.2827 28.4177 84.3739 28.1007 84.5707C27.7837 84.7676 27.5373 85.06 27.397 85.4058C27.2567 85.7516 27.2298 86.133 27.3201 86.495L18.6658 90.619C18.5055 90.3966 18.2979 90.2126 18.058 90.0801C17.8181 89.9475 17.5518 89.8698 17.2783 89.8524C17.2783 72.2222 17.3779 25.3106 17.2783 19.4696C17.2783 19.4083 17.1556 19.4083 17.1556 19.4696C17.0177 29.9098 17.0483 87.2846 17.0483 89.8524C16.7595 89.8629 16.4771 89.9403 16.2234 90.0787C15.9696 90.2172 15.7516 90.4127 15.5865 90.6499C15.4215 90.8871 15.3138 91.1595 15.2722 91.4455C15.2305 91.7315 15.256 92.0232 15.3466 92.2977C14.1646 92.8334 13.0376 93.4829 11.9814 94.237C11.9814 94.237 11.9814 94.3443 12.0351 94.329C13.2156 93.8614 14.3347 93.1639 15.4692 92.589C15.6202 92.8803 15.8461 93.1262 16.1236 93.3014C16.4012 93.4765 16.7203 93.5746 17.0483 93.5854V99.7177C17.054 99.7367 17.0656 99.7533 17.0815 99.7652C17.0974 99.777 17.1167 99.7834 17.1365 99.7834C17.1563 99.7834 17.1756 99.777 17.1915 99.7652C17.2073 99.7533 17.219 99.7367 17.2246 99.7177V93.5854C17.5277 93.5669 17.8217 93.4748 18.0812 93.3172C18.3407 93.1597 18.558 92.9412 18.7142 92.6809C18.8704 92.4205 18.9609 92.1261 18.9778 91.8229C18.9948 91.5198 18.9376 91.217 18.8114 90.9409C19.3633 90.6726 26.7222 87.2769 27.4657 86.9626C27.5893 87.175 27.7559 87.3592 27.9549 87.5034C28.1538 87.6476 28.3807 87.7487 28.621 87.8C28.8613 87.8514 29.1096 87.852 29.3502 87.8018C29.5907 87.7515 29.818 87.6515 30.0177 87.5083C30.2173 87.365 30.3848 87.1816 30.5093 86.9698C30.6339 86.758 30.7128 86.5225 30.741 86.2784C30.7693 86.0343 30.7461 85.787 30.6732 85.5524C30.6002 85.3178 30.479 85.101 30.3173 84.916C31.9041 83.0073 38.1055 76.3385 39.5849 74.6062C39.7873 74.7256 40.0114 74.8038 40.2441 74.8361C40.2441 77.8102 40.1905 80.9684 40.1751 83.9042L39.6539 83.9655C36.7717 84.3564 36.2274 88.442 38.4504 89.7221C37.5842 89.7221 35.1236 90.0134 35.8825 91.2552C36.2812 91.6913 36.8274 91.9644 37.4156 92.0217C37.9918 94.2399 37.8221 96.586 36.9326 98.6982C36.0488 100.359 34.9282 101.883 33.6058 103.221C32.64 104.317 33.0539 105.72 32.9772 107.092C32.9294 107.376 32.9477 107.667 33.0309 107.943C33.1798 108.214 33.3803 108.453 33.6211 108.648C27.4427 114.749 3.83301 142.153 3.83301 142.176C17.1097 141.969 148.803 139.792 149.478 139.815C149.094 139.386 135.933 127.757 132.782 124.944ZM118.639 101.718C118.192 101.236 117.861 100.658 117.669 100.029C117.478 99.3992 117.432 98.7347 117.535 98.085C117.572 97.452 117.752 96.8356 118.063 96.283C118.374 95.7303 118.807 95.256 119.329 94.8962C120.283 94.2065 121.472 93.9232 122.634 94.1086C123.797 94.2939 124.838 94.9328 125.53 95.885C126.841 97.8474 126.995 100.806 125.147 102.278C124.192 103.018 122.993 103.373 121.789 103.274C120.585 103.174 119.461 102.628 118.639 101.741V101.718ZM115.696 105.942C115.517 105.856 115.36 105.73 115.237 105.574C115.115 105.417 115.031 105.235 114.991 105.04C114.951 104.846 114.956 104.645 115.006 104.453C115.057 104.261 115.151 104.083 115.282 103.934C115.734 103.604 116.261 103.394 116.815 103.32C117.786 103.079 118.781 102.948 119.781 102.929C120.587 103.291 121.467 103.457 122.349 103.413C123.231 103.369 124.09 103.117 124.856 102.677C125.961 102.722 127.059 102.869 128.137 103.113C129.586 103.512 129.884 105.589 128.443 106.049C122.265 108.027 116.807 106.708 115.696 105.965V105.942ZM100.265 77.7183C100.414 79.4192 100.414 81.13 100.265 82.831C99.7054 87.7598 96.7235 89.0476 96.164 91.8914C96.0606 92.98 96.0606 94.0759 96.164 95.1645C92.7145 90.9026 92.4002 85.8512 92.1396 80.4318C93.1744 78.2088 94.2169 76.0472 94.6998 75.2117C96.0205 75.1364 97.3315 74.9414 98.6169 74.6291C99.0462 74.5218 99.4908 74.4145 99.9354 74.2919C100.096 75.434 100.196 76.5761 100.265 77.7183ZM94.9988 57.6812C95.612 58.8616 96.2329 60.1954 96.8002 61.5981L96.5702 61.7131C94.5663 62.6584 92.6277 63.7365 90.7674 64.9402C90.4838 62.9012 90.1312 60.8699 89.6943 58.8539C91.4803 58.5397 93.2587 58.1564 94.9988 57.6812ZM97.2985 35.0992C97.6357 36.7089 97.0761 38.2726 98.4866 38.8858C98.5479 38.8858 99.2531 39.0238 99.2531 39.0238C99.2531 39.0238 98.6169 39.6294 98.5403 39.683C97.9764 39.9398 97.3452 40.0097 96.7389 39.8823L95.681 39.4607L94.9145 38.2496C94.8947 38.2313 94.8686 38.2211 94.8417 38.2211C94.8147 38.2211 94.7887 38.2313 94.7688 38.2496L94.5925 38.3646C94.5918 37.0672 94.7777 35.7764 95.1444 34.5319C95.5967 34.5319 95.911 34.0414 96.026 33.6428C96.7312 33.4205 97.1451 34.4016 97.2908 35.0992H97.2985ZM95.1368 38.9318C95.5814 39.6447 93.2357 41.1011 92.7298 41.3617C92.2239 41.6223 91.9096 40.1813 91.8099 39.8287C91.9863 39.729 94.7075 38.2726 95.1291 38.9548L95.1368 38.9318ZM95.9033 33.5661C95.8037 33.9954 95.1368 34.3326 95.1368 34.3326C95.2594 33.9187 95.681 32.7229 95.7424 32.5236C95.839 32.6831 95.8994 32.8619 95.9193 33.0474C95.9391 33.2328 95.918 33.4204 95.8573 33.5968L95.9033 33.5661ZM86.996 29.2735C86.0992 27.3572 88.3988 26.2841 89.9702 26.652C91.1277 26.9279 91.7793 27.7098 92.5765 28.4993C93.78 29.7028 95.1598 29.4115 95.6427 30.6303C96.1256 31.8491 95.0984 33.1062 94.6079 35.7277C94.5953 35.7195 94.5807 35.7151 94.5657 35.7151C94.5507 35.7151 94.5361 35.7195 94.5235 35.7277C94.2552 35.789 93.3661 35.7967 93.4504 35.3828C93.4504 35.2218 93.872 34.9842 93.987 34.8079C94.1098 34.6716 94.196 34.5063 94.2373 34.3275C94.2786 34.1487 94.2738 33.9624 94.2231 33.786C94.1725 33.6096 94.0779 33.4491 93.948 33.3194C93.8182 33.1897 93.6575 33.0952 93.481 33.0449C93.2281 32.9375 92.6455 33.0449 92.4922 32.9222C92.2086 32.7076 92.3695 32.2017 92.4002 31.8644C92.3996 31.845 92.3947 31.826 92.3858 31.8088C92.377 31.7915 92.3643 31.7765 92.3489 31.7647C92.3335 31.753 92.3156 31.7448 92.2967 31.7409C92.2777 31.7369 92.2581 31.7372 92.2392 31.7418C91.212 31.9838 90.1334 31.8753 89.1749 31.4336C88.2165 30.9919 87.4333 30.2423 86.95 29.3042L86.996 29.2735ZM87.4329 30.3467C87.9079 30.8989 88.4959 31.3427 89.1571 31.6482C89.8183 31.9536 90.5373 32.1136 91.2657 32.1174C91.5342 32.0687 91.8057 32.0379 92.0782 32.0254C92.2775 32.1863 92.1242 32.7919 92.0782 33.0525C92.0782 33.1368 92.1549 33.1752 92.2239 33.1675C92.9904 33.0449 94.2782 33.2135 93.9333 34.4016C93.7897 34.7845 93.5191 35.1064 93.1667 35.3138C93.1553 35.3239 93.1462 35.3362 93.1399 35.3501C93.1336 35.364 93.1304 35.3791 93.1304 35.3943C93.1304 35.4095 93.1336 35.4246 93.1399 35.4384C93.1462 35.4523 93.1553 35.4647 93.1667 35.4748C93.3356 35.6805 93.5647 35.8282 93.8218 35.897C94.079 35.9657 94.3512 35.9521 94.6002 35.858C94.4438 36.687 94.4179 37.5353 94.5235 38.3723C93.5755 38.8359 92.5942 39.2279 91.5877 39.545C91.2617 40.356 90.8827 41.1447 90.4532 41.906C90.1542 41.3311 89.38 39.7213 89.2497 39.568H89.1807L89.4336 38.6559C89.4386 38.6336 89.435 38.6102 89.4237 38.5904C89.4124 38.5705 89.394 38.5556 89.3723 38.5486C88.6231 38.3809 87.9393 37.9976 87.4053 37.446C86.8714 36.8943 86.5106 36.1984 86.3674 35.4441C85.9382 33.6504 86.6204 31.9257 87.387 30.3773L87.4329 30.3467ZM88.5904 38.4412C89.219 38.6942 89.2114 38.7478 89.0427 39.4224C88.7916 39.3143 88.5608 39.1639 88.3605 38.9778C88.3526 38.9682 88.3426 38.9604 88.3314 38.9551C88.3201 38.9498 88.3078 38.947 88.2953 38.947C88.2829 38.947 88.2706 38.9498 88.2593 38.9551C88.248 38.9604 88.2381 38.9682 88.2302 38.9778C87.6323 40.2656 87.5939 40.2273 87.6782 40.2962L87.8622 40.4419C87.6862 40.4635 87.5137 40.5073 87.3486 40.5722C87.3486 39.4914 87.3026 38.7172 87.3486 37.5751C87.6809 37.9535 88.0881 38.2589 88.5445 38.4719L88.5904 38.4412ZM86.0455 41.1624C86.6051 41.0398 87.4866 40.5339 88.0999 40.6642C88.3266 40.8641 88.5368 41.082 88.7284 41.3157C88.7744 41.3771 88.8587 41.3157 88.8664 41.2621C88.8938 40.8963 88.9686 40.5355 89.0887 40.1889C89.0887 40.1046 88.9891 40.0739 88.9584 40.1889C88.8441 40.4875 88.7669 40.799 88.7284 41.1164C88.6134 40.9861 87.8622 40.3039 87.8775 40.1199C87.9663 39.8453 88.0982 39.5865 88.2685 39.3534C88.4371 39.2768 88.9661 39.7137 89.1117 39.8287C89.2573 39.9436 90.0699 41.607 90.3995 42.0669H90.5221C90.7828 41.653 91.534 40.2043 91.7103 40.0126C91.9463 40.5916 92.0861 41.2052 92.1242 41.8293C92.1242 41.906 92.2086 41.9443 92.2699 41.9136C93.4197 41.2084 94.4929 40.4266 95.6197 39.683C100.38 41.3617 101.752 42.7491 103.408 46.5818C104.65 49.2639 105.529 52.0994 106.022 55.0136C106.198 55.5724 106.198 56.1719 106.022 56.7307C105.756 57.2595 105.38 57.7249 104.918 58.0951C102.271 59.0744 99.6792 60.1952 97.1528 61.4525C96.6527 60.1116 96.0129 58.8269 95.2441 57.6198C97.3368 57.0373 98.9925 56.0255 99.9047 53.9865C100.881 51.5655 101.401 48.9849 101.438 46.3748C101.438 46.2752 101.3 46.2752 101.292 46.3748C101.009 49.1343 100.564 53.4959 98.6936 55.5732C97.6043 56.6027 96.2371 57.2902 94.7612 57.5508C93.2281 57.9418 91.695 58.2637 90.1619 58.5627C89.3493 58.716 86.0072 59.5362 85.5012 59.0226C85.4553 58.9229 84.4894 56.8456 84.3054 56.3627C83.9375 55.4199 84.3054 55.5272 85.072 55.1669C87.7702 53.9941 89.587 51.4646 91.9709 49.8012C91.9951 49.7884 92.0142 49.7678 92.0253 49.7428C92.0364 49.7178 92.0389 49.6898 92.0322 49.6632C91.7433 47.8634 91.7692 46.0271 92.1089 44.2362C92.1089 44.1672 92.0169 44.1366 92.0016 44.2362C91.735 45.4204 91.6165 46.6332 91.649 47.8466C91.7086 48.3196 91.7419 48.7956 91.7486 49.2723C91.3836 48.7547 90.9895 48.2582 90.5681 47.7852C90.4225 46.2982 90.3305 44.8418 90.2692 43.347C90.2692 43.2704 90.1695 43.278 90.1542 43.347C89.9815 44.7929 90.075 46.2581 90.4302 47.6703C88.7897 45.7769 86.2295 43.1247 84.3514 41.2084C84.8971 41.3043 85.4557 41.2991 85.9995 41.1931L86.0455 41.1624ZM82.895 57.8881C82.596 58.0338 81.0169 58.762 81.3619 57.9954C81.763 57.951 82.1366 57.7696 82.4197 57.4819C82.4241 57.4744 82.4264 57.4659 82.4261 57.4572C82.4259 57.4485 82.4232 57.4401 82.4184 57.4329C82.4136 57.4257 82.4069 57.42 82.399 57.4164C82.391 57.4129 82.3823 57.4117 82.3737 57.4129C82.1438 57.4895 80.1814 58.3404 81.6532 57.2442C81.9291 57.0373 82.5807 56.815 82.642 56.4777C82.6466 56.4573 82.6446 56.4359 82.6364 56.4166C82.6281 56.3973 82.614 56.3812 82.596 56.3704C82.434 56.283 82.2944 56.1593 82.188 56.0091C82.0817 55.8588 82.0114 55.6861 81.9828 55.5042C82.5861 55.8426 83.2615 56.0318 83.9528 56.0561C84.1904 56.723 84.4511 57.3975 84.7194 58.0414C84.2978 58.3097 81.3849 59.3675 81.7758 58.5167C82.2042 58.4623 82.6056 58.2777 82.9256 57.9878C82.9256 57.9878 82.8796 57.8958 82.849 57.9188L82.895 57.8881ZM91.6873 49.4563C91.6645 49.5567 91.6201 49.6509 91.557 49.7322C91.1438 50.1219 90.7004 50.4782 90.2309 50.7977C89.5333 51.4109 88.8587 52.0625 88.1612 52.691C87.3946 47.8466 84.911 43.3317 82.3047 39.2231C83.8455 40.7868 89.9472 47.5246 91.6413 49.5099L91.6873 49.4563ZM69.7563 31.6421C69.6765 31.1765 69.6508 30.7032 69.6797 30.2317C69.9633 30.0707 70.4462 32.355 70.4922 32.6923C70.2708 32.784 70.06 32.8997 69.8636 33.0372C69.879 32.5696 69.8176 32.102 69.7563 31.6421ZM69.3884 33.3975C69.1124 33.6887 69.1891 33.934 69.649 33.9877C69.557 34.1793 69.3117 34.1257 69.1507 33.9877C68.8561 33.6743 68.6336 33.3002 68.4992 32.8916C68.4148 32.0637 69.3117 32.8532 69.419 33.3975H69.3884ZM68.3535 32.9605C68.3752 33.0662 68.4086 33.169 68.4532 33.2672C68.6525 33.6887 68.9744 34.279 69.4344 34.302C69.4344 35.1528 68.7905 34.302 68.6678 34.095C68.3305 33.6351 67.8323 32.9605 68.3535 32.9605ZM67.9013 34.279C67.9013 34.2253 67.4183 33.3361 67.9779 33.4741C68.2854 33.9235 68.6235 34.3512 68.9898 34.7542C68.7828 35.6664 68.2769 34.7542 68.2232 34.6392C68.1047 34.5158 67.997 34.3824 67.9013 34.2406V34.279ZM68.2769 35.0455C68.3228 35.1201 68.3831 35.1849 68.4541 35.2362C68.5251 35.2875 68.6056 35.3243 68.6908 35.3445C68.9438 35.3445 69.0817 35.1068 69.1047 34.8845C69.6797 34.8845 69.5723 34.3173 69.5493 34.302C69.6124 34.2929 69.6701 34.2617 69.7122 34.2139C69.7544 34.1662 69.7781 34.105 69.7793 34.0414C70.251 34.0824 70.7235 33.9723 71.1284 33.7271C71.1434 33.717 71.1543 33.702 71.1593 33.6847C71.1643 33.6673 71.163 33.6488 71.1557 33.6323C71.1484 33.6159 71.1355 33.6025 71.1193 33.5946C71.1031 33.5867 71.0846 33.5847 71.0671 33.5891C70.6964 33.7955 70.2687 33.8762 69.8483 33.8191C69.3117 33.6121 69.6107 33.4818 69.81 33.3208C69.996 33.1624 70.1961 33.0212 70.4079 32.8992C71.0978 32.516 71.6574 33.0755 71.8337 33.7041C71.9118 34.165 71.9247 34.6346 71.872 35.0992C71.872 35.0992 70.8755 36.1646 70.3389 36.6322C69.4497 36.6782 68.7138 36.295 68.2769 34.9995V35.0455ZM73.9647 45.3323C72.2831 43.8315 70.9221 42.0064 69.9633 39.9666C69.6412 39.464 69.4175 38.9047 69.304 38.3186C69.3577 37.759 72.1249 35.1682 72.2629 35.1528C72.6769 35.0838 73.681 36.8775 74.0183 37.3068C74.6738 38.184 75.4104 38.9975 76.2183 39.7367C77.5215 40.8711 79.3458 42.0363 81.1396 41.7833C80.9017 43.3633 80.8094 44.9619 80.8636 46.5588C79.088 46.2543 77.2734 46.2543 75.4978 46.5588C74.9158 46.2282 74.3969 45.7974 73.9647 45.2864V45.3323ZM59.9138 103.328C58.7777 101.576 58.1197 99.5569 58.0051 97.4718C58.0051 93.5165 62.0448 89.7605 64.4135 86.472C67.8739 81.4559 70.1107 75.6986 70.9445 69.662C70.9445 69.6084 72.9375 69.5777 73.957 69.5317C76.6016 69.4167 79.0546 69.0335 80.58 66.6189C80.58 66.5652 80.5263 66.5116 80.488 66.5652C79.7779 67.6142 78.7603 68.4176 77.5751 68.8648C76.1602 69.2512 74.6942 69.4167 73.2288 69.3554C71.9132 69.4168 70.5949 69.363 69.2887 69.1944C68.2002 69.0335 67.127 68.6272 66.0309 68.9338C65.2051 69.2045 64.4415 69.6371 63.7849 70.2063C62.8804 70.9728 62.2518 72.0306 61.2553 72.6208C59.1319 73.8396 56.1807 73.5253 54.0727 72.4522C50.0176 70.3902 48.8295 65.5074 50.2399 62.8399C50.8955 61.734 51.7119 60.7316 52.6622 59.8658C56.0586 56.4301 59.9309 53.5002 64.1605 51.1656C75.2678 45.1407 81.0246 46.7734 81.0246 46.7581C81.0246 46.7428 81.2776 41.561 81.8601 39.0928C84.5431 43.3547 87.18 47.8772 87.9312 52.8903C86.7551 54.0345 85.3189 54.8762 83.7458 55.3432C83.7195 55.352 83.6972 55.3701 83.6831 55.394C83.669 55.418 83.6641 55.4462 83.6692 55.4736C83.7229 55.6345 83.7765 55.7878 83.8378 55.9488C83.425 55.9071 83.0228 55.793 82.6497 55.6115C82.3914 55.4526 82.1093 55.3362 81.8141 55.2666C81.7999 55.2632 81.7851 55.263 81.7708 55.2659C81.7564 55.2689 81.7429 55.275 81.7312 55.2838C81.7195 55.2926 81.7099 55.3038 81.703 55.3168C81.6962 55.3297 81.6922 55.344 81.6915 55.3586C81.6903 55.5809 81.7457 55.7998 81.8525 55.9948C81.9215 56.1098 82.3277 56.3857 82.3277 56.4394C82.3277 56.654 81.4232 57.1293 81.2546 57.2749C81.0859 57.4205 80.8176 57.5585 80.81 57.8268C80.8023 58.0951 81.0399 58.0031 81.1319 58.0108C81.0925 58.0428 81.0614 58.084 81.0414 58.1308C81.0214 58.1775 81.013 58.2284 81.0169 58.2791C81.0169 58.4554 81.3849 58.509 81.4385 58.509C81.2929 58.647 81.4385 58.9383 81.7298 58.9996C82.2487 59.0275 82.7684 58.96 83.2629 58.8003C83.7888 58.6709 84.2907 58.4587 84.75 58.1717C85.5166 59.7048 85.6009 59.4978 86.8197 59.3139C87.7089 59.1836 88.5981 59.0379 89.4873 58.8846C89.9242 60.9312 90.2539 63.0085 90.5451 65.0858C89.8281 65.6111 89.1724 66.2154 88.5904 66.8872C86.3904 69.4627 85.7005 72.1839 84.6734 76.2005C83.9679 78.9612 83.5441 81.7862 83.4086 84.6324C83.811 85.023 84.2618 85.3604 84.75 85.6365C84.6887 85.8818 84.5201 86.7557 84.4817 86.9473C83.6953 87.2522 82.9275 87.6028 82.1821 87.9974C82.0518 88.1048 81.6838 88.4957 82.6037 88.764C83.5235 89.0323 86.7737 89.8984 87.134 89.6531C87.226 89.4385 87.4559 87.8058 87.9005 86.5334C88.4538 86.5523 89.0073 86.5034 89.5486 86.3877C89.8399 85.5675 90.8594 83.2603 91.9403 80.9147C92.2852 86.5564 92.8295 91.2859 95.8497 95.0495C96.6555 95.889 97.2884 96.8787 97.7124 97.9623C97.9742 99.222 97.884 100.529 97.4518 101.741C96.8692 103.964 94.4316 106.425 93.872 106.954C90.5145 110.181 86.2065 111.392 81.6608 111.614C77.3911 111.821 72.9145 112.005 68.8441 110.526C64.0992 108.847 62.0908 107 59.9138 103.328ZM87.6706 86.5717C87.5556 86.8017 87.249 87.6678 87.18 87.8518C86.4318 87.4827 85.6339 87.2244 84.8113 87.0853C84.8113 86.909 84.9493 86.0888 84.9723 85.8512C85.7974 86.3131 86.7251 86.5608 87.6706 86.5717ZM61.0406 105.582C62.4031 107.474 64.2592 108.957 66.4065 109.867C71.0058 112.105 73.6197 112.074 78.6713 112.021C83.0789 112.021 87.5556 111.691 91.3807 109.269C92.9851 108.245 94.4161 106.972 95.6197 105.497C97.4211 107.199 98.3716 109.491 99.2072 111.783C99.9688 114.222 100.571 116.708 101.009 119.226C99.3681 122.146 95.9263 123.618 92.8831 124.592C88.8002 125.79 84.5862 126.485 80.3347 126.661C75.3981 126.953 70.0169 127.014 65.0037 125.78C62.9594 125.269 60.9697 124.561 59.0629 123.664H59.0246C57.9562 123.14 56.9309 122.533 55.9584 121.847C55.11 121.191 54.313 120.471 53.5744 119.693C53.4359 119.49 53.3549 119.253 53.3401 119.008C53.3252 118.762 53.3771 118.517 53.4901 118.298C54.0037 116.551 54.3257 114.757 54.6936 112.933C55.3375 109.652 57.0776 105.52 61.0406 105.582ZM38.1744 89.2009C37.0859 88.2811 37.1013 86.4644 37.8602 85.3222C38.619 84.1801 40.98 83.3906 41.9842 84.5557C45.2267 88.419 40.7807 91.4238 38.1744 89.2009ZM37.1856 89.9674C37.669 89.8473 38.1611 89.7652 38.6574 89.7221C39.1906 90.0036 39.7883 90.1404 40.3908 90.1189C40.9934 90.0973 41.5797 89.9183 42.0915 89.5995C42.0915 89.5995 46.5758 89.9214 44.2609 91.5618C43.341 92.2134 41.4016 92.1137 40.7117 92.1137C37.7145 92.1214 34.2804 90.9026 37.1856 89.9828V89.9674ZM33.4218 107.904C33.0922 107.429 33.2762 106.578 33.2685 106.026C33.2685 105.076 33.0539 104.202 33.6825 103.397C34.1884 102.738 34.7863 102.132 35.3076 101.481C37.4846 98.7672 38.5271 95.4098 37.6072 91.9757C38.7293 92.2717 39.8894 92.3984 41.049 92.3513C41.7733 92.341 42.4959 92.277 43.2107 92.1597C43.2107 97.8474 45.426 102.255 47.0434 103.596C47.396 103.895 47.9786 104.141 48.1396 104.6C48.2819 105.855 48.2119 107.125 47.9326 108.356C47.695 108.832 46.9514 109.123 46.4915 109.345C44.8112 110.109 42.9673 110.444 41.1257 110.319C39.2009 110.333 37.2886 110.009 35.4762 109.361C34.675 109.072 33.9657 108.575 33.4218 107.92V107.904ZM30.0184 141.425C28.8225 141.425 11.8281 141.54 4.38492 141.831C9.3675 136.304 19.7159 124.254 20.2218 123.71H39.8609L46.3382 111.952H30.8539C31.3522 111.361 33.1535 109.368 33.7361 108.655C34.0622 108.918 34.4111 109.152 34.7786 109.353C36.4573 110.143 38.2892 110.554 40.1445 110.556C41.8538 110.744 43.5834 110.593 45.2344 110.112C46.0398 109.838 46.8113 109.472 47.534 109.023C48.1013 108.663 48.1089 108.372 48.1856 107.69C48.2622 107.007 48.2929 106.524 48.3236 105.942L49.5041 105.988L46.3152 111.952H54.6399C54.433 112.764 54.2643 113.584 54.0957 114.397C53.9271 115.209 52.8922 118.912 52.8922 119.226C53.0685 120.054 54.3027 120.912 54.9159 121.411C56.0148 122.284 57.2078 123.032 58.4727 123.641C52.256 123.687 46.0393 123.641 39.8302 123.71L30.0184 141.425ZM70.6455 140.773L70.3082 126.807C77.3591 127.415 84.4617 126.897 91.35 125.274C93.2637 124.814 95.122 124.149 96.8922 123.289H99.8817C99.6144 122.825 99.3588 122.355 99.1152 121.878C99.9679 121.182 100.672 120.322 101.185 119.349C100.697 116.606 100.034 113.897 99.1995 111.239L99.0539 110.825H114.722C115.029 111.078 116.953 112.733 117.643 113.247C117.661 113.259 117.682 113.266 117.704 113.266C117.726 113.266 117.747 113.259 117.765 113.247C117.648 114.379 117.427 115.497 117.106 116.589C116.34 119.111 114.668 121.142 112.905 123.043L99.8741 123.312L109.947 140.175C109.655 140.168 75.7967 140.712 70.6225 140.773H70.6455ZM132.452 131.743C131.18 133.92 124.22 134.71 122.894 134.756C118.846 134.656 113.427 134.135 111.932 132.111C111.24 130.64 110.991 128.999 111.216 127.389C111.441 125.779 112.129 124.269 113.197 123.043C115.02 121.363 116.435 119.289 117.336 116.98C118.394 113.868 118.363 110.265 118.026 107.015C120.854 107.404 123.725 107.368 126.542 106.908C126.442 109.021 126.612 111.138 127.048 113.209C127.715 116.965 127.999 118.429 130.774 122.484C131.31 123.25 131.847 124.07 132.422 124.837C133.618 127.106 133.181 129.689 132.429 131.743H132.452Z" fill="#4C2FB3"/>
<path d="M44.9582 104.815C45.0348 104.769 44.9582 104.639 44.8892 104.677C41.1408 106.21 35.5222 104.922 34.2727 103.642C34.2636 103.633 34.2512 103.628 34.2382 103.628C34.2253 103.628 34.2129 103.633 34.2037 103.642C34.1946 103.651 34.1895 103.664 34.1895 103.677C34.1895 103.69 34.1946 103.702 34.2037 103.711C37.3542 106.409 43.3025 105.819 44.9582 104.815ZM43.8084 90.6266C42.7654 91.0176 41.6564 91.2024 40.5429 91.1708C39.8377 91.1708 37.1932 91.3011 37.0246 90.4043H36.9479C37.4308 91.7534 42.5743 91.3778 43.8467 90.6726C43.8927 90.6879 43.862 90.6036 43.8084 90.6266Z" fill="#4C2FB3"/>
</svg>
