<svg width="200" height="200" viewBox="0 0 200 200" fill="none" xmlns="http://www.w3.org/2000/svg">
<path d="M109.782 65.4226C108.952 65.8486 110.32 67.3756 110.636 66.1876C110.686 65.8226 110.155 65.2306 109.782 65.4226Z" fill="white"/>
<path d="M114.597 64.0877C114.647 63.7227 114.117 63.1337 113.743 63.3237C112.915 63.7557 114.281 65.2757 114.597 64.0877Z" fill="white"/>
<path d="M67.1352 125.274C67.006 125.304 66.8942 125.384 66.8242 125.497C66.7543 125.61 66.732 125.746 66.7622 125.875C66.7924 126.004 66.8727 126.116 66.9854 126.186C67.0982 126.256 67.234 126.278 67.3632 126.248C74.8176 124.516 82.5506 124.351 90.072 125.764C97.5934 127.177 104.739 130.137 111.057 134.456C111.164 134.456 111.268 134.422 111.354 134.359C111.44 134.295 111.504 134.206 111.535 134.104C111.567 134.003 111.565 133.893 111.53 133.792C111.495 133.691 111.429 133.604 111.341 133.544C104.952 129.17 97.7206 126.176 90.1094 124.752C82.4982 123.328 74.6739 123.506 67.1352 125.274Z" fill="white"/>
<path d="M114.356 130.396C102.894 123.228 90.084 118.41 76.493 120.409C76.3652 120.43 76.2507 120.5 76.1736 120.604C76.0964 120.708 76.0627 120.838 76.0794 120.966C76.0961 121.095 76.162 121.212 76.2632 121.293C76.3644 121.373 76.493 121.412 76.622 121.4C85.001 120.301 93.5217 121.404 101.345 124.6C105.66 126.512 109.831 128.733 113.827 131.245C113.94 131.315 114.075 131.337 114.205 131.307C114.334 131.277 114.446 131.197 114.516 131.085C114.586 130.972 114.609 130.836 114.579 130.707C114.549 130.578 114.469 130.466 114.356 130.396Z" fill="white"/>
<path d="M85.4423 116.763C85.3097 116.767 85.1844 116.825 85.094 116.922C85.0036 117.019 84.9555 117.148 84.9603 117.281C84.9651 117.413 85.0223 117.539 85.1195 117.629C85.2166 117.719 85.3457 117.767 85.4783 117.763C97.0079 117.354 108.291 121.162 117.214 128.475C117.701 128.891 118.362 128.109 117.849 127.702C108.72 120.267 97.2103 116.382 85.4423 116.763Z" fill="white"/>
<path d="M82.6924 113.122C82.5598 113.131 82.4364 113.193 82.3495 113.294C82.2626 113.395 82.2192 113.526 82.2289 113.658C82.2386 113.791 82.3005 113.914 82.4011 114.001C82.5017 114.088 82.6328 114.131 82.7654 114.122C96.6946 113.09 110.485 117.471 121.265 126.352C121.748 126.769 122.415 125.987 121.899 125.58C110.913 116.549 96.8758 112.089 82.6924 113.122Z" fill="white"/>
<path d="M87.5527 110.878C94.2917 109.951 101.153 110.569 107.618 112.684C114.084 114.798 119.984 118.355 124.873 123.085C125.323 123.54 126.048 122.815 125.568 122.367C120.563 117.541 114.53 113.911 107.922 111.75C101.315 109.588 94.3029 108.952 87.4137 109.888C87.2849 109.909 87.1696 109.98 87.0922 110.085C87.0149 110.19 86.9818 110.321 87 110.451C87.0181 110.58 87.0861 110.697 87.1894 110.777C87.2927 110.857 87.423 110.893 87.5527 110.878Z" fill="white"/>
<path d="M36.3058 113.171C33.5908 113.827 33.3838 117.631 36.4508 117.671C40.5898 117.694 40.6808 112.113 36.3058 113.171ZM38.4058 115.765C38.1116 116.119 37.7245 116.385 37.2879 116.532C36.8512 116.678 36.3823 116.701 35.9338 116.596C34.5698 116.096 35.2038 114.479 36.6118 114.123C37.7058 113.597 39.1638 114.663 38.4048 115.765H38.4058Z" fill="white"/>
<path d="M153.549 125.969C152.991 125.969 152.737 125.969 151.284 135.181C150.584 139.597 149.93 144.262 149.815 145.12C149.876 146.15 151.876 145.666 152.59 145.82C169.209 145.616 169.611 127.206 153.549 125.969ZM162.284 141.106C159.4 144.294 154.592 145.072 150.876 144.742C151.464 140.442 153.197 128.802 153.825 126.98C161.623 127.369 167.884 134.915 162.284 141.106Z" fill="white"/>
<path d="M195.253 55.2017C193.399 53.8087 191.203 54.9917 189.54 53.5127C189.374 53.3513 189.176 53.2267 188.958 53.1468C188.741 53.067 188.509 53.0337 188.278 53.0491C188.047 53.0646 187.821 53.1285 187.616 53.2366C187.412 53.3447 187.232 53.4946 187.088 53.6767C186.517 54.3821 186.185 55.2517 186.142 56.1587C180.251 62.2277 173.272 66.9167 162.342 69.5637C164.629 67.218 166.497 64.4981 167.865 61.5217C171.165 53.4727 157.792 47.3217 151.965 45.8597C151.707 44.7687 152.497 43.0267 152.818 41.9087C153.183 40.4357 152.118 39.7087 151.338 40.1087C149.417 40.7427 148.495 42.8607 147.38 44.3197C145.201 47.2197 146.845 48.0947 149.404 49.4037C149.328 49.5027 149.294 49.6278 149.31 49.7518C149.325 49.8758 149.389 49.9886 149.487 50.0657C150.809 51.3797 157.287 56.5297 154.759 58.4897C153.391 59.5467 149.292 62.7137 146.912 64.7387C142.269 64.5147 140.243 64.5037 137.244 65.0207C137.208 65.0272 137.175 65.0455 137.151 65.0727C137.126 65.1 137.111 65.1347 137.109 65.1713C137.106 65.2079 137.116 65.2443 137.136 65.2748C137.157 65.3053 137.187 65.3281 137.221 65.3397C146.066 69.6057 147.656 81.0327 144.797 89.1897C146.76 89.0537 150.202 89.2737 151.832 88.5147C157.992 87.9037 166.7 86.2147 171.286 83.6077C175.98 81.0515 180.048 77.4853 183.196 73.1664C186.345 68.8474 188.495 63.8835 189.492 58.6327C191.281 57.9659 193.117 57.4311 194.984 57.0327C195.85 56.8967 196.484 55.6367 195.253 55.2017ZM155.896 48.2447C161.284 50.3537 169.373 55.5327 166.954 61.1067C165.4 64.4929 163.177 67.5298 160.419 70.0347C159.44 70.2727 158.15 70.5267 157.15 70.7487C160.067 67.8434 162.72 64.685 165.078 61.3107C165.74 60.4615 166.158 59.4489 166.29 58.3807C165.778 54.8857 162.49 53.8887 159.773 52.0307C158.368 51.2481 157.015 50.376 155.721 49.4197C155.838 49.039 155.897 48.6429 155.896 48.2447ZM150.409 48.8207L148.262 47.6447C147.72 47.3527 147.162 46.8917 147.437 46.2227C148.083 45.0405 148.818 43.9098 149.637 42.8407C150.116 41.9906 150.888 41.344 151.809 41.0217C151.881 41.0577 151.931 41.3457 151.869 41.6087C151.367 42.9405 151.02 44.3256 150.834 45.7367C150.776 46.0269 150.791 46.327 150.878 46.6098C150.966 46.8926 151.123 47.149 151.334 47.3557C151.21 47.9387 150.882 48.4582 150.409 48.8207ZM151.749 50.7497C151.401 50.4307 151.071 50.1007 150.736 49.8137C151.218 49.5192 151.62 49.1112 151.908 48.6254C152.196 48.1396 152.36 47.5907 152.386 47.0267C153.174 47.2657 154.004 47.5427 154.835 47.8447C155.25 49.6847 153.488 51.6337 151.749 50.7497ZM145.72 65.6557C146.264 65.6067 146.909 65.9197 147.399 65.6417C149.731 63.6417 153.977 60.3617 155.344 59.3047C158.113 57.0767 154.7 53.8117 152.892 51.9287C153.399 51.9075 153.891 51.752 154.318 51.4781C154.745 51.2041 155.092 50.8216 155.322 50.3697C158.052 52.7917 164.456 54.6447 165.293 58.3277C165.171 59.2047 164.817 60.0332 164.267 60.7277C161.829 64.2216 159.072 67.4813 156.03 70.4647C155.536 69.8647 154.338 68.4177 153.695 69.3147C153.669 69.3752 153.656 69.4401 153.655 69.5059C153.654 69.5717 153.667 69.637 153.691 69.698C153.716 69.759 153.752 69.8146 153.798 69.8616C153.844 69.9086 153.899 69.946 153.959 69.9717C154.563 70.2575 155.065 70.7217 155.397 71.3017C155.734 72.5547 157.915 71.4907 158.81 71.4177C169.378 69.3097 178.901 64.9487 184.574 59.0177C185.23 59.1693 185.823 59.5183 186.274 60.0177C180.583 74.2427 168.691 82.5287 153.602 82.8487C154.114 76.2647 152.042 68.8637 145.72 65.6557ZM181.885 73.3557C175.262 82.7347 164.803 86.1467 153.002 87.3807C153.317 86.2298 153.494 85.0454 153.528 83.8527C168.917 83.5607 181.071 75.2047 187 60.8407C188.783 63.0927 183.57 70.9717 181.885 73.3557ZM188.17 60.0807C188.126 60.2587 188.07 60.4337 188.023 60.6107C187.428 59.5293 186.484 58.6815 185.345 58.2057C185.81 57.7437 186.455 56.7457 187.125 56.9997C187.422 57.102 187.692 57.2709 187.913 57.4935C188.135 57.7161 188.303 57.9865 188.404 58.2839C188.504 58.5813 188.536 58.8979 188.495 59.2094C188.455 59.5208 188.344 59.8189 188.17 60.0807ZM189.264 57.6137C188.81 56.9418 188.184 56.4036 187.451 56.0547C186.767 56.0697 187.638 54.5287 187.857 54.3077C188.522 53.1417 190.427 56.3567 193.857 56.2867C192.303 56.6446 190.77 57.0876 189.264 57.6137Z" fill="white"/>
<path d="M112.878 62.7247C113.349 62.5937 113.886 62.2597 114.311 62.4867C114.435 62.5359 114.572 62.5341 114.694 62.4818C114.816 62.4295 114.912 62.3309 114.961 62.2077C115.011 62.0845 115.009 61.9468 114.956 61.8249C114.904 61.703 114.806 61.6069 114.682 61.5577C114.09 61.2697 112.098 61.4087 112.449 62.4827C112.494 62.5566 112.557 62.6178 112.632 62.6602C112.707 62.7026 112.792 62.7248 112.878 62.7247Z" fill="white"/>
<path d="M109.215 65.3817C109.322 65.0124 109.54 64.6853 109.84 64.4457C109.946 64.3661 110.017 64.2476 110.035 64.1164C110.054 63.9851 110.02 63.8517 109.94 63.7457C109.861 63.6396 109.742 63.5694 109.611 63.5507C109.48 63.5319 109.346 63.5661 109.24 63.6457C108.758 64.024 108.409 64.5473 108.246 65.1387C108.221 65.2648 108.245 65.396 108.313 65.505C108.382 65.6139 108.49 65.6922 108.615 65.7235C108.74 65.7548 108.872 65.7368 108.984 65.6731C109.096 65.6094 109.179 65.505 109.215 65.3817Z" fill="white"/>
<path d="M114.244 67.9417C113.779 68.3937 114.499 69.1137 114.951 68.6487C115.151 68.4487 115.321 68.2567 115.493 68.0597C115.24 68.4987 114.959 69.0877 115.711 69.1997C116.693 68.9187 116.711 67.4567 116.102 66.7697C115.328 66.1067 114.797 67.5607 114.244 67.9417Z" fill="white"/>
<path d="M112.222 67.6808C112.812 67.9588 114.075 67.0008 113.354 66.3938C113.032 66.1408 112.654 66.4938 112.509 66.7198C112.23 66.4068 112.879 64.2408 111.95 64.2778C111.817 64.2778 111.69 64.3305 111.596 64.4243C111.502 64.518 111.45 64.6452 111.45 64.7778C111.515 65.5838 111.13 67.4278 112.222 67.6808Z" fill="white"/>
<path d="M174.507 128.039C171.23 121.405 163.007 117.475 153.374 115.885C157.366 112.29 158.957 110.802 159.055 110.606C159.464 108.985 159.182 103.379 159.974 101.887C160.015 101.78 160.021 101.664 159.991 101.554C159.961 101.444 159.898 101.346 159.809 101.275C154.301 97.5183 148.278 94.5813 141.926 92.5558C147.501 83.7678 145.136 67.9938 133.581 65.0208C135.759 61.9118 133.487 57.1618 129.672 57.4748C127.152 57.5126 124.64 57.7591 122.161 58.2118C122.792 57.6798 122.461 56.5118 122.009 56.0838C124.037 54.9428 121.465 51.3498 119.509 51.5298C119.609 49.9898 118.535 47.1758 116.73 48.4018C116.201 47.6233 115.532 46.9501 114.757 46.4168C113.747 45.8168 112.45 45.6778 111.892 46.7658C111.058 46.231 110.119 45.8808 109.139 45.7388C107.867 45.7208 106.739 46.5388 106.893 47.6798C105.541 47.3798 104.053 47.5228 103.317 48.8798C102.962 49.6948 103.766 50.1578 102.501 50.0978C100.728 50.2588 99.601 52.6748 101.401 53.8088C99.436 54.2578 97.901 57.8168 100.577 58.3778C99.631 59.6778 98.983 61.6158 100.062 62.9248C86.167 65.2508 75.092 67.1878 64.62 69.2598C59.565 71.5378 55.782 74.5378 50.937 77.0598C50.8234 77.1188 50.7368 77.2191 50.695 77.34C50.6531 77.4609 50.6592 77.5933 50.712 77.7098C51.45 79.3338 64.924 80.5098 67.617 80.7328C79.9996 78.9388 92.2767 76.4796 104.395 73.3658C100.157 76.7558 94.102 79.9238 93.576 85.9708C80.32 84.4638 67.955 86.3838 57.485 93.0558C39.77 103.571 21.406 114.113 5 127.132C5.463 130.181 6.5 133.257 6.655 136.125C6.66483 136.236 6.71146 136.34 6.7875 136.422C6.86354 136.503 6.96463 136.557 7.0747 136.575C7.18478 136.592 7.29753 136.572 7.39506 136.518C7.49258 136.464 7.56929 136.379 7.613 136.277C19.463 132.812 32.858 132.724 45.127 135.442C55.11 137.194 51.816 141.881 54.843 142.542C55.024 142.587 58.396 143.005 58.443 142.95C59.076 142.896 59.361 142.175 59.343 141.68C59.703 137.08 62.417 136.971 66.805 137.18C87.264 138.508 94.63 141.87 111.59 152.68C111.654 152.721 111.726 152.747 111.801 152.755C111.877 152.764 111.953 152.754 112.024 152.727C112.095 152.7 112.159 152.657 112.21 152.601C112.261 152.545 112.299 152.478 112.319 152.405C122.402 143.405 137.234 130.327 143.835 124.405C141.296 134.817 138.976 145.35 136.357 158.334C136.344 158.401 136.344 158.47 136.359 158.537C136.373 158.604 136.401 158.668 136.441 158.723C136.481 158.779 136.532 158.826 136.591 158.861C136.65 158.896 136.715 158.919 136.783 158.928C147.172 160.256 160.606 160.583 168.821 153.971C176.651 148.091 179.37 136.584 174.507 128.039ZM129.695 58.4748C133.237 58.4488 134.437 62.3618 132.512 64.7538C131.145 64.4324 129.747 64.2647 128.343 64.2538C128.573 63.2388 128.521 62.1801 128.194 61.1923C127.866 60.2045 127.274 59.325 126.483 58.6488C127.539 58.5488 128.612 58.4838 129.695 58.4748ZM126.824 78.3918C126.544 77.1138 127.673 76.9228 127.952 78.2098C128.484 82.128 128.052 86.1167 126.696 89.8308C121.672 89.167 116.562 89.7508 111.818 91.5308C110.246 90.6624 108.61 89.9149 106.924 89.2948C109.469 87.4608 112.708 84.8858 115.203 83.2048C117.769 86.2919 121.327 88.3916 125.27 89.1448C125.383 89.1409 125.492 89.1005 125.58 89.0297C125.668 88.9588 125.73 88.8613 125.758 88.7518C126.904 85.426 127.268 81.8812 126.824 78.3918ZM121.713 63.8838C122.104 63.1829 122.3 62.3895 122.279 61.587C122.258 60.7845 122.021 60.0023 121.594 59.3228C122.655 59.1558 123.822 58.9098 124.994 58.8228C125.95 59.3343 126.7 60.1593 127.119 61.1592C127.538 62.1591 127.6 63.2728 127.294 64.3128C125.565 64.4558 122.158 64.7958 120.994 64.9128C120.554 64.5938 121.621 64.3658 121.713 63.8838ZM108.67 62.0728C110.147 62.6968 111.534 61.3908 112.105 60.0228C112.625 60.2335 113.2 60.2633 113.739 60.1075C114.277 59.9517 114.748 59.6193 115.075 59.1638C115.257 59.3266 115.482 59.4339 115.723 59.4731C115.964 59.5122 116.212 59.4816 116.436 59.3848C116.726 59.8688 117.395 60.7508 117.909 61.4148C117.875 61.8237 117.95 62.2342 118.126 62.6048C118.24 62.831 118.423 63.0147 118.649 63.1289C118.875 63.2431 119.132 63.2818 119.381 63.2393C119.631 63.1968 119.86 63.0752 120.036 62.8926C120.211 62.71 120.324 62.4759 120.356 62.2248C120.348 62.0898 120.736 62.0968 120.866 61.8178C121.085 61.5393 121.192 61.1891 121.166 60.8358C121.395 61.7938 121.312 63.5758 120.161 63.8498C119.771 63.8718 119.402 64.3498 119.634 64.7128C120.5 66.1835 121.575 67.52 122.827 68.6798C123.171 71.5618 118.727 75.2558 116.904 71.7158C117.573 71.1108 117.813 71.8938 118.34 72.3428C118.64 72.6428 119.149 72.1428 118.846 71.8368C118.458 71.5154 118.117 71.1407 117.834 70.7238C117.734 70.5238 117.534 70.5238 117.328 70.6238C116.226 71.4471 114.848 71.81 113.484 71.6358C112.712 71.4449 111.986 71.0991 111.351 70.6193C110.716 70.1395 110.186 69.5358 109.791 68.8448C109.711 68.3618 109.576 67.5558 108.927 67.2448C108.166 66.6978 107.959 65.4368 107.572 64.5718C108.106 63.823 108.479 62.9723 108.67 62.0728ZM113.891 72.3558C111.449 73.8398 107.791 71.6948 107.619 68.9408C107.635 68.7209 107.735 68.5155 107.897 68.3668C108.06 68.218 108.274 68.1372 108.494 68.1408C108.734 68.3028 108.779 68.9288 108.844 69.2138C109.015 69.8968 109.837 70.9878 110.461 70.7318C111.365 71.678 112.586 72.2564 113.891 72.3558ZM56.016 78.3558C54.7051 78.1788 53.4087 77.907 52.137 77.5428C53.486 77.1148 54.828 75.1428 56.188 76.1878C56.44 76.5618 55.83 76.7368 55.828 77.0828C55.743 77.6588 56.473 77.5448 56.682 77.9148C56.6145 78.037 56.5189 78.1415 56.4031 78.2195C56.2873 78.2976 56.1546 78.347 56.016 78.3638V78.3558ZM67.516 79.7118C64.11 79.4298 60.423 79.0118 57.45 78.5798C57.5437 78.4514 57.6095 78.3048 57.643 78.1494C57.6765 77.994 57.677 77.8332 57.6445 77.6776C57.6119 77.522 57.5471 77.375 57.4542 77.246C57.3613 77.117 57.2423 77.0089 57.105 76.9288C57.1902 76.758 57.2371 76.5707 57.2425 76.3799C57.2479 76.1891 57.2117 75.9994 57.1363 75.8241C57.0609 75.6487 56.9482 75.4919 56.806 75.3646C56.6638 75.2373 56.4956 75.1425 56.313 75.0868C59.0717 73.2798 61.9444 71.6531 64.913 70.2168C66.0081 70.2637 67.06 70.6572 67.917 71.3405C68.774 72.0239 69.3918 72.9618 69.6812 74.019C69.9707 75.0761 69.9169 76.1979 69.5275 77.2226C69.1382 78.2472 68.4335 79.1216 67.515 79.7198L67.516 79.7118ZM69.316 79.4698C69.9574 78.7462 70.4197 77.8819 70.6655 76.9467C70.9113 76.0115 70.9337 75.0316 70.731 74.0861C70.5282 73.1406 70.106 72.256 69.4984 71.5038C68.8907 70.7516 68.1147 70.1528 67.233 69.7558C77.543 67.7808 88.628 65.8228 102.489 63.5298C102.524 64.4978 103.336 65.7218 104.401 65.2008C104.701 65.0008 104.707 64.7278 104.987 65.1578C105.105 65.3051 105.253 65.4259 105.421 65.5122C105.589 65.5985 105.774 65.6485 105.962 65.6589C106.151 65.6692 106.34 65.6398 106.516 65.5724C106.693 65.505 106.853 65.4013 106.987 65.2678C107.243 65.9435 107.545 66.6008 107.892 67.2348C106.252 67.7678 106.427 69.7728 107.244 70.9938C106.858 71.2518 106.495 71.5429 106.159 71.8638C94.0243 75.0617 81.7262 77.6034 69.318 79.4778L69.316 79.4698ZM54.792 141.29C54.7294 141.31 54.6635 141.317 54.598 141.311C54.5326 141.305 54.469 141.287 54.4108 141.256C54.3525 141.226 54.3009 141.184 54.2587 141.134C54.2165 141.084 54.1847 141.025 54.165 140.963C53.4549 138.697 52.057 136.709 50.1654 135.274C48.2737 133.839 45.9822 133.029 43.609 132.956C43.4764 132.956 43.3492 132.903 43.2554 132.809C43.1617 132.716 43.109 132.588 43.109 132.456C43.109 132.323 43.1617 132.196 43.2554 132.102C43.3492 132.008 43.4764 131.956 43.609 131.956C46.1962 132.024 48.697 132.901 50.7604 134.464C52.8238 136.026 54.3463 138.195 55.114 140.667C55.1528 140.792 55.1408 140.928 55.0805 141.044C55.0203 141.161 54.9167 141.249 54.792 141.29ZM55.059 136.89C48.214 126.19 19.873 124.675 8.089 125.96C22.998 114.582 39.389 104.908 55.257 95.5358C66.435 87.9808 79.257 85.1878 93.562 86.9768C93.794 89.9488 96.107 90.2338 98.818 90.3338C102.968 90.3338 107.852 85.6988 109.673 81.4498C110.961 79.0133 112.004 76.4543 112.784 73.8108C113.292 73.7396 113.783 73.5759 114.232 73.3278C111.674 78.6468 110.719 85.3488 105.71 88.9328C105.248 89.2678 105.64 89.8098 106.019 90.0088C107.758 90.6858 109.244 91.3088 110.71 92.0518C108.763 92.8868 106.744 94.4518 104.851 95.0908C94.338 88.5688 79.78 88.6238 67.579 90.7908C56.426 96.0838 46.998 103.379 36.22 109.356C29.357 113.335 22.261 117.449 15.479 121.903C15.3874 121.963 15.3181 122.052 15.2819 122.155C15.2457 122.259 15.2446 122.372 15.2787 122.476C15.3128 122.58 15.3803 122.67 15.4707 122.732C15.5611 122.795 15.6694 122.825 15.779 122.82C25.3265 122.188 34.908 123.347 44.029 126.239C48.055 127.491 52.99 129.469 55.468 133.682C55.1443 134.718 55.0058 135.803 55.059 136.888V136.89ZM61.646 108.084C51.714 110.516 53.137 107.017 55.187 98.9558C61.012 95.7478 65.653 91.1268 72.851 90.9558C83.717 90.1558 94.994 90.1898 103.975 95.7388C99.724 98.1498 95.475 100.701 91.265 103.389C90.506 103.718 89.795 104.675 88.984 104.528C79.7731 104.766 70.6115 105.957 61.646 108.082V108.084ZM87.846 105.575C84.657 107.653 81.372 109.901 77.839 112.423C76.708 112.274 74.345 113.144 73.611 112.298C72.637 110.922 72.911 108.655 72.782 107.012C77.7736 106.265 82.8014 105.785 87.844 105.573L87.846 105.575ZM44.336 125.287C35.693 122.561 26.6421 121.356 17.587 121.728C29.618 114.072 42.068 107.328 53.987 99.6988C51.327 108.678 52.487 111.511 61.899 109.052C65.1903 108.304 68.494 107.67 71.81 107.152C71.7763 108.394 71.8465 109.637 72.02 110.867C72.297 113.417 74.068 114.008 76.282 113.534C70.8809 117.504 65.7267 121.8 60.848 126.398C58.8011 128.079 57.1231 130.164 55.919 132.524C53.117 128.412 48.008 126.441 44.334 125.285L44.336 125.287ZM80.601 136.981C80.563 137.108 80.4762 137.215 80.3596 137.278C80.2429 137.341 80.106 137.355 79.979 137.317C80.105 137.162 55.953 131.18 58.092 141.317C58.1062 141.381 58.1076 141.447 58.0961 141.512C58.0847 141.577 58.0606 141.638 58.0253 141.694C57.99 141.749 57.9441 141.797 57.8902 141.835C57.8364 141.872 57.7757 141.899 57.7115 141.913C57.6474 141.927 57.581 141.929 57.5163 141.917C57.4516 141.906 57.3898 141.882 57.3344 141.847C57.2791 141.811 57.2312 141.765 57.1935 141.712C57.1559 141.658 57.1292 141.597 57.115 141.533C56.064 137.288 60.215 134.256 65.501 134.421C70.487 134.392 75.4537 135.043 80.264 136.356C80.3269 136.375 80.3855 136.406 80.4364 136.447C80.4873 136.489 80.5295 136.54 80.5606 136.598C80.5917 136.656 80.6111 136.719 80.6177 136.785C80.6243 136.85 80.6179 136.916 80.599 136.979L80.601 136.981ZM95.295 136.121C95.2528 136.247 95.1624 136.35 95.0437 136.409C94.925 136.468 94.7877 136.478 94.662 136.436C94.562 136.401 84.353 132.99 76.842 131.943C68.86 130.831 60.682 132.543 58.224 135.837C57.857 136.364 57.018 135.754 57.424 135.237C60.5 131.111 69.791 129.948 76.982 130.95C84.582 132.01 94.882 135.45 94.982 135.485C95.1072 135.528 95.2103 135.619 95.2686 135.738C95.3269 135.856 95.3356 135.993 95.293 136.119L95.295 136.121ZM110.595 138.978C107.287 136.218 103.483 134.114 99.388 132.778C92.0009 130.131 84.2016 128.819 76.355 128.905C70.799 129.194 58.746 129.705 56.039 136.032C56.214 132.451 58.715 129.65 61.53 127.132C74.769 114.442 94.947 101.532 110.786 93.1218C114.63 91.0718 119.871 90.2748 126.352 90.7488C125.978 91.2998 125.643 93.1308 124.988 92.8938C121.429 92.4152 117.826 92.346 114.251 92.6878C114.185 92.6935 114.121 92.712 114.063 92.7423C114.004 92.7727 113.952 92.8142 113.91 92.8647C113.868 92.9151 113.836 92.9734 113.816 93.0362C113.796 93.099 113.788 93.1652 113.794 93.2308C113.805 93.3634 113.869 93.4861 113.971 93.5718C114.021 93.6142 114.08 93.6463 114.142 93.6662C114.205 93.6861 114.271 93.6935 114.337 93.6878C117.804 93.357 121.297 93.4201 124.75 93.8758C124.134 94.8788 123.441 95.832 122.676 96.7268C122.602 96.63 122.496 96.564 122.376 96.5418C118.719 95.9285 114.995 95.8245 111.31 96.2328C111.244 96.24 111.181 96.26 111.123 96.2917C111.065 96.3235 111.014 96.3663 110.972 96.4178C110.931 96.4693 110.9 96.5284 110.882 96.5918C110.863 96.6552 110.857 96.7217 110.865 96.7873C110.872 96.853 110.892 96.9166 110.923 96.9745C110.955 97.0324 110.998 97.0835 111.049 97.1249C111.101 97.1663 111.16 97.1971 111.224 97.2156C111.287 97.2341 111.353 97.24 111.419 97.2328C114.968 96.8404 118.553 96.9349 122.076 97.5138C121.282 98.3428 120.293 99.9288 119.176 100.097C118.884 99.9388 107.754 97.5418 110.719 99.7628C113.285 99.9361 115.832 100.325 118.333 100.926C117.183 101.914 115.309 101.639 114.174 102.561C113.598 102.796 113.226 103.471 113.546 103.89C112.446 103.714 104.438 102.19 104.387 103.514C104.387 103.646 104.44 103.774 104.533 103.867C104.627 103.961 104.754 104.014 104.887 104.014C106.173 104.157 114.509 104.007 112.768 105.563C112.335 106.18 112.188 107.569 113.184 107.656C113.43 107.562 113.205 108.333 113.455 108.593C106.881 106.068 99.8129 105.095 92.801 105.748C92.6684 105.76 92.5462 105.825 92.4612 105.927C92.3763 106.03 92.3355 106.162 92.348 106.295C92.3605 106.427 92.4251 106.55 92.5277 106.635C92.6303 106.72 92.7624 106.76 92.895 106.748C106.811 105.313 120.35 110.973 129.977 120.713C130.075 120.713 130.17 120.685 130.252 120.631C130.334 120.578 130.398 120.501 130.437 120.411C130.476 120.322 130.488 120.223 130.471 120.126C130.454 120.03 130.409 119.941 130.342 119.87C125.895 115.166 120.493 111.468 114.498 109.024C114.755 108.9 114.969 108.701 115.112 108.455C115.119 108.623 115.175 108.786 115.273 108.924C115.371 109.062 115.506 109.168 115.663 109.23C115.82 109.293 115.991 109.308 116.157 109.276C116.322 109.243 116.475 109.162 116.596 109.045C117.395 108.134 118.299 107.32 119.288 106.621C124.342 108.606 128.902 111.67 132.65 115.599C132.695 115.649 132.749 115.689 132.809 115.718C132.87 115.747 132.935 115.763 133.002 115.766C133.069 115.769 133.136 115.758 133.199 115.735C133.262 115.711 133.319 115.675 133.368 115.629C133.416 115.583 133.455 115.528 133.482 115.466C133.509 115.405 133.523 115.339 133.524 115.272C133.524 115.205 133.511 115.138 133.486 115.076C133.46 115.014 133.423 114.958 133.375 114.911C129.852 111.223 125.627 108.276 120.949 106.244C123.364 106.051 125.728 105.442 127.936 104.444C131.809 106.396 135.379 108.898 138.536 111.872C138.583 111.919 138.64 111.957 138.702 111.982C138.764 112.007 138.83 112.019 138.897 112.018C138.964 112.017 139.03 112.003 139.091 111.976C139.152 111.949 139.208 111.91 139.253 111.862C139.299 111.813 139.335 111.756 139.358 111.693C139.382 111.63 139.392 111.563 139.389 111.497C139.386 111.43 139.37 111.364 139.341 111.304C139.313 111.243 139.272 111.189 139.222 111.145C136.19 108.292 132.787 105.863 129.103 103.924C130.758 103.164 132.345 102.267 133.849 101.241C137.6 103.081 141.055 105.471 144.101 108.332C144.563 108.784 145.268 108.042 144.786 107.604C141.799 104.802 138.428 102.441 134.774 100.592C135.966 99.7067 137.083 98.7251 138.114 97.6568C141.594 99.2081 144.873 101.173 147.883 103.509C147.936 103.549 147.995 103.578 148.059 103.595C148.123 103.611 148.189 103.615 148.255 103.606C148.32 103.597 148.383 103.576 148.44 103.542C148.497 103.509 148.547 103.465 148.587 103.412C148.626 103.36 148.655 103.3 148.672 103.236C148.689 103.172 148.693 103.106 148.684 103.041C148.675 102.975 148.653 102.912 148.62 102.855C148.587 102.798 148.543 102.749 148.49 102.709C145.511 100.399 142.275 98.4425 138.846 96.8778C139.801 95.811 140.663 94.6649 141.423 93.4518C147.44 95.3468 153.163 98.0753 158.423 101.558C155.588 103.129 142.923 113.358 137.956 116.979C135.929 118.465 110.699 138.866 110.595 138.976V138.978ZM117.073 105.172C116.122 104.557 114.642 107.086 114.33 107.749C114.612 106.636 115.24 105.641 116.124 104.908C116.221 104.826 116.283 104.711 116.299 104.585C116.315 104.459 116.283 104.332 116.209 104.229C116.136 104.125 116.026 104.053 115.903 104.027C115.779 104 115.649 104.021 115.54 104.086C115.813 103.921 116.1 103.782 116.397 103.668C116.498 103.629 116.583 103.558 116.64 103.467C116.698 103.375 116.724 103.268 116.715 103.16C116.706 103.053 116.663 102.951 116.591 102.87C116.52 102.789 116.424 102.734 116.318 102.712C118.08 101.901 119.518 103.612 119.792 105.169C118.371 105.872 117.125 106.883 116.144 108.128C116.28 107.294 116.616 106.505 117.122 105.828C117.195 105.731 117.23 105.61 117.22 105.489C117.21 105.368 117.157 105.254 117.07 105.17L117.073 105.172ZM112.286 151.115L111.926 145.997C114.699 143.495 117.679 141.233 120.835 139.237C120.947 139.166 121.026 139.053 121.055 138.923C121.084 138.794 121.06 138.658 120.989 138.546C120.917 138.434 120.805 138.355 120.675 138.327C120.546 138.298 120.41 138.322 120.298 138.393C117.316 140.284 114.488 142.406 111.838 144.74L111.707 142.875L136.16 122.914C136.211 122.872 136.253 122.821 136.284 122.763C136.315 122.705 136.335 122.642 136.341 122.577C136.348 122.511 136.342 122.445 136.323 122.382C136.304 122.319 136.273 122.261 136.231 122.21C136.189 122.159 136.138 122.117 136.08 122.086C136.023 122.055 135.959 122.035 135.894 122.029C135.828 122.022 135.762 122.028 135.699 122.047C135.636 122.066 135.578 122.097 135.527 122.139L111.621 141.656L111.485 139.721C124.338 129.779 124.911 127.807 147.373 111.089C150.018 109.032 155.907 104.234 158.754 102.489C158.459 104.191 158.306 105.915 158.297 107.643L145.544 117.986C145.464 118.051 145.406 118.139 145.378 118.239C145.35 118.338 145.354 118.444 145.388 118.541C145.423 118.638 145.486 118.723 145.571 118.782C145.655 118.842 145.756 118.874 145.859 118.874C146.127 118.874 145.168 119.574 158.259 108.966C158.239 109.54 158.22 110.011 158.203 110.095C157.252 111.265 121.26 143.147 112.286 151.113V151.115ZM172.543 138.808L175.898 138.984C175.584 143.207 173.91 147.215 171.127 150.407C170.393 149.801 168.427 147.407 167.695 148.258C167.624 148.37 167.6 148.505 167.629 148.635C167.658 148.764 167.737 148.877 167.849 148.948C168.801 149.572 169.674 150.309 170.449 151.143C167.675 153.988 164.201 156.053 160.376 157.131L159.494 153.957C159.456 153.832 159.37 153.728 159.256 153.666C159.142 153.603 159.008 153.588 158.882 153.623C158.757 153.658 158.65 153.74 158.584 153.853C158.519 153.965 158.5 154.098 158.531 154.225L159.421 157.425C155.654 158.411 151.76 158.826 147.87 158.656L148.377 155.272C148.39 155.144 148.354 155.015 148.275 154.914C148.196 154.812 148.081 154.744 147.954 154.725C147.826 154.706 147.697 154.737 147.591 154.811C147.486 154.885 147.414 154.997 147.389 155.124L146.861 158.644C143.716 158.597 140.575 158.385 137.452 158.007C140.133 144.741 142.506 134.031 145.131 123.347C148.031 120.51 150.776 118.302 152.678 116.508C152.928 117.048 153.745 116.874 154.229 117.05C154.109 117.829 153.145 120.725 154.257 120.895C154.39 120.895 154.517 120.842 154.611 120.748C154.704 120.655 154.757 120.527 154.757 120.395C154.765 119.328 154.919 118.267 155.215 117.242C158.153 117.811 161.018 118.703 163.76 119.902L162.024 122.766C161.99 122.822 161.967 122.884 161.957 122.949C161.948 123.014 161.951 123.081 161.966 123.144C161.982 123.208 162.01 123.268 162.049 123.321C162.088 123.374 162.137 123.419 162.193 123.453C162.249 123.487 162.312 123.509 162.377 123.519C162.441 123.529 162.508 123.526 162.572 123.511C162.635 123.495 162.695 123.467 162.748 123.428C162.801 123.389 162.846 123.34 162.88 123.284L164.671 120.33C168.454 122.238 171.236 124.468 173.159 127.686L170.625 128.952C170.564 128.98 170.51 129.02 170.465 129.069C170.42 129.119 170.385 129.177 170.363 129.24C170.341 129.304 170.331 129.37 170.336 129.437C170.34 129.504 170.358 129.569 170.387 129.629C170.417 129.689 170.459 129.742 170.51 129.786C170.561 129.829 170.62 129.862 170.684 129.882C170.748 129.903 170.815 129.91 170.882 129.904C170.948 129.897 171.013 129.878 171.072 129.846L173.653 128.557C175.21 131.449 175.994 134.694 175.929 137.978L172.596 137.803C172.463 137.796 172.333 137.842 172.234 137.931C172.135 138.02 172.075 138.145 172.068 138.278C172.061 138.411 172.107 138.541 172.196 138.64C172.285 138.739 172.41 138.799 172.543 138.806V138.808Z" fill="white"/>
</svg>
