<svg width="146" height="182" viewBox="0 0 146 182" fill="none" xmlns="http://www.w3.org/2000/svg">
<rect x="0.5" y="0.5" width="145" height="181" rx="7.5" stroke="#3A52BD"/>
<path d="M139.43 30.4368C139.377 29.1131 139.278 27.7901 139.187 26.4671C139.187 24.9222 137.908 24.5974 137.217 25.2274C132.182 29.965 123.619 37.3955 118.965 41.4674C118.792 41.6201 118.669 41.8216 118.613 42.0453C118.557 42.2691 118.569 42.5046 118.649 42.721C118.729 42.9374 118.873 43.1245 119.061 43.2577C119.25 43.3909 119.474 43.464 119.705 43.4673C119.673 43.5842 119.644 43.7025 119.618 43.8229C111.564 46.8513 103.355 49.4485 95.0255 51.6034C93.2993 52.0542 88.6786 53.1721 88.0997 53.3128C88.2639 52.8481 88.5879 52.4569 89.0139 52.2089C91.0607 50.7788 91.5507 51.0189 92.5195 50.0193C92.7377 49.7893 92.8686 49.4903 92.8897 49.1739C92.9108 48.8576 92.8207 48.5438 92.635 48.2868C92.2269 47.8339 91.4282 47.7597 91.2763 47.2193C90.9662 46.1049 92.9003 44.4193 92.7995 42.9171C92.6847 41.2077 90.4895 38.8907 87.1526 38.407C85.2522 38.105 83.3124 38.1568 81.4308 38.5596C80.018 38.8517 78.7255 39.5614 77.7208 40.5966C76.9305 41.4177 75.744 42.376 75.345 43.4666C75.107 44.0966 75.0272 44.8239 74.505 45.183C74.2964 45.2952 74.0669 45.3628 73.8308 45.3816C73.5948 45.4004 73.3574 45.37 73.1337 45.2922C70.7397 44.6881 69.2928 42.2262 67.0045 41.158C65.9862 40.6976 64.8594 40.531 63.7514 40.6769C62.6434 40.8229 61.5983 41.2756 60.7339 41.984C60.3387 42.4248 59.8452 42.766 59.2933 42.9801C58.9536 43.04 58.605 43.0245 58.272 42.9346C55.6764 42.2682 53.9215 40.5763 51.4225 40.227C50.2604 40.0691 49.0773 40.1954 47.9747 40.5951C46.872 40.9947 45.8828 41.6558 45.0917 42.5216C44.7035 42.9026 44.4079 43.3674 44.2276 43.8805C44.0473 44.3936 43.987 44.9412 44.0515 45.4812C44.4015 46.9456 45.9814 47.6743 46.6457 47.92C47.7657 48.3344 49.0103 48.6319 49.9189 49.4341C50.0652 49.5429 50.1754 49.6932 50.2353 49.8653C50.3634 50.2671 49.921 50.6353 49.5185 50.7291C49.0642 50.7652 48.6126 50.829 48.1661 50.9202C48.1555 50.9223 48.1459 50.9278 48.1387 50.9359C48.1316 50.944 48.1273 50.9543 48.1266 50.9651C48.1259 50.9758 48.1288 50.9866 48.1348 50.9955C48.1408 51.0045 48.1496 51.0113 48.1598 51.0147C49.2087 51.3919 50.3266 51.5382 51.4372 51.4438C51.9918 51.3787 52.5127 51.1439 52.9288 50.7715C53.3449 50.3991 53.6358 49.9074 53.7619 49.3634C53.8001 49.0399 53.8153 48.714 53.8074 48.3883C53.9348 47.2683 54.6803 47.5098 55.6001 48.1643C56.6198 48.9019 57.7978 49.3907 59.0401 49.5918C60.2824 49.7928 61.5545 49.7005 62.7548 49.3221C63.6977 49.0204 64.257 48.0467 65.2496 48.0467C65.4926 48.047 65.7306 48.1157 65.9364 48.2448C66.1422 48.3739 66.3076 48.5582 66.4137 48.7768C66.4908 49.0874 66.5843 49.3938 66.6937 49.6945C64.2217 49.8983 61.7968 50.4873 59.5068 51.4403C58.2498 51.9691 57.132 52.7813 56.2406 53.8133C55.343 53.6012 54.4082 53.6012 53.5106 53.8133C51.2706 54.3852 50.558 56.3837 50.215 57.8768C50.2122 57.9207 50.2218 57.9644 50.2426 58.0031C50.2634 58.0418 50.2946 58.0739 50.3327 58.0958C50.3708 58.1176 50.4143 58.1284 50.4582 58.1268C50.5021 58.1252 50.5447 58.1114 50.5811 58.0868C51.9232 57.1242 53.4073 56.377 54.9799 55.872C54.3568 57.5022 54.305 59.2955 54.8329 60.9589C53.4525 61.3215 51.9503 61.6463 51.0984 62.809C50.3757 63.844 49.9592 65.0616 49.8965 66.3223C49.6623 69.6148 50.0941 72.9207 51.1663 76.0425C51.175 76.0697 51.1878 76.0954 51.2041 76.1188C50.3353 76.5907 49.494 77.1114 48.6841 77.6784C48.1358 77.9687 47.5809 78.2487 47.0195 78.5184C47.0216 78.5026 47.0216 78.4866 47.0195 78.4708C47.0033 78.2566 46.9203 78.0529 46.7821 77.8884C46.644 77.7239 46.4577 77.6069 46.2495 77.5538C45.6191 77.3922 44.9717 77.3064 44.321 77.2983C40.2771 76.9035 40.3765 76.8783 39.7612 76.8783C39.5048 76.8485 39.245 76.8855 39.0071 76.9859C38.7693 77.0862 38.5615 77.2464 38.4039 77.4509C38.3532 77.5383 38.3223 77.6358 38.3133 77.7365C38.3044 77.8371 38.3177 77.9385 38.3522 78.0335C38.3867 78.1285 38.4416 78.2148 38.5131 78.2862C38.5845 78.3577 38.6708 78.4126 38.7658 78.447C40.6481 79.6419 41.1759 79.2982 42.5808 80.2929C32.3895 83.6319 23.2538 82.01 22.4628 82.1703C22.318 82.2369 22.1841 82.3252 22.0659 82.4321C21.4682 81.9462 20.8379 81.5018 20.1794 81.1021C19.9491 80.9653 19.6825 80.9024 19.4153 80.922C19.1482 80.9415 18.8935 81.0425 18.6856 81.2113C18.169 81.5921 17.7756 82.0667 17.3017 82.4559C15.362 84.0491 12.9771 84.7484 12.9183 85.9678C12.8854 86.6482 13.4433 86.6881 13.6883 86.7056C15.8422 86.8148 17.3801 85.9559 20.416 85.895C20.6092 85.8908 20.6386 85.8992 20.696 85.8726C20.7765 87.4427 22.2703 88.1525 23.7571 88.6222C34.7387 92.111 48.1717 92.0067 61.9575 86.9338C62.5094 86.6713 63.0756 86.4402 63.6536 86.2415C61.4136 89.2704 61.2568 89.4083 60.9082 90.1734C59.4508 89.6246 59.0455 89.3873 58.4477 89.1535C56.7575 89.8183 55.0144 90.34 53.2369 90.7131C51.6618 91.0466 50.0666 91.2767 48.4615 91.4019C49.0572 92.0214 48.7163 91.7988 54.3828 97.2315C55.7634 98.7355 57.3819 100.002 59.1736 100.981C60.4231 101.626 61.7997 101.987 63.2049 102.038C64.5215 101.96 65.7907 101.518 66.8701 100.76C69.0194 99.2849 70.9515 97.5159 72.6101 95.5046C75.996 91.4159 76.4111 91.3403 78.9017 86.6664C79.4617 87.0164 84.48 86.3059 87.2149 79.4382C87.9154 77.5659 88.5203 75.6593 89.0272 73.7255C90.0815 70.332 90.8081 66.8452 91.1972 63.313C95.1284 62.354 97.3642 61.0513 103.671 58.0021C107.772 56.0411 111.705 53.7467 115.431 51.1421C117.471 49.6639 119.361 47.9879 121.072 46.1385C121.102 46.0928 121.116 46.039 121.115 45.9845C121.658 45.7666 122.132 45.4054 122.486 44.9394C122.84 44.4735 123.061 43.9202 123.126 43.3385C123.392 43.3385 123.658 43.3575 123.922 43.3952C120.324 51.6062 112.2 62.3428 106.652 69.8468C90.1318 92.1635 66.0413 120.241 41.7044 133.357C41.1038 133.676 35.7873 136.756 35.4226 136.399L38.4109 139.441C32.1698 143.626 25.1026 146.422 17.6874 147.639C17.6244 147.644 17.5652 147.671 17.5201 147.716C17.5066 147.743 17.4996 147.773 17.4996 147.803C17.4996 147.833 17.5066 147.863 17.5201 147.891C17.7301 148.958 18.4301 149.125 21.8545 152.091C17.7483 154.446 13.276 155.944 6.5 156.735V156.88C15.4439 157.823 23.8929 155.184 28.0075 152.826C26.5473 151.556 24.6153 150.758 23.1474 149.48C27.9312 148.301 39.1718 145.274 45.7882 140.886C44.7998 139.883 42.3813 138.354 41.3845 137.35C41.7268 137.73 48.1836 134.171 48.8682 133.814C63.69 125.98 76.486 116.13 89.2288 103.72C93.3049 99.7578 97.3488 95.8637 101.153 91.6735C106.276 86.0287 117.862 72.2478 128.205 57.9139C130.488 54.9055 132.571 51.7504 134.441 48.4688C134.608 48.1356 134.836 48.1797 134.974 48.5143C135.285 49.2745 135.559 49.9591 135.818 50.6843C135.905 50.919 136.066 51.1189 136.277 51.2536C136.488 51.3883 136.737 51.4504 136.987 51.4306C137.236 51.4108 137.472 51.3101 137.659 51.1439C137.846 50.9776 137.974 50.7548 138.023 50.5093C139.221 43.8896 139.693 37.1589 139.43 30.4368ZM20.7037 85.4841C19.2431 85.4251 17.7819 85.5822 16.3672 85.9503C15.4923 86.12 14.6039 86.2107 13.7128 86.2212C13.3768 86.1855 13.4965 85.8152 13.6323 85.6479C14.4618 84.7568 15.068 84.8324 17.8855 82.6722C18.3888 82.2347 19.0461 81.2988 19.688 81.4822C20.0504 81.6351 20.3862 81.8447 20.6827 82.1031L21.746 82.8472C21.2239 83.6467 20.8693 84.5437 20.7037 85.4841ZM42.9637 80.1697C42.7547 79.825 42.4288 79.5668 42.0453 79.4424C41.0171 79.0833 40.0282 78.62 39.0941 78.0599C38.9989 77.9955 38.8897 77.8975 38.9093 77.7939C38.9352 77.6539 39.1564 77.4936 39.3804 77.4439C39.8144 77.3781 39.8326 77.4124 45.3745 77.9598C45.9261 78.0137 46.4672 78.0998 46.5022 78.4883C46.5019 78.5328 46.5135 78.5766 46.5359 78.615C46.5584 78.6534 46.5907 78.6851 46.6296 78.7067C45.4355 79.2609 44.2119 79.7493 42.9644 80.1697H42.9637ZM83.9487 44.8428C84.6953 44.4935 85.4238 44.1066 86.1313 43.6836C86.3986 43.5531 86.6961 43.4968 86.9926 43.5205C87.2891 43.5443 87.5738 43.6473 87.8169 43.8187C87.7302 43.8526 87.6533 43.9075 87.593 43.9783C87.5327 44.0491 87.4908 44.1338 87.4711 44.2247C87.4699 44.273 87.4853 44.3202 87.5148 44.3584C87.5443 44.3967 87.5861 44.4235 87.6331 44.4346C87.6801 44.4456 87.7295 44.44 87.7729 44.4189C87.8164 44.3978 87.8512 44.3623 87.8715 44.3185C87.8902 44.2807 87.9211 44.2503 87.9592 44.2322C87.9973 44.214 88.0403 44.2092 88.0815 44.2184C88.2031 44.2551 88.3137 44.3212 88.4035 44.4109C88.4694 44.4778 88.5533 44.524 88.645 44.5439C88.6805 44.5458 88.716 44.5388 88.7481 44.5235C88.7803 44.5082 88.8081 44.4852 88.8291 44.4564L88.9418 44.4823C89.5634 45.6489 89.9517 46.9255 90.0849 48.2406C90.1248 48.7969 90.0455 49.3552 89.8523 49.8784C89.6592 50.4016 89.3566 50.8775 88.9649 51.2744C87.9912 52.1249 87.1659 52.0241 86.7095 52.8144C86.3455 53.3513 86.979 53.0643 85.6546 53.0741C84.468 53.0887 83.2992 52.7846 82.2701 52.1935C82.5115 52.0561 82.7677 51.9464 83.0338 51.8666C83.4162 51.7459 83.7463 51.4992 83.9704 51.1666C84.1095 50.8283 84.1206 50.451 84.0017 50.1051C83.8828 49.7592 83.642 49.4684 83.3243 49.2871C83.1069 49.1681 82.9142 49.0087 82.7566 48.8174C82.0706 47.7317 83.4335 46.0356 82.4948 44.8274C82.7227 44.9315 82.9699 44.9866 83.2205 44.9892C83.471 44.9919 83.7193 44.942 83.9494 44.8428H83.9487ZM79.8831 47.9039C80.2982 47.7597 81.1592 48.3498 81.3762 48.6788C81.6758 49.1296 82.6145 50.3091 82.6159 50.7634C82.593 50.8822 82.5453 50.9949 82.4759 51.094C82.4066 51.1931 82.3171 51.2766 82.2134 51.3388C82.037 51.4438 81.8653 51.5561 81.6982 51.6755C81.5467 51.5007 81.4102 51.3133 81.2901 51.1155C81.4981 50.9029 81.6476 50.64 81.7241 50.3525C81.726 50.3452 81.7262 50.3374 81.7247 50.33C81.7232 50.3225 81.72 50.3155 81.7153 50.3095C81.7106 50.3035 81.7046 50.2986 81.6978 50.2953C81.6909 50.2919 81.6834 50.2902 81.6758 50.2902C79.9412 50.2895 79.2216 48.1321 79.8838 47.9039H79.8831ZM67.3923 50.1537C68.2239 50.3637 68.31 49.7288 74.6765 50.2377C76.4531 50.6892 78.3907 51.6258 79.8754 51.6342C79.7494 52.0822 79.5898 53.1917 79.0781 54.9662C76.9896 54.4539 74.8299 54.2966 72.6892 54.5007C72.6586 54.4682 72.6189 54.4458 72.5753 54.4363C72.5317 54.4268 72.4862 54.4307 72.4449 54.4475C72.4035 54.4643 72.3682 54.4932 72.3436 54.5305C72.319 54.5677 72.3062 54.6115 72.307 54.6561C72.3166 55.0102 72.3491 55.3633 72.4043 55.7131C71.5677 55.1963 70.8143 54.5555 70.1699 53.8126C70.1251 53.7794 70.0703 53.7623 70.0145 53.7641C69.9588 53.7659 69.9052 53.7864 69.8626 53.8224C68.8809 54.7163 67.7158 55.385 66.4489 55.782C65.1819 56.1789 63.8436 56.2944 62.5273 56.1205C62.4854 56.1206 62.4443 56.1316 62.408 56.1525C62.3716 56.1733 62.3414 56.2033 62.3202 56.2394C62.299 56.2755 62.2875 56.3166 62.287 56.3584C62.2865 56.4003 62.297 56.4416 62.3173 56.4782C63.0859 57.5555 64.0714 58.4602 65.2104 59.134C65.3126 59.4322 65.4041 59.7335 65.4848 60.0377C65.4848 60.0377 64.908 60.0713 64.6665 60.0818C64.6246 60.0882 64.5853 60.1062 64.5531 60.1337C64.5208 60.1611 64.4968 60.197 64.4838 60.2374C64.4708 60.2777 64.4693 60.3209 64.4794 60.362C64.4896 60.4031 64.5109 60.4407 64.5412 60.4703C67.1361 63.9556 67.7094 66.7549 68.6012 69.2595C68.6649 69.4392 68.686 69.6312 68.6626 69.8203C68.6393 70.0095 68.5723 70.1907 68.4668 70.3494C68.1494 70.9698 67.626 71.4604 66.9863 71.7368C66.7014 71.7963 66.2716 71.5268 66.0567 71.4071C63.9535 70.4192 61.9848 69.1671 60.1984 67.681C58.4989 66.291 57.0916 64.578 56.0579 62.641C55.4746 61.5898 55.1308 60.4227 55.0511 59.2231C54.9713 58.0235 55.1576 56.8211 55.5966 55.7019C56.1852 55.5566 56.7852 55.462 57.39 55.4191C58.3804 55.6041 59.3271 55.9743 60.1802 56.5104C60.227 56.5379 60.2821 56.5474 60.3354 56.537C60.3886 56.5267 60.4363 56.4973 60.4694 56.4543C60.5025 56.4114 60.5187 56.3578 60.5151 56.3037C60.5115 56.2495 60.4882 56.1986 60.4497 56.1604C59.6097 55.0012 58.3595 54.3838 56.6998 53.926C59.2877 51.2947 63.7152 50.461 67.3923 50.1537ZM81.3454 58.8127L83.1654 61.5665C82.9414 62.1634 82.7053 62.7563 82.457 63.3452C81.8479 61.8807 80.9851 60.5352 79.9083 59.3706C80.2345 58.3206 80.5593 57.2517 80.8225 56.1807C81.7064 57.1461 82.4266 58.2493 82.9547 59.4469C83.3047 60.2099 83.2347 60.2582 83.4552 60.7713L83.3754 60.9953L81.7542 58.5453C81.7365 58.5185 81.7136 58.4954 81.6869 58.4774C81.6603 58.4594 81.6303 58.4468 81.5988 58.4404C81.5673 58.4339 81.5348 58.4338 81.5032 58.4399C81.4716 58.446 81.4415 58.4583 81.4147 58.476C81.3879 58.4938 81.3648 58.5166 81.3468 58.5433C81.3288 58.57 81.3162 58.5999 81.3097 58.6314C81.3033 58.663 81.3031 58.6954 81.3093 58.727C81.3154 58.7586 81.3277 58.7887 81.3454 58.8155V58.8127ZM78.7239 65.616L80.1001 68.1528C79.2066 69.8004 78.2167 71.3938 77.1356 72.9247L75.7643 69.9147C76.0872 69.3048 76.3952 68.6872 76.6883 68.0618L77.6116 69.7166C77.6432 69.7734 77.6962 69.8153 77.7587 69.8331C77.8213 69.8509 77.8883 69.8431 77.9451 69.8115C78.002 69.7798 78.0439 69.7269 78.0617 69.6643C78.0794 69.6018 78.0716 69.5347 78.04 69.4779C77.1426 67.8721 77.0061 67.5935 76.9389 67.5179C77.5689 66.1179 78.2479 64.3588 78.7211 63.0211L80.0301 65.581C80.0445 65.6102 80.0645 65.6361 80.089 65.6575C80.1135 65.6788 80.142 65.695 80.1728 65.7052C80.2037 65.7154 80.2362 65.7194 80.2686 65.7169C80.301 65.7144 80.3326 65.7055 80.3615 65.6907C80.3904 65.6759 80.4161 65.6555 80.437 65.6307C80.458 65.6059 80.4738 65.5771 80.4835 65.5461C80.4933 65.5152 80.4968 65.4825 80.4938 65.4502C80.4908 65.4179 80.4814 65.3864 80.4662 65.3577L78.9437 62.3806C79.0417 62.0932 79.1383 61.8036 79.2335 61.5119L80.3864 63.5419C80.4023 63.5699 80.4236 63.5945 80.449 63.6143C80.4744 63.6341 80.5034 63.6486 80.5345 63.6572C80.5655 63.6657 80.5979 63.6681 80.6299 63.6641C80.6618 63.6601 80.6927 63.6499 80.7206 63.634C80.7486 63.6181 80.7732 63.5968 80.793 63.5714C80.8128 63.546 80.8274 63.517 80.8359 63.4859C80.8444 63.4549 80.8468 63.4225 80.8428 63.3905C80.8388 63.3586 80.8286 63.3277 80.8127 63.2997L79.44 60.877C79.4715 60.7769 79.741 59.9138 79.741 59.9138C80.7907 61.1068 81.622 62.4755 82.1966 63.957C81.6464 65.2114 81.0425 66.4409 80.385 67.6453L79.1544 65.3801C79.1394 65.3512 79.1189 65.3255 79.0938 65.3045C79.0688 65.2836 79.0399 65.2679 79.0087 65.2583C78.9775 65.2487 78.9448 65.2455 78.9123 65.2487C78.8799 65.2519 78.8484 65.2616 78.8198 65.2772C78.7911 65.2927 78.7658 65.3139 78.7455 65.3393C78.7251 65.3648 78.71 65.394 78.701 65.4254C78.6921 65.4568 78.6895 65.4896 78.6935 65.522C78.6974 65.5543 78.7077 65.5856 78.7239 65.6139V65.616ZM71.5573 71.0501C71.5904 71.0133 71.6219 70.9741 71.6518 70.9325C71.7134 70.8053 71.7334 70.6619 71.7089 70.5227C71.6844 70.3834 71.6167 70.2555 71.5153 70.1569C71.3951 70.0738 71.2556 70.0229 71.1102 70.0091C70.9647 69.9952 70.8181 70.0189 70.6844 70.0778C70.4661 70.1308 70.2426 70.1597 70.018 70.1639C70.1065 70.0912 70.1799 70.0016 70.2338 69.9005C70.2877 69.7994 70.3212 69.6886 70.3323 69.5745C70.3092 69.4418 70.2407 69.3213 70.1385 69.2334C70.0364 69.1456 69.907 69.096 69.7723 69.0929C70.0094 68.3528 70.2334 67.6082 70.4443 66.8592C71.4579 67.4892 71.5643 67.5732 72.398 68.1675C72.6316 68.3849 72.8993 68.5625 73.1904 68.6932C72.4806 70.5517 72.475 70.5748 71.9129 71.7942C71.8891 71.8509 71.7449 72.2646 71.6931 72.3829C71.6098 72.3337 71.5315 72.2765 71.4593 72.2121C71.4474 72.1604 71.4281 72.1106 71.4019 72.0644C71.9808 71.7165 71.88 71.181 71.5573 71.0501ZM70.8937 72.3801L70.8853 72.3885C70.4757 72.5685 70.0286 72.6467 69.5822 72.6163C69.1358 72.586 68.7034 72.448 68.3219 72.2142C68.1297 72.1319 67.9511 72.0209 67.792 71.8852C68.0357 71.7076 68.2521 71.4953 68.4346 71.2552C68.7594 70.9062 68.9902 70.4803 69.1052 70.0176C69.2745 69.7901 69.517 69.628 69.7919 69.5584C69.7548 69.6284 69.8619 69.62 69.6134 69.8279C69.4512 69.9453 69.3372 70.1178 69.2928 70.313C69.2846 70.3476 69.2842 70.3836 69.2915 70.4184C69.2988 70.4532 69.3137 70.4859 69.335 70.5143C69.3564 70.5427 69.3838 70.566 69.4152 70.5827C69.4466 70.5993 69.4813 70.6088 69.5168 70.6105C69.9775 70.6536 70.4421 70.6126 70.8881 70.4894C71.019 70.4845 71.2668 70.4194 71.1506 70.6546C71.0675 70.8017 70.9408 70.9194 70.788 70.9913C70.7512 70.9943 70.7157 71.0065 70.6848 71.0266C70.6539 71.0468 70.6285 71.0743 70.6109 71.1068C70.5933 71.1393 70.5841 71.1756 70.5841 71.2125C70.5841 71.2494 70.5933 71.2858 70.6109 71.3182C70.6109 71.6255 71.1464 71.4631 71.3207 71.4883C71.2084 71.6262 71.0548 71.7244 70.8825 71.7683C70.5766 71.7823 70.4989 71.9958 70.578 72.1456C70.6445 72.2751 70.83 72.3143 70.8937 72.3843V72.3801ZM69.8325 64.629C69.6575 64.5765 67.1823 64.0627 67.1123 64.048C66.8295 63.4568 66.5234 62.8765 66.1939 62.3071C66.2194 62.0064 66.2083 61.7036 66.161 61.4055C66.6951 61.4755 67.2411 61.5287 67.771 61.5777C68.9302 61.6848 69.836 61.7919 71.1009 61.9501C71.0496 62.197 70.9975 62.4427 70.9448 62.6872C70.2358 62.5454 69.5199 62.441 68.8 62.3743C68.7564 62.3707 68.7129 62.3836 68.6783 62.4104C68.6437 62.4372 68.6204 62.476 68.613 62.5192C68.6056 62.5624 68.6147 62.6068 68.6384 62.6436C68.6622 62.6804 68.6988 62.7069 68.7412 62.718C69.0163 62.788 69.6778 62.8629 70.8468 63.1226C70.3792 65.231 69.8024 67.2834 69.1668 69.3694C69.136 69.396 69.1066 69.4226 69.0779 69.4492C68.9949 68.9621 68.8394 68.4902 68.6166 68.0492C68.2737 66.8322 67.8389 65.643 67.316 64.4918C67.6751 64.5814 68.0349 64.6626 68.3926 64.7459C68.8486 64.8741 69.3113 64.9772 69.7786 65.0546C69.8311 65.0545 69.8818 65.0352 69.9212 65.0004C69.9606 64.9656 69.9859 64.9176 69.9925 64.8655C69.9991 64.8134 69.9865 64.7606 69.9571 64.7171C69.9276 64.6736 69.8833 64.6423 69.8325 64.629ZM65.4512 58.5901C66.3185 58.707 67.1915 58.7771 68.0664 58.8001C68.3324 58.8092 69.766 58.7805 70.7404 58.672C70.8874 58.672 71.5286 58.5264 71.7302 58.5075C71.6895 58.8933 71.6241 59.2761 71.5342 59.6534C71.4509 60.1315 71.2206 61.3684 71.1919 61.5091C70.0313 61.3691 67.2796 61.0422 66.1078 61.0086C65.971 60.1824 65.751 59.3721 65.4512 58.5901ZM65.8082 61.6659C65.5749 61.2926 65.3317 60.9225 65.0788 60.5557L65.6031 60.527C65.6876 60.9022 65.7559 61.2812 65.8082 61.6638V61.6659ZM64.9353 58.4088C64.9472 58.4368 64.9584 58.4655 64.9696 58.4935C64.5621 58.1892 64.1755 57.8579 63.8125 57.5016C63.5276 57.2211 63.2595 56.924 63.0096 56.6119C64.5045 56.7303 66.006 56.4903 67.3895 55.9119C67.3608 56.1163 67.4147 56.1485 67.5043 56.2906C67.1039 56.6343 67.2075 56.9906 67.6002 57.1761C67.7767 57.2411 67.965 57.2673 68.1525 57.2531C68.3695 57.2482 68.6677 57.2643 68.7783 57.4512C68.8483 57.566 68.583 57.6521 68.4388 57.6206C67.981 57.5205 67.9005 57.3602 67.757 57.4533C67.7254 57.4753 67.7009 57.506 67.6865 57.5417C67.6721 57.5774 67.6684 57.6165 67.6758 57.6542C67.6758 57.7942 68.0258 58.1295 68.4773 58.1295C68.5823 58.1277 68.6867 58.1143 68.7888 58.0896C68.8077 58.1036 68.9687 58.2296 68.9883 58.2387C68.891 58.2653 68.793 58.2898 68.695 58.3136C67.515 58.3338 66.3352 58.2624 65.1663 58.1001C65.1284 58.0978 65.0904 58.105 65.0559 58.1209C65.0214 58.1368 64.9914 58.1611 64.9685 58.1914C64.9456 58.2218 64.9306 58.2573 64.9248 58.2949C64.919 58.3325 64.9226 58.3709 64.9353 58.4067V58.4088ZM76.2298 60.0055C76.2012 60.0031 76.1724 60.0068 76.1453 60.0164C76.1183 60.026 76.0936 60.0412 76.0728 60.0611C76.0521 60.0809 76.0359 60.105 76.0251 60.1316C76.0144 60.1582 76.0095 60.1869 76.0107 60.2155C76.0124 60.2552 76.027 60.2932 76.0522 60.3237C76.0775 60.3543 76.1121 60.3758 76.1507 60.3849C76.7807 60.5627 77.2413 60.7349 77.6641 60.8924C78.0741 60.9863 78.4598 61.1654 78.796 61.4181C78.7176 61.6543 78.6378 61.8899 78.5566 62.1251L77.3477 61.626C77.3176 61.6119 77.285 61.604 77.2518 61.6029C77.2186 61.6017 77.1855 61.6073 77.1545 61.6194C77.1235 61.6314 77.0953 61.6495 77.0715 61.6728C77.0477 61.696 77.0289 61.7238 77.0162 61.7545C77.0035 61.7853 76.9972 61.8182 76.9976 61.8514C76.998 61.8847 77.0052 61.9175 77.0186 61.9479C77.0321 61.9783 77.0515 62.0056 77.0758 62.0283C77.1002 62.0509 77.1288 62.0684 77.1601 62.0796L78.3956 62.5899C77.578 65.0112 76.5697 67.3638 75.38 69.6256L74.3041 69.1153C74.275 69.1015 74.2435 69.0936 74.2113 69.092C74.1792 69.0904 74.147 69.0952 74.1167 69.106C74.0864 69.1168 74.0585 69.1335 74.0346 69.1551C74.0107 69.1767 73.9913 69.2028 73.9775 69.2319C73.9638 69.261 73.9558 69.2925 73.9542 69.3247C73.9526 69.3568 73.9574 69.389 73.9682 69.4193C73.979 69.4496 73.9957 69.4775 74.0173 69.5014C74.0389 69.5253 74.065 69.5446 74.0941 69.5584L75.1441 70.0575C74.5934 71.0665 74.0026 72.0521 73.3717 73.0143C73.0746 72.637 72.7402 72.2906 72.3735 71.9804C73.4529 69.6004 75.2862 64.5737 75.7335 61.4748C75.7676 61.4556 75.7967 61.4288 75.8187 61.3964C75.8407 61.3641 75.8549 61.3271 75.8603 61.2883C75.8656 61.2496 75.862 61.2101 75.8496 61.173C75.8372 61.1359 75.8164 61.1022 75.7888 61.0744C74.9264 60.2554 74.0197 59.4842 73.0728 58.7644C73.0728 58.6244 73.0728 58.4795 73.0658 58.3444C75.2161 58.4532 77.3325 58.9254 79.3252 59.7409C79.2699 59.9229 79.0179 60.7251 78.9472 60.9449C78.0732 60.5458 77.1634 60.2305 76.2298 60.0034V60.0055ZM73.8596 64.5555C73.4577 64.2229 73.0201 63.9361 72.5548 63.7001C72.1814 63.4702 71.7895 63.2718 71.383 63.1072C71.4586 62.7628 71.5316 62.418 71.6021 62.0726C72.1346 62.3546 72.6525 62.6633 73.154 62.9973C73.6825 63.3477 74.1886 63.7307 74.6695 64.1439C74.5001 64.7599 74.0759 66.2054 73.7553 67.1497C72.8608 66.4174 71.8984 65.7724 70.8811 65.2233C71.0244 64.6596 71.1604 64.094 71.2892 63.5265C71.4054 63.5888 71.5223 63.6497 71.6392 63.7106C72.3219 64.0682 72.9818 64.4675 73.6153 64.9062C73.6616 64.9304 73.7151 64.937 73.7658 64.9246C73.8166 64.9122 73.861 64.8818 73.891 64.839C73.9209 64.7962 73.9342 64.7439 73.9285 64.692C73.9227 64.6401 73.8982 64.5921 73.8596 64.5569V64.5555ZM73.6251 67.52C73.5278 67.7965 73.4256 68.0723 73.3213 68.3474C72.4528 67.6448 71.5246 67.0195 70.5472 66.4784C70.6242 66.1984 70.6993 65.9184 70.7726 65.6384C73.3941 67.2701 73.0049 67.1126 73.6251 67.5214V67.52ZM75.359 61.3369C75.1343 62.1069 74.9943 62.8685 74.8032 63.6385C73.8448 62.8584 72.7982 62.1935 71.6847 61.6575C71.7696 61.2273 71.8501 60.7965 71.9262 60.3653C72.9685 60.8742 74.5442 61.8969 74.5603 61.9053C74.5873 61.9229 74.6175 61.935 74.6491 61.9409C74.6807 61.9468 74.7132 61.9464 74.7447 61.9397C74.7762 61.933 74.8061 61.9202 74.8326 61.902C74.8592 61.8838 74.8819 61.8606 74.8995 61.8336C74.917 61.8066 74.9291 61.7764 74.935 61.7448C74.9409 61.7131 74.9405 61.6806 74.9338 61.6491C74.9272 61.6177 74.9144 61.5878 74.8961 61.5612C74.8779 61.5347 74.8547 61.512 74.8277 61.4944C73.919 60.9004 72.9795 60.3551 72.013 59.8606C72.0765 59.4798 72.1371 59.0993 72.195 58.7189C73.3109 59.5154 74.3682 60.3908 75.359 61.3383V61.3369ZM72.2608 58.2142C72.256 58.1828 72.2448 58.1526 72.2279 58.1256C72.2109 58.0987 72.1887 58.0755 72.1624 58.0574C72.1362 58.0394 72.1066 58.0269 72.0753 58.0208C72.0441 58.0146 72.0119 58.015 71.9808 58.0217C71.4885 58.1015 70.9947 58.1655 70.4996 58.2135C71.219 57.9254 71.9018 57.5532 72.5338 57.1047C72.5709 57.5429 72.6038 57.9804 72.6402 58.4599C72.5163 58.3801 72.3896 58.2947 72.2608 58.2156V58.2142ZM72.16 56.7771C71.3069 57.3789 70.3611 57.8369 69.36 58.133C69.3642 58.1187 69.3664 58.1039 69.3663 58.0889C69.3663 57.9489 69.3663 57.937 69.1654 57.8005C69.4195 57.3875 69.1402 57.0053 68.7048 56.8653C68.4584 56.7862 67.897 56.8653 67.7248 56.7253C67.7866 56.6514 67.8571 56.5851 67.9348 56.5279C67.9554 56.549 67.9808 56.5647 68.0089 56.5736C68.037 56.5826 68.0668 56.5844 68.0958 56.579H68.1084C68.2582 56.6119 68.3772 56.439 68.3478 56.285C68.3344 56.2268 68.3061 56.173 68.2656 56.1291C68.225 56.0851 68.1738 56.0525 68.1168 56.0344C68.0453 56.0195 67.971 56.0261 67.9033 56.0533C67.8928 56.0358 67.8627 55.9917 67.8508 55.9749C67.821 55.8918 67.7603 55.8234 67.6814 55.7838C68.5084 55.4061 69.2799 54.9171 69.9746 54.3306C70.7012 55.0983 71.5338 55.7583 72.447 56.2906C72.4575 56.3711 72.468 56.4495 72.4785 56.5391C72.37 56.6147 72.2629 56.7001 72.16 56.7771ZM72.1824 72.4039C73.0483 73.3139 73.315 73.6289 73.315 73.6289C73.315 73.6289 74.0458 74.9799 74.2096 75.3243C73.3757 74.5953 72.5828 73.8206 71.8345 73.0038C71.9409 72.9548 71.95 72.8974 72.1803 72.4039H72.1824ZM73.6615 73.4658C74.3064 72.4858 74.9108 71.4825 75.4745 70.4558L76.7975 73.3587C76.1848 74.1177 75.518 74.8315 74.8025 75.4944C74.7626 75.4237 73.8078 73.7101 73.6594 73.4658H73.6615ZM79.7438 58.3136C78.929 57.9573 77.0579 57.3623 76.4832 57.2027C76.4371 57.1926 76.389 57.2002 76.3483 57.224C76.3075 57.2478 76.2773 57.2861 76.2635 57.3312C76.2498 57.3763 76.2535 57.4249 76.274 57.4674C76.2944 57.5099 76.3301 57.5431 76.374 57.5604C78.5867 58.2884 78.4502 58.3423 79.6143 58.7658C79.5653 58.9345 79.5163 59.1039 79.4666 59.2726C77.4476 58.3763 75.2629 57.9141 73.0539 57.916C73.0497 57.8313 72.9594 56.4306 72.9524 56.3459C74.5682 56.2462 76.1901 56.3566 77.7775 56.6742C77.8311 56.6755 77.8832 56.6562 77.923 56.6202C77.9628 56.5843 77.9874 56.5345 77.9917 56.481C77.9964 56.432 77.9824 56.3831 77.9523 56.3441C77.9223 56.3051 77.8786 56.279 77.83 56.271C76.9715 56.0015 76.0761 55.868 75.1763 55.8755C74.4195 55.8262 73.6598 55.8445 72.9062 55.9301C72.8446 55.4261 72.8726 55.3792 72.8033 54.9375C75.3949 54.7459 77.9991 55.0549 80.4739 55.8475C80.2345 56.5937 79.9797 57.4757 79.7417 58.3136H79.7438ZM56.123 54.9221C56.1973 54.8386 56.2435 54.7339 56.255 54.6228C56.2666 54.5116 56.2429 54.3996 56.1874 54.3026C56.8062 54.4616 57.4128 54.6649 58.0025 54.9109C57.2067 54.9189 56.4143 55.0159 55.64 55.2C55.6428 55.1872 55.6442 55.174 55.6442 55.1608V55.1433C55.8267 55.1355 55.9987 55.056 56.123 54.9221ZM50.8457 57.3406C51.5387 55.0964 52.9772 53.9106 55.3327 54.1535C55.4724 54.2743 55.6199 54.3856 55.7744 54.4867C55.8724 54.5609 55.7485 54.6771 55.64 54.675C55.4048 54.6505 55.3964 54.57 55.1171 54.4713C55.0715 54.4578 55.0228 54.4589 54.9778 54.4744C54.9329 54.49 54.894 54.5193 54.8665 54.5581C54.8466 54.5946 54.8367 54.6358 54.838 54.6774C54.8392 54.719 54.8515 54.7595 54.8735 54.7947C54.9805 54.9319 55.1271 55.0329 55.2935 55.0838C55.2991 55.1622 55.2718 55.207 55.3257 55.2784C53.7319 55.7223 52.2194 56.4185 50.8457 57.3406ZM53.7346 75.5511C51.965 75.7128 52.4186 75.6365 51.9846 75.6834C51.8424 75.7106 51.6963 75.7106 51.5541 75.6834C51.4518 75.5037 51.3808 75.308 51.3441 75.1045C51.0193 74.0505 50.7621 72.9769 50.5741 71.8901C50.1924 69.7716 50.1773 67.6032 50.5293 65.4795C50.6645 64.4617 51.1251 63.5149 51.8425 62.7803C52.6895 62.0103 53.9208 61.773 55.0072 61.4783C56.6011 65.9436 61.2183 69.6725 65.5072 71.7788C61.8611 73.7793 57.8643 75.0599 53.7346 75.5511ZM79.0984 78.4631C77.7322 78.4453 76.3716 78.2855 75.0384 77.9864C71.4988 77.0475 68.3464 75.014 66.0315 72.1764C66.0108 72.1215 65.9933 72.0654 65.979 72.0084C66.2276 72.177 66.5188 72.2717 66.819 72.2814C67.0067 72.2848 67.1924 72.2425 67.3601 72.1582C67.6585 72.4407 68.0116 72.6591 68.3975 72.8001C69.15 73.1704 70.0184 73.2281 70.8132 72.9604C70.9212 72.9275 71.0265 72.8864 71.1282 72.8372C72.1226 73.9906 73.1987 75.071 74.3482 76.0698C74.357 76.1081 74.3752 76.1435 74.4012 76.173C74.4272 76.2024 74.4601 76.2248 74.497 76.2383C74.5339 76.2517 74.5735 76.2557 74.6123 76.2499C74.6511 76.244 74.6879 76.2286 74.7192 76.2049C77.0684 74.4276 78.6126 71.7319 79.9762 69.3519C80.6314 68.1724 82.0545 65.5859 82.7013 64.1642C83.1833 63.1097 83.5689 62.0137 83.8535 60.8896C83.8896 60.8481 83.9079 60.7941 83.9046 60.7391C83.8144 60.2682 83.6569 59.8128 83.437 59.3867C82.8741 57.9993 82.0208 56.7484 80.9345 55.718C80.9702 55.5591 80.7707 55.4345 80.6755 55.4107C80.3246 55.2973 79.9701 55.193 79.6122 55.0978C79.9524 53.9584 80.1899 52.7908 80.322 51.609C80.5666 51.5719 80.8003 51.4826 81.0073 51.3472C81.1037 51.5535 81.2233 51.7482 81.3636 51.9275C81.2469 52.0209 81.1328 52.1177 81.0213 52.218C80.8317 52.3956 80.7077 52.6321 80.6696 52.8891C80.6314 53.1461 80.6814 53.4084 80.8113 53.6334C81.0169 53.8591 81.2895 54.0127 81.589 54.0716C81.7706 54.1468 81.9686 54.1738 82.1637 54.15C82.3588 54.1262 82.5445 54.0524 82.7027 53.9358C82.7108 53.9295 82.7167 53.9209 82.7197 53.9111C82.7227 53.9013 82.7226 53.8908 82.7194 53.881C82.7161 53.8713 82.71 53.8628 82.7017 53.8567C82.6935 53.8506 82.6836 53.8472 82.6733 53.8469C82.476 53.849 82.2815 53.8003 82.1084 53.7055C81.9353 53.6108 81.7895 53.4732 81.6849 53.3058C81.6435 53.1588 81.6411 53.0035 81.6779 52.8552C81.7147 52.7069 81.7895 52.5708 81.8949 52.4602C82.8398 53.0808 83.9357 53.4327 85.0652 53.478C85.5412 53.4903 86.0158 53.5357 86.4855 53.6138C86.4855 53.6138 86.7522 54.0709 86.7781 54.1038C86.6311 54.2047 86.4908 54.3151 86.3581 54.4342C86.2674 54.5491 86.2067 54.6847 86.1815 54.8289C86.1562 54.973 86.1672 55.1212 86.2135 55.26C86.2597 55.3989 86.3397 55.524 86.4464 55.6243C86.553 55.7245 86.6829 55.7967 86.8243 55.8342C87.8148 62.6242 86.6556 69.9119 83.374 77.5391C82.1207 78.3855 80.5894 78.7164 79.0984 78.4631ZM120.118 46.3912C113.976 52.6723 105.675 56.4537 97.8654 60.2379C95.7557 61.3202 93.5312 62.1622 91.2336 62.7481C91.3207 61.14 91.2636 59.5273 91.0628 57.9293C91.0629 57.8823 91.0495 57.8361 91.0243 57.7963C90.9991 57.7566 90.9631 57.7248 90.9205 57.7048C90.8779 57.6847 90.8305 57.6772 90.7838 57.6831C90.7371 57.6891 90.693 57.7082 90.6568 57.7382C90.6148 57.7665 90.5816 57.8059 90.561 57.852C90.5403 57.8982 90.533 57.9492 90.5399 57.9993C91.4107 64.3497 89.3163 71.1845 87.2597 77.7834C86.6644 79.7636 85.7106 81.6176 84.4457 83.2532C83.2286 84.7999 81.4784 85.837 79.5373 86.1617C85.1226 76.6417 89.2932 65.8043 87.105 55.0726C87.0985 55.0419 87.0839 55.0134 87.0627 54.9902C87.0416 54.9669 87.0146 54.9497 86.9846 54.9403C86.9543 54.924 86.9201 54.9165 86.8858 54.9186C86.8514 54.9207 86.8184 54.9323 86.7903 54.9522C86.7622 54.972 86.7402 54.9993 86.7268 55.031C86.7134 55.0627 86.7091 55.0975 86.7144 55.1314C86.5205 54.7485 86.9188 54.6351 87.1456 54.4146C87.3981 54.5328 87.6754 54.5881 87.9539 54.5759C88.2324 54.5637 88.5039 54.4844 88.7451 54.3446C88.7544 54.3391 88.7616 54.3307 88.7657 54.3207C88.7698 54.3107 88.7705 54.2996 88.7677 54.2892C88.7649 54.2787 88.7589 54.2695 88.7504 54.2628C88.7419 54.2561 88.7314 54.2524 88.7206 54.2522C88.5762 54.2415 88.4393 54.1837 88.331 54.0876C88.2228 53.9914 88.1491 53.8624 88.1214 53.7202C106.893 49.6532 119.185 44.3213 119.607 44.3654C120.038 44.7859 120.358 45.3059 120.539 45.8795C120.519 46.0496 120.26 46.2428 120.117 46.3912H120.118ZM122.488 44.1148C122.228 44.7274 121.739 45.2144 121.126 45.4721C121.068 45.4994 121.011 45.5267 120.954 45.5554C120.723 45.0071 120.424 44.4898 120.064 44.0154C120.123 43.6778 120.208 43.3452 120.318 43.0207C120.392 42.859 120.512 42.7224 120.663 42.6274C120.813 42.5324 120.988 42.483 121.166 42.4854C121.344 42.4878 121.518 42.5417 121.666 42.6407C121.814 42.7397 121.93 42.8795 122 43.0431C122.03 43.0944 122.051 43.1506 122.061 43.209C121.977 43.2577 121.88 43.2822 121.783 43.2797C121.686 43.2773 121.591 43.248 121.509 43.195C121.466 43.1728 121.418 43.1631 121.37 43.1668C121.322 43.1706 121.276 43.1878 121.237 43.2164C121.198 43.2451 121.168 43.284 121.15 43.3289C121.133 43.3737 121.128 43.4226 121.136 43.4701C121.168 43.6269 121.165 43.7889 121.127 43.9442C121.088 44.0995 121.015 44.2442 120.913 44.3675C120.879 44.4217 120.867 44.4864 120.878 44.5491C120.89 44.6118 120.924 44.6681 120.974 44.7071C121.025 44.7461 121.088 44.765 121.151 44.7602C121.215 44.7554 121.274 44.7272 121.318 44.6811C121.535 44.428 121.66 44.1095 121.673 43.7767C121.804 43.7916 121.936 43.7797 122.062 43.7418C122.187 43.7038 122.304 43.6407 122.405 43.5562C122.477 43.5147 122.532 43.4468 122.556 43.3665C122.619 43.3602 122.683 43.3553 122.748 43.3511C122.693 43.6153 122.607 43.8718 122.49 44.1148H122.488Z" fill="#3A52BD"/>
<path d="M84.9196 46.6257C85.0302 47.0653 85.3473 47.4986 85.6966 47.1766C85.9591 46.9351 85.733 46.205 85.4978 46.0216C85.2626 45.8382 84.7159 45.8151 84.9196 46.6257Z" fill="#3A52BD"/>
<path d="M88.0389 45.6821C88.1733 46.1721 88.5723 46.2036 88.7389 45.9838C88.9419 45.7108 88.7277 45.1592 88.5513 44.9618C88.3028 44.6881 87.8226 44.8918 88.0389 45.6821Z" fill="#3A52BD"/>
<path d="M87.692 46.4382C88.1771 47.1452 88.322 47.4847 88.5194 47.7969C88.3072 47.8428 88.0991 47.9058 87.8971 47.9852C87.8469 48.0034 87.8044 48.0382 87.7767 48.0838C87.749 48.1295 87.7378 48.1833 87.7449 48.2362C87.7521 48.2891 87.7771 48.338 87.8158 48.3747C87.8546 48.4115 87.9048 48.4338 87.958 48.4381C88.3109 48.3987 88.6523 48.2887 88.9618 48.1147C89.1942 47.8592 88.8351 47.3902 88.7161 47.1921C88.3676 46.5793 87.948 46.0097 87.4659 45.4953C87.4339 45.4697 87.3939 45.4562 87.353 45.457C87.312 45.4579 87.2726 45.4731 87.2417 45.5C87.2108 45.5269 87.1903 45.5638 87.1839 45.6043C87.1774 45.6447 87.1853 45.6862 87.2062 45.7214C87.3539 45.9697 87.5161 46.209 87.692 46.4382Z" fill="#3A52BD"/>
<path d="M84.2416 46.0741C84.2499 46.1138 84.2716 46.1495 84.3031 46.175C84.3346 46.2005 84.374 46.2143 84.4145 46.2141H84.4845C84.5135 46.2142 84.5421 46.207 84.5677 46.1933C84.5932 46.1795 84.615 46.1597 84.6309 46.1354C84.6469 46.1112 84.6566 46.0834 84.6592 46.0545C84.6617 46.0256 84.657 45.9965 84.6455 45.9698C84.6453 45.7821 84.7092 45.6 84.8265 45.4535C84.9439 45.307 85.1077 45.2049 85.2909 45.1641C85.6458 45.1641 85.7515 44.9478 85.65 44.7854C85.6401 44.7607 85.6248 44.7385 85.6052 44.7203C85.4137 44.6672 85.2108 44.6711 85.0215 44.7315C84.8321 44.792 84.6645 44.9063 84.5391 45.0605C84.414 45.1946 84.322 45.3561 84.2703 45.5321C84.2187 45.7081 84.2088 45.8937 84.2416 46.0741Z" fill="#3A52BD"/>
<path d="M85.4202 48.2853C85.4984 49.2191 85.9178 50.0913 86.5983 50.7353C87.0127 51.0524 87.4761 50.8613 87.8926 50.5428C88.2945 50.2443 88.6365 49.8727 88.9006 49.4473C88.9234 49.4001 88.9292 49.3464 88.917 49.2953C88.9048 49.2443 88.8754 49.199 88.8337 49.1671C88.792 49.1352 88.7406 49.1187 88.6882 49.1202C88.6357 49.1218 88.5854 49.1414 88.5457 49.1757C88.1808 49.6581 87.7281 50.0673 87.2115 50.3818C87.129 50.4044 87.0415 50.4012 86.9608 50.3727C86.8801 50.3442 86.81 50.2917 86.76 50.2222C86.3734 49.7812 86.1 49.2526 85.9634 48.6822C86.3712 48.8631 86.8063 48.975 87.2507 49.0133C87.8425 49.1494 88.4637 49.0621 88.9951 48.7683C89.2002 48.6549 89.0007 48.2783 88.8068 48.4239C88.3287 48.6255 87.7986 48.6687 87.2941 48.5471C86.7552 48.4848 86.2363 48.3057 85.7737 48.0221C85.7327 48.0036 85.6875 47.9964 85.6428 48.0013C85.5981 48.0061 85.5555 48.0228 85.5195 48.0497C85.4834 48.0765 85.4552 48.1125 85.4377 48.154C85.4203 48.1954 85.4142 48.2408 85.4202 48.2853Z" fill="#3A52BD"/>
<path d="M39.5394 65.8001C41.8921 66.5085 44.7894 66.2334 46.7151 64.4974C47.7262 63.5623 48.5775 62.4679 49.2351 61.2578C49.3569 61.0947 49.2645 60.8182 48.9516 60.8721C47.3518 61.1387 45.7212 61.1642 44.1139 60.9477C44.073 60.9468 44.0326 60.956 43.9961 60.9745C43.9597 60.993 43.9284 61.0203 43.9051 61.0538C43.8817 61.0873 43.867 61.1261 43.8623 61.1667C43.8576 61.2073 43.8629 61.2485 43.878 61.2865C43.0919 62.4038 41.9543 63.2256 40.6466 63.621C39.3389 64.0163 37.9365 63.9623 36.6631 63.4677C36.6142 63.4581 36.5636 63.4634 36.5177 63.4828C36.4718 63.5022 36.4328 63.5349 36.4057 63.5767C36.3785 63.6184 36.3644 63.6673 36.3653 63.7171C36.3661 63.7669 36.3818 63.8153 36.4104 63.8562C37.2025 64.8405 38.306 65.526 39.5394 65.8001ZM48.4994 61.4258C47.8027 62.5896 46.9016 63.6181 45.8394 64.4617C45.8532 64.4309 45.8599 64.3975 45.8592 64.3638C45.8584 64.3301 45.8502 64.297 45.835 64.2669C45.8198 64.2368 45.7982 64.2104 45.7716 64.1898C45.745 64.1691 45.7141 64.1546 45.6812 64.1474C45.6071 64.1044 45.5275 64.0717 45.4446 64.0501C45.4519 63.926 45.4309 63.8019 45.3831 63.6871C45.3353 63.5724 45.262 63.47 45.1688 63.3879C44.9739 63.2471 44.734 63.1828 44.4949 63.2073C44.2557 63.2319 44.0339 63.3434 43.8717 63.5209C43.5553 63.7834 43.2711 64.2083 42.9071 64.0753C42.7216 64.0123 42.7419 63.9353 42.7538 63.8891C42.7902 63.7982 42.8449 63.7157 42.9145 63.6468C42.9841 63.578 43.0671 63.5241 43.1584 63.4887C43.1709 63.5091 43.1875 63.5267 43.2071 63.5405C43.2267 63.5542 43.249 63.5637 43.2725 63.5685C43.3474 63.586 43.3901 63.5517 43.4615 63.4985C43.6505 63.3641 43.4447 63.0708 43.1871 63.0519C42.9635 63.07 42.7538 63.1673 42.5956 63.3263C42.5466 63.333 42.4969 63.333 42.4479 63.3263H42.3702C43.1156 62.8445 43.7528 62.213 44.2413 61.472C45.655 61.645 47.0854 61.6297 48.4952 61.4265L48.4994 61.4258ZM42.1182 63.6707C42.1406 63.7002 42.1708 63.7229 42.2054 63.7362C42.2401 63.7496 42.2777 63.7531 42.3142 63.7463C42.275 63.9071 42.3008 64.0768 42.3858 64.2188C42.4708 64.3608 42.6083 64.4636 42.7685 64.5051C43.3285 64.6997 43.8066 64.2118 43.9697 64.0431C44.1149 63.8705 44.3029 63.7391 44.515 63.6623C44.5978 63.634 44.6881 63.6369 44.769 63.6706C44.8498 63.7042 44.9155 63.7662 44.9539 63.845C44.9886 63.9272 44.9907 64.0196 44.9596 64.1032C44.9285 64.1869 44.8666 64.2555 44.7866 64.2951C44.5736 64.3652 44.3507 64.4009 44.1265 64.4008C44.0638 64.3946 44.0012 64.4131 43.952 64.4523C43.9027 64.4915 43.8706 64.5483 43.8626 64.6108C43.8585 64.6622 43.8736 64.7133 43.9048 64.7544C43.936 64.7954 43.9813 64.8235 44.032 64.8334C44.2543 64.8981 44.4904 64.8989 44.7132 64.8358C44.936 64.7727 45.1366 64.6481 45.292 64.4764C45.4817 64.5324 45.502 64.6073 45.6252 64.6087C44.9758 65.0511 44.2451 65.3604 43.4755 65.5187C42.2991 65.7448 41.0872 65.7058 39.9279 65.4046C39.0118 65.2383 38.158 64.8271 37.4569 64.2146C39.0316 64.5621 40.6793 64.3087 42.0769 63.5041C42.0678 63.5625 42.0811 63.6222 42.114 63.6714L42.1182 63.6707Z" fill="#3A52BD"/>
<path d="M16.8819 62.9126C16.8866 62.9597 16.9046 63.0046 16.9338 63.042C16.963 63.0793 17.0022 63.1077 17.0468 63.1236C17.0915 63.1396 17.1397 63.1426 17.186 63.1323C17.2323 63.1219 17.2746 63.0986 17.3082 63.0652C18.6892 61.5218 20.391 60.299 22.2943 59.4826C23.2095 59.1011 24.1997 58.9335 25.1894 58.9926C26.1791 59.0517 27.1423 59.3358 28.0056 59.8235C28.0516 59.847 28.1035 59.8565 28.1548 59.8507C28.2062 59.8449 28.2547 59.8242 28.2943 59.7911C28.3339 59.7579 28.3629 59.7139 28.3777 59.6643C28.3925 59.6148 28.3923 59.5621 28.3773 59.5127C27.9445 58.3135 27.3736 57.1688 26.6763 56.1016C26.6544 56.0744 26.6273 56.0518 26.5966 56.0352C26.5658 56.0187 26.5321 56.0084 26.4973 56.0051C26.4625 56.0018 26.4274 56.0054 26.3941 56.0159C26.3608 56.0263 26.3299 56.0433 26.3032 56.0659C24.1164 55.3815 21.75 55.5662 19.6959 56.5818C18.655 57.0168 17.8219 57.8364 17.3698 58.8701C16.9125 60.1654 16.7459 61.5456 16.8819 62.9126ZM26.3235 56.4901C26.833 57.3178 27.2777 58.1837 27.6535 59.0801C26.1374 58.401 24.4288 58.2848 22.8347 58.7525C22.861 58.7211 22.8754 58.6814 22.8753 58.6405C22.8753 58.4641 22.8368 58.5005 22.7542 58.3052C22.8772 58.268 22.9913 58.2062 23.0896 58.1235C23.188 58.0409 23.2684 57.939 23.3261 57.8243C23.5312 57.3189 22.9544 56.8443 22.3426 56.7701C22.2036 56.7641 22.0651 56.7487 21.9282 56.7239C21.8938 56.7127 21.8651 56.6887 21.848 56.6569C21.8309 56.6251 21.8268 56.5879 21.8365 56.5531C21.9378 56.4039 22.0878 56.2946 22.2607 56.2437C22.2773 56.2383 22.2929 56.2302 22.3069 56.2199C23.6489 56.0035 25.0226 56.0959 26.3235 56.4901ZM21.4452 56.4075C21.3129 56.7687 21.4935 57.1075 21.9919 57.1838C22.2694 57.1665 22.5441 57.2484 22.7668 57.4148C22.8179 57.4596 22.9341 57.5723 22.9068 57.636C22.7409 57.9587 22.1648 57.9216 21.84 57.6633C21.812 57.6457 21.7806 57.6344 21.7478 57.6301C21.715 57.6258 21.6817 57.6287 21.6502 57.6384C21.6186 57.6482 21.5895 57.6647 21.5649 57.6867C21.5403 57.7088 21.5207 57.7359 21.5075 57.7662C21.4974 57.8016 21.4953 57.8388 21.5014 57.8751C21.5074 57.9114 21.5215 57.9459 21.5425 57.9762C21.6424 58.0888 21.7641 58.18 21.9004 58.244C22.0366 58.308 22.1845 58.3436 22.3349 58.3486C22.3559 58.4494 22.3943 58.5458 22.4483 58.6335C22.4679 58.6748 22.4956 58.7117 22.53 58.7419C22.5643 58.7721 22.6044 58.795 22.6478 58.8092C20.6245 59.552 18.798 60.748 17.3082 62.3057C17.2764 61.2936 17.4025 60.2828 17.682 59.3097C17.8843 58.7739 18.1946 58.2854 18.5937 57.8746C18.9928 57.4639 19.4721 57.1396 20.0018 56.922C20.4698 56.7155 20.9522 56.5435 21.4452 56.4075Z" fill="#3A52BD"/>
<path d="M132.925 57.804C132.943 57.7514 132.947 57.6954 132.939 57.6406C132.931 57.5858 132.909 57.5338 132.877 57.4888C132.845 57.4438 132.802 57.4072 132.753 57.3819C132.703 57.3566 132.649 57.3434 132.593 57.3434C132.515 57.3368 132.437 57.3565 132.372 57.3994C132.306 57.4422 132.257 57.5058 132.232 57.58C118.952 96.3852 95.2216 130.62 59.0239 150.57C58.9407 150.627 58.8816 150.712 58.8584 150.81C58.8353 150.908 58.8497 151.012 58.8988 151.099C58.948 151.187 59.0282 151.254 59.1238 151.285C59.2194 151.317 59.3234 151.311 59.4152 151.27C94.9696 132.101 119.948 96.7345 132.925 57.804Z" fill="#3A52BD"/>
<path d="M134.519 55.0593C131.763 85.1299 120.119 113.7 101.07 137.13C99.5527 138.99 99.5688 138.91 99.5688 139.086C99.5651 139.165 99.5862 139.244 99.629 139.311C99.6719 139.377 99.7344 139.429 99.808 139.459C99.8815 139.489 99.9625 139.495 100.04 139.477C100.117 139.459 100.187 139.417 100.239 139.358C115.843 120.791 126.775 98.759 132.121 75.1031C133.608 68.522 134.644 61.8472 135.224 55.1251C135.265 54.6617 134.559 54.6421 134.519 55.0593Z" fill="#3A52BD"/>
</svg>
