<svg width="146" height="182" viewBox="0 0 146 182" fill="none" xmlns="http://www.w3.org/2000/svg">
<rect x="0.5" y="0.5" width="145" height="181" rx="7.5" stroke="#B32F31"/>
<path d="M41.2003 69.5871C41.3053 69.5871 41.2843 69.3351 41.2003 69.3841C40.7103 69.6571 39.6813 69.3491 39.3733 69.2511C38.8973 69.1531 39.7303 70.0631 40.3393 70.3991C40.3472 70.4056 40.3562 70.4104 40.3658 70.4134C40.3755 70.4163 40.3857 70.4173 40.3958 70.4164C40.4058 70.4154 40.4156 70.4124 40.4246 70.4077C40.4335 70.4029 40.4414 70.3965 40.4478 70.3886C40.4543 70.3808 40.4591 70.3718 40.4621 70.3621C40.465 70.3525 40.466 70.3423 40.4651 70.3322C40.4641 70.3221 40.4611 70.3124 40.4564 70.3034C40.4516 70.2945 40.4452 70.2866 40.4373 70.2801C40.1058 70.0897 39.8136 69.8379 39.5763 69.5381C40.0991 69.7244 40.6673 69.7415 41.2003 69.5871ZM43.5033 65.6881C42.6971 65.6431 41.8885 65.7139 41.1023 65.8981C40.9973 65.8981 41.0323 66.0661 41.1023 66.0661C41.9047 66.1115 42.7094 66.036 43.4893 65.8421C43.6013 65.8001 43.6013 65.6881 43.5033 65.6881ZM44.3013 65.5411C44.1823 65.5411 44.2173 65.7441 44.3013 65.7441C44.4858 65.7889 44.6802 65.764 44.8473 65.6741C45.0993 65.4711 44.6233 65.4781 44.3013 65.5411ZM44.8753 95.7531C43.9742 95.6817 43.0675 95.7501 42.1873 95.9561C42.1547 95.9634 42.1255 95.9816 42.1046 96.0077C42.0836 96.0337 42.0722 96.0662 42.0722 96.0996C42.0722 96.1331 42.0836 96.1655 42.1046 96.1916C42.1255 96.2177 42.1547 96.2359 42.1873 96.2431C43.0737 96.2404 43.9584 96.1679 44.8333 96.0261C45.0013 95.9701 45.0013 95.7881 44.8753 95.7531Z" fill="#B32F31"/>
<path d="M124.962 134.281C113.216 130.494 99.4046 130.501 86.2096 130.921C87.3996 130.053 86.8326 129.269 85.8106 129.318C84.8984 129.464 83.971 129.487 83.0526 129.388C83.1856 127.47 83.2626 123.186 83.2276 119.399C89.2546 119.679 107.728 119.399 131.255 118.783C131.353 118.783 131.388 118.384 131.255 118.391C118.361 118.951 86.6716 119.154 83.2206 119.126C83.1786 114.534 82.6606 101.941 78.2156 100.8C77.8586 100.716 65.0696 100.016 62.6336 100.002C62.6336 99.6241 62.7806 90.9441 62.4446 88.8442C61.8496 85.0641 58.8676 82.0051 54.9196 82.1661C51.8466 77.0701 45.0356 73.3672 41.2276 73.5562C41.2276 73.2341 41.0526 72.3451 41.3326 72.1982C41.7897 72.2509 42.2528 72.1954 42.6845 72.0361C43.1162 71.8769 43.5044 71.6182 43.8176 71.2812C44.8676 70.2312 45.1056 68.3832 44.8536 66.9762C46.2536 65.9682 46.3376 62.2442 43.8176 62.2022C39.3026 62.2022 37.3076 62.2022 36.6076 63.7282C36.1836 64.7044 36.1461 65.8053 36.5026 66.8082C37.2026 68.4882 40.6396 67.9142 42.8026 67.6201C43.4639 67.5669 44.1095 67.3913 44.7066 67.1022C44.9516 73.1082 41.0736 71.7572 41.0736 72.0792C41.1436 74.0672 40.9336 73.6962 41.5496 73.7242C41.8646 75.9641 39.4496 76.9512 37.6366 76.4612C35.3196 75.8592 34.5286 73.5352 34.3746 73.4021C34.4323 71.6144 34.3621 69.8249 34.1646 68.0471C34.0456 67.6411 31.7636 67.7951 32.3516 65.8421C32.5896 65.1001 33.5416 64.7572 34.5566 65.3172C35.2566 65.6952 35.2566 66.2831 35.8096 66.2201C36.0616 66.2201 34.8926 62.2442 39.0786 61.9012C41.3466 61.7122 44.5666 61.5092 45.1546 61.9642C45.7426 62.4192 45.7006 63.0842 45.9736 63.1821C46.2466 63.2801 46.4636 62.5242 47.1076 62.3562C47.7516 62.1882 48.4586 62.0342 48.3746 61.4251C48.3436 61.247 48.2767 61.0769 48.178 60.9253C48.0794 60.7737 47.951 60.6437 47.8006 60.5431C47.9724 60.3854 48.1002 60.1856 48.1714 59.9634C48.2426 59.7413 48.2547 59.5044 48.2066 59.2761C47.9686 58.5761 47.5976 58.5131 47.5976 58.5131C47.7079 58.3737 47.7784 58.2071 47.8018 58.0309C47.8252 57.8548 47.8006 57.6755 47.7306 57.5121C47.6874 57.345 47.6088 57.1892 47.5001 57.0551C47.3914 56.9211 47.2552 56.8119 47.1006 56.7351C47.22 56.5227 47.2867 56.2847 47.2952 56.0411C47.3038 55.7975 47.2538 55.5555 47.1496 55.3351C47.0123 55.1244 46.8145 54.9601 46.5821 54.8639C46.3497 54.7677 46.0937 54.7441 45.8476 54.7961C45.8476 54.7961 45.9456 53.6131 45.3016 53.2351C44.6576 52.8571 43.9016 53.4731 43.9016 53.4731C43.9016 53.4731 44.3426 51.8001 42.6976 51.5621C41.0526 51.3241 41.0386 52.3251 41.0386 52.3251C41.0386 52.3251 40.5976 50.5471 39.2956 50.8341C37.9936 51.1211 38.0006 52.1081 38.0006 52.1081C37.5047 51.6266 36.85 51.3428 36.1596 51.3101C35.2776 51.4291 34.9066 52.5841 34.9066 52.5841C34.9066 52.5841 34.3256 51.7021 33.6536 51.9892C32.9816 52.2761 32.9536 53.2422 32.9536 53.2422C32.6872 53.0449 32.3645 52.9385 32.0331 52.9385C31.7017 52.9385 31.379 53.0449 31.1126 53.2422C30.2796 53.9422 30.7066 54.4812 30.7066 54.4812C30.7066 54.4812 29.3836 54.0051 29.0266 54.8032C28.9706 54.8969 28.9344 55.0012 28.9203 55.1096C28.9062 55.2179 28.9145 55.328 28.9447 55.433C28.9749 55.538 29.0263 55.6357 29.0958 55.72C29.1653 55.8043 29.2513 55.8734 29.3486 55.9231C29.0707 55.9445 28.8076 56.0569 28.6001 56.243C28.3926 56.429 28.2521 56.6782 28.2006 56.9522C28.0816 57.8832 28.5716 57.9181 28.5716 57.9181C28.3007 57.9799 28.0514 58.1131 27.8495 58.3039C27.6476 58.4947 27.5005 58.7362 27.4236 59.0032C27.3781 59.1126 27.3557 59.2302 27.3578 59.3487C27.3599 59.4671 27.3864 59.5839 27.4357 59.6917C27.4849 59.7994 27.5559 59.8959 27.6442 59.9749C27.7325 60.054 27.8361 60.114 27.9486 60.1511C27.9486 60.1511 26.7586 60.6481 27.0666 61.4951C27.1667 61.7436 27.336 61.958 27.5544 62.1131C27.7728 62.2682 28.0311 62.3574 28.2986 62.3701C28.2986 62.3701 26.8986 63.0702 27.4236 64.0991C27.5234 64.368 27.7001 64.6015 27.9316 64.7708C28.163 64.94 28.4392 65.0375 28.7256 65.0512C28.5268 65.2324 28.4024 65.4809 28.3765 65.7487C28.3507 66.0164 28.4252 66.2842 28.5856 66.5002C28.7499 66.7298 28.9695 66.9143 29.2239 67.0367C29.4784 67.159 29.7596 67.2152 30.0416 67.2002C30.0416 67.2002 29.3416 67.8442 30.2796 68.7962C30.5185 68.9622 30.7929 69.0702 31.0809 69.1115C31.369 69.1529 31.6626 69.1264 31.9386 69.0342C31.9386 69.0342 31.6166 69.8811 32.7646 70.1192C33.4296 70.2521 33.8006 69.7062 34.0036 69.1322C34.0806 69.6642 34.2276 72.3172 34.2276 73.3322C33.7166 73.2202 25.1766 73.5002 20.8016 79.1352C19.1566 79.1352 13.6196 79.8912 11.7856 80.6752C8.49561 82.0751 8.06161 84.3642 7.87261 87.8502C6.29761 121.758 6.22061 120.96 7.03961 123.844C7.46632 125.196 8.1577 126.449 9.07346 127.53C9.98922 128.612 11.1111 129.5 12.3736 130.144C12.2266 131.873 12.1076 133.644 12.0726 135.394C12.0166 138.033 14.5856 138.04 14.8726 136.206C15.0336 135.275 14.8726 135.121 14.9566 131.264C20.0176 133.077 26.3876 133.567 31.8616 133.364C31.9176 139.944 31.5116 141.967 33.0096 142.317C34.3326 142.625 35.1096 141.218 35.1796 140.133C35.2286 139.559 35.0606 133.245 35.0606 133.175C36.7196 133.063 38.4206 133.056 39.3236 131.838C40.4506 133.819 42.7326 133.238 49.2006 132.748C49.1096 136.318 51.8886 135.45 51.1956 132.615L57.8736 132.174C58.2194 133.2 58.5952 134.215 59.0006 135.219C56.5786 136.178 53.9746 137.508 53.4846 140.21C53.0436 142.646 54.6536 144.984 56.4806 146.419C64.5796 152.719 99.1176 157.997 125.375 149.688C129.183 148.484 135.126 146.447 135.637 142.338C136.218 137.998 129.519 135.737 124.962 134.281ZM41.8646 67.4872C38.7356 67.8302 36.6916 68.1872 36.5236 65.7932C36.3976 63.5112 37.3636 62.6292 39.3236 62.5592C37.7976 63.5252 37.2726 66.0592 38.8336 67.2352C38.8826 67.2352 38.9526 67.2352 38.9176 67.1512C37.6576 65.1982 38.0636 63.6161 39.7576 62.5382C39.7576 62.5382 43.8176 62.3772 43.8456 62.3912C45.3366 62.5732 45.6376 63.6931 45.5746 64.9951C45.4066 67.2001 43.7196 67.2982 41.8646 67.4872ZM83.0456 120.953C83.0456 122.192 82.8706 127.323 82.7936 129.353C81.9816 129.15 81.5056 128.835 81.2186 128.912C81.0506 128.506 80.8826 128.086 80.6936 127.68C80.7505 127.588 80.8019 127.492 80.8476 127.393C80.8476 127.393 78.5656 116.319 73.4416 108.997C73.8476 98.3502 83.2066 94.7591 83.0456 120.953ZM76.8016 130.9C77.0536 130.76 77.2216 130.662 77.5436 130.452C78.1944 131.076 78.6906 131.843 78.9926 132.692C78.9226 133.525 78.9296 134.365 78.9156 135.212C78.8456 138.012 77.2846 137.165 77.0536 135.625C76.878 134.056 76.7939 132.479 76.8016 130.9ZM78.5096 131.215L77.7466 130.319C78.6929 129.586 79.5974 128.801 80.4556 127.967C80.6236 128.338 80.8266 128.667 81.0156 129.052C80.8616 129.437 81.0156 130.403 80.1686 131.068C79.9321 131.242 79.6532 131.348 79.3612 131.377C79.0693 131.405 78.7751 131.354 78.5096 131.229V131.215ZM76.5986 100.884C74.4496 101.514 73.2736 105.966 73.1546 108.584C70.8656 105.378 68.0516 102.984 64.6916 102.683C63.9356 102.62 63.1936 102.571 62.4726 102.522C62.5496 101.745 62.5986 101.122 62.6196 100.324C65.0416 100.555 74.3166 100.8 76.5986 100.898V100.884ZM59.9946 84.4131C62.9766 87.2131 62.2906 91.6231 62.3256 96.7332C62.3256 98.6372 62.2696 100.604 62.1086 102.508C58.8458 102.303 55.5741 102.28 52.3086 102.438C52.3219 101.804 52.2656 101.17 52.1406 100.548C52.7711 100.837 53.4453 101.02 54.1356 101.087C55.1361 101.236 56.1582 101.091 57.0778 100.669C57.9973 100.248 58.7748 99.5689 59.3156 98.7141C60.4706 96.6141 59.7916 94.0381 59.0146 91.9381C58.1058 89.6399 57.0004 87.4243 55.7106 85.3161C56.2286 84.7981 56.0606 84.9452 56.1376 84.8612C56.3266 84.7492 55.3536 82.8521 55.0876 82.3971C56.9206 82.4183 58.6762 83.1395 59.9946 84.4131ZM46.4986 99.1552C46.1711 99.1231 45.8642 98.9812 45.6277 98.7523C45.3913 98.5235 45.2393 98.2214 45.1966 97.8951C46.019 98.2 46.9258 98.185 47.7376 97.8531C47.7643 98.0248 47.7512 98.2002 47.6993 98.3659C47.6475 98.5317 47.5583 98.6833 47.4386 98.8091C47.3188 98.9349 47.1718 99.0315 47.0089 99.0915C46.8459 99.1515 46.6713 99.1733 46.4986 99.1552ZM47.7446 97.6712C47.3876 97.7901 45.7076 98.4272 44.5666 97.1322C45.3578 97.1168 46.1465 97.0396 46.9256 96.9011C47.0992 96.8334 47.2488 96.7158 47.3558 96.5633C47.4627 96.4107 47.5222 96.2299 47.5267 96.0436C47.5311 95.8574 47.4805 95.6739 47.381 95.5164C47.2815 95.3588 47.1377 95.2342 46.9676 95.1582C47.0515 94.875 47.0216 94.5704 46.8844 94.3089C46.7471 94.0475 46.5133 93.8499 46.2326 93.7582C45.9806 93.6532 44.5736 93.8912 46.2326 93.0582C46.7576 92.8692 47.1776 93.1912 47.5836 93.4991C47.9691 93.7513 48.289 94.0918 48.5166 94.4923C48.7443 94.8928 48.8732 95.3419 48.8926 95.8022C48.8972 95.8162 48.9061 95.8283 48.9181 95.837C48.93 95.8456 48.9444 95.8503 48.9591 95.8503C48.9739 95.8503 48.9882 95.8456 49.0002 95.837C49.0121 95.8283 49.021 95.8162 49.0256 95.8022C49.0538 95.6212 49.0538 95.4371 49.0256 95.2562C51.2306 95.6342 53.2256 93.4361 56.0886 94.5562C56.1516 94.5562 56.1866 94.4861 56.1376 94.4511C54.8706 93.5901 53.1416 94.1992 51.6646 94.6471C51.6373 92.6966 51.3812 90.756 50.9016 88.8651C52.6449 88.0234 54.2312 86.8894 55.5916 85.5122C56.6957 87.3041 57.6644 89.1759 58.4896 91.1122C59.3016 93.1072 60.0856 95.4661 59.5046 97.6151C59.1765 98.6749 58.49 99.5875 57.5628 100.197C56.6357 100.806 55.5255 101.074 54.4226 100.954C50.9226 100.709 48.6196 97.5242 48.3396 97.5242C48.1436 97.5732 47.8916 97.6292 47.7446 97.6712ZM38.7636 98.4832C33.6326 101.283 28.8376 103.831 23.0136 103.383C20.0876 103.159 17.5676 102.074 16.8536 99.0221C16.2976 96.4034 16.5041 93.6801 17.4486 91.1752C20.1711 92.2521 23.0013 93.0335 25.8906 93.5062C25.7366 93.8772 25.1906 95.2001 25.0856 95.4731C23.6226 95.8372 23.9096 95.9422 23.9796 95.9282C24.3506 95.8232 28.8096 94.5282 37.6296 95.7042C37.8116 95.7042 37.8116 93.2682 40.1356 93.2682C40.3176 93.2682 40.9966 93.0301 40.4366 93.5411C40.1146 93.8281 38.9246 93.7791 39.5756 95.4381C39.4501 95.5591 39.3614 95.7131 39.3197 95.8823C39.2779 96.0515 39.2849 96.2291 39.3398 96.3945C39.3947 96.5599 39.4953 96.7065 39.6299 96.8172C39.7645 96.9279 39.9277 96.9982 40.1006 97.0201C40.9864 97.1655 41.8855 97.2125 42.7816 97.1602C41.6896 99.4912 38.8266 98.4272 38.7636 98.4832ZM41.5636 98.6372C41.0596 100.1 39.2676 100.156 39.0016 98.7001C39.8339 98.9487 40.7236 98.9267 41.5426 98.6372H41.5636ZM39.7296 95.3751C39.4286 94.4511 39.6596 94.1501 40.2476 93.8631C40.1706 94.1011 40.6676 93.9892 40.7376 93.9822C40.8076 93.9752 40.8566 95.0532 40.8706 95.0672C40.4589 95.0275 40.0466 95.1368 39.7086 95.3751H39.7296ZM39.7646 96.6982C38.9176 95.8722 40.3946 95.2981 41.0036 95.2421C46.2256 95.2421 47.3036 94.8291 47.3386 95.9422C47.3876 96.7191 46.5056 96.7892 45.9386 96.8032C45.3716 96.8172 40.1986 97.1391 39.7436 96.6982H39.7646ZM46.8766 95.1301C46.6736 95.0882 45.5956 95.0742 45.5256 95.0742C45.5886 94.9552 45.5256 94.2271 45.3716 94.1082C45.5536 94.1082 46.0716 94.2411 45.9946 93.9401C45.9773 93.8939 45.9484 93.8529 45.9106 93.8211C46.4916 93.8001 46.9816 94.2901 46.8556 95.1301H46.8766ZM34.1716 73.6191C34.2416 73.6191 35.3056 76.6292 38.3716 76.7691C40.1566 76.8531 42.0256 75.6982 41.7666 73.7312C46.4566 74.0042 53.4006 78.3372 55.9486 84.8261C54.3734 86.3056 52.6356 87.6019 50.7686 88.6901C50.5631 87.8117 50.3036 86.9467 49.9916 86.1002C49.9916 86.0302 49.8726 86.1002 49.8866 86.1002C50.7406 89.4602 51.0206 89.7472 51.3636 94.6822C50.5891 94.9328 49.788 95.0926 48.9766 95.1582C48.8268 94.6148 48.52 94.1278 48.0946 93.7582C46.5476 92.3582 46.2886 92.9041 45.7216 93.1631C45.6051 93.1982 45.4925 93.2452 45.3856 93.3032C45.2456 93.4151 45.0916 93.5202 45.2806 93.7092C44.5106 93.7652 44.2936 94.2971 45.1266 94.1151C45.1483 94.4333 45.1952 94.7493 45.2666 95.0602C44.2306 95.0602 41.4376 95.1092 41.0666 95.0602L41.1226 93.9962C41.1831 93.9894 41.2441 93.9894 41.3046 93.9962C41.6406 94.0452 41.7876 93.4501 40.7096 93.5481C40.9756 93.3312 41.0036 93.0512 40.6466 92.9812C40.4117 92.9936 40.1778 93.0217 39.9466 93.0651H39.5056C38.3996 93.1771 37.7766 94.3602 37.4896 95.4872C33.9056 95.0882 28.9006 94.6122 25.3796 95.4032C25.739 94.8218 26.0015 94.1858 26.1566 93.5201C26.5626 93.5901 26.9546 93.6391 27.3606 93.6951C27.3606 93.6951 27.4096 93.6951 27.4306 93.6391C27.9206 92.2391 28.5296 90.8391 29.0756 89.4391C29.1106 89.3341 28.9846 89.2992 28.9426 89.4042C27.1996 92.7712 27.4446 93.6041 26.7656 93.4711C23.4154 92.9092 20.1396 91.9699 17.0006 90.6712C16.4546 90.4121 16.5596 90.3772 16.9656 88.8232C19.4436 78.9112 23.6226 74.1371 34.1716 73.6191ZM20.6546 79.3312C19.1222 81.4718 17.9953 83.8751 17.3296 86.4221C17.4696 82.2221 14.7676 80.1222 12.4646 80.5981C15.1642 79.9982 17.9 79.575 20.6546 79.3312ZM14.0396 137.074C13.8353 137.212 13.589 137.275 13.3436 137.25C13.0981 137.226 12.8689 137.117 12.6956 136.941C11.9186 136.157 12.5766 131.418 12.5766 130.319C12.6466 130.368 13.9766 130.935 14.7186 131.208C14.6416 135.8 14.9006 136.5 14.0396 137.074ZM7.98461 125.174C6.49361 122.094 7.06761 118.174 7.20761 114.849C8.55161 84.5112 7.73261 83.3491 10.9456 81.4171C11.3616 81.1545 11.8254 80.9768 12.3103 80.8941C12.7952 80.8115 13.2917 80.8255 13.7712 80.9355C14.2507 81.0454 14.7037 81.2491 15.1041 81.5348C15.5046 81.8205 15.8446 82.1825 16.1046 82.6002C17.0846 84.0771 17.1196 85.6871 17.0636 87.3741C16.7626 88.4311 16.4896 89.4742 16.2236 90.5522C16.1886 90.7132 16.2586 90.7132 17.1336 91.0421C16.1108 93.6886 15.9108 96.5821 16.5596 99.3442C16.8948 100.486 17.5552 101.506 18.4601 102.279C19.365 103.052 20.4753 103.545 21.6556 103.698C28.2566 104.762 33.5136 101.64 38.7986 98.6651C38.9106 98.7141 38.8966 98.6651 38.8966 98.7491C38.891 99.0747 39.0145 99.3893 39.2401 99.6241C39.4657 99.8589 39.7751 99.9948 40.1006 100.002C40.497 99.9794 40.874 99.8231 41.1702 99.5587C41.4663 99.2943 41.6642 98.9374 41.7316 98.5462C42.3062 98.2685 42.7539 97.7831 42.9846 97.1881C43.4536 97.1881 43.9366 97.1881 44.3846 97.1391C44.5382 97.4405 44.7833 97.6855 45.0846 97.8391C45.079 98.041 45.1137 98.2419 45.1867 98.4301C45.2596 98.6184 45.3694 98.7902 45.5095 98.9355C45.6496 99.0808 45.8173 99.1968 46.0028 99.2766C46.1882 99.3564 46.3877 99.3984 46.5896 99.4002C46.7877 99.4006 46.9834 99.3572 47.1628 99.2731C47.3422 99.1891 47.5007 99.0664 47.6272 98.9139C47.7536 98.7614 47.8447 98.5828 47.8941 98.391C47.9434 98.1991 47.9498 97.9987 47.9126 97.8041L48.2766 97.6572C49.2718 98.8181 50.4877 99.7698 51.8536 100.457C51.9516 101.115 51.9236 101.815 52.0146 102.48C48.5146 102.662 46.4846 102.991 46.4846 102.991C46.4846 102.991 60.4846 102.879 64.3206 108.094C68.1566 113.309 67.8206 122.843 67.8206 122.843C69.5371 125.359 71.5306 127.674 73.7636 129.745C72.5176 131.257 68.9056 131.089 67.0856 131.236C67.5406 124.334 67.5966 113.666 64.1246 108.92C59.2246 102.186 39.8416 103.607 37.1116 103.845C36.494 103.269 35.7542 102.841 34.9475 102.591C34.1409 102.342 33.2882 102.278 32.4534 102.404C31.6186 102.531 30.8232 102.845 30.1267 103.322C29.4303 103.799 28.8508 104.428 28.4316 105.161C26.8006 107.961 26.9756 112.098 27.3116 122.451C27.4306 126.063 27.2136 129.661 27.3606 133.266C20.3676 132.741 11.0646 131.53 7.98461 125.188V125.174ZM34.8856 140.7C34.6126 141.813 33.0236 142.926 32.3936 141.288C31.9806 140.217 32.3026 136.241 32.1976 133.441C33.1916 133.392 33.8006 133.364 34.7456 133.287C34.7946 135.611 35.0886 139.846 34.8856 140.7ZM38.5116 132.398C37.1116 133.217 29.5656 133.28 27.7736 133.245C27.8646 113.225 25.9676 106.099 30.4826 103.446C33.3806 101.717 35.8516 102.599 38.0776 105.161C39.4776 106.96 38.8686 106.883 39.4776 118.552C39.6246 130.9 39.9536 131.6 38.5116 132.398ZM50.0826 134.736C49.7606 134.68 49.5926 133.182 49.5786 132.776C49.6976 132.776 50.8526 132.713 51.0206 132.706C51.0206 132.944 51.0556 133.21 51.0206 133.469C50.9856 133.728 50.9786 135.359 50.0826 134.736ZM43.7196 132.937C42.2146 133.042 40.3876 133.168 39.4776 131.733C40.2476 130.452 39.8556 129.85 39.7296 119.371C41.4726 119.308 54.8636 118.825 55.0876 118.902C55.3116 118.979 55.5846 124.985 57.8036 131.901C51.5946 132.356 44.6436 132.881 43.7196 132.937ZM73.9456 129.864C74.5266 130.396 75.1356 130.921 75.7866 131.432C75.7866 131.432 76.0806 131.306 76.5706 131.047V131.705C73.3331 131.846 70.1132 132.26 66.9456 132.944C66.9876 132.503 67.0226 132.041 67.0506 131.544C70.4946 131.292 72.7976 131.313 73.9456 129.864ZM64.8946 139.223C63.9776 141.645 61.9476 140.308 61.6606 140.105C61.4716 139.405 61.2686 138.649 61.0516 137.935C61.5556 138.005 64.4186 138.019 64.8246 137.935C64.8456 138.397 64.8736 138.803 64.8946 139.223ZM127.727 148.204C117.85 151.779 107.43 153.62 96.9266 153.643C87.3226 153.748 62.1016 151.956 55.7736 145.019C53.7576 142.821 53.1976 139.874 55.5146 137.655C56.5663 136.703 57.8099 135.987 59.1616 135.555C59.4437 136.319 59.8 137.052 60.2256 137.746C60.4182 137.805 60.6147 137.849 60.8136 137.879C62.0386 140.791 60.7646 142.912 62.0526 143.297C63.3406 143.682 63.4526 143.129 63.6416 142.912C63.8891 142.736 64.1851 142.642 64.4886 142.642C64.7921 142.642 65.0881 142.736 65.3356 142.912C65.9796 143.374 67.1136 143.472 68.6746 143.22C70.2356 142.968 70.0746 141.967 69.0806 141.561C68.0866 141.155 67.4706 140.728 66.4696 140.357C65.0696 139.846 65.1886 138.355 65.1676 137.935C65.637 137.872 66.0946 137.74 66.5256 137.543C66.5256 137.543 66.7426 136.017 66.9666 133.343C70.1276 132.554 73.3689 132.131 76.6266 132.083C76.7596 135.583 76.6266 136.78 77.6346 137.291C77.7713 137.367 77.9237 137.409 78.0797 137.416C78.2358 137.422 78.3912 137.393 78.5337 137.329C78.6763 137.265 78.802 137.169 78.9011 137.048C79.0002 136.927 79.0699 136.785 79.1046 136.633C79.2438 135.517 79.2976 134.391 79.2656 133.266C79.5036 133.756 79.7556 134.064 80.2246 133.966C81.5476 133.763 81.4076 133.203 81.4916 132.916C81.6372 132.651 81.8596 132.437 82.1294 132.3C82.3993 132.164 82.704 132.113 83.0036 132.153C83.7036 132.286 84.4806 132.111 85.6846 131.285C100.644 130.907 113.531 130.76 126.362 135.247C129.617 136.374 134.916 138.145 135.112 141.61C135.308 145.075 130.905 147 127.727 148.204ZM134.685 59.5001C143.134 58.8001 130.282 31.9131 128.385 39.5361C128.336 39.7321 126.236 60.2001 134.685 59.5001Z" fill="#B32F31"/>
<path d="M105.334 99.0362C109.366 101.836 115.134 99.6662 112.768 97.3912C110.402 95.1161 101.302 96.2572 105.334 99.0362ZM84.4534 73.6192C82.9134 74.6131 87.2534 76.0551 86.2524 74.2631C86.0164 74.0329 85.7336 73.8562 85.4231 73.7451C85.1127 73.634 84.782 73.591 84.4534 73.6192ZM85.0274 74.7181C84.1524 74.3122 83.9914 73.4792 85.4684 74.0182C86.6864 74.4522 86.4414 75.4181 85.0274 74.7181ZM88.4014 74.5502C88.3612 74.6362 88.339 74.7295 88.336 74.8244C88.333 74.9194 88.3493 75.0139 88.384 75.1023C88.4187 75.1907 88.4711 75.2711 88.5378 75.3387C88.6046 75.4062 88.6844 75.4594 88.7724 75.4952C91.0964 76.0411 89.6404 73.4162 88.4014 74.5502ZM89.1014 75.4112C88.2544 75.1592 88.4014 74.2772 89.3044 74.5012C89.9694 74.6412 90.1374 75.6002 89.1014 75.4112ZM94.2954 74.5152C92.9514 74.2981 92.0624 75.5022 93.0914 75.7822C93.8684 76.1042 95.7164 74.8371 94.2954 74.5152ZM94.4984 75.1592C94.0084 75.8592 92.5804 75.8242 92.9024 75.2782C92.9584 74.9912 93.0774 74.9071 93.3294 74.7881C93.5814 74.6691 94.9044 74.4312 94.4984 75.1592ZM95.5274 84.5042C95.2614 84.8262 95.0374 85.4072 95.4294 85.7292C98.1524 86.7232 97.7184 82.8662 95.5274 84.5042ZM97.1584 84.7631C97.3264 85.6941 95.1424 86.2332 95.4644 84.9802C95.5224 84.8191 95.6152 84.6729 95.7362 84.5519C95.8572 84.4309 96.0034 84.3381 96.1644 84.2802C96.5634 84.1542 97.1584 84.4902 97.1584 84.7631ZM98.7824 85.9812C98.7694 85.9893 98.7587 86.0007 98.7513 86.0142C98.7438 86.0276 98.7399 86.0428 98.7399 86.0582C98.7399 86.0735 98.7438 86.0887 98.7513 86.1021C98.7587 86.1156 98.7694 86.127 98.7824 86.1352C98.9854 86.1352 99.1744 86.3032 99.0764 86.5411C98.9784 86.7792 98.7544 86.8282 98.2784 86.8982H98.1104C98.0264 86.8982 97.6134 86.7652 97.8724 86.5901C97.9354 86.5901 97.8724 86.4571 97.8234 86.4921C97.783 86.5206 97.75 86.5583 97.7272 86.6022C97.7044 86.646 97.6925 86.6947 97.6925 86.7442C97.6925 86.7936 97.7044 86.8423 97.7272 86.8861C97.75 86.93 97.783 86.9677 97.8234 86.9962C98.0614 87.2201 98.5864 87.1012 98.8384 86.9962C98.9794 86.9552 99.1038 86.871 99.1943 86.7554C99.2847 86.6398 99.3365 86.4988 99.3424 86.3522C99.3074 86.1002 99.0344 85.8482 98.7824 85.9812ZM113.734 76.9372C113.293 77.6372 112.852 78.3372 112.432 79.0372C112.432 79.0372 112.432 79.1072 112.481 79.0372C112.908 78.4422 113.328 77.8332 113.734 77.2032C113.769 78.1412 113.769 79.0862 113.874 80.0032C113.879 80.0172 113.888 80.0294 113.9 80.038C113.912 80.0466 113.926 80.0513 113.941 80.0513C113.956 80.0513 113.97 80.0466 113.982 80.038C113.994 80.0294 114.003 80.0172 114.007 80.0032C114.007 78.9882 113.923 77.9522 113.888 76.9372C113.888 76.8882 113.79 76.8672 113.734 76.9372ZM69.2774 53.7672C72.2104 54.7542 72.0774 49.7912 69.1934 52.5142C69.1122 52.5997 69.0496 52.7012 69.0096 52.8122C68.9696 52.9232 68.953 53.0413 68.9609 53.1591C68.9688 53.2768 69.001 53.3916 69.0555 53.4963C69.11 53.6009 69.1855 53.6932 69.2774 53.7672ZM71.2304 52.5001C71.2304 53.5152 69.6414 54.0751 69.2494 53.3961C68.7314 52.5561 71.1534 51.1002 71.2304 52.5001ZM71.8744 53.8022C72.1404 53.1022 73.2254 53.5502 72.7004 54.2432C72.5464 54.3493 72.3624 54.4033 72.1754 54.3972C71.8814 54.3972 72.3924 54.8801 72.8754 54.3972C72.9571 54.323 73.0201 54.2306 73.0592 54.1275C73.0984 54.0244 73.1127 53.9135 73.1009 53.8039C73.089 53.6942 73.0515 53.5889 72.9912 53.4965C72.931 53.4041 72.8497 53.3273 72.7542 53.2723C72.6586 53.2172 72.5513 53.1856 72.4412 53.1799C72.3311 53.1741 72.2211 53.1945 72.1204 53.2393C72.0196 53.2842 71.9308 53.3522 71.8613 53.4378C71.7918 53.5235 71.7436 53.6243 71.7204 53.7321C71.7112 53.7526 71.7104 53.7758 71.7182 53.7968C71.7261 53.8179 71.742 53.8349 71.7624 53.8441C71.7829 53.8534 71.8061 53.8542 71.8271 53.8463C71.8481 53.8385 71.8652 53.8226 71.8744 53.8022ZM70.2784 55.2581C70.1944 55.3771 70.2154 55.5312 70.1594 55.6642C69.9144 56.3642 69.1794 55.8462 69.6204 55.6012C69.6904 55.6012 69.6204 55.4611 69.5714 55.4961C69.489 55.5326 69.4204 55.5946 69.3759 55.673C69.3314 55.7514 69.3133 55.842 69.3243 55.9315C69.3353 56.021 69.3748 56.1046 69.4369 56.1699C69.4991 56.2352 69.5806 56.2788 69.6694 56.2941C69.7844 56.3046 69.9002 56.2864 70.0065 56.2412C70.1127 56.196 70.2062 56.1252 70.2784 56.0351C70.6844 55.5451 70.4464 55.0061 70.2784 55.2581ZM121.301 46.8231C121.301 46.8791 121.301 46.9631 121.357 46.9631C121.679 46.9631 121.812 46.5011 121.728 46.2631C121.728 45.9411 120.692 45.7241 121.028 46.0741C121.392 45.9271 121.749 46.4731 121.301 46.8231ZM124.745 45.4021C124.85 44.5131 122.694 44.4501 122.421 45.2201C122.001 46.4311 124.605 46.6691 124.745 45.4021ZM122.743 45.1641C122.883 45.0597 123.043 44.9847 123.213 44.9438C123.382 44.9029 123.558 44.8969 123.73 44.9261C126.334 45.3881 122.169 47.0961 122.743 45.1641ZM123.401 47.2292C123.317 47.2292 123.317 47.3691 123.401 47.3691C123.615 47.3556 123.829 47.3841 124.031 47.4532C124.892 48.0272 123.947 48.3352 123.331 48.1532C122.792 48.2861 124.423 48.8531 124.619 47.9501C124.731 47.5581 124.381 47.0892 123.401 47.2292ZM127.692 79.1002C126.684 78.4002 125.34 79.7302 126.033 80.5702C126.901 81.6342 128.875 79.9262 127.692 79.1002ZM126.74 79.1492C126.882 79.1015 127.032 79.0831 127.182 79.0951C127.331 79.1072 127.476 79.1494 127.608 79.2192C128.231 79.6742 127.552 80.6191 126.824 80.6891C125.795 80.7312 125.844 79.4292 126.74 79.1562V79.1492ZM130.177 81.5292C132.858 81.8652 129.855 78.3792 129.477 80.2411C129.453 80.5011 129.507 80.7623 129.632 80.9916C129.756 81.221 129.946 81.4081 130.177 81.5292ZM129.701 80.2062C129.953 79.4432 131.101 80.4792 131.101 80.8292C130.996 81.9492 129.421 81.1512 129.701 80.2062ZM127.468 81.4592C127.404 81.4748 127.343 81.5029 127.29 81.542C127.237 81.5811 127.191 81.6303 127.157 81.6868C127.122 81.7434 127.099 81.8061 127.089 81.8716C127.079 81.937 127.082 82.0038 127.097 82.0681C127.113 82.1325 127.141 82.1931 127.18 82.2466C127.219 82.3001 127.269 82.3453 127.325 82.3798C127.382 82.4142 127.444 82.4372 127.51 82.4474C127.575 82.4576 127.642 82.4548 127.706 82.4391C127.776 82.4391 127.776 82.2852 127.706 82.3062C127.661 82.3093 127.615 82.3025 127.572 82.2864C127.529 82.2702 127.49 82.2451 127.457 82.2126C127.425 82.1801 127.399 82.141 127.383 82.098C127.367 82.055 127.36 82.009 127.363 81.9632C127.386 81.8821 127.436 81.8117 127.506 81.7642C127.575 81.7167 127.659 81.6953 127.743 81.7036C127.827 81.712 127.905 81.7497 127.963 81.8099C128.022 81.8702 128.057 81.9493 128.063 82.0332C128.069 82.1984 128.05 82.3635 128.007 82.5232C128.007 82.5414 128.011 82.5594 128.02 82.5752C128.029 82.5911 128.042 82.6041 128.058 82.6128C128.074 82.6215 128.093 82.6256 128.111 82.6246C128.129 82.6236 128.146 82.6176 128.161 82.6072C128.658 82.2362 128.168 81.2002 127.468 81.4592ZM81.0864 45.4021H107.959V44.1981C99.3564 44.1981 90.2914 43.8481 81.0304 43.9601C81.0799 44.4391 81.0986 44.9208 81.0864 45.4021Z" fill="#B32F31"/>
<path d="M46.0654 63.7981C46.0654 63.7981 46.2684 65.5761 45.9604 66.1851C45.7569 66.5863 45.4817 66.9469 45.1484 67.2491V69.0971C45.1484 69.0971 51.0214 80.2971 59.6244 81.9351C68.2274 83.5731 78.7274 78.8131 82.0244 84.0351C85.3214 89.2571 84.4674 99.6171 95.1844 97.3351C101.673 95.9351 110.122 92.6101 114.189 96.4881C120.286 102.319 129.309 103.131 134.034 97.3351C141.573 88.1091 141.335 70.7351 132.914 62.0271C128.014 56.9801 127.615 55.5941 127.195 40.1451C126.817 26.5161 115.204 24.2621 100.637 33.9991C85.2794 44.2751 86.6864 33.0471 77.6074 36.5541C68.5284 40.0611 68.3814 48.3841 63.2014 48.5731C58.0214 48.7621 52.4144 51.8701 52.0014 58.8701C51.7494 63.9101 46.0654 63.7981 46.0654 63.7981ZM133.768 94.3111C133.811 94.3195 133.85 94.3426 133.878 94.3765C133.906 94.4103 133.921 94.4528 133.921 94.4966C133.921 94.5405 133.906 94.583 133.878 94.6168C133.85 94.6506 133.811 94.6737 133.768 94.6821C133.725 94.6737 133.687 94.6506 133.659 94.6168C133.631 94.583 133.616 94.5405 133.616 94.4966C133.616 94.4528 133.631 94.4103 133.659 94.3765C133.687 94.3426 133.725 94.3195 133.768 94.3111ZM68.0244 76.8111C67.8984 76.8951 67.5274 76.8111 67.5694 76.5941C67.6604 76.1671 68.4374 76.6781 68.0244 76.8181V76.8111ZM69.5714 75.6771C69.5166 75.7088 69.4545 75.7256 69.3912 75.7259C69.3279 75.7263 69.2657 75.7101 69.2105 75.679C69.1554 75.6479 69.1093 75.603 69.0769 75.5486C69.0444 75.4943 69.0267 75.4324 69.0254 75.3691C69.0254 75.1381 69.2634 74.8441 69.5014 74.9981C69.8164 75.0401 69.9074 75.5161 69.5714 75.6841V75.6771ZM69.2144 71.3441C69.2211 71.3228 69.2324 71.3031 69.2475 71.2865C69.2626 71.27 69.2811 71.2569 69.3018 71.2482C69.3225 71.2396 69.3448 71.2355 69.3672 71.2364C69.3896 71.2372 69.4115 71.2429 69.4314 71.2531C69.4314 71.2531 69.4874 71.3091 69.5154 71.3231C69.544 71.3562 69.5597 71.3984 69.5597 71.4421C69.5597 71.4858 69.544 71.5281 69.5154 71.5611C69.4943 71.5995 69.4626 71.6311 69.4242 71.6521C69.3858 71.6732 69.3422 71.6829 69.2984 71.6801C69.262 71.6758 69.2276 71.6605 69.2 71.6363C69.1724 71.6121 69.1527 71.58 69.1436 71.5444C69.1345 71.5088 69.1364 71.4713 69.1491 71.4368C69.1617 71.4023 69.1845 71.3724 69.2144 71.3511V71.3441ZM71.1744 74.5571C70.9714 74.4591 71.2654 74.1861 71.3634 74.3751C71.3634 74.4241 71.4124 74.4591 71.4124 74.5081C71.4124 74.5571 71.2864 74.6411 71.1744 74.5641V74.5571ZM74.5484 75.2571C74.5276 75.2146 74.5229 75.166 74.5351 75.1203C74.5473 75.0746 74.5757 75.0348 74.6149 75.0084C74.6542 74.9819 74.7017 74.9706 74.7486 74.9764C74.7956 74.9823 74.8389 75.0049 74.8704 75.0401C74.8704 75.0401 74.9194 75.0401 74.9194 75.0891C74.9294 75.1234 74.9294 75.1598 74.9194 75.1941C74.9163 75.2362 74.9001 75.2763 74.8731 75.3088C74.8461 75.3413 74.8097 75.3645 74.7688 75.3753C74.728 75.3861 74.6849 75.3839 74.6453 75.369C74.6058 75.354 74.572 75.3272 74.5484 75.2921V75.2571ZM76.8654 75.0891C76.7254 75.1521 76.4524 74.7951 76.8654 74.7461C77.0404 74.9001 77.0404 75.0541 76.8654 75.1241V75.0891ZM79.1194 71.1971C68.6684 67.6971 78.1394 67.7391 82.8644 67.1651C83.7464 70.4131 94.2744 70.7561 95.5974 68.1661C97.1934 68.3691 104.403 69.3631 105.096 70.9661C105.39 71.6661 104.774 72.1001 103.913 72.3661C95.6641 73.5319 87.2689 73.1306 79.1684 71.1831C79.1499 71.1971 79.1334 71.2136 79.1194 71.2321V71.1971ZM95.2964 68.0961C93.5464 70.7351 83.4384 69.8251 83.0324 66.9971C85.2444 62.9441 94.9394 63.2101 95.2964 68.1311V68.0961ZM85.8604 47.5231C86.1334 45.4231 88.0304 47.0611 88.0304 47.0611C88.0304 47.0611 89.4304 45.5561 90.0114 47.0611C90.5924 48.5661 88.1284 49.8611 88.1284 49.8611C88.1284 49.8611 85.7274 48.6571 85.8604 47.5231ZM92.3284 47.5231C92.6014 45.4231 94.4984 47.0611 94.4984 47.0611C94.4984 47.0611 95.8984 45.5561 96.4794 47.0611C97.0604 48.5661 94.5824 49.8611 94.5824 49.8611C94.5824 49.8611 92.1744 48.6571 92.3284 47.5231ZM82.8014 49.8751C82.8014 49.8751 80.3794 48.6571 80.5334 47.5231C80.8064 45.4231 82.7034 47.0611 82.7034 47.0611C82.7034 47.0611 84.1034 45.5561 84.6844 47.0611C85.2654 48.5661 82.8014 49.8751 82.8014 49.8751ZM81.5484 59.6751C81.2754 59.9481 80.8484 59.3741 81.4154 59.3041C81.4402 59.3149 81.4619 59.3318 81.4784 59.3531C81.5134 59.3531 81.5484 59.3531 81.5694 59.4231V59.5071C81.6254 59.5421 81.5904 59.6121 81.5414 59.6611L81.5484 59.6751ZM97.6064 60.2841C97.7254 60.0671 98.2224 60.1441 98.2294 60.1511C98.4324 60.3541 98.1594 60.6061 97.9774 60.6621C97.7954 60.7181 97.6694 60.6621 97.6694 60.5921C97.6435 60.5758 97.6211 60.5544 97.6035 60.5293C97.5859 60.5042 97.5734 60.4758 97.5669 60.4458C97.5604 60.4158 97.5599 60.3849 97.5655 60.3547C97.5711 60.3245 97.5826 60.2958 97.5994 60.2701L97.6064 60.2841ZM104.753 51.4291C104.802 51.2401 107.441 51.2611 107.798 51.3101C108.155 51.3591 107.847 53.4101 107.798 53.5781C107.749 53.7461 106.853 53.5781 106.615 53.5781C106.377 53.5781 106.461 55.6151 106.51 55.8671C106.559 56.1191 107.595 56.0211 107.679 56.0211C107.77 56.8462 107.805 57.6764 107.784 58.5061C107.749 58.7931 104.718 58.3731 104.55 58.3521C104.382 58.3311 104.55 56.7491 104.55 56.6301C104.55 56.5111 103.038 56.5601 102.821 56.4761C102.604 56.3921 102.821 55.5451 102.821 55.4611C102.414 55.3741 101.999 55.3342 101.582 55.3421C101.484 55.3421 101.582 54.4951 101.582 54.3901C101.582 54.2851 102.667 54.3901 102.667 54.3901C102.821 54.3901 102.8 53.7321 102.835 53.5641C102.87 53.3961 104.578 53.5641 104.753 53.5641C104.928 53.5641 104.69 51.6041 104.746 51.4151L104.753 51.4291ZM105.95 68.5511C105.948 68.6002 105.931 68.6474 105.901 68.6863C105.871 68.7251 105.829 68.7537 105.782 68.7681C105.742 68.7817 105.698 68.7807 105.659 68.7653C105.619 68.75 105.586 68.7213 105.565 68.6841C105.535 68.6404 105.522 68.5869 105.528 68.534C105.535 68.481 105.56 68.4323 105.6 68.3971C105.617 68.3802 105.636 68.3667 105.658 68.3575C105.68 68.3483 105.703 68.3436 105.726 68.3436C105.75 68.3436 105.773 68.3483 105.795 68.3575C105.817 68.3667 105.836 68.3802 105.852 68.3971C105.901 68.4181 105.964 68.4881 105.943 68.5371L105.95 68.5511ZM103.99 61.5511C104.347 61.3761 104.613 61.9081 104.242 62.0481C103.871 62.1881 103.472 61.5231 103.983 61.5231L103.99 61.5511ZM104.088 68.2081L104.053 68.2571C104.045 68.2878 104.03 68.3162 104.009 68.3404C103.989 68.3645 103.963 68.3839 103.934 68.3971C103.905 68.4276 103.865 68.4452 103.822 68.4461C103.598 68.4461 103.465 68.1381 103.668 67.9911C103.713 67.9616 103.765 67.9459 103.819 67.9459C103.872 67.9459 103.925 67.9616 103.969 67.9911C104.046 67.9981 104.116 68.0961 104.081 68.1801L104.088 68.2081ZM79.8824 76.9511C79.8397 76.9511 79.7988 76.9342 79.7686 76.904C79.7384 76.8738 79.7214 76.8328 79.7214 76.7901C79.7214 76.7474 79.7384 76.7065 79.7686 76.6763C79.7988 76.6461 79.8397 76.6291 79.8824 76.6291C79.9251 76.6291 79.9661 76.6461 79.9963 76.6763C80.0265 76.7065 80.0434 76.7474 80.0434 76.7901C80.0434 76.8328 80.0265 76.8738 79.9963 76.904C79.9661 76.9342 79.9251 76.9511 79.8824 76.9511ZM80.3234 74.6131C80.2787 74.6046 80.2383 74.5806 80.2092 74.5455C80.1802 74.5104 80.1643 74.4662 80.1643 74.4206C80.1643 74.3751 80.1802 74.3309 80.2092 74.2958C80.2383 74.2606 80.2787 74.2367 80.3234 74.2281C80.3682 74.2367 80.4086 74.2606 80.4376 74.2958C80.4667 74.3309 80.4826 74.3751 80.4826 74.4206C80.4826 74.4662 80.4667 74.5104 80.4376 74.5455C80.4086 74.5806 80.3682 74.6046 80.3234 74.6131ZM86.7564 82.6631C86.7025 82.6827 86.6445 82.6878 86.588 82.6779C86.5315 82.6681 86.4786 82.6437 86.4344 82.6071C86.3933 82.61 86.3525 82.5982 86.3192 82.5738C86.2859 82.5495 86.2622 82.5142 86.2524 82.4741C86.1824 82.1521 86.5394 81.8161 86.8264 82.0331C86.8787 82.0709 86.9201 82.1218 86.9462 82.1807C86.9724 82.2397 86.9824 82.3045 86.9753 82.3686C86.9682 82.4326 86.9442 82.4937 86.9057 82.5454C86.8672 82.5972 86.8157 82.6378 86.7564 82.6631ZM89.1644 89.8941C89.1644 90.2651 88.6324 90.3561 88.5554 90.1111C88.2054 89.7961 88.7374 89.3131 89.0944 89.6701C89.2624 89.6701 89.2764 89.8731 89.1644 89.8941ZM96.8644 94.8571V94.8011C96.3954 94.5351 97.1024 94.0241 97.3754 94.5001C97.3813 94.5159 97.3813 94.5333 97.3754 94.5491C97.5014 94.9061 97.0324 95.1581 96.8994 94.8571H96.8644ZM100.644 92.5191C100.617 92.4974 100.597 92.4671 100.588 92.4329C100.579 92.3988 100.582 92.3627 100.595 92.3301C100.595 92.3301 100.595 92.2951 100.63 92.2811C100.617 92.2338 100.621 92.183 100.643 92.1388C100.665 92.0947 100.703 92.0606 100.749 92.0431H100.819C100.868 91.9381 101.001 91.9871 101.022 92.0921C101.33 92.2111 101.001 92.7151 100.679 92.5191H100.644ZM100.679 87.6891C99.5454 89.0121 98.5794 88.2351 95.9894 88.3891C93.3994 88.5431 93.3924 84.8891 94.7644 83.2721C96.1364 81.6551 98.2644 83.2721 98.2644 83.2721C102.086 84.1541 101.848 86.3661 100.714 87.6891H100.679ZM124.57 52.6891C124.602 52.7152 124.633 52.7433 124.661 52.7731C124.685 52.7966 124.701 52.8266 124.708 52.8592C124.714 52.8919 124.711 52.9257 124.698 52.9565C124.685 52.9872 124.664 53.0135 124.636 53.032C124.608 53.0504 124.576 53.0602 124.542 53.0601C124.157 53.1581 124.346 52.4581 124.605 52.7171L124.57 52.6891ZM125.739 93.3871C125.668 93.4054 125.594 93.4087 125.522 93.3966C125.45 93.3846 125.381 93.3575 125.319 93.3171C125.29 93.3021 125.266 93.2769 125.253 93.2461C125.241 93.2153 125.239 93.1809 125.249 93.1491C125.262 93.0914 125.289 93.0379 125.328 92.9937C125.368 92.9496 125.418 92.9163 125.473 92.8971C125.512 92.857 125.561 92.8286 125.615 92.8152C125.669 92.8019 125.726 92.8042 125.779 92.8218C125.831 92.8393 125.878 92.8716 125.913 92.9146C125.948 92.9577 125.971 93.0099 125.977 93.0651C125.99 93.138 125.977 93.213 125.94 93.277C125.902 93.341 125.844 93.3899 125.774 93.4151L125.739 93.3871ZM129.001 98.1401C128.014 98.1401 128.357 96.5091 129.302 96.8871C130.324 97.0831 129.834 98.5531 129.001 98.1401ZM131.269 92.0921C131.21 92.0911 131.153 92.0707 131.106 92.034C131.059 91.9974 131.026 91.9465 131.01 91.8891C130.965 91.8538 130.932 91.8047 130.917 91.7491C130.902 91.6936 130.905 91.6347 130.926 91.5811C131.031 91.3291 131.367 91.4131 131.486 91.5811C131.605 91.7491 131.549 92.1131 131.283 92.0921H131.269ZM129.869 77.3081C133.985 78.5121 133.04 83.2861 130.8 84.1821C128.56 85.0781 124.01 83.9301 124.703 79.9821C125.396 76.0341 129.89 77.3081 129.89 77.3081H129.869ZM121.693 31.8711C121.736 31.8795 121.775 31.9026 121.803 31.9365C121.831 31.9703 121.846 32.0128 121.846 32.0566C121.846 32.1005 121.831 32.143 121.803 32.1768C121.775 32.2106 121.736 32.2337 121.693 32.2421C121.65 32.2337 121.612 32.2106 121.584 32.1768C121.556 32.143 121.541 32.1005 121.541 32.0566C121.541 32.0128 121.556 31.9703 121.584 31.9365C121.612 31.9026 121.65 31.8795 121.693 31.8711ZM119.936 45.8291C120.496 42.6231 124.136 43.6591 124.136 43.6591C127.461 44.6391 126.292 48.2511 124.479 48.9791C122.666 49.7071 119.376 49.0001 119.936 45.8291ZM122.358 52.8291C122.334 52.823 122.313 52.809 122.298 52.7893C122.282 52.7697 122.274 52.7455 122.274 52.7206C122.274 52.6958 122.282 52.6716 122.298 52.652C122.313 52.6323 122.334 52.6183 122.358 52.6121C122.388 52.6121 122.417 52.6239 122.438 52.6449C122.459 52.6659 122.47 52.6944 122.47 52.7241C122.47 52.7538 122.459 52.7823 122.438 52.8033C122.417 52.8243 122.388 52.8361 122.358 52.8361V52.8291ZM121.301 56.0911C121.279 56.0911 121.258 56.0823 121.242 56.0665C121.226 56.0508 121.217 56.0294 121.217 56.0071C121.217 55.9849 121.226 55.9635 121.242 55.9477C121.258 55.932 121.279 55.9231 121.301 55.9231C121.324 55.9231 121.345 55.932 121.361 55.9477C121.377 55.9635 121.385 55.9849 121.385 56.0071C121.385 56.0294 121.377 56.0508 121.361 56.0665C121.345 56.0823 121.324 56.0911 121.301 56.0911ZM120.601 53.5641C120.377 53.3471 120.601 53.1791 120.769 53.3611C120.937 53.5431 120.762 53.6691 120.601 53.5641ZM120.195 49.7421C120.153 49.7421 120.112 49.7252 120.082 49.695C120.051 49.6648 120.034 49.6238 120.034 49.5811C120.034 49.5384 120.051 49.4975 120.082 49.4673C120.112 49.4371 120.153 49.4201 120.195 49.4201C120.217 49.4183 120.238 49.4206 120.258 49.427C120.278 49.4334 120.297 49.4437 120.313 49.4574C120.33 49.471 120.343 49.4878 120.353 49.5066C120.363 49.5254 120.369 49.546 120.37 49.5671C120.372 49.5883 120.37 49.6096 120.364 49.6298C120.357 49.6501 120.347 49.6688 120.333 49.6851C120.32 49.7013 120.303 49.7147 120.284 49.7245C120.265 49.7343 120.245 49.7403 120.223 49.7421H120.195ZM119.397 54.7541C119.426 54.7663 119.45 54.7857 119.468 54.8104C119.487 54.835 119.498 54.864 119.502 54.8945C119.505 54.925 119.501 54.9559 119.489 54.9841C119.476 55.0123 119.457 55.0368 119.432 55.0551C119.404 55.0877 119.365 55.1094 119.322 55.1166C119.279 55.1238 119.235 55.1161 119.198 55.0947C119.16 55.0734 119.131 55.0397 119.115 54.9994C119.099 54.959 119.097 54.9145 119.11 54.8731C119.152 54.7541 119.327 54.6981 119.425 54.7541H119.397ZM119.201 51.6181C119.186 51.624 119.168 51.624 119.152 51.6181C118.774 51.8771 118.326 51.2541 118.725 51.0931C118.774 51.0392 118.839 51.0036 118.91 50.9921C118.982 50.9806 119.055 50.9941 119.117 51.0301C119.162 51.0626 119.2 51.1038 119.229 51.1513C119.258 51.1987 119.276 51.2514 119.284 51.3063C119.292 51.3612 119.289 51.4171 119.275 51.4706C119.26 51.5242 119.235 51.5744 119.201 51.6181ZM118.606 52.5981C118.508 52.5981 118.522 52.4511 118.606 52.4511C118.69 52.4511 118.732 52.5981 118.627 52.5981H118.606ZM118.662 46.5571C118.698 46.5348 118.739 46.5229 118.781 46.5229C118.824 46.5229 118.865 46.5348 118.9 46.5571C118.93 46.5614 118.957 46.5743 118.979 46.5942C119 46.6141 119.016 46.6401 119.022 46.6687C119.029 46.6974 119.027 46.7275 119.017 46.755C119.006 46.7825 118.988 46.8063 118.963 46.8231C118.94 46.8559 118.909 46.8834 118.874 46.9038C118.839 46.9243 118.801 46.9374 118.76 46.9421C118.709 46.9523 118.656 46.9419 118.613 46.913C118.57 46.8841 118.54 46.8392 118.529 46.7881C118.519 46.7371 118.53 46.6841 118.559 46.6407C118.587 46.5974 118.632 46.5673 118.683 46.5571H118.662ZM118.697 64.4561C118.697 64.2881 120.44 64.4561 120.608 64.4561C120.776 64.4561 120.601 62.5101 120.601 62.3001C120.601 62.0901 123.296 62.1251 123.646 62.1951C123.996 62.2651 123.702 64.2951 123.646 64.4631C123.59 64.6311 122.701 64.4631 122.463 64.4631C122.225 64.4631 122.309 66.5141 122.365 66.7661C122.421 67.0181 123.443 66.9201 123.527 66.9201C123.621 67.7473 123.656 68.58 123.632 69.4121C123.597 69.6991 120.566 69.2931 120.398 69.2581C120.23 69.2231 120.398 67.6481 120.398 67.5291C120.398 67.4101 118.893 67.4661 118.669 67.3751C118.445 67.2841 118.669 66.4441 118.669 66.3601C118.264 66.2748 117.852 66.2302 117.437 66.2271C117.332 66.2271 117.402 65.3801 117.437 65.2751C117.472 65.1701 118.515 65.2751 118.515 65.2751C118.697 65.3031 118.683 64.6241 118.718 64.4561H118.697ZM118.067 58.6811C118.059 58.7197 118.041 58.7555 118.016 58.7858C117.991 58.816 117.958 58.8397 117.922 58.8548C117.886 58.8699 117.846 58.8761 117.807 58.8726C117.768 58.8692 117.73 58.8563 117.696 58.8351C117.507 58.7651 117.612 58.1911 117.934 58.4781C117.959 58.4796 117.982 58.4863 118.003 58.4977C118.025 58.5091 118.043 58.525 118.058 58.5443C118.073 58.5636 118.083 58.5858 118.088 58.6094C118.093 58.633 118.094 58.6575 118.088 58.6811H118.067ZM117.675 51.4151C117.691 51.411 117.707 51.4105 117.723 51.4137C117.739 51.4169 117.754 51.4236 117.766 51.4334C117.779 51.4432 117.789 51.4558 117.797 51.4703C117.804 51.4847 117.807 51.5006 117.807 51.5166C117.807 51.5327 117.804 51.5486 117.797 51.563C117.789 51.5774 117.779 51.59 117.766 51.5998C117.754 51.6097 117.739 51.6164 117.723 51.6196C117.707 51.6227 117.691 51.6223 117.675 51.6181C117.563 51.6321 117.563 51.4151 117.696 51.4151H117.675ZM116.849 37.5271C116.952 37.5125 117.057 37.5295 117.15 37.5761H117.185C117.333 37.6627 117.441 37.8033 117.486 37.9681C117.465 39.6481 115.393 38.1011 116.87 37.5271H116.849ZM117.171 52.5981C117.203 52.5981 117.233 52.6107 117.256 52.633C117.278 52.6553 117.29 52.6856 117.29 52.7171C117.29 52.7487 117.278 52.779 117.256 52.8013C117.233 52.8236 117.203 52.8361 117.171 52.8361C117.14 52.8334 117.111 52.8181 117.09 52.7939C117.07 52.7696 117.06 52.7382 117.063 52.7066C117.066 52.6751 117.081 52.6459 117.105 52.6256C117.13 52.6052 117.161 52.5954 117.192 52.5981H117.171ZM117.031 50.0081C117.016 50.0082 117.001 50.0051 116.987 49.999C116.973 49.9929 116.96 49.9841 116.95 49.9729C116.939 49.9617 116.931 49.9486 116.926 49.9341C116.921 49.9197 116.918 49.9044 116.919 49.8891V49.8401C116.919 49.5321 117.507 49.7911 117.087 50.0081H117.031ZM116.289 48.1811C116.332 48.1895 116.371 48.2126 116.399 48.2465C116.427 48.2803 116.442 48.3228 116.442 48.3666C116.442 48.4105 116.427 48.453 116.399 48.4868C116.371 48.5206 116.332 48.5437 116.289 48.5521C116.247 48.5416 116.209 48.5164 116.183 48.481C116.156 48.4455 116.143 48.402 116.146 48.3579C116.148 48.3139 116.166 48.2721 116.196 48.2398C116.226 48.2075 116.267 48.1868 116.31 48.1811H116.289ZM114.665 77.4761C114.714 77.8191 118.389 76.3071 118.949 76.4121C119.509 76.5171 116.849 78.5121 116.779 78.7851C116.709 79.0581 120.846 81.9841 120.846 82.2851C120.846 82.5861 116.779 81.4731 116.576 81.4731C116.373 81.4731 118.375 84.3501 118.746 85.1971C119.117 86.0441 114.616 83.6921 113.986 83.2651C113.356 82.8381 109.331 85.6241 108.687 85.7921C108.043 85.9601 111.41 81.4521 111.55 80.8921C111.69 80.3321 107.28 80.6191 106.531 80.5911C105.782 80.5631 109.653 78.7781 109.653 78.7781L96.5984 75.6001C93.7984 77.0001 90.9634 76.9301 87.8414 76.5171C83.7604 75.9781 80.2394 72.4851 79.3224 71.5191C85.9024 73.3251 93.4414 73.6611 100.084 73.1781C99.0706 74.0217 97.9889 74.7803 96.8504 75.4461C100.084 76.0411 110.787 78.1061 110.85 78.1271C110.913 78.1481 109.681 75.0471 109.919 74.8931C110.157 74.7391 112.187 76.5871 112.544 76.7551C112.901 76.9231 115.232 72.9471 115.589 73.0311C115.946 73.1151 114.637 77.1401 114.686 77.4761H114.665ZM108.757 64.0501C108.793 64.0406 108.83 64.04 108.865 64.0486C108.901 64.0572 108.933 64.0746 108.96 64.0991C109.009 64.0991 109.03 64.2531 108.96 64.2881C108.841 64.4351 108.505 64.2181 108.757 64.0501ZM111.298 63.3501C111.315 63.3864 111.318 63.4279 111.305 63.4658C111.292 63.5038 111.264 63.5351 111.228 63.5531C111.228 63.5531 111.165 63.6021 111.193 63.5531C111.176 63.5836 111.15 63.6089 111.119 63.6265C111.089 63.644 111.054 63.6533 111.018 63.6533C110.983 63.6533 110.948 63.644 110.918 63.6265C110.887 63.6089 110.861 63.5836 110.843 63.5531C110.827 63.5229 110.818 63.489 110.818 63.4545C110.818 63.42 110.827 63.3861 110.844 63.356C110.861 63.3258 110.885 63.3005 110.914 63.2823C110.944 63.2642 110.977 63.2538 111.011 63.2521C111.081 63.2871 111.214 63.1471 111.298 63.3571V63.3501ZM111.06 52.6751C111.06 52.6751 111.284 52.5771 111.319 52.6751C111.331 52.7008 111.336 52.7291 111.334 52.7573C111.332 52.7855 111.323 52.8127 111.308 52.8364C111.292 52.8601 111.271 52.8796 111.246 52.893C111.222 52.9064 111.194 52.9134 111.165 52.9131C111.141 52.9088 111.118 52.8985 111.098 52.8832C111.078 52.8679 111.063 52.848 111.052 52.8252C111.042 52.8025 111.037 52.7776 111.039 52.7527C111.04 52.7277 111.048 52.7035 111.06 52.6821V52.6751ZM111.956 57.8621C112.11 58.0091 111.907 58.3171 111.69 57.9811C111.634 57.9041 111.865 57.6311 111.956 57.8691V57.8621ZM112.621 59.0101C112.667 59.0018 112.711 58.9901 112.754 58.9751C112.859 58.9751 112.929 59.1151 112.754 59.2131C112.579 59.3111 112.432 59.0521 112.621 59.0171V59.0101ZM115.225 64.1621C115.248 64.1573 115.271 64.1575 115.294 64.1628C115.316 64.1681 115.337 64.1783 115.355 64.1928C115.373 64.2072 115.387 64.2254 115.397 64.2462C115.407 64.2669 115.412 64.2896 115.412 64.3126C115.412 64.3356 115.407 64.3583 115.397 64.3791C115.387 64.3998 115.373 64.4181 115.355 64.4325C115.337 64.447 115.316 64.4572 115.294 64.4625C115.271 64.4678 115.248 64.468 115.225 64.4631C115.194 64.4534 115.167 64.4338 115.147 64.4074C115.128 64.3809 115.117 64.349 115.117 64.3161C115.117 64.2833 115.128 64.2513 115.147 64.2249C115.167 64.1985 115.194 64.1789 115.225 64.1691V64.1621ZM114.616 58.0301C114.639 58.0235 114.664 58.0235 114.686 58.0301C114.924 57.8691 115.197 58.3241 114.889 58.5201C114.749 58.5901 114.693 58.5201 114.749 58.5201C114.469 58.5481 114.392 58.1001 114.616 58.0371V58.0301ZM113.804 62.3631C113.839 62.2161 114.105 62.2161 114.126 62.3631C114.196 62.4961 113.853 62.7691 113.804 62.3631ZM80.2884 43.3371C80.4074 43.2671 113.188 43.3371 113.468 43.3371C113.748 43.3371 113.615 45.7101 113.615 45.8571C113.615 46.0041 80.2884 45.8571 80.2884 45.8571C80.0994 45.8571 80.1694 43.4001 80.2884 43.3371ZM77.2014 56.5321C77.2386 56.4807 77.2914 56.4427 77.352 56.4238C77.4125 56.4049 77.4776 56.406 77.5374 56.4271C77.5649 56.4194 77.594 56.4194 77.6214 56.4271C77.7614 56.4271 77.7754 56.5811 77.7894 56.7001C77.8105 56.7542 77.8105 56.8141 77.7894 56.8681C77.7894 56.9171 77.7404 56.9381 77.7054 56.9731L77.6564 57.0361C77.6213 57.0717 77.5734 57.0918 77.5234 57.0921C77.4394 57.0921 77.3834 57.1551 77.2854 57.0221C77.2105 56.9674 77.1598 56.8856 77.1441 56.7942C77.1284 56.7027 77.149 56.6087 77.2014 56.5321ZM76.5014 43.6451C76.9074 43.7921 76.8444 45.6751 76.8234 46.2701C76.8234 46.4171 76.5714 46.4031 76.5364 46.2701C76.3883 45.4023 76.3765 44.5166 76.5014 43.6451ZM74.0094 43.5401C75.7034 43.4351 75.9974 45.5911 74.4364 45.4371C74.3874 45.6401 74.6744 46.8791 74.2334 46.7601C74.0444 45.7731 74.0304 44.7581 73.8274 43.7781C73.8225 43.7509 73.8231 43.723 73.8293 43.696C73.8355 43.6691 73.8472 43.6437 73.8636 43.6214C73.88 43.5991 73.9007 43.5804 73.9246 43.5664C73.9485 43.5524 73.975 43.5435 74.0024 43.5401H74.0094ZM72.5394 50.9601C76.6554 52.1781 74.6394 56.0351 72.4204 56.9381C64.8604 59.5981 66.1274 48.9441 72.5324 50.9601H72.5394ZM67.0794 68.0471C67.0794 68.1311 66.9744 68.1801 66.8764 68.2011H66.8064C66.7737 68.1919 66.7441 68.174 66.7207 68.1494C66.6973 68.1248 66.681 68.0943 66.6734 68.0611C66.6174 67.7671 67.0584 67.7321 67.0794 68.0471ZM66.9114 72.3661C66.8786 72.494 66.8072 72.6087 66.7069 72.6947C66.6067 72.7806 66.4825 72.8337 66.3511 72.8467C66.2196 72.8597 66.0874 72.832 65.9723 72.7673C65.8572 72.7026 65.7647 72.6041 65.7074 72.4851C65.6265 72.3703 65.5924 72.229 65.6119 72.0899C65.6314 71.9508 65.7031 71.8243 65.8124 71.7361C65.9213 71.66 66.0495 71.6164 66.1822 71.6104C66.3149 71.6044 66.4466 71.6363 66.5618 71.7024C66.6771 71.7685 66.7712 71.866 66.8331 71.9835C66.895 72.101 66.9221 72.2337 66.9114 72.3661ZM65.7564 67.7251C65.7522 67.7543 65.7393 67.7815 65.7194 67.8032C65.6995 67.825 65.6735 67.8402 65.6448 67.847C65.6162 67.8538 65.5861 67.8518 65.5586 67.8413C65.531 67.8308 65.5073 67.8123 65.4904 67.7881C65.3574 67.6271 65.7564 67.5291 65.7564 67.7251ZM65.3504 70.0001C65.4204 70.1051 65.3854 70.2241 65.2664 70.2241C65.1474 70.2241 65.0984 69.8741 65.3504 70.0001ZM64.7764 65.5131C64.7486 65.5312 64.7171 65.5431 64.6843 65.5479C64.6514 65.5528 64.6179 65.5504 64.586 65.5411C64.5541 65.5318 64.5246 65.5158 64.4995 65.494C64.4743 65.4723 64.4542 65.4454 64.4404 65.4151C64.3354 64.8131 65.1544 65.2681 64.7764 65.5201V65.5131ZM63.6214 74.3611C63.8454 74.3611 63.8454 74.7041 63.6214 74.7041C63.5819 74.6961 63.5463 74.6746 63.5208 74.6434C63.4952 74.6121 63.4813 74.573 63.4813 74.5326C63.4813 74.4923 63.4952 74.4531 63.5208 74.4219C63.5463 74.3906 63.5819 74.3692 63.6214 74.3611ZM62.8794 71.5191H62.9634C63.0614 71.3791 63.3834 71.5681 63.0964 71.8551C63.0725 71.8786 63.044 71.897 63.0127 71.909C62.9814 71.9211 62.9479 71.9265 62.9144 71.9251C62.7814 71.9741 62.3894 71.5191 62.8794 71.5191ZM61.1504 71.6871C61.4654 71.5261 61.4654 72.1141 61.1504 71.9531C61.1252 71.9413 61.1039 71.9224 61.0889 71.8989C61.074 71.8753 61.066 71.848 61.066 71.8201C61.066 71.7922 61.074 71.7649 61.0889 71.7414C61.1039 71.7178 61.1252 71.699 61.1504 71.6871ZM60.2054 67.7041C60.3384 67.6201 60.5554 67.8021 60.3734 67.9981C60.3174 68.1381 59.8484 68.0541 60.2054 67.7041ZM59.6104 72.1001C59.8484 72.1001 59.7784 72.4431 59.6104 72.4431C59.4424 72.4431 59.3374 72.4431 59.2884 72.2051C59.2394 71.9671 59.5264 71.9951 59.6104 72.1001ZM57.1394 70.2241C57.1914 70.2241 57.2413 70.2448 57.278 70.2815C57.3148 70.3183 57.3354 70.3682 57.3354 70.4201C57.3354 70.4721 57.3148 70.522 57.278 70.5587C57.2413 70.5955 57.1914 70.6161 57.1394 70.6161C57.0947 70.6076 57.0543 70.5836 57.0252 70.5485C56.9962 70.5134 56.9803 70.4692 56.9803 70.4236C56.9803 70.3781 56.9962 70.3339 57.0252 70.2988C57.0543 70.2636 57.0947 70.2397 57.1394 70.2311V70.2241ZM56.9994 72.5621C57.1954 72.6391 56.9994 72.9681 56.7964 72.8981C56.7481 72.874 56.711 72.8321 56.6927 72.7813C56.6745 72.7304 56.6765 72.6745 56.6984 72.6251C56.6424 72.7231 56.7824 72.3801 56.9994 72.5691V72.5621ZM56.2994 76.1181C56.4534 75.8801 56.8944 76.2511 56.4744 76.4051C56.4399 76.4078 56.4052 76.4015 56.3737 76.3869C56.3422 76.3723 56.315 76.35 56.2947 76.3219C56.2743 76.2938 56.2615 76.261 56.2574 76.2265C56.2534 76.1921 56.2582 76.1572 56.2714 76.1251L56.2994 76.1181ZM55.6414 69.6991C55.6934 69.6991 55.7433 69.7198 55.78 69.7565C55.8168 69.7933 55.8374 69.8432 55.8374 69.8951C55.8374 69.9471 55.8168 69.997 55.78 70.0337C55.7433 70.0705 55.6934 70.0911 55.6414 70.0911C55.5956 70.0864 55.5529 70.0657 55.5208 70.0327C55.4887 69.9996 55.4693 69.9563 55.466 69.9104C55.4626 69.8644 55.4756 69.8188 55.5025 69.7814C55.5295 69.7441 55.5688 69.7174 55.6134 69.7061L55.6414 69.6991ZM54.4374 64.1621C54.6964 64.1621 54.6964 64.5331 54.4374 64.5331C54.3966 64.5255 54.3594 64.5045 54.3316 64.4736C54.3038 64.4426 54.287 64.4033 54.2839 64.3619C54.2807 64.3204 54.2912 64.279 54.3139 64.2442C54.3367 64.2094 54.3702 64.183 54.4094 64.1691L54.4374 64.1621ZM54.0664 71.2041C54.0593 71.1736 54.0603 71.1417 54.0692 71.1116C54.078 71.0815 54.0946 71.0542 54.1171 71.0323C54.1396 71.0105 54.1675 70.9948 54.1978 70.9869C54.2282 70.979 54.2601 70.9791 54.2904 70.9871C54.3237 70.9926 54.3545 71.0083 54.3784 71.0322C54.4022 71.0561 54.418 71.0868 54.4234 71.1201C54.4322 71.1503 54.4328 71.1822 54.425 71.2126C54.4172 71.243 54.4014 71.2707 54.3792 71.2929C54.357 71.3151 54.3293 71.3309 54.2989 71.3387C54.2685 71.3464 54.2366 71.3459 54.2064 71.3371C54.1743 71.3292 54.1449 71.3126 54.1214 71.2891C54.098 71.2657 54.0814 71.2363 54.0734 71.2041H54.0664ZM52.5264 75.1871C52.5614 75.1642 52.6032 75.154 52.6449 75.1583C52.6865 75.1626 52.7254 75.181 52.7549 75.2106C52.7845 75.2402 52.803 75.2791 52.8073 75.3207C52.8116 75.3623 52.8014 75.4041 52.7784 75.4391C52.7586 75.4796 52.7276 75.5135 52.6892 75.5371C52.6508 75.5606 52.6065 75.5728 52.5614 75.5721C52.518 75.5689 52.4771 75.5502 52.4462 75.5193C52.4154 75.4885 52.3967 75.4476 52.3934 75.4041C52.3913 75.363 52.3998 75.3221 52.4182 75.2853C52.4366 75.2485 52.4643 75.2171 52.4984 75.1941L52.5264 75.1871ZM51.3014 71.6171C51.3392 71.5907 51.3851 71.5784 51.431 71.5824C51.4769 71.5864 51.5199 71.6064 51.5525 71.639C51.5851 71.6716 51.6052 71.7147 51.6092 71.7606C51.6132 71.8065 51.6009 71.8524 51.5744 71.8901C51.5324 71.9881 51.1614 71.9391 51.3014 71.6171ZM49.1314 71.1761C49.1371 71.138 49.1531 71.1021 49.1778 71.0725C49.2025 71.0428 49.2349 71.0206 49.2714 71.0081C49.2873 71.0135 49.3045 71.0135 49.3204 71.0081C49.3439 70.9969 49.3704 70.9932 49.396 70.9977C49.4217 71.0021 49.4454 71.0143 49.4638 71.0327C49.4823 71.0512 49.4945 71.0748 49.4989 71.1005C49.5033 71.1262 49.4997 71.1526 49.4884 71.1761C49.4943 71.1919 49.4943 71.2093 49.4884 71.2251C49.4755 71.2626 49.4521 71.2957 49.4212 71.3204C49.3902 71.3452 49.3529 71.3607 49.3134 71.3651C49.2726 71.3651 49.2334 71.3489 49.2045 71.32C49.1757 71.2912 49.1594 71.252 49.1594 71.2111L49.1314 71.1761Z" fill="#B32F31"/>
<path d="M74.2109 43.9321C74.2739 44.3031 74.3229 44.6741 74.3789 45.0451C75.3939 45.2691 75.3379 44.0371 74.2109 43.9321ZM129.161 97.5661C129.183 97.5456 129.202 97.522 129.217 97.4961C129.161 97.5101 129.161 97.5311 129.161 97.5661Z" fill="#B32F31"/>
</svg>
