<svg width="324" height="396" viewBox="0 0 324 396" fill="none" xmlns="http://www.w3.org/2000/svg">
<rect x="0.5" y="0.5" width="323" height="395" rx="7.5" stroke="#4D27D3"/>
<path d="M181.732 281.268C181.608 281.302 181.502 281.385 181.438 281.497C181.374 281.61 181.358 281.743 181.392 281.867C181.427 281.992 181.509 282.098 181.621 282.162C181.734 282.225 181.867 282.242 181.992 282.208C186.085 281.311 189.923 279.5 193.218 276.91C205.741 267.66 205.093 254.538 212.221 242.534C217.923 233.381 222.929 234.434 222.54 233.251C222.526 233.204 222.502 233.161 222.47 233.124C222.438 233.087 222.399 233.057 222.355 233.036C222.311 233.014 222.263 233.002 222.214 233C222.165 232.998 222.116 233.007 222.07 233.024C199.65 241.27 212.318 270.673 181.732 281.268ZM272.469 252.464C273.1 251.8 273.732 251.104 274.348 250.407C279.111 244.624 282.448 235.665 282.124 229.072C282.116 229.001 282.088 228.933 282.044 228.877C282 228.82 281.941 228.777 281.874 228.752C281.807 228.727 281.734 228.721 281.664 228.734C281.594 228.748 281.529 228.78 281.476 228.829C280.99 229.298 282.351 231.89 278.932 240.055C275.692 247.799 272.857 249.775 269.666 253.388C266.807 256.689 264.634 260.526 263.274 264.676C261.914 268.826 261.394 273.205 261.744 277.558C261.763 277.65 261.812 277.732 261.885 277.791C261.957 277.85 262.048 277.883 262.141 277.883C262.235 277.883 262.325 277.85 262.397 277.791C262.47 277.732 262.519 277.65 262.538 277.558C262.427 272.923 263.249 268.314 264.955 264.003C266.661 259.692 269.216 255.768 272.469 252.464ZM130.233 182.513C131.853 181.395 131.739 177.977 130.233 176.713C129.807 176.369 129.31 176.124 128.778 175.993C128.246 175.863 127.692 175.852 127.156 175.96C126.619 176.068 126.113 176.294 125.673 176.62C125.233 176.946 124.871 177.365 124.611 177.847C124.311 178.601 124.256 179.43 124.457 180.217C124.657 181.003 125.101 181.706 125.725 182.224C126.35 182.742 127.122 183.05 127.932 183.101C128.742 183.153 129.547 182.947 130.233 182.513ZM125.778 178.803C126.264 176.956 129.455 176.697 129.941 178.544C130.265 179.807 130.119 180.698 129.471 181.184C129.082 181.427 128.639 181.569 128.181 181.601C127.724 181.632 127.265 181.55 126.847 181.363C126.408 181.117 126.065 180.731 125.871 180.267C125.678 179.803 125.645 179.288 125.778 178.803ZM185.588 152.543C185.526 152.538 185.463 152.547 185.404 152.568C185.346 152.588 185.292 152.621 185.246 152.664C185.2 152.706 185.164 152.758 185.139 152.815C185.115 152.872 185.102 152.934 185.102 152.996C185.102 154.616 182.364 156.236 181.862 156.398C181.765 156.422 181.682 156.483 181.63 156.568C181.579 156.653 181.563 156.755 181.587 156.852C181.61 156.949 181.671 157.032 181.756 157.084C181.841 157.135 181.944 157.151 182.04 157.127C186.301 156.253 186.949 152.51 185.588 152.543ZM179.902 150.064C179.707 149.951 178.849 149.319 178.541 149.076C178.541 148.865 179.302 146.16 179.448 145.642C179.594 145.123 178.93 144.994 178.752 145.415C178.074 146.728 177.531 148.107 177.132 149.53C177.261 149.999 179.513 150.615 179.675 150.615C179.742 150.624 179.811 150.611 179.87 150.577C179.929 150.543 179.975 150.49 180.001 150.427C180.027 150.364 180.031 150.294 180.013 150.229C179.995 150.163 179.956 150.105 179.902 150.064ZM174.556 141.381C174.533 141.241 174.46 141.114 174.352 141.022C174.244 140.93 174.106 140.88 173.964 140.88C173.823 140.88 173.685 140.93 173.577 141.022C173.469 141.114 173.396 141.241 173.373 141.381C173.311 142.498 173.311 143.617 173.373 144.734C173.475 144.9 173.629 145.028 173.811 145.097C173.993 145.165 174.193 145.171 174.379 145.114C174.565 145.056 174.726 144.938 174.837 144.778C174.949 144.619 175.003 144.427 174.993 144.232C174.769 143.296 174.622 142.342 174.556 141.381ZM185.88 144.216C185.672 143.287 185.526 142.345 185.442 141.397C185.442 141.238 185.379 141.086 185.267 140.973C185.154 140.861 185.002 140.798 184.843 140.798C184.684 140.798 184.531 140.861 184.419 140.973C184.307 141.086 184.243 141.238 184.243 141.397C184.185 142.476 184.185 143.558 184.243 144.637C184.252 144.763 184.289 144.885 184.35 144.994C184.412 145.104 184.496 145.199 184.599 145.272C184.701 145.346 184.818 145.396 184.941 145.419C185.065 145.442 185.192 145.438 185.314 145.407C185.436 145.375 185.549 145.318 185.646 145.238C185.743 145.158 185.821 145.057 185.875 144.944C185.929 144.83 185.958 144.706 185.958 144.58C185.959 144.455 185.932 144.33 185.88 144.216Z" fill="#4C2FB3"/>
<path d="M312.66 122.152C312.547 112.059 309.161 108.074 298.712 108.382C295.731 108.382 242.579 108.916 238.772 109.046C236.22 109.047 233.695 109.57 231.352 110.585C230.008 111.12 222.977 114.635 222.199 116.498C221.357 117.826 222.345 155.67 222.199 163.478C221.074 162.837 219.917 162.253 218.733 161.728C218.519 160.664 218.064 159.663 217.405 158.801C216.745 157.939 215.897 157.239 214.926 156.755C213.435 156.172 211.524 156.868 210.422 155.815C209.32 154.762 211.297 154.195 211.507 152.575C211.501 151.452 211.371 150.333 211.119 149.238C210.142 143.366 208.778 137.564 207.036 131.872C205.578 127.19 204.055 123.221 199.86 120.678C199.86 112.804 199.066 66.6667 198.628 64.2205C198.197 61.8063 196.91 59.6286 195.002 58.0871C193.095 56.5457 190.695 55.7439 188.244 55.8289C188.082 55.8289 76.5939 55.8289 76.4643 55.9585C72.0093 58.6153 70.8105 64.5445 70.5189 68.9185C70.4217 71.1055 72.3333 115.267 73.0947 129.296C65.2053 129.458 25.3533 130.527 23.0691 131.742C17.9013 133.006 12.1827 136.602 11.0649 142.45C10.3683 146.209 11.7777 218.412 12.2475 221.83C12.5839 225.522 14.2337 228.971 16.8969 231.55C19.7967 234.094 23.7495 234.564 27.2325 234.693L101.153 233.3C93.9279 249.662 85.6011 272.86 80.0931 287.294C80.0672 287.336 80.0535 287.383 80.0535 287.432C80.0535 287.481 80.0672 287.529 80.0931 287.57C81.5838 289.034 83.2112 290.352 84.9531 291.507C82.3125 300.53 82.6041 301.032 82.0209 301.761C77.0151 307.901 70.9725 311.481 65.0109 312.064C62.2407 312.372 59.5029 312.858 58.5309 315.547C57.7371 317.993 59.8431 319.63 62.3055 320.31C63.9255 320.747 74.9739 323.194 76.6101 323.388C78.06 323.631 79.5475 323.3 80.7573 322.465C81.9237 321.606 85.7631 317.07 87.2373 315.709C84.5643 328.669 82.7013 324.538 89.0679 327.309C89.1568 327.356 89.2551 327.383 89.3557 327.388C89.4564 327.393 89.5568 327.375 89.6498 327.336C89.7428 327.298 89.8261 327.239 89.8935 327.164C89.961 327.089 90.011 327 90.0399 326.903C91.1739 323.664 98.8527 305.147 101.979 300.336C102.741 319.905 102.611 318.884 102.886 318.966C103.972 319.241 105.154 319.5 106.369 319.743C106.369 322.465 106.45 325.251 106.677 328.297C106.677 328.394 106.548 328.556 106.418 328.815C102.4 337.628 97.8969 341.224 93.0045 343.395C90.8337 344.367 87.8367 345.696 87.9177 348.692C87.9177 351.285 90.5745 352.111 93.1503 352.014C97.0221 351.884 102.028 351.366 104.296 351.252C110.776 350.863 110.938 349.632 113.692 344.075C114.324 342.796 115.069 341.273 115.49 340.528C116.251 349.632 115.247 350.977 116.494 350.912C119.88 350.734 121.354 351.657 121.354 350.442C121.484 347.105 122.974 333.983 123.752 330.759C123.752 330.386 123.493 330.176 123.104 330.095C123.59 327.082 124.724 321.153 124.87 320.067C125.68 319.954 126.49 319.824 127.122 319.678C127.3 319.678 127.122 320.537 129.859 309.245C149.526 317.005 170.505 318.868 189.33 314.446C189.994 317.022 194.805 334.582 197.43 342.277C198.324 344.791 199.515 347.19 200.977 349.422C201.35 349.778 201.982 350.41 202.597 350.41C203.213 350.41 203.893 349.551 204.055 348.676C204.217 347.801 201.674 322.254 200.815 313.036C204.664 312.083 208.397 310.708 211.945 308.938L217.194 326.369C217.347 326.629 217.579 326.834 217.855 326.955C218.131 327.076 218.439 327.108 218.734 327.045C219.029 326.983 219.297 326.829 219.5 326.606C219.704 326.383 219.832 326.102 219.867 325.802L219.365 304.92C221.817 303.322 224.166 301.568 226.395 299.671C227.408 300.65 228.546 301.489 229.781 302.166C229.908 302.236 230.057 302.253 230.197 302.214C230.336 302.174 230.455 302.082 230.526 301.955C231.873 299.918 233.385 297.995 235.046 296.204C234.722 298.294 234.09 302.571 234.009 303.899C234.007 303.985 234.022 304.07 234.054 304.15C234.086 304.23 234.134 304.302 234.194 304.363C234.255 304.423 234.327 304.471 234.407 304.503C234.486 304.534 234.572 304.55 234.657 304.548C236.378 304.494 238.095 304.718 239.744 305.212C234.463 307.755 232.049 309.91 232.373 311.692C233.006 314.874 233.894 318 235.03 321.039C235.905 323.566 236.812 326.191 239.533 327.292C252.007 332.574 270.54 328.718 283.063 323.453C293.69 319.29 295.245 312.55 294.306 303.025C294.111 301.21 292.005 301 287.583 301.113L298.356 287.489C301.596 283.617 298.777 283.747 297.756 276.149C298.732 277.595 299.904 278.898 301.239 280.021C301.319 280.083 301.41 280.128 301.508 280.153C301.605 280.178 301.707 280.183 301.806 280.166C302.244 280.086 301.903 280.312 305.921 273.087C305.997 272.955 306.026 272.801 306.003 272.651C305.979 272.501 305.905 272.363 305.791 272.261C304.026 270.803 299.765 267.401 299.765 267.401C301.962 266.881 304.125 266.232 306.245 265.457C306.75 265.327 307.208 265.055 307.564 264.673C307.92 264.291 308.159 263.816 308.254 263.302C308.464 262.039 308.481 236.589 308.513 233.122C308.513 232.555 307.606 232.393 307.509 233.008C305.613 245.855 296.914 256.547 285.801 259.738C286.157 258.297 287.064 255.17 286.562 254.311C284.73 253.158 282.78 252.202 280.746 251.46C282.771 250.31 287.453 247.313 287.793 246.39C288.004 245.855 286.967 220.858 286.918 218.121C286.91 218.008 286.867 217.9 286.794 217.814C286.721 217.727 286.623 217.666 286.513 217.639C286.403 217.612 286.287 217.621 286.183 217.663C286.078 217.706 285.99 217.781 285.93 217.878C282.794 224.071 278.154 229.379 272.436 233.316C271.771 233.77 266.992 236.313 266.62 236.653C265.421 237.804 266.911 239.213 267.543 240.104C267.997 240.72 269.552 242.809 269.86 243.247C264.158 243.943 262.651 241.983 262.359 243.247C261.799 244.897 261.043 246.474 260.107 247.945C260.441 249.365 260.869 250.761 261.387 252.124C260.438 252.281 259.469 252.281 258.52 252.124C258.351 252.088 258.174 252.116 258.024 252.203C257.874 252.29 257.762 252.429 257.71 252.594C257.256 254.068 256.9 255.3 256.576 256.45C254.612 253.119 252.448 249.911 250.096 246.843C248.946 238.063 244.798 227.808 236.034 226.447C242.628 223.693 246.953 216.614 247.99 209.437C251.1 209.437 296.039 209.308 297.853 209.437C307.687 209.713 312.077 205.954 313 195.927C313.373 191.925 312.66 122.881 312.66 122.152ZM88.9545 315.029C88.9953 314.857 88.9696 314.677 88.8824 314.523C88.7952 314.37 88.6531 314.255 88.4847 314.203C87.1725 313.717 86.1681 314.867 85.4391 315.693C83.5936 317.939 81.5673 320.031 79.3803 321.946C78.1653 322.53 64.0227 319.597 62.2569 319.047C61.3064 318.831 60.4795 318.249 59.9565 317.427C59.7519 316.829 59.7742 316.177 60.0191 315.594C60.2641 315.012 60.7146 314.539 61.2849 314.268C62.5323 313.506 63.4557 313.571 66.9549 312.923C70.4541 312.275 73.9209 311.643 80.0121 305.908C80.8607 305.095 81.6511 304.224 82.3773 303.3C83.3887 305.549 85.0913 307.416 87.2373 308.63C90.1123 309.907 93.3231 310.219 96.3903 309.521C94.7703 312.761 90.2991 322.886 89.1813 325.98C88.2903 325.624 87.3831 325.3 86.4921 325.04C87.4955 321.751 88.3175 318.409 88.9545 315.029ZM231.223 226.318C228.944 226.415 226.681 226.741 224.467 227.29C217.211 228.11 209.916 228.532 202.614 228.553C201.544 222.073 201.868 223.272 201.593 221.474C201.48 220.696 201.318 219.627 201.885 219.287C209.645 215.82 217.712 212.677 225.439 209.292C227.059 210.474 227.189 210.328 227.335 210.231C227.404 210.156 227.443 210.058 227.443 209.956C227.443 209.854 227.404 209.755 227.335 209.68C226.703 209.041 226.038 208.436 225.342 207.866C219.123 202.304 214.791 194.943 212.949 186.806C212.928 186.709 212.869 186.625 212.785 186.572C212.702 186.519 212.6 186.501 212.504 186.522C212.407 186.544 212.323 186.603 212.27 186.686C212.217 186.77 212.199 186.871 212.22 186.968C213.593 195.43 217.97 203.114 224.548 208.611L202.209 217.845C201.563 218.035 200.995 218.426 200.589 218.963C199.471 218.659 198.46 218.047 197.673 217.197C193.461 213.811 191.776 216.128 186.333 220.437C185.806 220.834 185.308 221.267 184.842 221.733C181.965 219.174 179.097 216.603 176.24 214.022C175.511 212.953 168.869 190.046 166.147 180.844C168.251 175.743 171.646 171.277 175.997 167.884C176.5 169.421 177.134 170.911 177.892 172.339C179.107 173.506 180.679 172.939 182.202 172.566C181.782 173.437 181.54 174.382 181.49 175.347C181.44 176.313 181.583 177.278 181.91 178.188C183.057 180.759 184.848 182.991 187.11 184.668C192.651 189.528 192.375 189.398 192.699 189.398C192.849 189.39 192.991 189.329 193.098 189.224C193.205 189.12 193.271 188.98 193.282 188.831C193.833 183.177 195.648 181.622 200.767 179.824C203.567 178.91 205.936 177.004 207.427 174.464C208.919 171.925 209.431 168.928 208.867 166.038C212.253 166.063 215.626 165.627 218.895 164.742C219.049 164.707 219.183 164.612 219.268 164.479C219.353 164.345 219.382 164.183 219.348 164.029C219.348 163.753 219.235 163.429 219.154 163.089C242.79 174.575 257.191 210.361 238.124 223.661C236.05 225.05 233.692 225.957 231.223 226.318ZM236.666 228.165C240.829 229.056 244.312 232.555 246.581 238.711C257.402 267.952 232.179 303.381 200.864 311.611C200.67 309.651 199.6 298.278 199.39 297.436C199.235 296.692 198.807 296.033 198.191 295.589C196.198 294.487 192.78 295.702 190.966 296.772C189.236 297.92 187.69 299.324 186.381 300.935C186.381 301.453 188.649 311.222 189.135 313.215C169.446 317.332 148.98 315.575 130.281 308.16C133.164 296.172 136.987 279.761 138.057 274.675C149.202 278.142 164.868 277.817 165.03 277.801C165.082 277.788 165.127 277.757 165.16 277.715C165.193 277.672 165.21 277.62 165.21 277.566C165.21 277.513 165.193 277.461 165.16 277.418C165.127 277.376 165.082 277.345 165.03 277.332C156.039 274.334 148.279 266.607 143.192 255.559C135.367 239.051 119.135 239.245 112.817 247.459C103.68 259.317 102.206 293.823 102.06 297.987C101.493 299.023 98.2371 305.39 97.0059 307.982C87.2859 310.299 84.5157 304.742 83.3331 302.36C83.1387 301.955 83.2359 303.025 86.2491 292.381C87.8691 293.175 99.3873 297.241 99.4035 296.043C99.5331 282.272 102.87 249.516 111.91 241.983C118.39 236.67 132.403 237.593 138.607 242.194C142.552 245.794 145.779 250.109 148.117 254.911C153.317 266.073 162.276 274.351 172.222 276.424C184.972 275.307 199.762 254.992 203.991 241.999C211.799 232.101 224.678 226.431 236.666 228.165ZM262.019 294.05C262.041 294.147 262.1 294.231 262.183 294.284C262.267 294.337 262.368 294.355 262.465 294.333C262.561 294.312 262.645 294.253 262.699 294.169C262.752 294.086 262.77 293.985 262.748 293.888C261.727 288.672 258.844 284.168 257.029 279.308C253.887 270.997 256.171 262.071 258.828 253.631C260.013 253.852 261.237 253.694 262.327 253.177C263.218 252.481 262.505 251.298 261.501 248.317C262.327 247.068 262.975 245.711 263.428 244.284C265.96 244.883 268.593 244.916 271.14 244.381C271.239 244.355 271.33 244.307 271.407 244.24C271.483 244.173 271.543 244.088 271.581 243.994C271.619 243.899 271.634 243.796 271.625 243.695C271.616 243.593 271.583 243.495 271.529 243.409C270.443 241.983 267.576 238.079 267.43 237.787C267.284 237.496 267.43 237.528 267.9 237.318C275.643 233.794 281.993 227.792 285.946 220.259C286.141 225.556 286.773 245.272 286.594 246.066C284.077 247.887 281.424 249.512 278.656 250.926C278.536 250.992 278.437 251.093 278.374 251.216C278.311 251.338 278.285 251.477 278.301 251.614C278.317 251.751 278.373 251.881 278.462 251.986C278.551 252.091 278.67 252.168 278.802 252.205C281.094 252.989 283.316 253.964 285.444 255.121C285.736 255.591 284.715 259.301 284.537 260.257L282.917 260.581C282.756 260.623 282.617 260.726 282.53 260.867C282.442 261.009 282.413 261.179 282.447 261.342C282.868 264.21 283.824 271.273 283.824 271.273C279.175 266.947 279.207 264.55 278.203 264.453C278.103 264.44 278.002 264.453 277.909 264.49C277.815 264.526 277.733 264.586 277.668 264.663C270.051 273.502 265.774 284.732 265.583 296.399C265.601 296.486 265.649 296.565 265.718 296.621C265.788 296.678 265.874 296.709 265.964 296.709C266.053 296.709 266.14 296.678 266.209 296.621C266.279 296.565 266.326 296.486 266.344 296.399C266.955 285.36 271.05 274.799 278.041 266.234C279.652 269.01 281.767 271.461 284.278 273.46C284.385 273.555 284.519 273.614 284.661 273.628C284.804 273.642 284.947 273.611 285.071 273.54C285.195 273.468 285.293 273.359 285.351 273.228C285.409 273.097 285.425 272.952 285.396 272.812C285.396 272.812 284.229 264.922 283.776 261.715C294.808 259.755 304.285 250.375 307.476 238.419C307.476 245.077 307.25 261.585 307.25 261.747C307.25 262.8 307.249 263.805 306.31 264.274C303.653 265.208 300.949 266.002 298.21 266.656C298.098 266.685 297.996 266.744 297.914 266.827C297.833 266.91 297.775 267.013 297.747 267.125C297.718 267.238 297.721 267.356 297.754 267.467C297.787 267.578 297.849 267.678 297.935 267.757C298.696 268.373 303.07 271.953 304.512 273.103C304.512 273.103 302.535 276.878 301.531 278.741C299.888 277.221 298.528 275.422 297.513 273.427C297.448 273.314 297.346 273.225 297.225 273.175C297.104 273.124 296.97 273.115 296.844 273.148C296.717 273.181 296.604 273.255 296.523 273.358C296.442 273.461 296.398 273.588 296.396 273.719C296.849 284.541 300.316 283.131 297.448 286.679C287.566 299.104 285.833 303.122 275.19 306.265C277.328 296.545 284.651 292.608 287.583 285.594C289.203 281.754 288.846 277.494 290.126 273.638C291.017 270.962 292.474 268.509 294.397 266.446C296.32 264.383 298.665 262.759 301.272 261.682C301.366 261.65 301.444 261.582 301.488 261.492C301.532 261.402 301.539 261.299 301.507 261.204C301.474 261.11 301.406 261.032 301.316 260.988C301.227 260.944 301.123 260.937 301.029 260.97C297.634 262.167 294.638 264.284 292.375 267.085C290.113 269.885 288.672 273.258 288.215 276.829C287.518 281.803 287.664 284.249 284.553 288.607C281.119 293.386 275.497 297.614 273.683 306.67C270.866 307.371 267.983 307.773 265.081 307.869C264.741 304.969 262.959 303.268 261.695 303.203C260.529 301.162 248.233 282.451 243.697 278.352C248.713 269.325 251.019 259.043 250.339 248.739C252.283 251.606 255.604 256.984 256.187 258.037C250.533 279.843 259.767 283.115 262.019 294.05ZM236.472 294.763C236.471 294.648 236.438 294.537 236.376 294.441C236.314 294.345 236.226 294.268 236.122 294.221C236.018 294.173 235.903 294.156 235.79 294.172C235.677 294.187 235.57 294.235 235.483 294.309C233.412 296.365 231.531 298.605 229.862 301C228.908 300.443 228.013 299.792 227.189 299.056C231.104 295.653 234.655 291.853 237.784 287.716C254.988 308.354 254.162 307.755 254.648 307.366C254.686 307.34 254.719 307.307 254.744 307.268C254.768 307.23 254.785 307.186 254.793 307.141C254.8 307.095 254.799 307.049 254.788 307.004C254.777 306.959 254.757 306.917 254.729 306.88C253.595 305.163 242.044 290.68 238.529 286.614C240.198 284.307 241.724 281.9 243.097 279.405C249.577 285.739 259.638 302.409 260.577 303.98C259.683 305.267 259.265 306.825 259.395 308.387C257.348 308.958 255.198 309.053 253.109 308.662C250.63 308.176 241.364 303.624 235.289 303.446C235.678 301.68 236.293 296.285 236.52 294.763H236.472ZM194.06 296.82H194.335C195.599 296.528 197.575 296.091 198.045 297.371C198.288 298.246 203.181 346.57 203.181 348.061C203.207 348.296 203.181 348.533 203.105 348.757C203.03 348.981 202.906 349.186 202.743 349.357C198.531 347.737 188.163 304.758 187.758 301.113C189.391 299.093 191.583 297.6 194.06 296.82ZM21.5625 220.324C21.5625 216.614 19.1001 143.066 19.3431 140.409C19.7643 135.403 21.5625 133.152 25.5315 132.633C29.7273 131.823 68.8989 130.705 73.1757 130.592C73.2729 132.212 73.3539 133.346 73.3863 133.557C73.5659 134.831 74.1737 136.007 75.11 136.89C76.0462 137.773 77.2551 138.311 78.5379 138.417C78.5379 138.255 77.4687 138.417 110.938 138.53C110.938 143.584 111.246 167.334 111.262 168.451C101.736 168.808 91.9191 169.197 90.0399 169.375C89.7807 169.375 89.5539 169.845 89.6511 170.071C92.4699 177.037 105.025 205.323 108.54 212.58C108.868 213.405 109.432 214.115 110.16 214.621C110.614 215.302 111.148 216.063 111.78 216.825C106.645 220.923 104.798 225.459 101.817 232.101C88.0959 232.393 32.4813 233.543 31.2339 233.494C27.7671 233.349 25.3209 232.344 23.7981 230.433C21.4815 227.679 21.5787 223.92 21.5625 220.324ZM208.98 155.621C209.32 156.852 210.6 157.516 212.577 157.565C215.979 157.419 217.437 160.351 218.052 163.721C214.741 164.368 211.381 164.742 208.008 164.839C207.911 164.84 207.815 164.863 207.728 164.908C207.641 164.952 207.565 165.016 207.507 165.095C207.449 165.173 207.41 165.264 207.393 165.36C207.376 165.456 207.381 165.555 207.409 165.649C207.926 167.498 207.931 169.453 207.423 171.305C206.915 173.157 205.914 174.836 204.525 176.163C200.167 180.358 193.185 178.042 192.165 187.713C190.707 186.45 185.312 181.865 184.21 180.52C182.315 178.333 181.554 174.705 183.498 172.42C187.66 171.74 191.868 171.366 196.085 171.303C196.18 171.303 196.27 171.265 196.337 171.198C196.404 171.131 196.441 171.041 196.441 170.946C196.441 170.852 196.404 170.761 196.337 170.694C196.27 170.627 196.18 170.59 196.085 170.59C191.233 170.246 186.356 170.595 181.602 171.627C179.788 172.129 178.897 172.485 178.087 170.784C177.682 169.926 175.268 162.571 174.847 161.21C174.102 159.444 174.555 159.979 175.916 159.136C177.249 160.263 178.746 161.181 180.355 161.858C180.355 162.052 181.197 164.628 181.327 165.098C181.382 165.487 181.577 165.843 181.875 166.099C182.173 166.356 182.554 166.495 182.947 166.491C186.725 166.838 190.531 166.285 194.054 164.877C197.576 163.469 200.715 161.246 203.213 158.391C203.263 158.323 203.285 158.239 203.277 158.156C203.268 158.072 203.229 157.994 203.166 157.938C203.104 157.882 203.023 157.85 202.939 157.85C202.855 157.85 202.773 157.881 202.711 157.938C200.202 160.473 197.187 162.453 193.863 163.748C190.539 165.043 186.98 165.625 183.417 165.454C182.283 165.373 182.428 165.616 181.473 162.214C185.847 163.446 186.948 161.777 185.393 163.316C185.342 163.376 185.314 163.453 185.314 163.532C185.313 163.611 185.34 163.687 185.39 163.749C185.44 163.81 185.509 163.852 185.587 163.868C185.664 163.883 185.745 163.872 185.814 163.834C191.707 159.429 196.006 153.225 198.061 146.16C198.076 146.114 198.082 146.066 198.078 146.018C198.073 145.97 198.059 145.924 198.037 145.881C198.014 145.839 197.983 145.802 197.946 145.772C197.908 145.742 197.865 145.719 197.818 145.707C196.976 145.415 197.543 147.084 193.59 153.547C191.97 147.067 193.056 140.215 191.306 133.702C191.282 133.61 191.223 133.531 191.141 133.482C191.059 133.434 190.961 133.419 190.869 133.443C190.776 133.467 190.697 133.526 190.648 133.608C190.6 133.69 190.586 133.788 190.609 133.881C190.893 135.259 191.077 136.655 191.16 138.06C187.71 134.642 180.42 129.183 174.669 130.43C173.43 130.468 172.256 130.993 171.401 131.89C170.546 132.788 170.078 133.986 170.1 135.225C168.707 133.346 169.679 130.479 170.943 128.891C174.28 124.533 180.209 122.411 186.122 120.791C191.355 119.398 198.353 119.592 202.322 124.323C204.044 126.683 205.288 129.358 205.983 132.196C208.053 138.591 209.496 145.172 210.292 151.846C210.354 152.115 210.342 152.396 210.256 152.659C210.17 152.921 210.015 153.156 209.806 153.337C209.483 153.614 209.237 153.97 209.092 154.37C208.947 154.77 208.909 155.201 208.98 155.621ZM109.723 212.191C108.2 208.951 93.1503 175.579 90.7527 170.071C96.1149 170.071 156.622 167.852 157.675 167.82C159.732 174.429 171.72 214.346 171.72 214.686C171.72 214.686 157.399 215.043 149.672 215.35C136.631 208.773 124.562 209.486 115.782 214.135C110.824 213.925 110.598 214.022 109.723 212.191ZM171.283 144.994C171.056 140.134 171.283 136.748 172.044 136.408C174.831 135.144 180.031 134.788 185.814 136.618C186.543 136.861 188.876 138.076 191.225 139.065C191.484 144.249 191.225 149.74 192.845 154.762C191.413 157.273 189.574 159.529 187.402 161.437C177.601 162.733 171.72 154.892 171.25 144.994H171.283ZM186.154 241.87C185.766 242.615 192.359 247.572 193.072 248.107C195.405 250.31 192.553 251.509 190.188 249.387C177.228 237.739 166.18 224.39 151.778 216.42C160.17 216.144 170.554 215.836 172.336 215.82C174.134 217.554 195.016 237.107 200.41 241.74C185.344 241.854 186.3 241.611 186.122 241.87H186.154ZM202.063 241.643C201.901 241.497 174.523 216.76 173.47 215.529C172.854 214.492 161.498 175.952 158.89 168.192C160.49 169.283 161.677 170.881 162.259 172.728C163.231 175.498 174.264 212.434 174.312 212.613C174.445 213.51 174.846 214.345 175.462 215.01C179.723 219.109 197.802 235.503 203.683 240.363C203.343 240.784 203.002 241.206 202.678 241.643H202.063ZM200.88 226.075C198.061 225.848 197.17 225.524 196.474 226.382C196.247 226.739 195.599 227.533 194.773 227.355C194.63 227.321 194.495 227.259 194.377 227.171C194.259 227.083 194.16 226.971 194.087 226.844C194.014 226.716 193.968 226.575 193.953 226.428C193.937 226.282 193.951 226.134 193.995 225.994C194.789 225.249 195.615 224.601 196.36 223.807C196.4 223.751 196.42 223.683 196.417 223.614C196.414 223.546 196.388 223.48 196.343 223.428C196.299 223.376 196.238 223.34 196.17 223.326C196.103 223.313 196.033 223.322 195.972 223.353C195.145 223.888 194.352 224.746 193.412 225.313C193.335 225.314 193.258 225.332 193.188 225.366C193.118 225.399 193.056 225.448 193.007 225.508C192.813 225.586 192.603 225.619 192.395 225.604C192.186 225.588 191.983 225.525 191.803 225.418C191.623 225.311 191.469 225.165 191.355 224.989C191.241 224.814 191.169 224.614 191.144 224.406C191.144 223.11 192.537 222.252 193.347 221.296C193.671 220.972 193.185 220.486 192.845 220.794C191.977 221.526 191.17 222.328 190.431 223.191C189.498 223.488 188.545 223.721 187.58 223.888C187.143 223.888 187.58 224.163 185.668 222.527C187.662 220.657 189.832 218.986 192.148 217.537C196.085 214.945 196.814 219.433 200.362 219.951C200.359 222.003 200.532 224.052 200.88 226.075ZM204.525 239.424L188.212 224.844C188.803 224.727 189.388 224.575 189.961 224.39C189.948 224.742 190.017 225.092 190.163 225.412C190.308 225.733 190.527 226.015 190.8 226.236C191.074 226.458 191.395 226.613 191.739 226.689C192.082 226.765 192.439 226.76 192.78 226.674C192.845 227.018 192.99 227.341 193.204 227.618C193.417 227.895 193.693 228.117 194.009 228.267C194.325 228.417 194.672 228.491 195.021 228.481C195.371 228.472 195.713 228.38 196.02 228.213C198.256 227.193 196.02 226.804 199.633 227.128C200.103 227.128 200.605 227.225 201.091 227.241C201.237 228.003 201.382 228.699 201.544 229.363C201.583 229.496 201.665 229.612 201.776 229.694C201.887 229.776 202.022 229.819 202.16 229.817C231.126 229.201 216.902 225.2 204.493 239.424H204.525ZM165.645 179.095C163.815 172.955 162.859 167.998 159.165 166.734C159.165 166.929 160.542 166.524 112.59 168.354C112.59 160.465 112.25 141.381 112.201 138.481H170.278C169.825 145.496 170.278 153.061 175.138 158.278C174.555 158.505 173.518 158.991 173.275 159.396C173.873 162.014 174.675 164.581 175.673 167.074C171.327 170.142 167.849 174.283 165.58 179.095H165.645ZM158.987 129.021C158.987 126.753 158.469 114.554 158.355 112.318H162.486C162.486 114.619 162.794 126.769 162.891 129.004C161.595 128.972 160.283 128.988 158.987 129.021ZM135.254 129.507C135.27 125.1 134.703 87.8401 134.622 82.9801H138.753C138.753 95.2921 139.11 126.088 139.174 129.442L135.254 129.507ZM109.69 89.2333H113.838C113.838 99.8767 114.178 126.753 114.259 129.944H110.338C110.355 125.959 109.788 93.6721 109.69 89.2333ZM74.5203 132.844C74.2935 131.467 72.4143 88.3261 71.6529 71.8021C71.4747 66.7153 72.8193 60.4621 76.2375 57.5623C76.2375 68.9023 77.6955 131.483 78.0195 137.153C77.066 136.878 76.2197 136.317 75.5941 135.547C74.9686 134.777 74.5939 133.833 74.5203 132.844ZM223.155 119.382C223.022 118.324 223.275 117.254 223.868 116.368C225.136 115.37 226.498 114.496 227.934 113.76C226.314 116.676 226.736 115.866 227.594 167.058C226.258 166.04 224.868 165.093 223.431 164.223C223.269 156.058 223.188 126.38 223.204 119.382H223.155ZM237.314 137.38C238.067 136.311 239.067 135.441 240.229 134.843C241.392 134.245 242.681 133.937 243.988 133.945C250.582 133.945 252.98 141.786 254.275 148.169C255.41 153.175 255.491 159.072 259.135 163.154C276.081 178.512 277.361 157.079 287.664 157.905C290.904 158.278 293.058 161.242 295.375 163.381C296.365 164.493 297.754 165.17 299.241 165.264C300.727 165.358 302.19 164.862 303.313 163.883V186.903C299.328 186.903 248.719 186.531 243.162 186.595C241.81 183.764 240.216 181.054 238.399 178.495C238.594 176.535 237.395 139.129 237.363 137.38H237.314ZM243.794 187.697C251.246 187.81 298.534 187.94 303.442 187.94C303.449 188.557 303.487 189.173 303.556 189.787C303.568 189.917 303.627 190.039 303.723 190.128C303.818 190.218 303.943 190.269 304.074 190.273C305.03 190.273 304.593 191.747 304.431 147.812C304.431 147.705 304.388 147.602 304.312 147.526C304.236 147.45 304.133 147.408 304.026 147.408C303.918 147.408 303.815 147.45 303.739 147.526C303.663 147.602 303.621 147.705 303.621 147.812C303.621 150.696 303.443 160.222 303.426 162.101C303.055 162.686 302.549 163.176 301.952 163.528C301.355 163.881 300.682 164.087 299.99 164.13C299.298 164.172 298.605 164.05 297.969 163.774C297.333 163.497 296.772 163.074 296.331 162.538C291.649 157.678 287.016 153.628 280.244 159.882C274.704 165.6 271.658 170.428 264.044 165.487C260.961 163.844 258.638 161.067 257.564 157.743C255.005 148.558 255.717 134.383 244.896 132.504C243.449 132.356 241.988 132.565 240.641 133.113C239.293 133.661 238.101 134.531 237.168 135.646C237.168 133.184 236.99 130.786 236.893 128.292C236.893 128.188 236.852 128.089 236.779 128.017C236.706 127.944 236.607 127.903 236.504 127.903C236.401 127.903 236.302 127.944 236.229 128.017C236.156 128.089 236.115 128.188 236.115 128.292C236.115 130.981 236.958 168.532 237.217 176.778C234.72 173.511 231.85 170.548 228.663 167.949C228.663 161.777 228.113 121.698 228.048 119.22C227.951 114.716 229.749 112.108 233.896 111.022C237.298 110.083 298.469 109.143 304.285 109.937C308.141 110.423 310.344 114.198 310.895 117.47C311.575 121.536 311.769 188.75 311.785 189.641C311.915 197.579 310.975 206.635 302.714 207.753C300.85 208.012 254.762 208.125 248.071 208.06C248.278 201.033 246.824 194.056 243.826 187.697H243.794ZM196.36 61.5961C198.304 64.9981 197.203 64.0585 198.58 120.013C191.873 116.984 182.38 119.77 175.9 123.253V75.2527C175.9 74.8801 176.742 74.9935 171.04 74.9935C170.683 74.9935 170.716 71.6563 171.915 125.943C170.943 126.82 170.097 127.829 169.404 128.94H163.96C163.96 126.834 163.345 111.897 163.28 111.768C163.261 111.683 163.214 111.608 163.146 111.555C163.078 111.502 162.994 111.474 162.907 111.476C161.157 111.417 159.405 111.455 157.659 111.589C157.607 111.625 157.566 111.674 157.54 111.731C157.514 111.788 157.505 111.851 157.513 111.913C157.513 113.533 157.804 126.688 157.918 129.021L151.81 129.15C152.118 101.481 152.232 102.939 151.81 102.906C147.42 103.084 147.323 103.003 147.323 103.327V129.247L140.195 129.393C140.195 125.781 139.644 84.9565 139.531 82.5913C139.536 82.4848 139.5 82.3804 139.431 82.2992C139.362 82.218 139.264 82.1661 139.158 82.1539C139.158 82.1539 134.088 82.1539 133.926 82.3159C133.456 82.6885 134.185 127.676 134.185 129.523L126.49 129.669V105.482C126.433 105.459 126.369 105.459 126.312 105.482C121.84 105.482 121.889 105.482 121.889 105.838V129.766L115.312 129.96C114.858 88.1317 114.486 88.8931 114.648 88.8931C114.648 88.7893 114.611 88.6889 114.542 88.6112C114.473 88.5335 114.378 88.4839 114.275 88.4719C114.275 88.4719 109.237 88.4719 109.075 88.6015C108.524 88.9417 109.302 127.206 109.302 130.09L100.392 130.252C100.44 67.1203 100.618 70.0201 100.197 70.0201L96.2283 70.1659C95.9529 70.1659 96.0501 66.2941 96.0501 130.317C89.3757 130.446 89.5701 130.317 89.4729 130.576C89.4418 130.626 89.4244 130.684 89.4225 130.743C89.4206 130.803 89.4342 130.861 89.4621 130.914C89.4899 130.966 89.531 131.01 89.5812 131.042C89.6314 131.074 89.689 131.092 89.7483 131.094C99.5817 131.094 159.133 130.495 168.837 130.203C167.865 132.682 168.043 135.42 170.295 136.861V137.218C160.931 137.493 80.8059 137.218 79.3641 137.218C79.3641 135.096 77.5497 60.9805 77.5335 56.8333C88.7601 56.8333 187.693 56.9791 190.269 57.4003C191.532 57.6048 192.733 58.0873 193.787 58.813C194.84 59.5386 195.719 60.4892 196.36 61.5961ZM19.7805 134.334C17.9175 137.023 17.8203 140.523 17.8203 143.908C17.8203 144.654 20.0883 224.39 20.4285 226.334C20.6222 227.745 21.1157 229.098 21.8757 230.302C22.6358 231.506 23.6447 232.534 24.8349 233.316C22.9307 233.22 21.0691 232.718 19.3755 231.842C15.7791 229.866 14.4183 225.799 13.9323 223.548C13.0737 219.498 11.9397 149.935 12.1341 146.338C12.0207 140.377 14.0457 137.153 19.7481 134.334H19.7805ZM262.781 317.54C269.265 317.088 275.617 315.486 281.54 312.81C285.752 310.865 291.001 307.787 293.172 305.341C293.512 312.988 291.957 317.929 284.1 321.541C273.699 326.401 249.027 332.363 238.367 325.251C237.411 324.328 235.127 317.313 234.22 314.073C238.869 317.167 252.412 318.366 262.748 317.54H262.781ZM116.268 338.762C114.907 338.648 114.259 340.009 113.805 340.998C110.014 349.097 110.063 349.616 106.207 349.875C104.992 349.956 93.5553 350.896 92.7129 350.896C89.7645 351.106 88.1283 349.081 90.2181 346.603C91.4094 345.704 92.7316 344.994 94.1385 344.497C98.6421 342.407 105.77 336.883 107.341 330.046C108.968 331.957 111.186 333.268 113.643 333.772C116.686 334.099 119.754 333.47 122.424 331.974C121.808 335.473 120.382 346.376 120.204 349.794C119.257 349.695 118.305 349.651 117.353 349.664C117.337 348.741 117.029 338.827 116.235 338.762H116.268ZM122.229 330.419C120.124 331.908 117.598 332.685 115.02 332.638C113.657 332.536 112.328 332.153 111.119 331.515C109.909 330.877 108.844 329.996 107.989 328.929C107.989 328.426 107.811 322.999 107.86 320.083C113.109 320.497 118.378 320.6 123.639 320.391C123.379 321.817 122.553 327.6 122.197 330.419H122.229Z" fill="#4C2FB3"/>
<path d="M283.501 121.309C283.592 121.291 283.675 121.241 283.734 121.169C283.793 121.096 283.825 121.006 283.825 120.912C283.825 120.819 283.793 120.728 283.734 120.656C283.675 120.584 283.592 120.534 283.501 120.515H280.779C260.416 121.147 261.08 121.131 261.096 121.698C261.112 122.265 260.481 122.395 283.501 121.309ZM284.181 125.1C280.552 125.1 266.361 125.294 262.716 125.586C262.588 125.608 262.472 125.675 262.389 125.774C262.305 125.873 262.259 125.999 262.259 126.129C262.259 126.258 262.305 126.384 262.389 126.483C262.472 126.583 262.588 126.649 262.716 126.671C266.426 126.671 280.536 125.942 284.197 125.797C284.277 125.778 284.347 125.732 284.397 125.667C284.446 125.603 284.472 125.523 284.47 125.442C284.469 125.36 284.439 125.282 284.386 125.22C284.333 125.158 284.261 125.115 284.181 125.1ZM280.617 131.062C278.09 131.159 269.974 131.062 262.23 131.062C262.058 131.062 261.893 131.13 261.772 131.251C261.65 131.373 261.582 131.538 261.582 131.71C261.582 131.882 261.65 132.046 261.772 132.168C261.893 132.289 262.058 132.358 262.23 132.358C263.85 132.471 279.046 131.839 280.633 131.774C280.728 131.772 280.818 131.733 280.883 131.664C280.948 131.596 280.984 131.504 280.982 131.41C280.979 131.315 280.94 131.226 280.872 131.16C280.803 131.095 280.712 131.059 280.617 131.062ZM228.421 50.1102C226.522 50.5764 224.786 51.5489 223.397 52.9239C222.007 54.299 221.017 56.0252 220.531 57.9186C218.733 64.8036 224.97 72.3042 232.147 71.1054C233.715 70.7743 235.199 70.1264 236.509 69.2016C237.818 68.2768 238.924 67.0945 239.761 65.727C240.578 64.2178 241.042 62.5428 241.118 60.8282C241.193 59.1137 240.879 57.4042 240.198 55.8288C239.226 53.0424 236.343 48.5874 228.421 50.1102ZM232.341 63.7668C229.215 65.9214 225.553 62.001 226.995 59.5872C229.587 55.278 234.188 58.5342 234.301 60.1542C234.3 60.8735 234.118 61.5809 233.773 62.2119C233.427 62.8429 232.93 63.3775 232.325 63.7668H232.341ZM232.147 56.3958C231.053 56.0518 229.877 56.0798 228.801 56.4755C227.725 56.8712 226.811 57.6123 226.201 58.5828C225.703 59.4566 225.515 60.4733 225.668 61.4675C225.821 62.4617 226.306 63.3749 227.044 64.0584C227.632 64.6227 228.355 65.0268 229.143 65.2318C229.932 65.4369 230.76 65.4362 231.548 65.2298C232.337 65.0234 233.059 64.6181 233.646 64.0528C234.233 63.4875 234.665 62.7811 234.901 62.001C236.283 62.9078 237.83 63.5352 239.453 63.8478C238.879 65.2472 238 66.5004 236.878 67.5152C235.757 68.53 234.422 69.2808 232.973 69.7122C226.493 71.5914 220.726 65.7108 221.455 59.3604C221.668 57.8814 222.215 56.4703 223.054 55.2334C223.892 53.9966 225.001 52.9664 226.296 52.2207C227.591 51.4749 229.038 51.033 230.529 50.9284C232.019 50.8238 233.514 51.0592 234.901 51.6168C233.618 52.9725 232.669 54.6089 232.131 56.3958H232.147Z" fill="#4C2FB3"/>
<path d="M213.84 77.9257C217.792 77.7151 290.174 77.1643 295.455 75.5929C299.521 74.8477 300.915 72.9685 300.704 68.8699C300.704 67.5091 300.931 51.9085 300.51 49.1383C300.137 45.7201 298.306 44.1001 294.451 43.8895C291.211 43.5817 216.124 44.7481 212.576 45.5095C209.692 46.0765 207.716 47.1295 207.327 50.3695C207.149 51.3577 207.927 69.6475 208.024 71.4295C208.251 75.2851 210.178 77.5693 213.84 77.9257ZM220.158 76.8241C219.204 76.7091 218.287 76.3835 217.475 75.8707C216.662 75.358 215.974 74.671 215.46 73.8595C214.318 71.8928 213.73 69.6535 213.759 67.3795C213.58 64.6255 213.062 54.4195 212.997 51.9571C212.997 50.9527 212.997 47.6155 215.46 46.4167C219.267 46.0279 290.19 44.9749 293.22 45.0721C294.84 45.0721 297.027 45.2017 298.258 46.4491C300.072 48.2797 299.489 51.3091 299.602 68.7241C299.959 73.1629 298.274 74.1349 294.127 74.7343C290.401 75.3013 220.806 76.8241 220.19 76.8241H220.158ZM211.896 49.8997C211.685 51.3577 212.544 65.2897 212.625 67.1365C212.819 71.7211 214.131 74.9773 216.723 76.8565H215.103C211.15 76.8565 209.352 74.9611 209.174 70.9273C209.077 68.6269 208.332 51.4873 208.494 50.5153C208.834 47.5669 210.826 46.9189 213.467 46.5949C212.648 47.5265 212.114 48.6735 211.928 49.8997H211.896Z" fill="#4C2FB3"/>
<path d="M250.127 54.0954C250.727 54.0954 269.324 53.6256 269.162 53.6256C269.246 53.6079 269.321 53.562 269.375 53.4957C269.428 53.4293 269.458 53.3465 269.458 53.2611C269.458 53.1757 269.428 53.0929 269.375 53.0265C269.321 52.9602 269.246 52.9143 269.162 52.8966C267.785 52.8966 251.731 52.6212 250.095 52.8966C249.97 52.9418 249.863 53.0252 249.788 53.1349C249.713 53.2446 249.675 53.375 249.679 53.5077C249.682 53.6404 249.727 53.7686 249.808 53.8741C249.888 53.9796 250 54.057 250.127 54.0954ZM274.865 59.1822C272.532 59.409 249.107 58.6152 248.945 59.7978C248.945 60.0246 249.155 60.2028 249.317 60.2352C251.358 60.4782 274.784 59.976 274.946 59.9598C274.997 59.9545 275.046 59.9392 275.091 59.9147C275.137 59.8903 275.176 59.8572 275.209 59.8173C275.241 59.7774 275.265 59.7316 275.28 59.6824C275.295 59.6332 275.299 59.5816 275.294 59.5305C275.289 59.4794 275.273 59.4299 275.249 59.3848C275.224 59.3397 275.191 59.2998 275.151 59.2674C275.112 59.2351 275.066 59.2109 275.017 59.1963C274.967 59.1817 274.916 59.1769 274.865 59.1822ZM274.395 65.403C270.393 65.403 250.224 65.3058 249.171 65.484C249.068 65.5115 248.976 65.5724 248.911 65.6574C248.845 65.7424 248.81 65.8466 248.81 65.9538C248.81 66.061 248.845 66.1652 248.911 66.2502C248.976 66.3352 249.068 66.3961 249.171 66.4236C250.289 66.6018 272.759 66.0834 274.411 66.0348C274.482 66.0167 274.545 65.975 274.59 65.9164C274.634 65.8578 274.657 65.7859 274.655 65.7124C274.653 65.639 274.627 65.5683 274.579 65.5121C274.532 65.4558 274.467 65.4174 274.395 65.403ZM45.3593 169.18C56.3267 168.289 62.1425 154.163 53.6213 146.322C53.3135 146.047 53.8967 145.431 44.9219 158.407C34.0679 148.12 34.6511 148.509 34.4081 148.687C25.8221 157.16 34.3271 170.087 45.3593 169.18Z" fill="#4C2FB3"/>
<path d="M44.1606 153.094C44.4684 153.434 44.3226 153.482 51.6612 141.106C51.6788 141.078 51.6907 141.047 51.6962 141.015C51.7016 140.983 51.7005 140.95 51.693 140.918C51.6854 140.887 51.6715 140.857 51.6522 140.83C51.6328 140.804 51.6083 140.782 51.5802 140.765C48.9923 139.404 46.0273 138.934 43.1451 139.429C40.2629 139.924 37.6246 141.356 35.6394 143.503C35.445 143.746 35.1534 143.276 44.1606 153.094ZM27.2316 213.115C27.6471 213.112 28.0526 212.986 28.3969 212.754C28.7412 212.521 29.009 212.192 29.1666 211.808C29.3242 211.423 29.3645 211.001 29.2825 210.593C29.2006 210.186 28.9999 209.812 28.7058 209.518C29.5158 208.206 34.7646 199.571 36.3036 197.239C36.7025 197.423 37.1476 197.483 37.5811 197.411C38.0145 197.339 38.4162 197.138 38.7336 196.834L46.218 202.601C46.096 202.962 46.0742 203.349 46.1551 203.722C46.2359 204.094 46.4163 204.438 46.677 204.716C46.9377 204.994 47.269 205.196 47.6355 205.3C48.002 205.405 48.3901 205.408 48.7582 205.309C49.1264 205.211 49.4608 205.014 49.726 204.74C49.9911 204.467 50.177 204.126 50.2638 203.755C50.3506 203.384 50.3351 202.996 50.2188 202.633C50.1026 202.27 49.8901 201.945 49.6038 201.694L52.2606 198.194C52.7361 198.412 53.2752 198.446 53.7745 198.291C54.2738 198.135 54.6981 197.801 54.966 197.352L62.7096 199.976C62.6678 200.325 62.7137 200.678 62.8432 201.005C62.9726 201.331 63.1816 201.619 63.451 201.844C63.7204 202.069 64.0418 202.223 64.3858 202.292C64.7299 202.361 65.0858 202.343 65.4212 202.24C65.7566 202.137 66.0608 201.951 66.3062 201.7C66.5516 201.449 66.7304 201.141 66.8264 200.803C66.9223 200.466 66.9324 200.11 66.8557 199.767C66.7789 199.425 66.6179 199.107 66.387 198.842C67.035 196.526 72.6402 179.402 73.2072 177.782C73.7512 177.735 74.256 177.48 74.6166 177.07C76.1556 178.285 80.7726 181.735 82.263 182.74C82.1779 183.075 82.1766 183.426 82.2594 183.762C82.3422 184.098 82.5065 184.408 82.7377 184.666C82.9689 184.923 83.26 185.119 83.5852 185.238C83.9103 185.356 84.2596 185.392 84.6021 185.343C84.9446 185.294 85.2697 185.161 85.5488 184.957C85.8279 184.753 86.0523 184.482 86.2022 184.171C86.3521 183.859 86.4229 183.515 86.4084 183.169C86.3938 182.824 86.2943 182.487 86.1186 182.189C90.4278 175.32 90.6222 175.433 90.1686 175.126C90.0833 175.073 89.9814 175.053 89.8826 175.071C89.7838 175.089 89.6953 175.143 89.634 175.223C88.8726 176.324 85.2762 181.379 85.2762 181.379C84.893 181.19 84.4627 181.119 84.0391 181.174C83.6155 181.228 83.2175 181.407 82.8948 181.687C81.3882 180.634 76.6092 177.215 75.0864 176.033C75.1515 175.659 75.1143 175.275 74.9789 174.92C74.8434 174.566 74.6147 174.254 74.317 174.019C74.0192 173.784 73.6634 173.634 73.2872 173.584C72.9109 173.534 72.5283 173.587 72.1797 173.737C71.8311 173.887 71.5295 174.128 71.3067 174.435C71.0839 174.743 70.9483 175.104 70.9142 175.482C70.88 175.86 70.9486 176.24 71.1127 176.583C71.2768 176.925 71.5303 177.216 71.8464 177.426C70.4532 181.217 66.4032 194.339 65.3664 198.162C64.9771 198.062 64.5675 198.072 64.1839 198.192C63.8003 198.313 63.458 198.538 63.1956 198.842C61.5756 198.292 56.7156 196.817 55.2414 196.348C55.2414 195.793 55.0213 195.262 54.6293 194.87C54.2374 194.478 53.7059 194.258 53.1516 194.258C52.5974 194.258 52.0658 194.478 51.6739 194.87C51.282 195.262 51.0618 195.793 51.0618 196.348C51.0653 196.81 51.2188 197.259 51.4992 197.627L48.5994 201.24C48.3217 201.179 48.0343 201.177 47.7555 201.232C47.4767 201.288 47.2124 201.401 46.9794 201.564L39.252 195.716C39.3364 195.214 39.235 194.699 38.9668 194.267C38.6987 193.835 38.2822 193.516 37.7954 193.369C37.3086 193.222 36.7849 193.257 36.3224 193.469C35.8599 193.68 35.4904 194.053 35.283 194.517C35.1219 194.851 35.0563 195.223 35.0934 195.592C35.1306 195.961 35.2691 196.312 35.4936 196.607C33.9708 198.891 28.4466 207.72 27.6528 209C27.3621 208.927 27.059 208.917 26.7642 208.972C26.4694 209.026 26.1898 209.143 25.9443 209.315C25.6988 209.488 25.4932 209.71 25.3414 209.969C25.1897 210.228 25.0954 210.516 25.0648 210.814C25.0343 211.112 25.0683 211.413 25.1645 211.697C25.2607 211.981 25.4169 212.241 25.6224 212.459C25.828 212.678 26.0781 212.849 26.3557 212.962C26.6334 213.075 26.9321 213.127 27.2316 213.115ZM55.4196 218.849C55.2993 218.849 55.184 218.897 55.0989 218.982C55.0138 219.067 54.966 219.183 54.966 219.303C54.966 219.423 55.0138 219.539 55.0989 219.624C55.184 219.709 55.2993 219.757 55.4196 219.757C58.2546 219.757 91.5294 218.461 92.6796 218.444C92.7552 218.428 92.8228 218.386 92.8712 218.325C92.9196 218.265 92.946 218.19 92.946 218.112C92.946 218.035 92.9196 217.96 92.8712 217.9C92.8228 217.839 92.7552 217.797 92.6796 217.78C88.1598 217.796 58.3194 218.525 55.4196 218.849ZM69.6594 207.266C69.7626 207.266 69.8614 207.226 69.9344 207.153C70.0073 207.08 70.0482 206.981 70.0482 206.878C70.0482 206.775 70.0073 206.676 69.9344 206.603C69.8614 206.53 69.7626 206.489 69.6594 206.489C68.3796 206.489 63.7464 206.213 62.661 206.262C62.472 206.262 62.2907 206.337 62.157 206.471C62.0233 206.605 61.9482 206.786 61.9482 206.975C61.9482 207.164 62.0233 207.345 62.157 207.479C62.2907 207.613 62.472 207.688 62.661 207.688C63.7302 207.817 68.3148 207.38 69.6594 207.266ZM52.3416 209.34H45.3594C45.2084 209.347 45.0621 209.395 44.9359 209.478C44.8096 209.561 44.708 209.676 44.6417 209.812C44.5755 209.948 44.547 210.099 44.5592 210.25C44.5715 210.401 44.6241 210.545 44.7114 210.668C45.1488 211.316 45.489 210.814 52.374 210.231C52.4595 210.19 52.5311 210.125 52.5802 210.044C52.6292 209.963 52.6535 209.87 52.6501 209.775C52.6466 209.68 52.6156 209.589 52.5608 209.511C52.506 209.434 52.4298 209.375 52.3416 209.34ZM24.7206 217.991C25.0608 217.991 29.9856 217.456 31.071 217.408C31.1913 217.408 31.3067 217.36 31.3918 217.275C31.4768 217.19 31.5246 217.074 31.5246 216.954C31.5246 216.834 31.4768 216.718 31.3918 216.633C31.3067 216.548 31.1913 216.5 31.071 216.5C30.4392 216.5 24.9636 216.727 24.591 216.905C24.4921 216.965 24.4125 217.052 24.3618 217.156C24.311 217.259 24.2913 217.375 24.305 217.49C24.3187 217.605 24.3652 217.713 24.4389 217.802C24.5127 217.891 24.6105 217.956 24.7206 217.991Z" fill="#4C2FB3"/>
<path d="M81.8915 189.9H82.1507C89.0357 189.284 88.7927 189.754 89.0843 189.43C89.1381 189.367 89.1734 189.29 89.1863 189.207C89.1992 189.125 89.1892 189.041 89.1574 188.964C89.1256 188.887 89.0733 188.82 89.0061 188.771C88.9389 188.722 88.8594 188.692 88.7765 188.685C86.3627 188.685 84.0947 188.474 81.9239 188.572C81.0005 188.588 81.0815 189.9 81.8915 189.9ZM45.6683 175.757C45.4921 175.757 45.3232 175.827 45.1986 175.952C45.074 176.077 45.0041 176.245 45.0041 176.422C45.0041 176.598 45.074 176.767 45.1986 176.891C45.3232 177.016 45.4921 177.086 45.6683 177.086C47.9849 177.086 57.0083 176.26 59.1953 176.033C59.2989 176.013 59.3923 175.958 59.4595 175.876C59.5268 175.795 59.5635 175.693 59.5635 175.587C59.5635 175.482 59.5268 175.38 59.4595 175.298C59.3923 175.217 59.2989 175.162 59.1953 175.142C56.9435 175.32 47.9039 175.563 45.6683 175.757ZM44.5667 179.548C44.4364 179.581 44.3223 179.659 44.246 179.77C44.1697 179.88 44.1364 180.015 44.1523 180.148C44.1682 180.281 44.2323 180.404 44.3325 180.494C44.4326 180.583 44.562 180.633 44.6963 180.634C47.2559 180.634 57.2999 179.726 59.8271 179.71C59.9388 179.71 60.0459 179.666 60.1249 179.587C60.2039 179.508 60.2483 179.401 60.2483 179.289C60.2483 179.177 60.2039 179.07 60.1249 178.991C60.0459 178.912 59.9388 178.868 59.8271 178.868C54.7308 178.756 49.6327 178.983 44.5667 179.548ZM58.5311 182.14C54.2915 182.079 50.0518 182.247 45.8303 182.642C45.0527 182.74 45.0203 183.922 45.8303 183.922C47.2721 183.922 55.1453 183.112 58.5473 182.983C58.6026 182.982 58.6571 182.97 58.7078 182.947C58.7585 182.925 58.8044 182.893 58.8427 182.854C58.8811 182.814 58.9112 182.767 58.9314 182.715C58.9516 182.664 58.9614 182.609 58.9604 182.553C58.9593 182.498 58.9474 182.443 58.9252 182.393C58.9031 182.342 58.8711 182.296 58.8313 182.258C58.7914 182.22 58.7444 182.189 58.6929 182.169C58.6414 182.149 58.5864 182.139 58.5311 182.14ZM63.8609 147.245C64.6547 147.245 72.7385 146.403 74.3261 146.29C74.4378 146.29 74.5449 146.245 74.6239 146.166C74.7029 146.087 74.7473 145.98 74.7473 145.868C74.7473 145.757 74.7029 145.65 74.6239 145.571C74.5449 145.492 74.4378 145.447 74.3261 145.447C73.5323 145.447 64.8653 145.706 63.9095 145.771C62.9537 145.836 62.9537 147.245 63.8609 147.245ZM65.5295 150.518C68.0729 150.518 77.9873 149.578 80.4983 149.416C80.5898 149.398 80.6721 149.348 80.7313 149.276C80.7904 149.203 80.8227 149.113 80.8227 149.019C80.8227 148.926 80.7904 148.835 80.7313 148.763C80.6721 148.691 80.5898 148.641 80.4983 148.622C77.9711 148.736 67.9919 148.784 65.5133 149.044C65.3368 149.072 65.1763 149.162 65.0611 149.299C64.9458 149.436 64.8835 149.609 64.8855 149.788C64.8874 149.966 64.9536 150.138 65.0718 150.272C65.19 150.406 65.3524 150.494 65.5295 150.518Z" fill="#4C2FB3"/>
</svg>
