<svg width="461" height="461" viewBox="0 0 461 461" fill="none" xmlns="http://www.w3.org/2000/svg">
<path d="M163.125 345.98C166.968 344.62 170.904 343.541 174.904 342.753L175.388 344.528C175.442 344.737 175.57 344.92 175.747 345.043C175.925 345.166 176.141 345.22 176.356 345.197L192.191 343.353C196.548 333.418 204.546 318.367 204.661 318.136C204.546 314.379 204.661 311.221 204.661 307.625C195.603 310.991 178.845 317.375 170.086 321.455C169.888 321.583 169.735 321.769 169.648 321.988C169.562 322.207 169.545 322.448 169.602 322.677C169.602 322.677 169.764 323.253 169.971 324.083C165.684 324.083 152.845 323.461 149.756 326.388C149.276 327.057 149.04 327.871 149.088 328.693C148.903 331.874 150.494 356.583 153.029 363.844C154.343 367.647 157.109 367.233 158.999 363.591C161.187 358.106 162.591 352.341 163.171 346.464C163.171 346.165 163.102 346.188 163.125 345.98ZM160.474 325.351C163.287 325.12 164.162 325.166 170.202 324.982C171.285 329.085 173.521 337.521 174.673 341.831C170.606 342.461 166.592 343.394 162.664 344.62C161.44 338.263 160.708 331.821 160.474 325.351Z" fill="#6E44FF"/>
<path d="M106.86 234.349C106.985 234.116 107.041 233.852 107.021 233.588C107.021 229.923 101.766 189.24 99.8989 185.99C99.7525 185.75 99.5453 185.554 99.2984 185.42C99.0514 185.287 98.7735 185.221 98.4928 185.229C90.7711 184.284 25.6318 197.008 21.3445 199.981C20.7452 200.396 20.8374 201.434 20.9066 202.54C21.2754 208.602 27.8216 248.479 30.1266 248.248C30.3801 248.248 30.2879 248.064 29.6886 249.285C26.0928 256.684 19.27 280.38 19.4083 285.151C19.4083 287.157 19.8693 289.761 21.8516 289.623C36.0735 287.871 105.8 276.807 125.853 272.681C126.637 272.52 127.144 271.805 127.121 270.63C126.884 268.671 126.291 266.773 125.369 265.029C122.557 259.75 110.894 238.844 106.86 234.349ZM30.2649 247.534C28.467 245.229 21.8516 205.513 22.3587 201.111C27.4297 198.483 91.6931 186.059 98.4237 187.073C100.268 192.144 105.039 228.771 105.339 233.173C97.179 235.986 40.6835 245.113 30.2649 247.534ZM31.2791 248.225C33.2153 247.741 99.1613 236.7 105.2 235.11C108.497 238.175 123.387 264.66 124.355 266.919C111.124 269.224 32.639 282.339 21.091 284.091C21.2523 277.107 28.4209 252.697 31.2791 248.225Z" fill="#6E44FF"/>
<path d="M39.9458 272.128C41.9512 271.829 84.5015 266.712 99.8758 262.539C99.9706 262.515 100.052 262.454 100.101 262.37C100.151 262.285 100.165 262.185 100.141 262.09C100.116 261.995 100.055 261.914 99.9711 261.864C99.8868 261.815 99.7862 261.8 99.6914 261.825C96.6719 262.447 59.838 267.357 39.8997 271.414C39.8446 271.404 39.788 271.407 39.7342 271.422C39.6803 271.437 39.6306 271.464 39.5889 271.502C39.5471 271.539 39.5144 271.585 39.4932 271.637C39.472 271.689 39.4628 271.745 39.4664 271.8C39.47 271.856 39.4863 271.911 39.514 271.959C39.5417 272.008 39.5801 272.05 39.6263 272.081C39.6725 272.113 39.7252 272.133 39.7806 272.142C39.836 272.15 39.8925 272.145 39.9458 272.128ZM71.0403 111.746C70.1792 113.691 69.4552 115.694 68.8736 117.739C68.8393 118.068 68.9298 118.397 69.1271 118.661C71.4552 122.165 95.3119 149.064 101.535 152.845C102.388 153.375 103.402 153.743 104.025 152.983C108.546 147.357 114.446 142.998 121.151 140.328C126.608 138.398 132.33 137.317 138.116 137.124C142.726 136.71 143.533 136.249 145.307 133.229C147.401 129.255 150.179 125.681 153.513 122.672C157.765 118.955 162.484 115.809 167.551 113.314C167.779 113.185 167.957 112.983 168.057 112.741C168.157 112.498 168.174 112.229 168.104 111.977C167.325 109.994 166.294 108.119 165.038 106.399C165.868 106.122 166.79 105.869 166.79 105.039C166.79 102.734 146.69 73.6447 141.112 68.1588C140.536 67.5826 139.706 66.8219 138.946 66.868C127.421 67.5134 116.195 78.393 109.695 87.8896C102.25 87.613 97.4325 86.9446 88.9501 90.5173C82.9619 93.0592 77.5631 96.8101 73.0917 101.535C72.4002 102.25 67.698 107.229 67.6289 107.62C67.5597 108.012 67.698 108.012 71.0403 111.746ZM163.24 111.101C153.628 112.738 147.497 120.736 142.979 129.426C140.974 133.298 141.158 133.483 139.038 133.436C135.33 133.226 131.61 133.365 127.928 133.851C125.227 134.255 122.571 134.919 119.998 135.834C114.144 137.908 107.436 144.547 103.863 149.479C103.788 149.581 103.691 149.665 103.58 149.727C103.47 149.788 103.347 149.825 103.221 149.836C103.095 149.847 102.967 149.831 102.848 149.79C102.728 149.748 102.619 149.681 102.527 149.594C95.0353 141.873 81.7816 128.319 75.1201 120.528C74.7974 120.183 75.3506 119.676 75.6733 120.044C79.9837 124.654 91.1168 135.695 103.057 147.704C107.09 142.564 113.314 136.341 119.468 134.174C122.824 132.977 126.316 132.203 129.864 131.869C133.186 131.617 136.522 131.617 139.845 131.869C141.204 130.302 147.935 112.507 163.194 110.525C163.239 110.558 163.276 110.6 163.302 110.649C163.328 110.698 163.342 110.752 163.344 110.807C163.347 110.863 163.336 110.918 163.314 110.969C163.292 111.02 163.259 111.065 163.217 111.101H163.24ZM138.923 68.7351C143.533 71.9621 162.295 99.7373 164.739 104.601C160.499 105.944 156.406 107.713 152.522 109.879C148.844 111.723 145.624 114.364 143.096 117.61C140.568 120.856 138.795 124.625 137.908 128.642C129.633 115.181 118.085 100.36 110.41 89.457C110.871 89.1574 123.825 69.634 138.923 68.7351ZM89.4572 91.7851C97.8705 88.3967 102.527 89.1804 109.488 89.4801C116.403 101.282 128.827 117.924 137.009 128.826C129.457 127.039 121.51 128.132 114.72 131.892C110.64 134.197 105.661 139.729 102.596 143.164C98.1701 139.614 72.6307 112.415 68.5278 107.805C74.8435 100.659 80.6752 95.2887 89.4572 91.6929V91.7851ZM47.2757 150.401C46.706 150.001 46.0325 149.776 45.337 149.751C44.6414 149.726 43.9537 149.904 43.3572 150.263C42.9229 150.457 42.5309 150.734 42.2037 151.079C41.8766 151.424 41.6206 151.831 41.4504 152.275C41.2803 152.719 41.1993 153.192 41.212 153.668C41.2248 154.143 41.331 154.611 41.5248 155.046C41.7185 155.48 41.9959 155.872 42.3411 156.199C42.6863 156.526 43.0925 156.782 43.5367 156.953C43.9808 157.123 44.4541 157.204 44.9295 157.191C45.405 157.178 45.8733 157.072 46.3076 156.878C47.0015 156.727 47.6329 156.367 48.1181 155.849C48.6033 155.33 48.9193 154.676 49.0243 153.973C49.1293 153.271 49.0183 152.553 48.706 151.915C48.3938 151.277 47.8949 150.749 47.2757 150.401ZM45.7544 155.011C44.1409 155.518 43.1728 155.011 42.781 154.228C42.0434 152.591 42.9654 150.079 45.3626 150.816C47.0452 151.438 48.4052 154.274 45.7544 155.126V155.011ZM164.485 44.9244C165.153 46.2844 168.265 45.7773 169.625 45.3393C170.34 45.1088 170.801 44.8553 170.87 44.1638C171.077 42.435 171.308 27.4525 170.524 26.0004C170.443 25.8481 170.319 25.7231 170.167 25.6411C170.016 25.5591 169.843 25.5237 169.671 25.5394C167.212 25.5326 164.765 25.8899 162.41 26.5997C161.465 27.1759 163.655 43.4031 164.485 44.9244ZM162.895 27.1529C165.024 26.8483 167.177 26.7479 169.325 26.8532C169.464 28.5589 169.095 43.334 169.072 43.5645C168.098 43.9135 167.058 44.0395 166.029 43.9333C165.868 43.4031 165.591 41.974 165.246 40.1761C164.23 35.8801 163.445 31.5328 162.895 27.1529ZM45.0399 130.947C45.261 131.06 45.506 131.119 45.7544 131.119C46.0029 131.119 46.2478 131.06 46.469 130.947C47.3595 130.398 48.0658 129.595 48.4974 128.642C48.556 128.489 48.5741 128.324 48.5498 128.163C48.5256 128.001 48.4599 127.849 48.3591 127.72C47.2527 126.406 35.1745 112.415 33.6993 113.291C31.888 114.463 30.1696 115.773 28.5591 117.209C28.4942 117.267 28.4422 117.338 28.4065 117.418C28.3708 117.497 28.3521 117.583 28.3517 117.67C28.3056 118.869 41.7207 129.61 45.0399 130.947ZM33.9759 113.89C35.6585 115.112 41.3288 122.119 46.5842 128.319C46.3581 128.675 46.0782 128.994 45.7544 129.264C40.229 125.728 34.9535 121.816 29.9652 117.555C31.2157 116.242 32.5558 115.017 33.9759 113.89ZM70.1874 63.0417C70.6945 54.0983 75.9038 49.9493 81.3436 48.889C79.7993 54.5593 80.0528 61.9353 85.654 62.8804C88.3278 63.3183 89.6416 61.9353 91.5778 60.3218C99.8528 53.4068 93.1683 46.4918 83.833 46.9759C87.3136 37.4332 95.358 29.6653 106.03 29.4118C106.128 29.4118 106.222 29.3729 106.291 29.3038C106.36 29.2346 106.399 29.1408 106.399 29.043C106.399 28.9452 106.36 28.8514 106.291 28.7822C106.222 28.713 106.128 28.6742 106.03 28.6742C94.5052 28.4437 85.4465 36.7417 81.8738 47.1142C75.7194 48.1745 69.6112 52.7845 69.4498 62.9034C69.4407 62.9519 69.4413 63.0016 69.4514 63.0498C69.4616 63.098 69.4811 63.1438 69.5089 63.1845C69.5368 63.2251 69.5723 63.2599 69.6136 63.2868C69.6549 63.3138 69.701 63.3323 69.7495 63.3414C69.7979 63.3505 69.8477 63.3499 69.8959 63.3398C69.9441 63.3296 69.9898 63.3101 70.0305 63.2823C70.0712 63.2544 70.106 63.2189 70.1329 63.1776C70.1598 63.1363 70.1783 63.0902 70.1874 63.0417ZM83.3029 48.6124C86.7373 48.3819 91.8544 49.4422 93.2605 52.554C94.0672 54.3288 93.2605 56.5186 90.4023 58.9158C89.6263 59.6932 88.7411 60.3532 87.7746 60.875C84.3171 62.3502 80.4908 58.086 83.3029 48.6124ZM89.8952 374.609C87.6682 374.012 85.3445 373.867 83.0606 374.182C80.7768 374.497 78.579 375.265 76.5967 376.442C74.6143 377.619 72.8873 379.181 71.5175 381.035C70.1476 382.89 69.1625 384.999 68.62 387.24C67.5961 391.895 68.4633 396.766 71.031 400.782C73.5987 404.798 77.6565 407.629 82.3117 408.653C86.967 409.677 91.8383 408.81 95.8541 406.242C99.8699 403.675 102.701 399.617 103.725 394.962C104.163 392.716 104.151 390.407 103.692 388.166C103.232 385.925 102.334 383.797 101.048 381.905C99.7627 380.013 98.1153 378.394 96.2011 377.142C94.2869 375.89 92.1437 375.029 89.8952 374.609ZM97.0176 393.394C96.0928 397.083 93.8787 400.319 90.7757 402.517C87.6727 404.716 83.8855 405.731 80.0989 405.38C76.623 404.022 73.7373 401.482 71.9497 398.206C70.1621 394.93 69.5871 391.128 70.3257 387.47C71.1882 383.692 73.3817 380.351 76.5052 378.057C79.6287 375.763 83.4735 374.67 87.3366 374.977C90.8469 376.428 93.7331 379.07 95.487 382.438C97.241 385.807 97.7504 389.687 96.9254 393.394H97.0176Z" fill="#6E44FF"/>
</svg>
