<svg width="198" height="165" viewBox="0 0 198 165" fill="none" xmlns="http://www.w3.org/2000/svg">
<path d="M197.45 114.756C192.618 112.782 187.551 111.442 182.376 110.768C178.595 110.169 174.147 109.57 170.39 109.086C174.008 103.969 184.727 91.0145 186.525 87.8566C187.032 87.0038 186.064 85.8052 185.349 85.0907C181.338 80.8034 173.593 79.1898 167.647 78.2679C164.235 77.7147 149.99 75.9629 147.57 77.1154C144.666 78.4984 123.183 110.768 122.538 115.678C122.538 116.508 122.814 116.831 123.621 117.13C127.009 118.375 142.292 120.311 145.703 121.118C141.093 129.185 120.602 156.453 118.596 160.303C118.112 161.271 118.412 161.847 118.988 162.032C121.062 162.855 123.197 163.518 125.373 164.014C126.203 164.267 128.024 163.138 130.674 161.524C142.568 154.379 193.601 120.68 197.519 116.323C197.628 116.221 197.712 116.097 197.768 115.959C197.824 115.821 197.85 115.673 197.843 115.524C197.837 115.375 197.798 115.23 197.73 115.097C197.662 114.965 197.567 114.848 197.45 114.756ZM147.916 142.416C128.323 155.347 121.708 159.127 121.477 159.289C124.635 154.471 144.251 127.595 147.616 121.164C147.675 121.04 147.705 120.904 147.704 120.767C147.704 120.629 147.672 120.494 147.613 120.37C147.553 120.246 147.467 120.138 147.359 120.052C147.252 119.966 147.127 119.905 146.994 119.873C144.689 119.043 127.908 117.245 123.944 115.839C124.451 111.552 145.38 79.1438 147.916 77.853C150.451 76.5621 175.046 79.4895 179.656 82.7857C177.235 87.5109 163.866 104.061 161.7 107.91C161.262 108.694 161.123 109.454 161.976 109.662C162.829 109.869 184.496 112.405 189.221 113.949C183.459 118.767 154.37 138.083 147.916 142.324V142.416ZM0.0500006 1.48828C0.0500006 1.69573 0.18829 1.94928 0.53404 3.28618C0.624773 3.57619 0.824272 3.8198 1.09071 3.96591C1.35715 4.11202 1.66983 4.14928 1.96315 4.06988C2.25658 3.98429 2.50401 3.78565 2.65098 3.51764C2.79796 3.24963 2.83242 2.93422 2.74684 2.64078C2.51634 1.74183 2.30889 0.981177 2.17059 0.612377C2.03631 0.359266 1.81256 0.165249 1.54298 0.0681677C1.27341 -0.0289135 0.977346 -0.0220914 0.712522 0.0872922C0.447699 0.196676 0.233114 0.400783 0.110624 0.659805C-0.0118667 0.918827 -0.0334777 1.21419 0.0500006 1.48828Z" fill="#6E44FF"/>
</svg>
