<svg width="230" height="453" viewBox="0 0 230 453" fill="none" xmlns="http://www.w3.org/2000/svg">
<path d="M15.8892 71.7394C15.8594 71.5828 15.799 71.4336 15.7115 71.3003C15.624 71.167 15.511 71.0523 15.3791 70.9626C15.2472 70.8729 15.0989 70.81 14.9427 70.7776C14.7864 70.7451 14.6254 70.7438 14.4686 70.7735C14.3118 70.8033 14.1624 70.8636 14.029 70.951C13.8956 71.0384 13.7807 71.1512 13.6909 71.283C13.6011 71.4147 13.5382 71.5629 13.5057 71.7189C13.4732 71.875 13.4719 72.0359 13.5017 72.1925C13.9792 74.5774 14.0747 75.1259 15.1252 75.1259C15.3237 75.1266 15.5193 75.0778 15.6942 74.9839C15.8692 74.8901 16.0179 74.7541 16.1269 74.5883C16.236 74.4226 16.3019 74.2322 16.3188 74.0346C16.3356 73.837 16.3028 73.6383 16.2234 73.4565C16.1518 73.0749 15.9369 71.954 15.8892 71.7394ZM23.1949 87.5272C24.7468 87.9804 26.2271 87.241 26.1793 86.8595C26.1315 86.4779 26.1793 86.6687 24.0783 85.8817C22.6697 85.357 21.1178 83.4968 20.5687 83.783C20.0195 84.0692 20.8552 85.5955 21.0462 85.8817C21.557 86.6558 22.3139 87.2355 23.1949 87.5272ZM66.8624 64.871C63.7348 77.9639 61.4428 89.0774 61.0608 91.2953C60.8071 92.2603 60.7583 93.2676 60.9175 94.2526C62.1829 96.9475 78.5373 102.266 80.6145 101.216C82.6916 100.167 88.0873 88.028 94.3665 75.5075C98.2131 75.6302 102.062 75.3505 105.85 74.6728C109.839 73.9418 113.721 72.716 117.406 71.0239C125.476 67.3035 134.309 51.3726 135.503 43.3594C136.398 34.6595 134.554 25.8974 130.227 18.2944C110.196 -16.4054 51.4391 2.26812 56.2141 40.8076C57.5777 49.6262 61.2513 57.9278 66.8624 64.871ZM81.4262 93.2748C81.4262 93.6563 80.9964 93.6087 79.0387 93.2748C75.0343 92.7721 71.1572 91.5351 67.6025 89.6259C65.9313 88.7197 65.4777 88.5289 65.6448 88.1234C65.8119 87.718 66.17 87.8611 68.7486 88.5766C68.9873 88.5766 76.3886 90.9614 78.5134 91.7007C81.2591 92.9409 81.4262 92.9409 81.4262 93.2748ZM80.9964 54.4729C83.546 54.605 86.0866 54.0794 88.3739 52.9466C90.4997 53.9754 92.7994 54.5982 95.1543 54.783C91.1433 62.2476 83.0019 77.4631 80.3757 85.5716L70.2527 82.7813C72.6402 76.9146 77.9166 63.1777 80.9487 54.4729H80.9964ZM80.1608 52.4935C78.3786 52.2245 76.7339 51.379 75.479 50.0867C74.224 48.7943 73.4281 47.1265 73.2132 45.3389C72.5447 40.5691 75.6007 35.227 80.2086 36.491C83.0975 37.278 83.4556 39.5675 82.9542 42.4532C82.5245 44.5519 80.9726 49.8224 80.1131 52.3981L80.1608 52.4935ZM86.6548 46.7698C86.9098 45.2092 87.4959 43.7212 88.3739 42.4055C88.7916 41.6882 89.4023 41.1024 90.1366 40.7146C90.871 40.3267 91.6995 40.1524 92.5281 40.2114C94.2948 40.7361 95.0589 44.0749 93.6025 46.1736C92.2028 48.029 90.4604 49.5995 88.4693 50.8002C87.7842 50.3986 87.2386 49.7971 86.9057 49.0766C86.5728 48.3562 86.4686 47.5512 86.6071 46.7698H86.6548ZM64.7137 16.4581C75.4097 3.60365 95.5363 -1.49998 110.076 3.79444C117.975 6.50279 124.619 11.9866 128.77 19.2245C132.887 26.4592 134.647 34.7941 133.808 43.0732C132.71 50.4902 124.258 65.8965 116.833 69.3068C110.044 72.4 102.637 73.901 95.1782 73.695C94.3665 73.695 93.507 73.695 93.1966 74.2673C91.7879 77.1292 89.2094 82.6621 86.6787 87.8611C84.9311 87.0182 83.1188 86.3164 81.2591 85.7624C84.0286 77.8447 92.7669 62.2953 96.9211 54.7591C100.521 55.0671 104.139 54.4429 107.426 52.9466C108.314 52.4796 109.051 51.7692 109.549 50.8988C110.047 50.0284 110.286 49.0341 110.239 48.0326C110.191 47.0312 109.859 46.064 109.28 45.2447C108.701 44.4254 107.901 43.7879 106.972 43.4071C103.272 41.5946 99.9532 45.9351 98.0194 49.5839C97.4941 50.5379 96.8972 51.6588 96.2287 52.9228C94.2976 52.796 92.3934 52.4027 90.5704 51.7542C92.3861 50.4796 93.9963 48.9354 95.3454 47.1752C96.1013 46.035 96.4843 44.6884 96.4415 43.3215C96.3988 41.9545 95.9323 40.6345 95.1066 39.5436C94.458 38.7912 93.557 38.301 92.5724 38.1649C91.5878 38.0288 90.5873 38.2561 89.7586 38.8043C88.0866 39.8306 86.7466 41.3171 85.8996 43.0854C85.0526 44.8537 84.7345 46.8286 84.9836 48.7731C85.2431 49.8707 85.835 50.8616 86.6787 51.6111C85.1126 52.259 83.4315 52.5835 81.7366 52.565C82.6916 49.7509 84.2435 44.6711 84.6493 42.5963C84.9039 41.4134 84.9604 40.1965 84.8165 38.9951C84.6317 37.9638 84.1526 37.0077 83.4368 36.2419C82.721 35.4762 81.799 34.9332 80.7816 34.6785C74.9799 33.0329 70.7063 39.4482 71.5419 45.4343C71.7779 47.5794 72.6996 49.5915 74.1704 51.1723C75.6411 52.7532 77.5827 53.8185 79.7072 54.2106C76.6512 62.7961 71.8762 76.6522 69.4887 82.5667L64.2362 81.2073C67.6025 64.3224 68.0084 64.7279 67.5309 64.5132C62.1061 57.6043 58.6351 49.3688 57.4795 40.6645C56.9168 36.3485 57.2701 31.9625 58.5165 27.7919C59.7628 23.6213 61.8744 19.7596 64.7137 16.4581ZM97.8522 53.0659C99.5235 50.0371 102.866 43.4071 106.113 45.0288C106.762 45.2902 107.328 45.7238 107.749 46.2828C108.17 46.8418 108.429 47.505 108.5 48.2007C108.453 52.3981 101.911 53.1374 97.7567 53.0659H97.8522ZM189.246 63.5831C192.123 61.8929 195.521 61.3159 198.796 61.9614C202.393 62.0257 205.829 63.4624 208.4 65.9768C210.97 68.4911 212.48 71.8926 212.62 75.4836C210.457 74.2299 207.927 73.7583 205.457 74.1481C199.464 74.6728 191.633 77.9162 192.684 83.6876C193.543 88.4573 199.846 87.8134 204.621 86.5256C209.396 85.2378 213.193 82.9006 214.172 78.2978C219.973 82.519 221.334 89.9121 221.573 97.1383C221.573 97.2395 221.613 97.3365 221.685 97.4081C221.756 97.4796 221.853 97.5198 221.955 97.5198C222.056 97.5198 222.153 97.4796 222.225 97.4081C222.297 97.3365 222.337 97.2395 222.337 97.1383C222.504 89.0535 221.048 81.1358 214.434 76.533C214.502 74.4624 214.149 72.3995 213.396 70.4693C212.642 68.5391 211.505 66.7817 210.051 65.3034C208.598 63.8252 206.86 62.6569 204.942 61.8693C203.024 61.0817 200.965 60.6911 198.891 60.7213C195.577 60.2378 192.198 60.9298 189.341 62.6769C188.458 63.1062 188.864 63.7501 189.246 63.5831ZM211.02 80.6826C208.322 84.2123 200.682 86.0486 197.149 85.4524C195.835 85.2378 194.761 84.6892 194.475 83.3299C193.615 78.5601 201.852 75.9606 206.77 75.7937C208.773 75.6403 210.77 76.1517 212.453 77.2484C212.272 78.4953 211.779 79.6765 211.02 80.6826ZM178.311 35.704C180.866 32.556 179.147 27.0708 172.008 27.0469C169.239 27.0469 167.902 29.8611 168.093 32.556C168.522 38.9713 175.757 38.7805 178.311 35.704ZM169.764 32.4367C169.764 30.8627 170.504 28.8117 172.151 28.8356C175.995 28.8356 177.762 30.6242 177.762 32.6037C177.667 37.1111 169.454 39.4482 169.764 32.4367ZM168.785 302.809C147.799 294.439 138.058 334.957 120.916 369.777C120.807 371.24 120.855 372.711 121.059 374.165C121.059 377.814 121.465 401.972 123.59 404.715C124.163 405.812 126.574 404.715 127.696 404.023C137.226 398.13 146.208 391.393 154.532 383.895C154.603 383.814 154.656 383.719 154.689 383.617C154.722 383.514 154.733 383.406 154.723 383.299C159.163 376.979 175.804 344.068 179.839 327.564C182.656 315.879 179.863 307.174 168.785 302.809ZM176.282 333.097C165.047 331.659 154.184 328.115 144.265 322.652C149.852 312.087 156.752 300.043 168.14 304.574C180.818 309.606 180.555 320.028 176.282 333.026V333.097ZM136.554 395.104C135.821 394.49 135.02 393.962 134.166 393.53C130.94 391.891 127.212 391.534 123.733 392.528C123.494 389.69 122.133 371.231 122.133 371.064C140.016 377.599 134.5 374.761 152.216 383.561C150.353 385.326 143.358 390.215 136.554 395.056V395.104ZM148.873 326.086C151.202 327.357 153.592 328.511 156.036 329.544C150.563 338.13 145.728 347.106 141.567 356.397C137.556 364.768 137.7 364.721 133.617 373.855C131.23 373.092 128.842 372.376 126.455 371.661C129.033 366.533 147.369 329.043 148.873 326.038V326.086ZM134.548 374.093C142.308 360.189 150.21 342.899 156.991 329.854C159.378 330.855 161.766 331.666 164.153 332.382C162.888 334.767 159.187 341.11 158.208 342.947C157.229 344.783 147.417 364.101 146.724 365.579C145.626 367.964 142.618 374.618 141.687 376.74C139.252 375.667 136.912 374.856 134.453 374.045L134.548 374.093ZM142.546 377.05C144.003 374.403 149.995 363.29 150.735 361.859C151.858 359.641 164.368 334.099 165.061 332.62C167.257 333.24 169.573 333.765 171.053 334.051C166.684 345.976 154.102 368.942 149.566 380.27C145.435 378.338 144.504 377.861 142.451 377.003L142.546 377.05ZM144.003 323.343L148.276 325.728C139.664 340.378 132.162 355.652 125.834 371.422L122.253 370.325C136.124 340.8 136.769 336.937 143.907 323.295L144.003 323.343ZM153.839 382.345L150.234 380.628C154.126 372.996 166.302 353.416 171.865 334.218C173.202 334.457 174.515 334.671 175.78 334.838C169.645 351.191 162.278 367.056 153.744 382.297L153.839 382.345ZM79.0387 397.823C79.9903 397.036 80.6705 395.97 80.9832 394.776C81.296 393.582 81.2254 392.321 80.7816 391.169C80.579 389.507 79.8162 387.964 78.6185 386.793C77.4209 385.622 75.8598 384.893 74.1923 384.727C72.5248 384.56 70.8503 384.966 69.4442 385.877C68.0382 386.787 66.9845 388.149 66.4565 389.738C63.4005 387.759 60.0819 385.66 56.9065 383.656C59.294 380.485 66.3133 381.892 67.0295 384.491C67.0454 384.592 67.1008 384.683 67.1836 384.744C67.2664 384.804 67.3699 384.829 67.4712 384.813C67.5725 384.797 67.6634 384.742 67.7239 384.659C67.7843 384.577 67.8094 384.473 67.7935 384.372C67.4354 380.222 58.7926 377.79 55.3069 382.679C52.227 380.795 48.407 378.505 45.2077 376.764C47.9534 374.379 54.0893 375.715 54.7578 378.195C54.7892 378.28 54.8497 378.351 54.9286 378.395C55.0076 378.44 55.0997 378.455 55.1886 378.437C55.2775 378.42 55.3574 378.372 55.4141 378.301C55.4707 378.231 55.5004 378.143 55.4979 378.052C55.1875 374.189 47.1894 371.589 43.5603 375.834C42.0398 374.983 40.4408 374.28 38.7853 373.735C38.4829 373.61 38.1506 373.575 37.8286 373.634C37.5066 373.693 37.2087 373.845 36.9708 374.069C30.9304 381.582 10.565 401.09 1.15824 403.356C0.921755 403.391 0.698834 403.488 0.511923 403.637C0.325012 403.786 0.180719 403.982 0.0935726 404.204C0.00642621 404.427 -0.0204955 404.668 0.0155239 404.905C0.0515432 405.141 0.149214 405.363 0.298727 405.55C2.36435 407.644 4.72992 409.42 7.318 410.82C4.93049 413.205 3.06825 415.351 1.68349 416.902C0.967241 417.665 0.585248 432.26 1.206 435.48C1.29844 435.795 1.50198 436.066 1.779 436.243C4.78726 438.294 43.5365 455.036 47.4997 452.794C50.1499 451.291 81.7843 418.404 82.2857 417.402C83.0497 415.828 82.7871 405.335 82.7393 401.138C82.5483 399.874 80.1847 398.514 79.0387 397.823ZM2.63849 429.327V424.009C12.5466 428.778 35.228 438.509 43.823 441.227C46.0195 441.943 46.2105 441.847 47.3565 441.227C53.9221 437.03 77.1048 410.939 81.3546 406.957V411.989C68.462 424.891 46.5686 447.5 46.1627 446.212C43.7991 446.069 4.69175 430.281 2.63849 429.327ZM78.4418 389.786C79.3001 391.23 79.7614 392.876 79.7788 394.555C79.7705 395.09 79.6392 395.615 79.3949 396.091C79.1506 396.566 78.8 396.979 78.3702 397.298C76.3647 395.962 72.5685 393.482 68.08 390.573C70.5392 385.731 76.0065 385.66 78.3463 389.786H78.4418ZM2.04162 405.049C12.2124 402.044 31.5273 383.442 38.0213 375.381C39.5843 375.816 41.0908 376.432 42.5098 377.217C40.1223 381.653 42.677 386.518 43.5842 385.827C44.0856 385.445 43.1783 385.302 43.0351 382.965C42.9741 381.258 43.361 379.564 44.1572 378.052C47.452 379.769 51.3198 382.011 54.5906 383.895C52.5851 388.355 54.9965 392.767 55.8321 392.123C56.6677 391.479 55.4501 391.622 55.3069 389.285C55.2486 387.752 55.5426 386.227 56.1664 384.825C59.5328 386.805 62.9708 388.856 66.1223 390.787C65.6366 391.976 65.4439 393.263 65.5602 394.541C65.6765 395.82 66.0986 397.051 66.7908 398.133C66.8221 398.173 66.8612 398.208 66.9058 398.233C66.9503 398.259 66.9995 398.275 67.0505 398.282C67.1015 398.289 67.1533 398.285 67.203 398.272C67.2526 398.259 67.2992 398.236 67.3399 398.204C67.3807 398.173 67.4148 398.134 67.4405 398.089C67.4662 398.045 67.4828 397.996 67.4895 397.945C67.4961 397.894 67.4926 397.842 67.4793 397.793C67.4659 397.743 67.4429 397.696 67.4115 397.656C66.9825 396.708 66.7706 395.677 66.7912 394.637C66.8119 393.598 67.0646 392.576 67.5309 391.646C73.0938 395.032 77.5823 397.87 78.9671 398.8C78.7044 399.039 53.8027 421.171 45.3271 427.753C39.7642 426.298 10.565 411.822 2.04162 405.049ZM2.94886 418.333C13.7643 423.102 38.3317 434.168 43.9901 435.241C44.969 435.432 45.351 435.504 47.2132 434.025C55.1636 427.657 81.0203 400.637 81.2591 400.923C81.2707 400.994 81.2707 401.067 81.2591 401.138V405.907C75.9349 410.176 46.3299 441.227 45.8524 439.749C43.4648 439.749 4.66787 423.937 2.68624 423.055C2.63849 422.053 2.85336 419.382 2.94886 418.333ZM46.4254 451.196C44.0378 452.555 7.67614 437.793 2.80562 434.788C2.62273 433.269 2.53501 431.739 2.54299 430.209C13.0003 435.36 43.4171 448.191 46.2105 448.072C50.2931 447.857 79.1581 415.399 81.2113 413.134C81.235 414.352 81.1148 415.568 80.8532 416.759C80.4473 417.546 48.0011 450.314 46.4254 451.196ZM212.405 268.944C212.249 268.953 212.096 268.993 211.956 269.062C211.816 269.131 211.691 269.227 211.589 269.345C211.486 269.463 211.409 269.6 211.36 269.748C211.312 269.896 211.293 270.053 211.306 270.208C211.45 272.402 211.593 274.763 211.593 277.053C211.593 277.369 211.719 277.672 211.943 277.896C212.167 278.12 212.47 278.245 212.787 278.245C213.103 278.245 213.407 278.12 213.631 277.896C213.855 277.672 213.981 277.369 213.981 277.053C213.981 274.668 213.837 272.283 213.67 270.041C213.661 269.886 213.621 269.733 213.552 269.593C213.483 269.453 213.387 269.329 213.269 269.226C213.151 269.124 213.014 269.046 212.865 268.998C212.717 268.95 212.56 268.931 212.405 268.944ZM205.003 261.885C202.138 261.885 199.727 262.052 197.316 262.076C196.999 262.076 196.695 262.201 196.472 262.425C196.248 262.649 196.122 262.952 196.122 263.268C196.122 263.585 196.248 263.888 196.472 264.111C196.695 264.335 196.999 264.461 197.316 264.461C199.894 264.461 202.568 264.461 205.147 264.27C205.463 264.251 205.759 264.107 205.97 263.87C206.18 263.633 206.288 263.322 206.269 263.006C206.25 262.69 206.106 262.394 205.869 262.184C205.631 261.974 205.32 261.866 205.003 261.885ZM213.336 256.376C213.336 253.991 213.193 251.606 213.026 249.365C213.003 249.048 212.856 248.754 212.617 248.546C212.377 248.338 212.065 248.233 211.748 248.256C211.432 248.278 211.137 248.425 210.929 248.664C210.72 248.903 210.616 249.215 210.638 249.531C210.781 251.726 210.925 254.087 210.925 256.376C210.925 256.692 211.05 256.996 211.274 257.219C211.498 257.443 211.802 257.568 212.118 257.568C212.437 257.569 212.743 257.444 212.971 257.221C213.199 256.998 213.33 256.694 213.336 256.376ZM228.162 261.575C225.775 261.694 223.125 261.766 220.475 261.766C220.317 261.759 220.16 261.785 220.012 261.841C219.865 261.897 219.73 261.982 219.616 262.091C219.503 262.2 219.412 262.331 219.35 262.476C219.289 262.621 219.257 262.777 219.257 262.934C219.257 263.253 219.382 263.559 219.605 263.786C219.828 264.014 220.132 264.144 220.451 264.151C223.172 264.151 225.369 264.151 228.258 263.96C228.415 263.954 228.569 263.917 228.711 263.851C228.854 263.785 228.982 263.692 229.088 263.577C229.195 263.462 229.277 263.327 229.331 263.18C229.386 263.033 229.41 262.876 229.404 262.72C229.374 262.41 229.231 262.121 229.002 261.91C228.773 261.699 228.474 261.58 228.162 261.575Z" fill="#6E44FF"/>
</svg>
