<svg width="146" height="182" viewBox="0 0 146 182" fill="none" xmlns="http://www.w3.org/2000/svg">
<rect x="0.5" y="0.5" width="145" height="181" rx="7.5" stroke="#9E300F"/>
<path d="M81.2413 30.0888L96.8925 31.6948C96.9666 31.7012 97.0403 31.6791 97.0986 31.6329C97.157 31.5868 97.1955 31.5202 97.2064 31.4466L97.3232 30.6217C97.3336 30.5472 97.3141 30.4716 97.269 30.4114C97.2239 30.3512 97.1567 30.3114 97.0823 30.3005L81.3727 28.7675C81.3353 28.7635 81.2974 28.7669 81.2613 28.7776C81.2252 28.7883 81.1916 28.806 81.1624 28.8298C81.1332 28.8535 81.109 28.8828 81.0913 28.916C81.0735 28.9492 81.0624 28.9855 81.0588 29.023L80.9858 29.753C80.9785 29.7921 80.9795 29.8322 80.9887 29.8709C80.9979 29.9096 81.015 29.9459 81.0391 29.9775C81.0632 30.0092 81.0936 30.0354 81.1284 30.0546C81.1632 30.0737 81.2017 30.0854 81.2413 30.0888ZM79.2192 40.8344L96.6297 42.7543C96.7019 42.7629 96.7747 42.7434 96.8331 42.7C96.8915 42.6565 96.931 42.5924 96.9436 42.5207L97.1042 41.6666C97.117 41.5912 97.0997 41.5138 97.056 41.451C97.0123 41.3882 96.9457 41.345 96.8706 41.3308L79.3506 39.5058C79.3132 39.5018 79.2753 39.5052 79.2392 39.5159C79.2031 39.5266 79.1695 39.5443 79.1403 39.5681C79.1111 39.5918 79.0869 39.6211 79.0691 39.6543C79.0514 39.6875 79.0403 39.7238 79.0367 39.7613L78.9564 40.4913C78.9502 40.5312 78.9522 40.5719 78.9622 40.6111C78.9722 40.6502 78.99 40.6869 79.0146 40.7189C79.0391 40.751 79.0699 40.7777 79.1051 40.7976C79.1402 40.8174 79.179 40.83 79.2192 40.8344ZM78.9564 43.112L90.5707 44.3676C90.6437 44.3742 90.7165 44.3531 90.7747 44.3084C90.8328 44.2638 90.872 44.1989 90.8846 44.1267L91.0087 43.3967C91.0215 43.3213 91.0042 43.2439 90.9605 43.1811C90.9168 43.1183 90.8502 43.0751 90.7751 43.0609L79.0951 41.798C79.0577 41.794 79.0198 41.7974 78.9837 41.8081C78.9476 41.8188 78.914 41.8365 78.8848 41.8603C78.8556 41.884 78.8314 41.9133 78.8137 41.9465C78.7959 41.9797 78.7848 42.016 78.7812 42.0535L78.7009 42.7835C78.6947 42.822 78.6965 42.8614 78.7062 42.8992C78.716 42.937 78.7333 42.9724 78.7573 43.0032C78.7812 43.0341 78.8113 43.0596 78.8455 43.0783C78.8798 43.097 78.9175 43.1085 78.9564 43.112ZM77.7957 49.39L95.1843 51.3099C95.2595 51.3161 95.3342 51.293 95.3927 51.2454C95.4512 51.1977 95.489 51.1293 95.4982 51.0544L95.5639 50.1565C95.57 50.0821 95.5466 50.0083 95.4988 49.9509C95.4511 49.8936 95.3827 49.8573 95.3084 49.8499L77.9344 48.0614C77.8968 48.0563 77.8586 48.059 77.822 48.0693C77.7855 48.0796 77.7515 48.0972 77.7221 48.1212C77.6927 48.1451 77.6685 48.1748 77.651 48.2085C77.6335 48.2422 77.6231 48.2791 77.6205 48.3169L77.5402 49.0469C77.534 49.0863 77.5357 49.1265 77.5453 49.1651C77.5548 49.2038 77.572 49.2402 77.5958 49.2722C77.6196 49.3041 77.6495 49.331 77.6839 49.3512C77.7182 49.3715 77.7562 49.3847 77.7957 49.39ZM89.337 51.58L77.657 50.3244C77.6196 50.3204 77.5817 50.3238 77.5456 50.3345C77.5095 50.3452 77.4759 50.3629 77.4467 50.3867C77.4175 50.4104 77.3933 50.4397 77.3755 50.4729C77.3578 50.5061 77.3467 50.5424 77.3431 50.5799L77.2701 51.3099C77.265 51.3475 77.2677 51.3857 77.278 51.4222C77.2882 51.4588 77.3059 51.4928 77.3298 51.5222C77.3538 51.5516 77.3835 51.5758 77.4172 51.5933C77.4508 51.6108 77.4877 51.6212 77.5256 51.6238L89.1326 52.8721C89.2048 52.8807 89.2776 52.8612 89.336 52.8178C89.3944 52.7743 89.4339 52.7102 89.4465 52.6385L89.5706 51.9085C89.5769 51.8716 89.5758 51.8338 89.5674 51.7973C89.5591 51.7608 89.5436 51.7263 89.5219 51.6958C89.5002 51.6653 89.4727 51.6393 89.441 51.6195C89.4093 51.5996 89.3739 51.5862 89.337 51.58ZM80.9128 32.6803L93.0527 34.06C93.1253 34.0705 93.199 34.0517 93.2578 34.008C93.3167 33.9642 93.3558 33.8989 93.3666 33.8264L93.5272 32.9358C93.5402 32.8614 93.5239 32.7849 93.4817 32.7223C93.4395 32.6597 93.3747 32.6159 93.3009 32.6L81.0734 31.286C81.036 31.282 80.9981 31.2854 80.962 31.2961C80.9259 31.3068 80.8923 31.3245 80.8631 31.3483C80.8339 31.372 80.8097 31.4013 80.7919 31.4345C80.7742 31.4677 80.7631 31.504 80.7595 31.5415L80.6573 32.3591C80.649 32.4355 80.6713 32.512 80.7191 32.5722C80.7669 32.6323 80.8365 32.6711 80.9128 32.6803Z" fill="#9E300F"/>
<path d="M75.5827 57.1937C75.663 58.807 75.8893 62.8439 77.4661 62.8439C79.0429 62.8439 81.8461 59.0698 82.525 58.1646C85.9939 58.6565 89.5033 58.7983 93.0005 58.588C96.5483 58.2741 98.5632 57.0185 99.5341 54.5146C100.943 51.0617 102.731 37.1333 101.826 31.0086C101.352 27.8039 99.8626 26.1541 96.7163 25.3146C88.4381 23.1246 75.2688 22.9494 73.2029 23.1246C69.9398 23.3874 67.8082 24.1174 66.5745 27.0374C64.8225 31.2276 63.7202 40.4986 63.7932 46.5284C63.837 48.8206 63.8808 51.4194 65.3043 53.3174C67.0563 55.6461 70.991 56.4564 75.5827 57.1937ZM64.4283 46.47C64.3772 40.5424 65.4576 31.213 67.0855 27.3075C68.2243 24.57 70.3705 23.8546 73.254 23.6575C78.51 23.2998 90.7156 24.351 96.5264 25.9278C99.4464 26.7235 100.753 28.1762 101.177 31.1108C102.023 36.9508 100.249 51.0252 98.9866 54.3029C98.1398 56.5951 96.3439 57.7193 92.9786 58.0697C89.4684 58.2971 85.9441 58.1699 82.4593 57.6901C82.3946 57.6849 82.3296 57.6954 82.2698 57.7209C82.2101 57.7463 82.1574 57.7858 82.1162 57.8361C81.4519 58.6683 78.5246 62.3329 77.4734 62.2161C76.8383 62.1577 76.3711 60.2086 76.2105 57.0039C76.2098 56.9463 76.1889 56.8907 76.1516 56.8467C76.1143 56.8028 76.0629 56.7732 76.0061 56.763C68.8083 55.5147 66.9833 54.5292 65.7861 52.9159C64.5013 51.1858 64.4648 48.66 64.4283 46.47ZM62.4135 85.3425C63.6453 85.4746 64.8888 85.2419 65.9895 84.6732C67.0901 84.1046 67.9994 83.2251 68.6044 82.144C69.2094 81.0629 69.4834 79.8278 69.3924 78.5923C69.3014 77.3568 68.8494 76.1752 68.0925 75.1945C67.3356 74.2137 66.3072 73.4769 65.1351 73.0757C63.963 72.6745 62.6989 72.6264 61.4997 72.9376C60.3006 73.2488 59.2193 73.9055 58.3902 74.826C57.5611 75.7466 57.0208 76.8904 56.8363 78.1155C56.7278 78.9563 56.7859 79.8102 57.0075 80.6285C57.229 81.4468 57.6097 82.2134 58.1276 82.8845C58.6455 83.5557 59.2906 84.1182 60.026 84.5399C60.7614 84.9617 61.5727 85.2344 62.4135 85.3425Z" fill="#9E300F"/>
<path d="M72.5835 35.9726C71.7677 35.9726 70.9703 36.2145 70.292 36.6677C69.6138 37.1209 69.0851 37.7651 68.7729 38.5187C68.4608 39.2724 68.3791 40.1017 68.5382 40.9018C68.6974 41.7018 69.0902 42.4367 69.667 43.0136C70.2438 43.5904 70.9788 43.9832 71.7788 44.1423C72.5789 44.3015 73.4082 44.2198 74.1619 43.9076C74.9155 43.5955 75.5597 43.0668 76.0129 42.3886C76.4661 41.7103 76.708 40.9129 76.708 40.0971C76.708 39.0032 76.2734 37.9541 75.4999 37.1806C74.7265 36.4071 73.6774 35.9726 72.5835 35.9726ZM72.8244 42.4331C72.6807 42.2948 72.4952 42.2083 72.2969 42.1871C72.0986 42.166 71.899 42.2114 71.7294 42.3163C71.6456 42.3787 71.5408 42.406 71.4372 42.3924C71.3336 42.3787 71.2394 42.3253 71.1746 42.2433C70.6563 41.5717 72.5543 40.8855 73.4157 41.9075C73.4502 41.9463 73.4767 41.9916 73.4938 42.0406C73.5108 42.0897 73.518 42.1417 73.5149 42.1935C73.5119 42.2454 73.4986 42.2961 73.476 42.3429C73.4533 42.3896 73.4217 42.4314 73.3828 42.466C73.344 42.5005 73.2988 42.527 73.2497 42.544C73.2006 42.561 73.1487 42.5682 73.0968 42.5652C73.0449 42.5621 72.9942 42.5489 72.9475 42.5262C72.9007 42.5036 72.8589 42.4719 72.8244 42.4331ZM73.9194 41.0169C73.523 40.6737 73.0322 40.458 72.5112 40.3981C71.9903 40.3382 71.4634 40.4368 70.9994 40.6811C70.9515 40.7051 70.8993 40.7194 70.8458 40.7232C70.7924 40.727 70.7387 40.7202 70.6878 40.7032C70.637 40.6863 70.59 40.6595 70.5495 40.6244C70.509 40.5893 70.4759 40.5465 70.4519 40.4986C70.4279 40.4507 70.4136 40.3985 70.4098 40.345C70.406 40.2916 70.4128 40.2379 70.4297 40.1871C70.4467 40.1362 70.4735 40.0892 70.5086 40.0487C70.5437 40.0082 70.5865 39.9751 70.6344 39.9511C71.2367 39.6189 71.9278 39.4832 72.6111 39.563C73.2943 39.6429 73.9355 39.9342 74.445 40.3964C74.5273 40.4661 74.5785 40.5656 74.5874 40.6731C74.5963 40.7806 74.5621 40.8872 74.4924 40.9695C74.4227 41.0517 74.3232 41.103 74.2157 41.1119C74.1083 41.1208 74.0017 41.0866 73.9194 41.0169ZM74.883 39.5569C74.2996 39.0027 73.5581 38.6438 72.7615 38.53C71.9649 38.4162 71.1526 38.5531 70.4373 38.9218C70.3493 38.9607 70.2501 38.966 70.1585 38.9369C70.0668 38.9077 69.989 38.8461 69.9396 38.7635C69.8903 38.6809 69.8728 38.5832 69.8905 38.4886C69.9082 38.3941 69.9599 38.3093 70.0358 38.2502C70.896 37.8076 71.8714 37.6403 72.8299 37.7709C73.7884 37.9015 74.6836 38.3237 75.394 38.9802C75.4574 39.0517 75.4927 39.1437 75.4933 39.2393C75.494 39.3348 75.4599 39.4273 75.3974 39.4996C75.3349 39.5719 75.2483 39.619 75.1537 39.6323C75.0591 39.6455 74.9629 39.6239 74.883 39.5715V39.5569ZM71.7221 48.8498L72.8171 48.3826L71.9192 47.419L71.7221 48.8498ZM71.3571 51.507L72.7514 50.5726L71.6126 49.6528L71.3571 51.507Z" fill="#9E300F"/>
<path d="M71.7658 45.2217C70.9513 45.2275 70.1568 45.4743 69.4824 45.931C68.8079 46.3877 68.2838 47.0338 67.9761 47.788C67.6684 48.5421 67.5909 49.3705 67.7533 50.1686C67.9158 50.9667 68.3109 51.6989 68.8888 52.2728C69.4668 52.8467 70.2018 53.2367 71.001 53.3935C71.8003 53.5502 72.6281 53.4669 73.38 53.1539C74.132 52.8409 74.7744 52.3122 75.2264 51.6346C75.6783 50.957 75.9195 50.1607 75.9195 49.3462C75.9205 48.8018 75.8135 48.2627 75.6047 47.7599C75.396 47.2571 75.0896 46.8008 74.7033 46.4172C74.317 46.0336 73.8585 45.7305 73.3543 45.5253C72.8501 45.32 72.3102 45.2169 71.7658 45.2217ZM73.5616 48.5432C73.4813 48.9301 73.1747 48.9739 72.306 49.3389L73.2915 50.12C73.4094 50.2169 73.484 50.3567 73.4991 50.5086C73.5141 50.6604 73.4684 50.8121 73.3718 50.9303C72.8075 51.3873 72.2069 51.7974 71.576 52.1567C71.4803 52.2188 71.3689 52.2523 71.2548 52.2532C71.1407 52.254 71.0288 52.2223 70.9322 52.1617C70.8355 52.1011 70.7582 52.0142 70.7093 51.9111C70.6604 51.8081 70.642 51.6932 70.6562 51.58L70.8825 49.9302L69.6196 50.4631C69.5717 50.4832 69.5202 50.4937 69.4682 50.494C69.4163 50.4942 69.3647 50.4843 69.3166 50.4646C69.2685 50.4449 69.2247 50.416 69.1877 50.3794C69.1508 50.3428 69.1214 50.2993 69.1013 50.2514C69.0812 50.2035 69.0707 50.152 69.0704 50.1001C69.0702 50.0481 69.0801 49.9965 69.0998 49.9484C69.1195 49.9003 69.1484 49.8565 69.185 49.8196C69.2216 49.7826 69.2651 49.7532 69.313 49.7331L70.773 49.1053L69.4225 48.0103C69.3551 47.9408 69.3156 47.849 69.3115 47.7523C69.3075 47.6556 69.3391 47.5608 69.4005 47.486C69.4618 47.4111 69.5485 47.3614 69.6441 47.3464C69.7397 47.3313 69.8375 47.352 69.9189 47.4044L71.0869 48.3461L71.3059 46.7912C71.3131 46.7354 71.3313 46.6815 71.3595 46.6328C71.3877 46.5841 71.4253 46.5416 71.4702 46.5076C71.515 46.4736 71.5662 46.4489 71.6207 46.4349C71.6753 46.4209 71.732 46.418 71.7877 46.4262C72.0067 46.4262 71.9483 46.4262 73.401 48.0103C73.4706 48.0784 73.5218 48.1629 73.5498 48.2561C73.5779 48.3493 73.582 48.448 73.5616 48.5432ZM73.7295 26.0957C73.051 26.0957 72.3829 26.263 71.7846 26.5829C71.1862 26.9029 70.676 27.3655 70.2992 27.9297C69.9224 28.494 69.6907 29.1425 69.6245 29.8178C69.5583 30.4931 69.6597 31.1742 69.9197 31.8009C70.1798 32.4276 70.5904 32.9805 71.1152 33.4105C71.6401 33.8406 72.2629 34.1345 72.9285 34.2662C73.5941 34.398 74.2819 34.3634 74.931 34.1658C75.5801 33.9681 76.1703 33.6133 76.6495 33.1329C77.2252 32.5557 77.617 31.8208 77.7753 31.021C77.9336 30.2212 77.8513 29.3925 77.5388 28.6395C77.2264 27.8864 76.6978 27.2429 76.0198 26.7902C75.3418 26.3374 74.5448 26.0957 73.7295 26.0957ZM75.2698 28.5923L75.9268 28.074C75.999 28.0304 76.0847 28.0148 76.1676 28.0303C76.2505 28.0459 76.3247 28.0914 76.3762 28.1582C76.4277 28.225 76.4527 28.3084 76.4466 28.3926C76.4404 28.4767 76.4035 28.5556 76.3429 28.6142C75.6129 29.169 75.6129 29.1982 75.4815 29.1982C75.4085 29.2044 75.3354 29.1865 75.2735 29.1473C75.2115 29.1081 75.1641 29.0498 75.1385 28.9811C75.1129 28.9124 75.1104 28.8373 75.1314 28.7671C75.1525 28.6969 75.196 28.6355 75.2552 28.5923H75.2698ZM73.766 27.1323C73.7834 27.0482 73.8317 26.9737 73.9014 26.9235C73.971 26.8733 74.057 26.8511 74.1423 26.8612C74.2275 26.8713 74.3059 26.913 74.3619 26.978C74.418 27.0431 74.4476 27.1268 74.4449 27.2126L74.3427 28.0448C74.3256 28.13 74.2768 28.2055 74.2063 28.2561C74.1357 28.3067 74.0485 28.3287 73.9624 28.3175C73.8763 28.3064 73.7975 28.2631 73.7421 28.1962C73.6867 28.1293 73.6587 28.0439 73.6638 27.9572L73.766 27.1323ZM70.6635 30.1618C70.5957 30.1537 70.5319 30.1256 70.4802 30.0811C70.4284 30.0365 70.3912 29.9776 70.3731 29.9117C70.3551 29.8459 70.3571 29.7762 70.3789 29.7115C70.4008 29.6468 70.4414 29.5901 70.4956 29.5486C70.6416 29.4318 70.7073 29.4756 71.576 29.5851C71.6576 29.6013 71.7306 29.6466 71.7813 29.7125C71.8321 29.7785 71.8571 29.8607 71.8517 29.9438C71.8464 30.0268 71.811 30.1051 71.7522 30.164C71.6934 30.2229 71.6152 30.2585 71.5322 30.264L70.6635 30.1618ZM72.1746 31.87C71.4446 32.4321 71.4446 32.454 71.3132 32.454C71.2646 32.4555 71.2162 32.4464 71.1714 32.4273C71.1266 32.4082 71.0865 32.3796 71.0539 32.3435C71.0212 32.3074 70.9969 32.2646 70.9824 32.2182C70.9679 32.1717 70.9637 32.1227 70.9701 32.0744C70.9701 31.8846 71.065 31.87 71.7585 31.3444C71.8288 31.31 71.9088 31.3008 71.9851 31.3181C72.0614 31.3354 72.1295 31.3784 72.1781 31.4397C72.2267 31.5011 72.2528 31.5772 72.2522 31.6555C72.2515 31.7337 72.2242 31.8094 72.1746 31.87ZM72.087 28.7018C71.5103 27.9718 71.4811 27.9718 71.503 27.7966C71.5124 27.7306 71.5409 27.6687 71.585 27.6186C71.629 27.5685 71.6867 27.5323 71.751 27.5145C71.8153 27.4966 71.8834 27.498 71.947 27.5183C72.0105 27.5385 72.0668 27.5769 72.1089 27.6287L72.6272 28.2857C72.6577 28.3571 72.6632 28.4367 72.6426 28.5115C72.6221 28.5864 72.5767 28.6521 72.514 28.6978C72.4513 28.7436 72.3749 28.7667 72.2974 28.7635C72.2198 28.7602 72.1456 28.7308 72.087 28.6799V28.7018ZM73.6784 33.3081C73.6703 33.3759 73.6422 33.4397 73.5977 33.4914C73.5531 33.5432 73.4942 33.5804 73.4283 33.5985C73.3625 33.6165 73.2928 33.6145 73.2281 33.5926C73.1634 33.5708 73.1067 33.5302 73.0652 33.476C72.9557 33.33 72.9922 33.2643 73.0652 32.3956C73.0679 32.3486 73.0803 32.3027 73.1016 32.2607C73.1229 32.2187 73.1525 32.1815 73.1888 32.1515C73.225 32.1214 73.2671 32.0992 73.3123 32.0861C73.3575 32.073 73.4049 32.0694 73.4516 32.0754C73.4983 32.0814 73.5432 32.097 73.5837 32.1211C73.6241 32.1453 73.6591 32.1775 73.6865 32.2157C73.714 32.254 73.7332 32.2974 73.7431 32.3435C73.753 32.3895 73.7534 32.4371 73.7441 32.4832L73.6784 33.3081ZM73.6784 31.5634C73.4103 31.5629 73.1487 31.4809 72.9284 31.3282C72.708 31.1755 72.5393 30.9594 72.4447 30.7086C72.35 30.4578 72.3339 30.1841 72.3985 29.9239C72.463 29.6637 72.6052 29.4293 72.8061 29.2518C73.0071 29.0743 73.2572 28.9622 73.5234 28.9302C73.7896 28.8983 74.0592 28.948 74.2964 29.0729C74.5336 29.1978 74.7272 29.3919 74.8515 29.6294C74.9759 29.8669 75.025 30.1366 74.9924 30.4027C74.9483 30.7102 74.7977 30.9926 74.567 31.2006C74.3363 31.4087 74.0399 31.5293 73.7295 31.5415L73.6784 31.5634ZM75.2844 32.8555C74.7077 32.1255 74.6785 32.1255 74.7004 31.9503C74.7065 31.8822 74.7331 31.8177 74.7769 31.7652C74.8206 31.7127 74.8793 31.6748 74.9452 31.6565C75.011 31.6383 75.0809 31.6405 75.1454 31.663C75.2099 31.6855 75.2661 31.7272 75.3063 31.7824L75.8246 32.4394C75.8446 32.5056 75.8441 32.5763 75.8233 32.6422C75.8024 32.7081 75.7621 32.7662 75.7076 32.8088C75.6532 32.8515 75.5871 32.8766 75.5181 32.881C75.4491 32.8855 75.3803 32.8689 75.3209 32.8336L75.2844 32.8555ZM76.7079 30.9575L75.8319 30.8553C75.7658 30.8459 75.704 30.8174 75.6539 30.7733C75.6038 30.7293 75.5676 30.6716 75.5498 30.6073C75.5319 30.543 75.5333 30.4749 75.5535 30.4113C75.5738 30.3478 75.6122 30.2915 75.664 30.2494C75.8173 30.1253 75.883 30.1691 76.7444 30.2494C76.8354 30.2494 76.9227 30.2856 76.987 30.3499C77.0513 30.4142 77.0875 30.5015 77.0875 30.5925C77.0875 30.6835 77.0513 30.7708 76.987 30.8351C76.9227 30.8995 76.8354 30.9356 76.7444 30.9356L76.7079 30.9575ZM140.583 130.216C143.284 127.683 142.656 123.85 141.255 120.463C143.897 117.185 140.043 102.607 125.151 93.2849C113.398 85.9411 103.112 87.7077 93.2351 85.4958C92.3226 81.8458 89.5194 73.3194 85.7672 73.5822C86.0884 70.4505 84.5481 68.9905 81.0149 66.9319C76.5765 64.3404 66.2397 61.7489 62.1809 61.143C55.3554 60.121 53.1289 62.53 49.6395 68.37C48.289 67.6984 46.5662 66.8443 42.4198 65.1361C41.8577 62.6614 40.9598 61.143 39.5801 60.3546C39.0107 59.7706 33.9664 56.3469 31.1924 54.5657C22.3822 48.9619 13.1965 43.9715 3.7006 39.6299C3.68435 39.6228 3.66662 39.6197 3.64892 39.621C3.63123 39.6222 3.61411 39.6278 3.59903 39.6371C3.58394 39.6464 3.57136 39.6593 3.56235 39.6746C3.55333 39.6898 3.54817 39.7071 3.5473 39.7248C3.5473 40.0314 3.5473 40.1336 3.6057 40.1774C14.1031 45.4115 28.3527 53.0108 37.9157 59.8874C33.7985 59.2596 29.1557 64.1798 27.265 66.3917C12.811 83.5102 8.99309 114.637 17.5195 118.74C12.8864 118.79 8.25453 118.558 3.6495 118.047C3.63394 118.044 3.61812 118.046 3.6031 118.05C3.58808 118.055 3.57421 118.063 3.56244 118.073C3.55067 118.083 3.54127 118.096 3.53488 118.11C3.52849 118.125 3.52525 118.14 3.52539 118.156C3.52539 118.419 3.5254 118.521 3.6203 118.536C8.63757 119.115 13.6901 119.332 18.7386 119.185C20.3227 119.455 22.009 118.871 24.053 117.338C24.3815 117.382 26.243 117.63 26.8416 117.696C23.3746 131.113 22.4461 145.059 24.1041 158.817C24.1041 158.941 24.2209 158.912 24.5859 158.912C25.2502 158.912 21.4615 143.582 27.119 119.623C29.7543 108.469 33.9737 98.4533 38.3975 92.898C39.5396 91.3299 41.0029 90.0233 42.6899 89.0655C48.1211 86.3645 50.406 95.3873 50.8659 101.388C52.0047 115.776 47.2889 132.26 47.4422 132.829C47.4498 132.86 47.4635 132.888 47.4824 132.913C47.5014 132.938 47.5252 132.959 47.5524 132.975C47.5797 132.991 47.6099 133.001 47.6411 133.005C47.6723 133.008 47.704 133.006 47.7342 132.997C59.0565 129.872 70.6489 120.996 77.9927 109.819C78.0306 109.764 78.0486 109.697 78.0438 109.63C77.7226 100.14 78.4599 75.3196 85.6504 74.1881C89.1106 73.6114 91.8043 82.4809 92.6584 85.9119C94.8484 95.234 94.8995 107.389 92.8993 122.025C92.8555 122.346 93.4249 122.302 93.476 122.025C94.5895 115.108 95.1145 108.109 95.0455 101.103C107.937 106.512 104.039 131.5 103.119 136.472C103.061 136.778 103.586 136.793 103.645 136.472C104.259 133.465 104.681 130.422 104.908 127.361C110.748 133.931 109.412 147.276 106.937 155.642C106.864 155.882 107.266 155.992 107.346 155.751C108.063 153.448 108.614 151.096 108.996 148.714C110.77 151.685 111.252 155.335 111.361 158.795C111.363 158.823 111.375 158.849 111.396 158.868C111.416 158.887 111.443 158.897 111.471 158.897H111.733C111.762 158.897 111.79 158.886 111.811 158.865C111.831 158.845 111.843 158.817 111.843 158.788C111.879 155.954 111.405 153.138 110.441 150.473C113.003 152.283 115.142 154.897 117.508 155.488C121.253 156.393 121.428 151.561 120.267 147.882C118.639 142.253 114.653 136.808 110.85 132.384C113.472 133.258 115.97 134.468 118.281 135.983C123.37 139.18 126.596 142.94 129.21 145.947C131.4 148.502 134.685 152.597 137.751 151.553C138.204 151.386 138.617 151.127 138.966 150.793C139.316 150.459 139.592 150.057 139.78 149.612C140.904 147.319 140.379 143.94 139.59 141.523C142.722 139.37 142.167 134.296 140.583 130.216ZM43.9455 79.6923C42.3687 83.3423 41.9453 86.2623 42.6899 88.4523C41.1861 89.0874 39.5728 90.4598 37.8938 92.533C31.8859 100.008 28.2651 112.294 26.9438 117.353L15.1689 115.47C9.4895 103.359 19.7752 70.3921 32.9298 61.873L49.3913 68.7642C47.3583 72.2943 45.5398 75.9436 43.9455 79.6923ZM50.3184 78.3491C50.24 78.2884 50.1778 78.2094 50.137 78.119C50.0963 78.0287 50.0784 77.9297 50.0848 77.8308C50.1987 76.7991 50.4876 75.7944 50.9389 74.8597C50.9764 74.7794 51.0323 74.7092 51.102 74.6546C51.1718 74.6001 51.2535 74.5628 51.3404 74.5458C52.1029 74.4234 52.8756 74.377 53.6472 74.4071C54.0779 74.4071 53.9173 73.8815 55.2532 72.3923C55.5087 72.1076 55.1948 72.0127 54.6108 69.8738C54.581 69.7607 54.5867 69.6412 54.6272 69.5315C54.6677 69.4218 54.741 69.3272 54.8371 69.2606C55.6882 68.6874 56.5758 68.1704 57.4943 67.713C57.5766 67.6701 57.668 67.6478 57.7607 67.6478C57.8535 67.6478 57.9449 67.6701 58.0272 67.713C59.8084 68.7715 59.9252 69.3409 60.3194 69.2241C61.1972 68.9803 62.1022 68.8479 63.0131 68.8299C63.4803 68.8299 63.254 68.2824 64.4731 66.5304C64.5259 66.4585 64.5953 66.4004 64.6753 66.361C64.7554 66.3216 64.8438 66.3021 64.933 66.3041C65.9785 66.3458 67.0109 66.5528 67.9917 66.9173C68.0805 66.9484 68.1599 67.0016 68.2224 67.0718C68.285 67.142 68.3287 67.227 68.3494 67.3188C68.4977 68.2139 68.571 69.1198 68.5684 70.0271C68.5684 70.4359 69.0867 70.3118 70.5613 71.655C70.9263 71.9981 71.3497 71.2827 73.5908 70.9834C73.6793 70.9704 73.7697 70.9796 73.8538 71.0102C73.9379 71.0408 74.0131 71.0918 74.0726 71.1586C74.7595 71.9217 75.3169 72.7922 75.7224 73.7355C75.7587 73.8213 75.7736 73.9145 75.766 74.0073C75.7584 74.1001 75.7284 74.1897 75.6786 74.2684C75.1044 75.0648 74.462 75.8098 73.7587 76.4949C73.4813 76.7796 73.8536 76.9694 73.9558 78.7433C73.9564 78.8106 73.9768 78.8763 74.0144 78.9321C74.0521 78.9879 74.1053 79.0314 74.1675 79.0572C75.0909 79.4023 75.9666 79.8635 76.7736 80.4296C76.8422 80.4817 76.8976 80.5491 76.9357 80.6264C76.9737 80.7037 76.9932 80.7888 76.9926 80.8749C76.9563 81.8798 76.7361 82.8694 76.3429 83.7949C76.3081 83.8799 76.2536 83.9554 76.1837 84.0151C76.1139 84.0748 76.0308 84.1169 75.9414 84.138C74.8716 84.3344 73.7877 84.4442 72.7002 84.4665C72.3498 84.4665 72.4593 84.8388 71.357 86.0579C71.0358 86.4229 71.7293 86.7879 72.087 89.1823C72.0972 89.2679 72.0874 89.3546 72.0582 89.4357C72.0291 89.5168 71.9814 89.59 71.9191 89.6495C71.1678 90.3354 70.2968 90.8773 69.3495 91.2482C69.268 91.2807 69.1799 91.2937 69.0924 91.2861C69.005 91.2785 68.9205 91.2505 68.8458 91.2044C68.0312 90.6549 67.2689 90.0318 66.5682 89.3429C66.2762 89.0655 66.0353 89.4889 64.0862 89.5984C63.5898 89.5984 63.8599 90.2846 62.4364 92.1753C62.3824 92.2436 62.3136 92.2988 62.2352 92.3367C62.1568 92.3747 62.0709 92.3943 61.9838 92.3943C60.9743 92.33 59.9848 92.0826 59.0638 91.6643C58.982 91.6317 58.909 91.5804 58.8507 91.5145C58.7924 91.4486 58.7503 91.3699 58.728 91.2847C58.5433 90.3951 58.4334 89.4916 58.3995 88.5837C58.3955 88.5238 58.3767 88.4658 58.3448 88.4148C58.313 88.3639 58.2691 88.3216 58.217 88.2917C56.2314 87.2113 56.1657 86.5251 55.7204 86.7295C54.9906 87.1146 54.2123 87.3994 53.4063 87.5763C53.3116 87.5959 53.2135 87.5907 53.1215 87.5613C53.0294 87.5319 52.9465 87.4792 52.8807 87.4084C52.2263 86.6787 51.7072 85.8382 51.3477 84.9264C51.3144 84.8422 51.3016 84.7512 51.3105 84.6611C51.3194 84.5709 51.3497 84.4842 51.3988 84.4081C52.6106 82.6561 53.2822 82.5904 53.1435 82.1451C52.5084 80.0865 52.9318 79.5901 52.4865 79.4149C51.7261 79.142 50.9989 78.7845 50.3184 78.3491ZM48.0846 132.369C48.6394 130.135 49.0847 127.989 49.4935 125.938C52.2057 126.986 55.034 127.704 57.9177 128.077C54.8419 129.935 51.5361 131.383 48.0846 132.384V132.369ZM62.5386 123.792C58.7074 123.63 54.9224 122.891 51.3112 121.602C50.8732 121.448 51.0484 120.66 51.5156 120.762C55.9613 121.748 57.3994 122.222 62.6189 122.952C62.7246 122.972 62.819 123.03 62.8838 123.116C62.9485 123.202 62.9788 123.309 62.9688 123.416C62.9587 123.523 62.909 123.622 62.8294 123.694C62.7498 123.767 62.6461 123.807 62.5386 123.806V123.792ZM63.6847 117.82C63.6774 117.924 63.6313 118.022 63.5556 118.093C63.4799 118.165 63.3801 118.206 63.2759 118.207C59.3765 117.887 55.5318 117.085 51.8295 115.82C51.7304 115.779 51.6508 115.702 51.6073 115.604C51.5637 115.506 51.5597 115.395 51.5959 115.294C51.7054 114.951 51.7711 114.973 52.9464 115.258C55.8664 115.988 59.458 116.718 62.3269 117.207C63.6555 117.433 63.7358 117.448 63.6847 117.835V117.82ZM64.2614 112.601C61.137 112.433 55.0488 111.236 52.1799 110.002C51.7711 109.827 51.9463 109.06 52.4135 109.177C56.3412 110.285 60.3349 111.143 64.3709 111.747C64.4861 111.764 64.5897 111.827 64.6588 111.92C64.7279 112.014 64.757 112.131 64.7395 112.247C64.7221 112.362 64.6596 112.465 64.5659 112.535C64.4721 112.604 64.3547 112.633 64.2395 112.615L64.2614 112.601ZM52.4427 102.439C56.7309 103.789 61.0878 104.91 65.4951 105.797C65.6046 105.814 65.7032 105.873 65.7698 105.961C65.8364 106.05 65.8656 106.161 65.8513 106.27C65.837 106.38 65.7802 106.48 65.6932 106.549C65.6061 106.617 65.4957 106.649 65.3856 106.637C60.8673 106.028 56.437 104.886 52.1872 103.235C51.7565 103.06 51.9901 102.308 52.4427 102.439ZM77.3795 109.571C73.8205 114.901 69.4426 119.636 64.4074 123.602C64.4074 117.703 66.4952 110.396 70.5759 101.87C70.5829 101.852 70.5857 101.834 70.584 101.815C70.5823 101.797 70.5762 101.779 70.5662 101.763C70.5562 101.747 70.5426 101.734 70.5265 101.725C70.5104 101.715 70.4923 101.71 70.4737 101.709C69.5393 101.709 68.3494 102.33 62.8525 100.767C58.9762 99.6578 55.9978 99.2417 52.0485 97.4532C52.0485 97.4532 51.6908 95.9932 51.5959 95.6574C54.1783 96.8206 56.8676 97.7301 59.6259 98.373C66.4806 100.198 71.0869 102.103 75.6859 96.6137C79.5695 91.9198 76.759 89.9342 77.3795 109.571ZM139.43 141.056C136.612 132.778 128.18 124.5 122.194 121.485C122.167 121.47 122.137 121.461 122.107 121.459C122.076 121.457 122.045 121.461 122.017 121.471C121.988 121.482 121.961 121.498 121.939 121.519C121.917 121.54 121.899 121.566 121.888 121.594C121.61 122.149 122.771 121.784 127.479 125.712C130.604 128.391 138.05 135.545 139.627 143.962C140.196 146.882 139.663 148.612 139.291 149.378C139.137 149.763 138.905 150.111 138.61 150.401C138.315 150.691 137.962 150.917 137.575 151.064C134.831 151.999 131.655 147.925 129.757 145.692C127.173 142.64 123.917 138.844 118.661 135.567C114.12 132.727 110.397 131.661 110.113 131.989C109.828 132.318 117.413 140.129 119.734 148.108C120.763 151.283 120.931 155.809 117.632 154.984C115.128 154.342 112.478 150.984 110.135 149.743C109.85 149.13 109.516 148.542 109.135 147.984C110.135 140.947 110.011 131.676 105.017 126.609C105.521 118.397 104.893 104.14 95.0601 100.432C94.9959 95.5873 94.4283 90.7629 93.3665 86.036C103.287 88.3501 113.442 86.766 124.83 93.8032C132.203 98.3657 140.568 107.425 141.495 116.521C141.561 117.127 141.693 119.098 141.057 120.003C138.663 114.71 133.334 109.111 129.261 106.286C129.042 106.133 128.786 106.483 128.998 106.644C134.203 110.44 143.306 120.317 141.817 127.047C141.616 128.077 141.107 129.022 140.357 129.756C137.685 123.186 131.838 116.616 127.02 112.915C126.808 112.754 126.523 113.068 126.72 113.25C130.052 115.901 133.026 118.974 135.568 122.39C142.16 131.362 142.496 138.516 139.43 141.056Z" fill="#9E300F"/>
</svg>
