<svg width="324" height="396" viewBox="0 0 324 396" fill="none" xmlns="http://www.w3.org/2000/svg">
<rect x="0.5" y="0.5" width="323" height="395" rx="7.5" stroke="#83791D"/>
<path d="M9.72602 204.989C8.72486 205.013 8.43164 203.848 9.01322 203.649C9.7406 203.399 65.096 194.474 83.7973 191.511C180.999 176.109 314.071 161.286 315.036 161.552C315.511 161.683 315.279 162.309 314.61 162.415C306.047 163.794 272.224 168.084 271.67 168.145C170.443 179.434 9.76328 204.981 9.72602 204.989Z" fill="#83791D"/>
<path d="M39.4102 258.564C39.5527 257.069 39.6985 256.605 39.6386 253.402C39.4215 241.657 47.225 241.053 64.4051 235.129C106.86 220.487 90.7528 226.958 134.185 214.088C134.219 214.079 164.121 205.896 164.158 205.886C224.195 189.821 222.17 187.976 240.846 203.152C245.793 207.171 273.908 234.523 281.297 243.3C288.249 251.559 291.876 255.633 291.566 260.37C291.31 264.286 291.019 269.413 289.274 273.278C287.938 276.238 286.889 277.43 261.846 289.025C256.618 291.445 240.784 298.78 233.825 301.294C201.935 312.818 131.522 337.372 98.4284 344.764C86.6494 347.395 83.1842 345.695 74.4103 333.497C61.157 315.069 46.2287 283.133 40.7774 266.735C40.1861 264.955 39.4231 260.939 39.4102 258.564ZM219.463 194.099C219.463 194.224 218.005 193.991 216.873 194.158C207.059 195.607 114.504 220.623 78.3371 232.18C45.7913 242.581 38.6407 244.337 42.3634 254.387C46.4734 265.488 58.8129 293.924 65.4679 305.461C81.4394 333.15 87.077 336.055 101.709 333.047C139.354 325.306 274.017 279.909 287.081 264.911C293.24 257.84 289.4 254.378 271.59 235.641C257.415 220.729 242.704 206.606 238.968 203.568C232.794 198.548 226.8 194.099 219.463 194.099ZM236.917 293.833C236.893 295.885 238.189 295.446 239.971 294.806C249.702 291.307 251.211 290.285 251.23 289.117C251.28 286.271 250.423 286.8 242.03 290.27C237.497 292.143 236.937 292.112 236.916 293.833H236.917ZM255.763 286.091C255.763 287.614 256.497 287.954 257.501 287.549C259.55 286.721 260.777 286.272 267.846 282.888C269.633 282.033 269.964 281.143 269.734 280.024C269.525 279.01 269.214 278.836 268.221 279.172C267.25 279.501 266.278 279.846 265.347 280.27C256.019 284.508 255.659 284.387 255.763 286.091Z" fill="#83791D"/>
<path d="M263.8 238.678C266.575 238.933 267.837 239.861 273.959 246.841C275.714 248.842 278.55 251.557 279.918 255.47C280.758 257.875 279.218 260.479 277.403 261.695C254.33 277.161 161.964 308.261 139.927 314.617C96.2046 327.227 90.2625 335.515 70.4402 300.256C61.4735 284.306 50.6907 259.351 50.255 258.264C47.9384 252.484 49.1485 248.614 55.4584 245.97C56.7706 245.421 63.7269 241.568 86.6126 235.105C153.775 216.138 210.489 196.412 223.519 200.02C225.921 200.686 232.209 204.127 236.905 208.88C237.219 209.199 237.224 209.606 237.383 209.961C237.42 210.043 237.286 210.21 237.216 210.332C234.734 214.649 234.123 214.117 239.46 219.593C239.494 219.629 250.874 231.424 257.291 237.923C258.487 239.133 259.18 238.254 263.8 238.678ZM258.995 240.464C255.031 240.431 253.967 237.019 240.281 223.214C232.089 214.95 232.703 214.289 235.371 209.943C235.465 209.79 235.562 209.684 235.361 209.513C222.563 198.715 220.02 199.989 205.02 203.565C196.669 205.556 188.665 206.968 151.654 218.002C51.2658 247.932 46.6748 245.918 52.1763 259.136C52.1909 259.17 64.8965 286.97 71.5207 298.683C77.6103 309.451 87.9831 323.56 97.8635 323.419C115.674 323.163 255.778 275.961 277.3 259.652C279.2 258.212 278.85 255.947 277.491 253.987C276.188 252.111 271.941 247.138 271.505 246.654C265.129 239.585 266.259 240.52 258.995 240.464Z" fill="#83791D"/>
<path d="M254.58 227.23C254.071 227.78 253.596 228.292 252.433 227.704C251.557 227.26 242.587 218.55 241.775 217.344C241.129 216.385 242.35 215.316 242.966 215.752C245.268 217.382 253.538 225.125 254.58 227.23Z" fill="#83791D"/>
<path d="M260.261 232.402C259.961 233.982 256.277 233.514 255.743 231.806C254.913 229.161 260.768 229.736 260.261 232.402Z" fill="#83791D"/>
<path d="M271.922 259.894C270.426 259.973 269.966 258.969 267.757 255.666C267.433 255.18 267.178 254.659 267.501 254.07C267.607 253.875 267.722 253.641 267.899 253.534C268.884 252.933 270.613 251.983 271.525 252.696C272.552 253.5 275.545 257.038 274.807 258.104C274.104 259.118 273.151 259.741 271.923 259.894H271.922ZM273.605 257.48C273.501 257.117 273.708 257.414 272.579 255.829C272.314 255.455 272.121 255.776 270.314 256.874C270.093 257.008 270.13 256.965 271.1 258.484C271.421 258.987 271.625 258.953 273.305 257.906C273.451 257.815 273.522 257.601 273.605 257.48Z" fill="#83791D"/>
<path d="M268.186 247.86C269.321 247.818 270.259 249.263 269.833 249.665C269.483 249.994 266.548 251.296 266.149 251.465C265.564 251.713 265.184 251.956 264.481 250.81C264.139 250.253 264.16 249.808 265.08 249.349C268.163 247.815 267.714 248.034 268.186 247.86Z" fill="#83791D"/>
<path d="M229.256 208.506C229.633 209.413 228.065 210.187 227.022 210.382C223.929 210.958 224.135 207.808 227.247 207.764C228.245 207.749 228.906 207.668 229.256 208.506Z" fill="#83791D"/>
<path d="M230.453 210.033C231.049 210.033 231.426 209.951 231.634 210.591C231.873 211.328 231.873 211.278 231.408 211.781C230.82 212.42 230.048 212.693 229.207 212.774C227.224 212.967 227.219 209.75 230.453 210.033Z" fill="#83791D"/>
<path d="M262.335 248.027C261.663 247.187 261.992 247.115 264.828 245.853C265.109 245.729 265.705 246.224 265.881 246.432C266.675 247.368 265.815 247.666 263.942 248.627C263.343 248.934 262.776 248.578 262.335 248.027Z" fill="#83791D"/>
<path d="M263.592 244.748C263.172 245.299 263.595 245.228 261.415 246.244C261.155 246.365 260.799 246.012 260.632 245.832C260.004 245.155 260.013 244.975 260.784 244.468C261.21 244.188 261.664 243.932 262.135 243.744C262.675 243.53 263.542 244.087 263.594 244.748H263.592Z" fill="#83791D"/>
<path d="M221.81 203.111C223.126 204.192 220.845 204.6 219.21 205.115C218.269 205.413 217.334 204.399 221.81 203.111Z" fill="#83791D"/>
<path d="M220.833 206.393C220.718 206.29 220.221 206.068 220.65 205.625C220.951 205.314 221.269 205.154 223.237 204.6C224.026 204.378 224.154 205.329 223.612 205.522C220.867 206.489 221.143 206.38 220.835 206.395L220.833 206.393Z" fill="#83791D"/>
<path d="M225.943 207.117C225.566 207.211 225.334 206.861 225.036 206.664C224.973 206.622 224.97 206.38 225.027 206.286C225.365 205.723 226.815 205.348 226.695 206.549C226.655 206.957 226.467 207.109 225.943 207.117Z" fill="#83791D"/>
<path d="M223.491 208.143C222.452 208.125 222.501 206.818 223.369 206.779C223.75 206.763 224.283 207.205 224.273 207.531C224.262 207.866 223.902 208.151 223.491 208.143Z" fill="#83791D"/>
<path d="M162.381 127.748C162.381 130.355 162.19 130.143 163.389 130.48C165.618 131.108 196.468 255.236 199.253 268.026C199.371 268.566 199.523 268.485 200.988 268.708C201.579 268.799 202.117 269.074 202.687 269.21C203.771 269.468 204.514 270.135 205.044 271.049C206.044 272.774 205.598 273.387 205.37 275.366C204.731 280.91 196.495 281.287 193.131 279.497C190.143 277.908 190.655 275.302 190.299 274.438C190.569 271.519 191.167 270.879 192.175 269.781C192.812 269.087 192.705 269.683 170.739 257.057C161.542 251.769 159.921 250.878 158.278 249.879C157.627 249.484 157.679 249.654 154.202 251.815C127.26 268.556 132.457 265.272 125.791 269.549C125.018 270.045 127.329 270.646 127.848 273.288C128.036 274.247 127.885 275.119 127.409 276.826C126.001 281.866 117.814 282.266 113.587 279.889C108.832 277.218 110.908 268.491 116.851 268.603C118.115 268.627 117.93 268.831 134.984 190.506C134.995 190.454 148.888 131.939 149.969 130.891C151.808 129.104 149.397 124.653 152.733 122.862C153.293 122.561 153.875 122.347 154.529 122.329C156.587 122.271 162.072 121.359 162.381 125.843C162.396 126.054 162.415 127.748 162.381 127.748ZM157.68 217.338C155.424 218.418 146.261 223.483 135.933 228.879C130.892 231.513 130.822 230.603 133.416 231.92C140.639 235.586 142.329 236.365 155.294 243.93C157.839 245.416 157.849 245.584 158.302 245.304C165.866 240.653 183.239 230.909 184.07 230.364C184.587 230.026 184.661 230.51 169.085 222.89C157.693 217.315 158.749 217.775 157.68 217.34V217.338ZM186.435 231.949C183.804 233.912 160.57 247.107 161.547 247.695C186.521 262.737 195.133 267.398 195.237 267.351C195.825 267.088 186.975 232.302 186.435 231.949ZM121.54 267.399C121.74 268.088 118.894 269.058 153.851 247.979C154.609 247.522 154.886 247.953 138.844 238.855C128.6 233.044 129.212 232.726 128.998 233.664C124.206 254.694 129.037 233.689 121.54 267.398V267.399ZM176.675 203.733C175.293 202.774 165.257 197.773 159.059 194.125C157.552 193.239 157.901 193.217 147.751 199.124C147.716 199.145 139.013 204.072 138.736 204.321C139.463 204.942 140.743 205.216 148.96 208.958C159.734 213.865 156.556 213.839 160.251 212.008C166.895 208.715 176.038 204.273 176.675 203.733ZM185.479 227.644C185.47 227.606 179.749 205.533 179.738 205.499C179.568 204.922 180.38 205.331 165.119 213.251C161.643 215.055 161.463 215.122 161.907 215.394C161.941 215.415 185.316 227.644 185.479 227.644ZM153.561 215.36C152.712 214.663 144.568 211.111 135.629 206.427C135.161 206.183 135.684 204.644 131.096 224.383C131.02 224.709 130.359 227.628 130.344 228.119C130.659 228.067 153.541 215.396 153.561 215.36ZM172.064 182.692C171.96 182.571 159.214 176.007 156.872 174.808C156.519 174.628 156.211 174.489 155.819 174.746C155.427 175.004 143.988 181.965 143.949 182.004C144.801 182.491 149.828 184.866 157.926 189.459C158.623 189.854 158.14 189.871 168.628 184.518C169.633 184.006 171.792 182.843 172.063 182.694L172.064 182.692ZM136.367 202.21C143.312 197.57 145.893 196.284 153.967 191.999C154.844 191.534 154.737 191.821 149.315 188.855C139.721 183.608 140.473 183.664 140.264 184.602C136.35 202.202 136.175 201.42 136.369 202.209L136.367 202.21ZM156.882 170.536C157.415 170.29 167.979 164.553 168.405 164.182C167.996 163.891 162.096 160.817 162.062 160.796C158.147 158.754 158.095 158.616 157.593 158.945C157.047 159.303 146.471 164.858 146.337 164.97C146.535 165.107 156.676 170.447 156.883 170.537L156.882 170.536ZM178.534 200.971C178.462 200.402 174.664 185.761 174.512 185.21C174.241 184.233 175.379 184.034 162.539 191.189C161.241 191.913 160.436 190.88 171.617 197.245C178.449 201.135 178.065 201.157 178.534 200.971ZM173.075 179.742C169.458 165.43 169.911 166.533 169.26 166.873C168.855 167.084 169.056 166.991 164.568 169.591C160.081 172.191 159.707 172.198 160.248 172.514C172.968 179.932 172.754 179.912 173.077 179.744L173.075 179.742ZM141.433 179.507C141.624 180.019 140.641 180.379 150.259 174.472C152.755 172.94 153.219 172.919 152.61 172.582C151.432 171.932 152.582 172.619 144.563 168.098C144.03 167.796 144.276 166.601 141.433 179.507ZM164.447 152.546C163.966 152.113 163.315 151.794 160.42 149.9C157.494 147.985 157.442 147.54 156.621 147.997C150.513 151.392 150.602 150.785 151.046 151.272C151.077 151.306 154.209 152.999 157.899 155.063C158.474 155.386 158.377 155.431 164.447 152.546ZM145.431 161.846C145.674 162.538 144.903 161.942 154.056 157.428C155.223 156.853 155.224 157.354 147.997 152.975C147.374 152.598 147.534 152.001 145.431 161.846ZM124.287 271.81C123.356 271.004 123.009 271.506 120.731 273.001C119.641 273.717 117.422 273.79 117.234 272.277C117.047 270.764 117.151 270.532 116.814 270.578C114.248 270.923 113.172 273.004 113.937 273.912C117.164 277.738 127.812 274.861 124.287 271.81ZM162.09 142.105C156.412 138.029 156.331 137.436 155.684 137.852C152.104 140.156 151.872 140.179 152.219 140.422C157.745 144.298 157.434 144.293 157.98 144.026C159.569 143.252 161.573 142.43 162.09 142.105ZM197.605 275.141C199.679 275.083 200.545 274.449 200.926 274.365C202.323 274.059 203.484 272.444 202.242 271.287C201.629 270.717 200.829 270.749 200.108 270.536C199.922 270.48 199.773 270.605 199.803 270.83C199.91 271.6 198.582 272.846 197.231 272.112C194.576 270.668 194.509 270.581 194.09 270.876C193.314 271.422 192.507 272.676 193.165 273.503C194.376 275.029 195.666 274.906 197.605 275.141ZM166.459 154.028C166.106 154.219 166.388 154.052 162.027 156.576C161.638 156.801 161.192 156.999 161.583 157.224C168.246 161.038 167.583 160.871 168.262 161.018C168.256 160.696 166.768 154.537 166.459 154.028ZM149.489 148.194C153.928 145.747 153.748 145.909 153.946 145.777C154.372 145.494 154.084 145.458 150.287 142.526C149.775 142.131 149.865 142.464 149.093 145.857C148.172 149.897 148.232 148.886 149.489 148.194ZM156.394 123.888C156.394 123.985 152.652 123.544 152.555 125.121C152.457 126.697 159.091 126.637 160.314 125.505C161.641 124.277 158.37 123.888 156.394 123.888ZM163.865 143.634C163.46 143.814 162.879 144.157 162.626 144.319C159.861 146.1 159.95 145.982 160.431 146.362C165.513 150.39 165.098 150.137 165.591 150.351C165.573 149.654 164.262 144.277 163.865 143.634ZM162.91 139.365C161.536 133.801 161.701 133.783 161.126 134.168C158.437 135.97 158.477 135.831 158.858 136.159C162.772 139.531 162.605 139.497 162.91 139.365ZM151.012 137.18C151.15 137.494 150.925 137.679 153.228 135.968C153.596 135.696 153.467 135.648 152.007 134.562C151.477 134.168 151.521 134.757 151.012 137.18Z" fill="#83791D"/>
<path d="M271.782 115.866C267.236 109.138 264.866 112.646 270.515 108.383C271.042 107.986 270.865 107.105 270.01 107.293C269.705 107.359 269.522 107.47 266.679 108.892C266.341 109.062 265.806 109.453 265.787 108.965C265.493 102.017 266.025 99.4717 264.633 99.6612C264.003 99.7471 264.021 100.395 264.021 100.824C264.014 107.891 264.136 107.696 263.982 108.417C263.345 108.074 262.517 107.322 260.679 106.457C260.014 106.144 258.471 105.73 258.325 106.409C258.19 107.035 258.416 107.063 259 107.444C264.039 110.723 263.82 110.355 263.034 110.83C262.03 111.435 260.918 111.972 260.023 112.498C258.71 113.269 259.493 114.849 260.915 114.285C261.701 113.974 263.172 113.187 263.92 112.799C264.602 112.446 264.149 117.329 265.028 118.312C265.631 117.744 265.673 113.167 265.856 112.36C266.729 112.683 269.977 115.855 271.534 116.273C271.738 116.328 271.905 116.044 271.784 115.864L271.782 115.866Z" fill="#83791D"/>
<path d="M214.76 151.477C209.327 154.08 209.591 154.144 209.674 153.402C210.098 149.642 210.813 146.896 210.39 146.104C210.085 145.528 209.333 145.47 209.005 146.018C208.532 146.807 207.926 151.932 207.644 153.24C207.445 154.168 205.94 151.798 203.915 151.294C203.194 151.114 202.536 152.219 203.668 153.094C207.412 155.99 207.229 154.873 203.553 156.76C202.643 157.228 201.972 157.92 202.479 158.812C202.792 159.363 203.605 158.923 203.968 158.774C207.049 157.513 207.087 157.382 207.088 157.763C207.098 161.014 206.874 161.947 207.445 161.976C207.984 162.004 208.02 161.641 208.799 158.539C208.89 158.179 208.945 157.811 209.018 157.448C211.06 158.767 211.386 159.412 211.909 159.041C212.353 158.727 211.966 158.229 211.096 157.095C210.383 156.167 210.009 156.078 210.487 155.893C210.906 155.731 213.581 154.32 215.559 152.818C215.951 152.522 216.001 152.051 215.708 151.613C215.465 151.25 215.282 151.224 214.759 151.475L214.76 151.477Z" fill="#83791D"/>
<path d="M53.6626 87.33C51.0009 88.5288 50.7207 88.9986 50.7644 88.4284C50.9783 85.595 51.0139 85.5966 50.9378 85.5934C50.9378 84.2666 51.1597 83.1261 50.1926 83.0484C49.2432 82.9722 49.1039 83.9167 49.0294 84.9049C48.7491 88.5774 48.9743 88.6519 48.3263 88.3215C47.9391 88.1238 48.0704 88.0623 45.8607 87.1032C45.015 86.7371 44.5112 87.5779 45.0442 88.2631C45.5221 88.8787 45.9271 89.0634 47.5584 90.1958C47.9537 90.4696 47.6589 90.4113 46.6691 91.0544C45.0977 92.0766 44.5938 92.318 44.3978 93.1669C44.2407 93.8424 44.7818 94.4904 45.8801 93.9153C48.5952 92.493 48.6131 92.1592 48.6438 93.0988C48.6649 93.7598 48.6082 94.5115 48.869 95.2275C48.9727 95.511 49.402 95.6503 49.6482 95.2664C49.901 94.8711 50.3416 92.5205 50.3999 92.1981C50.4906 91.6992 50.583 92.1528 52.966 92.9044C53.2527 92.9952 53.6642 93.1264 53.8764 92.71C54.3835 91.7154 51.4756 90.8422 52.3326 90.2412C53.4666 89.4441 53.047 89.9123 56.3081 87.0805C56.5608 86.8618 56.8281 85.9109 53.6658 87.3333L53.6626 87.33Z" fill="#83791D"/>
<path d="M80.4832 166.017C80.0912 166.142 79.9276 166.289 76.7783 168.188C76.1692 168.556 76.4446 168.504 76.3457 163.697C76.3133 162.147 76.255 161.138 75.4207 161.125C74.4617 161.11 74.6204 161.834 74.3791 164.757C74.4763 164.763 74.4487 164.757 74.4487 166.404C74.4487 166.885 74.5151 167.345 74.1199 167.08C71.7968 165.513 71.0791 166.804 71.8 167.561C72.333 168.12 73.1252 168.646 74.2689 169.427C74.7112 169.728 74.1409 169.767 73.0053 170.702C71.0289 172.327 70.7665 172.523 70.8134 173.198C70.8701 174.002 71.6332 173.879 72.2601 173.479C74.7193 171.909 74.6512 171.564 74.7986 172.395C75.1048 174.14 75.2036 174.575 75.7366 174.76C76.4705 175.015 76.5515 173.673 76.5158 173.548C76.2777 172.716 76.4543 171.893 76.3911 171.073C76.3457 170.491 77.7001 172.108 80.0167 172.486C80.446 172.555 80.5837 172.129 79.9584 171.551C76.8318 168.664 77.18 170.417 80.9206 166.68C81.2884 166.313 80.8234 165.91 80.4848 166.019L80.4832 166.017Z" fill="#83791D"/>
<path d="M215.878 77.5938C200.086 49.6634 161.854 38.21 131.482 47.0066C105.757 54.4586 90.1935 80.8533 92.8357 84.9584C93.3039 85.6857 93.3492 85.6776 102.468 91.5015C108.337 95.2502 104.109 85.6226 120.29 72.2543C148.329 49.0883 191.058 62.5943 203.986 89.4765C205.602 92.838 207.93 90.0905 211.569 87.3851C218.959 81.8917 218.915 82.9641 215.88 77.5938H215.878Z" fill="#83791D"/>
<path d="M114.188 96.5302C113.613 97.5897 113.987 98.9359 115.028 99.5936C117.256 101.001 119.464 102.432 121.68 103.853C124.949 105.947 124.682 100.003 133.718 92.728C140.279 87.4452 147.765 84.8435 155.763 84.9958C167.92 85.2274 176.72 92.1124 184.141 101.747C187.499 106.106 185.716 106.62 195.549 99.2842C196.32 98.7091 197.509 97.4244 197.132 96.5415C183.608 64.8851 134.629 58.8263 114.188 96.5269V96.5302Z" fill="#83791D"/>
<path d="M133.573 108.154C132.745 109.393 132.729 110.981 134.005 111.779C143.904 117.961 140.518 117.424 146.304 112.839C152.177 108.186 159.371 108.841 164.635 112.632C170.143 116.599 169.201 118.788 172.27 116.544C179.059 111.579 180.234 111.222 178.925 109.341C166.775 91.8875 145.388 90.4732 133.574 108.154H133.573Z" fill="#83791D"/>
</svg>
