<svg width="146" height="182" viewBox="0 0 146 182" fill="none" xmlns="http://www.w3.org/2000/svg">
<rect x="0.5" y="0.5" width="145" height="181" rx="7.5" stroke="#005F05"/>
<path d="M108.609 69.4899C108.816 69.5154 108.991 69.3767 109.019 69.1789L109.406 66.4049C109.108 66.5086 108.845 66.6027 108.631 66.6852L108.346 68.7212C106.268 68.4788 104.14 68.5 102.072 68.7767C102.137 69.0139 102.202 69.2504 102.267 69.4877C104.361 69.2154 106.514 69.214 108.609 69.4899Z" fill="#005F05"/>
<path d="M116.2 63.8556C116.054 63.9607 115.833 64.079 115.558 64.206C116.936 67.2771 117.76 70.303 117.078 73.2938C116.941 73.7748 116.794 74.2355 116.539 74.5581C116.178 74.918 115.738 75.2115 115.224 75.4312C111.947 76.9138 108.465 78.022 104.874 78.7242C104.834 78.7323 104.798 78.7454 104.766 78.7622C104.826 78.9907 104.887 79.2192 104.947 79.4477C105.319 79.4433 110.534 78.3541 115.519 76.0999C116.111 75.8459 116.629 75.5006 117.082 75.0443C117.449 74.5859 117.622 74.0493 117.784 73.4755C118.52 70.2489 117.645 67.0537 116.2 63.8556Z" fill="#005F05"/>
<path d="M116.613 63.536C114.983 61.3562 115.203 61.8453 115.016 61.2964C114.968 61.1036 115.007 60.8927 115.152 60.6686C115.651 59.5874 115.971 58.5202 116.132 57.3865C116.383 54.4585 114.36 51.7443 111.423 51.0734C109.863 50.726 107.07 51.1771 105.4 52.3999C103.597 53.7197 103.614 55.579 104.742 56.1323C102.406 57.9486 103.509 62.9849 107.641 63.7499C107.582 64.8369 107.59 65.9348 107.661 67.0188C107.684 67.3554 108.111 67.4817 108.314 67.2174C109.158 66.7305 115.664 64.9288 116.58 64.0127C116.709 63.8842 116.722 63.6813 116.613 63.536ZM108.357 66.3983C108.313 65.4216 108.324 64.4361 108.388 63.463C108.401 63.2688 108.26 63.0987 108.067 63.0761C103.474 62.5359 103.305 56.3448 106.314 56.3448C108.012 56.3448 108.303 57.431 107.655 57.923C107.447 58.0814 107.281 58.0953 106.997 58.0953C106.543 58.0953 106.501 58.7662 106.952 58.8224C107.344 58.872 107.938 58.7144 108.322 58.5151C110.151 57.1449 108.003 55.1432 105.618 55.5067C105.145 55.6644 104.678 55.352 104.675 54.7789C104.882 52.4298 109.233 51.3319 111.262 51.7837C113.843 52.3743 115.625 54.7548 115.406 57.3025C115.257 58.345 114.957 59.3451 114.516 60.3123C114.286 60.6584 114.21 61.081 114.315 61.4986C114.57 62.2651 114.414 61.7986 115.806 63.674C114.494 64.4178 109.745 65.8399 108.356 66.3969L108.357 66.3983Z" fill="#005F05"/>
<path d="M129.895 126.516C125.557 123.241 120.49 121.304 115.242 120.912C115.147 120.905 115.059 120.935 114.989 120.99C115.036 121.203 115.083 121.417 115.129 121.631C115.148 121.635 115.167 121.639 115.188 121.64C120.208 122.015 125.061 123.846 129.24 126.938L128.348 129.42C123.11 127.544 117.517 127.179 112.165 128.318L110.695 129.428C114.386 128.415 120.895 127.423 128.441 130.231C128.63 130.302 128.842 130.204 128.912 130.012L130.018 126.931C130.072 126.78 130.022 126.612 129.895 126.516Z" fill="#005F05"/>
<path d="M142.235 120.853C140.554 118.025 137.517 120.371 135.331 122.848C134.606 123.646 133.425 125.329 132.343 125.263C130.906 125.023 129.085 123.681 127.843 122.726C127.666 122.589 127.4 122.643 127.295 122.852C125.927 125.588 125.041 127.688 123.745 131.05C123.488 131.424 123.718 132.097 124.313 132.148C131.207 134.458 133.356 137.616 136.972 137.616C139.516 137.616 140.881 135.389 140.464 133.301C140.301 132.406 139.58 131.799 139.887 131.06C140.102 130.557 140.47 130.117 140.875 129.629C142.13 127.893 142.5 125.112 142.592 124.052C142.833 123.09 142.718 121.999 142.236 120.854L142.235 120.853Z" fill="#005F05"/>
<path d="M71.1562 135.543C66.2564 120.576 61.8356 105.297 57.9301 89.8467C57.6709 89.8234 57.4132 89.7949 57.1562 89.7621C61.0822 105.317 65.5294 120.699 70.4605 135.763C71.0073 137.558 72.7272 138.794 74.6054 138.817C74.5324 138.587 74.4551 138.34 74.3711 138.074C72.914 137.95 71.5818 136.938 71.1562 135.542V135.543Z" fill="#005F05"/>
<path d="M115.652 122.309C110.168 95.6574 103.066 68.4504 94.5485 41.4499C93.9536 39.4089 91.7971 38.0817 89.6363 38.4263C78.8119 40.1578 66.8457 43.1253 53.9306 47.8469C52.0231 48.5623 48.8294 52.581 49.2768 54.8177C50.8938 62.9484 52.6575 71.0609 54.562 79.1362C54.8168 79.153 55.0709 79.1712 55.3256 79.1924C53.4021 71.0514 51.6223 62.8725 49.993 54.6753C49.7521 53.4701 50.9843 51.3319 52.356 49.8982C51.9808 50.7173 51.853 51.6604 52.0421 52.6051C57.3404 79.5618 64.4681 106.798 73.2267 133.55C73.8304 135.534 75.8664 136.834 77.9644 136.572C89.6955 135.183 101.286 132.205 112.428 127.718C111.683 128.204 110.834 128.644 110.017 128.999C101.49 132.482 92.6929 135.074 83.7679 136.74C83.7781 136.983 83.7847 137.227 83.7883 137.47C93.7703 135.608 103.268 132.706 110.304 129.67C113.62 128.239 116.511 126.03 115.652 122.309ZM112.782 126.787C101.509 131.392 89.7656 134.439 77.8768 135.848C76.1518 136.059 74.4195 134.961 73.9231 133.33C65.1719 106.599 58.0507 79.3924 52.7582 52.4634C52.3976 50.6589 53.4247 48.8989 55.1358 48.2944C66.437 44.3028 78.0104 41.0258 89.7524 39.1475C91.546 38.8592 93.352 39.9542 93.8499 41.6624C102.363 68.6461 109.457 95.8289 114.939 122.464C115.363 124.303 114.496 126.039 112.782 126.787Z" fill="#005F05"/>
<path d="M74.8877 131.5C66.6497 105.995 59.8147 79.8492 54.5711 53.7919C54.1404 51.8121 55.2836 49.7185 57.1743 49.0308C67.3432 45.2173 77.9209 42.4462 88.6117 40.7957C90.5725 40.5387 92.5099 41.8024 93.1239 43.7325C101.168 69.457 108.003 95.5735 113.44 121.359C113.806 123.465 112.693 125.46 111.013 126.195C100.904 130.613 90.1798 133.257 79.305 134.439C77.2945 134.612 75.4907 133.395 74.8877 131.5ZM89.1271 41.4921C87.6795 41.4921 72.954 43.8938 57.4283 49.7163C55.8698 50.2828 54.931 52.007 55.2865 53.643C60.525 79.6792 67.3534 105.797 75.5834 131.278C76.0857 132.855 77.5836 133.856 79.2342 133.712C90.0287 132.539 100.625 129.784 110.721 125.526C112.191 124.822 113.014 123.167 112.724 121.496C107.294 95.7472 100.465 69.6533 92.4289 43.9522C91.9646 42.4922 90.5886 41.4921 89.1271 41.4921Z" fill="#005F05"/>
<path d="M75.752 149.299C73.1824 149.299 71.0552 148.866 67.2168 149.293C67.03 149.312 66.8526 149.186 66.8183 148.998C66.5671 147.66 66.4146 146.466 66.3387 145.24C66.3284 145.083 66.4212 144.936 66.5672 144.878C69.3061 143.781 72.2363 143.818 74.7526 142.522C74.9213 142.461 75.0863 142.318 75.2155 142.138C75.2403 141.988 75.2636 142.138 73.8606 137.662C73.8 137.469 73.9073 137.264 74.0993 137.204C74.2927 137.143 74.4964 137.251 74.557 137.443C75.9842 141.992 76.0477 141.961 75.898 142.408C75.8403 142.585 75.4447 143.056 75.0351 143.192C72.5415 144.486 69.7149 144.476 67.0847 145.459C67.157 146.462 67.2825 147.452 67.4745 148.531C69.401 148.339 71.3333 148.325 73.5248 148.487C76.1893 148.647 78.9436 148.696 80.7058 147.374C82.0096 146.396 82.3855 144.815 82.7899 143.142C83.3097 140.993 83.4885 138.874 83.4046 136.776C83.3856 136.302 84.1134 136.251 84.1339 136.747C84.2207 138.919 84.0339 141.098 83.4995 143.313C83.0834 145.038 82.6578 146.822 81.1431 147.958C79.713 149.031 77.7814 149.299 75.752 149.299Z" fill="#005F05"/>
<path d="M70.4345 151.752C70.1557 150.89 69.9907 144.224 69.9907 143.084C69.9907 142.864 69.7965 142.693 69.5775 142.722C67.3116 143.023 64.9982 142.815 62.7133 142.107C60.6803 141.403 58.2603 139.088 55.844 140.64C54.7373 141.321 54.0803 142.631 54.1709 143.986C54.2475 144.829 54.8089 145.64 54.4906 146.248C54.0949 146.722 53.7219 147.171 53.2335 147.583C51.7838 149.226 51.0363 151.887 50.791 152.924C50.0318 155.201 50.7428 157.656 52.8751 157.656C54.6928 157.656 56.9237 155.874 57.8829 155.026C58.8699 153.968 60.116 153.172 61.6621 152.6C62.6965 152.319 63.2185 152.376 70.179 152.376C70.5068 152.376 70.666 151.978 70.4353 151.751L70.4345 151.752Z" fill="#005F05"/>
<path d="M42.0519 90.2935C41.673 86.9742 41.8132 83.8491 43.3907 81.1685C43.5805 80.8524 43.9149 80.494 44.3076 80.1779C44.7128 79.9078 45.1894 79.7654 45.7326 79.7625C49.2358 79.3055 52.9019 79.2793 56.6285 79.6844C56.8286 79.7048 57.0089 79.5618 57.0308 79.361C57.0527 79.1603 56.9081 78.9807 56.7074 78.9588C52.9209 78.5478 49.1971 78.5748 45.6851 79.0354C45.0442 79.0354 44.4273 79.2209 43.8762 79.5895C43.5959 79.8136 43.079 80.2684 42.7622 80.7955C41.0628 83.6855 40.927 86.9961 41.3365 90.4672C41.5081 90.4008 41.7526 90.3439 42.0512 90.2942L42.0519 90.2935Z" fill="#005F05"/>
<path d="M58.8206 89.5437C55.8633 89.3919 52.9594 88.6334 50.1905 87.2887C50.1029 87.2457 50.0014 87.2406 49.9102 87.2727C49.7503 87.3289 49.7686 87.2814 48.5195 89.9459C48.8312 89.9408 49.1101 89.9365 49.343 89.9313C49.6021 89.3809 49.8883 88.7743 50.2051 88.1034C52.9616 89.3926 55.8458 90.1219 58.7833 90.2723C58.9688 90.2839 59.1564 90.1277 59.1666 89.9262C59.1768 89.7248 59.022 89.5539 58.8206 89.5437Z" fill="#005F05"/>
<path d="M49.4598 93.1133C49.8161 92.1118 50.1694 91.0759 50.3884 89.9805C50.4358 89.741 50.2402 89.5235 49.9985 89.5447C49.1963 89.6162 42.1394 89.522 40.9896 90.2294C40.8575 90.3104 40.7911 90.4674 40.8246 90.6192C40.9904 91.3628 41.3064 91.9935 41.5459 92.7097C41.5561 92.7403 41.5707 92.7702 41.5882 92.7972C41.7306 93.0104 41.7897 93.444 41.397 93.8375C40.6458 94.5887 39.9662 95.5508 39.4194 96.648C38.3025 99.4841 39.3654 102.631 41.9554 104.135C43.9213 105.2 46.3632 104.991 48.5225 104.409C49.0152 104.31 49.5416 104.029 49.9212 103.647C50.5037 102.919 50.1621 101.945 49.7518 101.808C49.5416 101.738 49.3729 101.657 49.1364 101.577C49.0087 101.473 48.8897 101.503 48.6867 101.216C48.913 101.341 49.1605 101.415 49.4452 101.411C50.2059 101.316 50.9322 100.841 51.2841 100.224C52.9478 97.7291 52.0513 94.4054 49.4613 93.1126L49.4598 93.1133ZM50.6614 99.841C50.4103 100.28 49.8847 100.621 49.3985 100.684C49.0028 100.684 48.5736 100.283 48.713 99.9133C48.8641 99.5096 48.3071 99.222 48.0677 99.5826C47.4801 100.464 47.764 101.657 48.6685 102.158C48.7751 102.219 48.8174 102.258 48.924 102.276C49.1036 102.338 49.2415 102.402 49.424 102.468C49.5576 102.659 49.5328 102.965 49.3788 103.161C49.1299 103.409 48.7283 103.623 48.3568 103.698C45.8419 104.376 43.806 104.306 42.3138 103.498C40.0472 102.182 39.1164 99.414 40.0866 96.9451C41.3765 94.366 42.4168 94.347 42.4168 93.3053C42.4168 93.0564 42.4168 92.7498 42.2255 92.4359C42.0262 91.849 41.7715 91.2964 41.6145 90.7543C42.9876 90.3499 48.1633 90.3258 49.5744 90.2922C49.3379 91.2883 48.9948 92.2497 48.6619 93.1834C48.5962 93.3666 48.686 93.5689 48.8656 93.6433C51.2498 94.6296 52.1652 97.5758 50.6636 99.841H50.6614Z" fill="#005F05"/>
<path d="M95.9147 43.3471C95.4161 43.1478 94.8803 43.0836 94.489 43.1639C83.574 43.9435 73.1401 46.9621 65.3226 49.6609C63.2881 50.3632 59.7133 51.3538 54.9237 53.8686C53.206 54.7278 50.5394 56.4689 49.6181 57.7018C45.0527 58.153 41.4195 52.4159 39.2389 48.8988C36.5343 44.537 36.1751 44.483 36.2489 44.483C32.3047 39.6533 26.7494 36.5472 20.6064 35.7391C20.1998 35.6902 20.029 36.2442 20.3955 36.4275C20.9021 36.6808 21.186 37.2414 21.0817 37.7232C20.851 38.4152 20.4874 38.954 19.9991 39.3051C18.5332 40.6169 16.7272 41.3498 14.7766 41.425C14.3219 41.4426 14.3065 42.1163 14.7606 42.1536C18.5288 42.4675 22.1788 43.0843 25.9186 44.0392C29.4745 44.967 32.4543 47.1804 34.3063 50.2668C35.2444 51.9093 35.8897 53.835 37.1044 55.2921C39.1805 57.8719 43.3678 59.5999 47.1317 59.6802C39.3003 61.8942 33.3573 57.1434 26.0916 55.498C18.0215 53.6606 9.53963 55.9382 3.4025 61.5906C3.10977 61.8607 3.4025 62.3388 3.77626 62.2016C5.05303 61.73 6.31593 63.3645 6.44733 64.7398C6.60428 66.3078 6.11883 68.0387 6.61888 69.7074C6.75612 70.1644 7.45767 69.9695 7.31824 69.4979C6.91964 68.1686 10.1674 65.2486 10.9456 64.4033C12.6407 62.6345 14.8891 61.3029 17.4718 60.7153C24.1623 59.194 29.2226 62.1096 33.1018 63.0798C39.1535 64.7865 44.887 64.028 49.4407 60.9569C49.8349 60.9358 50.3298 60.8007 50.9306 60.3861C53.09 58.8947 55.8216 58.1829 58.4679 57.4923C62.6406 56.4046 72.3634 53.0707 92.9202 49.1813C93.7933 49.0163 96.2096 49.2098 97.1287 48.3819C98.1704 47.4453 97.217 44.0859 95.9147 43.3471Z" fill="#005F05"/>
<path d="M109.339 25.0475C108.937 24.5452 108.244 24.2634 107.687 24.3583C106.35 24.4416 105.089 25.0117 104.137 25.9622C102.712 27.3265 101.343 29.4019 99.9539 32.3081C99.8385 32.5504 100.015 32.8307 100.283 32.8307C100.984 32.8307 100.467 31.0817 104.861 29.0837C106.113 28.5077 110.741 27.4156 109.339 25.0475ZM104.557 28.4201C103.817 28.7566 102.93 29.2048 102.102 29.818C102.945 28.4091 103.795 27.3178 104.644 26.4878C105.493 25.6578 106.584 25.1592 107.771 25.0832C108.107 25.027 108.527 25.2022 108.738 25.4599C109.572 26.8849 105.77 27.8616 104.557 28.4201Z" fill="#005F05"/>
<path d="M122.055 31.4509C120.33 30.3004 117.137 30.2413 115.223 30.607C112.756 31.0779 110.528 31.9137 108.401 33.0949C108.025 33.3036 108.261 33.8796 108.676 33.7657C114.016 32.2882 118.545 35.1805 120.891 35.1805C122.748 35.1805 124.618 33.1584 122.055 31.4509ZM121.949 34.149C121.048 34.7972 119.563 34.2154 118.591 33.9278C116.044 33.1744 113.679 32.4641 111.04 32.6269C112.409 32.059 113.838 31.6283 115.36 31.3232C117.361 30.9903 120.181 31.0793 121.649 32.0575C122.248 32.4568 122.579 32.8839 122.582 33.2598C122.585 33.5584 122.37 33.846 121.949 34.1483L121.949 34.149Z" fill="#005F05"/>
<path d="M72.8794 65.9705C66.4744 65.9705 69.29 54.5562 74.1219 54.4613C74.9205 54.3715 75.8206 54.7278 76.3768 55.3738C79.0136 58.2522 77.4149 65.9705 72.8794 65.9705ZM74.3518 55.1789C70.3646 55.1789 68.0118 63.8761 71.7895 65.066C76.3104 66.4786 78.3413 58.7683 75.8271 55.8541C75.4687 55.438 74.8957 55.1789 74.3518 55.1789Z" fill="#005F05"/>
<path d="M83.6794 62.6869C80.1119 61.7744 77.8773 58.0981 79.2439 54.7671C80.1382 52.5486 81.7631 52.6486 82.6523 52.9056C85.3146 53.6758 88.0455 57.6032 87.6039 60.0275C86.9469 63.7111 83.5998 62.6869 83.6794 62.6869ZM83.859 61.9795C85.4226 62.3744 86.5622 61.7116 86.8856 59.8983C87.4542 56.7746 81.6814 50.6682 79.9199 55.0423C78.7212 57.9645 80.7346 61.1904 83.859 61.9795Z" fill="#005F05"/>
<path d="M77.4659 58.222C77.4243 56.9408 75.5679 55.6363 74.2656 56.9386C73.5079 57.6956 73.421 59.0118 74.0926 59.9681C75.392 61.4296 77.5134 59.6944 77.4659 58.222Z" fill="#005F05"/>
<path d="M85.6349 56.222C85.5809 55.1489 83.8661 53.5765 82.4989 54.9489C81.6688 55.6869 81.5404 57.0089 82.2317 57.993C83.5376 59.4617 85.7036 57.5703 85.6349 56.222Z" fill="#005F05"/>
<path d="M86.2207 65.45C86.0382 65.3631 85.8206 65.4405 85.7338 65.6223C82.924 71.5236 71.817 71.2265 67.7809 64.9609C67.8896 64.9689 67.9984 64.9937 68.1043 65.0354C68.2904 65.1091 68.5036 65.0171 68.5773 64.8295C68.8927 64.0265 66.4859 63.8177 65.9807 65.488C65.9099 65.7223 66.0851 65.9588 66.3304 65.9588C66.4873 65.9588 66.6319 65.8566 66.68 65.6997C66.7435 65.4901 66.8749 65.3062 67.0523 65.1741C71.2725 72.0645 83.2912 72.45 86.393 65.9369C86.4798 65.7544 86.4024 65.5369 86.2207 65.45Z" fill="#005F05"/>
<path d="M88.1942 116.664C79.8897 116.664 73.1328 109.765 73.1328 101.286C73.1328 92.8075 79.8897 85.9089 88.1942 85.9089C96.4987 85.9089 103.256 92.8075 103.256 101.286C103.256 109.765 96.4994 116.664 88.1942 116.664ZM88.1942 86.6389C80.2919 86.6389 73.8628 93.2097 73.8628 101.286C73.8628 109.363 80.2919 115.934 88.1942 115.934C96.0964 115.934 102.526 109.363 102.526 101.286C102.526 93.2097 96.0964 86.6389 88.1942 86.6389Z" fill="#005F05"/>
<path d="M104.668 120.005C103.996 117.232 104.038 117.369 103.994 117.296C103.419 116.338 102.623 116.469 102.494 116.496C96.6141 117.722 91.5881 118.998 87.1314 120.377C86.4846 120.577 86.1452 121.154 86.2605 121.837L86.8869 124.419C86.9913 125.047 87.6037 125.472 88.3461 125.348C92.9605 124.425 98.0435 123.265 103.798 121.465C104.444 121.263 104.784 120.688 104.669 120.006L104.668 120.005ZM88.2133 124.63C87.9359 124.678 87.6534 124.571 87.6008 124.272L86.9745 121.69C86.9241 121.39 87.0599 121.163 87.3468 121.074C90.8924 119.974 94.838 119.04 99.2582 117.995L100.232 121.721C95.844 122.937 91.8844 123.895 88.2133 124.63ZM103.579 120.768C102.686 121.048 101.799 121.283 100.935 121.526L99.9685 117.828C100.841 117.624 101.732 117.418 102.643 117.211C102.986 117.157 103.239 117.475 103.34 117.627L103.952 120.152C104.002 120.452 103.866 120.678 103.578 120.769L103.579 120.768Z" fill="#005F05"/>
<path d="M82.506 126.303C81.4336 126.303 80.5605 125.395 80.5605 124.279C80.5605 123.162 81.4329 122.254 82.506 122.254C83.5791 122.254 84.4514 123.162 84.4514 124.279C84.4514 125.395 83.5791 126.303 82.506 126.303ZM82.506 122.984C81.8359 122.984 81.2905 123.565 81.2905 124.279C81.2905 124.992 81.8359 125.573 82.506 125.573C83.1761 125.573 83.7214 124.992 83.7214 124.279C83.7214 123.565 83.1761 122.984 82.506 122.984Z" fill="#005F05"/>
<path d="M90.0114 91.8351C88.4594 91.8351 87.1973 93.0973 87.1973 94.6493C87.1973 96.2012 88.4594 97.4634 90.0114 97.4634C91.5634 97.4634 92.8256 96.2012 92.8256 94.6493C92.8256 93.0973 91.5634 91.8351 90.0114 91.8351Z" fill="#005F05"/>
<path d="M84.5604 97.4145C82.9799 97.4145 81.4791 98.2839 80.768 99.7848C80.4519 100.654 81.0973 101.784 82.1112 101.207C82.912 100.751 83.1347 99.971 84.2443 100.101C85.1108 100.202 85.6663 100.891 85.5875 101.76C85.5875 101.918 85.5087 102.076 85.4298 102.314C84.0049 106.588 81.5645 106.181 80.6104 106.818C80.2154 107.291 80.2943 108.003 80.768 108.319L80.8469 108.398C81.4002 108.714 81.9492 108.857 82.585 108.714C83.3712 108.538 84.1655 108.319 84.7976 107.845C85.4298 107.45 86.062 106.759 86.8519 106.739C93.1342 106.582 91.8932 108.967 93.4102 109.346C93.7263 109.425 94.1212 109.268 94.3584 109.03C94.9906 108.24 94.2796 106.739 93.7263 106.185C92.9364 105.474 90.8333 105.244 91.1187 103.973C91.207 103.58 91.2764 103.262 91.4348 102.946C92.1517 101.511 93.8971 103.006 95.6228 100.417C95.9389 99.9432 96.0177 99.4687 96.0177 98.9154C95.9389 98.2832 95.3147 97.351 94.5957 97.7299C94.2833 97.8949 94.1219 98.2832 93.8847 98.5993C91.7421 101.048 88.1965 97.1941 84.5611 97.4138L84.5604 97.4145Z" fill="#005F05"/>
<path d="M71.5219 81.9283C71.2058 81.2961 70.189 81.3085 69.705 81.691C69.3954 81.9363 69.2312 82.3232 69.1516 82.7181C68.8355 82.4809 68.4406 82.2444 68.0457 82.1648C67.3346 82.086 66.7025 82.5597 66.6236 83.1919C66.5448 83.5868 66.7076 83.8993 66.9397 84.219C67.5055 85.0001 68.8363 85.4045 69.705 85.7206C70.1167 85.9265 70.635 85.7082 70.8905 85.3257C71.3416 83.973 71.9483 82.9225 71.5219 81.9283Z" fill="#005F05"/>
<path d="M86.2196 77.7898C86.2984 78.0271 86.4569 78.1848 86.5357 78.422C86.7729 78.7381 87.2467 78.8958 87.6416 78.8958C87.9577 78.8958 88.2738 78.7381 88.6688 78.7381C89.3798 78.7381 89.9331 79.2119 90.1704 79.8441C90.3791 80.0528 89.9893 80.2244 89.7039 80.2996C88.2789 80.6741 86.8547 81.0413 85.4297 81.2661C85.1925 80.239 85.0348 79.2119 84.8764 78.1848C84.7976 78.1059 84.8764 77.9475 84.9552 77.9475C85.0669 77.9475 84.8742 77.984 86.0612 77.7103L86.2189 77.7891L86.2196 77.7898Z" fill="#005F05"/>
<path d="M85.996 82.662C85.5712 82.662 85.4923 82.0532 85.9026 81.9444L86.6961 81.7327C86.8917 81.6809 87.091 81.7962 87.1428 81.9911C87.1947 82.1861 87.0793 82.3861 86.8844 82.4379C86.1406 82.6357 86.0705 82.662 85.996 82.662Z" fill="#005F05"/>
<path d="M88.4081 82.0611C87.9781 82.0611 87.9051 81.4414 88.3234 81.3414L90.1002 80.915C90.2951 80.8676 90.493 80.9888 90.5404 81.1844C90.5871 81.3808 90.4667 81.5771 90.2703 81.6246C88.4395 82.0633 88.4811 82.0611 88.4081 82.0611Z" fill="#005F05"/>
<path d="M74.2089 82.3722C73.7789 82.3722 73.7059 81.7524 74.1242 81.6524L78.075 80.7042C78.2706 80.6574 78.4684 80.7779 78.5151 80.9735C78.5619 81.1692 78.4414 81.3663 78.245 81.4137C74.4089 82.3328 74.2833 82.3722 74.2089 82.3722Z" fill="#005F05"/>
<path d="M74.6037 84.584C74.173 84.584 74.1007 83.9642 74.519 83.8642L79.8129 82.5998C80.0093 82.5538 80.2064 82.6743 80.2531 82.8699C80.2998 83.0663 80.1787 83.2627 79.983 83.3101C74.27 84.6752 74.6781 84.584 74.6037 84.584Z" fill="#005F05"/>
<path d="M92.6193 77.6314C92.1879 77.6314 92.1163 77.0102 92.5361 76.9109L97.9089 75.6466C98.1052 75.6006 98.3016 75.7218 98.3483 75.9181C98.3943 76.1145 98.2731 76.3109 98.0768 76.3569C92.3309 77.7117 92.6937 77.6307 92.62 77.6307L92.6193 77.6314Z" fill="#005F05"/>
<path d="M93.0942 79.8441C92.673 79.8441 92.589 79.2441 92.9942 79.128L96.3127 78.1797C96.5055 78.125 96.7084 78.2367 96.7639 78.4301C96.8194 78.6236 96.7069 78.8258 96.5128 78.8813C92.9365 79.9033 93.1672 79.8434 93.0934 79.8434L93.0942 79.8441Z" fill="#005F05"/>
<path d="M61.1895 80.9749C60.7617 80.9749 60.6858 80.3602 61.1012 80.2559L100.402 70.3549C100.598 70.3074 100.796 70.4242 100.845 70.6206C100.893 70.8162 100.774 71.0148 100.58 71.0637L61.1888 80.9756L61.1895 80.9749Z" fill="#005F05"/>
</svg>
