<svg width="450" height="450" viewBox="0 0 450 450" fill="none" xmlns="http://www.w3.org/2000/svg">
<path d="M11.3626 388.818C32.364 370.586 52.4993 351.342 73.0125 332.566C93.5258 313.79 164.113 250.715 169.724 245.14C170.764 244.107 169.247 242.714 168.158 243.574C155.385 253.638 52.3193 348.727 44.7548 355.835C33.3563 366.547 22.0231 377.359 11.1376 388.593C10.9936 388.741 11.2096 388.949 11.3603 388.816L11.3626 388.818Z" fill="#4C2FB3"/>
<path d="M58.3045 392.787C95.4925 363.611 179.982 293.425 224.341 256.576C231.086 250.974 238.09 245.554 244.282 239.33C245.212 238.396 243.985 236.668 242.833 237.454C236.394 241.846 230.488 247.012 224.498 251.986C218.448 257.013 70.9382 380.605 57.733 392.215C57.3347 392.566 57.9062 393.1 58.3045 392.787Z" fill="#4C2FB3"/>
<path d="M125.251 375.786C134.8 368.802 261.7 268.067 276.91 253.978C277.686 253.258 276.651 251.858 275.76 252.486C258.521 264.658 115.187 383.146 125.251 375.786Z" fill="#4C2FB3"/>
<path d="M82.483 425.632C88.4702 421.429 94.093 416.664 99.817 412.112C105.676 407.452 256.635 292.149 262.906 286.699C263.77 285.948 262.654 284.542 261.691 285.127C236.045 300.694 102.877 405.565 82.2917 425.385C82.1657 425.506 82.3345 425.738 82.483 425.632Z" fill="#4C2FB3"/>
<path d="M433.359 43.2334C434.212 42.3582 433.242 40.9362 432.117 41.4109C429.127 42.6687 426.505 44.7522 424.57 47.3487C417.906 39.6649 408.292 40.1172 399.026 43.7779C400.365 42.0162 401.564 40.2387 401.978 38.1282C402.691 34.4944 400.75 30.4444 397.251 28.2799C394.391 26.5069 390.591 25.9219 386.543 26.6194C367.229 29.9697 350.68 49.6684 340.65 66.5097C341.12 67.1959 341.582 67.8912 342.032 68.5887C351.754 52.0242 368.069 32.1072 386.928 28.8379C395.618 27.3304 400.745 32.7439 399.769 37.6939C399.422 39.4647 398.302 41.0284 396.983 42.7452C390.928 50.6202 382.817 60.8172 373.781 69.8667C366.05 77.6089 359.262 86.4019 353.603 95.9419C353.842 97.0669 354.053 98.1965 354.238 99.3305C355.711 96.734 357.268 94.1914 358.902 91.7119C358.357 97.1007 358.348 102.777 359.896 107.986C359.944 108.144 360.176 108.112 360.18 107.948C360.475 99.38 360.247 95.2827 362.2 86.9352C366.178 81.4407 370.557 76.2859 375.287 71.5384C374.877 73.5927 374.618 75.6874 374.53 77.8362C374.463 79.4764 374.429 84.0597 375.327 85.5222C375.426 85.6864 375.714 85.7202 375.804 85.5222C376.695 83.5962 376.061 76.9474 379.204 67.4929C385.558 60.7362 391.336 53.6509 396.119 47.5287C397.309 46.9414 398.491 46.4037 399.634 45.9402C394.434 52.6947 389.612 61.2559 390.737 69.7047C390.769 69.9297 391.124 70.0377 391.178 69.7632C394.456 53.1897 402.266 46.9257 403.544 44.5744C411.145 42.3807 418.381 43.1952 423.286 49.3219C423.02 49.7944 422.777 50.2782 422.557 50.7732C421.832 52.3954 424.197 54.0874 425.875 53.8129C427.322 57.5569 427.268 61.4832 425.7 64.6894C423.58 69.0229 419.231 72.0177 415.305 74.9179C395.721 89.39 379.564 108.119 367.96 129.188C368.707 129.343 369.448 129.501 370.188 129.658C380.957 110.412 396.794 91.3812 416.644 76.7269C420.46 73.9099 424.377 71.1604 426.845 67.2454C427.835 68.0712 428.735 69.0319 429.507 70.1412C437.362 81.4227 421.276 88.5349 408.872 97.3032C395.896 106.472 385.513 119.004 379.512 131.733C380.252 131.904 380.986 132.075 381.715 132.248C398.138 97.5507 430.713 92.297 433.636 78.2682C434.628 73.5027 431.98 68.4177 427.93 65.2339C429.511 61.6834 429.579 57.4759 428.139 53.4507L433.6 52.5754C435.31 52.2987 436.106 51.4797 435.911 49.7584C435.863 49.3647 435.838 49.3962 436.14 48.9304C438.307 45.5239 434.122 44.5452 433.361 43.2379L433.359 43.2334ZM434.493 47.2497C434.477 47.3464 434.351 47.5444 434.241 47.7199C433.67 48.6132 433.568 49.0564 433.674 50.0127C433.685 50.1027 433.699 50.2264 433.742 50.2332C433.487 50.3457 433.01 50.3907 425.471 51.5967C425.306 51.5854 424.998 51.4437 424.791 51.2997C426.209 48.3477 428.558 45.8592 431.411 44.2594C431.784 45.0492 432.479 45.6814 433.069 46.0324C433.474 46.2732 434.547 46.9144 434.493 47.2497Z" fill="#4C2FB3"/>
<path d="M148.808 121.963L141.853 127.809C141.415 128.178 141.325 128.817 141.64 129.294C142.585 130.713 143.554 132.117 144.549 133.506C134.986 128.589 125.622 123.237 116.572 117.504C116.302 117.333 115.974 117.283 115.668 117.371C114.995 117.558 115.276 117.301 110.833 126.263C109.705 128.533 110.072 130.002 112.516 131.314C129.015 140.157 145.456 146.85 153.769 149.919C153.963 149.168 154.159 148.416 154.359 147.667C140.38 142.512 126.686 136.356 113.575 129.332C113.249 129.156 112.57 128.794 112.48 128.448C112.376 128.049 112.552 127.856 116.422 120.073C129.132 128.061 142.443 135.308 156.058 141.655C156.274 140.928 156.494 140.204 156.717 139.479C154.138 138.276 151.571 137.038 149.017 135.769C147.301 133.519 145.649 131.224 144.07 128.886L149.119 124.645C151.369 129.51 153.999 134.19 156.978 138.642C157.228 137.835 157.547 136.896 158.074 136.217C155.214 131.809 152.698 127.179 150.559 122.373C150.246 121.673 149.364 121.502 148.806 121.97L148.808 121.963Z" fill="#4C2FB3"/>
<path d="M167.555 110.66C167.404 107.858 166.068 106.664 163.44 107.352L155.403 109.445C154.852 109.589 154.494 110.122 154.573 110.689C155.725 118.98 157.549 127.172 160.02 135.167C160.675 135.108 161.473 135.205 162.468 135.457C159.982 127.595 158.13 119.534 156.94 111.371C164.41 109.427 164.7 109.294 164.954 109.42C165.782 109.832 165.008 119.86 169 137.237L171.472 137.903C169.364 128.963 168.048 119.828 167.553 110.662L167.555 110.66Z" fill="#4C2FB3"/>
<path d="M119.045 140.661C117.722 143.55 116.831 146.592 116.384 149.726C103.291 153.108 90.918 156.902 78.651 161.289C77.076 161.856 76.3943 162.569 76.3088 164.462C76.1693 167.483 76.446 170.507 77.1323 173.453C77.2515 173.959 77.7015 174.321 78.228 174.321C78.912 174.321 93.3098 169.873 108.261 164.718C109.852 165.206 111.656 165.382 117.403 166.127L93.2468 181.071C92.7203 181.402 91.3185 182.282 91.431 183.798C91.512 184.849 92.2568 185.45 92.8013 185.891C93.4245 186.392 93.4425 186.422 93.6338 187.2C93.7665 187.733 93.9285 188.399 94.4258 188.957C94.959 189.56 95.661 189.86 96.48 189.86C97.9875 189.86 97.7693 190.051 111.769 180.736C111.737 181.636 111.809 182.486 111.998 183.247C106.88 189.783 101.786 196.364 96.831 202.86C96.4508 203.357 96.5498 204.08 97.065 204.453C101.781 207.878 101.718 207.959 102.254 207.959C102.566 207.959 102.875 207.828 103.095 207.581C109.235 200.66 115.335 193.556 121.295 186.392L135.619 185.245L116.494 198.644C115.049 199.656 114.962 200.959 116.258 202.246C116.345 202.334 116.431 202.417 116.514 202.502C114.694 203.517 112.883 204.541 111.085 205.583C108.479 207.092 109.379 208.247 111.465 215.989C111.598 216.482 112.046 216.821 112.55 216.821C113.58 216.821 131.364 208.287 148.192 199.001L146.718 198.653C146.736 198.182 146.756 197.71 146.774 197.237C135.848 203.297 124.628 208.955 113.29 214.124C112.275 210.355 111.58 208.134 111.717 207.882C111.942 207.47 129.098 197.775 147.22 189.655C147.283 188.802 147.353 187.949 147.425 187.099C137.639 191.428 127.971 196.209 118.566 201.368L117.722 200.529L140.047 184.889L147.69 184.273C147.764 183.515 147.843 182.756 147.926 182C116.001 184.604 116.271 184.707 115.358 184.302C113.114 183.308 114.248 177.995 114.613 177.712C115.056 177.365 131.4 174.668 148.957 173.914C149.067 173.156 149.184 172.397 149.301 171.641C140.027 171.997 130.734 172.865 121.547 174.233L131.132 167.875C138.589 168.806 145.78 169.679 149.549 170.1C149.67 169.349 149.798 168.597 149.927 167.848C137.493 166.442 124.943 164.887 112.57 163.222C115.335 162.25 118.076 161.264 120.708 160.292C121.835 159.878 122.49 159.332 122.726 158.454C146.529 161.15 138.872 159.876 150.782 163.188C150.923 162.45 151.072 161.712 151.223 160.976C141.311 158.218 131.418 155.158 121.687 151.839C121.408 151.007 121.086 150.242 120.717 149.524C120.479 149.058 119.95 148.822 119.444 148.948L118.757 149.121C119.153 146.844 119.801 144.626 120.699 142.49L153.214 152.138C153.394 151.409 153.576 150.68 153.763 149.954L120.389 140.051C119.853 139.896 119.279 140.153 119.045 140.661ZM118.154 186.635C112.878 192.947 107.501 199.204 102.085 205.319L99.3173 203.308C103.84 197.388 108.47 191.401 113.13 185.447C114.635 187.052 116.696 186.748 118.154 186.635ZM116.129 175.1C113.976 175.466 112.786 175.507 112.201 177.698L98.397 186.831C97.3575 187.522 96.3923 187.787 96.1065 187.461C95.9783 187.319 95.9018 186.998 95.8185 186.662C95.7015 186.192 95.571 185.657 95.229 185.155C94.6553 184.313 93.7913 183.942 93.6743 183.643C93.7553 183.319 93.618 183.479 120.942 166.586L127.701 167.445L116.129 175.1ZM120.548 157.874C120.274 158.297 97.686 166.241 79.074 171.772C78.5048 168.809 78.3518 164.201 78.7028 163.755C79.0988 163.26 99.2183 156.391 119.095 151.355C120.047 153.554 120.751 157.57 120.548 157.874Z" fill="#4C2FB3"/>
<path d="M96.1853 195.912C95.436 195.142 94.6485 194.411 93.861 193.678C91.4153 191.403 91.4783 191.167 90.765 191.167C90.45 191.176 90.1553 191.315 89.9483 191.554C80.046 202.927 70.5398 214.632 61.695 226.345C61.299 226.872 61.4385 227.628 61.9965 227.977C69.5903 232.726 69.165 232.546 69.6263 232.546C69.9705 232.546 70.3103 232.387 70.5285 232.092L96.282 197.363C96.6105 196.92 96.5678 196.306 96.1853 195.912ZM69.3405 229.918L64.233 226.723C72.5985 215.689 81.5445 204.671 90.855 193.939C91.9103 194.96 92.9025 195.838 93.897 196.805L69.3405 229.918Z" fill="#4C2FB3"/>
<path d="M99.8392 215.957C97.9177 215.381 95.8815 215.26 94.5112 215.26C94.0657 215.26 93.6607 215.523 93.4807 215.932C91.2937 220.912 82.3522 240.898 80.1652 245.882C79.3462 247.741 79.9762 249.023 81.8797 249.417C86.3415 250.344 88.3732 251.48 90.2047 247.307C94.2817 238.014 97.9965 228.425 101.248 218.806C101.747 217.318 101.198 216.364 99.8415 215.955L99.8392 215.957ZM88.1415 246.404C87.336 248.238 86.9895 248.182 85.7385 247.923C82.5502 247.264 82.242 247.198 82.0822 247.156C82.2037 246.722 93.5302 221.404 95.2402 217.523C96.5992 217.57 97.9087 217.759 99.108 218.099C95.8792 227.65 92.1915 237.175 88.1415 246.404Z" fill="#4C2FB3"/>
<path d="M58.8283 251.773C57.3118 250.661 53.3855 254.961 16.5756 265.311C16.0491 265.459 15.7071 265.963 15.7611 266.506L16.1503 270.414C16.3123 272.029 17.0526 273.049 18.6771 273.049C24.5855 273.049 50.4065 264.499 56.0608 262.528C59.483 261.333 58.7135 259.958 59.285 252.772C59.3165 252.382 59.1455 252.007 58.8305 251.775L58.8283 251.773ZM55.3183 260.399C49.9948 262.255 23.8273 270.859 18.5129 270.81C18.3554 270.585 18.1888 268.173 18.0921 267.219C33.104 262.973 45.5173 258.871 56.9135 254.383C56.5468 260.226 56.882 259.855 55.3183 260.399Z" fill="#4C2FB3"/>
<path d="M192.073 209.007C177.376 204.995 162.605 201.235 147.874 197.764C148.673 177.748 152.118 157.912 158.107 138.789C158.888 136.3 159.48 135.794 162.529 136.633C165.98 137.585 173.394 139.549 182.396 141.916C180.263 136.505 178.787 131.06 178.015 125.761C171.992 128.241 166.084 130.993 160.319 134.01C157.792 134.059 156.708 135.736 155.961 138.116C149.816 157.725 146.329 178.076 145.591 198.607C145.523 200.538 145.987 198.785 190.771 210.985C191.185 210.314 191.619 209.655 192.073 209.007Z" fill="#4C2FB3"/>
<path d="M230.656 153.592C230.616 152.98 230.636 152.35 230.679 151.713C227.583 148.066 224.406 144.493 221.112 141.034C210.787 138.188 208.217 137.702 205.709 135.769C203.679 134.206 202.259 131.564 202.889 129.082C203.209 127.822 203.967 126.812 204.901 125.899C202.669 123.986 196.268 118.602 191.592 113.821C195.892 135.394 209.79 157.194 229.68 171.124C232.76 168.41 235.874 165.735 239.022 163.105C234.691 161.597 230.949 158.071 230.656 153.592Z" fill="#4C2FB3"/>
<path d="M215.37 184.28C215.939 183.733 216.509 183.188 217.082 182.646C200.491 171.875 186.62 155.113 180.833 133.495C176.803 118.44 177.374 102.161 188.183 90.9317C189.232 91.681 190.332 92.3357 191.401 92.9455C190.197 94.5475 189.038 96.181 187.929 97.8482C183.542 104.445 184.529 107.636 187.92 111.488C192.596 116.795 198.011 121.475 203.283 125.993C200.243 129.659 201.706 134.107 205.022 136.663C207.785 138.794 210.742 139.345 220.514 142.038C223.637 145.325 226.638 148.698 229.531 152.093C229.507 152.618 229.5 153.146 229.531 153.668C229.858 158.654 233.937 162.32 238.021 163.942C238.691 163.377 239.364 162.817 240.037 162.254C235.973 161.093 232.054 157.781 231.775 153.52C231.579 150.48 233.048 146.511 230.654 143.676C229.012 141.734 227.691 141.685 213.041 137.646C210.697 137 208.274 136.332 206.39 134.881C204.802 133.657 203.438 131.474 203.976 129.362C204.62 126.83 207.693 125.28 209.878 123.082C216.513 125.64 226.013 127.557 232.459 128.867C233.975 129.175 232.378 128.392 237.159 133.974C241.486 139.021 248.366 145.166 254.916 150.397C255.539 149.92 256.165 149.445 256.79 148.97C241.821 137.072 232.909 128.135 224.775 109.328C204.239 61.8662 231.368 25.5715 270.9 25.5715C280.595 25.5715 290.551 27.8057 299.684 32.3462C334.042 49.4215 362.653 89.062 351.319 125.955C352.064 126.088 352.807 126.223 353.549 126.358C365.031 87.9595 335.428 47.5967 300.688 30.3302C280.136 20.1131 253.924 20.6801 235.762 34.7132C226.314 32.5352 209.315 31.4057 207.711 40.9682C207.396 42.8357 207.963 45.214 207.423 46.6787C205.821 51.0325 197.017 49.3697 191.783 54.781C189.311 57.337 188.15 61.8505 190.49 64.9825C191.97 66.9647 194.56 68.02 194.852 69.8065C195.116 71.395 193.34 72.916 191.453 73.6C189.25 74.3987 186.55 74.752 184.619 76.6465C181.744 79.4702 181.64 85.1875 186.422 89.5277C164.927 112.149 179.132 160.101 215.368 184.284L215.37 184.28ZM225.283 143.352C228.715 144.299 229.986 145.139 229.779 148.925C224.01 142.261 224.199 143.053 225.283 143.352ZM204.876 124.396C201.791 121.752 188.631 110.599 187.468 106.706C186.721 104.216 188.231 101.459 189.803 99.0947C190.942 97.3825 192.134 95.704 193.374 94.0615L196.988 96.0977C195.788 98.233 195.397 100.611 195.991 102.762C196.835 105.818 199.319 107.784 201.895 109.411C199.737 113.285 201.281 118.928 207.641 122.103C206.809 122.841 205.794 123.599 204.876 124.396ZM198.961 97.2092C204.86 100.535 205.569 100.834 206.028 101.491C207.158 103.113 205.117 105.008 203.155 107.548C200.867 106.108 198.803 104.497 198.16 102.164C197.694 100.474 198.113 98.719 198.961 97.2115V97.2092ZM186.161 85.8355C184.651 83.6057 184.253 80.1565 186.201 78.2462C187.643 76.8287 189.997 76.5137 192.222 75.7105C194.99 74.7115 197.564 72.3827 197.078 69.4352C196.605 66.5665 193.624 65.4077 192.296 63.6325C190.697 61.4905 191.628 58.1807 193.406 56.3425C198.205 51.379 207.358 53.386 209.54 47.4527C210.353 45.2477 209.619 43.207 209.936 41.3395C211.172 33.9752 226.136 35.0665 233.545 36.5312C207.441 59.065 212.605 98.206 231.417 126.353C225.157 125.08 210.017 122.117 205.668 118.085C203.841 116.393 202.543 113.425 203.6 111.031C205.229 107.334 212.9 102.483 205.54 98.3297C191.662 90.4975 188.334 89.044 186.165 85.8332L186.161 85.8355Z" fill="#4C2FB3"/>
<path d="M272.601 67.1177C273.735 66.1345 267.759 63.2882 265.736 63.835C263.282 64.8677 263.5 68.2157 266.362 68.461C269.737 68.7535 272.376 67.3135 272.601 67.1177Z" fill="#4C2FB3"/>
<path d="M289.962 46.9168C289.411 45.8728 287.802 45.4071 286.661 46.2868C286.13 46.6986 285.739 47.3511 285.777 48.0508C285.885 49.9813 287.096 52.7488 287.235 53.0166C287.478 53.4756 288.117 53.4103 288.373 53.0166C288.985 52.0851 290.567 48.8721 290.187 47.4546L289.962 46.9168Z" fill="#4C2FB3"/>
<path d="M316.519 58.7581C313.31 60.4861 313.949 61.4716 312.894 62.7879C312.685 63.0489 312.784 63.5776 313.204 63.5371C315.659 63.3076 315.117 64.6216 318.789 62.6439C319.275 62.3806 319.678 61.8249 319.822 61.2984C320.348 59.3881 318.31 57.7906 316.516 58.7581H316.519Z" fill="#4C2FB3"/>
<path d="M296.948 79.0872C296.206 78.5134 295.679 79.2582 291.908 82.6309C291.206 83.2564 290.963 84.7594 292.113 85.6482C293.031 86.3569 294.435 86.1792 295.083 85.0812C297.196 80.1942 297.632 79.6159 296.948 79.0872Z" fill="#4C2FB3"/>
<path d="M308.947 103.605C308.398 103.319 307.838 103.585 307.631 104.141C307.386 104.793 307.701 108.533 307.834 109.217C308.351 112.002 312.487 112.373 312.613 108.913C312.667 107.432 309.175 103.722 308.95 103.605H308.947Z" fill="#4C2FB3"/>
<path d="M334.294 85.5317C331.382 85.318 330.052 86.9245 329.13 87.1382C328.511 87.2845 328.511 88.2452 329.13 88.3915C329.168 88.4005 330.894 89.3545 332.316 89.8855C332.759 90.052 333.47 90.0407 334.235 90.0025C337.252 89.8472 337.392 85.7545 334.294 85.5317Z" fill="#4C2FB3"/>
<path d="M270.54 105.305C270.106 105.114 269.631 105.08 269.154 105.057C268.639 105.033 268.144 105.183 267.737 105.498C265.691 107.087 267.386 109.305 269.154 109.22C270.479 109.157 274.523 107.526 274.748 107.397C275.688 106.864 271.577 105.611 270.54 105.305Z" fill="#4C2FB3"/>
<path d="M394.468 205.237C387.88 211.28 371.666 225.277 355.698 238.84C352.453 229.736 339.824 225.628 331.951 234.189C333.007 234.099 334.087 234.153 335.128 234.349C342.468 228.307 352.431 233.5 353.99 241.058C354.163 241.891 355.167 242.244 355.819 241.688C366.179 232.897 387.65 214.592 396.047 206.791C395.48 206.33 394.952 205.808 394.468 205.237Z" fill="#4C2FB3"/>
<path d="M337.113 233.717C330.64 231.453 323.213 234.421 319.788 243.592L245.542 229.901C245.92 223.392 243.481 218.476 238.538 215.569L234.495 218.867C236.248 221.378 237.175 224.895 236.779 229.311C235.683 241.576 222.811 249.374 215.46 240.863C212.969 237.978 211.907 233.917 212.549 229.718C213.989 220.278 219.02 214.372 225.68 214.354C228.312 214.347 230.76 215.209 232.691 216.865C232.142 215.242 231.251 213.832 230.519 212.848C227.993 212.27 227.414 212.077 225.666 212.104C217.82 212.146 211.941 218.766 210.323 229.381C209.583 234.23 210.836 238.95 213.757 242.334C217.352 246.497 224.35 247.822 229.847 247.822C235.854 247.822 241.515 243.07 244.1 236.498L318.215 250.166C317.428 257.681 321.817 264.58 328.567 265.651C330.552 266.357 333.153 266.751 336.46 266.859C343.393 267.118 350.78 260.163 351.637 250.589C352.442 241.592 347.954 235.458 337.109 233.719L337.113 233.717ZM343.296 249.32C342.266 260.852 330.178 268.175 323.28 260.19C321.111 257.679 320.096 254.214 320.44 250.576L322.785 251.008C323.096 255.548 326.448 258.91 330.426 258.91C338.616 258.91 342.848 246.823 337.59 241.103C334.062 237.263 327.148 237.618 324.11 244.388L322.045 244.008C324.218 238.523 328.102 235.283 332.876 235.269C339.073 235.253 344.095 240.347 343.292 249.32H343.296ZM329.188 252.189C331.018 252.529 332.782 251.316 333.119 249.482C333.457 247.651 332.246 245.889 330.413 245.552L326.414 244.814C328.831 240.14 333.49 239.965 335.936 242.627C339.921 246.96 336.575 256.628 330.453 256.66C327.971 256.709 325.55 254.617 325.089 251.433L329.186 252.189H329.188Z" fill="#4C2FB3"/>
<path d="M215.163 228.667C214.252 234.646 218.257 239.398 223.086 239.398C231.696 239.398 236.165 226.669 230.627 220.647C226.269 215.908 216.907 217.242 215.163 228.667ZM230.751 228.654C230.366 232.972 227.045 237.145 223.088 237.145C219.708 237.145 216.671 233.698 217.389 229.005C218.052 224.649 220.383 220.343 224.708 220.343C228.209 220.343 231.237 223.216 230.751 228.654Z" fill="#4C2FB3"/>
<path d="M411.791 177.847C407.558 176.94 407.302 176.72 405.279 176.724C399.436 176.74 394.715 180.533 392.121 186.946L317.749 172.123C318.55 162.729 313.78 156.44 304.301 154.411C299.92 153.468 299.525 153.203 297.419 153.223C289.379 153.266 283.354 160.054 281.693 170.937C280.937 175.905 282.218 180.745 285.212 184.212C288.909 188.489 296.113 189.837 301.711 189.837C307.728 189.837 313.407 185.184 316.134 178.682L390.379 193.426C389.628 197.651 390.679 202.579 393.705 206.082C397.226 210.161 403.583 211.235 408.969 211.408C416.09 211.671 423.644 204.525 424.519 194.729C425.32 185.774 420.799 179.777 411.784 177.845L411.791 177.847ZM308.862 170.863C307.733 183.488 294.48 191.498 286.922 182.743C284.357 179.775 283.266 175.595 283.923 171.277C285.404 161.566 290.581 155.493 297.436 155.475C304.164 155.457 309.751 160.958 308.862 170.863ZM416.018 193.433C414.952 205.344 402.5 212.817 395.415 204.611C393.012 201.83 391.986 197.915 392.596 193.865L394.936 194.33C394.875 199.42 398.497 203.247 402.775 203.247C411.165 203.247 415.489 190.865 410.11 185.015C406.584 181.181 399.805 181.438 396.578 187.835L394.375 187.396C396.65 182.099 400.543 178.988 405.293 178.974C411.635 178.956 416.846 184.151 416.016 193.433H416.018ZM403.684 196.065C405.259 196.065 406.67 194.954 406.989 193.347C407.354 191.52 406.165 189.743 404.338 189.378L398.898 188.294C402.363 182.277 410.949 184.127 410.171 192.794C409.774 197.219 406.399 201.044 402.802 200.995C399.445 200.948 397.341 198.056 397.197 194.776L403.684 196.065Z" fill="#4C2FB3"/>
<path d="M302.49 161.986C297.97 157.072 288.43 158.62 286.664 170.208C285.728 176.357 289.845 181.19 294.77 181.19C303.57 181.19 308.167 168.162 302.49 161.986ZM302.67 170.192C302.022 177.437 294.662 181.694 290.549 176.931C289.127 175.284 288.522 172.957 288.891 170.545C290.84 157.747 303.624 159.563 302.67 170.192Z" fill="#4C2FB3"/>
<path d="M439.803 172.424C435.679 161.429 427.365 146.84 417.512 141.914C402.41 134.363 338.681 120.278 305.21 119.363C300.704 119.239 299.333 118.985 294.208 122.117C259.182 143.523 227.106 169.484 198.869 199.276C184.579 214.351 181.132 223.187 190.4 250.882C190.586 251.44 191.849 252.351 192.679 251.752C229.831 259.452 314.856 271.303 316.116 271.303C316.379 271.303 316.636 271.21 316.838 271.039C318.092 269.989 322.099 266.614 325.634 263.497C324.95 263.137 324.304 262.699 323.708 262.192C321.329 264.28 318.512 266.692 315.776 268.994C308.952 268.067 232.895 257.627 194.852 249.901C205.853 240.676 209.39 238.144 208.713 236.698C208.17 235.534 207.405 232.866 207.198 231.037C206.159 221.931 209.394 214.387 216.079 210.335C219.076 208.519 222.19 208.298 225.092 209.693C228.782 211.471 231.752 215.748 232.315 220.1C232.43 220.991 233.485 221.384 234.158 220.813C247.698 209.324 279.281 182.385 280.116 180.392C281.288 177.586 273.427 162.785 287.309 151.783C291.627 148.361 295.596 148.703 298.161 149.594C302.281 151.02 305.849 154.913 306.837 159.059C307.024 159.847 307.964 160.191 308.617 159.689L321.044 150.125C349.232 151.263 417.607 167.258 436.374 173.219L426.467 180.844C424.926 176.846 421.358 173.3 417.312 171.898C410.652 169.592 404.53 173.374 400.345 178.979C401.564 178.389 402.878 178.022 404.271 177.899C407.774 174.447 411.793 172.364 416.576 174.024C420.473 175.374 423.848 179.055 424.782 182.977C424.969 183.762 425.907 184.111 426.564 183.609C439.679 173.513 438.948 174.112 439.103 173.887C439.668 173.696 440.039 173.054 439.801 172.422L439.803 172.424ZM308.531 156.922C306.932 152.701 303.17 148.946 298.901 147.467C294.521 145.949 289.906 146.858 285.917 150.019C274.167 159.332 276.521 171.342 277.65 177.113C277.85 178.13 278.075 179.282 278.096 179.422C276.917 181.17 255.35 199.868 234.164 217.861C232.999 213.469 229.914 209.518 226.071 207.668C214.126 201.915 199.568 219.517 206.404 237.008C204.417 239.204 196.02 245.941 192.211 249.19C183.607 223.241 186.937 215.141 200.504 200.822C228.607 171.173 260.528 145.339 295.385 124.036C301.374 120.377 303.824 120.805 307.681 125.177C313.513 131.789 317.633 139.802 319.622 148.385L308.534 156.922H308.531ZM321.815 147.902C319.745 138.947 315.45 130.588 309.366 123.689C308.763 123.005 308.102 122.303 307.375 121.669C342.65 123.032 403.259 137.302 416.507 143.926C425.147 148.246 432.632 160.74 436.833 171.011C419.2 165.553 351.338 149.276 321.815 147.902Z" fill="#4C2FB3"/>
</svg>
