<svg width="154" height="154" viewBox="0 0 154 154" fill="none" xmlns="http://www.w3.org/2000/svg">
<path d="M102.021 32.4749C100.193 33.3955 98.8121 34.2839 98.3314 36.1099C98.1429 36.8251 98.1413 36.8396 97.9229 36.6878C96.865 35.9558 95.7995 35.1095 94.4504 35.3134C93.7766 35.4154 92.6352 35.8945 92.6636 36.5667C92.616 37.0251 93.076 37.1447 93.3995 36.8749C95.9206 34.773 98.5468 39.9488 99.134 37.692C99.2927 37.0842 99.1171 37.0535 99.5441 35.9665C100.214 34.2632 102.413 33.8194 102.906 33.0191C103.205 32.5339 102.633 32.166 102.02 32.4749H102.021Z" fill="white"/>
<path d="M17.153 108.704C16.5444 108.673 15.3815 109.076 14.3321 110.137C13.4291 111.051 13.8791 111.699 13.4 111.46C12.4587 110.99 11.3725 110.379 10.2388 110.399C8.16141 110.438 8.65507 112.034 9.48218 111.595C10.4365 111.088 12.1436 112.039 13.0727 112.546C15.2428 113.732 13.9987 111.513 15.6544 110.458C16.3443 110.019 16.9553 109.723 17.3707 109.397C17.6597 109.17 17.6912 108.731 17.153 108.704Z" fill="white"/>
<path d="M32.2931 103.864C32.1674 104.056 32.1605 104.048 31.9436 103.943C30.1675 103.083 29.9559 102.881 28.3707 102.726C28.015 102.807 27.4424 102.841 27.4907 103.329C27.5221 103.648 27.9268 103.758 28.2457 103.767C30.9647 103.84 32.1045 106.402 33.1309 104.612C33.9703 103.148 37.2289 101.595 37.13 101.333C36.7567 100.34 33.3793 102.214 32.2931 103.864Z" fill="white"/>
<path d="M117.669 36.3468C115.771 37.075 115.52 37.4951 114.773 38.71C113.893 38.1497 112.93 37.4912 111.754 37.6407C110.385 37.8139 110.981 39.2742 111.757 38.7553C112.427 38.3068 114.353 39.82 114.602 39.9672C115.045 40.2293 115.466 40.0806 115.656 39.5985C116.558 37.308 117.891 37.8002 118.492 36.9738C118.785 36.5698 118.39 36.0716 117.669 36.3483V36.3468Z" fill="white"/>
<path d="M119.884 24.8325C118.114 26.1655 118.342 26.8899 118.084 26.7067C117.172 26.0605 116.605 25.5891 115.775 25.5155C115.005 25.4994 114.65 25.97 114.844 26.3725C115.113 26.9298 115.315 26.3196 116.109 26.6898C117.458 27.3192 118.722 29.257 119.154 27.451C119.535 25.8558 121.838 25.1744 121.854 25.1667C122.584 24.7911 121.687 23.4742 119.885 24.8317L119.884 24.8325Z" fill="white"/>
<path d="M19.0977 96.5862C18.2468 96.1071 17.445 95.579 16.3596 95.7254C15.7463 95.8082 15.6298 96.5525 16.3803 96.5969C18.5933 96.7288 19.3537 99.1703 20.1977 96.876C20.5074 96.0343 21.6296 94.7281 21.8887 94.4445C23.4601 92.7205 23.5092 93.0202 23.8081 92.7297C24.1975 92.351 21.6334 91.9555 19.0985 96.5854L19.0977 96.5862Z" fill="white"/>
<path d="M85.9579 125.599C85.9579 122.526 86.1112 120.051 88.2652 117.798C91.0738 114.859 93.1044 114.264 95.7322 114.323C99.2698 114.402 102.14 115.518 104.379 118.258C106.442 120.782 106.03 121.167 106.418 120.396C108.452 116.353 112.084 113.823 115.462 113.143C120.798 112.07 127.94 117.149 127.609 122.369C127.472 124.539 125.278 128.884 125.977 128.907C129.552 129.024 132.202 129.574 136.35 133.705C137.208 134.559 138.45 136.338 138.625 137.509C138.735 138.245 139.112 138.18 141.909 138.887C145.235 139.728 146.594 139.942 147.907 141.243C148.996 142.322 148.516 143.829 147.35 144.53C144.762 146.087 142.225 146.174 139.501 146.133C130.358 145.993 126.871 146.49 103.769 145.735C92.3325 145.361 103.002 145.604 84.2906 145.02C59.2298 144.237 60.9063 145.051 57.5595 144.566C55.1694 144.22 51.7046 143.549 52.5539 141.288C53.0775 139.896 55.5236 139.529 57.2207 139.045C60.0623 138.236 60.7154 137.765 64.9015 137.704C66.7458 137.677 68.8194 137.945 69.057 136.11C69.3184 134.097 69.0386 133.486 69.7454 131.67C70.2973 130.252 71.9247 128.276 74.3339 127.119C78.6044 125.067 82.106 127.747 85.1362 129.577C85.7042 129.92 85.7969 130.125 85.8644 129.894C85.8874 129.816 86.0062 125.596 85.9571 125.596L85.9579 125.599ZM86.8647 129.565C86.8563 129.953 86.7735 130.324 86.6892 130.697C86.4163 131.896 85.1323 130.797 84.4876 130.406C80.3115 127.881 79.5848 127.348 76.9072 127.491C74.3094 127.631 71.313 130.138 70.5786 132.567C69.7262 135.383 71.3643 138.343 66.3173 138.556C64.0744 138.65 63.836 138.425 61.8323 138.75C59.3387 139.156 59.0505 139.581 54.8268 140.664C53.5957 140.98 52.245 142.146 54.9287 142.954C59.4008 144.3 63.0817 143.32 69.566 143.652C69.7147 143.659 69.6005 143.918 92.0964 144.162C92.1141 144.162 118.401 145.701 137.686 145.128C138.808 145.094 144.935 145.74 147.331 143.463C147.687 143.124 147.812 142.342 147.353 141.881C145.837 140.355 144.06 140.477 138.851 139.05C137.632 138.716 137.854 137.724 137.333 136.727C136.301 134.755 135.123 133.881 134.154 133.004C128.514 127.902 124.136 131.282 124.676 128.824C125.828 123.576 128.734 121.586 123.767 116.714C122.6 115.57 121.681 115.23 119.567 114.393C117.747 113.673 115.379 113.726 112.766 115.195C106.895 118.496 107.544 122.278 106.117 122.141C104.997 122.035 103.517 115.817 96.7754 115.367C96.1829 115.328 94.4988 115.303 93.7161 115.449C91.7062 115.823 89.7178 117.599 88.5611 119.029C86.7037 121.322 86.9927 123.425 86.864 129.566L86.8647 129.565Z" fill="white"/>
<path d="M104.288 55.8387C107.509 55.8042 109.752 55.9743 112.728 59.338C114.326 61.1447 114.228 61.6606 114.425 61.3095C118.533 54.0296 120.802 52.9472 126.384 52.6337C132.308 52.301 135.936 58.1452 135.918 61.6001C135.876 69.7776 132.708 65.1308 139.942 67.8505C141.869 68.5749 143.451 69.878 143.328 71.9347C143.255 73.1673 142.663 73.9952 141.842 75.3941C141.428 76.0994 141.094 75.7122 145.303 77.1426C145.842 77.3258 147.742 77.992 148.436 78.3653C149.715 79.0521 149.677 79.8662 149.066 80.2479C146.939 81.5748 142.769 80.8941 139.223 81.0605C136.179 81.2038 101.858 80.901 97.5406 80.54C96.2428 80.4311 93.7822 80.5461 93.5254 80.543C84.4218 80.4311 77.6815 81.3395 75.802 79.5373C75.3742 79.1272 75.3535 78.6037 75.7782 78.1805C76.0273 77.9314 76.3339 77.7735 76.6375 77.6141C79.2752 76.2251 81.8646 75.6655 83.236 75.3213C84.2532 75.066 84.5054 75.2316 84.3935 74.9081C83.886 73.4379 84.2087 71.4932 85.0688 70.1149C86.4516 67.8996 90.6171 67.0464 93.9071 68.732C95.2562 69.4235 94.9496 69.3882 94.4675 67.212C93.3123 62.0017 97.4838 55.9115 104.289 55.8379L104.288 55.8387ZM145.389 80.1636C146.61 80.1667 148.839 79.742 148.358 79.3925C148.187 79.2683 148.015 79.1357 147.822 79.059C142 76.7364 140.168 77.0905 140.611 75.7122C141.055 74.3348 144.768 70.883 139.764 68.8309C138.164 68.1748 135.893 67.7639 134.83 67.7915C134.265 67.806 133.879 67.4243 134.057 66.8095C135.566 61.6254 135.224 58.832 131.49 55.2599C130.572 54.3822 129.239 54.0035 127.968 53.759C126.697 53.5145 126.608 53.6203 124.465 53.828C116.083 54.639 115.311 65.8897 113.559 62.3168C112.888 60.95 111.532 59.2881 109.336 57.8179C108.068 56.9686 106.719 56.9847 105.423 56.8858C102.214 56.6412 99.9652 57.1771 97.1527 60.3215C95.6694 61.9803 94.922 64.7421 95.5544 67.3913C95.7744 68.3143 95.7852 69.2771 96.0925 70.1824C96.1592 70.3786 96.0734 70.5495 95.9086 70.6706C95.5621 70.9259 95.257 70.5955 95.096 70.4851C91.287 67.8758 85.5693 68.3219 85.1945 72.7587C85.1332 73.4801 85.081 74.2152 85.3049 74.9319C85.8392 76.6451 81.3962 75.6586 76.452 78.6612C76.2841 78.7631 76.2826 78.872 76.452 78.9517C79.565 80.4196 86.8342 79.1663 101.844 79.7512C113.829 80.218 145.346 80.1628 145.389 80.1628V80.1636Z" fill="white"/>
<path d="M10.4312 144.558C42.8816 144.558 41.2289 145.633 43.1177 144.51C44.5189 143.676 40.9177 142.543 39.0994 142.088C34.6964 140.986 34.0049 141.626 33.4714 138.887C32.9977 136.455 33.0966 135.267 31.4707 134.382C30.7111 133.969 29.1458 133.558 28.022 133.621C26.2789 133.719 25.4602 134.244 23.392 135.523C22.4438 136.109 21.8827 136.756 21.3132 135.887C20.4309 134.542 20.066 128.219 13.0574 129.158C9.76662 129.598 8.10934 133.554 7.06376 132.188C6.82766 131.88 6.58006 130.787 5.63951 130.241C4.68055 129.685 4.25512 129.796 3.94083 129.43C3.22564 128.6 6.22668 128.556 7.39414 130.551C7.75213 131.163 7.6609 131.288 8.06181 130.96C10.4389 129.015 11.0253 128.082 14.4594 128.046C16.4203 128.025 18.3167 128.733 19.7072 130.324C21.0786 131.893 21.1139 132.483 21.6642 134.081C22.046 135.187 22.0054 135.206 22.2744 135.042C24.2751 133.82 25.405 133.018 26.8645 132.764C28.4835 132.483 30.1691 132.745 31.5282 133.308C33.3342 134.057 33.8087 135.206 34.1115 136.779C35.144 142.139 34.2127 139.169 41.475 141.762C43.0349 142.319 43.7393 142.644 44.2706 143.566C44.6224 144.176 44.4124 145.034 43.051 145.575C41.1415 146.334 38.4463 145.9 37.1133 145.842C28.3532 145.456 6.12243 145.891 4.40919 145.423C4.17003 145.358 4.05965 144.898 4.43602 144.805C5.34822 144.58 10.4312 144.541 10.4312 144.558Z" fill="white"/>
<path d="M60.4364 88.8378C61.1531 81.5226 60.7024 81.715 61.0826 81.2857C72.0719 68.8929 81.8967 58.1512 83.321 41.5432C84.1849 31.4784 79.6009 22.532 74.4581 19.1039C72.4038 17.7318 71.4709 16.9185 69.1115 15.9864C68.5181 15.7518 68.3388 15.5617 67.9816 15.1846C65.3738 12.4227 60.5215 9.71064 56.0173 9.4914C55.3895 9.46151 55.3657 9.0905 53.2147 8.199C51.2332 7.37726 48.2866 6.79851 45.9609 7.63559C45.6213 7.75824 45.5094 7.71377 45.2097 7.59649C42.874 6.67893 39.5188 6.8629 37.2958 8.95635C37.1011 9.14032 37.0329 9.19628 36.911 9.17942C35.952 9.03377 34.8781 9.0514 33.8057 9.23078C26.9497 10.3768 24.4224 13.7718 23.2074 15.403C22.8433 15.8921 22.5803 16.2447 22.3772 16.2999C21.2749 16.5996 19.8192 17.6613 18.9078 18.4807C13.8869 22.9812 12.537 29.194 11.8977 29.8464C8.52028 33.3027 6.23365 38.3896 5.78216 43.4542C5.53533 46.2383 5.7032 46.1724 5.69707 46.6254C5.61352 53.4461 10.4995 61.6866 14.7086 66.6714C23.6573 77.2675 39.8093 84.1143 40.9338 86.3104C45.5975 95.4293 46.9536 96.6267 46.6446 97.105C46.1472 97.88 46.8754 99.1402 47.6166 99.7028C47.8635 99.8899 47.8566 99.988 47.819 100.531C47.7056 102.16 47.8014 104.807 47.9493 106.575C48.0221 107.444 48.0168 107.474 47.7592 107.653C47.0264 108.161 46.7113 109.177 47.2962 109.949C47.4135 110.104 47.3951 110.123 47.2134 110.301C46.4239 111.078 46.6155 111.512 44.9475 113.093C44.2883 113.717 43.8529 114.13 44.0092 115.204C44.0675 115.603 44.6309 116.223 45.4964 116.299C46.4354 116.383 47.1337 115.544 47.714 114.68C47.6458 118.893 47.4924 120.519 49.0961 121.143C52.298 122.388 54.7417 121.602 57.5871 120.859C63.7609 119.244 68.6385 117.974 69.6419 116.066C69.865 115.642 69.8918 115.189 69.7216 114.72C69.3345 113.653 68.627 112.212 68.6577 112.029C69.8765 111.715 70.3533 110.257 69.8964 109.361C68.3771 106.381 66.2821 106.858 66.3404 106.088C66.4239 104.997 65.5922 103.849 65.212 103.7C64.1687 103.293 64.1473 103.433 64.0239 103.152C61.6046 97.6309 60.8473 97.1157 61.042 96.849C61.5142 96.2035 61.2451 95.1373 60.9032 94.5854C60.1934 93.4417 59.991 93.6655 60.0025 93.4831C60.0516 92.7648 60.2931 90.2658 60.4326 88.8401L60.4364 88.8378ZM47.8083 110.811C47.7922 112.612 47.4994 114.53 45.6313 115.353C44.4615 115.117 44.772 114.279 45.7125 113.56C46.4737 112.979 46.9428 112.164 47.2863 111.569C47.481 111.23 47.6542 110.93 47.8083 110.811ZM55.8202 106.917C48.0444 108.991 48.5894 110.028 48.1923 109.479C48.0789 109.322 47.97 109.175 47.9784 108.972C48.0068 108.352 48.6415 107.989 49.1689 107.794C56.7301 104.996 59.0421 104.764 63.137 104.318C63.6567 104.262 64.621 104.157 65.0395 104.951C65.1614 105.181 65.3546 105.484 65.3822 105.797C63.0595 105.066 58.195 106.283 55.8195 106.916L55.8202 106.917ZM48.7956 100.528C48.8055 100.525 48.8638 100.506 49.1451 100.594C51.4003 101.299 51.1719 100.054 51.4586 101.878C51.7092 103.467 51.835 104.06 51.9921 104.772C52.3516 106.393 52.1293 105.287 48.9957 106.98C48.8983 107.033 48.9098 100.782 48.7956 100.528ZM53.112 100.518C56.8865 99.7205 56.7501 99.2582 56.8727 99.6139C57.4967 101.445 57.5948 101.911 58.3936 103.778C58.5699 104.189 58.484 103.672 53.2347 105.312C53.0231 105.378 53.1695 105.756 52.3049 100.914C52.2977 100.765 52.5668 100.633 53.112 100.518ZM63.0243 103.307C62.802 103.329 61.8032 103.311 59.8784 103.689C59.7887 103.705 59.6676 103.701 59.5556 103.716C59.374 103.742 59.374 103.743 59.318 103.582C58.9186 102.44 57.8194 99.2843 57.7903 99.2115C57.6876 98.9631 59.0796 98.5385 60.2785 97.8102C60.3559 97.8455 60.3766 97.9543 62.0623 101.285C62.7821 102.708 63.035 103.208 63.0243 103.307ZM60.2731 96.34C60.2325 96.3185 60.1903 96.2902 60.1405 96.2572C59.5403 95.8632 58.2901 95.0422 51.1205 97.5067C48.745 98.3231 48.8393 99.2184 48.6668 99.2015C48.2245 99.1586 47.0624 97.6401 47.6964 97.1679C49.2509 96.0127 55.8486 94.071 59.0934 94.2166C59.689 94.2427 60.6043 95.3281 60.2731 96.34ZM18.0056 33.0843C18.1773 44.187 24.8217 58.3061 30.4597 67.0225C31.9767 69.3674 38.2157 78.0746 41.1937 81.5057C41.2297 81.5479 41.2972 81.6253 41.298 81.6468C41.2911 81.6782 41.0458 81.8614 41.0205 81.8806C40.8342 82.0224 40.641 82.168 40.5046 82.3857C39.6276 82.3796 24.8118 67.8312 19.5003 59.6077C15.8792 54.0011 13.8179 49.3413 12.8168 44.499L12.813 44.4844C9.60035 28.9104 19.7755 18.0645 21.6789 17.7081C21.3278 18.9997 17.84 22.3418 18.0056 33.0843ZM57.6094 86.3143C57.6623 88.8132 57.6937 89.9539 57.581 93.1764C57.5789 93.2278 57.4162 93.2769 57.0927 93.3251C57.0728 93.3282 55.7451 93.5451 55.7252 93.5428C55.6815 93.4371 55.8126 89.7155 55.3304 85.2794C55.322 85.2028 55.2162 84.2983 55.2783 84.2262C55.2936 84.2155 55.3956 84.2208 55.4147 84.2216C56.2457 84.253 56.852 83.9587 57.555 83.6889C57.5726 83.7716 57.5534 83.6812 57.6094 86.3143ZM53.04 78.4081C53.4301 78.6649 53.6287 78.4748 53.6616 78.6955C54.3891 83.6053 54.3531 83.5486 54.1216 83.7249C53.3021 84.3481 52.0849 84.9659 51.0561 84.9222C49.2808 84.8617 49.3766 85.1407 48.7994 83.268C47.5906 79.3494 47.3598 79.518 47.5814 79.2873C49.3268 77.4714 51.1635 77.1755 53.04 78.4081ZM49.6664 85.7417C51.014 85.7785 51.6127 86.2047 54.0986 84.8824C54.1737 84.8425 54.2327 84.7973 54.2803 84.7605C54.3684 84.6923 54.3676 84.5451 54.4903 86.0368C54.7088 88.6737 54.9035 90.321 55.0368 93.2807C55.0606 93.8203 55.0491 93.6778 53.2347 94.1178C52.4045 94.3178 52.4099 94.3815 52.3485 94.2458C52.2926 94.1239 49.6733 85.826 49.6656 85.7409L49.6664 85.7417ZM46.2108 86.6907C47.9846 86.6163 48.4936 85.7754 48.63 85.7662C48.6476 85.7785 51.1573 93.3773 51.605 94.5279C51.4785 94.6183 51.4923 94.6114 51.1558 94.7126C48.9727 95.3711 49.0516 95.5114 48.952 95.2944C46.4469 89.8258 45.1476 86.9375 44.9897 86.4914C45.1207 86.4975 45.4672 86.7175 46.2108 86.6907ZM48.1448 85.0242C47.1567 85.5861 45.8704 86.1418 44.6792 85.4366C44.368 85.2511 44.4607 85.2771 42.9483 82.0408C42.8625 81.8599 42.9322 82.0047 43.5555 81.1263C44.1442 80.2984 45.6251 79.0788 46.5458 79.4491C46.6646 79.4966 46.7343 79.7258 47.6159 82.516C48.3571 84.8624 48.4284 84.8617 48.144 85.0234L48.1448 85.0242ZM57.3763 82.8065C56.6481 83.186 56.3354 83.1944 55.8632 83.1952C55.1342 83.1967 55.1633 83.242 55.1005 82.5076C54.9878 81.2022 54.8506 80.5797 54.6198 79.4107C54.4021 78.3207 54.3929 78.3123 54.4719 78.2755C55.5864 77.7565 56.018 78.024 56.6305 78.5024C57.6262 79.2804 57.4315 81.8507 57.5251 82.4723C57.5603 82.7008 57.5542 82.713 57.3763 82.8065ZM53.2508 77.3755C51.2547 75.9643 48.8071 76.6849 47.3867 78.1475C46.5481 77.4008 38.2387 56.1682 34.455 39.022C32.9985 32.4273 32.1523 22.2698 34.5592 15.3471C35.1955 13.5135 36.0962 11.9865 37.571 10.2419C38.5437 9.08897 40.5636 8.14074 42.7237 8.19823C47.1828 8.29865 49.963 12.8474 51.6663 16.26C54.5064 21.9509 55.4776 30.5692 55.9613 36.5568C57.4645 55.1594 53.657 76.0164 53.2508 77.3755ZM40.5881 84.1626C40.5996 84.0468 40.7024 83.1806 41.9304 82.3872C42.0476 82.3114 42.1665 82.2316 42.1964 82.2416C42.2638 82.2615 43.58 85.4343 43.5938 85.491C43.5072 85.5155 43.0925 85.5109 43.0074 85.5125C42.421 85.5224 41.2604 85.2733 40.8319 84.8632C40.6418 84.6808 40.5598 84.4454 40.5881 84.1626ZM44.1242 86.7497C45.4672 90.0221 47.829 94.5708 48.3954 95.6831C48.2797 95.7796 48.2912 95.7658 47.4334 96.2288C47.2395 96.3339 47.2556 96.3584 46.601 95.1012C46.1993 94.3309 42.2968 87.1483 41.9089 86.3633C44.1242 86.7045 43.8437 86.0644 44.1235 86.7489L44.1242 86.7497ZM59.6676 81.8859C59.2368 82.3221 58.3752 82.4463 58.3583 82.2615C58.3414 82.0776 58.4112 82.0285 58.231 80.6211C58.0954 79.5656 58.113 79.6269 58.2035 79.6476C59.2383 79.8967 59.1394 80.1505 59.6009 80.6441C59.9044 80.9684 59.8998 81.6506 59.6676 81.8859ZM59.2406 93.2562C58.9907 93.2477 58.7998 93.2477 58.6542 93.2477C58.4587 93.2477 58.3046 93.2477 58.2809 93.2232C58.2333 93.1427 58.3514 91.3896 58.3698 91.1842C58.4365 90.4399 58.494 89.7967 58.4334 83.4926C58.4265 82.782 58.9846 83.498 60.0784 82.6026C60.1551 82.5536 59.5219 92.6674 59.2406 93.2562ZM59.5005 79.3686C59.4238 79.3433 59.1486 78.8741 58.4227 78.7492C58.3905 78.7438 58.3522 78.7369 58.3307 78.7308C58.3706 78.6112 58.4503 78.776 61.3049 71.4585C65.3316 61.1369 67.3055 55.1149 68.5595 44.7427C69.1919 39.5187 69.0969 31.2676 67.3959 25.497C65.2273 18.1373 62.4302 15.3632 58.8887 11.8508C58.3016 11.2683 57.8777 11.0138 57.5879 10.7455C65.9349 13.1218 71.6196 19.4696 73.9929 27.8487C75.5167 33.2292 75.2071 37.6023 75.1933 37.7388C75.1933 37.7388 75.1894 37.7541 75.1894 37.7618C75.1894 53.2721 67.4174 66.0551 62.7736 73.693C59.4391 79.1769 59.6576 79.2881 59.4997 79.3693L59.5005 79.3686ZM68.0444 113.856C67.4166 113.65 66.6347 113.393 59.3264 115.168C52.0082 116.946 49.7369 118.046 48.9911 118.407C48.9075 118.448 48.8316 118.485 48.7849 118.503C48.7849 118.447 48.7933 118.377 48.7864 118.309C48.617 111.893 48.7458 114.718 48.6959 110.996C48.6867 110.401 48.9857 110.152 51.7361 109.253C51.6724 109.505 51.2493 110.158 50.7687 111.311C50.121 112.868 51.2677 114.152 52.6444 113.93C53.5689 113.784 54.5738 112.575 54.5355 111.178C54.4865 109.299 53.9077 108.745 53.9989 108.562C54.038 108.485 54.1599 108.484 56.2917 107.884C58.3836 107.295 58.1866 107.36 58.1245 107.581C58.0869 107.709 58.0823 107.741 58.0593 107.86C57.8462 108.957 57.5228 110.613 58.1751 111.587C58.6143 112.241 59.4667 112.293 60.1183 112.122C62.0002 111.631 61.9626 108.494 60.9209 106.812C61.2206 106.701 65.1124 106.201 65.5416 107.165C65.675 107.465 68.0927 113.122 68.3687 113.94C68.246 113.922 68.151 113.891 68.0444 113.856ZM59.2897 111.259C58.5062 111.069 58.691 109.634 58.7891 108.863C59.0014 107.197 58.9761 107.209 59.1356 107.161C59.6837 106.995 59.9504 106.958 60.2041 107.307C61.1754 108.651 61.0205 111.677 59.2897 111.259ZM53.6049 111.098C53.5735 111.791 53.5666 112.244 52.8169 112.838C52.1469 113.368 51.2869 112.546 51.5337 111.944C52.4421 109.726 52.5593 109.801 52.6989 109.039C52.7142 108.953 52.7671 108.873 52.8537 108.873C53.26 108.873 53.6425 110.389 53.6049 111.098ZM66.6447 107.461C68.0076 108.103 68.8232 108.947 69.1345 110.036C69.1199 110.51 68.765 111.04 68.3549 111.197C68.269 111.231 68.2713 111.252 68.1494 110.932C67.9915 110.517 66.6501 107.479 66.6439 107.462L66.6447 107.461Z" fill="white"/>
</svg>
