<svg width="250" height="250" viewBox="0 0 250 250" fill="none" xmlns="http://www.w3.org/2000/svg">
<path d="M132.9 114.137C132.438 114.137 131.925 114.537 132.013 115.062C132.128 115.371 132.351 115.628 132.64 115.786C132.929 115.945 133.265 115.994 133.588 115.925C134.625 115.562 134.063 113.95 132.9 114.137ZM133.513 115.688C133.292 115.689 133.073 115.641 132.874 115.546C132.675 115.45 132.5 115.311 132.363 115.137C132.038 114.512 133.463 114.05 133.813 114.925C133.872 115.066 133.874 115.225 133.818 115.367C133.761 115.51 133.652 115.625 133.513 115.688ZM175.238 157.188C175.238 157.025 174.963 157.012 174.963 157.188C174.963 157.55 175.188 159.612 175.125 159.688C174.648 159.905 174.16 160.097 173.663 160.262C173.488 160.35 173.663 160.587 173.788 160.55C174.187 160.472 174.58 160.364 174.963 160.225C175.288 160.112 175.65 160.012 175.7 159.6C175.725 159.375 175.25 157.625 175.238 157.188ZM168.75 165.625C168.3 168.387 170.438 169.625 172.3 166.5C172.498 166.178 172.624 165.817 172.672 165.442C172.719 165.067 172.686 164.686 172.575 164.325C172.063 162.962 169.125 163.112 168.75 165.625ZM35.7377 77.85C44.7252 50 50.6376 46.175 54.4126 31.9C54.411 31.8684 54.3995 31.8382 54.3797 31.8136C54.3599 31.789 54.3328 31.7712 54.3023 31.7629C54.2718 31.7546 54.2395 31.7561 54.2099 31.7673C54.1803 31.7784 54.1551 31.7986 54.1376 31.825C50.3876 45.65 40.6502 57.7375 35.3877 77.7625C35.3819 77.7855 35.3807 77.8094 35.3842 77.8328C35.3877 77.8562 35.3958 77.8787 35.408 77.8991C35.4202 77.9194 35.4362 77.9371 35.4553 77.9512C35.4743 77.9653 35.4959 77.9755 35.5189 77.9812C35.5419 77.987 35.5658 77.9882 35.5892 77.9847C35.6126 77.9812 35.6351 77.9731 35.6555 77.9609C35.6758 77.9487 35.6935 77.9327 35.7076 77.9136C35.7217 77.8946 35.7319 77.873 35.7377 77.85ZM90.0001 47.2875C88.3156 57.4739 85.8074 67.5068 82.5001 77.2875C82.4126 77.525 82.7751 77.6125 82.8626 77.4C86.4184 67.6725 88.9324 57.5953 90.3626 47.3375C90.3251 47.1625 90.0001 47.075 90.0001 47.2875ZM124.188 102.637C126.913 95.473 128.372 87.8893 128.5 80.225C128.49 80.191 128.47 80.1612 128.442 80.1399C128.414 80.1186 128.379 80.1071 128.344 80.1071C128.309 80.1071 128.274 80.1186 128.246 80.1399C128.218 80.1612 128.197 80.191 128.188 80.225C127.983 87.8387 126.517 95.3658 123.85 102.5C123.75 102.775 124.113 102.85 124.188 102.637ZM192.4 87.975C192.274 93.739 192.726 99.5012 193.75 105.175C193.761 105.218 193.786 105.256 193.821 105.283C193.856 105.311 193.899 105.325 193.944 105.325C193.988 105.325 194.031 105.311 194.067 105.283C194.102 105.256 194.127 105.218 194.138 105.175C193.563 99.4375 192.775 93.8 192.688 88.025C192.679 87.9958 192.663 87.9696 192.64 87.9493C192.617 87.9291 192.589 87.9156 192.559 87.9104C192.53 87.9052 192.499 87.9085 192.471 87.9199C192.442 87.9313 192.418 87.9504 192.4 87.975ZM226.25 108.587C221.75 96.225 219.125 87 219.25 73.0375C219.241 73.0065 219.222 72.9794 219.196 72.9601C219.17 72.9408 219.139 72.9303 219.106 72.9303C219.074 72.9303 219.043 72.9408 219.017 72.9601C218.991 72.9794 218.972 73.0065 218.963 73.0375C218.75 85 220.688 97.85 225.838 108.75C225.925 108.962 226.25 108.812 226.25 108.587ZM155 27.2375C155.238 26.85 155.238 26.125 154.825 26.2375C154.413 26.35 154.438 26.6375 154.438 26.975C154.428 27.0437 154.441 27.1136 154.474 27.1745C154.508 27.2354 154.559 27.2841 154.622 27.3134C154.685 27.3427 154.756 27.3512 154.824 27.3375C154.892 27.3239 154.953 27.2888 155 27.2375ZM169.663 35.2125C169.663 34.925 169.413 34.6 169.1 34.7125C168.973 34.7476 168.864 34.8317 168.799 34.9465C168.733 35.0613 168.716 35.1974 168.75 35.325C168.789 35.4228 168.859 35.5049 168.949 35.5586C169.04 35.6122 169.146 35.6344 169.25 35.6215C169.354 35.6086 169.451 35.5615 169.526 35.4875C169.601 35.4135 169.649 35.3167 169.663 35.2125ZM238.85 175.262C235.051 174.852 231.234 174.636 227.413 174.612C225.825 174.612 223.475 174.45 222.1 175.537C223.1 169.462 216.388 163.662 207.363 167.412C205.494 168.19 203.75 169.239 202.188 170.525C200.984 171.585 200.039 172.906 199.425 174.387C193.663 170.512 187.413 177.025 190.675 180.3C187.982 179.712 185.193 179.712 182.5 180.3C180.663 180.688 177.225 181.725 177.5 184.25C177.775 186.775 181.388 186.75 183.275 186.85C198.188 187.712 214.775 188.1 229.525 185.6C231.127 185.523 232.672 184.985 233.975 184.05C234.435 183.612 234.726 183.026 234.797 182.396C234.868 181.765 234.714 181.129 234.363 180.6C235.87 180.514 237.368 180.297 238.838 179.95C240.175 179.625 242.313 179.275 243.288 178.162C245.413 175.712 239.875 175.4 238.85 175.262ZM237.8 179.662C233.925 180.475 232.425 179.737 232.425 180.187C232.425 180.637 235.538 181.562 233.613 183.712C232.175 185.337 226.375 185.663 224.575 185.887C221.488 186.288 218.388 186.562 215.313 186.75C211.425 186.975 181.825 186.95 179.313 185.65C177.313 184.625 178.15 182.65 179.788 181.725C182.05 180.475 187.288 179.712 192.288 181.325C192.638 181.437 192.763 180.913 192.438 180.788C189.713 179.762 189.838 177.25 191.675 175.412C193.925 173.162 197.088 173.55 199.613 175.175C200.25 175.55 200.15 173.688 201.075 172.562C203.858 169.271 207.821 167.202 212.113 166.8C219.163 166.337 222.938 171.913 221.325 176.55C221.225 176.825 221.675 177.012 221.8 176.75C222.713 174.85 225.65 175.087 227.425 175.125C229.675 175.125 238.55 175.637 240.738 175.987C243.488 176.525 244.288 178.312 237.8 179.662ZM112.738 217.687C110.958 216.817 109.017 216.328 107.038 216.25C104.213 215.925 101.4 215.637 98.5626 215.462C92.5664 215.04 86.5437 215.187 80.5751 215.9C78.1876 216.3 79.4501 216.625 80.2877 214.65C81.2751 212.375 80.0126 209.725 78.1626 208.3C73.7501 205 66.7751 206.25 62.0501 208.612C62.4684 207.679 62.6243 206.649 62.5009 205.634C62.3776 204.619 61.9797 203.656 61.3502 202.85C59.4376 200.25 55.8251 199.1 52.7752 198.725C44.9627 197.662 40.6877 202.75 41.4501 207.387C33.3502 204.962 30.9252 210.95 33.6877 213.637C31.4608 213.042 29.1133 213.068 26.9002 213.712C25.3377 214.262 24.1252 215.9 24.7252 217.462C23.1002 216.862 20.8002 217.35 19.2877 217.6C16.187 218.106 13.1575 218.979 10.2627 220.2C9.22515 220.637 6.20015 221.7 6.25015 223.237C6.25015 225.175 25.5877 225.737 31.8127 224.7C31.1502 226.2 32.5127 227.2 34.1502 227.7C39.6988 229.01 45.5266 228.42 50.7001 226.025C52.9376 225.012 54.0877 226.725 63.3126 228.075C68.0044 228.696 72.7701 228.454 77.3751 227.362C78.8502 227.037 81.0501 226.65 82.0251 225.362C82.2632 225.073 82.4065 224.718 82.4355 224.344C82.4646 223.971 82.3781 223.598 82.1876 223.275C84.939 223.45 87.6988 223.45 90.4501 223.275C94.0626 223.275 97.6626 223.275 101.275 223.062C104.25 222.85 113.125 222.837 114.088 220.412C114.5 219.212 113.575 218.187 112.738 217.687ZM110.713 221.437C106.475 222.375 85.3251 223.163 81.3502 222.488C81.281 222.478 81.2108 222.494 81.1527 222.533C81.0945 222.571 81.0523 222.629 81.034 222.697C81.0156 222.764 81.0223 222.836 81.0529 222.898C81.0835 222.961 81.1358 223.011 81.2001 223.037C82.5876 223.562 81.5251 225.012 80.9127 225.45C80.5627 225.712 77.1626 227.3 71.3751 227.725C66.5403 227.973 61.6961 227.476 57.0126 226.25C55.2664 225.708 53.4932 225.258 51.7001 224.9C49.8314 225.888 47.8562 226.66 45.8127 227.2C42.2127 228.025 30.4002 228.363 32.5252 224.538C32.9002 224.475 32.6627 223.737 32.3002 224.037C26.1127 225.137 10.2252 224.512 7.90015 223.575C6.13765 222.85 7.36265 222.325 8.28765 221.7C11.0712 220.165 14.0787 219.076 17.2002 218.475C19.2752 218 23.3502 216.812 25.2877 218.25C25.5127 218.425 25.7627 218.062 25.5752 217.875C24.1377 216.35 25.7252 214.55 27.2377 214.125C30.506 213.493 33.8881 213.836 36.9627 215.112C37.2127 215.212 37.3252 214.787 37.0752 214.725C34.3002 213.8 33.1627 212.55 33.1252 211.225C33.1233 210.583 33.297 209.952 33.6275 209.401C33.9579 208.851 34.4326 208.401 35.0002 208.1C37.0627 206.85 39.5751 207.375 41.7377 208.1C41.7868 208.11 41.8376 208.107 41.8854 208.092C41.9332 208.077 41.9765 208.05 42.0113 208.014C42.0461 207.978 42.0713 207.934 42.0847 207.885C42.098 207.837 42.099 207.786 42.0877 207.737C41.8395 206.51 41.9425 205.237 42.3847 204.065C42.8268 202.894 43.5904 201.87 44.5877 201.112C48.4627 197.862 55.7376 199.137 59.2751 201.625C61.6376 203.312 63.0252 206.7 61.0126 209.212C60.8126 209.45 61.0126 209.863 61.3751 209.675C65.2206 207.342 69.787 206.497 74.2126 207.3C79.8376 208.462 81.2126 213 78.9501 215.625C78.2751 216.325 76.8876 216.438 76.8501 216.688C76.6751 217.762 82.8001 215.675 91.3126 215.837C96.7694 215.929 102.218 216.296 107.638 216.938C109.313 217.137 112.638 217.375 113.475 219.137C114.163 220.662 111.738 221.25 110.713 221.413V221.437ZM166.813 52.5C165.563 52.8375 163.775 53.525 163.425 55C163.138 56.25 164.15 56.7875 165.188 56.95C168.825 57.525 174.525 56.8 175.975 56.775C177.03 56.875 178.054 57.1853 178.988 57.6875C181.103 58.4515 183.36 58.7455 185.601 58.549C187.841 58.3526 190.012 57.6704 191.963 56.55C192.925 55.9875 193.513 55.3 194.663 55.3C197.063 55.1625 199.425 55.3 201.813 54.9C203.688 54.6125 206.425 54.4 207.988 53.2375C208.172 53.1282 208.331 52.981 208.454 52.8057C208.577 52.6304 208.661 52.431 208.701 52.2207C208.741 52.0104 208.736 51.7939 208.687 51.5856C208.637 51.3773 208.544 51.182 208.413 51.0125C207.363 49.6875 201.925 48.9625 196.15 49.025C194.9 49.025 191.725 49.4125 191.725 49.4125C190.675 43.65 183.5 43.2375 181.138 48.1625C180.536 47.9202 179.881 47.8384 179.238 47.925C177.763 48.1 176.938 50.075 177.1 51.3C175.968 51.3083 174.883 51.7565 174.075 52.55C173.375 53.2375 173.163 52.975 172.25 52.675C170.493 52.0929 168.604 52.0321 166.813 52.5ZM173.538 53.6375C173.588 53.6629 173.646 53.6693 173.702 53.6555C173.757 53.6418 173.805 53.6088 173.838 53.5625C174.384 52.6745 175.257 52.0359 176.269 51.7835C177.28 51.5312 178.351 51.6852 179.25 52.2125C179.463 52.3375 179.638 52.0125 179.425 51.8875C178.839 51.5352 178.181 51.3175 177.5 51.25C177.5 48.975 179.3 47.5 181.25 48.75C181.281 48.7686 181.316 48.7799 181.353 48.7829C181.389 48.7859 181.425 48.7805 181.459 48.7672C181.493 48.754 181.523 48.7331 181.548 48.7063C181.572 48.6795 181.59 48.6474 181.6 48.6125C181.945 47.5271 182.651 46.5921 183.6 45.9623C184.549 45.3325 185.685 45.0456 186.819 45.1491C187.954 45.2527 189.018 45.7404 189.838 46.5316C190.657 47.3227 191.182 48.37 191.325 49.5C191.341 49.5506 191.373 49.5948 191.415 49.6263C191.458 49.6577 191.51 49.6748 191.563 49.675C194.851 49.3085 198.168 49.2791 201.463 49.5875C205.213 49.85 210.488 50.8375 207.4 52.8625C205.125 54.4125 198.713 54.7125 195.575 54.6625C194.15 54.6625 193.988 54.4375 192.925 55.2125C191.28 56.3922 189.412 57.2226 187.434 57.6525C185.456 58.0825 183.411 58.1029 181.425 57.7125C180.081 57.3651 178.768 56.9052 177.5 56.3375C176.509 56.1123 175.479 56.1123 174.488 56.3375C172.825 56.4625 166.1 56.85 164.938 56.3375C162.188 55.0875 165.538 53.3875 166.263 53.125C167.444 52.7126 168.696 52.5399 169.945 52.6172C171.195 52.6945 172.416 53.0201 173.538 53.575V53.6375ZM82.7751 33.0375C84.3479 32.9433 85.9001 32.632 87.3876 32.1125C87.3876 33.6125 91.7376 35.1375 95.8001 33.3625L97.5001 32.5C98.6408 32.8482 99.8012 33.1278 100.975 33.3375C105.445 33.9438 109.991 33.6591 114.35 32.5C115.488 32.15 117.175 31.725 117.538 30.3875C117.629 29.8492 117.546 29.2957 117.301 28.8078C117.056 28.3199 116.662 27.923 116.175 27.675C114.837 27.1358 113.347 27.1047 111.988 27.5875C111.148 26.1202 109.821 24.9927 108.238 24.4C106.986 24.0069 105.653 23.9489 104.372 24.2318C103.091 24.5148 101.907 25.1288 100.938 26.0125C100.353 25.1645 99.5401 24.5003 98.5924 24.0974C97.6447 23.6946 96.602 23.5698 95.586 23.7376C94.5701 23.9054 93.6228 24.3588 92.855 25.045C92.0872 25.7312 91.5306 26.6217 91.2501 27.6125C90.7705 27.6408 90.3017 27.7662 89.8719 27.9811C89.4422 28.196 89.0606 28.4958 88.7501 28.8625C86.4017 28.1008 83.8979 27.9502 81.4751 28.425C80.1501 28.7 77.7251 29.2625 76.8876 30.575C75.3376 33.175 81.6001 33.1125 82.7751 33.0375ZM88.9126 29.375C88.9546 29.3869 88.9992 29.3848 89.0398 29.369C89.0804 29.3532 89.1148 29.3246 89.1376 29.2875C89.3937 28.9378 89.7161 28.642 90.0865 28.417C90.4569 28.1919 90.868 28.042 91.2963 27.9759C91.7246 27.9097 92.1618 27.9286 92.5828 28.0314C93.0038 28.1342 93.4005 28.3189 93.7501 28.575C93.8751 28.675 94.0501 28.45 93.9251 28.35C93.3385 27.896 92.6282 27.6302 91.8876 27.5875C92.22 26.7275 92.7837 25.9762 93.5164 25.4165C94.2491 24.8569 95.1222 24.5107 96.0394 24.4163C96.9565 24.3218 97.8819 24.4828 98.7132 24.8814C99.5446 25.2801 100.25 25.9008 100.75 26.675C100.773 26.706 100.804 26.7312 100.838 26.7486C100.873 26.766 100.911 26.775 100.95 26.775C100.989 26.775 101.027 26.766 101.062 26.7486C101.097 26.7312 101.127 26.706 101.15 26.675C102.297 25.4023 103.903 24.6373 105.614 24.5482C107.325 24.4592 109.002 25.0533 110.275 26.2C111.7 27.45 111.525 28.275 112 28.1625C113.25 27.8375 114.825 27.3 115.975 28.05C117.9 29.3 117.225 31.1 115.125 31.8C111.607 32.858 107.929 33.2813 104.263 33.05C102.138 32.9625 99.5001 32.95 97.6001 31.8875C97.5651 31.8639 97.5237 31.8512 97.4814 31.8512C97.4391 31.8512 97.3977 31.8639 97.3626 31.8875C96.0314 32.9038 94.4423 33.5273 92.7751 33.6875C91.2751 33.825 88.1501 33.6875 87.9626 31.675C87.9616 31.6418 87.9533 31.6092 87.9382 31.5796C87.9231 31.55 87.9016 31.5241 87.8753 31.5038C87.849 31.4835 87.8186 31.4693 87.7861 31.4621C87.7537 31.455 87.72 31.4551 87.6876 31.4625C85.9706 32.2063 84.132 32.63 82.2626 32.7125C80.905 32.7008 79.5521 32.55 78.2252 32.2625C74.7001 31.25 81.1376 26.6 88.9126 29.375ZM169.138 152.5C169.12 152.466 169.092 152.438 169.059 152.418C169.026 152.398 168.989 152.387 168.95 152.387C168.912 152.387 168.874 152.398 168.841 152.418C168.808 152.438 168.781 152.466 168.763 152.5C168.609 152.841 168.549 153.216 168.588 153.587C168.565 153.968 168.611 154.349 168.725 154.712C168.838 154.975 169.263 154.875 169.175 154.587C168.95 153.525 169.363 153.25 169.138 152.5ZM178.438 151.25C178.405 151.23 178.367 151.218 178.329 151.218C178.29 151.217 178.252 151.227 178.219 151.246C178.185 151.265 178.158 151.293 178.139 151.327C178.12 151.361 178.111 151.399 178.113 151.437C178.113 151.85 178.613 152.363 178.55 153.5C178.55 153.56 178.574 153.617 178.616 153.659C178.658 153.701 178.715 153.725 178.775 153.725C178.835 153.725 178.892 153.701 178.934 153.659C178.976 153.617 179 153.56 179 153.5C179.175 152.85 179.038 151.55 178.438 151.25Z" fill="#4C2FB3"/>
<path d="M228.113 114.425C227.963 113.975 225.763 114.063 224.925 114.175C225.825 113.738 226.763 112.5 226.475 112.188C225.875 111.513 224.45 112.188 223.45 112.65C224.1 111.95 224.763 111 223.725 110.888C222.688 110.775 221.225 112.025 220.475 112.488C219.332 113.196 218.279 114.04 217.338 115C217.263 114.85 217.175 114.713 217.1 114.575C217.072 114.53 217.03 114.496 216.98 114.478C216.93 114.46 216.876 114.459 216.825 114.475C213.938 115.488 211.488 114.363 204.875 115.525C199.513 116.488 197.675 118.575 194.95 120.138C190.9 122.475 187.938 120.138 182.313 121.513C179.713 122.188 178.088 123.413 175.488 124.875C173.55 122.825 167.988 122.125 167.988 122.1C148.4 108.925 122.375 100.438 99.5127 110.425C95.9003 111.982 92.5321 114.054 89.5127 116.575C87.8797 116.162 86.1843 116.057 84.5127 116.263C81.7752 116.538 81.0877 115.275 79.3377 114.3C76.8377 112.875 73.7877 113.263 70.9752 113.688C71.4669 112.654 71.8522 111.574 72.1252 110.463C72.2002 108.463 68.8252 107.413 72.2627 100.463C72.803 99.5731 73.1362 98.5734 73.2377 97.5376C73.2377 96.0251 72.2127 94.7251 71.6627 93.3126C69.9627 88.9751 72.9127 86.8126 73.2877 83.8001C73.5377 81.4751 72.1877 79.5001 72.1752 76.9251C72.1752 76.2001 72.6002 75.4626 72.4752 74.7751C71.6778 74.5623 70.8679 74.3994 70.0502 74.2876C70.0502 73.8501 70.0502 73.4251 69.9877 73.0376H70.1877C70.9377 72.3876 72.4252 68.4126 71.1252 66.8626C70.6877 66.3251 58.4377 60.7251 57.8002 63.1126C57.5127 64.2251 58.5377 65.3876 59.5002 66.0251C63.1502 68.4126 62.8752 70.7126 63.7752 70.9001C63.5502 71.6376 63.3127 72.3626 63.0502 73.0876C62.5144 73.0034 61.9664 73.0462 61.4502 73.2126C60.3252 73.7126 60.6752 74.6126 60.4502 75.7126C59.7127 79.7626 56.4502 83.5751 54.8252 87.3376C54.0027 89.6329 53.5308 92.0391 53.4252 94.4751C52.9377 98.4626 54.0377 103.15 52.6377 106.875C51.9784 108.378 51.2269 109.839 50.3877 111.25C48.0252 115.763 48.1502 120.938 49.6877 123.925C50.2002 124.888 50.9377 125.7 51.5377 126.613C52.6252 128.263 52.7877 131.163 53.9502 132.55C54.7752 133.513 56.8752 133.8 58.5002 133.8C59.3127 133.375 60.1002 132.875 60.8877 132.55C64.6377 130.75 66.3877 133.65 69.6377 132.725C71.9127 132.075 73.8502 130.313 76.3377 130.813C76.5002 130.813 76.4252 131.088 76.2627 131.063C73.3377 130.5 71.2627 133.15 68.4627 133.438C66.9252 133.6 65.6127 132.788 64.1252 132.613C62.1127 132.363 60.5127 133.4 58.8377 134.338C55.7752 136.038 51.3377 134.988 48.1877 136.25C47.8252 136.413 43.8252 138.313 43.8377 138.325C42.9252 136.225 43.5627 133.838 43.8377 131.563C44.4636 128.647 44.3736 125.623 43.5752 122.75C42.9356 121.204 42.2137 119.694 41.4127 118.225C39.4252 113.225 42.5127 107.95 41.7252 103.225C41.2502 101.25 40.0002 99.8251 39.8502 96.6376C39.8502 95.7876 40.2002 94.9001 40.1127 94.1376C39.6077 93.9655 39.0893 93.8358 38.5627 93.7501V92.0251C38.8377 92.1126 38.8877 91.9501 38.9127 91.9001C39.6421 91.027 40.0793 89.9472 40.1627 88.8126C40.1997 88.1566 40.0794 87.5014 39.812 86.9013C39.5446 86.3012 39.1377 85.7736 38.6252 85.3626C38.0502 85.0001 27.0752 82.9376 26.1252 82.8626C24.4127 82.6376 24.4252 85.1876 27.0752 86.7626C28.0627 87.3626 30.7377 88.3001 31.4877 90.2501C31.4877 90.3251 31.5877 90.6876 31.7877 90.7501C31.7002 91.6251 31.5627 92.4876 31.4127 93.3501H29.2877C29.2877 93.3501 26.9252 102.413 26.5002 103.163C24.6877 106.375 22.3627 109.525 21.9502 113.3C21.5752 116.55 22.7252 119.863 22.1002 123.075C21.5502 125.825 19.7752 128.075 18.5252 130.65C13.5252 140.488 19.0377 143.475 21.2752 148.25C22.8377 151.575 22.2127 155.238 24.2377 158.438C25.1741 159.943 26.4234 161.228 27.9009 162.208C29.3784 163.187 31.0493 163.837 32.8002 164.113C36.8377 164.663 40.9377 163.138 44.9627 163.788C46.6839 164.156 48.3792 164.636 50.0377 165.225C55.2872 166.737 60.8758 166.588 66.0377 164.8C68.5377 163.938 70.8752 162.7 73.4627 162.45C76.5002 162.138 78.6002 163.063 81.4252 164.138C81.9877 165.713 83.5002 165.95 85.0377 166.438C91.315 168.572 97.7883 170.079 104.363 170.938C101.863 172.188 99.3627 173.163 97.4877 175.3C95.5451 177.475 94.5076 180.31 94.5877 183.225C94.8143 186.263 96.1806 189.102 98.4127 191.175C99.9152 192.573 101.056 194.314 101.738 196.25C102.094 197.835 102.631 199.375 103.338 200.838C104.008 202.098 104.926 203.211 106.036 204.109C107.147 205.007 108.427 205.671 109.8 206.063C113.45 207.113 115.763 206.8 119.063 210.538C121.138 212.888 122.938 215.338 126.238 215.875C128.149 216.069 130.076 216.069 131.988 215.875C132.938 215.875 137.363 215.688 137.75 217.3C137.825 217.625 138.25 217.513 138.275 217.225C138.326 216.681 138.488 216.154 138.75 215.675C139.586 217.008 140.567 218.245 141.675 219.363C142.525 220.2 143.813 221.663 145.05 221.863C146.575 222.15 145.75 220.775 144.825 219.588C145.614 220.155 146.451 220.652 147.325 221.075C147.725 221.263 148.5 221.538 148.75 220.938C149 220.338 148.163 219.688 147.85 219.413C147.538 219.138 147.263 218.85 146.95 218.563C148.688 219.5 150.7 220.3 150.9 219.175C151.038 218.438 149.863 218.113 148.325 217.088C149.2 217.338 150.238 217.538 150.513 217.088C151.013 216.225 149.2 215.588 148.4 215.075C147.85 214.738 147.238 214.363 146.65 214.025C147.763 213.85 149.613 213.338 148.938 212.238C148.45 211.438 146.8 212.238 142.688 212.238C143.113 211.971 143.529 211.733 143.938 211.525C144.163 211.388 144.013 210.975 143.75 211.075C142.813 211.425 142.388 208.063 142.238 207.525C141.35 203.888 139.525 200.563 136.175 198.838C134.05 197.75 132.225 196.963 131 194.788C128.963 191.15 128.5 189.113 124.313 188.013C138.063 182.488 149.675 173.738 161.1 164.55C162.463 170.35 170.313 173.088 175.95 167.525C180.125 163.4 181.325 155.813 181.263 155.488C182.588 154.588 182.6 154.238 182.863 152.475C183.201 150.57 183.302 148.63 183.163 146.7C183.663 145.749 184.114 144.773 184.513 143.775C190.275 141.463 192.338 141.775 195.575 140.025C197.7 138.875 199.613 137.375 201.675 136.125C203.848 134.933 206.151 133.994 208.538 133.325C213.35 131.75 215.313 128.325 217.713 124.338C218.206 123.722 218.653 123.07 219.05 122.388C219.212 121.432 219.212 120.456 219.05 119.5C219.55 119.663 220.05 119.8 220.55 119.95C221.05 120.1 222.888 121.138 223.375 120.613C224.113 119.825 222.75 118.863 221.875 118.388C223.023 118.233 224.179 118.146 225.338 118.125C225.988 118.125 227.263 118.125 227.663 117.4C228.063 116.675 227.05 116.325 225.963 116.15C227.05 115.838 228.4 115.3 228.113 114.425ZM63.5752 73.1751C63.8127 72.4751 64.0377 71.7626 64.2252 71.0501C66.0982 71.4606 67.9213 72.0725 69.6627 72.8751V74.2626C65.6627 73.7501 65.1377 73.3876 63.5752 73.1876V73.1751ZM38.0252 93.6751C36.6627 93.5126 33.0252 93.3501 31.9502 93.3376C32.0752 92.5376 32.1502 91.7376 32.2002 90.9376H32.3127C34.2685 91.0502 36.2056 91.3814 38.0877 91.9251C38.0752 92.5001 38.0502 93.1001 38.0252 93.6751ZM167.575 122.188C166.549 122.038 165.512 121.975 164.475 122C161.85 122.127 159.283 122.821 156.951 124.033C154.619 125.245 152.577 126.947 150.965 129.023C149.352 131.098 148.208 133.498 147.61 136.057C147.012 138.617 146.974 141.275 147.5 143.85C147.635 145.686 147.953 147.503 148.45 149.275C146.718 149.934 144.92 150.403 143.088 150.675C145.488 148.838 145.863 144.3 144.8 141.838C144.102 140.272 143.013 138.911 141.638 137.888C135.45 129.138 132.75 122.375 130.088 113.4C136.625 113.163 143.163 112.788 149.713 112.588C155.967 115.195 161.949 118.411 167.575 122.188ZM158.825 154.688C157.793 154.448 156.892 153.819 156.312 152.931C155.733 152.044 155.518 150.967 155.713 149.925C155.777 149.394 155.951 148.882 156.224 148.422C156.496 147.962 156.862 147.564 157.297 147.253C157.732 146.943 158.227 146.726 158.751 146.617C159.275 146.508 159.815 146.509 160.338 146.621C160.861 146.733 161.355 146.952 161.789 147.265C162.222 147.578 162.586 147.978 162.856 148.439C163.127 148.901 163.298 149.413 163.36 149.945C163.421 150.476 163.371 151.014 163.213 151.525C163.036 152.532 162.467 153.428 161.63 154.016C160.793 154.604 159.758 154.837 158.75 154.663L158.825 154.688ZM81.2502 127.563C82.4543 125.215 83.9357 123.02 85.6627 121.025C100.75 103.775 127.638 103.4 149.113 112.275C142.678 112.133 136.24 112.391 129.838 113.05C129.818 113.052 129.8 113.057 129.783 113.066C129.766 113.075 129.751 113.088 129.739 113.103C129.727 113.119 129.719 113.136 129.714 113.155C129.71 113.174 129.709 113.194 129.713 113.213C131.83 121.884 135.622 130.058 140.875 137.275C137.95 135.3 134.175 134.2 131.1 133.188C118.62 129.385 105.67 127.341 92.6252 127.113C89.785 126.918 86.9704 127.757 84.7002 129.475C82.9234 130.875 81.6651 132.828 81.1252 135.025C79.2627 132.688 79.8752 130.25 81.2502 127.563ZM81.3877 135.4C81.9352 133.276 83.1487 131.384 84.8502 130C87.0655 128.266 89.8433 127.411 92.6502 127.6C103.562 127.788 114.416 129.226 125 131.888C132.75 133.938 145 137.15 145 144.688C145 146.688 144.263 149.688 142.35 150.75C139.025 151.109 135.669 151.08 132.35 150.663C120.668 148.98 109.085 146.673 97.6502 143.75C92.1377 142.3 85.0002 139.763 81.3877 135.4ZM147.375 212.225C148.713 212 148.625 212.675 148.338 212.975C147.599 213.363 146.784 213.585 145.95 213.625C145.906 213.627 145.863 213.642 145.827 213.67C145.792 213.697 145.766 213.735 145.754 213.778C145.742 213.821 145.743 213.867 145.758 213.909C145.773 213.951 145.801 213.987 145.838 214.013C146.525 214.438 147.238 214.813 147.9 215.263C148.589 215.588 149.246 215.977 149.863 216.425C150.225 216.788 149.738 216.975 148.963 216.788C147.125 216.513 146.863 215.9 145.538 215.225C145.49 215.206 145.438 215.205 145.39 215.221C145.342 215.238 145.301 215.271 145.276 215.315C145.25 215.359 145.241 215.41 145.25 215.46C145.259 215.51 145.286 215.556 145.325 215.588C146.75 216.463 148.038 217.488 149.5 218.325C149.925 218.575 150.888 219.425 149.825 219.325C149.006 219.1 148.214 218.785 147.463 218.388C146.453 217.9 145.487 217.327 144.575 216.675C144.35 216.513 144.138 216.888 144.363 217.038C145.586 217.922 146.728 218.914 147.775 220C148.238 221.25 146.525 220 146.1 219.788C145.204 219.241 144.336 218.648 143.5 218.013C143.325 217.863 143.013 218.013 143.175 218.275C144.075 219.525 145.95 221.338 144.588 221.2C144.075 221.2 143.338 220.375 143.063 220.075C141.486 218.672 140.121 217.046 139.013 215.25C139.852 214.111 140.92 213.162 142.15 212.463C145.15 212.5 146.063 212.213 147.375 212.225ZM147.55 174.263C140.093 179.624 132.075 184.159 123.638 187.788C122.162 187.599 120.79 186.926 119.738 185.875C118.588 184.5 118.488 182.575 117.013 181.413C116.863 181.288 116.65 181.5 116.8 181.625C118.338 182.875 118.375 185.05 119.75 186.438C121.888 188.575 126.263 187.325 129.163 192.1C129.853 193.667 130.69 195.166 131.663 196.575C134.238 199.45 138.588 198.263 141.175 206C141.775 207.763 141.925 210.413 142.938 211.363C140.863 212.55 138.463 214.113 137.85 216.463C136.925 215.575 134.763 215.388 133.8 215.338C130.3 215.163 126.45 216.338 123.313 214.225C120.95 212.638 119.563 209.963 117.35 208.238C115.138 206.513 112.1 206.3 109.413 205.425C105.663 204.175 103.525 201.05 102.55 197.413C101.363 192.95 100.738 193.088 97.8752 189.763C96.5732 188.33 95.6963 186.563 95.343 184.659C94.9897 182.756 95.174 180.792 95.8752 178.988C97.2002 175.625 99.8877 173.638 103.038 172.113C105.838 170.75 108.2 169.475 109.863 166.75C110.766 164.992 112.046 163.455 113.613 162.25C115.345 161.089 117.39 160.483 119.475 160.513C119.509 160.503 119.539 160.482 119.56 160.454C119.582 160.426 119.593 160.392 119.593 160.356C119.593 160.321 119.582 160.287 119.56 160.258C119.539 160.23 119.509 160.21 119.475 160.2C116.646 160.159 113.914 161.238 111.875 163.2C109.888 165.15 109.238 168.413 104.975 170.6C98.8851 169.881 92.8809 168.562 87.0502 166.663C85.0752 166.038 82.1752 165.725 81.7002 163.375C81.5359 162.455 81.4522 161.522 81.4502 160.588C81.2116 152.83 81.6634 145.066 82.8002 137.388C89.6627 143.038 100.138 145 108.738 146.85C115.813 148.375 122.95 149.775 130.138 150.788C133.812 151.37 137.541 151.525 141.25 151.25C145.85 155.363 147.15 159.238 147.25 163.838C147.5 166.663 147.7 170.513 147.5 174.263H147.55ZM151.688 171.238C152.938 163.1 152.438 156.175 147.85 149.825L148.55 149.563C150.175 154.95 152.875 157.163 156.05 158.313C155.795 158.996 155.685 159.725 155.728 160.454C155.771 161.182 155.964 161.893 156.297 162.543C156.63 163.192 157.095 163.765 157.661 164.224C158.228 164.684 158.884 165.021 159.588 165.213C157 167.2 154.363 169.238 151.688 171.25V171.238ZM175.538 167.238C169.513 173.15 161.35 169.388 161.025 162.663C161.017 162.638 161.001 162.616 160.98 162.6C160.958 162.585 160.933 162.577 160.906 162.577C160.88 162.577 160.854 162.585 160.833 162.6C160.812 162.616 160.796 162.638 160.788 162.663C160.789 163.153 160.835 163.643 160.925 164.125L159.95 164.888C158.603 164.392 157.442 163.493 156.625 162.313C156.286 161.712 156.087 161.043 156.041 160.355C155.996 159.667 156.106 158.977 156.363 158.338C159.925 159.475 161.9 158.475 160.8 154.975C164.18 157.175 168.106 158.391 172.138 158.488C172.138 158.488 172.763 155.875 174.95 156.275C175.788 156.425 176.575 157.938 177.088 157.9C177.61 157.752 178.095 157.496 178.513 157.15C179.297 156.691 180.057 156.19 180.788 155.65C179.725 159.825 178.75 164.088 175.538 167.238ZM182.288 153.413C181.875 154.888 178.113 157.163 177.65 157.363C176.775 157.65 176.9 157.363 176.4 156.888C175.964 156.384 175.355 156.062 174.693 155.986C174.031 155.91 173.365 156.084 172.825 156.475C172.392 156.949 172.053 157.5 171.825 158.1C171.825 158.1 169.113 157.95 168.275 157.775C165.616 157.191 163.079 156.15 160.775 154.7C161.377 154.451 161.914 154.068 162.347 153.581C162.779 153.094 163.095 152.515 163.271 151.887C163.447 151.26 163.477 150.601 163.361 149.96C163.245 149.319 162.985 148.713 162.6 148.188C168.05 151.825 174.963 150.438 181.013 147.875C181.438 147.7 182.363 147 182.763 147.3C182.841 149.349 182.682 151.4 182.288 153.413ZM217.063 124.263C215.425 126.963 213.825 129.988 211.038 131.663C208.25 133.338 205.088 133.613 202.288 135.138C199.225 136.85 196.588 139.25 193.3 140.575C191.538 141.275 189.675 141.488 187.913 142.138C186.775 142.563 185.638 142.963 184.475 143.388C184.951 141.741 185.125 140.021 184.988 138.313C184.418 135.611 183.31 133.052 181.729 130.789C180.148 128.525 178.128 126.603 175.788 125.138C179.2 123.338 181.088 121.638 185.788 121.5C187.625 121.5 189.45 121.875 191.288 121.8C197.138 121.525 197.538 115.188 212.8 115.425C213.45 115.425 216.05 115.05 216.55 115.15C217.638 115.375 218.475 118.663 218.563 120.225C218.625 121.988 217.925 122.838 217.063 124.263ZM224 116.038C223.971 116.03 223.94 116.029 223.91 116.035C223.88 116.042 223.852 116.055 223.828 116.073C223.804 116.092 223.784 116.116 223.771 116.143C223.758 116.171 223.751 116.201 223.751 116.231C223.751 116.262 223.758 116.292 223.771 116.319C223.784 116.347 223.804 116.371 223.828 116.389C223.852 116.408 223.88 116.421 223.91 116.427C223.94 116.433 223.971 116.433 224 116.425C224.6 116.425 227.75 116.425 226.763 117.413C226.138 118.075 220.688 117.413 220.963 118.325C220.969 118.356 220.985 118.384 221.007 118.406C221.029 118.428 221.057 118.444 221.088 118.45C221.213 118.45 223.175 119.438 222.825 120.213C222.713 120.488 219.675 119.263 218.825 118.963C218.569 117.651 218.114 116.386 217.475 115.213C218.574 114.149 219.79 113.214 221.1 112.425C221.679 111.988 222.331 111.658 223.025 111.45C224.9 111.2 222.838 112.7 222.388 113.075C222.238 113.188 222.388 113.463 222.575 113.4C222.95 113.238 225.4 112.063 225.8 112.338C226.775 113.013 223.375 114.363 223.138 114.463C223.107 114.463 223.077 114.47 223.05 114.484C223.023 114.498 223 114.518 222.981 114.542C222.963 114.566 222.95 114.594 222.945 114.624C222.939 114.654 222.94 114.685 222.948 114.714C222.956 114.743 222.97 114.771 222.99 114.794C223.01 114.817 223.035 114.835 223.063 114.847C223.091 114.858 223.121 114.864 223.151 114.862C223.182 114.861 223.211 114.852 223.238 114.838C224.521 114.523 225.842 114.385 227.163 114.425C227.938 115.413 224.313 116.013 224 116.038ZM170.325 36.3376C170.575 35.9651 170.702 35.5238 170.689 35.0756C170.675 34.6273 170.522 34.1944 170.25 33.8376C170.081 33.6642 169.876 33.5313 169.648 33.449C169.42 33.3666 169.177 33.337 168.936 33.3622C168.696 33.3875 168.464 33.467 168.259 33.5948C168.053 33.7226 167.879 33.8954 167.75 34.1001L166.863 33.4751C167.7 33.1501 171.375 31.6251 171.938 28.9501C171.96 28.7383 171.93 28.5243 171.852 28.3263C171.773 28.1283 171.649 27.9521 171.488 27.8126C169.9 26.9251 165.013 28.2126 159.95 29.8001L156.25 27.8251C156.461 27.3552 156.533 26.8349 156.458 26.3255C156.382 25.8161 156.163 25.3389 155.825 24.9501C154.738 24.0751 153.688 24.8626 153.25 25.9501C151.875 24.9251 144.788 21.2126 143.425 21.7751C142.063 22.3376 143.8 24.2751 144.675 25.2126C146.838 27.2626 150.475 30.0501 152.713 31.7626C147.083 33.2937 141.582 35.2665 136.263 37.6626C135.738 36.8126 132.763 34.2001 132.238 34.3501C131.713 34.5001 131.825 35.5376 132.825 39.8251C133.05 40.7751 133.238 41.5126 133.875 41.8876C134.288 42.1251 141.025 40.7001 142.775 40.2626C147.488 39.0126 150.9 38.7751 158.8 36.2001C164.963 38.0501 171.9 41.9501 172.8 39.3001C173.138 38.5501 172.125 37.3751 170.325 36.3376ZM140.225 38.4876C139.563 38.3376 139.263 37.2376 140.038 37.0001C140.249 36.9361 140.475 36.9403 140.684 37.0122C140.892 37.084 141.073 37.2197 141.2 37.4001C141.248 37.5409 141.258 37.6919 141.228 37.8376C141.198 37.9833 141.13 38.1185 141.031 38.2292C140.932 38.3399 140.805 38.4223 140.663 38.4677C140.522 38.5131 140.37 38.5199 140.225 38.4876ZM144.213 36.9376C142.638 36.6501 144.588 34.6126 145.263 35.7876C145.538 36.3751 144.913 37.0501 144.213 36.9376ZM147.15 36.0001C146.538 36.5626 145.588 36.1376 145.775 35.4001C145.842 35.2415 145.954 35.1061 146.098 35.011C146.241 34.9158 146.409 34.8651 146.581 34.8651C146.754 34.8651 146.922 34.9158 147.065 35.011C147.209 35.1061 147.321 35.2415 147.388 35.4001C147.394 35.5114 147.377 35.6228 147.336 35.7264C147.295 35.8301 147.231 35.9235 147.15 36.0001ZM150 35.0001C149.675 35.7751 147.713 35.5251 148.275 34.3376C148.825 33.4376 150.725 33.9001 150 35.0001ZM156.038 27.5001C155.966 27.7978 155.797 28.0628 155.556 28.2524C155.316 28.442 155.019 28.5451 154.713 28.5451C154.407 28.5451 154.109 28.442 153.869 28.2524C153.629 28.0628 153.459 27.7978 153.388 27.5001C153 26.2501 154.275 24.1251 155.638 25.1876C155.912 25.4979 156.098 25.8766 156.175 26.2836C156.252 26.6907 156.217 27.1109 156.075 27.5001H156.038ZM168.75 36.8001C168.476 36.6862 168.238 36.5023 168.058 36.2667C167.878 36.0312 167.763 35.7524 167.725 35.4584C167.687 35.1644 167.727 34.8656 167.841 34.592C167.955 34.3185 168.139 34.0798 168.375 33.9001C168.521 33.7961 168.688 33.7248 168.865 33.691C169.041 33.6573 169.223 33.662 169.397 33.7047C169.571 33.7474 169.734 33.8271 169.875 33.9385C170.016 34.0499 170.131 34.1902 170.213 34.3501C170.763 35.6501 169.725 37.0126 168.75 36.8001Z" fill="#4C2FB3"/>
</svg>
