<svg width="40" height="40" viewBox="0 0 40 40" fill="none" xmlns="http://www.w3.org/2000/svg">
<path d="M19.9833 3.33333C10.7833 3.33333 3.33334 10.8 3.33334 20C3.33334 29.2 10.7833 36.6667 19.9833 36.6667C29.2 36.6667 36.6667 29.2 36.6667 20C36.6667 10.8 29.2 3.33333 19.9833 3.33333ZM20 33.3333C12.6333 33.3333 6.66668 27.3667 6.66668 20C6.66668 12.6333 12.6333 6.66666 20 6.66666C27.3667 6.66666 33.3333 12.6333 33.3333 20C33.3333 27.3667 27.3667 33.3333 20 33.3333ZM25.8333 18.3333C27.2167 18.3333 28.3333 17.2167 28.3333 15.8333C28.3333 14.45 27.2167 13.3333 25.8333 13.3333C24.45 13.3333 23.3333 14.45 23.3333 15.8333C23.3333 17.2167 24.45 18.3333 25.8333 18.3333ZM14.1667 18.3333C15.55 18.3333 16.6667 17.2167 16.6667 15.8333C16.6667 14.45 15.55 13.3333 14.1667 13.3333C12.7833 13.3333 11.6667 14.45 11.6667 15.8333C11.6667 17.2167 12.7833 18.3333 14.1667 18.3333ZM20 29.1667C23.8833 29.1667 27.1833 26.7333 28.5167 23.3333H11.4833C12.8167 26.7333 16.1167 29.1667 20 29.1667Z" fill="#6E44FF"/>
</svg>
