<svg width="40" height="40" viewBox="0 0 40 40" fill="none" xmlns="http://www.w3.org/2000/svg">
<path d="M36.6667 8.63334L17.65 27.6667L10.5833 20.6L12.9333 18.25L17.65 22.9667L34.3167 6.30001L36.6667 8.63334ZM32.9833 17.0333C33.2 17.9833 33.3333 18.9833 33.3333 20C33.3333 27.3667 27.3667 33.3333 20 33.3333C12.6333 33.3333 6.66666 27.3667 6.66666 20C6.66666 12.6333 12.6333 6.66668 20 6.66668C22.6333 6.66668 25.0667 7.43334 27.1333 8.75001L29.5333 6.35001C26.8333 4.45001 23.55 3.33334 20 3.33334C10.8 3.33334 3.33333 10.8 3.33333 20C3.33333 29.2 10.8 36.6667 20 36.6667C29.2 36.6667 36.6667 29.2 36.6667 20C36.6667 18.0167 36.3 16.1167 35.6667 14.35L32.9833 17.0333Z" fill="#6E44FF"/>
</svg>
